<svg width="28" height="10" viewBox="0 0 28 10" version="1.1" xmlns="http://www.w3.org/2000/svg" xmlns:xlink="http://www.w3.org/1999/xlink" xmlns:figma="http://www.figma.com/figma/ns"><title>default</title><desc>Created using Figma</desc><g id="Canvas" transform="translate(-10 -11)" figma:type="canvas"><g id="default" style="mix-blend-mode:normal;" figma:type="vector"><use xlink:href="#path0_fill" transform="translate(10.25 11)" style="mix-blend-mode:normal;"/></g></g><defs><path id="path0_fill" d="M 0.104329 3.34758C 0.303793 1.81758 1.63308 0.807199 3.16067 0.590018C 7.31069 1.11022e-16 11.2338 0 13.75 0L 13.75 3.70287e-50C 16.2662 9.3178e-34 20.1893 1.11022e-16 24.3393 0.590017C 25.8669 0.807199 27.1962 1.81758 27.3957 3.34759C 27.5348 4.41461 27.5348 5.58539 27.3957 6.65241C 27.1962 8.18242 25.8669 9.1928 24.3393 9.40998C 20.1893 10 16.2662 10 13.75 10L 13.75 10C 11.2338 10 7.31069 10 3.16067 9.40998C 1.63308 9.1928 0.303793 8.18242 0.104329 6.65242C -0.0347764 5.58539 -0.0347764 4.41461 0.104329 3.34758Z"/></defs></svg>
