<svg width="128" height="128" viewBox="0 0 128 128" fill="none" xmlns="http://www.w3.org/2000/svg">
    <defs>
        <symbol id="frame-1">
<path d="M33.0126 18.9559C34.6694 21.2784 34.2665 24.0964 30.6277 24.2628C31.2575 25.8628 30.588 28.1115 27.7624 28.2345C28.1029 30.9976 26.5577 32.4501 24.761 33.2142L86.4448 82.7371L95.3602 70.5081L33.0126 18.9559Z" fill="#FF9800"/>
<path d="M33.7786 20.2665C34.6921 23.024 32.6874 24.8056 30.6278 24.2628C31.9195 26.519 30.5881 28.1115 27.7625 28.2344C28.1029 30.9976 26.5578 32.4501 24.7611 33.2141C24.7611 33.2141 21.5459 22.5568 17.7955 18.9426C10.2304 11.6574 18.6447 16.4953 19.2612 16.7374C22.7355 18.1104 33.7786 20.2665 33.7786 20.2665Z" fill="#FFFAC5"/>
<path d="M87.2618 85.4265C86.8363 85.4264 86.4236 85.2802 86.093 85.0123L21.7066 33.165L21.7766 32.191C21.7766 32.1191 22.2305 24.4368 16.9746 19.6575L15.6394 18.4433L16.8082 17.0684C17.0146 16.8337 17.183 16.5683 17.3075 16.2816L17.9884 13.5714L20.2144 15.3511C20.2711 15.3946 26.4272 19.9185 32.2826 17.8211L33.2925 17.4599L94.6586 69.0802C95.0201 69.4037 95.2414 69.8553 95.2757 70.3392C95.31 70.8232 95.1546 71.3014 94.8423 71.6727C94.53 72.044 94.0855 72.2791 93.6028 72.3283C93.1202 72.3774 92.6374 72.2367 92.2567 71.936L32.4925 21.6623C28.8613 22.6287 25.3586 21.893 22.7033 20.8679C25.1619 25.0458 25.5062 29.4902 25.5251 31.4458L88.4344 82.1054C88.7356 82.3477 88.9541 82.6776 89.0598 83.0494C89.1655 83.4213 89.1531 83.8167 89.0244 84.1813C88.8957 84.5458 88.657 84.8613 88.3413 85.0844C88.0256 85.3074 87.6484 85.427 87.2618 85.4265Z" fill="black"/>
<path d="M19.7094 19.1904C26.6711 21.2538 30.2494 21.5148 31.6111 21.5148C31.8347 21.5189 32.0583 21.5087 32.2806 21.4845C33.109 22.188 33.4041 24.2628 31.4561 24.2628C30.9435 24.2628 30.2759 24.119 29.421 23.7692C31.2253 25.9252 30.4499 27.7068 28.7269 27.7068C28.1453 27.6887 27.5768 27.5297 27.0702 27.2434C28.3771 29.0893 27.3747 31.1565 25.9619 31.1565C25.7675 31.1547 25.5751 31.1168 25.3945 31.0449C25.3945 31.0449 23.212 23.858 19.7207 19.1904H19.7094ZM13.7159 15.0164L17.8767 20.5691C21.0919 24.8415 23.1723 31.6444 23.1969 31.7125L23.5203 32.7792L24.5605 33.1858C25.0081 33.3616 25.4847 33.4521 25.9657 33.4525C26.6946 33.4391 27.4057 33.2254 28.0212 32.8347C28.6366 32.4441 29.1327 31.8916 29.4551 31.2378C29.6801 30.8007 29.8351 30.331 29.9147 29.8458C30.4501 29.7027 30.9479 29.4449 31.3738 29.0903C31.7996 28.7356 32.1433 28.2926 32.3809 27.7919C32.5888 27.3449 32.7125 26.8634 32.7459 26.3716C33.2592 26.221 33.7297 25.9516 34.1194 25.5852C34.5091 25.2188 34.807 24.7658 34.9889 24.2628C35.5563 22.7498 35.0211 20.8017 33.7691 19.7351L32.9369 19.0277L31.9761 19.2169C31.927 19.2169 31.8078 19.2169 31.6111 19.2169C30.4915 19.2169 27.1515 18.9994 20.3619 16.989L13.7046 15.0164H13.7159Z" fill="black"/>
<path d="M30.8566 28.8113L40.5702 37.8762C40.6767 37.9708 40.7425 38.1029 40.7539 38.245C40.7653 38.387 40.7213 38.5279 40.6312 38.6383C40.5411 38.7487 40.4118 38.8199 40.2704 38.8372C40.129 38.8545 39.9863 38.8165 39.8723 38.731L29.0429 31.0354C28.8817 30.929 28.7435 30.7912 28.6367 30.6303C28.5298 30.4694 28.4565 30.2886 28.421 30.0988C28.3855 29.9089 28.3886 29.7138 28.4301 29.5252C28.4716 29.3365 28.5506 29.1581 28.6625 29.0007C28.7743 28.8432 28.9168 28.7099 29.0813 28.6086C29.2457 28.5074 29.4289 28.4403 29.6199 28.4113C29.8109 28.3823 30.0057 28.3921 30.1929 28.44C30.38 28.488 30.5555 28.5731 30.7091 28.6903C30.7611 28.727 30.8104 28.7675 30.8566 28.8113Z" fill="black"/>
<path d="M36.1843 27.9546L61.7581 48.9042C61.904 49.0236 62.0249 49.1707 62.114 49.3369C62.2031 49.5031 62.2586 49.6852 62.2773 49.8729C62.296 50.0605 62.2776 50.25 62.223 50.4305C62.1685 50.6111 62.079 50.7791 61.9595 50.925C61.84 51.0709 61.693 51.1918 61.5268 51.2809C61.3606 51.37 61.1784 51.4255 60.9908 51.4442C60.8031 51.4629 60.6136 51.4445 60.4331 51.39C60.2526 51.3354 60.0846 51.2459 59.9387 51.1264C59.922 51.1136 59.9063 51.0997 59.8914 51.0848L35.2576 29.0383C35.1166 28.9146 35.0299 28.7403 35.0165 28.5533C35.003 28.3662 35.0639 28.1813 35.1858 28.0387C35.3077 27.8962 35.4808 27.8074 35.6678 27.7916C35.8547 27.7759 36.0403 27.8344 36.1843 27.9546Z" fill="black"/>
<path d="M94.356 90.5253L94.9649 91.2459C95.9919 92.4544 98.0439 94.8393 98.9366 95.6374C103.368 99.5996 105.511 97.6157 108.858 92.7703C112.143 88.0175 114.984 84.8269 109.011 81.0765C107.411 80.0704 102.553 77.555 102.553 77.555" fill="#EB5D72"/>
<path d="M103.073 99.2781C101.471 99.2781 99.818 98.4724 97.923 96.776C97.0171 95.9665 95.1806 93.8596 93.8 92.2369C93.4218 91.7944 93.1854 91.5069 93.1854 91.5069C93.0485 91.3541 92.9438 91.1754 92.8775 90.9814C92.8112 90.7873 92.7846 90.5819 92.7994 90.3774C92.8141 90.1728 92.8699 89.9734 92.9633 89.7908C93.0568 89.6083 93.186 89.4464 93.3433 89.3149C93.5006 89.1833 93.6828 89.0848 93.879 89.0251C94.0752 88.9655 94.2814 88.9459 94.4853 88.9676C94.6892 88.9893 94.8867 89.0519 95.0659 89.1515C95.2452 89.2511 95.4025 89.3858 95.5286 89.5475C95.5286 89.5475 95.765 89.8293 96.1301 90.2586C97.94 92.3882 99.3717 93.975 99.9599 94.5008C101.358 95.7509 102.443 96.3107 103.275 96.2029C104.503 96.0573 105.842 94.4459 107.606 91.8946C107.826 91.575 108.045 91.2629 108.259 90.9489C109.847 88.6794 111.219 86.7201 110.929 85.2751C110.74 84.3541 109.827 83.3706 108.202 82.3474C106.674 81.3848 101.902 78.9129 101.853 78.8883C101.673 78.797 101.513 78.6711 101.382 78.5176C101.251 78.3642 101.152 78.1863 101.09 77.9943C101.028 77.8022 101.005 77.5999 101.021 77.3988C101.038 77.1978 101.095 77.002 101.187 76.8228C101.28 76.6437 101.407 76.4846 101.562 76.3549C101.716 76.2252 101.895 76.1274 102.088 76.0671C102.28 76.0069 102.483 75.9853 102.684 76.0037C102.885 76.0221 103.08 76.0801 103.258 76.1743C103.459 76.2784 108.193 78.7313 109.83 79.7678C112.223 81.2808 113.562 82.8789 113.923 84.6851C114.473 87.4104 112.752 89.8653 110.761 92.7116C110.551 93.0104 110.335 93.3168 110.12 93.6308C108.128 96.5131 106.265 98.9263 103.637 99.2365C103.45 99.2617 103.261 99.2756 103.073 99.2781Z" fill="black"/>
<path d="M91.243 86.2019C88.4742 89.7839 91.2828 92.8837 94.7381 88.5527C95.9031 87.0926 100.737 80.3352 102.43 77.3602C104.039 74.5233 100.35 71.6486 99.4871 74.0807C98.4696 76.9176 95.3093 80.3087 95.3093 80.3087" fill="#D1D3D4"/>
<path d="M99.4871 74.0807C100.735 71.7337 97.0776 69.8083 95.7821 71.6996C94.7267 73.241 88.5688 82.0846 86.9461 85.0993C85.5768 87.6392 89.1815 90.2057 90.5792 88.0326" fill="#D1D3D4"/>
<path d="M90.997 87.2553C90.8892 87.6029 90.8021 87.9566 90.736 88.3145C90.6809 88.5912 90.6751 88.8755 90.719 89.1542C90.7606 89.3755 90.8627 89.4776 90.9081 89.4643C90.9535 89.4511 90.9365 89.4397 90.9459 89.4284C90.9554 89.4171 90.9743 89.4133 91.0178 89.4114C91.1819 89.3997 91.3435 89.3653 91.4982 89.3092C91.7502 89.2208 91.9908 89.1028 92.215 88.9575C92.765 88.5917 93.2512 88.1381 93.6542 87.6147C93.8755 87.3291 94.1138 87.0076 94.3464 86.688L95.0443 85.7196C95.5083 85.0665 95.9692 84.4102 96.4268 83.7508C97.341 82.4307 98.2399 81.1018 99.1238 79.764C99.5664 79.0964 100.005 78.4288 100.433 77.7593C100.648 77.4264 100.862 77.0935 101.068 76.7607C101.174 76.5942 101.274 76.4278 101.371 76.2633C101.467 76.0987 101.584 75.9115 101.632 75.815C101.889 75.346 101.93 74.911 101.821 74.633C101.781 74.511 101.709 74.402 101.613 74.3172C101.554 74.2641 101.478 74.2328 101.399 74.2283C101.358 74.2261 101.318 74.2346 101.282 74.2528C101.217 74.2786 101.158 74.3165 101.108 74.3644C101.071 74.3938 101.038 74.4267 101.007 74.4628C100.98 74.49 100.954 74.5191 100.93 74.5498L100.841 74.6576C100.722 74.7956 100.601 74.9545 100.48 75.1039L99.0046 76.9782C98.0004 78.2321 96.9923 79.4973 95.8859 80.6926C95.7724 80.8145 95.6194 80.8922 95.454 80.9118C95.2886 80.9315 95.1217 80.8918 94.9828 80.7999C94.8439 80.708 94.7421 80.5698 94.6956 80.4099C94.649 80.25 94.6607 80.0788 94.7285 79.9267C95.067 79.1701 95.4415 78.4534 95.8292 77.7385C96.2169 77.0236 96.6273 76.3181 97.0453 75.6184C97.4632 74.9186 97.9058 74.234 98.3786 73.538C98.5016 73.3659 98.6169 73.1975 98.7569 73.0198L98.8533 72.8874C98.8874 72.842 98.912 72.806 98.9687 72.7417C99.0652 72.6204 99.1701 72.506 99.2827 72.3994C99.7842 71.9057 100.435 71.5924 101.134 71.5086C101.869 71.4288 102.608 71.6169 103.215 72.0382C103.502 72.2346 103.757 72.4737 103.971 72.7474C104.174 73.0136 104.339 73.3063 104.463 73.6174C104.581 73.9212 104.659 74.2391 104.695 74.563C104.729 74.8704 104.729 75.1805 104.695 75.4879C104.629 76.0571 104.461 76.6098 104.2 77.12C104.068 77.3867 103.973 77.5342 103.863 77.7252C103.754 77.9162 103.651 78.0921 103.544 78.268C103.33 78.6255 103.112 78.9754 102.895 79.3234C102.456 80.0174 102.01 80.7002 101.56 81.3773C100.652 82.7314 99.7309 84.0667 98.7985 85.3981C98.3351 86.0657 97.8642 86.722 97.3914 87.3915L96.6708 88.3863C96.4287 88.7192 96.1848 89.0464 95.9143 89.3982C95.3343 90.1602 94.6469 90.8342 93.8736 91.3991C93.4332 91.7142 92.9481 91.9616 92.4344 92.1329C91.8209 92.3406 91.1642 92.3862 90.528 92.2653C90.1506 92.1894 89.7916 92.041 89.4707 91.8284C89.3037 91.7144 89.1484 91.5838 89.0074 91.4388C88.8708 91.2908 88.7497 91.1293 88.6462 90.9566C88.4572 90.6339 88.3362 90.2761 88.2906 89.905C88.2524 89.5842 88.2645 89.2594 88.3265 88.9424C88.4349 88.4087 88.661 87.906 88.9885 87.4709C89.2706 87.0852 89.6166 86.7507 90.0116 86.4818C90.0846 86.4333 90.1664 86.3997 90.2523 86.383C90.3383 86.3663 90.4267 86.3667 90.5125 86.3843C90.5983 86.4018 90.6797 86.4362 90.7522 86.4854C90.8246 86.5346 90.8866 86.5977 90.9346 86.6709C90.9886 86.7503 91.0246 86.8405 91.0399 86.9353C91.0553 87.0301 91.0497 87.1271 91.0235 87.2194L90.997 87.2553Z" fill="black"/>
<path d="M99.6761 73.2751C99.5738 73.1165 99.446 72.976 99.2979 72.859C99.1456 72.733 98.9823 72.6209 98.8099 72.5242C98.441 72.3119 98.0445 72.1515 97.6317 72.0476C97.3039 71.9482 96.9574 71.9269 96.6198 71.9852C96.5485 71.9997 96.4828 72.0345 96.4307 72.0854C96.4123 72.1022 96.397 72.1221 96.3853 72.1441L96.1357 72.5223C94.791 74.5611 93.4387 76.5829 92.0884 78.6046L90.0685 81.6307C89.4065 82.6387 88.7333 83.6468 88.1262 84.6567L87.7347 85.3186C87.6627 85.4411 87.6116 85.5747 87.5834 85.7139C87.5336 85.9916 87.5882 86.2778 87.7366 86.5177C87.8915 86.7848 88.1073 87.0116 88.3663 87.1797C88.4746 87.2576 88.5965 87.3147 88.7257 87.348C88.9008 87.3857 89.0831 87.3706 89.2496 87.3045L89.4387 87.244C89.5724 87.2006 89.7159 87.1974 89.8515 87.2346C89.9871 87.2718 90.1088 87.3479 90.2017 87.4534C90.2946 87.559 90.3546 87.6894 90.3742 87.8286C90.3939 87.9678 90.3724 88.1097 90.3125 88.2369C90.102 88.6578 89.7591 88.998 89.3366 89.2052C88.8865 89.4198 88.3853 89.5044 87.8897 89.4492C87.4301 89.3915 86.9866 89.2427 86.5852 89.0115C86.1838 88.7803 85.8326 88.4713 85.5521 88.1026C84.9663 87.3489 84.6746 86.4078 84.7313 85.4548C84.7612 84.9851 84.8713 84.5239 85.0566 84.0912C85.0793 84.0383 85.1001 83.9853 85.1247 83.9361C85.1493 83.887 85.1777 83.8227 85.1947 83.7943L85.3101 83.5787L85.5427 83.1475C86.1706 82.0411 86.8136 80.9933 87.4775 79.9531C88.1413 78.9129 88.8127 77.8879 89.4954 76.8685C90.8628 74.8353 92.2718 72.8306 93.6978 70.8485L93.9645 70.4703C94.1261 70.2405 94.3168 70.0326 94.5319 69.8519C94.9487 69.5072 95.4424 69.2678 95.9711 69.154C96.8401 68.977 97.7422 69.0653 98.5603 69.4074C99.307 69.7123 99.9633 70.2033 100.467 70.8334C100.734 71.1722 100.938 71.5567 101.068 71.9682C101.211 72.4036 101.227 72.8707 101.114 73.3148C101.075 73.447 100.999 73.5652 100.895 73.6555C100.79 73.7459 100.663 73.8044 100.526 73.8244C100.39 73.8443 100.251 73.8246 100.125 73.7678C99.9997 73.711 99.8931 73.6194 99.818 73.5039L99.6761 73.2751Z" fill="black"/>
<path d="M91.0405 87.1399C90.3237 88.252 91.328 89.4094 92.3322 88.8421C92.4041 90.826 89.1417 91.505 89.4953 88.9877C89.849 86.4704 91.0405 87.1399 91.0405 87.1399Z" fill="black"/>
<path d="M25.5723 17.874C19.855 16.1246 17.2072 12.7411 14.6691 10.8763L9.30737 13.5411C9.30737 13.5411 16.4564 17.9875 19.8436 23.7351C21.2224 22.1502 23.8134 19.8296 25.5723 17.874Z" fill="black"/>
<path d="M108.482 86.1451C108.45 86.1796 108.416 86.2118 108.38 86.2416C108.344 86.2719 108.306 86.3059 108.27 86.3418L108.045 86.5442C107.895 86.6766 107.754 86.8165 107.608 86.9489C107.462 87.0813 107.326 87.2213 107.19 87.3594C107.054 87.4974 106.916 87.6298 106.791 87.7754C106.277 88.3216 105.809 88.9093 105.391 89.5324C105.282 89.6828 105.182 89.8394 105.091 90.0015C104.987 90.1569 104.891 90.3179 104.805 90.4837C104.716 90.6483 104.629 90.8147 104.531 90.9774L104.285 91.4956C104.245 91.5826 104.198 91.6677 104.155 91.7547C104.111 91.8417 104.083 91.9438 104.041 92.0232C103.967 92.2124 103.888 92.3864 103.803 92.5698C103.644 92.9481 103.519 93.3263 103.32 93.7159L103.29 93.7745C103.242 93.8683 103.166 93.9445 103.072 93.9927C102.978 94.0408 102.872 94.0584 102.767 94.0429C102.663 94.0275 102.566 93.9798 102.49 93.9066C102.415 93.8334 102.364 93.7383 102.345 93.6346C102.305 93.4076 102.275 93.1807 102.254 92.9499C102.242 92.8346 102.235 92.7192 102.227 92.6038V92.4298V92.2577C102.241 92.027 102.258 91.7944 102.282 91.5617C102.301 91.3279 102.341 91.0962 102.401 90.8695C102.456 90.6407 102.505 90.4081 102.577 90.183C102.649 89.958 102.746 89.7405 102.833 89.5192C102.922 89.2979 103.027 89.083 103.146 88.8762C103.261 88.6648 103.387 88.4602 103.525 88.2634C104.055 87.4666 104.736 86.7811 105.529 86.2454C105.625 86.1767 105.725 86.1135 105.828 86.0563C105.93 85.9957 106.033 85.9352 106.135 85.8804C106.343 85.7669 106.558 85.6704 106.774 85.5778C106.994 85.4909 107.219 85.4165 107.447 85.3546C107.683 85.2909 107.924 85.2466 108.168 85.2222C108.267 85.2114 108.366 85.2307 108.454 85.2775C108.541 85.3243 108.613 85.3964 108.659 85.4845C108.705 85.5725 108.723 85.6724 108.711 85.771C108.7 85.8697 108.659 85.9625 108.593 86.0374L108.482 86.1451Z" fill="black"/>
<path d="M53.4837 110.761C52.7272 107.612 49.4705 104.062 50.1513 101.707C50.7452 99.6478 52.2601 97.1305 52.2601 97.1305L46.0189 93.0321L42.7678 91.3602C42.7678 91.3602 41.1054 95.0331 39.6094 96.7485C37.2964 99.3962 31.6074 93.6638 27.9024 99.3282C25.7634 102.598 27.9251 106.118 31.2348 106.85C34.6486 107.606 38.9096 106.439 41.4572 108.174L41.6236 106.057C43.0458 109.828 40.0898 114.212 45.8222 116.69C49.0544 118.084 54.6053 115.396 53.4837 110.761Z" fill="#FFFAC5"/>
<path d="M41.4629 110.038C41.0892 110.038 40.7242 109.925 40.4152 109.715C39.3598 108.998 37.5196 109.004 35.5716 109.01C34.0132 109.01 32.4019 109.01 30.8435 108.671C28.4699 108.147 26.5351 106.558 25.6652 104.425C24.8557 102.441 25.1072 100.211 26.3536 98.3069C29.2359 93.8983 33.3513 94.7853 35.8232 95.3149C36.6856 95.504 37.9868 95.7801 38.2137 95.521C39.1688 94.4298 40.7499 91.2581 41.5235 89.5162C41.7439 89.0967 42.1156 88.7766 42.5633 88.6211C43.011 88.4655 43.501 88.486 43.9341 88.6785C44.3672 88.871 44.7109 89.221 44.8954 89.6576C45.0799 90.0941 45.0915 90.5845 44.9277 91.0292C44.6989 91.5437 42.6582 96.1016 41.0185 97.9759C39.3447 99.8917 36.9523 99.3773 35.0307 98.9631C32.4246 98.3957 30.8813 98.1915 29.4685 100.349C28.8879 101.238 28.7649 102.161 29.1129 103.016C29.5139 104.001 30.4841 104.771 31.6435 105.028C32.8028 105.286 34.1418 105.28 35.5603 105.276C37.9887 105.276 40.5003 105.263 42.5107 106.628C42.8381 106.854 43.0851 107.178 43.2156 107.553C43.346 107.929 43.3532 108.336 43.2361 108.716C43.119 109.096 42.8836 109.429 42.5644 109.665C42.2451 109.902 41.8586 110.031 41.461 110.033L41.4629 110.038Z" fill="black"/>
<path d="M54.0777 97.3839L53.9226 97.6316L53.76 97.9059C53.6522 98.095 53.5463 98.2841 53.4441 98.4733C53.238 98.8515 53.0432 99.2298 52.8635 99.6212C52.5117 100.359 52.23 101.129 52.0219 101.919L51.9879 102.057L51.9784 102.093V102.116V102.139C51.9784 102.163 51.9784 102.205 51.9652 102.241C51.9654 102.352 51.9742 102.462 51.9917 102.572C52.0538 102.902 52.1482 103.225 52.2735 103.536C52.6112 104.336 52.9899 105.118 53.4082 105.879C53.8413 106.71 54.3028 107.582 54.7113 108.55C54.9265 109.059 55.1072 109.582 55.2522 110.116L55.307 110.328L55.3581 110.557C55.3903 110.712 55.4186 110.867 55.4394 111.026C55.4855 111.346 55.5076 111.67 55.5056 111.994C55.5022 112.661 55.3937 113.322 55.1841 113.955C54.9735 114.581 54.6679 115.171 54.2782 115.705C53.5363 116.704 52.5628 117.508 51.4413 118.048C50.3581 118.584 49.1729 118.882 47.9651 118.922C47.3291 118.944 46.693 118.88 46.0739 118.733C45.7465 118.654 45.4264 118.547 45.1169 118.415C44.8578 118.303 44.6119 118.192 44.3604 118.063C43.8335 117.8 43.331 117.49 42.8587 117.138C42.3416 116.751 41.8802 116.294 41.4875 115.78C41.2846 115.513 41.1031 115.229 40.9447 114.933C40.7913 114.639 40.6599 114.333 40.5514 114.019C40.3511 113.437 40.2241 112.833 40.1731 112.219C40.1194 111.217 40.153 110.213 40.2733 109.218C40.3622 108.44 40.3673 107.655 40.2885 106.876C40.1913 106.154 39.9243 105.465 39.5093 104.866C39.0062 104.163 38.4158 103.528 37.7523 102.974L37.739 102.963C37.6372 102.874 37.5683 102.754 37.5432 102.621C37.5181 102.488 37.5384 102.35 37.6008 102.23C37.6631 102.111 37.764 102.015 37.8872 101.959C38.0103 101.903 38.1486 101.891 38.2799 101.923C39.3038 102.165 40.2685 102.611 41.1168 103.234C41.5774 103.578 41.989 103.983 42.3405 104.438C42.7019 104.91 42.9977 105.429 43.2199 105.98C43.6095 107.01 43.8354 108.095 43.8894 109.195C43.9708 110.192 43.9859 111.086 44.0786 111.81C44.1157 112.13 44.179 112.447 44.2677 112.756C44.3454 113.015 44.4587 113.261 44.6043 113.488C44.7658 113.733 44.962 113.953 45.1869 114.141C45.4549 114.36 45.746 114.551 46.055 114.708C46.2176 114.795 46.3973 114.878 46.5675 114.956C46.6898 115.008 46.8163 115.049 46.9457 115.079C47.24 115.147 47.5421 115.177 47.8441 115.166C48.5159 115.14 49.1748 114.973 49.777 114.674C50.3545 114.402 50.858 113.994 51.2446 113.486C51.5766 113.042 51.757 112.503 51.759 111.949C51.76 111.804 51.7499 111.66 51.7288 111.517C51.7193 111.444 51.7042 111.368 51.6891 111.292L51.6645 111.179L51.6304 111.05C51.5287 110.68 51.4024 110.316 51.2522 109.963C50.9344 109.206 50.5202 108.416 50.0871 107.585C49.6032 106.702 49.1676 105.794 48.7822 104.864C48.5584 104.305 48.3942 103.725 48.2923 103.131C48.235 102.778 48.2122 102.42 48.2242 102.063C48.2328 101.863 48.2549 101.664 48.2904 101.467L48.3169 101.316C48.3169 101.287 48.3264 101.269 48.3302 101.253L48.3434 101.204L48.3926 101.002C48.6572 99.9776 49.0188 98.9808 49.4725 98.025C49.6881 97.5617 49.9188 97.1096 50.159 96.6652C50.2801 96.442 50.4049 96.2226 50.5373 96.0032L50.7264 95.6723L50.9458 95.3243C51.2109 94.9039 51.6321 94.6061 52.1168 94.4964C52.6014 94.3866 53.1099 94.4738 53.5302 94.7389C53.9505 95.004 54.2484 95.4253 54.3581 95.9099C54.4679 96.3946 54.3806 96.903 54.1155 97.3234L54.0777 97.3839Z" fill="black"/>
<path d="M41.7786 96.5725C42.9133 94.9517 44.7119 95.1881 45.8902 96.1489C49.0278 98.704 47.3446 100.219 48.5739 103.147C50.3649 100.851 52.2486 96.2699 52.2486 96.2699L42.2854 91.0973L41.7786 96.5725Z" fill="black"/>
<path d="M89.4821 51.1593L88.6367 49.8903L87.6552 50.6241C87.2599 41.9091 82.2669 37.6973 76.3378 39.1252H75.1066L72.9449 40.4831C72.9449 40.4831 75.5056 31.9232 67.2162 29.631C60.5665 27.7927 52.1938 37.4136 48.4567 50.7111L34.1644 42.8926C17.7273 39.3673 12.2956 57.4554 27.6319 56.8483C36.7592 56.4833 38.3441 62.7112 40.0443 68.2564C41.0807 71.6361 42.0056 74.2404 42.9966 76.3624L42.1266 75.8934C36.0292 72.3435 28.6456 81.153 47.2122 93.0661C65.7788 104.979 71.0801 97.6543 67.2597 91.2467C74.0683 90.0268 84.092 84.6726 89.8358 76.8901C99.8993 63.2446 96.3909 49.9678 89.4821 51.1593Z" fill="#FEF3E6"/>
<path d="M45.3551 81.8338C44.658 81.3153 44.0092 80.7348 43.4165 80.0995C43.1118 79.7676 42.8263 79.4184 42.5617 79.0537C42.3003 78.6881 42.0579 78.3093 41.8354 77.9189C41.4108 77.1598 41.0374 76.3732 40.7177 75.5643C40.3943 74.7832 40.1162 74.0059 39.8401 73.2342C39.564 72.4626 39.2954 71.6985 39.0363 70.9326L38.2458 68.6366C37.9715 67.8139 37.7427 67.0082 37.5195 66.2328C37.2964 65.4573 37.0902 64.7065 36.85 64.0105C36.6385 63.3503 36.3695 62.7099 36.0462 62.0966C35.759 61.558 35.3931 61.0652 34.9606 60.6346C34.5378 60.2158 34.0498 59.8684 33.5157 59.6057C32.93 59.3201 32.314 59.1012 31.6793 58.9533C30.9896 58.7931 30.2893 58.6831 29.5838 58.6242C29.2206 58.5939 28.8537 58.5693 28.4812 58.558C28.292 58.558 28.1029 58.558 27.9138 58.5466H27.5979C27.4826 58.5466 27.3672 58.5466 27.2518 58.5466C26.2951 58.514 25.3444 58.3822 24.4149 58.1532C23.4109 57.905 22.4532 57.4976 21.578 56.9466C20.6235 56.3409 19.818 55.5277 19.2215 54.5674C18.6272 53.5875 18.2715 52.4816 18.1832 51.339C18.1038 50.258 18.2322 49.1717 18.5614 48.139C18.871 47.1563 19.3296 46.2269 19.9213 45.3834C21.0725 43.7485 22.6218 42.4342 24.4225 41.5649C26.1585 40.7371 28.0473 40.278 29.9696 40.2164C31.8126 40.1542 33.654 40.3827 35.4259 40.8935C37.132 41.383 38.7806 42.0545 40.3432 42.8964C41.8644 43.7095 43.3189 44.6416 44.6931 45.6841C46.0471 46.7124 47.2676 47.9055 48.3263 49.2359C48.5688 49.5459 48.694 49.9316 48.6799 50.325C48.6657 50.7183 48.5131 51.094 48.2489 51.3858C47.9847 51.6775 47.626 51.8666 47.236 51.9197C46.846 51.9727 46.4497 51.8863 46.1172 51.6756L46.0946 51.6605C44.7517 50.8075 43.5035 49.8941 42.242 49.0127C41.0143 48.126 39.7243 47.329 38.382 46.6278C37.0803 45.9476 35.7095 45.4086 34.293 45.0203C32.9423 44.6452 31.543 44.4744 30.1417 44.5134C28.8149 44.5535 27.5108 44.8684 26.3119 45.4382C25.1692 45.9768 24.1806 46.7944 23.4371 47.8156C22.7279 48.8028 22.3478 49.9735 22.4234 50.9834C22.452 51.4718 22.5986 51.946 22.8506 52.3653C23.1025 52.7846 23.4524 53.1366 23.8702 53.391C24.7686 53.9849 26.0679 54.2988 27.4447 54.3613C27.5317 54.3613 27.6187 54.3613 27.7057 54.3613H27.9989C28.2164 54.3613 28.4339 54.3612 28.6533 54.3821C29.0901 54.3991 29.5327 54.4312 29.9771 54.4728C30.886 54.5571 31.7874 54.7082 32.6741 54.9248C33.6173 55.1649 34.5294 55.514 35.3919 55.965C36.307 56.4319 37.141 57.043 37.8619 57.775C38.5645 58.5051 39.1519 59.338 39.6037 60.245C40.0148 61.0762 40.3503 61.9428 40.6061 62.8341C41.0978 64.5363 41.3626 66.1249 41.756 67.585C42.1645 69.1415 42.5825 70.7378 42.9588 72.2943C43.3352 73.8508 43.7153 75.3865 44.2543 76.7425C44.5192 77.4159 44.8512 78.061 45.2454 78.6679C45.666 79.2993 46.1298 79.9009 46.6336 80.4684C46.7704 80.6462 46.8395 80.8669 46.8286 81.091C46.8177 81.3151 46.7274 81.528 46.5739 81.6917C46.4205 81.8554 46.2138 81.9592 45.9909 81.9846C45.7679 82.0099 45.5432 81.9551 45.357 81.8301L45.3551 81.8338Z" fill="black"/>
<path d="M41.5762 77.1776C40.9881 77.0395 40.1389 77.1984 39.4864 77.5899C39.1677 77.7761 38.8826 78.0146 38.6429 78.2953C38.4296 78.5539 38.2696 78.8522 38.172 79.1729C38.0742 79.4922 38.037 79.8271 38.0623 80.1601C38.0855 80.541 38.1626 80.9167 38.2911 81.276C38.605 82.1318 39.0518 82.9328 39.615 83.6495C40.7951 85.2174 42.3725 86.6623 44.0576 87.9994C45.7863 89.3419 47.5863 90.5901 49.4496 91.7385C51.2989 92.9056 53.2114 93.9694 55.1783 94.9253C57.1244 95.8425 59.1197 96.6274 61.0752 97.0057C61.9877 97.2002 62.9231 97.2638 63.8535 97.1948C64.2479 97.1579 64.6357 97.0695 65.0072 96.9319C65.17 96.8682 65.3275 96.7917 65.4781 96.7031C65.6158 96.6174 65.7467 96.5213 65.8696 96.4156C66.1143 96.1982 66.308 95.9296 66.437 95.6288C66.5832 95.2804 66.6677 94.9092 66.6866 94.5319C66.7101 93.6314 66.5154 92.7385 66.1193 91.9295L66.1003 91.8879C65.9618 91.585 65.941 91.2414 66.0422 90.9241C66.1433 90.6068 66.359 90.3386 66.6473 90.1718C66.9355 90.005 67.2756 89.9516 67.6011 90.022C67.9266 90.0924 68.2142 90.2816 68.4077 90.5526C69.2306 91.6896 69.7359 93.0252 69.8715 94.4222C69.9041 94.7997 69.9041 95.1794 69.8715 95.5569C69.8348 95.9474 69.762 96.3336 69.654 96.7106C69.3114 97.901 68.5937 98.949 67.6077 99.6988C67.2896 99.9382 66.9517 100.15 66.5977 100.332C65.9272 100.666 65.2147 100.908 64.4795 101.051C63.1424 101.291 61.7758 101.318 60.4303 101.131C57.8639 100.784 55.53 99.9787 53.3154 99.0199C52.2071 98.5395 51.1347 98.0099 50.0832 97.4501C49.0316 96.8903 48.0028 96.2964 47.0023 95.678C44.9638 94.4431 43.0136 93.068 41.1658 91.5626C39.3143 90.0098 37.5232 88.2945 36.0745 86.1119C35.298 84.9704 34.7223 83.7046 34.3724 82.3691C34.187 81.6276 34.1093 80.8632 34.1417 80.0996C34.1804 79.2871 34.3729 78.4894 34.709 77.7487C35.0494 77.0089 35.5335 76.3441 36.1332 75.7932C36.7077 75.267 37.3728 74.8492 38.0963 74.56C38.8078 74.2788 39.5632 74.1245 40.328 74.1043C41.1364 74.0825 41.9384 74.2536 42.6675 74.6036C42.9739 74.7575 43.2133 75.0184 43.3403 75.337C43.4672 75.6555 43.473 76.0095 43.3565 76.3321C43.24 76.6546 43.0093 76.9232 42.708 77.087C42.4068 77.2508 42.0559 77.2985 41.7219 77.2211L41.5762 77.1776Z" fill="black"/>
<path d="M63.6853 89.6978C64.3594 89.8641 65.0491 89.9592 65.743 89.9814C66.4432 90.0097 67.1444 89.9755 67.8385 89.8793C69.2471 89.6876 70.6296 89.3374 71.9596 88.8353C74.6539 87.7971 77.1806 86.3677 79.4585 84.5932C84.0751 81.0717 87.7952 76.4399 90.6378 71.2976C91.3403 70.0301 91.9631 68.7201 92.5026 67.3751C93.0411 66.0592 93.4699 64.701 93.7849 63.3145C94.0992 61.9763 94.2554 60.6059 94.2501 59.2313C94.2584 57.9568 94.0128 56.6935 93.5277 55.5149C93.0435 54.4312 92.3097 53.601 91.3678 53.2132C90.8703 53.0072 90.3342 52.9111 89.7962 52.9314C89.1889 52.9542 88.589 53.0723 88.0184 53.2814C86.8061 53.7145 85.6146 54.4842 84.5195 55.4109C83.4096 56.3786 82.3886 57.4439 81.4689 58.5939C81.3244 58.7765 81.116 58.8974 80.8859 58.9323C80.6557 58.9672 80.4208 58.9134 80.2287 58.7818C80.0367 58.6502 79.9017 58.4507 79.851 58.2234C79.8004 57.9962 79.8379 57.7582 79.9559 57.5575C80.7491 56.1399 81.7009 54.817 82.7928 53.6142C83.355 52.9889 83.9686 52.4119 84.6273 51.8894C85.3126 51.34 86.0581 50.8705 86.8496 50.4898C87.694 50.0782 88.5998 49.8067 89.5314 49.686C90.5447 49.552 91.5752 49.6441 92.5487 49.9557C93.5222 50.2674 94.4146 50.7908 95.1617 51.4884C95.8825 52.1575 96.4825 52.9457 96.9357 53.8185C97.8303 55.5055 98.1991 57.3041 98.322 59.0459C98.4212 60.7555 98.3074 62.4708 97.9835 64.1524C97.6704 65.7874 97.22 67.3931 96.6369 68.9524C96.0581 70.4833 95.3828 71.976 94.6151 73.4215C93.8515 74.8499 93.0157 76.2387 92.1111 77.5823C91.204 78.9301 90.2202 80.2246 89.1645 81.4594C87.0361 83.9426 84.5847 86.1295 81.8755 87.9616C80.5116 88.8832 79.0759 89.694 77.5823 90.3862C76.0838 91.0839 74.5204 91.6331 72.9147 92.0259C71.2912 92.4351 69.6203 92.6259 67.9463 92.5933C67.0991 92.5643 66.2561 92.4605 65.4272 92.2831C65.0091 92.1922 64.5972 92.0747 64.194 91.9314C63.7887 91.791 63.3937 91.6222 63.012 91.4264C62.8097 91.3234 62.6525 91.1495 62.5704 90.9379C62.4882 90.7263 62.4869 90.4919 62.5667 90.2794C62.6465 90.0669 62.8018 89.8913 63.0029 89.7861C63.204 89.6809 63.4369 89.6535 63.6569 89.7091L63.6853 89.6978Z" fill="black"/>
<path d="M44.47 58.7471C44.47 58.1798 44.4851 57.6124 44.5059 57.045L44.5626 56.1977L44.6345 55.3504C44.7423 54.2157 44.9106 53.096 45.1206 51.9764C45.5469 49.7308 46.1587 47.5243 46.9494 45.3797C47.7445 43.2179 48.7227 41.1281 49.8733 39.1328C51.0359 37.0996 52.4062 35.1924 53.9623 33.442C54.7603 32.5458 55.6232 31.7095 56.5438 30.9398C57.4887 30.136 58.5128 29.4301 59.6001 28.8329C60.7547 28.1955 62.0015 27.7418 63.2957 27.4882C64.6933 27.2164 66.1363 27.2917 67.4981 27.7076L67.7553 27.7908L67.9974 27.8778C68.1562 27.9365 68.3151 28.0064 68.4721 28.067C68.7897 28.2056 69.0985 28.3635 69.3969 28.5398C69.9996 28.8954 70.5555 29.3249 71.0518 29.8183C71.9995 30.7818 72.7115 31.9515 73.1322 33.2358C73.3355 33.8336 73.4861 34.4481 73.5823 35.0722C73.6783 35.6754 73.7307 36.2847 73.7393 36.8954C73.7514 37.4914 73.7274 38.0877 73.6674 38.6808C73.6371 38.9758 73.5974 39.269 73.552 39.5602C73.5274 39.7077 73.5029 39.8534 73.4726 40.0009C73.4423 40.1484 73.4121 40.2846 73.3705 40.4624C73.3155 40.6951 73.1774 40.8997 72.9822 41.0378C72.787 41.1759 72.5481 41.2381 72.3104 41.2125C72.0726 41.187 71.8524 41.0755 71.691 40.8991C71.5296 40.7227 71.4381 40.4934 71.4338 40.2543V40.1616V39.8042L71.4206 39.4259C71.4092 39.1706 71.3922 38.9134 71.3657 38.6581C71.3166 38.1493 71.2523 37.6444 71.1558 37.1451C70.9791 36.1962 70.6763 35.2752 70.2556 34.4065C69.8811 33.6336 69.3405 32.9529 68.6726 32.4131C68.3573 32.163 68.0116 31.9539 67.6437 31.7909C67.4546 31.7058 67.2655 31.6358 67.0763 31.5677C66.9761 31.5374 66.8872 31.5034 66.7775 31.4788L66.6281 31.4391L66.4862 31.4126C65.7126 31.2729 64.9172 31.3137 64.1619 31.5318C63.3112 31.7736 62.4988 32.1339 61.7486 32.6022C61.3454 32.8491 60.9553 33.1168 60.5798 33.4041C60.2016 33.6897 59.8233 33.998 59.445 34.3252C58.6994 34.9939 57.9934 35.7056 57.3306 36.4566C55.9781 38.0019 54.7554 39.6561 53.6748 41.4023C52.5636 43.1791 51.5618 45.0221 50.6752 46.921C48.8823 50.802 47.4588 54.8432 46.4237 58.9911C46.3633 59.2225 46.2212 59.4241 46.0237 59.5588C45.8262 59.6935 45.5865 59.7521 45.3491 59.7237C45.1117 59.6953 44.8927 59.5819 44.7324 59.4045C44.5722 59.227 44.4816 58.9976 44.4775 58.7585L44.47 58.7471Z" fill="black"/>
<path d="M55.7078 55.1896C55.6076 55.5811 55.4922 56.0104 55.3806 56.4152L55.0477 57.6464C54.8303 58.4653 54.6146 59.2786 54.4161 60.0899C54.017 61.7145 53.6596 63.3297 53.3891 64.9505C53.1071 66.5682 52.9089 68.1994 52.7952 69.8375C52.6629 71.4829 52.678 73.1302 52.6685 74.8607V74.8986C52.6608 75.065 52.5984 75.2242 52.491 75.3515C52.3835 75.4788 52.2371 75.5671 52.0743 75.6026C51.9116 75.6382 51.7417 75.6191 51.5909 75.5482C51.4402 75.4773 51.317 75.3586 51.2406 75.2106C51.0362 74.7976 50.8557 74.3733 50.6997 73.9397C50.6203 73.7222 50.5484 73.5028 50.4747 73.2834C50.4009 73.064 50.3498 72.8409 50.2855 72.6177C50.1607 72.1732 50.0813 71.7193 49.9886 71.2654C49.9508 71.0366 49.9205 70.8077 49.8865 70.5789C49.8524 70.3501 49.8241 70.1212 49.807 69.8905C49.6388 68.051 49.7139 66.1973 50.0302 64.3774C50.34 62.5723 50.8618 60.81 51.5848 59.1272C51.9439 58.2899 52.3571 57.4769 52.8217 56.6932C53.0562 56.3036 53.3021 55.9197 53.5669 55.5471C53.8347 55.1655 54.1245 54.7998 54.435 54.452C54.5489 54.333 54.6986 54.2543 54.8613 54.2281C55.024 54.2019 55.1908 54.2296 55.3363 54.3068C55.4819 54.3841 55.5982 54.5068 55.6677 54.6562C55.7371 54.8057 55.7558 54.9737 55.721 55.1348L55.7078 55.1896Z" fill="black"/>
<path d="M67.3222 61.6521C66.8222 63.2451 66.2019 64.7979 65.4668 66.2971C64.7519 67.7886 63.9746 69.2443 63.1349 70.664C62.2952 72.0837 61.3987 73.4706 60.4455 74.8248C59.489 76.1937 58.4314 77.4891 57.2814 78.7C57.1631 78.8244 57.006 78.9048 56.8359 78.9281C56.6658 78.9514 56.4929 78.9161 56.3455 78.8281C56.1981 78.7401 56.0851 78.6046 56.0249 78.4439C55.9647 78.2831 55.9609 78.1067 56.0143 77.9435C56.5162 76.3509 57.137 74.7982 57.8715 73.2986C58.5864 71.8057 59.3631 70.3507 60.2015 68.9335C61.04 67.5163 61.9358 66.1294 62.889 64.7727C63.8443 63.4035 64.9021 62.1087 66.0531 60.8994C66.1714 60.775 66.3285 60.6946 66.4986 60.6713C66.6687 60.648 66.8416 60.6833 66.989 60.7713C67.1364 60.8593 67.2495 60.9948 67.3097 61.1555C67.3699 61.3163 67.3736 61.4927 67.3203 61.6559L67.3222 61.6521Z" fill="black"/>
<path d="M79.1123 68.247C78.9714 68.6975 78.8047 69.1395 78.613 69.5708C78.4239 70.0021 78.2215 70.4144 78.0097 70.8304C77.7978 71.2465 77.5595 71.6399 77.3212 72.039C77.2002 72.2281 77.0735 72.4286 76.943 72.6234C76.8125 72.8182 76.6952 73.0168 76.5647 73.2021C75.504 74.7288 74.28 76.1354 72.9146 77.3969C72.2451 78.0437 71.5056 78.6168 70.7774 79.1955C70.3992 79.4641 70.0209 79.7327 69.6257 79.9918C69.4365 80.1185 69.2474 80.2565 69.0431 80.37L68.4323 80.7407C68.2299 80.858 68.0238 80.9677 67.8214 81.0811C67.619 81.1946 67.4185 81.3119 67.2029 81.4064C66.7793 81.5956 66.35 81.7847 65.9225 81.9738C65.7051 82.0608 65.497 82.1629 65.2757 82.2348C65.0545 82.3067 64.8313 82.3804 64.6062 82.4485C64.1618 82.5885 63.7117 82.7133 63.2615 82.8268C63.0987 82.8591 62.9298 82.837 62.7808 82.7638C62.6317 82.6907 62.5109 82.5705 62.4369 82.4219C62.363 82.2733 62.3399 82.1045 62.3714 81.9415C62.4028 81.7785 62.487 81.6303 62.6109 81.5199L62.6488 81.4896C64.037 80.3549 65.4422 79.396 66.7471 78.2745L67.2464 77.8773C67.411 77.743 67.5698 77.5993 67.7325 77.4612C68.0521 77.1794 68.3812 76.9128 68.7065 76.6385C69.0318 76.3643 69.3382 76.0712 69.6521 75.7856C69.9661 75.5 70.2819 75.2182 70.5978 74.9232C71.8422 73.7638 73.0564 72.5704 74.2498 71.3297C74.5486 71.0196 74.8418 70.7037 75.1463 70.3974L76.0371 69.4517L76.9316 68.5061L77.3799 68.0276C77.535 67.8725 77.6825 67.7023 77.8281 67.5604L77.8848 67.5056C78.004 67.3906 78.158 67.3184 78.3226 67.3004C78.4873 67.2824 78.6532 67.3196 78.7944 67.4063C78.9356 67.4929 79.044 67.6239 79.1025 67.7789C79.1611 67.9338 79.1665 68.1038 79.1179 68.2621L79.1123 68.247Z" fill="black"/>
<path d="M65.238 48.852C65.3458 48.4738 65.4725 48.1163 65.5917 47.7456L65.7808 47.1953C65.8451 47.0061 65.9302 46.8359 66.004 46.6544C66.1553 46.295 66.316 45.9395 66.4749 45.5782C66.6338 45.217 66.8418 44.8823 67.0271 44.5324C67.1217 44.3584 67.2163 44.1844 67.3184 44.0142L67.6399 43.5092L67.969 43.0061L68.1354 42.7546L68.3246 42.5125C68.5685 42.1891 68.822 41.8713 69.0811 41.5517C69.3402 41.2321 69.6314 40.9427 69.9151 40.642C71.1066 39.4152 72.5056 38.4087 74.0475 37.6689C75.6948 36.8713 77.5146 36.4956 79.3431 36.5758L80.0467 36.6382L80.2225 36.6552L80.3965 36.6874L80.7464 36.7555C80.9772 36.8065 81.2136 36.8425 81.4405 36.9105C81.6675 36.9786 81.8963 37.0505 82.1214 37.128C82.2349 37.1696 82.3483 37.1999 82.458 37.2491L82.7833 37.3966C83.0008 37.4968 83.2183 37.5857 83.432 37.7011L84.0429 38.0794L84.3455 38.2685C84.442 38.3385 84.5346 38.4122 84.6292 38.486C86.114 39.6071 87.2511 41.1257 87.9087 42.8661C88.5143 44.4845 88.7589 46.2157 88.6255 47.9385C88.5058 49.5513 88.1058 51.1309 87.4434 52.6062C87.345 52.8109 87.1796 52.9757 86.9746 53.0734C86.7696 53.1711 86.5374 53.1957 86.3164 53.1431C86.0955 53.0905 85.8992 52.9639 85.7602 52.7844C85.6212 52.6048 85.5477 52.3831 85.5521 52.1561V52.1182C85.6392 50.7521 85.5923 49.3807 85.4122 48.0236C85.2437 46.7917 84.8596 45.599 84.2774 44.5002C83.7567 43.5183 82.9986 42.6822 82.0722 42.068C82.0174 42.0321 81.9644 41.9905 81.9096 41.9565L81.7337 41.8657C81.6183 41.8032 81.5048 41.7408 81.3913 41.6765L81.0282 41.5309L80.8391 41.4553C80.7772 41.4333 80.714 41.4149 80.65 41.4004C80.5233 41.3664 80.4003 41.3267 80.2717 41.2869C80.1431 41.2472 80.0126 41.2397 79.884 41.2113L79.6949 41.1735L79.5984 41.1545H79.4982L79.0991 41.1262C78.9645 41.1148 78.8291 41.1148 78.6944 41.1262H78.2859L77.8736 41.1791C77.7343 41.19 77.596 41.2103 77.4594 41.2397C76.8897 41.3452 76.3321 41.5081 75.7951 41.7257C74.6398 42.202 73.5575 42.8387 72.5799 43.617C72.3303 43.8288 72.0731 44.0312 71.8234 44.2392C71.5738 44.4473 71.3411 44.6988 71.0896 44.9239L70.9005 45.0941L70.7246 45.2832L70.3728 45.6615L70.0135 46.0397C69.8943 46.1645 69.7884 46.3007 69.673 46.4293L68.9846 47.2161C68.7671 47.4903 68.5515 47.7683 68.3246 48.0426C68.213 48.1825 68.0976 48.3168 67.9898 48.4586L67.6702 48.8917C67.4508 49.1754 67.2371 49.4591 67.0063 49.7523L66.9647 49.8033C66.8195 49.9796 66.618 50.1006 66.3941 50.1458C66.1701 50.1911 65.9375 50.1579 65.7351 50.0519C65.5328 49.9458 65.3731 49.7734 65.283 49.5635C65.1928 49.3536 65.1776 49.1191 65.2399 48.8993L65.238 48.852Z" fill="black"/>
        </symbol>
        <symbol id="frame-2">
<path d="M35.2576 17.604C36.7064 20.0616 36.0604 22.834 32.4208 22.6838C32.9093 24.3325 32.0471 26.5146 29.2215 26.3917C29.3207 29.174 27.6552 30.4868 25.799 31.0919L82.9494 85.7842L92.8931 74.3756L35.2576 17.604Z" fill="#FF9800"/>
<path d="M35.9069 18.9762C36.5775 21.8026 34.4257 23.4034 32.421 22.6838C33.5119 25.0437 32.0472 26.5145 29.2216 26.3917C29.3208 29.1739 27.6554 30.4867 25.7991 31.0919C25.7991 31.0919 23.5215 20.1957 20.0992 16.2694C13.1953 8.35487 21.1576 13.9051 21.7508 14.1998C25.0928 15.8694 35.9069 18.9762 35.9069 18.9762Z" fill="#FFFAC5"/>
<path d="M83.5297 88.5344C83.1058 88.4973 82.7074 88.3158 82.4013 88.0202L22.7603 30.7777L22.9146 29.8135C22.9209 29.7419 24.0402 22.128 19.2192 16.9104L17.9944 15.5848L19.2782 14.3166C19.5042 14.1007 19.695 13.8509 19.8439 13.5761L20.7576 10.9353L22.8206 12.9016C22.8734 12.9498 28.6134 17.9912 34.6288 16.4102L35.6663 16.138L92.318 72.8921C92.65 73.2458 92.8314 73.7149 92.8235 74.2C92.8157 74.6851 92.6193 75.1481 92.2759 75.4908C91.9326 75.8336 91.4693 76.0292 90.9842 76.0363C90.4991 76.0433 90.0303 75.8612 89.6772 75.5286L34.5043 20.2551C30.8029 20.9025 27.3774 19.8655 24.8211 18.6137C26.9077 22.9892 26.8646 27.4468 26.7137 29.3966L84.9863 85.3276C85.2653 85.5952 85.4543 85.9428 85.5274 86.3224C85.6004 86.702 85.5537 87.0949 85.3938 87.4469C85.234 87.7989 84.9688 88.0925 84.6348 88.2873C84.3009 88.4821 83.9148 88.5684 83.5297 88.5344Z" fill="black"/>
<path d="M21.9844 16.6825C28.7407 19.3426 32.2828 19.9134 33.6394 20.0316C33.8617 20.0551 34.0854 20.0644 34.309 20.0596C35.0731 20.8324 35.1869 22.9249 33.2462 22.7558C32.7356 22.7113 32.083 22.5101 31.2618 22.0873C32.872 24.3919 31.9448 26.0994 30.2284 25.9498C29.6505 25.8813 29.0979 25.6735 28.6181 25.3443C29.7598 27.2967 28.5817 29.269 27.1742 29.1463C26.9807 29.1277 26.7923 29.0733 26.6187 28.9859C26.6187 28.9859 25.0685 21.6367 21.9957 16.6835L21.9844 16.6825ZM16.3761 12.0038L20.0389 17.8969C22.871 22.4323 24.3528 29.3902 24.3713 29.4602L24.6009 30.5509L25.6019 31.0463C26.0326 31.2603 26.4995 31.3918 26.9786 31.434C27.7059 31.4839 28.4329 31.3328 29.0799 30.9971C29.727 30.6614 30.2692 30.154 30.6471 29.5307C30.9092 29.1147 31.1045 28.6603 31.2259 28.1839C31.7717 28.0878 32.2901 27.8742 32.7451 27.5579C33.2001 27.2415 33.5809 26.83 33.8611 26.3519C34.1071 25.9246 34.2721 25.4557 34.3481 24.9686C34.8725 24.8632 35.3647 24.6356 35.7847 24.3045C36.2048 23.9733 36.5409 23.5479 36.7658 23.0626C37.4624 21.6045 37.0984 19.6174 35.9437 18.446L35.1761 17.6691L34.2025 17.7741C34.1535 17.7698 34.0348 17.7595 33.8389 17.7424C32.7235 17.6452 29.415 17.1385 22.8256 14.5461L16.3647 12.0028L16.3761 12.0038Z" fill="black"/>
<path d="M32.2538 27.235L41.1435 37.1091C41.2414 37.2126 41.2955 37.35 41.2945 37.4925C41.2935 37.635 41.2375 37.7716 41.1381 37.8737C41.0388 37.9758 40.9038 38.0356 40.7614 38.0405C40.619 38.0455 40.4802 37.9952 40.374 37.9002L30.2538 29.2933C30.1024 29.1732 29.9768 29.024 29.8843 28.8544C29.7918 28.6848 29.7345 28.4983 29.7156 28.3061C29.6967 28.1139 29.7167 27.9198 29.7744 27.7355C29.8321 27.5511 29.9264 27.3803 30.0515 27.2332C30.1766 27.086 30.3301 26.9655 30.5028 26.8789C30.6754 26.7923 30.8637 26.7414 31.0565 26.7291C31.2493 26.7169 31.4425 26.7435 31.6248 26.8075C31.807 26.8715 31.9745 26.9715 32.1173 27.1016C32.166 27.1428 32.2116 27.1874 32.2538 27.235V27.235Z" fill="black"/>
<path d="M37.6357 26.8441L61.2937 49.9353C61.4287 50.067 61.5364 50.224 61.6108 50.3973C61.6851 50.5706 61.7245 50.7569 61.7269 50.9454C61.7292 51.134 61.6944 51.3212 61.6244 51.4963C61.5544 51.6714 61.4506 51.831 61.3189 51.966C61.1872 52.101 61.0302 52.2087 60.8569 52.283C60.6836 52.3574 60.4973 52.3968 60.3088 52.3992C60.1202 52.4015 59.933 52.3667 59.7579 52.2967C59.5828 52.2267 59.4232 52.1229 59.2882 51.9912C59.2728 51.977 59.2583 51.9617 59.2447 51.9456L36.6184 27.8433C36.4887 27.7078 36.4175 27.5267 36.4203 27.3392C36.4232 27.1516 36.4998 26.9727 36.6337 26.8413C36.7675 26.7099 36.9477 26.6365 37.1353 26.637C37.3229 26.6375 37.5027 26.712 37.6357 26.8441V26.8441Z" fill="black"/>
<path d="M90.1545 94.23L90.6986 95.0007C91.6167 96.2939 93.4539 98.8479 94.2739 99.7205C98.3443 104.053 100.651 102.262 104.407 97.7258C108.092 93.2762 111.199 90.3444 105.575 86.0895C104.068 84.9482 99.4466 82.0204 99.4466 82.0204" fill="#EB5D72"/>
<path d="M98.0784 103.707C96.4825 103.568 94.9058 102.621 93.1652 100.767C92.333 99.8817 90.6865 97.6233 89.452 95.8868C89.1136 95.4131 88.903 95.1062 88.903 95.1062C88.78 94.9421 88.6912 94.755 88.642 94.5559C88.5928 94.3568 88.5841 94.1499 88.6166 93.9474C88.649 93.7449 88.7219 93.551 88.8308 93.3773C88.9398 93.2036 89.0826 93.0536 89.2507 92.9362C89.4188 92.8188 89.6089 92.7364 89.8095 92.6941C90.0102 92.6517 90.2173 92.6501 90.4186 92.6894C90.6198 92.7287 90.8111 92.8082 90.981 92.923C91.1509 93.0378 91.296 93.1856 91.4076 93.3577C91.4076 93.3577 91.6186 93.659 91.945 94.1183C93.5632 96.397 94.8517 98.1022 95.392 98.677C96.6758 100.044 97.7087 100.696 98.547 100.661C99.7825 100.622 101.256 99.1331 103.236 96.7447C103.482 96.4453 103.728 96.1535 103.968 95.8593C105.748 93.7363 107.284 91.9034 107.121 90.4388C107.013 89.5048 106.188 88.4457 104.658 87.2853C103.22 86.1936 98.6806 83.3167 98.6337 83.2879C98.4624 83.1814 98.3139 83.042 98.1967 82.8777C98.0795 82.7135 97.996 82.5277 97.951 82.331C97.9061 82.1343 97.9005 81.9307 97.9346 81.7319C97.9687 81.533 98.0419 81.3429 98.1498 81.1724C98.2578 81.002 98.3984 80.8547 98.5637 80.7389C98.7289 80.6231 98.9154 80.5412 99.1124 80.4978C99.3095 80.4545 99.5131 80.4506 99.7117 80.4863C99.9103 80.5221 100.1 80.5969 100.269 80.7062C100.46 80.8273 104.963 83.6821 106.505 84.8568C108.757 86.5718 109.952 88.2802 110.155 90.1109C110.466 92.8737 108.539 95.1699 106.308 97.8326C106.072 98.112 105.831 98.3985 105.589 98.6926C103.355 101.391 101.289 103.633 98.6435 103.714C98.4551 103.723 98.2664 103.72 98.0784 103.707V103.707Z" fill="black"/>
<path d="M87.4286 89.6526C84.3592 92.9807 86.8879 96.3126 90.7063 92.298C91.9937 90.9446 97.3963 84.6324 99.341 81.8157C101.191 79.1293 97.7644 75.945 96.694 78.2931C95.434 81.0309 91.9912 84.1347 91.9912 84.1347" fill="#D1D3D4"/>
<path d="M96.6941 78.2931C98.1414 76.0633 94.6647 73.8276 93.2099 75.5992C92.0247 77.0432 85.122 85.3186 83.2437 88.181C81.659 90.5925 85.0273 93.4622 86.6083 91.4187" fill="#D1D3D4"/>
<path d="M87.0921 90.6807C86.9546 91.0176 86.837 91.3624 86.7401 91.7131C86.6612 91.984 86.6308 92.2667 86.6503 92.5482C86.6725 92.7723 86.7654 92.8829 86.8117 92.8736C86.8581 92.8644 86.8421 92.8516 86.8525 92.8411C86.8629 92.8306 86.8821 92.8285 86.9256 92.8304C87.0901 92.833 87.2541 92.8127 87.4131 92.7704C87.6718 92.7042 87.9218 92.6074 88.1577 92.4822C88.7374 92.1655 89.2612 91.7558 89.7081 91.2694C89.9534 91.0041 90.2187 90.7045 90.4782 90.4063L91.2575 89.5022C91.7765 88.8919 92.2925 88.2781 92.8058 87.6609C93.8311 86.4252 94.8421 85.1793 95.8387 83.9233C96.3376 83.2967 96.8327 82.6697 97.3166 82.0398C97.5603 81.7269 97.8021 81.4139 98.0364 81.1002C98.1564 80.9436 98.2707 80.7865 98.3811 80.6309C98.4914 80.4754 98.6245 80.299 98.68 80.2071C98.977 79.7621 99.0562 79.3324 98.971 79.0459C98.9419 78.9209 98.8798 78.8061 98.7912 78.7132C98.737 78.6553 98.6646 78.6175 98.586 78.6061C98.5458 78.6004 98.5048 78.6053 98.4671 78.6204C98.4005 78.6405 98.3384 78.6731 98.2841 78.7165C98.245 78.7425 98.2087 78.7724 98.1757 78.8057C98.1456 78.8304 98.1173 78.8571 98.0909 78.8857L97.9929 78.9853C97.8622 79.1125 97.7279 79.2603 97.5943 79.3986L95.9619 81.1377C94.8526 82.2997 93.7385 83.4726 92.5325 84.5673C92.4088 84.6789 92.2496 84.7429 92.0831 84.7482C91.9167 84.7534 91.7538 84.6993 91.6234 84.5957C91.493 84.4921 91.4036 84.3456 91.3711 84.1823C91.3386 84.0189 91.3651 83.8493 91.4459 83.7037C91.8488 82.9795 92.2841 82.2979 92.7325 81.6194C93.1808 80.9408 93.6509 80.2737 94.1281 79.6129C94.6052 78.952 95.1056 78.3084 95.637 77.6561C95.7744 77.4953 95.904 77.3377 96.0589 77.1727L96.1664 77.0492C96.2043 77.0069 96.2319 76.9733 96.294 76.9141C96.4007 76.8016 96.5151 76.6968 96.6365 76.6004C97.1791 76.1521 97.855 75.8965 98.5584 75.8737C99.2972 75.858 100.017 76.1095 100.585 76.5819C100.854 76.8025 101.087 77.0629 101.277 77.3542C101.456 77.637 101.595 77.943 101.691 78.2636C101.783 78.5765 101.833 78.8999 101.841 79.2258C101.848 79.535 101.821 79.8439 101.761 80.1472C101.645 80.7084 101.43 81.2445 101.125 81.7301C100.97 81.9843 100.863 82.123 100.737 82.3038C100.612 82.4846 100.495 82.651 100.372 82.8168C100.128 83.1544 99.8808 83.484 99.6339 83.8118C99.1366 84.4652 98.6326 85.1066 98.1254 85.742C97.1034 87.0122 96.0699 88.2625 95.0254 89.5079C94.5058 90.1328 93.9797 90.7457 93.4505 91.3716L92.6463 92.3001C92.3762 92.6107 92.1047 92.9154 91.8048 93.2424C91.1608 93.9512 90.4175 94.5629 89.598 95.0586C89.1319 95.3343 88.6272 95.5386 88.1005 95.6647C87.4714 95.8183 86.8132 95.8067 86.1898 95.631C85.8205 95.5226 85.4757 95.3436 85.1745 95.104C85.018 94.9758 84.8747 94.8323 84.7467 94.6756C84.6235 94.5163 84.517 94.3448 84.4287 94.1638C84.2686 93.826 84.1791 93.459 84.1658 93.0853C84.1556 92.7624 84.1959 92.4399 84.2852 92.1294C84.4395 91.6072 84.7085 91.1261 85.0725 90.7211C85.387 90.3613 85.7608 90.0581 86.1777 89.8245C86.2545 89.7825 86.3389 89.7562 86.426 89.747C86.5131 89.7378 86.6011 89.7459 86.6851 89.7708C86.769 89.7958 86.8472 89.8371 86.9151 89.8924C86.983 89.9477 87.0393 90.0159 87.0807 90.0931C87.1276 90.1768 87.1556 90.2698 87.1627 90.3656C87.1698 90.4613 87.1557 90.5575 87.1216 90.6472L87.0921 90.6807Z" fill="black"/>
<path d="M96.9523 77.5068C96.8641 77.34 96.749 77.1889 96.6116 77.0595C96.4709 76.9207 96.3179 76.7949 96.1546 76.6836C95.8055 76.4401 95.4244 76.2459 95.0222 76.1065C94.7042 75.979 94.3609 75.9277 94.0196 75.9565C93.9472 75.9647 93.8788 75.9937 93.8225 76.0399C93.8027 76.055 93.7857 76.0735 93.7722 76.0944L93.4906 76.4495C91.9739 78.3638 90.4512 80.2605 88.9304 82.1574L86.6554 84.9966C85.9084 85.9434 85.1501 86.8891 84.4576 87.8425L84.0101 88.468C83.9278 88.5838 83.8653 88.7124 83.8251 88.8487C83.7514 89.1209 83.7809 89.4108 83.9079 89.6627C84.0391 89.9423 84.2343 90.1869 84.4778 90.3768C84.5789 90.4639 84.6954 90.5313 84.8212 90.5757C84.9923 90.6285 85.1753 90.6292 85.3469 90.5779L85.5405 90.534C85.6775 90.5025 85.8208 90.5117 85.9526 90.5605C86.0845 90.6094 86.1991 90.6957 86.2825 90.8089C86.3658 90.9222 86.4143 91.0573 86.4218 91.1977C86.4293 91.3381 86.3956 91.4776 86.3248 91.5991C86.0786 92.0001 85.7075 92.3093 85.2685 92.479C84.8015 92.6537 84.2949 92.6944 83.8059 92.5964C83.3531 92.499 82.9242 92.3123 82.5444 92.0471C82.1646 91.7819 81.8415 91.4436 81.5941 91.0519C81.076 90.2501 80.867 89.2873 81.0063 88.3429C81.0769 87.8775 81.2266 87.4276 81.4488 87.0126C81.476 86.9619 81.5013 86.9109 81.5301 86.8641C81.5589 86.8172 81.5927 86.7556 81.6121 86.7288L81.7458 86.5241L82.015 86.1147C82.7366 85.067 83.4682 84.079 84.2198 83.1004C84.9715 82.1218 85.7293 81.1589 86.498 80.2026C88.0368 78.2959 89.6146 76.4211 91.2073 74.5704L91.5058 74.2167C91.6867 74.0018 91.8948 73.8112 92.1248 73.6499C92.57 73.3427 93.0825 73.1471 93.6192 73.0796C94.5002 72.9788 95.3912 73.1451 96.1765 73.5569C96.8939 73.9255 97.5051 74.4716 97.9519 75.1431C98.1889 75.5038 98.3585 75.9045 98.4525 76.3258C98.5568 76.772 98.532 77.2386 98.3808 77.6712C98.3306 77.7995 98.2446 77.9108 98.1331 77.9917C98.0216 78.0726 97.8892 78.1199 97.7516 78.1279C97.614 78.1359 97.4771 78.1043 97.3569 78.0368C97.2368 77.9693 97.1385 77.8688 97.0738 77.7471L96.9523 77.5068Z" fill="black"/>
<path d="M87.1455 90.5695C86.3348 91.6151 87.2348 92.8554 88.2845 92.3774C88.1838 94.3601 84.8748 94.7532 85.4457 92.2761C86.0166 89.7991 87.1455 90.5695 87.1455 90.5695Z" fill="black"/>
<path d="M27.9393 15.8802C22.3955 13.6409 20.0516 10.0403 17.685 7.96218L12.1121 10.1513C12.1121 10.1513 18.848 15.2017 21.7234 21.2217C23.2345 19.7625 26.0173 17.6757 27.9393 15.8802Z" fill="black"/>
<path d="M104.607 91.093C104.573 91.1245 104.536 91.1536 104.497 91.1802C104.459 91.2072 104.418 91.2378 104.379 91.2705L104.137 91.4526C103.977 91.5715 103.824 91.6986 103.667 91.8178C103.51 91.9371 103.363 92.0647 103.215 92.1904C103.067 92.3161 102.918 92.436 102.781 92.5703C102.222 93.0697 101.704 93.6145 101.234 94.1991C101.113 94.3395 100.999 94.4867 100.894 94.6402C100.777 94.7861 100.668 94.9382 100.568 95.0959C100.465 95.2521 100.364 95.4103 100.252 95.5638L99.9617 96.0587C99.9146 96.142 99.8601 96.2226 99.8092 96.3055C99.7583 96.3884 99.7212 96.4877 99.6728 96.5632C99.5829 96.7452 99.4887 96.9117 99.388 97.0871C99.1969 97.4501 99.0397 97.8161 98.808 98.1869L98.7728 98.2427C98.7166 98.3319 98.6339 98.4012 98.5363 98.441C98.4387 98.4809 98.3311 98.4891 98.2285 98.4647C98.126 98.4403 98.0337 98.3844 97.9645 98.3048C97.8954 98.2253 97.8528 98.1261 97.8429 98.0212C97.823 97.7917 97.8126 97.5629 97.8119 97.3312C97.8106 97.2153 97.8131 97.0997 97.8155 96.9841L97.8307 96.8108L97.8456 96.6394C97.8788 96.4106 97.916 96.1804 97.9607 95.9508C97.9999 95.7195 98.0597 95.4921 98.1395 95.2715C98.214 95.0483 98.2832 94.8208 98.3743 94.6029C98.4655 94.3849 98.5804 94.1766 98.6863 93.9637C98.7949 93.751 98.9181 93.5461 99.0549 93.3504C99.1871 93.1497 99.3307 92.9569 99.485 92.7728C100.083 92.0251 100.821 91.4013 101.657 90.9365C101.759 90.8763 101.864 90.8221 101.971 90.774C102.078 90.7226 102.185 90.6712 102.292 90.6254C102.509 90.5304 102.732 90.453 102.955 90.3794C103.182 90.312 103.412 90.2574 103.645 90.2156C103.886 90.1726 104.13 90.1494 104.375 90.1462C104.474 90.1441 104.572 90.172 104.655 90.2262C104.738 90.2804 104.803 90.3585 104.841 90.4502C104.879 90.5419 104.889 90.643 104.869 90.7402C104.848 90.8375 104.799 90.9264 104.728 90.9953L104.607 91.093Z" fill="black"/>
<path d="M53.4837 110.761C52.7272 107.612 49.4705 104.062 50.1513 101.707C50.7452 99.6478 52.2601 97.1305 52.2601 97.1305L46.0189 93.0321L42.7678 91.3602C42.7678 91.3602 41.1054 95.0331 39.6094 96.7485C37.2964 99.3962 31.6074 93.6638 27.9024 99.3282C25.7634 102.598 27.9251 106.118 31.2348 106.85C34.6486 107.606 38.9096 106.439 41.4572 108.174L41.6236 106.057C43.0458 109.828 40.0898 114.212 45.8222 116.69C49.0544 118.084 54.6053 115.396 53.4837 110.761Z" fill="#FFFAC5"/>
<path d="M41.4629 110.038C41.0892 110.038 40.7242 109.925 40.4152 109.715C39.3598 108.998 37.5196 109.004 35.5716 109.01C34.0132 109.01 32.4019 109.01 30.8435 108.671C28.4699 108.147 26.5351 106.558 25.6652 104.425C24.8557 102.441 25.1072 100.211 26.3536 98.3069C29.2359 93.8983 33.3513 94.7853 35.8232 95.3149C36.6856 95.504 37.9868 95.7801 38.2137 95.521C39.1688 94.4298 40.7499 91.2581 41.5235 89.5162C41.7439 89.0967 42.1156 88.7766 42.5633 88.6211C43.011 88.4655 43.501 88.486 43.9341 88.6785C44.3672 88.871 44.7109 89.221 44.8954 89.6576C45.0799 90.0941 45.0915 90.5845 44.9277 91.0292C44.6989 91.5437 42.6582 96.1016 41.0185 97.9759C39.3447 99.8917 36.9523 99.3773 35.0307 98.9631C32.4246 98.3957 30.8813 98.1915 29.4685 100.349C28.8879 101.238 28.7649 102.161 29.1129 103.016C29.5139 104.001 30.4841 104.771 31.6435 105.028C32.8028 105.286 34.1418 105.28 35.5603 105.276C37.9887 105.276 40.5003 105.263 42.5107 106.628C42.8381 106.854 43.0851 107.178 43.2156 107.553C43.346 107.929 43.3532 108.336 43.2361 108.716C43.119 109.096 42.8836 109.429 42.5644 109.665C42.2451 109.902 41.8586 110.031 41.461 110.033L41.4629 110.038Z" fill="black"/>
<path d="M54.0777 97.3839L53.9226 97.6316L53.76 97.9059C53.6522 98.095 53.5463 98.2841 53.4442 98.4733C53.238 98.8515 53.0432 99.2298 52.8635 99.6212C52.5117 100.359 52.23 101.129 52.0219 101.919L51.9879 102.057L51.9784 102.093V102.116V102.139C51.9784 102.163 51.9784 102.205 51.9652 102.241C51.9654 102.352 51.9742 102.462 51.9917 102.572C52.0538 102.902 52.1482 103.225 52.2735 103.536C52.6112 104.336 52.9899 105.118 53.4082 105.879C53.8413 106.71 54.3028 107.582 54.7113 108.55C54.9265 109.059 55.1072 109.582 55.2522 110.116L55.307 110.328L55.3581 110.557C55.3903 110.712 55.4186 110.867 55.4394 111.026C55.4855 111.346 55.5076 111.67 55.5056 111.994C55.5022 112.661 55.3937 113.322 55.1841 113.955C54.9735 114.581 54.6679 115.171 54.2782 115.705C53.5363 116.704 52.5628 117.508 51.4413 118.048C50.3581 118.584 49.1729 118.882 47.9651 118.922C47.3291 118.944 46.693 118.88 46.0739 118.733C45.7465 118.654 45.4264 118.547 45.1169 118.415C44.8578 118.303 44.6119 118.192 44.3604 118.063C43.8335 117.8 43.331 117.49 42.8587 117.138C42.3416 116.751 41.8802 116.294 41.4875 115.78C41.2846 115.513 41.1031 115.229 40.9447 114.933C40.7913 114.639 40.6599 114.333 40.5514 114.019C40.3511 113.437 40.2241 112.833 40.1731 112.219C40.1194 111.217 40.153 110.213 40.2733 109.218C40.3622 108.44 40.3673 107.655 40.2885 106.876C40.1913 106.154 39.9243 105.465 39.5093 104.866C39.0062 104.163 38.4158 103.528 37.7523 102.974L37.739 102.963C37.6372 102.874 37.5683 102.754 37.5432 102.621C37.5181 102.488 37.5384 102.35 37.6008 102.23C37.6631 102.111 37.764 102.015 37.8872 101.959C38.0103 101.903 38.1486 101.891 38.2799 101.923C39.3038 102.165 40.2685 102.611 41.1168 103.234C41.5774 103.578 41.989 103.983 42.3405 104.438C42.7019 104.91 42.9977 105.429 43.2199 105.98C43.6095 107.01 43.8354 108.095 43.8894 109.195C43.9708 110.192 43.9859 111.086 44.0786 111.81C44.1157 112.13 44.179 112.447 44.2677 112.756C44.3454 113.015 44.4587 113.261 44.6043 113.488C44.7658 113.733 44.962 113.953 45.1869 114.141C45.4549 114.36 45.746 114.551 46.055 114.708C46.2176 114.795 46.3973 114.878 46.5675 114.956C46.6898 115.008 46.8163 115.049 46.9457 115.079C47.24 115.147 47.5421 115.177 47.8441 115.166C48.5159 115.14 49.1748 114.973 49.777 114.674C50.3545 114.402 50.858 113.994 51.2446 113.486C51.5766 113.042 51.757 112.503 51.759 111.949C51.76 111.804 51.7499 111.66 51.7288 111.517C51.7193 111.444 51.7042 111.368 51.6891 111.292L51.6645 111.179L51.6304 111.05C51.5287 110.68 51.4024 110.316 51.2522 109.963C50.9344 109.206 50.5202 108.416 50.0871 107.585C49.6032 106.702 49.1676 105.794 48.7822 104.864C48.5584 104.305 48.3942 103.725 48.2923 103.131C48.235 102.778 48.2122 102.42 48.2242 102.063C48.2328 101.863 48.2549 101.664 48.2904 101.467L48.3169 101.316C48.3169 101.287 48.3264 101.269 48.3302 101.253L48.3434 101.204L48.3926 101.002C48.6572 99.9776 49.0188 98.9808 49.4725 98.025C49.6881 97.5617 49.9188 97.1096 50.159 96.6652C50.2801 96.442 50.4049 96.2226 50.5373 96.0032L50.7264 95.6723L50.9458 95.3243C51.2109 94.9039 51.6321 94.6061 52.1168 94.4964C52.6014 94.3866 53.1099 94.4738 53.5302 94.7389C53.9505 95.004 54.2484 95.4253 54.3581 95.9099C54.4679 96.3946 54.3806 96.903 54.1155 97.3234L54.0777 97.3839Z" fill="black"/>
<path d="M41.7786 96.5725C42.9133 94.9517 44.7119 95.1881 45.8902 96.1489C49.0278 98.704 47.3446 100.219 48.5739 103.147C50.3649 100.851 52.2486 96.2699 52.2486 96.2699L42.2854 91.0973L41.7786 96.5725Z" fill="black"/>
<path d="M89.4821 51.1593L88.6367 49.8903L87.6552 50.6241C87.2599 41.9091 82.2669 37.6973 76.3378 39.1252H75.1066L72.9449 40.4831C72.9449 40.4831 75.5056 31.9232 67.2162 29.631C60.5665 27.7927 52.1938 37.4136 48.4567 50.7111L34.1644 42.8926C17.7273 39.3673 12.2956 57.4554 27.6319 56.8483C36.7592 56.4833 38.3441 62.7112 40.0443 68.2564C41.0807 71.6361 42.0056 74.2404 42.9966 76.3624L42.1266 75.8934C36.0292 72.3435 28.6456 81.153 47.2122 93.0661C65.7788 104.979 71.0801 97.6543 67.2597 91.2467C74.0683 90.0268 84.092 84.6727 89.8358 76.8901C99.8993 63.2446 96.3909 49.9678 89.4821 51.1593Z" fill="#FEF3E6"/>
<path d="M45.3551 81.8338C44.658 81.3153 44.0092 80.7348 43.4165 80.0995C43.1118 79.7676 42.8263 79.4184 42.5617 79.0537C42.3003 78.6881 42.0579 78.3093 41.8354 77.9189C41.4108 77.1598 41.0374 76.3732 40.7177 75.5643C40.3943 74.7832 40.1162 74.0059 39.8401 73.2342C39.564 72.4626 39.2954 71.6985 39.0363 70.9326L38.2458 68.6366C37.9715 67.8139 37.7427 67.0082 37.5195 66.2328C37.2964 65.4573 37.0902 64.7065 36.85 64.0105C36.6385 63.3503 36.3695 62.7099 36.0462 62.0966C35.759 61.558 35.3931 61.0652 34.9606 60.6346C34.5378 60.2158 34.0498 59.8684 33.5157 59.6057C32.93 59.3201 32.314 59.1012 31.6793 58.9533C30.9897 58.7931 30.2893 58.6831 29.5838 58.6242C29.2206 58.5939 28.8537 58.5693 28.4812 58.558C28.292 58.558 28.1029 58.558 27.9138 58.5466H27.5979C27.4826 58.5466 27.3672 58.5466 27.2518 58.5466C26.2951 58.514 25.3444 58.3822 24.4149 58.1532C23.4109 57.905 22.4532 57.4976 21.578 56.9466C20.6235 56.3409 19.818 55.5277 19.2215 54.5674C18.6272 53.5875 18.2715 52.4816 18.1832 51.339C18.1038 50.258 18.2322 49.1717 18.5614 48.139C18.871 47.1563 19.3296 46.2269 19.9213 45.3834C21.0725 43.7485 22.6218 42.4342 24.4225 41.5649C26.1585 40.7371 28.0473 40.278 29.9696 40.2164C31.8126 40.1542 33.654 40.3827 35.4259 40.8935C37.132 41.383 38.7806 42.0545 40.3432 42.8964C41.8644 43.7095 43.3189 44.6416 44.6931 45.6841C46.0471 46.7124 47.2676 47.9055 48.3263 49.2359C48.5688 49.5459 48.694 49.9316 48.6799 50.325C48.6657 50.7183 48.5131 51.094 48.2489 51.3858C47.9847 51.6775 47.626 51.8666 47.236 51.9197C46.846 51.9727 46.4497 51.8863 46.1172 51.6756L46.0946 51.6605C44.7517 50.8075 43.5035 49.8941 42.242 49.0127C41.0143 48.126 39.7243 47.329 38.382 46.6278C37.0803 45.9476 35.7095 45.4086 34.293 45.0203C32.9423 44.6452 31.543 44.4744 30.1417 44.5134C28.8149 44.5535 27.5108 44.8684 26.3119 45.4382C25.1692 45.9768 24.1806 46.7944 23.4371 47.8156C22.7279 48.8028 22.3478 49.9735 22.4234 50.9834C22.452 51.4718 22.5986 51.946 22.8505 52.3653C23.1025 52.7846 23.4524 53.1366 23.8702 53.391C24.7686 53.9849 26.0679 54.2988 27.4447 54.3613C27.5317 54.3613 27.6187 54.3613 27.7057 54.3613H27.9989C28.2164 54.3613 28.4339 54.3612 28.6533 54.3821C29.0901 54.3991 29.5327 54.4312 29.9771 54.4728C30.886 54.5571 31.7874 54.7082 32.6741 54.9248C33.6173 55.1649 34.5294 55.514 35.3919 55.965C36.307 56.4319 37.141 57.043 37.8619 57.775C38.5645 58.5051 39.1519 59.338 39.6037 60.245C40.0148 61.0762 40.3503 61.9428 40.6061 62.8341C41.0978 64.5363 41.3626 66.1249 41.756 67.585C42.1645 69.1415 42.5825 70.7378 42.9588 72.2943C43.3352 73.8508 43.7153 75.3865 44.2543 76.7425C44.5192 77.4159 44.8512 78.061 45.2454 78.6679C45.666 79.2993 46.1298 79.9009 46.6336 80.4684V80.4684C46.7704 80.6462 46.8395 80.8669 46.8286 81.091C46.8177 81.3151 46.7274 81.528 46.5739 81.6917C46.4205 81.8554 46.2138 81.9592 45.9909 81.9846C45.7679 82.0099 45.5432 81.9551 45.357 81.8301L45.3551 81.8338Z" fill="black"/>
<path d="M41.5762 77.1776C40.9881 77.0395 40.1389 77.1984 39.4864 77.5899C39.1677 77.7761 38.8826 78.0146 38.6429 78.2953C38.4296 78.5539 38.2696 78.8522 38.172 79.1729C38.0742 79.4922 38.037 79.8271 38.0623 80.1601C38.0855 80.541 38.1626 80.9167 38.2911 81.276C38.605 82.1318 39.0518 82.9328 39.615 83.6495C40.7951 85.2174 42.3725 86.6623 44.0576 87.9994C45.7863 89.3419 47.5863 90.5901 49.4496 91.7385C51.2989 92.9056 53.2114 93.9694 55.1783 94.9253C57.1244 95.8425 59.1197 96.6274 61.0752 97.0057C61.9877 97.2002 62.9231 97.2638 63.8535 97.1948C64.2479 97.1579 64.6357 97.0695 65.0072 96.9319C65.17 96.8682 65.3275 96.7917 65.4781 96.7031C65.6158 96.6174 65.7467 96.5213 65.8696 96.4156C66.1143 96.1982 66.308 95.9296 66.437 95.6288C66.5832 95.2804 66.6677 94.9092 66.6866 94.5319C66.7101 93.6314 66.5154 92.7385 66.1193 91.9295L66.1003 91.8879C65.9618 91.585 65.941 91.2414 66.0422 90.9241C66.1433 90.6068 66.359 90.3386 66.6473 90.1718C66.9355 90.005 67.2756 89.9516 67.6011 90.022C67.9266 90.0924 68.2142 90.2816 68.4077 90.5526C69.2306 91.6896 69.7359 93.0252 69.8715 94.4222C69.9041 94.7997 69.9041 95.1794 69.8715 95.5569C69.8348 95.9474 69.762 96.3336 69.654 96.7106C69.3114 97.901 68.5937 98.949 67.6077 99.6988C67.2896 99.9382 66.9517 100.15 66.5977 100.332C65.9272 100.666 65.2147 100.908 64.4795 101.051C63.1424 101.291 61.7758 101.318 60.4303 101.131C57.8639 100.784 55.53 99.9787 53.3154 99.0199C52.2071 98.5395 51.1347 98.0099 50.0832 97.4501C49.0316 96.8903 48.0028 96.2964 47.0023 95.678C44.9638 94.4431 43.0136 93.068 41.1658 91.5626C39.3143 90.0098 37.5232 88.2945 36.0745 86.1119C35.298 84.9704 34.7223 83.7046 34.3724 82.3691C34.187 81.6276 34.1093 80.8632 34.1417 80.0996C34.1804 79.2871 34.3729 78.4894 34.709 77.7488C35.0494 77.0089 35.5335 76.3441 36.1332 75.7932C36.7077 75.267 37.3728 74.8492 38.0963 74.56C38.8078 74.2788 39.5632 74.1245 40.328 74.1043C41.1364 74.0825 41.9384 74.2536 42.6675 74.6036C42.9739 74.7575 43.2133 75.0184 43.3403 75.337C43.4672 75.6555 43.473 76.0095 43.3565 76.3321C43.24 76.6546 43.0093 76.9232 42.708 77.087C42.4068 77.2508 42.0559 77.2985 41.7219 77.2211L41.5762 77.1776Z" fill="black"/>
<path d="M63.6853 89.6977C64.3594 89.8641 65.0491 89.9592 65.743 89.9814C66.4432 90.0097 67.1444 89.9755 67.8385 89.8793C69.2471 89.6876 70.6296 89.3374 71.9596 88.8353C74.6539 87.7971 77.1806 86.3677 79.4585 84.5932C84.0751 81.0717 87.7952 76.4399 90.6378 71.2976C91.3403 70.0301 91.9631 68.7201 92.5026 67.3751C93.0411 66.0592 93.4699 64.701 93.7849 63.3145C94.0992 61.9763 94.2554 60.6059 94.2501 59.2313C94.2584 57.9568 94.0128 56.6935 93.5277 55.5149C93.0435 54.4312 92.3097 53.601 91.3678 53.2132C90.8703 53.0072 90.3342 52.9111 89.7962 52.9314C89.1889 52.9542 88.589 53.0723 88.0184 53.2814C86.8061 53.7145 85.6146 54.4842 84.5195 55.4109C83.4096 56.3786 82.3886 57.4439 81.4689 58.5939V58.5939C81.3244 58.7765 81.116 58.8974 80.8859 58.9323C80.6557 58.9672 80.4208 58.9134 80.2287 58.7818C80.0367 58.6502 79.9017 58.4507 79.851 58.2234C79.8004 57.9962 79.8379 57.7582 79.9559 57.5575C80.7491 56.1399 81.7009 54.817 82.7928 53.6142C83.355 52.9889 83.9686 52.4119 84.6273 51.8894C85.3126 51.34 86.0581 50.8705 86.8496 50.4898C87.694 50.0782 88.5998 49.8067 89.5314 49.686C90.5447 49.552 91.5752 49.6441 92.5487 49.9557C93.5222 50.2674 94.4146 50.7908 95.1617 51.4884C95.8824 52.1575 96.4825 52.9457 96.9357 53.8185C97.8303 55.5055 98.1991 57.3041 98.322 59.0459C98.4212 60.7555 98.3074 62.4708 97.9835 64.1524C97.6704 65.7874 97.22 67.3931 96.6369 68.9524C96.0581 70.4833 95.3828 71.976 94.6151 73.4215C93.8515 74.8499 93.0157 76.2387 92.1111 77.5823C91.204 78.9301 90.2202 80.2246 89.1645 81.4594C87.0361 83.9426 84.5847 86.1295 81.8755 87.9616C80.5116 88.8832 79.0759 89.694 77.5823 90.3862C76.0838 91.0839 74.5204 91.6331 72.9147 92.0259C71.2912 92.4351 69.6203 92.6259 67.9463 92.5933C67.0991 92.5643 66.2561 92.4605 65.4272 92.2831C65.0091 92.1922 64.5972 92.0747 64.194 91.9314C63.7887 91.791 63.3937 91.6222 63.012 91.4264C62.8097 91.3234 62.6525 91.1495 62.5704 90.9379C62.4882 90.7263 62.4869 90.4919 62.5667 90.2794C62.6465 90.0669 62.8018 89.8913 63.0029 89.7861C63.204 89.6809 63.4369 89.6535 63.6569 89.7091L63.6853 89.6977Z" fill="black"/>
<path d="M44.47 58.7471C44.47 58.1798 44.4851 57.6124 44.5059 57.045L44.5626 56.1977L44.6345 55.3504C44.7423 54.2157 44.9106 53.096 45.1206 51.9764C45.5469 49.7308 46.1587 47.5243 46.9494 45.3797C47.7445 43.2179 48.7227 41.1281 49.8733 39.1328C51.0359 37.0996 52.4062 35.1924 53.9623 33.442C54.7603 32.5458 55.6232 31.7095 56.5438 30.9398C57.4887 30.136 58.5128 29.4301 59.6001 28.8329C60.7547 28.1955 62.0015 27.7418 63.2957 27.4882C64.6933 27.2164 66.1363 27.2917 67.4981 27.7076L67.7553 27.7908L67.9974 27.8778C68.1562 27.9365 68.3151 28.0064 68.4721 28.067C68.7897 28.2056 69.0985 28.3635 69.3969 28.5398C69.9996 28.8954 70.5555 29.3249 71.0518 29.8183C71.9995 30.7818 72.7115 31.9515 73.1322 33.2358C73.3355 33.8336 73.4861 34.4481 73.5823 35.0722C73.6783 35.6754 73.7307 36.2847 73.7393 36.8954C73.7514 37.4914 73.7274 38.0877 73.6674 38.6808C73.6371 38.9758 73.5974 39.269 73.552 39.5602C73.5274 39.7077 73.5029 39.8534 73.4726 40.0009C73.4423 40.1484 73.4121 40.2846 73.3705 40.4624C73.3155 40.6951 73.1774 40.8997 72.9822 41.0378C72.787 41.1759 72.5481 41.2381 72.3104 41.2125C72.0726 41.187 71.8524 41.0755 71.691 40.8991C71.5296 40.7227 71.4381 40.4934 71.4338 40.2543V40.1616V39.8042L71.4206 39.4259C71.4092 39.1706 71.3922 38.9134 71.3657 38.6581C71.3166 38.1493 71.2523 37.6444 71.1558 37.1451C70.9791 36.1962 70.6763 35.2752 70.2556 34.4065C69.8811 33.6336 69.3405 32.9529 68.6726 32.4131C68.3573 32.163 68.0116 31.9539 67.6437 31.7909C67.4546 31.7058 67.2655 31.6358 67.0763 31.5677C66.9761 31.5374 66.8872 31.5034 66.7775 31.4788L66.6281 31.4391L66.4863 31.4126C65.7126 31.2729 64.9172 31.3137 64.1619 31.5318C63.3112 31.7736 62.4988 32.1339 61.7486 32.6022C61.3454 32.8491 60.9553 33.1168 60.5798 33.4041C60.2016 33.6897 59.8233 33.998 59.445 34.3252C58.6994 34.9939 57.9934 35.7056 57.3306 36.4566C55.9781 38.0019 54.7554 39.6561 53.6748 41.4023C52.5636 43.1791 51.5618 45.0221 50.6752 46.921C48.8823 50.802 47.4588 54.8432 46.4237 58.9911C46.3633 59.2225 46.2212 59.4241 46.0237 59.5588C45.8262 59.6935 45.5865 59.7521 45.3491 59.7237C45.1117 59.6953 44.8927 59.5819 44.7324 59.4045C44.5722 59.227 44.4816 58.9976 44.4775 58.7585L44.47 58.7471Z" fill="black"/>
<path d="M55.7078 55.1896C55.6076 55.5811 55.4922 56.0104 55.3806 56.4152L55.0477 57.6464C54.8303 58.4653 54.6146 59.2786 54.4161 60.0899C54.017 61.7145 53.6596 63.3297 53.3891 64.9505C53.1071 66.5682 52.9089 68.1994 52.7952 69.8375C52.6629 71.4829 52.678 73.1302 52.6685 74.8607V74.8986C52.6608 75.065 52.5984 75.2242 52.491 75.3515C52.3835 75.4788 52.2371 75.5671 52.0743 75.6026C51.9116 75.6382 51.7417 75.6191 51.5909 75.5482C51.4402 75.4773 51.317 75.3586 51.2406 75.2106C51.0362 74.7976 50.8557 74.3733 50.6997 73.9397C50.6203 73.7222 50.5484 73.5028 50.4747 73.2834C50.4009 73.064 50.3498 72.8409 50.2855 72.6177C50.1607 72.1732 50.0813 71.7193 49.9886 71.2654C49.9508 71.0366 49.9205 70.8077 49.8865 70.5789C49.8524 70.3501 49.8241 70.1212 49.807 69.8905C49.6388 68.051 49.7139 66.1973 50.0302 64.3774C50.34 62.5723 50.8618 60.81 51.5848 59.1272C51.9439 58.2899 52.3571 57.4769 52.8217 56.6932C53.0562 56.3036 53.3021 55.9197 53.5669 55.5471C53.8347 55.1655 54.1245 54.7998 54.435 54.452C54.5489 54.333 54.6986 54.2543 54.8613 54.2281C55.024 54.2019 55.1908 54.2296 55.3363 54.3068C55.4819 54.3841 55.5982 54.5068 55.6677 54.6562C55.7371 54.8057 55.7558 54.9737 55.721 55.1348L55.7078 55.1896Z" fill="black"/>
<path d="M67.3222 61.6521C66.8222 63.2451 66.2019 64.7979 65.4668 66.2971C64.7519 67.7886 63.9746 69.2443 63.1349 70.664C62.2952 72.0837 61.3987 73.4706 60.4455 74.8248C59.489 76.1937 58.4314 77.4891 57.2814 78.7C57.1631 78.8244 57.006 78.9048 56.8359 78.9281C56.6658 78.9514 56.4929 78.9161 56.3455 78.8281C56.1981 78.7401 56.0851 78.6046 56.0249 78.4439C55.9647 78.2831 55.9609 78.1067 56.0143 77.9435C56.5162 76.3509 57.137 74.7982 57.8715 73.2986C58.5864 71.8057 59.3631 70.3507 60.2015 68.9335C61.04 67.5163 61.9358 66.1294 62.889 64.7727C63.8443 63.4035 64.9021 62.1087 66.0531 60.8994V60.8994C66.1714 60.775 66.3285 60.6946 66.4986 60.6713C66.6687 60.648 66.8416 60.6833 66.989 60.7713C67.1364 60.8593 67.2495 60.9948 67.3097 61.1555C67.3699 61.3163 67.3736 61.4927 67.3203 61.6559L67.3222 61.6521Z" fill="black"/>
<path d="M79.1123 68.247C78.9714 68.6975 78.8047 69.1395 78.613 69.5708C78.4239 70.0021 78.2215 70.4144 78.0097 70.8304C77.7978 71.2465 77.5595 71.6399 77.3212 72.039C77.2002 72.2281 77.0735 72.4286 76.943 72.6234C76.8125 72.8182 76.6952 73.0168 76.5647 73.2021C75.504 74.7288 74.28 76.1354 72.9146 77.3969C72.2451 78.0437 71.5056 78.6168 70.7774 79.1955C70.3992 79.4641 70.0209 79.7327 69.6257 79.9918C69.4365 80.1185 69.2474 80.2565 69.0431 80.37L68.4323 80.7407C68.2299 80.858 68.0238 80.9677 67.8214 81.0811C67.619 81.1946 67.4185 81.3119 67.2029 81.4064C66.7793 81.5956 66.35 81.7847 65.9225 81.9738C65.7051 82.0608 65.497 82.1629 65.2757 82.2348C65.0545 82.3067 64.8313 82.3804 64.6062 82.4485C64.1618 82.5885 63.7117 82.7133 63.2615 82.8268C63.0987 82.8591 62.9298 82.837 62.7808 82.7638C62.6317 82.6907 62.5109 82.5705 62.4369 82.4219C62.363 82.2733 62.3399 82.1045 62.3714 81.9415C62.4028 81.7785 62.487 81.6303 62.6109 81.5199L62.6488 81.4896C64.037 80.3549 65.4422 79.396 66.7471 78.2745L67.2464 77.8773C67.411 77.743 67.5698 77.5993 67.7325 77.4612C68.0521 77.1794 68.3812 76.9128 68.7065 76.6385C69.0318 76.3643 69.3382 76.0712 69.6521 75.7856C69.9661 75.5 70.2819 75.2182 70.5978 74.9232C71.8422 73.7638 73.0564 72.5704 74.2498 71.3297C74.5486 71.0196 74.8418 70.7037 75.1463 70.3974L76.0371 69.4517L76.9316 68.5061L77.3799 68.0276C77.535 67.8725 77.6825 67.7023 77.8281 67.5604L77.8848 67.5056C78.004 67.3906 78.158 67.3184 78.3226 67.3004C78.4873 67.2824 78.6532 67.3196 78.7944 67.4063C78.9356 67.4929 79.044 67.6239 79.1025 67.7789C79.1611 67.9338 79.1665 68.1038 79.1179 68.2621L79.1123 68.247Z" fill="black"/>
<path d="M65.238 48.852C65.3458 48.4738 65.4725 48.1163 65.5917 47.7456L65.7808 47.1953C65.8451 47.0061 65.9302 46.8359 66.004 46.6544C66.1553 46.295 66.316 45.9395 66.4749 45.5782C66.6338 45.217 66.8418 44.8823 67.0271 44.5324C67.1217 44.3584 67.2163 44.1844 67.3184 44.0142L67.6399 43.5092L67.969 43.0061L68.1354 42.7546L68.3246 42.5125C68.5685 42.1891 68.822 41.8713 69.0811 41.5517C69.3402 41.2321 69.6314 40.9427 69.9151 40.642C71.1066 39.4152 72.5056 38.4087 74.0475 37.6689C75.6948 36.8713 77.5146 36.4956 79.3431 36.5758L80.0467 36.6382L80.2225 36.6552L80.3965 36.6874L80.7464 36.7555C80.9772 36.8065 81.2136 36.8425 81.4405 36.9105C81.6675 36.9786 81.8963 37.0505 82.1214 37.128C82.2349 37.1696 82.3483 37.1999 82.458 37.2491L82.7833 37.3966C83.0008 37.4968 83.2183 37.5857 83.432 37.7011L84.0429 38.0794L84.3455 38.2685C84.442 38.3385 84.5346 38.4122 84.6292 38.486C86.114 39.6071 87.2511 41.1257 87.9087 42.8661C88.5143 44.4845 88.7589 46.2157 88.6255 47.9385C88.5058 49.5513 88.1058 51.1309 87.4434 52.6062C87.345 52.8109 87.1796 52.9757 86.9746 53.0734C86.7696 53.1711 86.5374 53.1957 86.3164 53.1431C86.0955 53.0905 85.8992 52.9639 85.7602 52.7844C85.6212 52.6048 85.5477 52.3831 85.5521 52.1561V52.1183C85.6392 50.7521 85.5923 49.3807 85.4122 48.0236C85.2437 46.7917 84.8596 45.599 84.2774 44.5002C83.7567 43.5183 82.9986 42.6822 82.0722 42.068C82.0174 42.0321 81.9644 41.9905 81.9096 41.9565L81.7337 41.8657C81.6183 41.8032 81.5048 41.7408 81.3913 41.6765L81.0282 41.5309L80.8391 41.4553C80.7772 41.4333 80.714 41.4149 80.65 41.4004C80.5233 41.3664 80.4003 41.3267 80.2717 41.2869C80.1431 41.2472 80.0126 41.2397 79.884 41.2113L79.6949 41.1735L79.5984 41.1545H79.4982L79.0991 41.1262C78.9645 41.1148 78.8291 41.1148 78.6944 41.1262H78.2859L77.8736 41.1791C77.7343 41.19 77.596 41.2103 77.4594 41.2397C76.8897 41.3452 76.3321 41.5081 75.7951 41.7257C74.6398 42.202 73.5575 42.8387 72.5799 43.617C72.3303 43.8288 72.0731 44.0312 71.8234 44.2392C71.5738 44.4473 71.3411 44.6988 71.0896 44.9239L70.9005 45.0941L70.7246 45.2832L70.3728 45.6615L70.0135 46.0397C69.8943 46.1645 69.7884 46.3007 69.673 46.4293L68.9846 47.2161C68.7671 47.4903 68.5515 47.7683 68.3246 48.0426C68.213 48.1825 68.0976 48.3168 67.9898 48.4586L67.6702 48.8917C67.4508 49.1754 67.2371 49.4591 67.0063 49.7523L66.9647 49.8033C66.8195 49.9796 66.618 50.1006 66.3941 50.1458C66.1701 50.1911 65.9375 50.1579 65.7351 50.0519C65.5328 49.9458 65.3731 49.7734 65.283 49.5635C65.1928 49.3536 65.1776 49.1191 65.2399 48.8993L65.238 48.852Z" fill="black"/>
        </symbol>
    </defs>
    <style type="text/css">
      @keyframes frameTransform {
        100% {
            transform: translateX(-256px);
        }
      }
      .frames:target{
          animation: frameTransform 600ms steps(2) infinite;
      }
    </style>
    <g class="frames" id="play">
      <use href="#frame-1" />
      <use href="#frame-2" x="128px" />
    </g>
</svg>
