<svg width="272" height="272" viewBox="0 0 272 272" fill="none" xmlns="http://www.w3.org/2000/svg">
<mask id="path-1-inside-1_601_609" fill="white">
<path fill-rule="evenodd" clip-rule="evenodd" d="M17 0L255 -1.90735e-05C255 9.22283 262.611 16.6994 272 16.6994V255.301C262.611 255.301 255 262.777 255 272H17C17 262.777 9.38884 255.301 0 255.301V16.6994C9.38883 16.6994 17 9.22284 17 0Z"/>
</mask>
<path fill-rule="evenodd" clip-rule="evenodd" d="M17 0L255 -1.90735e-05C255 9.22283 262.611 16.6994 272 16.6994V255.301C262.611 255.301 255 262.777 255 272H17C17 262.777 9.38884 255.301 0 255.301V16.6994C9.38883 16.6994 17 9.22284 17 0Z" fill="#000000"/>
<path d="M255 -1.90735e-05H258V-3.00002L255 -3.00002L255 -1.90735e-05ZM17 0L17 -3L14 -3L14 -3.72253e-06L17 0ZM272 16.6994H275V13.6994H272V16.6994ZM272 255.301V258.301H275V255.301H272ZM255 272V275H258V272H255ZM17 272H14V275H17V272ZM0 255.301H-3V258.301H0V255.301ZM0 16.6994V13.6994H-3V16.6994H0ZM255 -3.00002L17 -3L17 3L255 2.99998L255 -3.00002ZM272 13.6994C264.217 13.6994 258 7.51576 258 -1.90735e-05H252C252 10.9299 261.005 19.6994 272 19.6994V13.6994ZM275 255.301V16.6994H269V255.301H275ZM258 272C258 264.484 264.217 258.301 272 258.301V252.301C261.005 252.301 252 261.07 252 272H258ZM17 275H255V269H17V275ZM0 258.301C7.78266 258.301 14 264.484 14 272H20C20 261.07 10.995 252.301 0 252.301V258.301ZM-3 16.6994V255.301H3V16.6994H-3ZM14 -3.72253e-06C14 7.51577 7.78265 13.6994 0 13.6994V19.6994C10.995 19.6994 20 10.9299 20 3.72253e-06L14 -3.72253e-06Z" fill="#5F0000" mask="url(#path-1-inside-1_601_609)"/>
<mask id="path-3-inside-2_601_609" fill="white">
<path fill-rule="evenodd" clip-rule="evenodd" d="M250.004 6C252.102 13.8607 258.223 20.0553 266 22.1938V249.79C258.12 251.914 251.914 258.12 249.79 266H21.9963C19.8982 258.139 13.7771 251.945 6 249.806V22.1938C13.7771 20.0553 19.8982 13.8607 21.9963 6H250.004Z"/>
</mask>
<path fill-rule="evenodd" clip-rule="evenodd" d="M250.004 6C252.102 13.8607 258.223 20.0553 266 22.1938V249.79C258.12 251.914 251.914 258.12 249.79 266H21.9963C19.8982 258.139 13.7771 251.945 6 249.806V22.1938C13.7771 20.0553 19.8982 13.8607 21.9963 6H250.004Z" fill="#000000"/>
<path d="M266 22.1938H267.5V21.0506L266.398 20.7475L266 22.1938ZM250.004 6L251.453 5.61318L251.156 4.5H250.004V6ZM266 249.79L266.39 251.239L267.5 250.94V249.79H266ZM249.79 266V267.5H250.94L251.239 266.39L249.79 266ZM21.9963 266L20.547 266.387L20.8441 267.5H21.9963V266ZM6 249.806H4.5V250.949L5.60231 251.253L6 249.806ZM6 22.1938L5.60231 20.7475L4.5 21.0506V22.1938H6ZM21.9963 6V4.5H20.8441L20.547 5.61318L21.9963 6ZM266.398 20.7475C259.14 18.7517 253.415 12.9642 251.453 5.61318L248.554 6.38682C250.789 14.7572 257.306 21.3589 265.602 23.6401L266.398 20.7475ZM267.5 249.79V22.1938H264.5V249.79H267.5ZM251.239 266.39C253.223 259.026 259.026 253.223 266.39 251.239L265.61 248.342C257.214 250.605 250.605 257.214 248.342 265.61L251.239 266.39ZM21.9963 267.5H249.79V264.5H21.9963V267.5ZM5.60231 251.253C12.8604 253.248 18.585 259.036 20.547 266.387L23.4456 265.613C21.2114 257.243 14.6938 250.641 6.39769 248.36L5.60231 251.253ZM4.5 22.1938V249.806H7.5V22.1938H4.5ZM20.547 5.61318C18.585 12.9642 12.8604 18.7517 5.60231 20.7475L6.39769 23.6401C14.6938 21.3589 21.2114 14.7572 23.4456 6.38682L20.547 5.61318ZM250.004 4.5H21.9963V7.5H250.004V4.5Z" fill="#5F0000" mask="url(#path-3-inside-2_601_609)"/>
</svg>
