<svg class="svg" width="32" height="32" viewBox="0 0 32 32" xmlns="http://www.w3.org/2000/svg"><path d="M10.5 11c0-1.657 1.343-3 3-3h5c1.657 0 3 1.343 3 3 0 1.043-.533 1.963-1.341 2.5.808.537 1.341 1.457 1.341 2.5 0 1.657-1.343 3-3 3-.768 0-1.47-.289-2-.764V21c0 1.657-1.343 3-3 3-1.657 0-3-1.343-3-3 0-1.044.533-1.962 1.341-2.5-.808-.538-1.341-1.456-1.341-2.5 0-1.043.533-1.963 1.341-2.5-.808-.537-1.341-1.457-1.341-2.5zm3 2c-1.105 0-2-.895-2-2 0-1.105.895-2 2-2h2v4h-2zm2 1h-2c-1.105 0-2 .895-2 2 0 1.105.895 2 2 2h2v-4zm0 5h-2c-1.105 0-2 .895-2 2 0 1.105.895 2 2 2 1.105 0 2-.895 2-2v-2zm3-5c-1.105 0-2 .895-2 2 0 1.105.895 2 2 2 1.105 0 2-.895 2-2 0-1.105-.895-2-2-2zm0-1c1.105 0 2-.895 2-2 0-1.105-.895-2-2-2h-2v4h2z" fill-rule="evenodd" fill-opacity="1" fill="#000" stroke="none"></path></svg>