<svg width="128" height="128" viewBox="0 0 128 128" fill="none" xmlns="http://www.w3.org/2000/svg">
    <defs>
        <symbol id="frame-1">
          <path d="M112.118 48.0968C105.76 46.557 96.9484 50.9484 91.3309 62.9462C89.0346 61.261 86.4241 60.0528 83.6533 59.3928C80.8826 58.7329 78.0077 58.6346 75.1984 59.1037C74.2146 53.7072 70.586 37.2967 62.0029 31.9643C49.8198 24.3935 44.0169 37.8955 51.7232 43.0995C57.7541 47.1701 62.5019 52.6949 65.4104 62.8891C63.7624 63.9746 62.2437 65.2446 60.8837 66.6745C60.5938 66.9834 60.3086 67.2971 60.0282 67.6155C57.248 64.3577 49.1568 53.8926 36.1895 52.2886C24.8404 50.8628 23.2721 66.6816 36.8311 67.972C46.9896 68.9415 52.3363 73.7819 54.8527 77.0683C54.0518 79.7569 53.7403 82.5676 53.9331 85.3663C45.6138 82.4078 37.0307 81.9445 31.349 85.1453C26.2876 87.9968 25.4179 97.9201 37.9289 95.3894C50.44 92.8587 56.6705 96.1949 59.7288 98.4975C59.8999 98.6615 60.0638 98.8326 60.2349 99.0037C66.0449 104.536 74.3785 105.954 81.9849 103.473C84.3303 109.925 90.8461 109.219 97.761 102.311C105.382 94.6836 104.89 86.3857 98.9872 84.6249C99.3555 82.8816 99.5277 81.1026 99.5005 79.321C99.2795 72.3847 101.275 65.1204 111.391 61.5917C121.507 58.0629 119.254 49.822 112.118 48.0968Z" fill="#FEF3E6"/>
          <path d="M55.4297 74.9777C55.3617 75.4715 55.2567 75.9813 55.1723 76.4812L54.9066 77.9626C54.7308 78.9408 54.5839 79.909 54.4659 80.8672C54.3382 81.8287 54.2743 82.7822 54.2228 83.7437C54.2228 83.9846 54.2043 84.2255 54.1899 84.4704C54.1755 84.7153 54.1899 84.9542 54.1899 85.199L54.1755 85.5724C54.1755 85.6949 54.1858 85.8173 54.1858 85.9418C54.1858 86.1907 54.1858 86.4456 54.1693 86.7085V86.7888C54.1576 86.9724 54.0717 87.144 53.9304 87.266C53.7891 87.3879 53.6039 87.4502 53.4155 87.4392C53.2987 87.4315 53.1855 87.3962 53.0858 87.3364C52.9861 87.2766 52.9027 87.1941 52.843 87.096C52.6988 86.8511 52.5629 86.6002 52.4311 86.3412C52.3672 86.2127 52.3096 86.0823 52.2478 85.9518L52.1077 85.5503C52.0212 85.2813 51.9327 85.0083 51.8585 84.7333C51.7844 84.4583 51.7453 84.1773 51.6999 83.8963C51.53 82.7763 51.53 81.6379 51.6999 80.5179C51.8591 79.4158 52.1573 78.3371 52.5876 77.3062C52.705 77.0532 52.8121 76.7963 52.9398 76.5494C53.0675 76.3025 53.1972 76.0556 53.3517 75.8167C53.5061 75.5779 53.6482 75.341 53.8151 75.1142C53.9827 74.8788 54.1657 74.6542 54.3629 74.4417C54.4489 74.3378 54.5678 74.2647 54.7011 74.2339C54.8343 74.2031 54.9743 74.2163 55.099 74.2715C55.2237 74.3266 55.3261 74.4206 55.39 74.5386C55.454 74.6566 55.4759 74.792 55.4524 74.9235L55.4297 74.9777Z" fill="black"/>
          <path d="M69.1019 60.6691C69.0003 60.7442 68.871 60.8237 68.737 60.9098C68.6031 60.9959 68.4807 61.0688 68.3537 61.1549L67.6009 61.6562C67.1044 62.0007 66.6125 62.3319 66.1391 62.6896C65.1877 63.3918 64.2686 64.1139 63.3979 64.8978C63.167 65.0811 62.9661 65.2909 62.7513 65.4852L62.4234 65.7745C62.3126 65.8717 62.2156 65.9821 62.1094 66.0814C61.8992 66.2824 61.6914 66.49 61.472 66.6865C61.2526 66.883 61.0679 67.1105 60.8554 67.318C60.4213 67.7244 60.0449 68.1792 59.6084 68.6032C59.1719 69.0272 58.7932 69.4865 58.3129 69.9281L58.2621 69.9723C58.1356 70.0852 57.9742 70.1559 57.8021 70.1735C57.6301 70.1912 57.4566 70.155 57.308 70.0704C57.1593 69.9857 57.0433 69.8572 56.9776 69.7041C56.9119 69.551 56.8999 69.3817 56.9435 69.2215C57.0289 68.9035 57.1351 68.5966 57.2483 68.2874C57.3527 67.9762 57.4777 67.6716 57.6224 67.3755C57.9079 66.7809 58.239 66.2074 58.6131 65.6597C58.8025 65.3859 58.9918 65.112 59.195 64.847C59.3982 64.5821 59.6292 64.337 59.8486 64.0808C60.0668 63.8285 60.298 63.5868 60.5413 63.3565L60.9085 63.0098C61.0293 62.891 61.1565 62.7782 61.2896 62.672C62.3242 61.793 63.4805 61.0544 64.7258 60.477C65.3487 60.1893 65.9951 59.9508 66.6587 59.7637C66.9931 59.6733 67.3323 59.5996 67.6748 59.5429C67.8456 59.5142 68.0188 59.4855 68.1944 59.4656L68.4622 59.4414L68.7463 59.4259C68.8911 59.4213 69.0337 59.4602 69.1542 59.5371C69.2747 59.6141 69.3669 59.7252 69.4179 59.8549C69.4688 59.9845 69.476 60.1262 69.4384 60.26C69.4008 60.3938 69.3202 60.5129 69.2081 60.6007L69.1019 60.6691Z" fill="black"/>
          <path fill-rule="evenodd" clip-rule="evenodd" d="M84.427 107.67C85.2127 107.13 85.9617 106.538 86.6687 105.897C87.6252 105.045 88.4836 104.089 89.2279 103.046C89.959 101.999 90.5644 100.869 91.0316 99.6809C91.0859 99.5546 91.0927 99.4128 91.0508 99.2818C91.0089 99.1508 90.921 99.0394 90.8034 98.968C90.74 98.9297 90.6695 98.9045 90.5962 98.8938C90.5229 98.8831 90.4482 98.8872 90.3765 98.9058C90.3047 98.9244 90.2375 98.9571 90.1786 99.0021C90.1507 99.0234 90.1249 99.0473 90.1016 99.0733C89.238 99.7632 88.3345 100.402 87.3959 100.985C86.4422 101.578 85.4516 102.109 84.4302 102.575C83.4215 103.034 82.3831 103.425 81.3221 103.744C80.8017 103.901 80.2671 104.037 79.7395 104.158C79.2406 104.268 78.7361 104.352 78.2282 104.407L78.1711 104.429H77.9573C77.7547 104.47 77.5623 104.551 77.3918 104.668C77.2212 104.784 77.0759 104.934 76.9646 105.108C76.934 105.156 76.9061 105.206 76.8811 105.256C78.5945 105.091 80.3074 104.733 81.985 104.186C82.5638 105.779 83.3967 106.935 84.427 107.67Z" fill="black"/>
          <path d="M101.44 83.4344C101.222 84.1979 100.953 84.9458 100.634 85.6728C100.327 86.3857 99.9995 87.0986 99.6288 87.7402C98.9028 89.0722 98.0557 90.3346 97.0981 91.5113C97.0676 91.5502 97.0295 91.5826 96.9863 91.6066C96.943 91.6306 96.8955 91.6457 96.8463 91.651C96.7972 91.6563 96.7474 91.6517 96.7001 91.6375C96.6527 91.6233 96.6087 91.5998 96.5706 91.5683C96.5025 91.5116 96.4561 91.4331 96.4392 91.346C96.4223 91.259 96.436 91.1688 96.4779 91.0907C97.1941 89.8294 97.793 88.505 98.2672 87.1342C98.5025 86.4214 98.7021 85.7726 98.8732 85.0811C99.0415 84.4101 99.1677 83.7291 99.251 83.0423C99.2803 82.7483 99.4252 82.478 99.6538 82.2908C99.8824 82.1037 100.176 82.0149 100.47 82.0443C100.764 82.0736 101.034 82.2185 101.222 82.4471C101.409 82.6757 101.497 82.9693 101.468 83.2633C101.462 83.3209 101.452 83.378 101.44 83.4344Z" fill="black"/>
          <path d="M55.2234 29.7116C57.6493 29.8145 59.9979 30.5948 62.0029 31.9643C70.5575 37.2967 74.2146 53.7072 75.1983 59.1037C76.3566 58.9252 77.5266 58.8347 78.6985 58.8328C83.2443 58.7952 87.6788 60.2392 91.3309 62.9462C96.2355 52.5024 103.578 47.7974 109.595 47.7974C110.445 47.7947 111.292 47.8952 112.118 48.0968C119.247 49.822 121.528 58.0772 111.406 61.6416C101.283 65.206 99.2866 72.4346 99.5147 79.3709C99.5419 81.1525 99.3697 82.9315 99.0014 84.6748C104.933 86.4356 105.417 94.7335 97.7752 102.361C94.0754 106.054 90.4896 107.979 87.6024 107.979C85.0859 107.979 83.0899 106.553 81.9992 103.523C79.6385 104.299 77.1699 104.696 74.685 104.7C69.3243 104.754 64.1508 102.73 60.2492 99.0536C60.0781 98.8825 59.9141 98.7114 59.743 98.5474C57.4618 96.8294 53.4269 94.5339 46.3124 94.5339C43.4995 94.5572 40.6959 94.8605 37.9432 95.4393C36.7293 95.7008 35.4921 95.8393 34.2504 95.8527C25.6958 95.8527 26.865 87.7331 31.3989 85.1952C34.3777 83.6471 37.7029 82.8864 41.0585 82.9852C45.4726 83.0641 49.8419 83.886 53.983 85.4162C53.7902 82.6175 54.1016 79.8068 54.9026 77.1182C52.3861 73.8319 47.0609 68.9914 36.881 68.0219C23.8994 66.7886 24.7619 52.2458 34.8492 52.2529C35.3257 52.2529 35.8018 52.2815 36.275 52.3385C49.2423 53.9425 57.3335 64.4076 60.1138 67.6654C60.3894 67.3423 60.6745 67.0286 60.9692 66.7244C62.3292 65.2945 63.8479 64.0245 65.496 62.939C62.5874 52.7448 57.8396 47.2556 51.8087 43.1494C45.7777 39.0432 48.0589 29.7615 55.3089 29.7615L55.2234 29.7116ZM55.3089 26.91C53.2103 26.8689 51.1561 27.5164 49.4605 28.7537C47.7649 29.991 46.5214 31.7497 45.9203 33.7608C45.2739 35.9186 45.341 38.2273 46.1116 40.3439C46.8822 42.4605 48.3152 44.2719 50.1976 45.5091C56.0788 49.4798 59.7288 54.4272 62.1526 61.8127C61.4967 62.3259 60.8551 62.8606 60.2349 63.4309C56.2356 58.8685 48.23 50.9412 36.6101 49.5083C36.0329 49.4381 35.452 49.4024 34.8706 49.4014C32.0874 49.3203 29.3855 50.3457 27.3568 52.2529C25.5586 54.0058 24.5 56.3807 24.3984 58.8899C24.1489 64.0654 27.8772 70.0179 36.6314 70.852C44.5301 71.5649 49.1639 74.8441 51.7944 77.7883C51.5052 79.025 51.3028 80.2803 51.1885 81.5452C47.8946 80.6353 44.4968 80.1561 41.0798 80.1194C37.2331 80.0096 33.4237 80.8988 30.0231 82.7001C26.3589 84.7603 24.32 89.173 25.3394 92.9584C26.2804 96.5228 29.6166 98.6615 34.3074 98.6615C35.7449 98.6483 37.1777 98.4931 38.5847 98.1981C41.1633 97.6511 43.7904 97.3645 46.4264 97.3427C51.1528 97.3427 54.9311 98.4262 57.9751 100.658L58.3957 101.071C62.8294 105.244 68.7037 107.542 74.792 107.487C76.7493 107.485 78.7004 107.265 80.6091 106.831C81.3537 108.049 82.4026 109.053 83.6525 109.743C84.9024 110.432 86.3103 110.785 87.7379 110.766C91.4877 110.766 95.7008 108.535 99.9282 104.35C105.054 99.2176 107.378 93.2293 106.137 88.339C105.604 86.1215 104.228 84.1988 102.302 82.9781C102.443 81.8598 102.51 80.7333 102.502 79.6062C102.509 79.4946 102.509 79.3827 102.502 79.2711C102.259 71.4294 105.353 66.8099 112.482 64.3006C118.185 62.3188 121.436 58.5263 121.222 54.1563C121.022 50.0359 117.658 46.4857 112.924 45.3308C111.878 45.0785 110.806 44.9517 109.73 44.953C105.931 44.953 102.024 46.4287 98.4311 49.2303C95.0837 51.866 92.2924 55.1395 90.2187 58.8614C86.674 56.9584 82.7074 55.9777 78.6843 56.0098C78.285 56.0098 77.8787 56.0098 77.4795 56.0098C75.8256 48.2893 71.8264 34.7232 63.4999 29.5405C61.0421 27.8879 58.1693 26.9591 55.2091 26.8601L55.3089 26.91Z" fill="black"/>
          <path d="M86.6544 68.8916C85.3319 70.291 84.2243 71.8791 83.368 73.6037C83.1898 74.0386 82.9617 74.4521 82.812 74.894C82.6623 75.336 82.4912 75.7637 82.3842 76.2129C82.2773 76.662 82.1775 77.1111 82.0848 77.5602L81.9423 78.9289C81.8995 79.3852 81.9423 79.8486 81.9423 80.3119C81.9272 80.5493 81.9272 80.7874 81.9423 81.0248L82.0492 81.7377C82.0861 82.2029 82.1552 82.665 82.2559 83.1207C82.3842 83.5769 82.4983 84.0403 82.6052 84.5037C82.7171 84.9738 82.8673 85.4339 83.0543 85.8795L83.5391 87.2554C83.9383 88.1607 84.3731 89.0447 84.7438 90V90.0855C84.8092 90.2606 84.8032 90.4542 84.7272 90.6249C84.6512 90.7955 84.5113 90.9295 84.3375 90.998C84.1994 91.0505 84.0484 91.0589 83.9054 91.0219C83.7623 90.9848 83.6344 90.9042 83.5391 90.7913C82.8262 89.9786 82.2203 89.1231 81.6072 88.2463L80.8301 86.8205C80.5492 86.3483 80.3107 85.8521 80.1172 85.3377C79.2772 83.2581 78.9073 81.0186 79.0337 78.7793C79.2005 76.5179 79.9362 74.3354 81.1724 72.4346C81.4647 71.9641 81.8068 71.5292 82.1419 71.0872C82.4945 70.6671 82.868 70.265 83.2611 69.8825C84.0437 69.1093 84.9288 68.4472 85.8917 67.9149C86.0221 67.8469 86.1723 67.8269 86.316 67.8584C86.4597 67.8899 86.5877 67.971 86.6777 68.0873C86.7677 68.2037 86.8141 68.348 86.8085 68.495C86.8029 68.642 86.7458 68.7824 86.6473 68.8916H86.6544Z" fill="black"/>
          <g opacity="0.5">
          <path opacity="0.5" d="M8.85753 102.133C9.01437 102.319 9.22819 102.589 9.44206 102.846C9.65592 103.103 9.85554 103.331 10.0765 103.559C10.4971 104.037 10.9605 104.493 11.4025 104.985C12.3221 105.876 13.256 106.738 14.254 107.544C15.2333 108.35 16.2542 109.104 17.3123 109.804C17.847 110.139 18.3602 110.517 18.902 110.845L20.5559 111.779C21.1049 112.099 21.6894 112.349 22.2526 112.641L23.108 113.062L23.992 113.425L25.7599 114.174C26.373 114.366 26.979 114.58 27.5849 114.794L28.4974 115.122L29.4384 115.379L31.3204 115.92C32.5822 116.27 33.8797 116.498 35.1771 116.89L35.3482 116.94C35.6991 117.048 36.0006 117.277 36.1996 117.585C36.3987 117.894 36.4826 118.263 36.4366 118.627C36.3906 118.991 36.2178 119.328 35.9483 119.577C35.6789 119.827 35.33 119.973 34.9632 119.991C33.5384 120.065 32.1108 120.065 30.686 119.991L28.5473 119.741C28.1909 119.699 27.8344 119.656 27.4709 119.592L26.4015 119.349C25.6887 119.192 24.9758 119.029 24.2629 118.843L22.1742 118.13C21.832 118.016 21.4613 117.888 21.1405 117.752L20.1353 117.289C19.4723 116.968 18.788 116.69 18.1464 116.334C15.5417 114.92 13.1628 113.125 11.0889 111.009C10.0445 109.957 9.09063 108.82 8.23733 107.608C7.84525 106.981 7.42465 106.382 7.08247 105.712C6.70503 105.041 6.37856 104.343 6.10582 103.623C5.97365 103.284 5.96502 102.908 6.08146 102.563C6.1979 102.218 6.43199 101.924 6.74282 101.734C7.05365 101.544 7.42146 101.469 7.78195 101.522C8.14243 101.576 8.47271 101.754 8.71499 102.026L8.85753 102.133Z" fill="#FEF3E6"/>
          <path opacity="0.5" d="M15.1594 95.6674C16.6636 96.9577 18.3318 98.2908 19.9999 99.467C21.6687 100.656 23.4116 101.737 25.2182 102.704C27.0083 103.685 28.8638 104.543 30.7716 105.27C32.6749 106.054 34.6639 106.596 36.6885 107.259H36.774C37.0753 107.36 37.3313 107.564 37.4973 107.835C37.6633 108.106 37.7286 108.427 37.6819 108.742C37.6351 109.056 37.4794 109.344 37.2417 109.555C37.004 109.766 36.6997 109.887 36.3819 109.896C34.0773 109.963 31.7751 109.699 29.5454 109.112C28.4217 108.831 27.3168 108.478 26.2376 108.057C25.6958 107.865 25.1826 107.594 24.6551 107.344C24.1275 107.095 23.6 106.86 23.0938 106.574C22.0744 106.026 21.1049 105.398 20.1425 104.757C19.2075 104.091 18.3081 103.377 17.4478 102.618C15.6937 101.074 14.1947 99.2623 13.0065 97.25C12.8506 96.9744 12.7967 96.6528 12.8542 96.3415C12.9118 96.0302 13.0772 95.7491 13.3213 95.5475C13.5654 95.3459 13.8727 95.2367 14.1892 95.2391C14.5058 95.2415 14.8115 95.3552 15.0526 95.5605L15.1594 95.6674Z" fill="#FEF3E6"/>
          </g>
          <g opacity="0.5">
          <path opacity="0.5" d="M95.9218 33.6895C95.8149 33.4685 95.7008 33.1334 95.5725 32.8483C95.4442 32.5631 95.3301 32.2566 95.1875 31.9572C94.9309 31.3584 94.6387 30.7738 94.3535 30.1893C93.7547 29.0273 93.1273 27.8938 92.4215 26.8031C91.7349 25.706 90.9926 24.6447 90.1974 23.6236C89.7839 23.1317 89.4132 22.5971 88.9926 22.1123L87.6951 20.6865C87.2745 20.1946 86.7827 19.7669 86.3336 19.3035L85.6207 18.5907L84.9078 17.9562L83.4393 16.6659C82.9117 16.281 82.3914 15.8817 81.8781 15.4754L81.101 14.8623L80.2741 14.3134L78.6344 13.1799C77.5223 12.467 76.3389 11.7969 75.2126 11.0413L75.0629 10.9343C74.734 10.7269 74.4925 10.4061 74.3842 10.0326C74.2759 9.65913 74.3082 9.25889 74.4751 8.90763C74.6419 8.55638 74.9317 8.27848 75.2896 8.12648C75.6475 7.97449 76.0488 7.95893 76.4174 8.0828C77.8311 8.4859 79.2231 8.96179 80.5877 9.50856L82.591 10.4496C82.926 10.6064 83.261 10.7632 83.5889 10.9415L84.5371 11.5189C85.1787 11.9038 85.8131 12.296 86.4333 12.7023L88.2227 14.0567C88.5221 14.2849 88.8144 14.513 89.0996 14.7696L89.9193 15.5396C90.4611 16.0671 91.0314 16.5519 91.5376 17.1079C93.5991 19.3109 95.3196 21.8098 96.6418 24.5218C97.3029 25.8732 97.849 27.2778 98.2744 28.7207C98.4526 29.4336 98.6664 30.1465 98.7805 30.9235C98.8518 31.2942 98.9159 31.6364 98.9587 32.057C99.0015 32.4776 99.03 32.7699 99.0514 33.2618C99.0611 33.6253 98.9453 33.9811 98.7235 34.2693C98.5017 34.5574 98.1873 34.7605 97.8334 34.8441C97.4795 34.9278 97.1076 34.887 96.7802 34.7286C96.4528 34.5703 96.19 34.304 96.0359 33.9746L95.9218 33.6895Z" fill="#FEF3E6"/>
          <path opacity="0.5" d="M87.7164 37.9098C87.2031 37.0828 86.64 36.1347 86.0625 35.2721C85.4851 34.4095 84.8791 33.5255 84.2589 32.6843C83.0321 30.9969 81.6987 29.3897 80.2668 27.8724C78.8493 26.3453 77.3298 24.9163 75.7186 23.5951C74.136 22.2264 72.3895 21.0644 70.6501 19.7669L70.5716 19.7099C70.3107 19.5159 70.127 19.2358 70.053 18.9192C69.979 18.6026 70.0194 18.2701 70.1672 17.9805C70.315 17.6909 70.5605 17.463 70.8603 17.3372C71.1601 17.2114 71.4947 17.1959 71.8049 17.2933C74.0511 17.9691 76.1879 18.9655 78.1495 20.2517C79.1438 20.8834 80.0963 21.5788 81.001 22.3333C81.4715 22.6969 81.8708 23.1246 82.3128 23.5238C82.7548 23.923 83.1683 24.3294 83.5675 24.7642C84.373 25.6268 85.1144 26.5464 85.8344 27.4732C86.5233 28.4257 87.1588 29.4157 87.7378 30.4387C88.9416 32.4925 89.808 34.7261 90.3042 37.0543C90.3701 37.3703 90.3224 37.6995 90.1692 37.9836C90.016 38.2678 89.7673 38.4886 89.467 38.6072C89.1668 38.7257 88.8343 38.7344 88.5283 38.6315C88.2223 38.5287 87.9625 38.321 87.7948 38.0452L87.7164 37.9098Z" fill="#FEF3E6"/>
          </g>
        </symbol>
        <symbol id="frame-2">
          <path d="M105.197 41.0853C98.6639 40.7265 90.7973 46.6458 87.4534 59.4646C84.8891 58.2247 82.1025 57.5109 79.2579 57.3654C76.4134 57.2199 73.5686 57.6456 70.8912 58.6174C68.9433 53.4895 62.3933 38.0114 52.9842 34.3274C39.6282 29.0963 36.3752 43.428 44.8988 47.1451C51.569 50.0521 57.2416 54.6223 61.954 64.1183C60.5307 65.4851 59.268 67.01 58.1904 68.6632C57.9615 69.0196 57.7381 69.3799 57.5202 69.744C54.1943 67.0455 44.3362 58.2248 31.2933 59.0037C19.8741 59.6638 21.2062 75.5043 34.774 74.3094C44.9396 73.417 51.0767 77.2054 54.1485 79.9798C53.8494 82.7692 54.0537 85.5896 54.7519 88.3067C46.0335 86.9092 37.5091 88.0131 32.5036 92.193C28.0446 95.9167 28.9924 105.833 40.8354 101.071C52.6783 96.3091 59.4114 98.4577 62.8371 100.166C63.0351 100.296 63.2274 100.435 63.4268 100.572C70.1452 104.956 78.5978 104.837 85.6269 101.015C89.1055 106.933 95.3845 105.055 100.929 97.0062C107.037 88.1206 105.046 80.0502 98.9213 79.3912C98.9667 77.61 98.8127 75.8294 98.4623 74.0824V74.0824C96.9846 67.3017 97.6275 59.7957 106.934 54.4876C116.24 49.1795 112.527 41.4851 105.197 41.0853Z" fill="#FEF3E6"/>
          <path d="M54.3359 77.8191C54.3588 78.317 54.3481 78.8375 54.3559 79.3443L54.3638 80.8494C54.3688 81.8433 54.4002 82.8221 54.4582 83.7857C54.5073 84.7544 54.6178 85.7037 54.7419 86.6585C54.7857 86.8954 54.8112 87.1356 54.8415 87.3791C54.8719 87.6225 54.9294 87.8548 54.9739 88.0956L55.0276 88.4654C55.0498 88.5858 55.0822 88.7043 55.1048 88.8267C55.1501 89.0715 55.1964 89.3222 55.228 89.5837L55.2425 89.6627C55.2644 89.8454 55.2111 90.0297 55.0943 90.1753C54.9775 90.3209 54.8068 90.4158 54.6195 90.4392C54.5032 90.4528 54.3855 90.4387 54.2766 90.398C54.1677 90.3573 54.0707 90.2913 53.9941 90.2057C53.8078 89.9911 53.6286 89.769 53.4519 89.5384C53.3658 89.4236 53.2854 89.3058 53.2009 89.1887L52.9903 88.8194C52.8563 88.5706 52.7196 88.3182 52.5968 88.0613C52.4739 87.8043 52.3843 87.5351 52.2887 87.267C51.9181 86.1965 51.7113 85.0771 51.6749 83.9448C51.6311 82.8322 51.7283 81.7172 51.9642 80.6253C52.0336 80.3552 52.0923 80.0831 52.173 79.8171C52.2537 79.5511 52.3364 79.2848 52.4449 79.0218C52.5534 78.7588 52.6501 78.5001 52.7729 78.2467C52.895 77.9848 53.0341 77.7307 53.1894 77.4859C53.2551 77.3681 53.3588 77.2747 53.4842 77.2201C53.6096 77.1656 53.7497 77.1532 53.8823 77.1848C54.015 77.2163 54.1327 77.2901 54.2171 77.3945C54.3014 77.499 54.3476 77.6281 54.3483 77.7617L54.3359 77.8191Z" fill="black"/>
          <path d="M65.1807 61.2645C65.0944 61.3568 64.9817 61.4584 64.8657 61.5675C64.7496 61.6765 64.6425 61.7704 64.5332 61.8782L63.884 62.5079C63.4584 62.9368 63.0349 63.3519 62.6343 63.7897C61.8263 64.6531 61.0537 65.5302 60.3401 66.4592C60.1463 66.6814 59.9868 66.9242 59.811 67.1543L59.5411 67.4984C59.4497 67.6141 59.3744 67.7402 59.288 67.8573C59.1179 68.093 58.9512 68.3349 58.7712 68.5681C58.5912 68.8012 58.4508 69.0584 58.2796 69.3011C57.9265 69.7796 57.639 70.2953 57.2869 70.7915C56.9347 71.2877 56.6458 71.8082 56.2537 72.3298L56.2117 72.3824C56.1079 72.5164 55.962 72.6152 55.796 72.6639C55.63 72.7125 55.4529 72.7084 55.2913 72.6522C55.1297 72.596 54.9924 72.4906 54.8999 72.3521C54.8075 72.2135 54.7649 72.0491 54.7787 71.8837C54.8049 71.5555 54.8536 71.2344 54.9087 70.9098C54.9548 70.5848 55.0223 70.2625 55.1109 69.945C55.2835 69.3085 55.505 68.6844 55.7733 68.0778C55.9097 67.7741 56.0462 67.4705 56.1979 67.173C56.3496 66.8755 56.5321 66.5925 56.7013 66.3007C56.8701 66.013 57.0535 65.7333 57.251 65.4626L57.549 65.055C57.6462 64.9161 57.7508 64.7821 57.8623 64.6535C58.7201 63.6012 59.7229 62.6648 60.8425 61.8707C61.4028 61.4746 61.9951 61.1226 62.6136 60.8181C62.9261 60.6684 63.2462 60.5343 63.5727 60.4163C63.7355 60.3571 63.9006 60.2974 64.0696 60.2459L64.3286 60.1734L64.6051 60.1066C64.7466 60.0757 64.894 60.088 65.0264 60.1418C65.1589 60.1956 65.2698 60.2881 65.3434 60.4064C65.4171 60.5246 65.4499 60.6627 65.4373 60.8011C65.4246 60.9394 65.367 61.0712 65.2727 61.1779L65.1807 61.2645Z" fill="black"/>
          <path fill-rule="evenodd" clip-rule="evenodd" d="M88.7905 104.698C89.465 104.024 90.094 103.306 90.6729 102.548C91.4586 101.536 92.1289 100.439 92.6714 99.2788C93.2 98.1164 93.5901 96.8958 93.8336 95.6423C93.864 95.5081 93.845 95.3675 93.78 95.2463C93.7149 95.1251 93.6083 95.0315 93.4796 94.9827C93.4103 94.9566 93.3365 94.9445 93.2624 94.9474C93.1884 94.9502 93.1157 94.9678 93.0485 94.9991C92.9814 95.0304 92.9212 95.0748 92.8714 95.1297C92.8479 95.1558 92.8269 95.1839 92.8087 95.2137C92.0848 96.049 91.3123 96.8411 90.4954 97.5857C89.6653 98.3416 88.7877 99.0437 87.868 99.6878C86.9594 100.322 86.0093 100.895 85.0241 101.402C84.5408 101.651 84.0397 101.881 83.543 102.096C83.0724 102.296 82.5915 102.469 82.1021 102.616L82.0499 102.648L81.8396 102.687C81.6478 102.764 81.4734 102.878 81.3269 103.024C81.1804 103.17 81.0648 103.344 80.9869 103.535C80.9655 103.588 80.9471 103.642 80.9317 103.696C82.5865 103.222 84.206 102.559 85.7562 101.716C86.6147 103.177 87.6439 104.163 88.7905 104.698Z" fill="black"/>
          <path d="M101.116 77.7749C101.041 78.5653 100.912 79.3496 100.731 80.1225C100.559 80.8792 100.366 81.6398 100.118 82.3381C99.6462 83.7799 99.0426 85.1752 98.3148 86.5063C98.2918 86.5501 98.2603 86.5888 98.2221 86.6203C98.184 86.6517 98.14 86.6752 98.0926 86.6894C98.0452 86.7035 97.9955 86.708 97.9463 86.7027C97.8972 86.6974 97.8496 86.6822 97.8064 86.6582C97.7291 86.6147 97.6692 86.546 97.6368 86.4635C97.6044 86.381 97.6015 86.2898 97.6285 86.2054V86.2054C98.1035 84.8349 98.4519 83.4237 98.6691 81.9896C98.7709 81.2459 98.8493 80.5717 98.8919 79.8606C98.9355 79.1701 98.9359 78.4776 98.893 77.7871V77.7871C98.8684 77.4926 98.9618 77.2005 99.1526 76.9749C99.3434 76.7493 99.616 76.6087 99.9104 76.5841C100.205 76.5595 100.497 76.6529 100.723 76.8437C100.948 77.0345 101.089 77.3071 101.113 77.6015C101.118 77.6592 101.119 77.7171 101.116 77.7749Z" fill="black"/>
          <path d="M45.9081 33.3441C48.3123 33.0044 50.7636 33.3451 52.9841 34.3274C62.3652 38.0166 68.9432 53.4895 70.8912 58.6174C71.9977 58.2314 73.1318 57.9298 74.2839 57.715C78.7472 56.8521 83.3702 57.4662 87.4533 59.4646C90.3787 48.3035 96.7442 42.3427 102.661 41.2494C103.496 41.0922 104.348 41.0371 105.197 41.0853C112.52 41.4864 116.264 49.1897 106.957 54.5341C97.65 59.8785 97.0007 67.3495 98.4854 74.1289C98.8358 75.8759 98.9897 77.6565 98.9443 79.4377C105.097 80.0915 107.081 88.1632 100.952 97.0527C97.985 101.356 94.8086 103.9 91.9695 104.425C89.4949 104.882 87.273 103.843 85.65 101.062C83.4696 102.254 81.1142 103.093 78.6713 103.548C73.4096 104.575 67.9546 103.525 63.4498 100.619C63.2505 100.481 63.0582 100.343 62.8602 100.213C60.3048 98.9379 55.9199 97.4137 48.9238 98.7065C46.162 99.2404 43.4602 100.048 40.8584 101.117C39.7123 101.595 38.5208 101.956 37.3023 102.195C28.8901 103.749 28.5644 95.5525 32.5617 92.233C35.2096 90.1695 38.3412 88.8172 41.6589 88.3047C46.0139 87.5802 50.4598 87.5945 54.81 88.3467C54.1119 85.6296 53.9074 82.8092 54.2065 80.0198C51.1348 77.2454 45.0188 73.4531 34.8321 74.3495C21.8426 75.4955 20.0483 61.0381 29.9689 59.2122C30.4375 59.1256 30.9109 59.0672 31.3865 59.0373C44.4294 58.2583 54.2875 67.079 57.6134 69.7775C57.8257 69.4096 58.0491 69.0494 58.2836 68.6967C59.3611 67.0435 60.6238 65.5187 62.0472 64.1518C57.3347 54.6558 51.6686 50.1207 44.9919 47.1787C38.3152 44.2367 38.872 34.695 46.0013 33.3776L45.9081 33.3441ZM45.4832 30.5736C43.4121 30.9144 41.5096 31.9245 40.0671 33.4492C38.6245 34.974 37.7213 36.9294 37.4956 39.0162C37.2521 41.2555 37.7376 43.5137 38.88 45.455C40.0223 47.3963 41.7606 48.9172 43.8364 49.7918C50.3412 52.6278 54.8294 56.8296 58.5548 63.6517C58.0031 64.2756 57.4693 64.918 56.9631 65.5915C52.2014 61.8316 42.8887 55.491 31.2018 56.1933C30.6215 56.2291 30.0437 56.2996 29.4718 56.4043C26.7202 56.8302 24.2496 58.3295 22.6012 60.5736C21.1515 62.624 20.542 65.1518 20.898 67.6376C21.5931 72.7723 26.3409 77.9483 35.1009 77.1778C42.9977 76.4436 48.1502 78.8263 51.2719 81.2436C51.2122 82.5122 51.2412 83.7834 51.3587 85.048C47.9543 84.7517 44.5259 84.8979 41.1592 85.4827C37.3566 86.0737 33.7721 87.6402 30.7554 90.0295C27.5266 92.7212 26.3234 97.4309 28.0137 100.968C29.5867 104.302 33.256 105.799 37.8687 104.947C39.2799 104.672 40.6606 104.26 41.9906 103.714C44.4269 102.707 46.9582 101.948 49.5463 101.448C54.194 100.589 58.1063 100.968 61.5051 102.609L61.9938 102.939C67.1119 106.237 73.3061 107.43 79.2829 106.269C81.2073 105.911 83.0859 105.341 84.884 104.567C85.8376 105.63 87.0513 106.426 88.4058 106.877C89.7603 107.328 91.2089 107.42 92.6092 107.141C96.2965 106.46 100.034 103.5 103.431 98.6174C107.538 92.6387 108.736 86.3279 106.627 81.7443C105.7 79.6607 103.998 78.0199 101.882 77.1696C101.817 76.0442 101.678 74.9244 101.465 73.8175C101.452 73.7065 101.432 73.5964 101.404 73.488C99.7412 65.8209 101.944 60.7162 108.498 56.9533C113.746 53.9682 116.254 49.6481 115.25 45.3898C114.305 41.3742 110.351 38.4945 105.486 38.219C104.412 38.1609 103.335 38.231 102.277 38.4278C98.5407 39.1182 94.9673 41.2791 91.9432 44.6869C89.1304 47.887 86.9804 51.6132 85.6175 55.6499C81.786 54.4226 77.7072 54.1791 73.7569 54.9416C73.3643 55.0142 72.9648 55.088 72.5722 55.1605C69.543 47.8691 63.1454 35.2554 54.0158 31.672C51.2986 30.4934 48.3049 30.1021 45.376 30.5426L45.4832 30.5736Z" fill="black"/>
          <path d="M83.9348 66.1607C82.8886 67.7772 82.088 69.5401 81.5593 71.3916C81.4631 71.8516 81.3139 72.2996 81.247 72.7615C81.1801 73.2233 81.0896 73.675 81.066 74.136C81.0425 74.5971 81.0259 75.0569 81.0164 75.5154L81.1249 76.8872C81.1657 77.3436 81.292 77.7915 81.3762 78.2472C81.4046 78.4834 81.4478 78.7175 81.5057 78.9482L81.7404 79.6298C81.8613 80.0805 82.0131 80.5224 82.195 80.9522C82.404 81.3775 82.6004 81.8125 82.7897 82.2487C82.9852 82.6906 83.2165 83.1158 83.4814 83.52L84.2081 84.7849C84.7652 85.6027 85.3534 86.3929 85.8915 87.2649L85.907 87.3491C86.0031 87.5093 86.0324 87.7008 85.9887 87.8824C85.945 88.064 85.8317 88.2212 85.6733 88.3202C85.547 88.3969 85.4 88.4326 85.2527 88.4221C85.1053 88.4117 84.9648 88.3557 84.8506 88.262C84.0019 87.5923 83.2506 86.8612 82.4884 86.1104L81.4652 84.8495C81.1032 84.4361 80.7784 83.9915 80.4948 83.5209C79.2909 81.6286 78.5201 79.4935 78.2376 77.2685C77.9907 75.0145 78.3176 72.7347 79.1878 70.6409C79.3897 70.1251 79.6472 69.6353 79.8964 69.1398C80.1668 68.6626 80.461 68.1993 80.778 67.7517C81.4071 66.8492 82.1572 66.0373 83.0073 65.3389C83.1232 65.2483 83.2672 65.2014 83.4143 65.2063C83.5613 65.2112 83.7019 65.2676 83.8116 65.3657C83.9213 65.4637 83.9931 65.5972 84.0143 65.7428C84.0355 65.8883 84.0049 66.0367 83.9278 66.162L83.9348 66.1607Z" fill="black"/>
          <g opacity="0.5">
          <path opacity="0.5" d="M13.4734 112.985C13.6613 113.139 13.9207 113.366 14.1777 113.58C14.4346 113.793 14.6724 113.981 14.9311 114.165C15.4315 114.559 15.9701 114.923 16.4941 115.326C17.5603 116.036 18.6354 116.714 19.7631 117.325C20.8726 117.94 22.0135 118.496 23.1811 118.992C23.7678 119.224 24.3412 119.502 24.9335 119.726L26.7296 120.344C27.3277 120.56 27.9478 120.699 28.5547 120.884L29.4724 121.142L30.4077 121.339L32.2822 121.754C32.92 121.832 33.5548 121.932 34.1895 122.032L35.1464 122.189L36.1183 122.27L38.0675 122.461C39.3717 122.575 40.6891 122.564 42.0362 122.714L42.2135 122.732C42.5782 122.774 42.9162 122.944 43.168 123.211C43.4198 123.479 43.5693 123.826 43.5903 124.193C43.6113 124.559 43.5024 124.922 43.2828 125.216C43.0631 125.51 42.7467 125.718 42.3893 125.802C41.0016 126.133 39.5977 126.393 38.1832 126.579L36.0348 126.722C35.6765 126.745 35.3182 126.768 34.9491 126.771L33.8535 126.727C33.124 126.702 32.3932 126.67 31.6585 126.617L29.475 126.296C29.1178 126.246 28.7299 126.187 28.3899 126.112L27.3172 125.839C26.607 125.644 25.8836 125.495 25.1879 125.261C22.3697 124.345 19.7043 123.012 17.2802 121.307C16.0622 120.463 14.9175 119.518 13.8583 118.481C13.3587 117.936 12.8363 117.423 12.3781 116.826C11.885 116.235 11.4372 115.608 11.0382 114.95C10.8465 114.64 10.7698 114.273 10.8216 113.912C10.8733 113.551 11.0502 113.22 11.3213 112.976C11.5924 112.733 11.9405 112.592 12.3047 112.579C12.6688 112.567 13.026 112.682 13.3138 112.906L13.4734 112.985Z" fill="#FEF3E6"/>
          <path opacity="0.5" d="M18.4954 105.482C20.209 106.477 22.0916 107.485 23.9457 108.338C25.8027 109.204 27.713 109.951 29.6652 110.573C31.6039 111.213 33.5843 111.719 35.5924 112.088C37.6066 112.513 39.6609 112.684 41.7723 112.968L41.8564 112.953C42.1711 112.998 42.4599 113.152 42.6723 113.388C42.8848 113.625 43.0074 113.928 43.0185 114.246C43.0297 114.564 42.9289 114.875 42.7335 115.126C42.5382 115.377 42.2608 115.551 41.9501 115.618C39.6959 116.102 37.384 116.26 35.0849 116.089C33.9287 116.016 32.7782 115.87 31.6404 115.652C31.0727 115.561 30.5188 115.388 29.9547 115.239C29.3906 115.089 28.8291 114.954 28.2795 114.765C27.1773 114.411 26.11 113.97 25.047 113.514C24.0067 113.03 22.9926 112.491 22.0086 111.901C20.0031 110.701 18.1999 109.192 16.6659 107.429C16.4625 107.186 16.351 106.88 16.3511 106.563C16.3511 106.247 16.4626 105.94 16.6661 105.698C16.8695 105.455 17.1518 105.292 17.4635 105.237C17.7753 105.182 18.0965 105.238 18.3709 105.396L18.4954 105.482Z" fill="#FEF3E6"/>
          </g>
          <g opacity="0.5">
          <path opacity="0.5" d="M86.652 29.8608C86.5067 29.6629 86.3336 29.3541 86.1556 29.097C85.9776 28.8399 85.8097 28.5592 85.6151 28.2907C85.2539 27.7485 84.8604 27.2267 84.4738 26.7037C83.6738 25.6699 82.8509 24.6693 81.9587 23.725C81.0842 22.7709 80.1613 21.8622 79.1938 21.0026C78.6978 20.594 78.2362 20.1356 77.7345 19.7353L76.1996 18.569C75.6966 18.1618 75.1352 17.8305 74.6094 17.4565L73.7788 16.885L72.9625 16.3906L71.284 15.3886C70.6953 15.106 70.111 14.8079 69.5325 14.5016L68.6569 14.0399L67.744 13.6504L65.9257 12.8337C64.7026 12.3348 63.4171 11.8909 62.1722 11.3524L62.0056 11.2745C61.6445 11.1302 61.3488 10.8586 61.1744 10.5111C61 10.1635 60.9591 9.76405 61.0593 9.38833C61.1595 9.0126 61.394 8.68668 61.7183 8.47218C62.0427 8.25767 62.4344 8.16947 62.8194 8.2243C64.2829 8.36381 65.7381 8.57885 67.1794 8.86857L69.3203 9.42992C69.6782 9.52326 70.0362 9.61662 70.391 9.73229L71.4283 10.1278C72.1292 10.3898 72.8243 10.6601 73.508 10.947L75.5136 11.9538C75.8495 12.1237 76.1785 12.2949 76.5055 12.4954L77.4515 13.1036C78.0801 13.5239 78.729 13.897 79.3278 14.3518C81.7553 16.1435 83.9012 18.2882 85.6942 20.7149C86.5898 21.9236 87.382 23.2056 88.0625 24.5472C88.3673 25.2158 88.7071 25.878 88.9604 26.6214C89.0979 26.973 89.2232 27.2978 89.3417 27.7036C89.4601 28.1094 89.5413 28.3917 89.6517 28.8715C89.7273 29.2272 89.6781 29.5981 89.5123 29.9218C89.3466 30.2455 89.0743 30.5022 88.7415 30.6488C88.4087 30.7954 88.0356 30.8229 87.6849 30.7266C87.3342 30.6304 87.0274 30.4163 86.816 30.1204L86.652 29.8608Z" fill="#FEF3E6"/>
          <path opacity="0.5" d="M79.3502 35.5016C78.6952 34.7817 77.9692 33.9517 77.2446 33.2084C76.5201 32.4651 75.7636 31.7059 75.0008 30.9914C73.4878 29.555 71.8846 28.2168 70.2008 26.985C68.5295 25.7409 66.7755 24.6117 64.9512 23.6053C63.1462 22.5469 61.2176 21.7216 59.2714 20.7618L59.1838 20.72C58.892 20.5766 58.6605 20.3345 58.5302 20.0367C58.3999 19.7388 58.3792 19.4045 58.4719 19.0929C58.5646 18.7813 58.7647 18.5125 59.0366 18.3343C59.3086 18.1561 59.6348 18.08 59.9575 18.1195C62.2891 18.3759 64.5714 18.9674 66.7341 19.8758C67.8266 20.3164 68.8896 20.8271 69.9163 21.4046C70.4451 21.6767 70.9154 22.0248 71.4226 22.337C71.9298 22.6493 72.4102 22.9737 72.8818 23.3288C73.8307 24.0307 74.7268 24.8003 75.6032 25.5807C76.4537 26.3922 77.2585 27.2503 78.0138 28.1511C79.5706 29.9519 80.8285 31.9909 81.7395 34.1902C81.8618 34.489 81.8746 34.8213 81.7756 35.1286C81.6766 35.4358 81.4721 35.6982 81.1984 35.8693C80.9247 36.0405 80.5993 36.1094 80.2798 36.0639C79.9602 36.0183 79.667 35.8613 79.4519 35.6206L79.3502 35.5016Z" fill="#FEF3E6"/>
          </g>
        </symbol>
    </defs>
    <style type="text/css">
      @keyframes frameTransform {
        100% {
            transform: translateX(-256px);
        }
      }
      .frames:target{
          animation: frameTransform 500ms steps(2) infinite;
      }
    </style>
    <g class="frames" id="play">
      <use href="#frame-1" />
      <use href="#frame-2" x="128px" />
    </g>
</svg>
