<svg width="272" height="272" viewBox="0 0 272 272" fill="none" xmlns="http://www.w3.org/2000/svg">
<g clip-path="url(#clip0_687_2211)">
<path opacity="0.5" d="M1.5 18.1404C10.4938 17.4295 17.7027 10.3818 18.4382 1.50002L253.562 1.5C254.297 10.3818 261.506 17.4295 270.5 18.1404V253.86C261.506 254.571 254.297 261.618 253.562 270.5H18.4382C17.7027 261.618 10.4939 254.571 1.5 253.86V18.1404Z" fill="black" stroke="black" stroke-width="3"/>
<mask id="path-2-inside-1_687_2211" fill="white">
<path fill-rule="evenodd" clip-rule="evenodd" d="M255 0L17 1.90735e-05C17 9.22286 9.38883 16.6995 0 16.6995V255.301C9.38884 255.301 17 262.777 17 272H255C255 262.777 262.611 255.301 272 255.301V16.6995C262.611 16.6995 255 9.22285 255 0ZM21.9963 6H250.004C252.102 13.8607 258.223 20.0553 266 22.1938V249.79C258.12 251.914 251.914 258.12 249.79 266H21.9963C19.8982 258.139 13.7771 251.945 6 249.806V22.1938C13.7771 20.0553 19.8982 13.8607 21.9963 6ZM248.88 7.5C251.259 14.9725 257.096 20.884 264.5 23.3083V248.67C257 251.079 251.079 257 248.67 264.5H23.12C20.7412 257.027 14.9043 251.116 7.5 248.692V23.3083C14.9043 20.884 20.7412 14.9725 23.12 7.5H248.88Z"/>
</mask>
<path fill-rule="evenodd" clip-rule="evenodd" d="M255 0L17 1.90735e-05C17 9.22286 9.38883 16.6995 0 16.6995V255.301C9.38884 255.301 17 262.777 17 272H255C255 262.777 262.611 255.301 272 255.301V16.6995C262.611 16.6995 255 9.22285 255 0ZM21.9963 6H250.004C252.102 13.8607 258.223 20.0553 266 22.1938V249.79C258.12 251.914 251.914 258.12 249.79 266H21.9963C19.8982 258.139 13.7771 251.945 6 249.806V22.1938C13.7771 20.0553 19.8982 13.8607 21.9963 6ZM248.88 7.5C251.259 14.9725 257.096 20.884 264.5 23.3083V248.67C257 251.079 251.079 257 248.67 264.5H23.12C20.7412 257.027 14.9043 251.116 7.5 248.692V23.3083C14.9043 20.884 20.7412 14.9725 23.12 7.5H248.88Z" fill="black"/>
<path d="M17 1.90735e-05L17 -2.99998L14 -2.99998L14 1.5351e-05L17 1.90735e-05ZM255 0H258V-3L255 -3L255 0ZM0 16.6995V13.6995H-3V16.6995H0ZM0 255.301H-3V258.301H0V255.301ZM17 272H14V275H17V272ZM255 272V275H258V272H255ZM272 255.301V258.301H275V255.301H272ZM272 16.6995H275V13.6995H272V16.6995ZM250.004 6L252.902 5.22636L252.308 3H250.004V6ZM21.9963 6V3H19.692L19.0978 5.22636L21.9963 6ZM266 22.1938H269V19.9073L266.795 19.3011L266 22.1938ZM266 249.79L266.781 252.687L269 252.089V249.79H266ZM249.79 266V269H252.089L252.687 266.781L249.79 266ZM21.9963 266L19.0978 266.774L19.692 269H21.9963V266ZM6 249.806H3V252.093L5.20462 252.699L6 249.806ZM6 22.1938L5.20462 19.3011L3 19.9073V22.1938H6ZM264.5 23.3083H267.5V21.1338L265.433 20.4572L264.5 23.3083ZM248.88 7.5L251.739 6.58999L251.073 4.5H248.88V7.5ZM264.5 248.67L265.417 251.526L267.5 250.857V248.67H264.5ZM248.67 264.5V267.5H250.857L251.526 265.417L248.67 264.5ZM23.12 264.5L20.2614 265.41L20.9267 267.5H23.12V264.5ZM7.5 248.692H4.5V250.866L6.56651 251.543L7.5 248.692ZM7.5 23.3083L6.56651 20.4572L4.5 21.1338V23.3083H7.5ZM23.12 7.5V4.5H20.9267L20.2614 6.58999L23.12 7.5ZM17 3.00002L255 3L255 -3L17 -2.99998L17 3.00002ZM0 19.6995C10.995 19.6995 20 10.9299 20 2.2796e-05L14 1.5351e-05C14 7.51578 7.78265 13.6995 0 13.6995V19.6995ZM3 255.301V16.6995H-3V255.301H3ZM20 272C20 261.07 10.995 252.301 0 252.301V258.301C7.78266 258.301 14 264.484 14 272H20ZM255 269H17V275H255V269ZM272 252.301C261.005 252.301 252 261.07 252 272H258C258 264.484 264.217 258.301 272 258.301V252.301ZM269 16.6995V255.301H275V16.6995H269ZM252 0C252 10.9299 261.005 19.6995 272 19.6995V13.6995C264.217 13.6995 258 7.51578 258 0H252ZM250.004 3H21.9963V9H250.004V3ZM266.795 19.3011C260.056 17.4481 254.728 12.0677 252.902 5.22636L247.105 6.77364C249.475 15.6537 256.389 22.6625 265.205 25.0864L266.795 19.3011ZM269 249.79V22.1938H263V249.79H269ZM252.687 266.781C254.533 259.932 259.932 254.533 266.781 252.687L265.219 246.894C256.307 249.296 249.296 256.307 246.894 265.219L252.687 266.781ZM21.9963 269H249.79V263H21.9963V269ZM5.20462 252.699C11.9437 254.552 17.2718 259.932 19.0978 266.774L24.8948 265.226C22.5247 256.346 15.6105 249.337 6.79538 246.914L5.20462 252.699ZM3 22.1938V249.806H9V22.1938H3ZM19.0978 5.22636C17.2718 12.0677 11.9437 17.4481 5.20462 19.3011L6.79538 25.0864C15.6105 22.6625 22.5247 15.6537 24.8948 6.77364L19.0978 5.22636ZM265.433 20.4572C258.954 18.3357 253.828 13.1522 251.739 6.58999L246.021 8.41001C248.69 16.7929 255.237 23.4323 263.567 26.1594L265.433 20.4572ZM267.5 248.67V23.3083H261.5V248.67H267.5ZM251.526 265.417C253.639 258.839 258.839 253.639 265.417 251.526L263.583 245.813C255.162 248.518 248.518 255.162 245.813 263.583L251.526 265.417ZM23.12 267.5H248.67V261.5H23.12V267.5ZM6.56651 251.543C13.046 253.664 18.1724 258.848 20.2614 265.41L25.9787 263.59C23.3101 255.207 16.7626 248.568 8.43349 245.841L6.56651 251.543ZM4.5 23.3083V248.692H10.5V23.3083H4.5ZM20.2614 6.58999C18.1724 13.1522 13.046 18.3357 6.56651 20.4572L8.43349 26.1594C16.7626 23.4323 23.3101 16.7929 25.9787 8.41001L20.2614 6.58999ZM248.88 4.5H23.12V10.5H248.88V4.5Z" fill="black" mask="url(#path-2-inside-1_687_2211)"/>
</g>
<defs>
<clipPath id="clip0_687_2211">
<rect width="272" height="272" fill="white"/>
</clipPath>
</defs>
</svg>
