<svg width="200" height="200" viewBox="0 0 200 200" fill="none" xmlns="http://www.w3.org/2000/svg">
<g clip-path="url(#clip0_630_1865)">
<mask id="path-1-inside-1_630_1865" fill="white">
<path fill-rule="evenodd" clip-rule="evenodd" d="M17 1.90735e-05L183 0C183 9.22285 190.611 16.6995 200 16.6995V447.301C190.611 447.301 183 454.777 183 464H17C17 454.777 9.38884 447.301 0 447.301V16.6995C9.38883 16.6995 17 9.22286 17 1.90735e-05Z"/>
</mask>
<path fill-rule="evenodd" clip-rule="evenodd" d="M17 1.90735e-05L183 0C183 9.22285 190.611 16.6995 200 16.6995V447.301C190.611 447.301 183 454.777 183 464H17C17 454.777 9.38884 447.301 0 447.301V16.6995C9.38883 16.6995 17 9.22286 17 1.90735e-05Z" fill="#2A2A2A"/>
<path d="M183 0H189V-6L183 -6L183 0ZM17 1.90735e-05L17 -5.99998L11 -5.99998L11 1.16284e-05L17 1.90735e-05ZM200 16.6995H206V10.6995H200V16.6995ZM200 447.301V453.301H206V447.301H200ZM183 464V470H189V464H183ZM17 464H11V470H17V464ZM0 447.301H-6V453.301H0V447.301ZM0 16.6995V10.6995H-6V16.6995H0ZM183 -6L17 -5.99998L17 6.00002L183 6L183 -6ZM200 10.6995C193.824 10.6995 189 5.8087 189 0H177C177 12.637 187.399 22.6995 200 22.6995V10.6995ZM206 447.301V16.6995H194V447.301H206ZM189 464C189 458.191 193.824 453.301 200 453.301V441.301C187.399 441.301 177 451.363 177 464H189ZM17 470H183V458H17V470ZM0 453.301C6.17648 453.301 11 458.191 11 464H23C23 451.363 12.6012 441.301 0 441.301V453.301ZM-6 16.6995V447.301H6V16.6995H-6ZM11 1.16284e-05C11 5.80871 6.17647 10.6995 0 10.6995V22.6995C12.6012 22.6995 23 12.637 23 2.65185e-05L11 1.16284e-05Z" fill="#E7E7E7" mask="url(#path-1-inside-1_630_1865)"/>
<mask id="path-3-inside-2_630_1865" fill="white">
<path fill-rule="evenodd" clip-rule="evenodd" d="M173.823 12C176.158 18.6703 181.394 23.9569 188 26.3145V437.686C181.394 440.043 176.158 445.33 173.823 452H26.177C23.842 445.33 18.6062 440.043 12 437.686V26.3145C18.6062 23.9569 23.8421 18.6703 26.177 12H173.823Z"/>
</mask>
<path d="M188 26.3145H190V24.9047L188.672 24.4308L188 26.3145ZM173.823 12L175.711 11.3392L175.242 10H173.823V12ZM188 437.686L188.672 439.569L190 439.095V437.686H188ZM173.823 452V454H175.242L175.711 452.661L173.823 452ZM26.177 452L24.2893 452.661L24.7581 454H26.177V452ZM12 437.686H10V439.095L11.3278 439.569L12 437.686ZM12 26.3145L11.3278 24.4308L10 24.9047V26.3145H12ZM26.177 12V10H24.7581L24.2893 11.3392L26.177 12ZM188.672 24.4308C182.64 22.2781 177.848 17.4442 175.711 11.3392L171.935 12.6608C174.468 19.8963 180.148 25.6357 187.328 28.1981L188.672 24.4308ZM190 437.686V26.3145H186V437.686H190ZM175.711 452.661C177.848 446.556 182.64 441.722 188.672 439.569L187.328 435.802C180.148 438.364 174.468 444.104 171.935 451.339L175.711 452.661ZM26.177 454H173.823V450H26.177V454ZM11.3278 439.569C17.3599 441.722 22.1522 446.556 24.2893 452.661L28.0647 451.339C25.5318 444.104 19.8525 438.364 12.6722 435.802L11.3278 439.569ZM10 26.3145V437.686H14V26.3145H10ZM24.2893 11.3392C22.1523 17.4442 17.3599 22.2781 11.3278 24.4308L12.6722 28.1981C19.8525 25.6357 25.5319 19.8963 28.0647 12.6608L24.2893 11.3392ZM173.823 10H26.177V14H173.823V10Z" fill="#E7E7E7" mask="url(#path-3-inside-2_630_1865)"/>
</g>
<g clip-path="url(#clip1_630_1865)">
<mask id="path-5-inside-3_630_1865" fill="white">
<path fill-rule="evenodd" clip-rule="evenodd" d="M17 1.90735e-05L276 0C276 9.22285 283.611 16.6995 293 16.6995V519.301C283.611 519.301 276 526.777 276 536H17C17 526.777 9.38884 519.301 0 519.301V16.6995C9.38883 16.6995 17 9.22286 17 1.90735e-05Z"/>
</mask>
<path fill-rule="evenodd" clip-rule="evenodd" d="M17 1.90735e-05L276 0C276 9.22285 283.611 16.6995 293 16.6995V519.301C283.611 519.301 276 526.777 276 536H17C17 526.777 9.38884 519.301 0 519.301V16.6995C9.38883 16.6995 17 9.22286 17 1.90735e-05Z" fill="#2A2A2A"/>
<path d="M276 0H282V-6L276 -6L276 0ZM17 1.90735e-05L17 -5.99998L11 -5.99998L11 1.16284e-05L17 1.90735e-05ZM293 16.6995H299V10.6995H293V16.6995ZM293 519.301V525.301H299V519.301H293ZM276 536V542H282V536H276ZM17 536H11V542H17V536ZM0 519.301H-6V525.301H0V519.301ZM0 16.6995V10.6995H-6V16.6995H0ZM276 -6L17 -5.99998L17 6.00002L276 6L276 -6ZM293 10.6995C286.824 10.6995 282 5.8087 282 0H270C270 12.637 280.399 22.6995 293 22.6995V10.6995ZM299 519.301V16.6995H287V519.301H299ZM282 536C282 530.191 286.824 525.301 293 525.301V513.301C280.399 513.301 270 523.363 270 536H282ZM17 542H276V530H17V542ZM0 525.301C6.17647 525.301 11 530.191 11 536H23C23 523.363 12.6012 513.301 0 513.301V525.301ZM-6 16.6995V519.301H6V16.6995H-6ZM11 1.16284e-05C11 5.80871 6.17647 10.6995 0 10.6995V22.6995C12.6012 22.6995 23 12.637 23 2.65185e-05L11 1.16284e-05Z" fill="#E7E7E7" mask="url(#path-5-inside-3_630_1865)"/>
<mask id="path-7-inside-4_630_1865" fill="white">
<path fill-rule="evenodd" clip-rule="evenodd" d="M266.823 12C269.158 18.6703 274.394 23.9569 281 26.3145V509.686C274.394 512.043 269.158 517.33 266.823 524H26.177C23.842 517.33 18.6062 512.043 12 509.686V26.3145C18.6062 23.9569 23.8421 18.6703 26.177 12H266.823Z"/>
</mask>
<path d="M281 26.3145H283V24.9047L281.672 24.4308L281 26.3145ZM266.823 12L268.711 11.3392L268.242 10H266.823V12ZM281 509.686L281.672 511.569L283 511.095V509.686H281ZM266.823 524V526H268.242L268.711 524.661L266.823 524ZM26.177 524L24.2893 524.661L24.7581 526H26.177V524ZM12 509.686H10V511.095L11.3278 511.569L12 509.686ZM12 26.3145L11.3278 24.4308L10 24.9047V26.3145H12ZM26.177 12V10H24.7581L24.2893 11.3392L26.177 12ZM281.672 24.4308C275.64 22.2781 270.848 17.4442 268.711 11.3392L264.935 12.6608C267.468 19.8963 273.148 25.6357 280.328 28.1981L281.672 24.4308ZM283 509.686V26.3145H279V509.686H283ZM268.711 524.661C270.848 518.556 275.64 513.722 281.672 511.569L280.328 507.802C273.148 510.364 267.468 516.104 264.935 523.339L268.711 524.661ZM26.177 526H266.823V522H26.177V526ZM11.3278 511.569C17.3599 513.722 22.1522 518.556 24.2893 524.661L28.0647 523.339C25.5318 516.104 19.8525 510.364 12.6722 507.802L11.3278 511.569ZM10 26.3145V509.686H14V26.3145H10ZM24.2893 11.3392C22.1523 17.4442 17.3599 22.2781 11.3278 24.4308L12.6722 28.1981C19.8525 25.6357 25.5319 19.8963 28.0647 12.6608L24.2893 11.3392ZM266.823 10H26.177V14H266.823V10Z" fill="#E7E7E7" mask="url(#path-7-inside-4_630_1865)"/>
</g>
<rect width="136" height="136" transform="translate(32 32)" fill="#2A2A2A"/>
<g clip-path="url(#clip2_630_1865)">
<mask id="path-9-inside-5_630_1865" fill="white">
<path fill-rule="evenodd" clip-rule="evenodd" d="M-76 1.90735e-05L183 0C183 9.22285 190.611 16.6995 200 16.6995V519.301C190.611 519.301 183 526.777 183 536H-76C-76 526.777 -83.6112 519.301 -93 519.301V16.6995C-83.6112 16.6995 -76 9.22286 -76 1.90735e-05Z"/>
</mask>
<path fill-rule="evenodd" clip-rule="evenodd" d="M-76 1.90735e-05L183 0C183 9.22285 190.611 16.6995 200 16.6995V519.301C190.611 519.301 183 526.777 183 536H-76C-76 526.777 -83.6112 519.301 -93 519.301V16.6995C-83.6112 16.6995 -76 9.22286 -76 1.90735e-05Z" fill="#2A2A2A"/>
<path d="M183 0H189V-6L183 -6L183 0ZM-76 1.90735e-05L-76 -5.99998L-82 -5.99998L-82 1.16284e-05L-76 1.90735e-05ZM200 16.6995H206V10.6995H200V16.6995ZM200 519.301V525.301H206V519.301H200ZM183 536V542H189V536H183ZM-76 536H-82V542H-76V536ZM-93 519.301H-99V525.301H-93V519.301ZM-93 16.6995V10.6995H-99V16.6995H-93ZM183 -6L-76 -5.99998L-76 6.00002L183 6L183 -6ZM200 10.6995C193.824 10.6995 189 5.8087 189 0H177C177 12.637 187.399 22.6995 200 22.6995V10.6995ZM206 519.301V16.6995H194V519.301H206ZM189 536C189 530.191 193.824 525.301 200 525.301V513.301C187.399 513.301 177 523.363 177 536H189ZM-76 542H183V530H-76V542ZM-93 525.301C-86.8235 525.301 -82 530.191 -82 536H-70C-70 523.363 -80.3988 513.301 -93 513.301V525.301ZM-99 16.6995V519.301H-87V16.6995H-99ZM-82 1.16284e-05C-82 5.80871 -86.8235 10.6995 -93 10.6995V22.6995C-80.3988 22.6995 -70 12.637 -70 2.65185e-05L-82 1.16284e-05Z" fill="#E7E7E7" mask="url(#path-9-inside-5_630_1865)"/>
<mask id="path-11-inside-6_630_1865" fill="white">
<path fill-rule="evenodd" clip-rule="evenodd" d="M173.823 12C176.158 18.6703 181.394 23.9569 188 26.3145V509.686C181.394 512.043 176.158 517.33 173.823 524H-66.823C-69.158 517.33 -74.3938 512.043 -81 509.686V26.3145C-74.3938 23.9569 -69.1579 18.6703 -66.823 12H173.823Z"/>
</mask>
<path d="M188 26.3145H190V24.9047L188.672 24.4308L188 26.3145ZM173.823 12L175.711 11.3392L175.242 10H173.823V12ZM188 509.686L188.672 511.569L190 511.095V509.686H188ZM173.823 524V526H175.242L175.711 524.661L173.823 524ZM-66.823 524L-68.7107 524.661L-68.2419 526H-66.823V524ZM-81 509.686H-83V511.095L-81.6722 511.569L-81 509.686ZM-81 26.3145L-81.6722 24.4308L-83 24.9047V26.3145H-81ZM-66.823 12V10H-68.2419L-68.7107 11.3392L-66.823 12ZM188.672 24.4308C182.64 22.2781 177.848 17.4442 175.711 11.3392L171.935 12.6608C174.468 19.8963 180.148 25.6357 187.328 28.1981L188.672 24.4308ZM190 509.686V26.3145H186V509.686H190ZM175.711 524.661C177.848 518.556 182.64 513.722 188.672 511.569L187.328 507.802C180.148 510.364 174.468 516.104 171.935 523.339L175.711 524.661ZM-66.823 526H173.823V522H-66.823V526ZM-81.6722 511.569C-75.6401 513.722 -70.8478 518.556 -68.7107 524.661L-64.9353 523.339C-67.4682 516.104 -73.1475 510.364 -80.3278 507.802L-81.6722 511.569ZM-83 26.3145V509.686H-79V26.3145H-83ZM-68.7107 11.3392C-70.8477 17.4442 -75.6401 22.2781 -81.6722 24.4308L-80.3278 28.1981C-73.1475 25.6357 -67.4681 19.8963 -64.9353 12.6608L-68.7107 11.3392ZM173.823 10H-66.823V14H173.823V10Z" fill="#E7E7E7" mask="url(#path-11-inside-6_630_1865)"/>
</g>
<g clip-path="url(#clip3_630_1865)">
<mask id="path-13-inside-7_630_1865" fill="white">
<path fill-rule="evenodd" clip-rule="evenodd" d="M17 -264L183 -264C183 -254.777 190.611 -247.301 200 -247.301V183.301C190.611 183.301 183 190.777 183 200H17C17 190.777 9.38884 183.301 0 183.301V-247.301C9.38883 -247.301 17 -254.777 17 -264Z"/>
</mask>
<path fill-rule="evenodd" clip-rule="evenodd" d="M17 -264L183 -264C183 -254.777 190.611 -247.301 200 -247.301V183.301C190.611 183.301 183 190.777 183 200H17C17 190.777 9.38884 183.301 0 183.301V-247.301C9.38883 -247.301 17 -254.777 17 -264Z" fill="#2A2A2A"/>
<path d="M183 -264H189V-270L183 -270L183 -264ZM17 -264L17 -270L11 -270L11 -264L17 -264ZM200 -247.301H206V-253.301H200V-247.301ZM200 183.301V189.301H206V183.301H200ZM183 200V206H189V200H183ZM17 200H11V206H17V200ZM0 183.301H-6V189.301H0V183.301ZM0 -247.301V-253.301H-6V-247.301H0ZM183 -270L17 -270L17 -258L183 -258L183 -270ZM200 -253.301C193.824 -253.301 189 -258.191 189 -264H177C177 -251.363 187.399 -241.301 200 -241.301V-253.301ZM206 183.301V-247.301H194V183.301H206ZM189 200C189 194.191 193.824 189.301 200 189.301V177.301C187.399 177.301 177 187.363 177 200H189ZM17 206H183V194H17V206ZM0 189.301C6.17648 189.301 11 194.191 11 200H23C23 187.363 12.6012 177.301 0 177.301V189.301ZM-6 -247.301V183.301H6V-247.301H-6ZM11 -264C11 -258.191 6.17647 -253.301 0 -253.301V-241.301C12.6012 -241.301 23 -251.363 23 -264L11 -264Z" fill="#E7E7E7" mask="url(#path-13-inside-7_630_1865)"/>
<mask id="path-15-inside-8_630_1865" fill="white">
<path fill-rule="evenodd" clip-rule="evenodd" d="M173.823 -252C176.158 -245.33 181.394 -240.043 188 -237.686V173.686C181.394 176.043 176.158 181.33 173.823 188H26.177C23.842 181.33 18.6062 176.043 12 173.686V-237.686C18.6062 -240.043 23.8421 -245.33 26.177 -252H173.823Z"/>
</mask>
<path d="M188 -237.686H190V-239.095L188.672 -239.569L188 -237.686ZM173.823 -252L175.711 -252.661L175.242 -254H173.823V-252ZM188 173.686L188.672 175.569L190 175.095V173.686H188ZM173.823 188V190H175.242L175.711 188.661L173.823 188ZM26.177 188L24.2893 188.661L24.7581 190H26.177V188ZM12 173.686H10V175.095L11.3278 175.569L12 173.686ZM12 -237.686L11.3278 -239.569L10 -239.095V-237.686H12ZM26.177 -252V-254H24.7581L24.2893 -252.661L26.177 -252ZM188.672 -239.569C182.64 -241.722 177.848 -246.556 175.711 -252.661L171.935 -251.339C174.468 -244.104 180.148 -238.364 187.328 -235.802L188.672 -239.569ZM190 173.686V-237.686H186V173.686H190ZM175.711 188.661C177.848 182.556 182.64 177.722 188.672 175.569L187.328 171.802C180.148 174.364 174.468 180.104 171.935 187.339L175.711 188.661ZM26.177 190H173.823V186H26.177V190ZM11.3278 175.569C17.3599 177.722 22.1522 182.556 24.2893 188.661L28.0647 187.339C25.5318 180.104 19.8525 174.364 12.6722 171.802L11.3278 175.569ZM10 -237.686V173.686H14V-237.686H10ZM24.2893 -252.661C22.1523 -246.556 17.3599 -241.722 11.3278 -239.569L12.6722 -235.802C19.8525 -238.364 25.5319 -244.104 28.0647 -251.339L24.2893 -252.661ZM173.823 -254H26.177V-250H173.823V-254Z" fill="#E7E7E7" mask="url(#path-15-inside-8_630_1865)"/>
</g>
<defs>
<clipPath id="clip0_630_1865">
<rect width="200" height="32" fill="white"/>
</clipPath>
<clipPath id="clip1_630_1865">
<rect width="32" height="136" fill="white" transform="translate(0 32)"/>
</clipPath>
<clipPath id="clip2_630_1865">
<rect width="32" height="136" fill="white" transform="translate(168 32)"/>
</clipPath>
<clipPath id="clip3_630_1865">
<rect width="200" height="32" fill="white" transform="translate(0 168)"/>
</clipPath>
</defs>
</svg>
