<svg width="31" height="83" viewBox="0 0 31 83" fill="none" xmlns="http://www.w3.org/2000/svg">
<g clip-path="url(#clip0_711_7608)">
<path d="M21.1266 15.3903C20.4283 17.822 18.2471 19.0984 16.1247 16.664C15.3604 17.9856 13.429 18.7619 11.7882 16.8697C10.0573 18.6323 8.19428 18.3616 6.67243 17.5357L7.87487 59.7904L21.2928 59.2316L21.1266 15.3903Z" fill="#FF9800"/>
<path d="M20.6383 16.6457C19.2291 18.8017 16.8778 18.4007 16.1245 16.664C15.2733 18.8079 13.4288 18.762 11.788 16.8697C10.0571 18.6323 8.19409 18.3617 6.67223 17.5358C6.67223 17.5358 12.2994 9.41954 12.738 4.82036C13.6212 -4.4505 14.9057 4.05792 15.0778 4.61941C16.0388 7.78717 20.6383 16.6457 20.6383 16.6457Z" fill="#FFFAC5"/>
<path d="M7.75108 60.8092L6.66682 16.262C6.66682 16.262 12.9556 11.9618 13.4357 4.75107C13.9352 4.7798 14.4356 4.71352 14.9104 4.55578C14.9104 4.55578 15.1059 12.2319 20.6406 15.6644L20.6218 59.5382" stroke="black" stroke-width="2.29072" stroke-miterlimit="10" stroke-linecap="round" stroke-linejoin="round"/>
<path d="M13.6169 6.28091C16.8433 14.2727 18.9647 16.2768 18.9647 16.2768C18.9404 17.0135 18.1897 17.976 17.3559 17.784C16.8128 17.6589 16.2325 17.0487 15.8002 15.5527C15.4359 17.331 14.454 18.0509 13.5794 17.8494C12.9119 17.6957 12.3073 17.0048 12.0888 15.8381C11.6674 17.2899 10.4289 17.903 9.51695 17.6929C9.28371 17.6432 9.06833 17.5312 8.89383 17.3686C8.71933 17.2061 8.59224 16.9992 8.52614 16.7701C8.52614 16.7701 12.3169 11.2834 13.6217 6.28082L13.6169 6.28091ZM13.3336 1.8002L12.2584 5.92512C11.0299 10.6331 7.40258 15.9168 7.36666 15.9693L6.97695 16.5336L7.18347 17.1888C7.32382 17.6527 7.58483 18.0711 7.93982 18.4011C8.29481 18.7311 8.73104 18.961 9.20396 19.0672C9.64113 19.1587 10.0922 19.1623 10.5307 19.0778C10.9693 18.9933 11.3867 18.8224 11.7586 18.575C11.8076 18.5434 11.8568 18.5106 11.9006 18.4755C12.2798 18.8445 12.7524 19.1033 13.2676 19.224C13.6279 19.3051 14.0009 19.3127 14.3642 19.2463C14.7275 19.18 15.0737 19.041 15.382 18.8377C15.5398 18.7362 15.6884 18.6209 15.8259 18.4932C16.1643 18.8204 16.5847 19.0502 17.0429 19.1583C17.4068 19.2386 17.784 19.236 18.1468 19.1509C18.5095 19.0658 18.8485 18.9002 19.1387 18.6664C19.8629 18.1088 20.3485 17.1901 20.3777 16.3235L20.3998 15.6638L19.9442 15.2574C19.8778 15.1885 19.3865 14.6524 18.574 13.3227C17.776 12.013 16.496 9.63549 14.9288 5.75265L13.337 1.80098L13.3336 1.8002Z" fill="black"/>
<path d="M12.6987 19.3348L12.0082 31.0901C12.003 31.177 11.9645 31.2586 11.9007 31.318C11.8369 31.3773 11.7528 31.4098 11.6657 31.4088C11.5786 31.4077 11.4952 31.3731 11.4329 31.3123C11.3706 31.2514 11.3341 31.1689 11.331 31.0819L10.9364 19.3149C10.9315 19.0828 11.0183 18.8581 11.178 18.6896C11.3376 18.521 11.5573 18.4222 11.7893 18.4145C12.0214 18.4068 12.2471 18.4909 12.4176 18.6485C12.5881 18.8061 12.6896 19.0246 12.7001 19.2565C12.7012 19.2826 12.7008 19.3088 12.6987 19.3348V19.3348Z" fill="black"/>
<path d="M16.4345 22.5389L16.8435 60.5933C16.8447 60.7091 16.8232 60.8239 16.78 60.9314C16.7369 61.0388 16.673 61.1367 16.5921 61.2194C16.5111 61.3022 16.4146 61.3682 16.3082 61.4136C16.2017 61.4591 16.0874 61.4832 15.9716 61.4844C15.8558 61.4857 15.7409 61.4641 15.6335 61.421C15.5261 61.3779 15.4282 61.314 15.3455 61.2331C15.2627 61.1521 15.1967 61.0556 15.1512 60.9492C15.1058 60.8427 15.0817 60.7283 15.0805 60.6126L15.0849 60.5933L15.5659 22.539C15.5674 22.4237 15.6142 22.3137 15.6963 22.2327C15.7784 22.1518 15.8891 22.1065 16.0043 22.1067C16.1196 22.1069 16.2301 22.1526 16.3119 22.2338C16.3938 22.315 16.4402 22.4252 16.4413 22.5404L16.4345 22.5389Z" fill="black"/>
<path d="M6.83169 69.5808C6.83169 69.5808 6.76501 69.9015 6.66671 70.4007C6.39412 71.7807 5.87389 74.5203 5.81177 75.5866C5.50695 80.8517 8.06785 81.2425 13.2867 80.8945C18.4008 80.551 22.1777 80.768 21.4902 74.5453C21.306 72.8778 20.3705 68.1146 20.3705 68.1146" fill="#EB5D72"/>
<path d="M17.4306 77.3651C17.3912 77.3619 17.3521 77.356 17.3135 77.3475C17.2748 77.3393 17.2326 77.3319 17.1901 77.3267L16.939 77.2824C16.7736 77.252 16.607 77.2306 16.4436 77.2027C16.2801 77.1748 16.1166 77.1571 15.9543 77.1384C15.792 77.1197 15.6325 77.0968 15.471 77.0896C14.8417 77.0321 14.2088 77.0266 13.5786 77.0731C13.4221 77.0788 13.2661 77.0934 13.1113 77.1171C12.9542 77.1288 12.7979 77.1492 12.643 77.178C12.4877 77.2044 12.3321 77.2331 12.1731 77.2523L11.7016 77.3582C11.6232 77.377 11.5422 77.3898 11.4619 77.4061C11.3816 77.4224 11.2991 77.4566 11.2248 77.4702C11.061 77.5195 10.9043 77.5571 10.7384 77.5959C10.4049 77.6868 10.0892 77.8004 9.72755 77.8709L9.67293 77.8812C9.5857 77.8979 9.49545 77.8868 9.41484 77.8496C9.33422 77.8123 9.26727 77.7508 9.22338 77.6736C9.17949 77.5964 9.16085 77.5074 9.17008 77.4191C9.17931 77.3308 9.21595 77.2476 9.27485 77.1811C9.40483 77.0369 9.53972 76.899 9.68203 76.7654C9.75269 76.698 9.8253 76.6331 9.89792 76.5682L10.0134 76.4778L10.1276 76.3885C10.2875 76.2775 10.4507 76.168 10.6179 76.0636C10.7829 75.9547 10.9573 75.8609 11.139 75.7832C11.3194 75.7008 11.4992 75.6127 11.6859 75.5435C11.8725 75.4744 12.0669 75.4255 12.2589 75.3683C12.4523 75.3129 12.6494 75.271 12.8486 75.2428C13.0481 75.2089 13.2494 75.1865 13.4515 75.1757C14.2556 75.114 15.064 75.21 15.8314 75.4582C15.9267 75.4862 16.0204 75.5196 16.112 75.5583C16.2052 75.5947 16.2983 75.631 16.3877 75.6703C16.571 75.7494 16.747 75.8424 16.9204 75.9374C17.0923 76.0384 17.2584 76.1488 17.418 76.2683C17.5829 76.3919 17.7374 76.5288 17.88 76.6777C17.9384 76.7376 17.9773 76.8138 17.9918 76.8962C18.0062 76.9786 17.9955 77.0635 17.9609 77.1397C17.9263 77.2159 17.8696 77.2799 17.7981 77.3234C17.7265 77.3668 17.6436 77.3877 17.56 77.3832L17.4306 77.3651Z" fill="black"/>
<path d="M6.83169 69.5808C6.83169 69.5808 6.76501 69.9015 6.66671 70.4007C6.39412 71.7807 5.87389 74.5203 5.81177 75.5866C5.50695 80.8517 8.06785 81.2425 13.2867 80.8945C18.4008 80.551 22.1777 80.768 21.4902 74.5453C21.306 72.8778 20.3705 68.1146 20.3705 68.1146" stroke="black" stroke-width="1.87623" stroke-miterlimit="10" stroke-linecap="round"/>
<path d="M8.11409 65.0319C4.09808 65.0874 3.49558 68.7481 8.41178 68.7569C10.0684 68.7596 17.4329 68.3864 20.4287 67.9183C23.2822 67.4735 23.2521 63.3263 21.078 64.0647C18.543 64.9272 14.448 64.6012 14.448 64.6012" fill="#D1D3D4"/>
<path d="M21.0813 64.0654C23.3999 63.6356 22.7187 60.0343 20.6899 60.1782C19.0377 60.2957 9.49656 60.9015 6.50737 61.439C3.98693 61.8914 4.18968 65.8115 6.47516 65.5825" fill="#D1D3D4"/>
<path d="M7.24442 65.2688C6.9252 65.3533 6.61212 65.4595 6.3074 65.5867C6.04734 65.6904 5.8061 65.8361 5.5933 66.018C5.44891 66.1334 5.3486 66.295 5.30919 66.4756C5.29859 66.6016 5.33501 66.7272 5.41148 66.828C5.53415 67.0006 5.69068 67.1465 5.87151 67.2568C6.10412 67.4025 6.35384 67.5188 6.615 67.6032C7.21197 67.7895 7.8349 67.8791 8.46017 67.8686C8.7919 67.8663 9.14764 67.8529 9.49999 67.8388L10.5637 67.7883C11.2736 67.7509 11.985 67.709 12.6978 67.6627C14.1221 67.569 15.5445 67.4597 16.9648 67.3349C17.6746 67.2744 18.3831 67.2137 19.0873 67.1411C19.4403 67.1033 19.7922 67.0652 20.1385 67.0258C20.3144 67.0068 20.4875 66.9847 20.6578 66.9595C20.824 66.9359 21.0165 66.9123 21.1366 66.8876C21.6741 66.7886 22.1106 66.5281 22.3182 66.1803C22.419 66.0191 22.4716 65.8323 22.4695 65.6421C22.468 65.4824 22.4086 65.3286 22.3024 65.2093C22.1763 65.0822 22.0107 65.002 21.8328 64.982C21.777 64.9731 21.7206 64.9673 21.6641 64.9646L21.546 64.96L21.4201 64.9584C21.253 64.9545 21.0748 64.9575 20.9019 64.9582L19.8438 64.979L18.7769 65.0025C17.3501 65.0313 15.9176 65.0588 14.4826 65.0249C14.3768 65.0224 14.2756 64.981 14.1985 64.9085C14.1214 64.8361 14.0737 64.7377 14.0646 64.6323C14.0555 64.5269 14.0857 64.4218 14.1493 64.3373C14.2129 64.2527 14.3055 64.1946 14.4093 64.174C15.1178 64.031 15.8279 63.917 16.5405 63.813C17.2531 63.7091 17.9668 63.6209 18.6844 63.5419C19.4019 63.463 20.1191 63.3958 20.8499 63.358C21.0356 63.3484 21.2125 63.3355 21.4073 63.3327L21.5489 63.3284C21.597 63.3264 21.6381 63.3239 21.7043 63.3261C21.8266 63.3277 21.9487 63.3367 22.0698 63.3531C22.329 63.3876 22.5817 63.4603 22.8196 63.5687C23.2026 63.7447 23.5302 64.0219 23.7672 64.3704C24.0041 64.719 24.1415 65.1256 24.1644 65.5464C24.1994 66.0773 24.0729 66.6064 23.8017 67.0641C23.5477 67.4957 23.1917 67.8584 22.7649 68.1204C22.371 68.3631 21.9371 68.5339 21.4835 68.6247C21.252 68.6727 21.0887 68.6887 20.9008 68.7181C20.713 68.7475 20.5314 68.77 20.3536 68.7922C19.9855 68.8385 19.6305 68.8794 19.2699 68.9191C18.5492 68.9962 17.8303 69.0657 17.1131 69.1276C15.6775 69.2462 14.2427 69.3458 12.8066 69.4356C12.0885 69.4807 11.3697 69.5216 10.6504 69.5585L9.56669 69.6079C9.2059 69.6225 8.84563 69.6349 8.45898 69.6376C7.64999 69.6553 6.84284 69.5529 6.0639 69.3337C5.63853 69.2106 5.23353 69.0258 4.86181 68.7852C4.43376 68.5108 4.08271 68.1318 3.84179 67.6841C3.7073 67.4256 3.62418 67.1434 3.59706 66.8533C3.58453 66.702 3.58764 66.5498 3.60636 66.3991C3.62783 66.2496 3.66484 66.1028 3.71679 65.9611C3.8173 65.6945 3.97064 65.451 4.16761 65.2452C4.34285 65.0623 4.54564 64.908 4.76859 64.7879C5.15932 64.5776 5.58975 64.4515 6.03217 64.4177C6.43215 64.3838 6.83497 64.4099 7.22723 64.4952C7.31382 64.5141 7.39161 64.5614 7.44829 64.6296C7.50496 64.6977 7.53727 64.7828 7.54011 64.8714C7.54296 64.96 7.51616 65.047 7.46397 65.1187C7.41178 65.1903 7.33719 65.2425 7.252 65.267L7.24442 65.2688Z" fill="black"/>
<path d="M21.8657 63.9089C21.9684 63.7443 22.0385 63.5614 22.072 63.3702C22.109 63.1716 22.1216 62.9693 22.1095 62.7676C22.0861 62.3408 21.9911 61.921 21.8284 61.5258C21.6694 61.1401 21.4446 60.7868 21.1995 60.6041C21.1 60.5234 20.982 60.4688 20.8561 60.4452C20.7998 60.4362 20.7426 60.4342 20.6858 60.4393L20.2823 60.4739L13.818 60.9997C12.7426 61.0856 11.6679 61.1788 10.5966 61.2728C9.52533 61.3668 8.45248 61.4676 7.40913 61.6109L7.02659 61.6681L6.83445 61.6954L6.76033 61.7069L6.69437 61.7191C6.52705 61.7507 6.36626 61.8103 6.21884 61.8955C5.92599 62.0711 5.70786 62.3482 5.60584 62.6741C5.48842 63.0097 5.47408 63.3728 5.56467 63.7167C5.60479 63.8729 5.67972 64.018 5.78382 64.1412C5.90777 64.2802 6.06428 64.3863 6.23932 64.4499L6.29155 64.4715C6.38079 64.5076 6.45577 64.5719 6.50505 64.6545C6.55434 64.7372 6.57524 64.8338 6.56454 64.9295C6.55384 65.0251 6.51217 65.1147 6.44583 65.1845C6.37949 65.2542 6.29215 65.3004 6.19714 65.3159C5.82977 65.3709 5.45436 65.3099 5.12337 65.1412C4.77745 64.9615 4.48869 64.6887 4.2897 64.3535C3.91981 63.7098 3.8183 62.9464 4.00712 62.2284C4.09715 61.8702 4.24958 61.5306 4.45741 61.2253C4.6699 60.9125 4.93866 60.6419 5.25001 60.4273C5.55705 60.2166 5.89779 60.0598 6.25756 59.9636C6.30211 59.9512 6.34526 59.9397 6.38477 59.9286C6.42427 59.9174 6.47927 59.9062 6.51016 59.9014L6.71986 59.8651L7.13904 59.7937C8.24077 59.6245 9.32162 59.4993 10.4075 59.3885C11.4934 59.2776 12.574 59.1797 13.6569 59.092C15.8212 58.9185 17.9884 58.7791 20.1512 58.6637L20.5574 58.6381C20.7711 58.6255 20.9855 58.6405 21.1953 58.6826C21.6025 58.7669 21.983 58.9494 22.3036 59.2142C22.5887 59.448 22.8327 59.7277 23.0257 60.0418C23.2041 60.3326 23.3443 60.6452 23.4429 60.9719C23.6403 61.6055 23.6782 62.278 23.5531 62.9298C23.4858 63.2693 23.3589 63.5942 23.1783 63.8895C22.9901 64.2005 22.7199 64.4536 22.3974 64.6211C22.31 64.6646 22.2108 64.6783 22.1149 64.6603C22.019 64.6422 21.9316 64.5933 21.866 64.521C21.8004 64.4487 21.7602 64.3571 21.7515 64.2598C21.7428 64.1626 21.7661 64.0652 21.8178 63.9824L21.8657 63.9089Z" fill="black"/>
<path d="M17.2205 10.0549C15.5387 5.77992 16.307 2.56845 16.2117 0.152903L12.054 -1.79364C12.054 -1.79364 12.7982 4.6328 10.9619 9.41879C12.5742 9.48991 15.2068 9.93664 17.2205 10.0549Z" fill="black"/>
</g>
<defs>
<clipPath id="clip0_711_7608">
<rect width="30.3041" height="82.1698" fill="white" transform="translate(0.147461 0.0689392)"/>
</clipPath>
</defs>
</svg>
