<svg width="48" height="48" viewBox="0 0 48 48" fill="none" 
    xmlns="http://www.w3.org/2000/svg"
    filter="drop-shadow(0 2px 2px rgba(0,0,0,0.5))"
     overflow="visible">
    <use href="#pointer" />
<defs>
  <symbol id="pointer">
      <g filter=" url(#chromatic-aberration)">
        <path d="M20.2993 20.0493L18.7298 19.2713L14.6856 19.5662L15.7152 24.275L17.8133 22.6755L18.8017 21.3935L20.2993 20.0493Z" fill="#B8B3AD"/>
        <path d="M17.7576 19.1292C17.7576 19.1292 15.9363 19.7585 13.4285 19.508C8.62591 19.0283 10.8168 25.7863 15.715 24.2749C16.3438 24.0812 17.2474 23.589 17.2474 23.589" fill="#B8B3AD"/>
        <path d="M17.6215 18.7358L17.3923 18.771C17.313 18.7835 17.2312 18.7925 17.1507 18.8024C16.9879 18.8219 16.8259 18.84 16.6622 18.8531C16.3355 18.8798 16.0082 18.8962 15.6821 18.8998C15.0296 18.9105 14.3801 18.8753 13.7416 18.7921L13.5019 18.762C13.4039 18.7512 13.3069 18.7371 13.2074 18.7303C13.0082 18.7137 12.8052 18.7083 12.5952 18.7201C12.1782 18.7408 11.7314 18.8271 11.2961 19.0418C11.0797 19.1494 10.8675 19.293 10.6817 19.4714C10.4952 19.6494 10.3352 19.8605 10.2148 20.0881C9.96987 20.547 9.897 21.0535 9.92276 21.5146C9.98637 22.4441 10.4068 23.2366 10.9761 23.8551C11.5536 24.4699 12.3136 24.9052 13.1207 25.0859C13.5228 25.1793 13.934 25.209 14.3339 25.1875C14.5339 25.1773 14.7309 25.1516 14.9256 25.1185C15.1185 25.0804 15.3089 25.0369 15.493 24.9797C15.5856 24.9519 15.6769 24.9214 15.7663 24.8877L15.9008 24.8379C15.9466 24.8193 15.9935 24.8004 16.0386 24.7814C16.2164 24.7027 16.3801 24.6201 16.5389 24.5296C16.6975 24.441 16.8512 24.3493 17.0024 24.2551C17.1529 24.1575 17.2986 24.0628 17.4478 23.9546C17.635 23.8182 17.6767 23.5564 17.5406 23.3684C17.4287 23.2141 17.232 23.1588 17.0613 23.2194L17.0497 23.224C16.8964 23.2788 16.7366 23.3393 16.5793 23.3925C16.4229 23.4492 16.2659 23.5037 16.1105 23.5523C15.9549 23.5997 15.8014 23.6485 15.6552 23.6823L15.5485 23.7062L15.4363 23.7277C15.3613 23.7429 15.2867 23.7544 15.211 23.7643C14.9119 23.808 14.6166 23.8218 14.3301 23.801C14.1867 23.7924 14.0466 23.7721 13.909 23.7477C13.7727 23.7181 13.6377 23.6863 13.5072 23.6427C12.9879 23.4699 12.5264 23.1656 12.1819 22.7626C11.8372 22.3662 11.6096 21.8614 11.5813 21.4154C11.5652 21.1932 11.605 20.9978 11.6781 20.8464C11.7529 20.6941 11.8664 20.5756 12.0409 20.4723C12.2172 20.3741 12.4519 20.3032 12.7186 20.2707C12.8505 20.2536 12.9922 20.2493 13.135 20.2478C13.2068 20.2472 13.2804 20.2517 13.3531 20.2527L13.626 20.2641C14.3552 20.2891 15.0836 20.246 15.7968 20.1261C16.1538 20.0663 16.5069 19.9924 16.8549 19.8919C17.0287 19.842 17.2016 19.7886 17.3728 19.7303C17.4583 19.6981 17.5436 19.6678 17.6293 19.6338C17.6719 19.6171 17.7145 19.6004 17.7577 19.5812L17.8928 19.521C18.103 19.4281 18.1986 19.1821 18.1056 18.9719C18.0281 18.7967 17.8436 18.7011 17.6621 18.7287L17.6215 18.7358Z" fill="black"/>
        <path d="M13.7677 9.95814C19.16 13.6427 19.5713 14.1576 27.8701 18.3591C31.9903 20.4453 34.0952 22.3392 35.0089 25.0824L35.009 25.0805C38.1221 23.5772 41.5013 27.1306 40.3572 33.6054C39.2951 39.6144 34.3408 40.6411 32.5237 38.3217L32.6283 37.7672C30.3295 39.8285 27.1738 38.7357 25.4734 36.8222C24.9117 36.1898 24.577 35.6382 24.3485 35.1505L24.4335 35.432C16.551 36.6551 15.044 27.2449 21.7729 26.6253L19.7131 26.7577L17.3949 28.7003C14.7293 24.9411 16.9558 21.1975 20.2841 20.9573C19.3784 20.7732 15.808 19.9264 11.9717 17.3753C5.59884 13.1375 9.5585 7.08132 13.7677 9.95814Z" fill="white"/>
        <path d="M32.8755 39.6441C33.7945 40.213 34.9685 40.3842 36.1631 40.0859C37.1016 39.8521 40.2314 38.7025 41.1087 33.7383C41.8019 29.8144 40.9317 26.3909 38.8379 24.8061C37.5965 23.8663 36.0799 23.7158 34.6779 24.3934C34.2985 24.5763 34.1394 25.0324 34.3231 25.4122C34.5068 25.7921 34.9624 25.9508 35.3422 25.7673C36.2234 25.3415 37.1387 25.4327 37.9175 26.0225C39.1992 26.992 40.3162 29.459 39.6066 33.4725C39.1222 36.2119 37.6971 38.1313 35.7946 38.6057C34.722 38.8729 33.6998 38.5844 33.126 37.8515C32.8666 37.5198 32.3869 37.4615 32.0551 37.7208C31.7233 37.98 31.6653 38.4596 31.9247 38.7914C32.1917 39.1347 32.514 39.4203 32.8755 39.6441Z" fill="black"/>
        <path d="M34.0563 34.7982C33.9065 35.0987 33.7485 35.3902 33.5788 35.6706C33.4063 35.9492 33.2244 36.2162 33.0253 36.4636C32.6266 36.9573 32.1682 37.3769 31.6557 37.6641C31.1445 37.9541 30.5833 38.1065 30.0082 38.1281C29.7204 38.1377 29.4299 38.1153 29.1398 38.0639C28.9948 38.0387 28.8512 38.0036 28.7088 37.9634C28.5659 37.9238 28.424 37.878 28.2831 37.8241C28.0025 37.7179 27.7302 37.5855 27.4663 37.4348C27.2033 37.2827 26.9524 37.1078 26.7148 36.9177C26.4761 36.7279 26.2577 36.5164 26.0525 36.2945L25.8945 36.1184L25.7426 35.9383C25.6441 35.8176 25.5468 35.6967 25.4569 35.5716C25.2755 35.3224 25.1119 35.0665 24.9667 34.7937C24.8199 34.5219 24.6944 34.2329 24.5551 33.9109C24.4862 33.7488 24.4089 33.5797 24.3193 33.4019C24.2269 33.2255 24.117 33.041 23.9797 32.8709C23.8439 32.6997 23.6783 32.5483 23.506 32.425C23.3335 32.3006 23.1503 32.2077 22.968 32.134C22.764 32.0508 22.531 32.1491 22.4478 32.3529C22.3824 32.5139 22.4293 32.6926 22.5528 32.8014L22.5702 32.816C22.6863 32.9193 22.7885 33.0246 22.8752 33.1311C22.9619 33.2376 23.0264 33.3499 23.0823 33.4667C23.1916 33.6997 23.2604 33.9868 23.3443 34.3224C23.4276 34.6557 23.5283 35.0243 23.6729 35.3818C23.8132 35.7416 23.9943 36.0894 24.1985 36.4154C24.301 36.5787 24.4112 36.7359 24.5235 36.8895L24.6985 37.1143L24.8797 37.3321C25.1361 37.6278 25.4195 37.8972 25.7208 38.1424C26.0208 38.3897 26.3456 38.6064 26.683 38.7997C27.0215 38.9926 27.378 39.1566 27.7495 39.2868C28.1201 39.4184 28.5058 39.5163 28.9024 39.5712C29.1005 39.5989 29.2999 39.6167 29.5018 39.6242C29.703 39.6295 29.9057 39.6229 30.1076 39.6051C30.9155 39.5379 31.7138 39.2505 32.3733 38.797C33.0337 38.3421 33.5604 37.7457 33.9468 37.0996C34.143 36.778 34.3114 36.4459 34.4503 36.1045C34.591 35.765 34.7065 35.4188 34.7983 35.0697C34.8541 34.8578 34.7274 34.6404 34.5154 34.5845C34.3304 34.5355 34.1403 34.6262 34.0588 34.7909L34.0563 34.7982Z" fill="black"/>
        <path d="M30.5033 29.7453C30.4022 29.6416 30.3088 29.5584 30.2068 29.4766C30.1072 29.3925 30.0013 29.3201 29.8956 29.2458C29.6814 29.1034 29.4575 28.9766 29.2263 28.8647C28.763 28.6425 28.2715 28.477 27.7659 28.3783C27.7029 28.3647 27.6399 28.3511 27.5762 28.3401L27.3844 28.3133C27.2562 28.2975 27.129 28.2785 27.0001 28.2701C26.7419 28.2589 26.4846 28.2444 26.2273 28.268C25.7133 28.2921 25.2041 28.4064 24.7272 28.5934C24.5746 28.6535 24.4992 28.8259 24.5593 28.9785C24.5987 29.0792 24.6868 29.1456 24.7865 29.1632L24.8174 29.1687C25.0584 29.2093 25.2898 29.2117 25.5208 29.2402C25.6361 29.2529 25.7506 29.2641 25.8638 29.2726C25.9773 29.2773 26.0908 29.3026 26.2032 29.3124C26.6538 29.3606 27.0973 29.4346 27.5388 29.5182C27.9807 29.601 28.4193 29.7082 28.8577 29.83C29.0777 29.8888 29.297 29.9552 29.5185 30.0209L29.8491 30.1239C29.9056 30.1402 29.96 30.1583 30.0144 30.1763L30.0965 30.2017C30.1234 30.2105 30.1521 30.2194 30.1744 30.2245L30.2238 30.2364C30.3825 30.2741 30.5408 30.1764 30.5791 30.0182C30.6034 29.9188 30.5706 29.8153 30.5033 29.7453Z" fill="black"/>
        <path d="M31.5392 27.5634C31.4747 27.4257 31.4084 27.3083 31.335 27.1866C31.2637 27.0661 31.1845 26.9506 31.1045 26.8365C30.9424 26.6099 30.764 26.3938 30.5737 26.189C30.1925 25.7788 29.7571 25.4135 29.2759 25.1048C29.0339 24.952 28.7799 24.8153 28.5164 24.6972C28.2511 24.5819 27.9736 24.4863 27.6896 24.4171C27.4056 24.3479 27.1111 24.3114 26.8185 24.3034L26.5982 24.3069C26.5255 24.3088 26.4519 24.3171 26.379 24.3258C26.2338 24.3376 26.0899 24.3707 25.949 24.4039C25.7898 24.4413 25.6913 24.6004 25.7288 24.7596C25.7559 24.8722 25.8437 24.955 25.9486 24.9798L25.9743 24.9859C26.2238 25.0445 26.4612 25.0956 26.6934 25.1679C26.9247 25.2417 27.1508 25.3191 27.3712 25.4135C27.8128 25.5998 28.2375 25.8304 28.6531 26.0887C29.0672 26.3509 29.4729 26.6393 29.8718 26.9498C30.0722 27.1033 30.2712 27.2626 30.4705 27.4242L30.7709 27.6678L30.9207 27.7909C30.971 27.8299 31.0226 27.8745 31.0688 27.909L31.0922 27.9265C31.2239 28.0236 31.4091 27.9964 31.5069 27.8652C31.5756 27.7748 31.5835 27.6593 31.5392 27.5634Z" fill="black"/>
        <path d="M31.8812 24.7516C31.833 24.6161 31.7815 24.5001 31.7241 24.3794C31.6681 24.2596 31.6049 24.1452 31.5394 24.0313C31.4075 23.8048 31.2602 23.5875 31.101 23.3784C30.7805 22.9618 30.4102 22.5799 29.9928 22.2472C29.577 21.9135 29.1114 21.6301 28.6062 21.4298C28.1036 21.2283 27.5576 21.1113 27.0154 21.1366C26.8503 21.144 26.7237 21.2837 26.7304 21.4483C26.7354 21.562 26.804 21.6582 26.9 21.704L26.9122 21.7095C27.3494 21.9186 27.7551 22.1248 28.144 22.3675C28.3377 22.4893 28.5303 22.6115 28.7161 22.7461C28.9036 22.8778 29.0881 23.0145 29.2694 23.1581C29.6327 23.4437 29.9862 23.7515 30.3351 24.0732C30.5105 24.2326 30.6846 24.3971 30.8594 24.5621L31.123 24.8114L31.2546 24.9369C31.2997 24.9765 31.3444 25.0228 31.3857 25.0572L31.4114 25.0789C31.5367 25.1849 31.7238 25.1687 31.8297 25.0434C31.8984 24.9578 31.9152 24.8469 31.8812 24.7516Z" fill="black"/>
        <path d="M35.8794 27.4098C35.907 27.2655 35.928 27.121 35.9411 26.9765C35.9505 26.8317 35.961 26.6866 35.9608 26.5416C35.9606 26.251 35.9426 25.9592 35.8991 25.6691C35.8139 25.0891 35.6439 24.5133 35.3971 23.9682C35.1557 23.4207 34.8606 22.8936 34.5148 22.4057C34.1691 21.9177 33.7777 21.4671 33.3606 21.0533C32.5238 20.2251 31.588 19.5441 30.6309 18.9388C30.1517 18.6363 29.6653 18.3518 29.1745 18.0792C28.9289 17.9448 28.6828 17.8111 28.4345 17.6827L27.7034 17.3035L26.2508 16.55L25.5264 16.1709L24.8053 15.7881C24.3223 15.536 23.8464 15.2757 23.3672 15.0191C22.8929 14.7577 22.4166 14.4981 21.9489 14.2291C21.0105 13.6931 20.0905 13.1431 19.1869 12.5573C18.2831 11.9733 17.3899 11.3548 16.4863 10.7387L15.1318 9.81108L14.4516 9.34793L14.2817 9.23197L14.0831 9.1022C13.9466 9.01766 13.8076 8.93552 13.6615 8.86169C13.0831 8.56136 12.4195 8.35597 11.7171 8.33194C11.0176 8.30781 10.2867 8.4784 9.6703 8.84808C9.05098 9.213 8.55326 9.7608 8.23652 10.3815C7.91308 11.002 7.77088 11.6917 7.77114 12.3599C7.77191 13.0305 7.91839 13.6807 8.15596 14.2738C8.39424 14.8674 8.71989 15.4085 9.09709 15.8915C9.47213 16.3779 9.90032 16.8054 10.3503 17.1946C10.5778 17.3852 10.8089 17.5714 11.0479 17.7418C11.2846 17.9158 11.5319 18.0777 11.7695 18.2297C12.7323 18.8433 13.739 19.3766 14.7796 19.8232C15.8209 20.2674 16.897 20.6205 17.9943 20.8714C18.5424 20.9994 19.0964 21.0988 19.6535 21.1727C19.9322 21.2093 20.2124 21.2389 20.4933 21.2593C20.7762 21.2799 21.052 21.2912 21.3486 21.2879C21.5606 21.2852 21.7312 21.111 21.7284 20.8989C21.726 20.7273 21.6117 20.5831 21.4549 20.536L21.436 20.5302L20.6705 20.2998C20.4138 20.2211 20.1571 20.1395 19.9027 20.0573C19.3919 19.8927 18.8862 19.7185 18.384 19.5386C17.3805 19.1756 16.3943 18.7833 15.4348 18.3428C14.9545 18.1228 14.4808 17.8921 14.0173 17.6433C13.5543 17.3938 13.1026 17.1259 12.6633 16.8412C12.441 16.6978 12.2314 16.5573 12.0293 16.4048C11.8243 16.2553 11.6307 16.0954 11.4403 15.9335C11.0671 15.6036 10.722 15.2491 10.4321 14.8652C10.1399 14.4838 9.90317 14.0741 9.73804 13.65C9.57317 13.2271 9.48377 12.7883 9.48832 12.3636C9.49268 11.9408 9.58635 11.5302 9.77425 11.1809C9.95886 10.8306 10.2312 10.5423 10.5576 10.355C10.8827 10.165 11.2607 10.0792 11.6531 10.0951C12.0459 10.1134 12.4532 10.2364 12.8438 10.4401C12.942 10.4901 13.0377 10.5474 13.1335 10.6077L13.278 10.703L13.4468 10.8192L14.1208 11.2844L15.4684 12.2185C16.3674 12.8435 17.2763 13.4668 18.2096 14.0711C19.1429 14.6753 20.0994 15.2518 21.0666 15.7919C22.9993 16.8779 24.959 17.8651 26.9197 18.8491C27.4139 19.0973 27.8922 19.3347 28.3644 19.5821C28.8357 19.8309 29.2998 20.0898 29.7511 20.3614C30.6534 20.9053 31.5093 21.5065 32.2433 22.2036C32.61 22.5519 32.946 22.9243 33.2417 23.3225C33.5368 23.7214 33.7877 24.1477 33.9968 24.597C34.051 24.7088 34.0958 24.8246 34.146 24.9379C34.1915 25.0541 34.239 25.1686 34.2836 25.2862C34.3275 25.4034 34.3745 25.5205 34.4175 25.639C34.4393 25.6986 34.4601 25.7583 34.4842 25.8173L34.5485 25.998L34.817 26.7325C34.8632 26.857 34.9086 26.9829 34.9592 27.1082C35.0083 27.2344 35.0595 27.362 35.1197 27.4892L35.1272 27.5056C35.2212 27.7047 35.4586 27.7891 35.6577 27.6952C35.7767 27.6388 35.8554 27.529 35.8794 27.4098Z" fill="black"/>
        <path d="M23.1093 20.8009C22.9836 20.724 22.854 20.6536 22.7243 20.5801C22.5922 20.5121 22.453 20.4572 22.3163 20.395C22.0377 20.2823 21.7457 20.1944 21.4445 20.1341C20.8424 20.0127 20.206 20.0052 19.5837 20.1188C18.3353 20.3428 17.1804 21.0892 16.432 22.1304C16.3324 22.2565 16.2522 22.3956 16.1691 22.533C16.0818 22.6678 16.0175 22.8158 15.9441 22.9581C15.9063 23.0287 15.8767 23.1033 15.8486 23.1788L15.7617 23.4028C15.7063 23.5524 15.6668 23.7079 15.6207 23.8614C15.4644 24.4806 15.4249 25.1262 15.5033 25.7471C15.5796 26.3685 15.768 26.9635 16.0375 27.502C16.0989 27.6399 16.1801 27.7664 16.254 27.8953L16.3685 28.0865C16.4108 28.1479 16.4539 28.2079 16.4974 28.2671C16.5868 28.3851 16.6661 28.5085 16.7642 28.6171C16.8619 28.7265 16.9557 28.8374 17.0548 28.9428C17.2136 29.1116 17.4785 29.12 17.6472 28.9613C17.7779 28.8387 17.8124 28.6518 17.7478 28.4953L17.7332 28.4619C17.6327 28.2196 17.5163 27.992 17.4317 27.7538C17.4094 27.695 17.386 27.6365 17.3621 27.5787L17.305 27.4005C17.268 27.2817 17.2212 27.1676 17.197 27.047C17.0668 26.5761 16.9928 26.1028 16.9907 25.6398C16.9817 24.7138 17.2606 23.827 17.7792 23.1033C18.2975 22.3814 19.0499 21.8221 19.9243 21.5573C20.3607 21.4215 20.825 21.3559 21.3022 21.3598C21.5416 21.3603 21.7827 21.3833 22.0276 21.4146C22.1489 21.4369 22.2727 21.4519 22.395 21.4787C22.5177 21.5067 22.6401 21.5366 22.7663 21.5619L22.8081 21.5702C23.0345 21.6155 23.2549 21.4682 23.2994 21.2414C23.337 21.0622 23.254 20.8895 23.1093 20.8009Z" fill="black"/>
        <path d="M21.7361 26.2201C21.379 26.2103 21.0167 26.2345 20.6539 26.2926C20.2908 26.3495 19.9282 26.4468 19.5752 26.5854C18.8691 26.8613 18.2033 27.3266 17.701 27.9498C17.4504 28.2613 17.2396 28.6082 17.0838 28.9783C16.9255 29.3479 16.8168 29.7384 16.76 30.1337C16.6488 30.9266 16.7352 31.7402 16.9997 32.4859C17.2625 33.2327 17.6953 33.9153 18.25 34.4672C18.806 35.0187 19.4751 35.4428 20.1862 35.7137C20.8971 35.9895 21.6438 36.1113 22.3731 36.1236C23.1036 36.1308 23.8175 36.0289 24.4952 35.8351C24.7131 35.7724 24.8391 35.5452 24.777 35.3278C24.7265 35.1517 24.5679 35.0349 24.3934 35.0306L24.3703 35.03C24.2074 35.026 24.0466 35.036 23.8856 35.0273C23.8054 35.0256 23.7258 35.0262 23.6465 35.0231L23.4085 35.0107C23.0926 34.9883 22.7806 34.9595 22.4772 34.9057C21.8704 34.8 21.2884 34.6304 20.7658 34.3695C20.2436 34.1098 19.7755 33.7721 19.3964 33.3584C19.2046 33.1545 19.0363 32.93 18.8927 32.6924C18.7471 32.4565 18.6303 32.2042 18.5366 31.9447C18.3486 31.4262 18.2811 30.8699 18.3297 30.3297C18.386 29.7914 18.5574 29.2665 18.8625 28.8147C19.162 28.3593 19.5845 27.9724 20.0929 27.6777C20.3467 27.5286 20.6216 27.4054 20.9094 27.2979C21.1981 27.1919 21.4998 27.1077 21.8107 27.0322L21.821 27.0298C22.0418 26.9767 22.177 26.7552 22.1238 26.5344C22.0804 26.35 21.9168 26.2253 21.7361 26.2201Z" fill="black"/>
        <path d="M34.6872 35.4119C34.5319 37.0365 35.7572 39.006 37.425 37.7868C36.9268 39.5179 33.876 40.0512 32.33 38.2235C34.2675 35.7469 34.6872 35.4119 34.6872 35.4119Z" fill="black"/>
      </g>
    </symbol>
  <filter id="chromatic-aberration">
      <feOffset dx="-0.5" dy="0" id="feOffset22" in="SourceGraphic" result="result1"></feOffset>
      <feOffset dx="0" dy="0" id="feOffset24" in="SourceGraphic" result="result2"></feOffset>
      <feOffset dx="0.5" dy="0" id="feOffset26" in="SourceGraphic" result="result3"></feOffset>
      <feColorMatrix id="feColorMatrix28" in="result1" values="1 0 0 0 0 0 0 0 0 0 0 0 0 0 0 0 0 0 1 0 " result="result4"></feColorMatrix>
      <feColorMatrix id="feColorMatrix30" in="result2" values="0 0 0 0 0 0 1 0 0 0 0 0 0 0 0 0 0 0 1 0 " result="result5"></feColorMatrix>
      <feColorMatrix id="feColorMatrix32" in="result3" values="0 0 0 0 0 0 0 0 0 0 0 0 1 0 0 0 0 0 1 0 " result="result6"></feColorMatrix>
      <feBlend mode="screen" id="feBlend34" in="result4" in2="result5" result="result7"></feBlend>
      <feBlend mode="screen" id="feBlend36" in="result6" in2="result7" result="result8"></feBlend>
      <feGaussianBlur in="SourceGraphic" result="blurred" stdDeviation="0.5"></feGaussianBlur>
      <feComponentTransfer in="blurred" result="alphablur">
        <feFuncA type="linear" slope="0.2"></feFuncA>
      </feComponentTransfer>
      <feMerge> 
        <feMergeNode in="result8"></feMergeNode>
        <feMergeNode in="alphablur"></feMergeNode> 
      </feMerge>
    </filter>
</defs>
</svg>
