<svg width="193" height="192" viewBox="0 0 193 192" fill="none" xmlns="http://www.w3.org/2000/svg">
<path d="M80.7244 115.516C71.3789 121.826 61.0041 118.358 54.1454 111.622C54.13 111.607 54.1179 111.602 54.1007 111.599C54.0769 111.596 54.0424 111.599 54.0079 111.614C53.9918 111.621 53.981 111.628 53.9743 111.634C54.6262 117.375 55.7267 123.057 57.2661 128.627C57.5069 129.498 57.1387 130.425 56.361 130.892C55.5806 131.36 54.198 132.201 52.7089 133.164C51.5984 133.883 50.0874 133.354 49.6943 132.071C46.9595 123.138 44.9033 115.668 43.3999 107.685L43.3992 107.682L80.7244 115.516ZM80.7244 115.516C81.4685 115.013 81.622 113.995 81.0902 113.293C80.9599 113.121 80.798 112.982 80.6184 112.879C78.0955 111.433 76.1265 109.19 75.0059 106.512C74.5305 105.375 73.151 104.856 72.0419 105.46C68.7329 107.263 65.4747 107.771 62.5427 107.206C59.6289 106.646 56.963 105.012 54.8371 102.395C63.3295 97.9561 71.1879 92.5462 76.9383 86.4197C82.6907 80.2911 86.4078 73.3625 86.4078 65.9201C86.4078 60.7691 84.0991 55.9871 79.1983 52.5283C74.3306 49.0929 66.9664 47 56.8645 47C33.8767 47 10.3965 57.734 2.96093 61.5265C2.18538 61.9221 1.76814 62.7693 1.90336 63.6149C2.7556 68.9441 3.63913 73.7495 4.19849 76.7245C4.30367 77.2838 4.66715 77.7071 4.99018 77.987C5.33224 78.2833 5.74837 78.5235 6.16516 78.6975C6.58215 78.8716 7.04512 78.9983 7.49551 79.0344C7.92068 79.0685 8.47342 79.0325 8.94488 78.725C16.3773 73.8772 26.0117 68.8633 35.5396 65.064C45.0927 61.2547 54.4273 58.7119 61.2924 58.7119C67.0303 58.7119 70.8524 60.0402 73.0522 62.0853C75.2036 64.0856 75.9666 66.9272 75.257 70.4086C74.5405 73.9233 72.3224 78.0317 68.5779 82.3183C64.8463 86.5902 59.6416 90.9892 53.0356 95.0929C53.005 85.1333 53.5614 75.1805 54.7018 65.2872C54.8712 63.8179 53.4299 62.6478 52.0143 63.19C48.3051 64.6107 44.6782 66.2409 41.1507 68.073C40.4712 68.4259 40.0608 69.1357 40.0779 69.8901C40.3673 82.6845 41.0562 92.312 42.2757 100.858C42.2757 100.858 42.2757 100.859 42.2758 100.859C40.0455 101.901 37.7108 102.894 35.2714 103.838C34.352 104.194 33.8229 105.167 34.0331 106.136C34.1992 106.901 34.3692 107.7 34.542 108.532C34.7851 109.703 36.0014 110.415 37.1485 110.017C39.218 109.299 41.3029 108.516 43.383 107.676L43.386 107.675H43.3869L80.7244 115.516ZM110.72 102.034H110.725C112.113 102.028 113.47 101.709 114.701 101.114C114.772 101.08 114.913 101.072 115.05 101.146C115.11 101.178 115.138 101.211 115.147 101.226C115.148 101.227 115.148 101.228 115.149 101.229C115.069 102.767 114.979 104.341 114.879 105.949L114.878 105.95C114.877 105.952 114.875 105.954 114.872 105.955C114.871 105.956 114.87 105.956 114.868 105.957C104.826 109.187 96.879 113.761 91.4226 118.673C85.9984 123.557 82.9078 128.897 82.9078 133.663C82.9078 136.949 83.7985 139.821 85.8287 141.87C87.8615 143.922 90.8895 145 94.8549 145C100.881 145 106.572 141.886 111.156 137.234C115.747 132.575 119.312 126.297 121.095 119.764C121.464 118.412 120.345 117.143 118.969 117.311C117.247 117.522 115.537 117.821 113.845 118.209C113.191 118.359 112.675 118.83 112.438 119.422C109.28 127.329 106.191 132.137 103.19 134.965C100.228 137.755 97.3238 138.642 94.3934 138.642C92.9121 138.642 91.7998 138.261 91.0709 137.622C90.3623 137.001 89.891 136.027 89.891 134.557C89.891 132.347 90.8851 129.97 92.8577 127.608C94.8274 125.249 97.7293 122.96 101.413 120.956C108.779 116.948 119.151 114.143 131.05 114.143C147.333 114.143 159.706 117.489 163.271 118.569C164.402 118.911 165.601 118.215 165.846 117.046C167.264 110.273 168.011 106.404 168.323 104.743C168.524 103.67 167.823 102.612 166.705 102.439C161.267 101.596 142.343 99.6552 124.026 103.514C124.025 103.513 124.022 103.512 124.019 103.509C124.014 103.504 124.011 103.499 124.01 103.497C124.009 103.496 124.009 103.495 124.009 103.495V103.494C124.009 103.494 124.009 103.493 124.009 103.49C124.798 93.0932 125.254 86.5379 125.578 81.8917C125.989 75.9878 126.185 73.1662 126.576 69.4614C126.711 68.1786 125.609 67.0757 124.3 67.2764C122.641 67.5305 119.614 68.0257 116.827 68.6495C115.868 68.8642 115.226 69.7419 115.278 70.703C115.333 71.7342 115.382 72.7704 115.424 73.8139C115.424 73.8141 115.424 73.8142 115.424 73.8144C115.421 73.8194 115.409 73.8366 115.379 73.8563C115.309 73.9025 115.22 73.9136 115.154 73.8929C114.216 73.5983 113.234 73.4518 112.244 73.4625C108.273 73.4642 105.281 75.3036 103.29 78.0237C101.321 80.7149 100.339 84.2469 100.249 87.7223C100.159 91.1964 100.957 94.7253 102.675 97.4199C104.412 100.143 107.115 102.034 110.72 102.034ZM113.307 94.1139V94.1138H113.295C111.937 94.1138 110.974 93.495 110.317 92.5201C109.636 91.509 109.282 90.0954 109.302 88.6153C109.322 87.1365 109.715 85.7057 110.396 84.6766C111.063 83.669 111.965 83.0896 113.093 83.0896H113.098C113.622 83.0867 114.14 83.2008 114.616 83.424C114.989 83.5992 115.328 83.8382 115.619 84.1298C115.615 87.0642 115.569 90.0939 115.473 93.2702C115.223 93.5051 114.935 93.6973 114.623 93.8387C114.209 94.0257 113.76 94.1195 113.307 94.1139ZM136.226 96.615H136.228C139.274 96.615 141.8 94.9718 143.684 92.482C144.193 91.8095 144.168 90.9511 143.818 90.3098C143.68 90.0571 143.551 89.7993 143.433 89.537C143.101 88.8016 142.426 88.3922 141.773 88.2639C141.122 88.1361 140.365 88.259 139.776 88.7428C139.262 89.1651 138.85 89.3258 138.561 89.3583C138.301 89.3875 138.085 89.3222 137.879 89.1461C137.396 88.7337 136.881 87.613 136.881 85.5036C136.881 81.8715 137.722 77.3343 139.326 72.4625C139.605 71.6161 139.283 70.8162 138.784 70.315C138.289 69.8183 137.518 69.5058 136.705 69.6879C134.728 70.131 132.655 70.0352 130.706 69.3913C130.5 69.3232 130.276 69.3054 130.055 69.3453C129.55 69.4367 129.141 69.8144 129.013 70.3165C127.909 74.6573 127.373 79.1249 127.418 83.6061C127.418 87.312 128.227 90.5177 129.728 92.8323C131.246 95.1725 133.49 96.6108 136.226 96.615ZM75.4078 98.1719C75.4078 102.908 76.8975 106.561 79.2364 108.985C81.5734 111.408 84.7032 112.54 87.8349 112.312C94.1808 111.851 100.117 105.931 100.117 94.9249C100.117 92.4791 99.1933 89.2541 97.3064 86.6233C95.4011 83.9669 92.4488 81.8385 88.4099 81.8378C80.8265 81.8216 75.4078 89.329 75.4078 98.1719ZM91.778 97.5109C91.778 102.51 89.5535 104.163 87.9918 104.182C86.3792 104.201 84.2299 102.535 84.2299 98.4915C84.2299 94.0438 86.4003 92.3744 88.0473 92.3029C89.6889 92.2318 91.778 93.7022 91.778 97.4964V97.5109ZM129.628 57.7672C129.266 58.5586 129.064 59.4144 129.035 60.2844C128.927 61.1482 128.992 62.0251 129.225 62.8639C129.463 63.7198 129.872 64.5183 130.427 65.2107C130.982 65.903 131.671 66.4747 132.454 66.8905C133.236 67.3063 134.095 67.5573 134.977 67.628C135.86 67.6987 136.747 67.5876 137.585 67.3015C138.423 67.0155 139.194 66.5606 139.851 65.965C140.508 65.3694 141.037 64.6456 141.407 63.8381C141.769 63.0468 141.97 62.191 142 61.321C142.107 60.4572 142.043 59.5802 141.81 58.7414C141.572 57.8855 141.163 57.087 140.608 56.3947C140.053 55.7023 139.363 55.1306 138.581 54.7149C137.799 54.2991 136.94 54.048 136.057 53.9773C135.175 53.9066 134.288 54.0177 133.449 54.3038C132.611 54.5899 131.84 55.0448 131.183 55.6404C130.526 56.2359 129.997 56.9597 129.628 57.7672ZM140.358 82.561C141.144 82.9472 141.946 83.2967 142.764 83.6084C142.771 83.6111 142.78 83.6165 142.788 83.6278C142.791 83.6325 142.794 83.6376 142.796 83.6432C142.8 83.652 142.802 83.6618 142.803 83.6723C143.108 90.3061 147.51 95.7288 153.882 95.7288C158.048 95.7288 161.947 92.9612 164.196 90.4868C164.862 89.7538 164.838 88.6846 164.267 87.9604L163.466 86.9431C162.694 85.9632 161.296 85.9562 160.445 86.6884C159.963 87.103 159.308 87.6006 158.57 87.9907C157.825 88.384 157.055 88.6368 156.326 88.6368C155.351 88.6368 154.439 88.3939 153.7 87.8899C152.996 87.4106 152.394 86.6587 152.04 85.522C155.707 85.5629 159.278 84.5528 161.96 82.583C164.67 80.5929 166.463 77.6221 166.463 73.8668C166.463 69.1611 162.85 65.7482 157.992 65.7482C151.262 65.7482 145.592 71.6966 143.598 78.018C143.594 78.0302 143.589 78.0397 143.582 78.0472C143.579 78.0513 143.575 78.0545 143.572 78.0569C143.245 77.9266 142.92 77.7899 142.598 77.6469C141.587 77.1979 140.346 77.632 139.918 78.7287C139.746 79.1692 139.553 79.6699 139.396 80.0792C139.036 81.0155 139.425 82.1021 140.358 82.561ZM158.759 74.724C158.759 76.5236 156.964 79.3134 152.146 79.5341C153.037 75.9638 154.998 73.9394 156.537 73.2927C157.323 72.9627 157.872 73.0307 158.17 73.2052C158.432 73.3583 158.759 73.7473 158.759 74.7094V74.724Z" stroke="black" stroke-width="2" stroke-linejoin="round"/>
<g style="mix-blend-mode:screen">
<g style="mix-blend-mode:screen">
<path d="M76.408 98.1719C76.408 116.266 99.1171 116.208 99.1171 94.9249C99.1171 90.4576 95.6917 82.8378 88.408 82.8378C81.6003 82.8232 76.408 89.6295 76.408 98.1719ZM92.7782 97.5109C92.7782 107.949 83.23 107.201 83.23 98.4915C83.23 88.9903 92.7782 89.1574 92.7782 97.4964V97.5109ZM80.1323 113.753C80.1919 113.787 80.2443 113.832 80.2857 113.887L80.331 113.947C80.5009 114.171 80.4493 114.494 80.2166 114.652C70.8794 120.997 60.3655 117.057 53.7189 109.736C53.3878 109.371 52.76 109.631 52.8084 110.121C53.4477 116.596 54.6515 123.003 56.4062 129.267C56.4677 129.486 56.3754 129.719 56.1795 129.835C55.4386 130.276 53.5604 131.407 51.6041 132.691C51.3245 132.874 50.9455 132.738 50.8473 132.419C47.9473 122.984 45.8069 115.24 44.2692 106.889C44.2114 106.576 43.8792 106.394 43.5839 106.515C41.1484 107.511 38.7046 108.43 36.2855 109.256C36.001 109.354 35.6964 109.178 35.6359 108.883C35.3908 107.69 35.1506 106.563 34.9186 105.502C34.8657 105.259 34.9981 105.015 35.2297 104.926C37.959 103.88 40.5617 102.773 43.0379 101.606C43.2366 101.512 43.35 101.3 43.3185 101.083C42.0639 92.4305 41.3597 82.6685 41.0709 69.5579C41.0667 69.3685 41.17 69.1911 41.3378 69.1033C45.1591 67.1042 49.0991 65.3448 53.1353 63.8349C53.485 63.7041 53.8473 63.9914 53.8034 64.3622C52.5592 74.859 51.9703 85.424 52.0401 95.995C52.0427 96.3806 52.4715 96.6113 52.8011 96.4109C80.1965 79.7543 84.9546 57.7119 61.2926 57.7119C46.7504 57.7119 21.9437 68.7492 7.07423 78.7652C6.66843 79.0386 5.56819 78.5841 5.47701 78.1034C4.97039 75.4325 3.87294 69.6358 2.83441 63.1021C2.80068 62.8898 2.89423 62.685 3.08527 62.5866C10.1075 58.9682 33.7765 48 56.8647 48C76.8262 48 85.408 56.2809 85.408 65.9201C85.408 80.2539 70.9436 92.957 53.8373 101.787C53.5668 101.927 53.481 102.275 53.6642 102.518C58.2974 108.667 65.7424 110.325 73.0842 106.02C73.3666 105.854 73.7349 105.988 73.8474 106.295C75.0006 109.445 77.2243 112.089 80.1323 113.753ZM123.569 104.635C123.241 104.707 122.935 104.428 122.96 104.093C124.856 79.1581 124.877 75.8361 125.65 68.7173C125.685 68.3932 125.409 68.1213 125.087 68.169C123.626 68.3852 119.899 68.966 116.638 69.7181C116.401 69.7725 116.24 69.9896 116.253 70.2315C116.335 71.6982 116.403 73.1742 116.458 74.6662C116.473 75.0569 116.049 75.3157 115.691 75.1596C114.608 74.6878 113.436 74.449 112.249 74.4625C97.7614 74.4625 97.9128 101.034 110.72 101.034C112.367 101.027 113.965 100.526 115.316 99.6078C115.685 99.3569 116.23 99.621 116.209 100.067C116.109 102.102 115.991 104.198 115.855 106.357C115.842 106.563 115.7 106.741 115.503 106.804C95.4353 113.17 83.908 124.907 83.908 133.663C83.908 139.889 87.2757 144 94.855 144C106.403 144 117.018 131.835 120.307 118.829C120.39 118.498 120.119 118.188 119.78 118.225C117.773 118.441 115.781 118.781 113.815 119.243C113.656 119.28 113.525 119.397 113.464 119.549C107.065 135.687 100.779 139.642 94.3936 139.642C91.1123 139.642 88.8912 137.956 88.8912 134.557C88.8912 124.496 106.956 113.143 131.05 113.143C148.423 113.143 161.383 116.921 164.104 117.779C164.391 117.87 164.69 117.687 164.751 117.393C166.411 109.484 167.187 105.39 167.431 104.074C167.48 103.805 167.31 103.551 167.04 103.506C162.359 102.718 142.522 100.491 123.569 104.635ZM113.295 95.1138C106.393 95.1138 106.949 82.0896 113.093 82.0896C113.766 82.0859 114.431 82.2325 115.041 82.5189C115.597 82.7799 116.094 83.151 116.503 83.6095C116.58 83.6961 116.619 83.8091 116.619 83.9251C116.618 86.9968 116.569 90.1708 116.466 93.5059C116.463 93.6203 116.421 93.7309 116.342 93.8143C115.972 94.209 115.528 94.527 115.034 94.7499C114.488 94.9971 113.894 95.1212 113.295 95.1138ZM130.033 60.3632C130.052 59.6096 130.224 58.8679 130.537 58.1833C130.85 57.4987 131.299 56.8855 131.855 56.3812C132.411 55.877 133.064 55.4921 133.772 55.2502C134.481 55.0083 135.232 54.9143 135.978 54.9741C136.724 55.0339 137.45 55.2461 138.112 55.5979C138.774 55.9497 139.357 56.4336 139.828 57.0201C140.298 57.6066 140.644 58.2835 140.846 59.0094C141.048 59.7353 141.101 60.495 141.002 61.2421C140.982 61.9957 140.811 62.7374 140.498 63.422C140.184 64.1066 139.736 64.7198 139.18 65.2241C138.623 65.7284 137.971 66.1132 137.262 66.3551C136.553 66.5971 135.803 66.691 135.057 66.6312C134.311 66.5714 133.585 66.3592 132.923 66.0074C132.261 65.6557 131.677 65.1718 131.207 64.5852C130.737 63.9987 130.39 63.3218 130.188 62.596C129.987 61.8701 129.934 61.1104 130.033 60.3632ZM140.171 80.8496C140.081 81.085 140.18 81.3508 140.405 81.4657C141.393 81.9715 142.41 82.4164 143.452 82.798C143.651 82.871 143.785 83.0607 143.789 83.2728C143.937 89.6996 148.082 94.7288 153.882 94.7288C157.8 94.7288 161.599 91.9775 163.721 89.5145C163.874 89.3372 163.875 89.0776 163.73 88.8938L162.316 87.0995C162.125 86.8571 161.76 86.8397 161.536 87.0514C160.663 87.8747 158.537 89.6368 156.326 89.6368C153.897 89.6368 151.558 88.3438 150.896 85.0745C150.833 84.763 151.094 84.4891 151.411 84.5037C158.637 84.8376 165.463 80.8667 165.463 73.8668C165.463 69.7554 162.341 66.7482 157.992 66.7482C151.68 66.7482 146.159 72.5609 144.394 78.8471C144.315 79.1315 144.012 79.2955 143.736 79.1919C143.051 78.9355 142.377 78.6524 141.714 78.343C141.455 78.2221 141.147 78.3373 141.042 78.6031C140.785 79.251 140.389 80.2805 140.171 80.8496ZM159.759 74.724C159.759 77.3057 157.182 80.5688 151.484 80.5478C151.183 80.5466 150.961 80.2694 151.021 79.9746C152.687 71.7643 159.759 69.8212 159.759 74.7094V74.724ZM128.418 83.6005C128.373 79.2043 128.899 74.8213 129.982 70.563C130.013 70.4426 130.111 70.3515 130.233 70.3294C130.286 70.3198 130.341 70.3239 130.392 70.3408C132.889 71.1656 135.572 71.1643 138.053 70.3535C138.472 70.2167 138.898 70.6243 138.753 71.04C136.886 76.3886 135.881 81.4519 135.881 85.5036C135.881 90.3338 138.411 91.8246 141.162 88.7931C141.445 88.482 141.991 88.5833 142.132 88.9793C142.389 89.7051 142.713 90.4058 143.099 91.0721C143.199 91.2431 143.195 91.4567 143.079 91.6171C141.299 94.0904 138.972 95.615 136.228 95.615C131.547 95.6077 128.418 90.7554 128.418 83.6005Z" fill="#FEF3E6"/>
</g>
<g style="mix-blend-mode:screen">
<path d="M110.72 102.034H110.725C112.291 102.027 113.817 101.622 115.167 100.872C115.083 102.526 114.987 104.219 114.878 105.954C104.887 109.166 96.9684 113.709 91.5131 118.592C86.0321 123.498 82.9079 128.871 82.9079 133.663C82.9079 136.949 83.7986 139.821 85.8288 141.87C87.8616 143.922 90.8896 145 94.855 145C100.987 145 106.771 141.776 111.397 136.986C116.031 132.19 119.59 125.741 121.276 119.074C121.532 118.062 120.699 117.12 119.672 117.23C117.625 117.452 115.592 117.798 113.587 118.269C113.096 118.384 112.71 118.738 112.535 119.18C109.359 127.189 106.254 132.059 103.236 134.921C100.258 137.746 97.3383 138.642 94.3935 138.642C92.9122 138.642 91.7999 138.261 91.071 137.622C90.3624 137.001 89.8911 136.027 89.8911 134.557C89.8911 132.347 90.8852 129.97 92.8578 127.608C94.8275 125.249 97.7294 122.96 101.413 120.956C108.779 116.948 119.151 114.143 131.05 114.143C148.286 114.143 161.14 117.893 163.803 118.733C164.677 119.009 165.552 118.447 165.73 117.599C167.391 109.683 168.169 105.581 168.414 104.255C168.561 103.46 168.049 102.661 167.206 102.519C162.515 101.73 142.934 99.5267 124.007 103.518C124.797 93.104 125.254 86.5406 125.578 81.89C126.012 75.653 126.207 72.8562 126.644 68.8252C126.748 67.8676 125.928 67.0337 124.94 67.1798C123.475 67.3967 119.715 67.9822 116.413 68.7437C115.697 68.9086 115.215 69.5645 115.255 70.2867C115.323 71.5115 115.381 72.7429 115.431 73.9848C114.41 73.6289 113.332 73.4508 112.244 73.4625C108.273 73.4642 105.281 75.3036 103.29 78.0237C101.321 80.7149 100.339 84.2469 100.249 87.7223C100.159 91.1964 100.957 94.7253 102.675 97.4199C104.412 100.143 107.115 102.034 110.72 102.034ZM113.307 94.1139V94.1138H113.295C111.937 94.1138 110.974 93.495 110.317 92.5201C109.636 91.509 109.282 90.0954 109.302 88.6153C109.322 87.1365 109.715 85.7057 110.396 84.6766C111.063 83.669 111.965 83.0896 113.093 83.0896H113.098C113.622 83.0867 114.14 83.2008 114.616 83.424C114.989 83.5992 115.328 83.8382 115.619 84.1298C115.615 87.0642 115.569 90.0939 115.473 93.2702C115.223 93.5051 114.935 93.6973 114.623 93.8387C114.209 94.0257 113.76 94.1195 113.307 94.1139ZM136.226 96.615H136.228C139.389 96.615 141.986 94.8473 143.891 92.2013C144.252 91.6989 144.247 91.0578 143.964 90.5703C143.609 89.9574 143.311 89.3129 143.074 88.6451C142.672 87.5103 141.194 87.2705 140.422 88.1211C139.133 89.5415 138.339 89.4436 138.012 89.2435C137.779 89.1007 137.491 88.7784 137.26 88.1404C137.03 87.508 136.881 86.6315 136.881 85.5036C136.881 81.5989 137.853 76.6509 139.697 71.3696C140.138 70.1052 138.88 69.0314 137.743 69.4029C135.463 70.1477 132.999 70.1489 130.706 69.3913C130.5 69.3232 130.276 69.3054 130.055 69.3453C129.55 69.4367 129.141 69.8144 129.013 70.3165C127.909 74.6573 127.373 79.1249 127.418 83.6061C127.418 87.312 128.227 90.5177 129.728 92.8323C131.246 95.1725 133.49 96.6108 136.226 96.615ZM75.4079 98.1719C75.4079 102.908 76.8976 106.561 79.2365 108.985C81.5735 111.408 84.7033 112.54 87.835 112.312C94.1809 111.851 100.117 105.931 100.117 94.9249C100.117 92.4791 99.1934 89.2541 97.3065 86.6233C95.4012 83.9669 92.4489 81.8385 88.41 81.8378C80.8266 81.8216 75.4079 89.329 75.4079 98.1719ZM91.7781 97.5109C91.7781 102.51 89.5536 104.163 87.9919 104.182C86.3793 104.201 84.23 102.535 84.23 98.4915C84.23 94.0438 86.4004 92.3744 88.0474 92.3029C89.689 92.2318 91.7781 93.7022 91.7781 97.4964V97.5109ZM81.1279 113.343L81.0827 113.283C80.9575 113.118 80.8018 112.983 80.6287 112.884C77.9268 111.339 75.859 108.881 74.7864 105.951C74.4613 105.064 73.4034 104.673 72.5782 105.157C69.0868 107.205 65.6349 107.8 62.547 107.207C59.6326 106.647 56.9645 105.014 54.8372 102.395C63.2448 98.0004 71.0295 92.6549 76.7632 86.6054C82.6156 80.4308 86.4079 73.4375 86.4079 65.9201C86.4079 60.7691 84.0992 55.9871 79.1984 52.5283C74.3307 49.0929 66.9665 47 56.8646 47C33.5248 47 9.67617 58.0654 2.62716 61.6977C2.0197 62.0107 1.75118 62.6578 1.84675 63.2591C2.88776 69.8084 3.98757 75.6174 4.49447 78.2898C4.57739 78.7269 4.85268 79.0302 5.05323 79.2039C5.27214 79.3935 5.52823 79.5389 5.77521 79.6411C6.02226 79.7433 6.30586 79.8213 6.59418 79.8421C6.85821 79.8612 7.26569 79.8419 7.63284 79.5946C15.0049 74.6288 24.8619 69.397 34.6823 65.4091C44.5286 61.4106 54.2196 58.7119 61.2925 58.7119C67.0836 58.7119 70.9224 60.0648 73.1124 62.1418C75.2546 64.1734 75.9883 67.0627 75.2162 70.602C74.4374 74.1727 72.1275 78.3388 68.2661 82.6719C64.558 86.833 59.4589 91.1028 53.0357 95.0929C53.0043 84.8623 53.5922 74.639 54.7963 64.4799C54.9273 63.3747 53.8445 62.502 52.7849 62.8983C48.7099 64.4227 44.732 66.199 40.8741 68.2172C40.3646 68.4838 40.0586 69.0161 40.071 69.5799C40.3563 82.5296 41.0465 92.2437 42.2759 100.859C39.9241 101.957 37.4561 103.002 34.8718 103.992C34.1801 104.257 33.7828 104.988 33.9416 105.715C34.1727 106.773 34.4121 107.896 34.6562 109.085C34.837 109.965 35.7497 110.496 36.6088 110.203C38.86 109.433 41.1315 108.585 43.3972 107.67C44.9367 115.849 47.0563 123.489 49.8913 132.712C50.1861 133.672 51.3186 134.074 52.1527 133.527C54.0914 132.254 55.9554 131.132 56.6905 130.695C57.2777 130.346 57.5516 129.649 57.369 128.997C55.7572 123.243 54.6144 117.367 53.9514 111.429C60.8312 118.307 71.3282 121.901 80.7785 115.479C81.4894 114.996 81.6402 114.019 81.1279 113.343ZM129.628 57.7672C129.266 58.5586 129.064 59.4144 129.035 60.2844C128.927 61.1482 128.992 62.0251 129.225 62.8639C129.463 63.7198 129.872 64.5183 130.427 65.2107C130.982 65.903 131.671 66.4747 132.454 66.8905C133.236 67.3063 134.095 67.5573 134.977 67.628C135.86 67.6987 136.747 67.5876 137.585 67.3015C138.423 67.0155 139.194 66.5606 139.851 65.965C140.508 65.3694 141.037 64.6456 141.407 63.8381C141.769 63.0468 141.97 62.191 142 61.321C142.107 60.4572 142.043 59.5802 141.81 58.7414C141.572 57.8855 141.163 57.087 140.608 56.3947C140.053 55.7023 139.363 55.1306 138.581 54.7149C137.799 54.2991 136.94 54.048 136.057 53.9773C135.175 53.9066 134.288 54.0177 133.449 54.3038C132.611 54.5899 131.84 55.0448 131.183 55.6404C130.526 56.2359 129.997 56.9597 129.628 57.7672ZM139.949 82.3559C140.876 82.8302 141.828 83.253 142.8 83.6223C143.089 90.2806 147.492 95.7288 153.882 95.7288C158.22 95.7288 162.271 92.7292 164.479 90.1673C164.956 89.613 164.945 88.8195 164.515 88.2748L163.101 86.4805C162.527 85.7515 161.477 85.7318 160.849 86.324C160.444 86.707 159.754 87.3002 158.923 87.7926C158.081 88.2916 157.178 88.6368 156.326 88.6368C155.285 88.6368 154.316 88.36 153.55 87.783C152.917 87.3058 152.37 86.5839 152.04 85.522C155.602 85.5616 159.069 84.6101 161.72 82.7548C164.562 80.7666 166.463 77.7343 166.463 73.8668C166.463 69.1611 162.85 65.7482 157.992 65.7482C154.521 65.7482 151.329 67.3451 148.804 69.7105C146.41 71.9533 144.563 74.9321 143.584 78.0617C143.096 77.8676 142.613 77.6592 142.137 77.4368C141.378 77.0826 140.439 77.4117 140.112 78.2346C139.853 78.8886 139.455 79.9234 139.238 80.4917C138.968 81.1958 139.262 82.0041 139.949 82.3559ZM158.759 74.724C158.759 76.5166 156.964 79.3175 152.146 79.5345C153.014 76.0547 154.904 74.0355 156.43 73.34C157.249 72.9666 157.832 73.0198 158.148 73.1926C158.419 73.3407 158.759 73.7261 158.759 74.7094V74.724Z" stroke="black" stroke-width="2" stroke-linejoin="round"/>
</g>
</g>
</svg>
