<svg width="128" height="128" viewBox="0 0 128 128" fill="none" xmlns="http://www.w3.org/2000/svg">
<path d="M27.1306 102.176C31.3852 102.176 34.8342 98.7408 34.8342 94.5027C34.8342 90.2647 31.3852 86.8291 27.1306 86.8291C22.876 86.8291 19.427 90.2647 19.427 94.5027C19.427 98.7408 22.876 102.176 27.1306 102.176Z" fill="#FFE6C8"/>
<path d="M85.5295 88.33C89.0063 88.33 91.8247 85.5225 91.8247 82.0593C91.8247 78.596 89.0063 75.7885 85.5295 75.7885C82.0528 75.7885 79.2344 78.596 79.2344 82.0593C79.2344 85.5225 82.0528 88.33 85.5295 88.33Z" fill="#FFE6C8"/>
<path d="M26.219 77.1542C27.7097 82.3263 37.4966 105.579 38.1211 107.176C39.9425 111.848 46.4441 112.174 47.8945 110.345C54.8528 120.355 69.7177 115.896 75.2306 108.679C85.3365 110.012 94.9723 93.6677 90.4985 87.6641C86.3705 82.1319 88.6754 81.9916 82.7126 80.1645C83.5402 82.1657 88.38 53.3084 87.0202 53.3084C86.854 53.3017 63.1624 31.2831 26.219 77.1542Z" fill="#FFE6C8"/>
<path d="M27.1306 102.176C31.3852 102.176 34.8342 98.7408 34.8342 94.5027C34.8342 90.2647 31.3852 86.8291 27.1306 86.8291C22.876 86.8291 19.427 90.2647 19.427 94.5027C19.427 98.7408 22.876 102.176 27.1306 102.176Z" fill="#FFE6C8"/>
<path d="M85.5295 88.33C89.0063 88.33 91.8247 85.5225 91.8247 82.0593C91.8247 78.596 89.0063 75.7885 85.5295 75.7885C82.0528 75.7885 79.2344 78.596 79.2344 82.0593C79.2344 85.5225 82.0528 88.33 85.5295 88.33Z" fill="#FFE6C8"/>
<path d="M26.219 77.1542C27.7097 82.3264 37.4966 105.579 38.1211 107.176C39.9425 111.848 46.4441 112.174 47.8945 110.345C54.8528 120.355 69.7177 115.896 75.2306 108.679C85.3365 110.012 94.9723 93.6678 90.4985 87.6641C86.3705 82.132 88.6754 81.9917 82.7126 80.1645C83.5402 82.1658 87.7689 58.5296 87.0202 53.3085C85.9458 45.8427 63.1624 31.2831 26.219 77.1542Z" fill="#FFE6C8"/>
<path d="M28.8428 84.4915C28.8428 84.4915 37.4965 105.579 38.121 107.176C39.9424 111.848 46.444 112.174 47.8944 110.345C54.8527 120.355 69.7177 115.896 75.2306 108.679C85.3364 110.012 94.2822 93.4987 89.8101 87.4933C85.6889 81.9612 83.0164 78.1531 73.7399 84.1568C74.5675 86.1598 75.4186 87.4967 75.2507 87.6641C73.7583 89.498 68.1262 91.3335 65.3094 90.8332C65.1415 90.8045 65.2842 87.8263 65.2842 87.8263C65.2842 87.8263 52.6939 81.488 39.5999 92.6638C35.2924 85.9924 35.4032 83.6853 34.6293 78.6534C31.1628 80.822 28.8428 84.4915 28.8428 84.4915Z" fill="#6B4B39"/>
<path d="M34.7602 75.2966C35.0154 76.7942 35.2823 78.3069 35.5861 79.7943C35.89 81.2818 36.219 82.7624 36.6286 84.2092C37.0214 85.6483 37.5076 87.0599 38.084 88.4348C38.6366 89.7789 39.3431 91.0535 40.1891 92.2328L40.1992 92.248C40.2735 92.3492 40.3272 92.4642 40.3572 92.5863C40.3872 92.7085 40.3929 92.8354 40.3741 92.9598C40.3552 93.0842 40.3121 93.2036 40.2472 93.3112C40.1823 93.4188 40.097 93.5124 39.9961 93.5866C39.801 93.7303 39.559 93.7939 39.319 93.7648C39.079 93.7356 38.859 93.6157 38.7035 93.4294C37.6796 92.1599 36.8486 90.7444 36.2375 89.2292C35.6331 87.7576 35.1513 86.2379 34.7971 84.6859C34.6192 83.9168 34.4614 83.1444 34.3304 82.3686C34.2633 81.9815 34.2079 81.5928 34.1508 81.2057C34.0937 80.8186 34.0551 80.4265 34.0132 80.0361C33.9712 79.6456 33.9393 79.2569 33.9108 78.8664C33.8822 78.476 33.8621 78.0838 33.8487 77.6934C33.8201 76.9091 33.8134 76.1316 33.8604 75.3271C33.8678 75.2066 33.9222 75.0939 34.0119 75.0138C34.1016 74.9336 34.2191 74.8925 34.3388 74.8994C34.4409 74.9059 34.5378 74.9468 34.6139 75.0154C34.69 75.0841 34.741 75.1766 34.7585 75.2781L34.7602 75.2966Z" fill="black"/>
<path d="M73.7819 83.1841C72.0086 79.4757 71.4347 73.5892 72.942 69.3906C75.4455 62.4175 83.3833 62.3918 85.0502 67.3748C85.0502 67.3748 83.2543 81.0992 82.5676 81.1008C78.5616 81.1153 74.496 83.2436 74.496 83.2436" fill="white"/>
<mask id="mask0_711_7331" style="mask-type:alpha" maskUnits="userSpaceOnUse" x="72" y="63" width="14" height="21">
<path d="M73.7819 83.1841C72.0086 79.4757 71.4347 73.5892 72.942 69.3906C75.4455 62.4175 83.3833 62.3918 85.0502 67.3748C85.0502 67.3748 83.2543 81.0992 82.5676 81.1008C78.5616 81.1153 74.496 83.2436 74.496 83.2436" fill="white"/>
</mask>
<g mask="url(#mask0_711_7331)">
<path d="M78.2475 72.8386C76.6983 72.329 76.3468 71.2311 79.3179 70.4017C79.5187 70.3437 79.6998 70.2323 79.8419 70.0794C79.9839 69.9264 80.0814 69.7377 80.1239 69.5336C80.6962 66.801 80.8719 64.5682 79.6693 63.9076C79.6693 63.9076 74.501 61.768 71.8299 69.6285C70.0727 74.798 72.9261 83.2275 72.9261 83.2275C72.9261 83.2275 75.2603 82.7308 78.3925 81.9624C77.8267 80.2618 78.1926 77.6223 79.0132 74.2129C79.0837 73.9297 79.0439 73.6304 78.9018 73.3753C78.7597 73.1202 78.5259 72.9284 78.2475 72.8386V72.8386Z" fill="black"/>
</g>
<path d="M85.2361 67.5367C83.7521 61.1327 66.6673 61.4582 74.0081 83.7448" stroke="black" stroke-width="2.2"/>
<path d="M63.9211 89.1734C63.8204 89.1261 63.7197 89.0771 63.6206 89.0264L63.2715 88.8929C63.1539 88.8472 63.0196 88.8134 62.8954 88.7712C62.7665 88.7281 62.6353 88.692 62.5026 88.663C61.9498 88.5233 61.3892 88.4166 60.8239 88.3435C59.6509 88.1946 58.469 88.1291 57.2868 88.1475C56.0903 88.1639 54.8958 88.2514 53.7095 88.4095C52.5212 88.5637 51.3437 88.7934 50.1842 89.0974C49.0327 89.3981 47.9054 89.7857 46.8117 90.2569C45.7228 90.7201 44.6768 91.2795 43.6859 91.9285C41.7061 93.2384 40.0427 94.9779 38.8177 97.0195V97.033C38.7644 97.1217 38.6943 97.1989 38.6114 97.2603C38.5285 97.3216 38.4343 97.3659 38.3344 97.3905C38.2344 97.4152 38.1306 97.4197 38.0289 97.4039C37.9272 97.3881 37.8296 97.3522 37.7416 97.2984C37.5807 97.2001 37.4603 97.0468 37.4023 96.8665C37.3444 96.6862 37.3528 96.4909 37.426 96.3163C38.5025 93.8311 40.195 91.666 42.3413 90.0287C43.4048 89.2117 44.545 88.5012 45.7457 87.9075C46.9369 87.3222 48.1717 86.8316 49.4389 86.4404C51.974 85.6804 54.6002 85.2721 57.2449 85.2268C58.5796 85.2008 59.9141 85.285 61.2352 85.4786C61.9156 85.5825 62.5885 85.731 63.2496 85.9231C63.9797 86.1235 64.6789 86.4238 65.3279 86.8156C65.6349 87.008 65.8535 87.3153 65.9356 87.67C66.0178 88.0246 65.9568 88.3976 65.766 88.7069C65.5907 88.9905 65.3189 89.2001 65.0013 89.2966C64.6837 89.393 64.342 89.3697 64.0403 89.2309L63.9211 89.1734Z" fill="black"/>
<path d="M24.3438 65.7232C25.0488 68.0709 25.7539 70.4203 26.516 72.7579C26.8971 73.9259 27.2748 75.0955 27.676 76.2584L28.2619 78.0078L28.8629 79.7538C29.259 80.9184 29.6737 82.0779 30.0816 83.239C30.4895 84.4002 30.9042 85.5614 31.3171 86.7226L33.852 93.6678C34.7031 95.9834 35.5844 98.2872 36.4439 100.598L37.7415 104.083L38.0655 104.989C38.1595 105.254 38.2552 105.516 38.361 105.773C38.5693 106.279 38.8145 106.768 39.0946 107.237C39.6154 108.134 40.3248 108.905 41.1728 109.497C41.9869 110.049 42.9329 110.371 43.9125 110.43C44.912 110.487 45.9086 110.275 46.7999 109.816C47.7113 109.362 48.4544 108.626 48.9201 107.715L48.9352 107.683C48.9792 107.594 49.0402 107.515 49.1147 107.45C49.1892 107.385 49.2757 107.335 49.3692 107.304C49.4628 107.273 49.5615 107.26 49.6599 107.267C49.7582 107.274 49.8542 107.301 49.9424 107.345C50.0875 107.417 50.2058 107.534 50.2796 107.679C50.3533 107.824 50.3788 107.989 50.352 108.15C50.2203 108.879 49.9341 109.57 49.5127 110.178C49.097 110.784 48.5788 111.311 47.9817 111.736C46.7768 112.595 45.3399 113.062 43.8638 113.075C43.12 113.082 42.3793 112.978 41.6664 112.764C40.9578 112.548 40.2834 112.231 39.6637 111.823C38.4714 111.019 37.4686 109.962 36.7259 108.726C36.3666 108.132 36.0524 107.512 35.7858 106.87C35.6516 106.556 35.5307 106.24 35.4182 105.924L35.1009 105.09L33.7412 101.654C32.8246 99.3554 31.9332 97.0449 31.0552 94.7242L29.7375 91.249L28.4549 87.7706C27.6156 85.438 26.7762 83.1021 25.9973 80.746L25.4064 78.9814L24.8339 77.2083C24.4512 76.0251 24.0903 74.842 23.7277 73.647C23.3651 72.452 23.026 71.2604 22.6751 70.0671C22.4955 69.4704 22.3394 68.8653 22.1833 68.2619L21.7065 66.4551C21.6594 66.2799 21.6471 66.0971 21.6704 65.9172C21.6937 65.7373 21.7521 65.5638 21.8423 65.4067C21.9325 65.2496 22.0527 65.112 22.1959 65.0018C22.3391 64.8917 22.5026 64.8111 22.6768 64.7648C23.019 64.6732 23.3832 64.7189 23.6926 64.8923C24.002 65.0658 24.2324 65.3533 24.3354 65.6945L24.3438 65.7232Z" fill="black"/>
<path d="M81.8464 82.1083C81.1648 78.8833 82.2644 74.3704 83.4311 69.6006C85.2508 62.1365 87.3139 53.6752 82.6874 49.5071L84.5105 47.4552C90.3608 52.727 88.0895 62.0402 86.0851 70.2581C84.9973 74.7203 83.9683 78.9357 84.5206 81.5437L81.8464 82.1083Z" fill="black"/>
<path d="M69.0596 87.0607C69.1998 87.0996 69.3314 87.165 69.4474 87.2533C69.556 87.3354 69.6546 87.4302 69.7412 87.5356C69.8291 87.6438 69.9035 87.7625 69.9627 87.8889C70.0298 88.0308 70.0712 88.1836 70.0853 88.3402C70.0883 88.3777 70.0838 88.4154 70.0723 88.4513C70.0607 88.4871 70.0422 88.5202 70.0179 88.5488C69.9935 88.5774 69.9638 88.6009 69.9305 88.6178C69.8971 88.6348 69.8607 88.645 69.8234 88.6478H69.7731C69.618 88.6304 69.4674 88.5851 69.3282 88.5142C69.2031 88.4524 69.0868 88.374 68.9824 88.281C68.8793 88.1924 68.7874 88.0913 68.7088 87.9801C68.6229 87.8617 68.5613 87.7273 68.5275 87.5846C68.5019 87.4712 68.5219 87.3522 68.5833 87.2537C68.6446 87.1552 68.7423 87.0852 68.8548 87.059C68.9223 87.0434 68.9924 87.044 69.0596 87.0607V87.0607Z" fill="black"/>
<path d="M72.5093 86.5485C72.5336 86.6678 72.5336 86.7909 72.5093 86.9102C72.4878 87.0266 72.4528 87.14 72.4052 87.2483C72.3595 87.3615 72.3033 87.4702 72.2373 87.5728C72.1686 87.6851 72.0857 87.7879 71.9906 87.8787C71.9329 87.9327 71.8563 87.9614 71.7776 87.9585C71.6989 87.9557 71.6246 87.9215 71.5709 87.8635C71.5462 87.8368 71.5263 87.8059 71.5121 87.7722C71.4655 87.6487 71.4339 87.5198 71.4181 87.3885C71.4012 87.2671 71.3951 87.1443 71.3997 87.0218C71.403 86.9031 71.4194 86.7852 71.4484 86.6702C71.4787 86.5514 71.5324 86.4399 71.6061 86.3423C71.692 86.2352 71.8166 86.1667 71.9525 86.1519C72.0884 86.137 72.2246 86.1769 72.3313 86.2629C72.4213 86.3348 72.4841 86.4356 72.5093 86.5485V86.5485Z" fill="black"/>
<path d="M74.9653 87.9497C74.7545 87.2961 74.4635 86.6715 74.0991 86.0905C74.0135 85.9519 73.9094 85.8302 73.8187 85.7C73.7281 85.5699 73.6123 85.4668 73.5099 85.3535C73.3003 85.1476 73.067 84.9677 72.8149 84.8177C71.8446 84.2261 70.6527 84.3106 69.5783 84.909C68.5039 85.5073 67.5773 86.5215 66.8504 87.6945C66.1235 88.8675 65.5847 90.2197 65.1029 91.6192V91.6344C65.0759 91.7131 65.0338 91.7857 64.9789 91.848C64.9241 91.9103 64.8576 91.9611 64.7832 91.9975C64.7088 92.0339 64.6281 92.0552 64.5455 92.0602C64.463 92.0652 64.3803 92.0537 64.3021 92.0265C64.1712 91.9805 64.059 91.8923 63.9828 91.7756C63.9067 91.6589 63.8708 91.5202 63.8808 91.3809C63.9866 89.761 64.407 88.1779 65.118 86.7209C65.4911 85.9639 65.9594 85.2583 66.5113 84.6216C67.089 83.9542 67.7795 83.3951 68.5509 82.9703L68.8514 82.8131C68.9538 82.7658 69.0613 82.7235 69.167 82.6796C69.3798 82.5878 69.5992 82.5126 69.8234 82.4548C69.9334 82.4206 70.0456 82.3941 70.1591 82.3753L70.5066 82.3111C70.6242 82.2976 70.7433 82.2891 70.8608 82.279C70.9797 82.268 71.0991 82.2646 71.2184 82.2688L71.5793 82.2824C71.6985 82.2908 71.8177 82.3145 71.9386 82.3297C72.1769 82.3682 72.412 82.4247 72.642 82.4987C73.0987 82.6495 73.5292 82.8714 73.9178 83.1562C74.2971 83.4298 74.6361 83.7558 74.925 84.1247C75.0559 84.309 75.1886 84.4932 75.3044 84.6842L75.4723 84.9749C75.5278 85.0696 75.5772 85.1678 75.62 85.269C75.963 86.0415 76.1675 86.8689 76.2243 87.7131C76.2363 87.883 76.1808 88.0507 76.07 88.1794C75.9592 88.3081 75.8021 88.3872 75.6334 88.3993C75.4934 88.4092 75.354 88.3726 75.2366 88.295C75.1193 88.2175 75.0304 88.1033 74.9838 87.97L74.9653 87.9497Z" fill="black"/>
<path d="M83.4312 80.866C83.4452 80.8262 83.4614 80.7872 83.4799 80.7493C83.495 80.7155 83.5084 80.6885 83.5218 80.6631C83.5487 80.609 83.5772 80.5583 83.6058 80.511C83.6612 80.4113 83.7233 80.3234 83.7837 80.2338C83.9085 80.0619 84.0459 79.8997 84.195 79.7487C84.4856 79.4533 84.8211 79.2062 85.1888 79.0168C85.2778 78.9661 85.3734 78.9306 85.4641 78.8901L85.6017 78.8309L85.7444 78.7836C85.8384 78.7549 85.9324 78.7227 86.0265 78.6974L86.3102 78.6382L86.4512 78.6095L86.5922 78.596L86.8725 78.5689C87.0572 78.5588 87.2402 78.5689 87.4215 78.5689C87.5939 78.5694 87.7592 78.6387 87.8809 78.7616C88.0027 78.8845 88.0711 79.0511 88.0711 79.2247C88.0706 79.3721 88.0206 79.515 87.9291 79.6301C87.8377 79.7452 87.7102 79.8257 87.5675 79.8586L87.4701 79.8822C87.3375 79.9144 87.2032 79.938 87.0756 79.9735L86.8893 80.0344L86.797 80.0648L86.7097 80.1053L86.5418 80.1831L86.384 80.2761L86.3068 80.3217L86.2346 80.3758C86.1869 80.4094 86.1409 80.4455 86.097 80.484C85.9251 80.628 85.7777 80.7993 85.6605 80.991C85.6051 81.0835 85.5568 81.1801 85.5161 81.2801C85.4993 81.3291 85.4792 81.3781 85.4674 81.4237C85.4604 81.4446 85.4554 81.4661 85.4523 81.488C85.4512 81.4964 85.4512 81.5049 85.4523 81.5133C85.4523 81.5133 85.4523 81.5319 85.4523 81.5133C85.4102 81.6473 85.3422 81.7716 85.2522 81.8791C85.1623 81.9866 85.0523 82.0752 84.9283 82.1399C84.8044 82.2046 84.669 82.244 84.5299 82.256C84.3909 82.268 84.2508 82.2522 84.1178 82.2097C83.85 82.1229 83.6273 81.9326 83.4986 81.6807C83.3699 81.4288 83.3456 81.1358 83.4312 80.866Z" fill="black"/>
<path d="M89.2729 86.9254L88.1969 84.3901C90.1106 83.5636 90.49 81.0891 89.7446 79.2687C88.4017 75.9896 85.0442 77.0325 84.037 77.4297L83.0298 74.8707C85.7292 73.794 87.71 74.1777 88.8969 74.6882C90.4378 75.3727 91.6484 76.6415 92.2661 78.2191C93.5117 81.2496 92.7176 85.438 89.2729 86.9254Z" fill="black"/>
<path d="M24.2113 92.128C24.3254 92.0671 24.3993 92.0299 24.49 91.9877C24.5806 91.9454 24.6578 91.9065 24.7501 91.8694C24.918 91.795 25.0993 91.7274 25.2756 91.6648C25.6317 91.5403 25.9957 91.4398 26.3651 91.364C27.1238 91.2056 27.9015 91.1606 28.6733 91.2305C29.07 91.2704 29.463 91.3422 29.8484 91.4451C30.2388 91.552 30.62 91.6905 30.9882 91.8592C31.7197 92.2076 32.3957 92.6633 32.9943 93.2114L33.0144 93.23C33.1484 93.3513 33.2573 93.498 33.3349 93.6616C33.4126 93.8253 33.4574 94.0028 33.467 94.1839C33.4765 94.365 33.4504 94.5463 33.3904 94.7173C33.3303 94.8883 33.2374 95.0457 33.1168 95.1805C32.9964 95.3154 32.8507 95.425 32.6882 95.5032C32.5256 95.5814 32.3493 95.6266 32.1694 95.6361C31.9895 95.6457 31.8095 95.6195 31.6397 95.559C31.4699 95.4985 31.3135 95.405 31.1796 95.2836C31.1287 95.2369 31.081 95.1866 31.0369 95.1332C30.6926 94.7057 30.2883 94.3311 29.8366 94.021C29.6085 93.8717 29.3695 93.74 29.1215 93.6272C28.8678 93.5139 28.6057 93.4207 28.3376 93.3483C27.7739 93.2096 27.1928 93.156 26.6135 93.1894C26.3144 93.2048 26.0165 93.2404 25.7221 93.2959C25.5727 93.323 25.425 93.3568 25.2806 93.3939L25.0674 93.4531L24.8811 93.5123L24.7972 93.5393C24.6033 93.5996 24.3935 93.5801 24.2139 93.4851C24.0342 93.3901 23.8993 93.2272 23.8386 93.0322C23.7874 92.8614 23.7966 92.6779 23.8645 92.5131C23.9324 92.3482 24.055 92.2121 24.2113 92.128V92.128Z" fill="black"/>
<path d="M28.0018 103.796C27.6418 103.796 27.282 103.776 26.9241 103.736C24.6464 103.485 22.5217 102.46 20.9009 100.829C19.066 98.97 18.0638 96.4516 18 93.5613C17.9593 92.1106 18.3066 90.6756 19.0057 89.4065C19.7047 88.1373 20.7298 87.0808 21.9736 86.3474C23.1822 85.6124 24.5647 85.2178 25.9766 85.2051C27.3885 85.1923 28.7779 85.5617 29.9995 86.2747C30.3131 86.4569 30.5423 86.7568 30.6367 87.1088C30.7311 87.4608 30.683 87.8362 30.5031 88.1525C30.3225 88.4687 30.0245 88.6997 29.6748 88.7948C29.3251 88.8899 28.9522 88.8413 28.638 88.6596C27.8361 88.1905 26.9236 87.9473 25.9963 87.9553C25.0689 87.9633 24.1607 88.2223 23.3669 88.7052C22.5417 89.1927 21.8619 89.8945 21.3985 90.7372C20.9351 91.5799 20.7053 92.5325 20.733 93.4954C20.8085 96.8758 22.8431 100.51 27.2229 101C29.4052 101.243 31.8628 100.451 32.4269 98.1266C32.4701 97.9511 32.5472 97.7858 32.6539 97.6403C32.7606 97.4949 32.8947 97.372 33.0486 97.2787C33.2025 97.1855 33.3731 97.1237 33.5508 97.0969C33.7284 97.0701 33.9095 97.0788 34.0838 97.1226C34.4355 97.2105 34.7381 97.4354 34.9251 97.7479C35.1121 98.0605 35.1682 98.435 35.0809 98.7892C34.3389 101.84 31.5002 103.796 28.0018 103.796Z" fill="black"/>
<path d="M49.7193 110.024C49.9983 110.588 50.3555 111.108 50.7802 111.571C51.2147 112.038 51.7099 112.445 52.2524 112.779C53.3972 113.48 54.6644 113.955 55.9859 114.177C57.3627 114.427 58.7652 114.504 60.1608 114.405C61.5807 114.308 62.9869 114.064 64.3576 113.678C67.0894 112.909 69.6418 111.6 71.8665 109.828C72.414 109.39 72.9332 108.917 73.4209 108.412C73.9105 107.908 74.3712 107.377 74.8009 106.821C75.2351 106.258 75.6386 105.671 76.0095 105.063C76.3788 104.448 76.723 103.804 77.0537 103.131V103.118C77.09 103.043 77.1405 102.977 77.2024 102.922C77.2643 102.868 77.3363 102.826 77.4143 102.799C77.4923 102.773 77.5748 102.762 77.657 102.768C77.7391 102.773 77.8193 102.795 77.893 102.832C78.0035 102.887 78.0956 102.973 78.1577 103.08C78.2198 103.187 78.2492 103.31 78.2422 103.434C78.195 104.256 78.0496 105.069 77.8091 105.856C77.5694 106.653 77.2494 107.423 76.8539 108.155C76.0498 109.616 75.0112 110.933 73.7802 112.052C72.5626 113.17 71.2033 114.119 69.7379 114.877C68.2869 115.632 66.7602 116.23 65.1835 116.66C63.6048 117.097 61.985 117.367 60.3505 117.465C58.6974 117.572 57.0374 117.464 55.4118 117.143C53.7232 116.818 52.1122 116.17 50.666 115.233C49.923 114.737 49.2504 114.141 48.6667 113.462C48.0761 112.774 47.5922 111.999 47.2314 111.165C47.1599 110.999 47.1216 110.821 47.1186 110.64C47.1156 110.459 47.148 110.28 47.2139 110.112C47.2799 109.944 47.3781 109.79 47.5029 109.66C47.6278 109.531 47.7768 109.427 47.9415 109.355C48.2615 109.215 48.6223 109.204 48.9502 109.324C49.2781 109.443 49.5484 109.684 49.7058 109.997L49.7193 110.024Z" fill="black"/>
<path d="M73.864 83.2999C74.2701 82.9316 74.6948 82.5846 75.1365 82.2604C75.5873 81.9351 76.0558 81.6354 76.5399 81.3629C77.0357 81.0888 77.5488 80.8477 78.0759 80.6412C78.6154 80.4329 79.1699 80.2662 79.7345 80.1426C80.3127 80.0218 80.9002 79.9511 81.4904 79.9313C81.6398 79.9313 81.7892 79.9313 81.9386 79.9313L82.3885 79.9465L82.8367 79.9887C82.9861 80.0107 83.1355 80.0293 83.2849 80.053C83.8814 80.1531 84.4675 80.3081 85.0358 80.5161C85.6025 80.7265 86.1487 80.989 86.6675 81.3004C87.1829 81.6072 87.6705 81.959 88.1247 82.3517C88.5752 82.7372 88.9951 83.1576 89.3803 83.6092C90.1419 84.4996 90.7816 85.4888 91.2823 86.5502C91.7795 87.5985 92.1568 88.7003 92.407 89.8343C92.663 90.9707 92.7797 92.1343 92.7545 93.2993C92.7265 95.5826 92.256 97.8384 91.3696 99.9402C90.9228 100.992 90.3728 101.997 89.7278 102.939C89.0836 103.875 88.3529 104.747 87.5455 105.545C85.9344 107.142 84.0422 108.423 81.9655 109.323C80.9023 109.783 79.7854 110.105 78.6416 110.283C78.0307 110.376 77.4116 110.402 76.7951 110.36C76.0945 110.319 75.4104 110.13 74.7873 109.804C74.64 109.724 74.5098 109.616 74.4042 109.485C74.2985 109.354 74.2195 109.204 74.1717 109.042C74.1238 108.881 74.108 108.711 74.1252 108.544C74.1424 108.376 74.1923 108.213 74.272 108.065C74.4322 107.766 74.7039 107.544 75.0272 107.446C75.3506 107.349 75.699 107.385 75.996 107.546V107.546C76.3052 107.689 76.6397 107.768 76.9797 107.779C77.4092 107.8 77.8396 107.775 78.2639 107.705C79.1859 107.55 80.0845 107.277 80.9381 106.894C82.7047 106.114 84.3121 105.011 85.6788 103.64C86.3587 102.957 86.9741 102.212 87.517 101.414C88.0547 100.617 88.512 99.7676 88.8818 98.8787C89.6214 97.094 90.0069 95.1807 90.0166 93.2469C90.0184 91.3588 89.5742 89.4973 88.7206 87.8162C87.8812 86.1446 86.6709 84.6741 85.1953 83.6903C84.4583 83.1998 83.6436 82.8391 82.7864 82.6238C82.3527 82.5202 81.9115 82.4524 81.4669 82.421C81.0116 82.3912 80.5546 82.3986 80.1004 82.443C79.6336 82.4854 79.1706 82.5633 78.7155 82.6762C78.2465 82.788 77.7842 82.9263 77.3306 83.0903C76.395 83.4412 75.4865 83.8616 74.6127 84.3478H74.601C74.5265 84.3881 74.4448 84.4132 74.3607 84.4216C74.2766 84.4301 74.1916 84.4218 74.1107 84.3971C74.0298 84.3725 73.9545 84.332 73.8891 84.278C73.8237 84.224 73.7696 84.1576 73.7297 84.0825C73.6626 83.9555 73.6394 83.8097 73.6637 83.668C73.688 83.5263 73.7585 83.3968 73.864 83.2999Z" fill="black"/>
<path d="M30.748 78.4033C30.748 78.4033 31.1627 81.8226 32.1565 83.4909Z" fill="white"/>
<path d="M31.1208 78.3577C31.3341 78.7489 31.5138 79.1577 31.658 79.5797C31.8057 79.9888 31.9215 80.4012 32.034 80.8085C32.1465 81.2158 32.2354 81.6249 32.3076 82.0339C32.3824 82.4573 32.4284 82.8854 32.4453 83.3151V83.3489C32.4485 83.4472 32.4128 83.5429 32.3461 83.6148C32.2794 83.6867 32.1871 83.729 32.0894 83.7326C32.0098 83.7343 31.9316 83.7106 31.8661 83.665C31.4689 83.3647 31.146 82.9759 30.9227 82.5291C30.7071 82.1126 30.5468 81.6694 30.4459 81.2108C30.3391 80.7634 30.2761 80.3065 30.2579 79.8468C30.2326 79.3776 30.2721 78.9072 30.3754 78.449C30.3998 78.3452 30.464 78.2555 30.554 78.1994C30.644 78.1433 30.7525 78.1254 30.8555 78.1498C30.9089 78.1627 30.959 78.1865 31.0029 78.2196C31.0467 78.2528 31.0834 78.2946 31.1107 78.3425L31.1208 78.3577Z" fill="black"/>
<path d="M51.4534 94.5906C51.5398 94.5087 51.6349 94.4367 51.7371 94.376C51.7979 94.3347 51.8656 94.305 51.9369 94.2881C52.0494 94.2576 52.1148 94.3168 52.1921 94.3557C52.2693 94.3946 52.3465 94.4351 52.4254 94.4723C52.5043 94.5095 52.5832 94.5518 52.6671 94.5839C52.835 94.6515 53.0029 94.7225 53.1707 94.7816L53.4242 94.8763L53.6828 94.954C54.3844 95.1658 55.1036 95.3134 55.8315 95.3952L56.3872 95.4374C56.5729 95.4555 56.7595 95.4634 56.9462 95.4611C57.1325 95.4611 57.3205 95.4746 57.5085 95.4695L58.076 95.4459L58.3613 95.4374L58.6467 95.4104C58.8381 95.3935 59.0278 95.3698 59.2208 95.358C59.4139 95.3462 59.6036 95.3039 59.7966 95.2786C59.9897 95.2532 60.1844 95.2262 60.3808 95.2076H60.4278C60.5554 95.1948 60.6827 95.2336 60.7819 95.3154C60.881 95.3972 60.9439 95.5152 60.9566 95.6436C60.9669 95.7459 60.9448 95.8489 60.8936 95.9378C60.8423 96.0267 60.7645 96.0971 60.6712 96.1389C60.2902 96.3079 59.9024 96.4769 59.5062 96.6172C59.3048 96.6814 59.1016 96.7389 58.9002 96.7998L58.5947 96.8894C58.4906 96.9147 58.3865 96.9367 58.2824 96.9586L57.6546 97.0837C57.4448 97.1192 57.2316 97.1361 57.0184 97.1632C56.8044 97.1899 56.5893 97.2057 56.3737 97.2105C56.1589 97.2189 55.9423 97.224 55.7258 97.224C54.849 97.2061 53.9778 97.0789 53.1321 96.8454L52.8132 96.7541L52.4993 96.646C52.2877 96.58 52.083 96.4888 51.8781 96.4026C51.7741 96.362 51.6733 96.3079 51.5709 96.2606C51.4685 96.2133 51.3678 96.1625 51.2671 96.1068C51.0589 96.0206 50.8541 95.8701 50.9716 95.2515C51.0023 95.089 51.0834 94.9404 51.2033 94.8273L51.4534 94.5906Z" fill="black"/>
<path d="M48.0741 95.3022C48.1782 95.265 48.3074 95.2363 48.4233 95.2025L48.7741 95.0994C48.8883 95.0656 49.0007 95.0233 49.1098 94.9912C49.219 94.9591 49.3298 94.9151 49.4456 94.8729C49.8563 94.7214 50.2501 94.5271 50.6207 94.2931C50.991 94.0638 51.3379 93.7983 51.6565 93.5004C51.8361 93.3618 51.9788 93.1793 52.1601 93.0187C52.3414 92.8581 52.484 92.657 52.6889 92.4829L52.7375 92.4423C52.7791 92.4067 52.8273 92.3797 52.8793 92.3628C52.9313 92.346 52.9861 92.3397 53.0406 92.3442C53.095 92.3488 53.148 92.3641 53.1966 92.3894C53.2451 92.4146 53.2882 92.4493 53.3234 92.4914C53.3607 92.5356 53.3884 92.5871 53.4049 92.6427C53.4213 92.6982 53.4262 92.7566 53.4191 92.8142C53.3987 92.9593 53.3707 93.1031 53.3352 93.2452C53.3054 93.3902 53.2627 93.5322 53.2076 93.6694C53.0989 93.9493 52.9581 94.2153 52.7879 94.4622C52.4427 94.9771 51.9829 95.4036 51.4449 95.7079C50.9164 96.0181 50.3256 96.2052 49.7159 96.2555C49.5648 96.2656 49.4154 96.269 49.2676 96.269C49.1199 96.269 48.9722 96.2521 48.8245 96.2285C48.678 96.2078 48.5332 96.1762 48.3914 96.1338C48.2429 96.0904 48.0985 96.0339 47.9599 95.9648C47.877 95.9259 47.8128 95.8554 47.7814 95.769C47.7499 95.6825 47.7537 95.587 47.7921 95.5033C47.8112 95.461 47.8388 95.423 47.8732 95.3919C47.9076 95.3608 47.948 95.3372 47.9918 95.3225L48.0741 95.3022Z" fill="black"/>
<path d="M43.1472 80.7189C43.3742 80.4615 43.6187 80.2203 43.8791 79.9972C44.1309 79.7774 44.3978 79.5746 44.6714 79.3786C45.2252 78.9879 45.8129 78.6485 46.4274 78.3644C47.7002 77.7724 49.0829 77.4579 50.4848 77.4415C51.9465 77.4236 53.385 77.8107 54.643 78.5605C55.2549 78.9269 55.8121 79.3787 56.2982 79.9025C56.7719 80.4072 57.1731 80.9761 57.4901 81.5928C57.5706 81.75 57.5867 81.9328 57.5349 82.1018C57.4831 82.2709 57.3676 82.4128 57.2131 82.497C57.1045 82.554 56.9825 82.5801 56.8603 82.5723C56.7381 82.5646 56.6204 82.5234 56.5198 82.4531L56.4946 82.4328C55.4991 81.7263 54.554 81.1144 53.5585 80.7257C53.07 80.5303 52.5641 80.382 52.0477 80.2828C51.5311 80.176 51.0055 80.1194 50.4781 80.1138C49.3682 80.1094 48.2623 80.2492 47.1878 80.5296C46.6288 80.6648 46.0648 80.8288 45.4991 81.013C45.217 81.1043 44.9333 81.2023 44.6479 81.3003L43.8086 81.6046L43.7616 81.6215C43.6222 81.6716 43.4688 81.6641 43.3348 81.6008C43.2009 81.5375 43.0972 81.4234 43.0465 81.2834C43.0114 81.1889 43.0023 81.0866 43.02 80.9873C43.0378 80.888 43.0817 80.7953 43.1472 80.7189V80.7189Z" fill="black"/>
<path d="M53.4493 62.6132C53.2815 62.6977 53.0733 62.7822 52.8853 62.8836C52.6973 62.985 52.5025 63.0746 52.3129 63.1726C51.9335 63.3721 51.5574 63.5749 51.1898 63.7896C50.4534 64.2155 49.7433 64.6741 49.0595 65.1654C47.7008 66.1275 46.4481 67.233 45.3227 68.4631C44.7607 69.072 44.2354 69.7143 43.7498 70.3865C43.2539 71.0584 42.7922 71.7551 42.3665 72.474C41.5104 73.9617 40.7435 75.4998 40.07 77.0799V77.0799C40.0346 77.1625 39.9831 77.2373 39.9185 77.2996C39.854 77.362 39.7777 77.4107 39.6942 77.443C39.6107 77.4753 39.5216 77.4904 39.4322 77.4876C39.3428 77.4847 39.2549 77.4639 39.1736 77.4264C39.0457 77.3688 38.9385 77.2731 38.8664 77.1522C38.7943 77.0313 38.7609 76.8909 38.7707 76.7503C38.9217 74.871 39.3954 73.0324 40.1707 71.3162C40.5604 70.4496 41.0214 69.6173 41.549 68.8281C41.8075 68.4276 42.1029 68.0506 42.3883 67.6687C42.6737 67.2867 42.9943 66.93 43.3284 66.5886C44.6335 65.1971 46.1596 64.0341 47.8441 63.1473C48.6781 62.7075 49.5488 62.3421 50.4461 62.0554C50.8931 61.913 51.3469 61.7934 51.8059 61.6971C52.0342 61.648 52.2658 61.6075 52.4992 61.5737C52.6167 61.5568 52.7342 61.5416 52.8534 61.5297C52.9726 61.5179 53.0851 61.5078 53.2227 61.4993C53.2973 61.4945 53.3722 61.5045 53.443 61.5289C53.5137 61.5532 53.579 61.5913 53.6352 61.6411C53.6913 61.6909 53.7371 61.7513 53.7701 61.8189C53.803 61.8865 53.8224 61.96 53.8271 62.0351C53.8341 62.1484 53.8075 62.2613 53.7508 62.3594C53.694 62.4575 53.6095 62.5364 53.5081 62.5861L53.4493 62.6132Z" fill="black"/>
<path d="M74.6093 55.548C74.8058 55.4719 74.9703 55.4195 75.1499 55.3638C75.3295 55.308 75.5058 55.2657 75.6854 55.2269C76.0444 55.1493 76.4077 55.0929 76.7732 55.0578C77.5158 54.9861 78.2639 54.9963 79.0042 55.0883C80.5553 55.2773 82.0313 55.8678 83.2883 56.8022C83.4461 56.9255 83.6022 57.0489 83.7533 57.1774L84.1897 57.5881C84.3341 57.725 84.4567 57.8822 84.591 58.0293C84.7243 58.1759 84.8488 58.3306 84.9636 58.4924C85.1979 58.8086 85.4121 59.1394 85.6049 59.4829C85.6972 59.6519 85.7728 59.831 85.8668 60.0051L85.991 60.2688L86.0951 60.5376C86.6436 61.9328 86.8637 63.4369 86.738 64.9322C86.7214 65.1147 86.6337 65.2831 86.494 65.4006C86.3543 65.5182 86.174 65.5752 85.9927 65.5592C85.8644 65.5475 85.742 65.4995 85.6396 65.4209C85.5371 65.3423 85.4588 65.2361 85.4135 65.1147V65.1029C84.9401 63.8403 84.4701 62.6588 83.8641 61.6193L83.755 61.4215L83.6307 61.2373C83.5502 61.1139 83.4746 60.9855 83.3907 60.8655C83.3067 60.7455 83.2228 60.6322 83.1305 60.5139C83.0382 60.3956 82.9475 60.2925 82.8585 60.1758C82.4961 59.7376 82.0868 59.3408 81.6381 58.9927C80.706 58.2787 79.6533 57.7404 78.5308 57.4039C77.9359 57.2174 77.3305 57.0667 76.7178 56.9526C76.4056 56.8951 76.0883 56.841 75.7677 56.7971C75.6082 56.7751 75.447 56.7531 75.2859 56.7345C75.1247 56.716 74.9501 56.699 74.8158 56.6788L74.7403 56.6669C74.6657 56.656 74.594 56.6303 74.5293 56.5914C74.4646 56.5525 74.4082 56.5011 74.3633 56.4401C74.3184 56.3792 74.2858 56.3099 74.2676 56.2363C74.2493 56.1627 74.2456 56.0862 74.2568 56.0111C74.2698 55.9095 74.3093 55.8131 74.3712 55.7318C74.4331 55.6505 74.5153 55.5871 74.6093 55.548V55.548Z" fill="black"/>
<path d="M30.7951 37.5809C29.7073 35.8906 30.2277 33.6105 31.9584 32.4797C33.6892 31.349 35.9706 31.8037 37.0584 33.4939" fill="black"/>
<path d="M30.8053 39.1612C30.5431 39.1619 30.285 39.0963 30.0545 38.9705C29.824 38.8447 29.6285 38.6627 29.4858 38.4412C27.9297 36.0259 28.6599 32.757 31.1125 31.1546C33.5651 29.5523 36.8201 30.2115 38.383 32.6268C38.6095 32.9783 38.6881 33.406 38.6015 33.8158C38.515 34.2256 38.2703 34.584 37.9214 34.8123C37.572 35.0404 37.147 35.1196 36.7397 35.0325C36.3324 34.9453 35.9761 34.6989 35.7491 34.3475C35.1364 33.3942 33.822 33.1525 32.8214 33.8066C31.8209 34.4607 31.5053 35.7673 32.1197 36.7189C32.2313 36.8938 32.3075 37.0893 32.344 37.2939C32.3806 37.4986 32.3766 37.7085 32.3325 37.9116C32.2884 38.1147 32.2049 38.3071 32.0869 38.4778C31.9689 38.6484 31.8186 38.7939 31.6447 38.906C31.3948 39.07 31.1036 39.1586 30.8053 39.1612V39.1612Z" fill="black"/>
<path d="M79.3031 47.1932C72.7628 24.0489 59.5111 17.0412 33.8268 34.7886C11.6309 50.1241 20.2058 65.5626 27.1254 83.3388C26.3683 79.7352 26.041 77.5497 32.8767 70.7009C42.405 61.1579 55.1196 45.9982 79.3031 47.1932Z" fill="black"/>
<path d="M33.6759 37.3138C33.1991 38.3567 32.714 39.3793 32.3161 40.4205C31.9033 41.4317 31.5792 42.4775 31.3475 43.5457C30.8808 45.6416 30.9429 47.7713 31.371 49.8925C31.7991 52.0138 32.5562 54.1181 33.409 56.2055C33.8337 57.2484 34.2802 58.2946 34.7519 59.3324C35.2237 60.3702 35.6954 61.4165 36.1402 62.483V62.4915C36.1665 62.554 36.1802 62.621 36.1806 62.6888C36.181 62.7567 36.1682 62.8239 36.1428 62.8867C36.1173 62.9495 36.0799 63.0066 36.0325 63.0548C35.9851 63.103 35.9287 63.1414 35.8666 63.1676C35.7615 63.2128 35.6443 63.2207 35.5342 63.19C35.424 63.1593 35.3276 63.0918 35.2606 62.9986C33.8537 61.1371 32.6075 59.158 31.5355 57.0828C30.4645 54.9919 29.553 52.7659 29.0628 50.3675C29.0091 50.0666 28.9554 49.764 28.9067 49.4615C28.858 49.1589 28.8194 48.8513 28.7959 48.5437C28.7724 48.2361 28.7422 47.9268 28.7405 47.6158L28.7271 47.1493L28.7388 46.6828C28.7745 45.4384 28.9795 44.2049 29.3482 43.0166C29.71 41.8548 30.1987 40.7369 30.8053 39.6835C31.3985 38.6591 32.0721 37.6841 32.8197 36.7679C32.9062 36.6623 33.0308 36.5955 33.1661 36.5822C33.3014 36.5689 33.4364 36.6101 33.5416 36.6969C33.6287 36.7694 33.6896 36.8688 33.7151 36.9797C33.7406 37.0905 33.7292 37.2067 33.6826 37.3104L33.6759 37.3138Z" fill="#333333"/>
<path d="M86.7365 54.0589C86.8171 54.6353 87.408 54.8246 87.9485 54.6353C97.21 51.4103 103.057 43.4426 105.694 37.5149C117.232 11.6646 89.8119 1.35922 70.1525 26.5842C62.2626 37.3561 58.2757 45.8528 43.5466 58.8135C33.8739 67.3222 31.3861 68.725 26.219 76.6286C39.5882 53.829 84.0489 34.6618 86.7365 54.0589Z" fill="#333333"/>
<path d="M26.2172 78.214C25.9242 78.2137 25.637 78.1312 25.3879 77.9757C25.0403 77.7573 24.7912 77.4107 24.694 77.0099C24.5968 76.6091 24.6591 76.1859 24.8675 75.8308C28.6094 69.4485 34.8642 63.0442 42.6048 57.5492C53.6843 47.7882 58.5928 40.581 63.7901 32.9496C65.3849 30.607 67.0334 28.1866 68.8883 25.6512L68.9169 25.614C74.2418 18.7804 80.4882 14.0089 86.9832 11.8116C93.0064 9.77489 98.7341 10.1214 103.112 12.7852C106.624 14.9233 108.9 18.3342 109.696 22.6511C110.535 27.1674 109.639 32.5305 107.126 38.1623C105.704 41.3484 100.158 52.0577 88.4604 56.1278C88.0999 56.2621 87.7142 56.314 87.3312 56.2798C86.9483 56.2456 86.5776 56.1261 86.2462 55.93C85.9581 55.7512 85.7132 55.5101 85.5291 55.2242C85.345 54.9383 85.2264 54.6147 85.1819 54.277C84.6951 50.7613 82.6487 48.6874 78.9287 47.9386C72.7309 46.6912 62.4774 49.4919 52.16 55.2472C49.5034 56.7305 46.9289 58.3583 44.448 60.1235C42.781 61.5889 41.3273 62.843 40.0414 63.9535C33.941 69.2186 31.6579 71.1877 27.53 77.5024C27.3871 77.7215 27.1923 77.9013 26.9631 78.0256C26.7339 78.1498 26.4775 78.2146 26.2172 78.214ZM75.7056 44.4871C76.9931 44.4775 78.2785 44.5952 79.5431 44.8387C84.2536 45.7869 87.2031 48.5572 88.1247 52.8893C98.1634 49.0558 103 39.6954 104.262 36.8676C108.524 27.3178 107.462 19.1202 101.489 15.4896C97.9636 13.3447 93.0416 13.0962 87.9837 14.8135C82.0763 16.8113 76.3435 21.2144 71.4014 27.551C69.585 30.0357 67.955 32.4274 66.3787 34.743C62.8534 39.9083 59.4708 44.8843 54.2769 50.572C62.2155 46.6304 69.7999 44.4871 75.7056 44.4871V44.4871Z" fill="black"/>
<path d="M89.6187 31.1986C90.8526 30.8132 92.0999 30.5225 93.3371 30.2436C94.5743 29.9647 95.8115 29.7213 97.0403 29.4762C98.2691 29.2311 99.4912 28.9877 100.697 28.7173C101.892 28.4704 103.07 28.1423 104.222 27.7353L104.249 27.7251C104.313 27.7005 104.381 27.6888 104.449 27.6907C104.518 27.6926 104.585 27.7082 104.647 27.7365C104.71 27.7648 104.766 27.8052 104.813 27.8555C104.86 27.9058 104.896 27.9649 104.92 28.0294C104.955 28.123 104.962 28.2245 104.941 28.3221C104.92 28.4197 104.872 28.5093 104.803 28.5804C104.68 28.7055 104.549 28.8255 104.418 28.9455L104.007 29.27C103.868 29.3714 103.723 29.4678 103.581 29.5658C103.438 29.6638 103.288 29.745 103.141 29.8345C102.552 30.1673 101.94 30.4581 101.311 30.705C100.076 31.1808 98.8031 31.5473 97.5053 31.8003C96.2244 32.0574 94.9277 32.2268 93.6241 32.3074C92.3171 32.3995 91.0044 32.3701 89.7027 32.2195C89.6349 32.2109 89.5696 32.189 89.5103 32.1549C89.451 32.1209 89.399 32.0754 89.3572 32.0211C89.3154 31.9667 89.2846 31.9046 89.2667 31.8383C89.2488 31.772 89.2441 31.7028 89.2528 31.6346C89.2654 31.5353 89.3061 31.4416 89.3701 31.3649C89.4341 31.2882 89.5187 31.2316 89.6137 31.2019L89.6187 31.1986Z" fill="black"/>
<path d="M88.5142 36.8676C89.7481 36.4822 90.9954 36.1915 92.2326 35.9126C93.4698 35.6337 94.707 35.3903 95.9358 35.1453C97.1646 34.9002 98.3867 34.6568 99.592 34.3863C100.788 34.1394 101.966 33.8113 103.117 33.4043L103.144 33.3942C103.208 33.3695 103.276 33.3578 103.345 33.3597C103.413 33.3617 103.48 33.3772 103.543 33.4055C103.605 33.4338 103.662 33.4743 103.708 33.5245C103.755 33.5748 103.792 33.6339 103.816 33.6984C103.85 33.792 103.857 33.8935 103.836 33.9911C103.816 34.0887 103.768 34.1783 103.698 34.2494C103.576 34.3745 103.445 34.4945 103.314 34.6145L102.902 34.939C102.763 35.0405 102.619 35.1368 102.476 35.2348C102.333 35.3329 102.184 35.414 102.036 35.5036C101.448 35.8362 100.837 36.1271 100.208 36.3741C98.9736 36.8498 97.7003 37.2163 96.4025 37.4693C95.1216 37.7264 93.8249 37.8958 92.5213 37.9764C91.2143 38.0686 89.9015 38.0392 88.5998 37.8885C88.532 37.8802 88.4665 37.8584 88.4071 37.8244C88.3477 37.7904 88.2956 37.7449 88.2538 37.6905C88.212 37.6362 88.1812 37.574 88.1634 37.5076C88.1456 37.4412 88.141 37.3719 88.1499 37.3037C88.1626 37.2043 88.2033 37.1107 88.2673 37.0339C88.3313 36.9572 88.4158 36.9007 88.5109 36.871L88.5142 36.8676Z" fill="black"/>
<path d="M91.1648 40.9799C91.4233 39.7173 91.7523 38.4767 92.083 37.2614C92.4137 36.0461 92.7545 34.8258 93.0903 33.6173C93.426 32.4088 93.7466 31.2019 94.0673 29.9934C94.3879 28.7849 94.6481 27.5713 94.9519 26.3239V26.3053C94.9681 26.2388 94.9971 26.1762 95.0373 26.1209C95.0775 26.0657 95.1281 26.019 95.1863 25.9835C95.2445 25.9481 95.309 25.9245 95.3763 25.9142C95.4435 25.9038 95.5121 25.907 95.5781 25.9234C95.6746 25.9472 95.7623 25.9983 95.8307 26.0709C95.8992 26.1434 95.9455 26.2341 95.9642 26.3324C96.191 27.6592 96.2356 29.0111 96.0968 30.3501C95.9544 31.6702 95.7057 32.9766 95.3532 34.2562C94.9956 35.5268 94.5468 36.7696 94.0102 37.9747C93.4832 39.1884 92.8329 40.3439 92.0696 41.4228C92.0294 41.4782 91.9787 41.525 91.9205 41.5607C91.8623 41.5964 91.7976 41.6202 91.7303 41.6307C91.663 41.6412 91.5942 41.6383 91.528 41.622C91.4618 41.6058 91.3994 41.5766 91.3444 41.536C91.2647 41.4767 91.2035 41.3957 91.1678 41.3027C91.1321 41.2096 91.1235 41.1082 91.1429 41.0103L91.1648 40.9799Z" fill="black"/>
<path d="M96.7381 39.937C96.958 38.666 97.2585 37.4203 97.5657 36.1898C97.8729 34.9593 98.2003 33.7407 98.5327 32.5271L99.5265 28.8914C99.8622 27.6778 100.166 26.4659 100.534 25.2303V25.2151C100.575 25.0843 100.667 24.9754 100.788 24.9121C100.909 24.8488 101.05 24.8362 101.18 24.8771C101.275 24.9058 101.36 24.9616 101.425 25.0377C101.49 25.1139 101.531 25.2072 101.544 25.3064C101.702 26.6285 101.702 27.9648 101.544 29.2869C101.392 30.5901 101.146 31.8804 100.807 33.1474C100.463 34.4109 100.035 35.6498 99.5265 36.8558C99.0253 38.0732 98.4068 39.2383 97.6799 40.3342C97.6018 40.4483 97.482 40.5265 97.3467 40.5519C97.2114 40.5772 97.0717 40.5476 96.958 40.4695C96.8762 40.4127 96.8123 40.3335 96.7739 40.2412C96.7355 40.1489 96.7243 40.0474 96.7415 39.9489L96.7381 39.937Z" fill="black"/>
</svg>
