<svg width="128" height="128" viewBox="0 0 128 128" fill="none" xmlns="http://www.w3.org/2000/svg">
    <defs>
        <symbol id="frame-1">
<path d="M109.657 51.0061C119.106 33.8072 104.65 21.5714 103.766 21.3124C101.541 36.6516 94.8224 52.7832 81.2928 61.662C81.2928 61.662 68.3392 57.4604 73.6953 93.8314C73.9958 93.2644 91.8101 91.4217 92.0898 90.8301C98.627 89.819 103.253 87.0067 99.1675 78.7342C112.489 78.8797 115.956 71.1742 110.205 65.8123C128.236 58.1541 116.118 48.19 109.657 51.0061Z" fill="#51CAE4"/>
<path d="M106.542 52.45C107.111 52.0493 107.704 51.685 108.319 51.3595C108.947 51.0311 109.598 50.7463 110.265 50.5071C111.618 50.0479 113.1 49.7511 114.674 49.9552C115.071 50.0051 115.463 50.0873 115.846 50.201C116.239 50.3238 116.618 50.4839 116.98 50.6791C117.356 50.8778 117.708 51.1201 118.027 51.4011C118.189 51.5428 118.344 51.6929 118.49 51.8509C118.635 52.0114 118.771 52.1799 118.896 52.3555C119.152 52.7061 119.362 53.087 119.524 53.4895C119.689 53.8815 119.81 54.2903 119.887 54.7086C120.03 55.5213 120.03 56.3528 119.887 57.1656C119.595 58.6883 118.939 60.118 117.976 61.333C117.068 62.4842 115.983 63.4849 114.763 64.2984C114.172 64.6952 113.557 65.0555 112.922 65.3776C112.291 65.6951 111.647 65.9729 110.997 66.2281C109.699 66.712 108.358 67.0684 106.992 67.2921C106.846 67.3342 106.69 67.3168 106.557 67.2436C106.424 67.1704 106.326 67.0475 106.284 66.9019C106.242 66.7562 106.259 66.5999 106.333 66.4671C106.406 66.3344 106.529 66.2362 106.674 66.1941C107.891 65.6743 109.084 65.1432 110.212 64.5214C111.329 63.9205 112.39 63.2209 113.382 62.4311C114.336 61.6734 115.184 60.7904 115.903 59.8059C116.241 59.3314 116.532 58.825 116.772 58.2939C117.004 57.7907 117.171 57.2596 117.267 56.7139C117.456 55.6555 117.296 54.6179 116.776 53.8297C116.256 53.0416 115.368 52.4822 114.279 52.2573C113.108 52.0387 111.905 52.0631 110.743 52.3291C110.122 52.4517 109.508 52.61 108.904 52.8035C108.598 52.9036 108.29 53.0038 107.988 53.1191C107.685 53.2344 107.379 53.3516 107.067 53.4612H107.043C106.909 53.5304 106.752 53.5433 106.608 53.4972C106.464 53.4512 106.345 53.3498 106.276 53.2155C106.206 53.0811 106.193 52.9248 106.24 52.7809C106.286 52.637 106.387 52.5173 106.521 52.4481L106.542 52.45Z" fill="black"/>
<path d="M109.596 65.2944C110.762 65.6861 111.801 66.3839 112.605 67.3148L112.909 67.6928C113 67.827 113.085 67.9688 113.172 68.1086C113.262 68.2479 113.34 68.3946 113.406 68.5471L113.605 69.0083C113.663 69.1651 113.705 69.3295 113.752 69.4921L113.818 69.7359C113.839 69.8191 113.846 69.9022 113.862 69.9854L113.931 70.49C113.943 70.6582 113.941 70.8264 113.943 70.9965V71.2498C113.943 71.3348 113.926 71.418 113.918 71.5011L113.86 72.002C113.828 72.1645 113.786 72.3252 113.748 72.4877L113.688 72.7296C113.665 72.8109 113.635 72.8865 113.608 72.964L113.442 73.4289C113.382 73.582 113.304 73.7238 113.234 73.8712C113.094 74.1619 112.934 74.4429 112.756 74.7122C112.675 74.8498 112.584 74.9812 112.484 75.1053L112.193 75.4833C111.989 75.7215 111.775 75.954 111.558 76.1826C111.34 76.4113 111.104 76.6098 110.864 76.8063C110.624 77.0029 110.38 77.1957 110.125 77.3733C109.12 78.0576 108.022 78.5924 106.863 78.9609C105.73 79.3122 104.559 79.5254 103.374 79.596C101.067 79.7281 98.7584 79.3653 96.6029 78.5319C96.4733 78.4825 96.3659 78.388 96.3003 78.2657C96.2348 78.1434 96.2155 78.0016 96.2461 77.8663C96.2766 77.731 96.355 77.6113 96.4667 77.5291C96.5784 77.4468 96.716 77.4077 96.8543 77.4187H96.8637C99.0088 77.5907 101.107 77.6342 103.117 77.2883C104.108 77.127 105.082 76.874 106.026 76.5323C106.253 76.4359 106.481 76.3433 106.71 76.2526C106.939 76.1619 107.15 76.0409 107.372 75.9369C107.593 75.833 107.795 75.7007 108.009 75.5854C108.222 75.4701 108.411 75.3227 108.615 75.1942C109.393 74.6743 110.075 74.0232 110.63 73.2702C110.763 73.0895 110.885 72.9001 110.993 72.7032C111.044 72.6049 111.106 72.5142 111.153 72.4121L111.286 72.1135C111.308 72.0644 111.335 72.0152 111.354 71.9642L111.401 71.8111L111.503 71.5049L111.567 71.1969C111.579 71.1439 111.594 71.0929 111.603 71.04L111.614 70.885C111.666 70.4679 111.648 70.0454 111.563 69.6338C111.517 69.4245 111.453 69.2191 111.374 69.0196C111.331 68.9194 111.293 68.8155 111.25 68.7134L111.082 68.4204L111 68.2693C110.972 68.2201 110.934 68.1767 110.902 68.1294L110.696 67.844C110.556 67.655 110.378 67.4868 110.225 67.2959L109.675 66.7894C109.486 66.6325 109.273 66.4776 109.071 66.3112L109.037 66.2829C108.929 66.197 108.856 66.0754 108.83 65.9402C108.804 65.8049 108.827 65.6648 108.896 65.5454C108.965 65.4259 109.074 65.3349 109.203 65.2889C109.333 65.2429 109.475 65.2448 109.604 65.2944H109.596Z" fill="black"/>
<path d="M78.4011 62.5369C78.8263 62.2818 79.2704 61.9888 79.6957 61.694C80.1209 61.3992 80.5461 61.093 80.9638 60.7812C81.7972 60.1556 82.6156 59.5073 83.4207 58.8307C86.5982 56.1336 89.4578 53.0829 91.9442 49.7379C92.5628 48.9025 93.1544 48.0501 93.7188 47.1808C94.2858 46.317 94.8282 45.4306 95.3422 44.5348C95.8563 43.6389 96.342 42.7223 96.7937 41.7924C97.2454 40.8625 97.6763 39.9213 98.0675 38.9574C98.8657 37.0495 99.5412 35.0925 100.09 33.0984C101.172 29.1073 101.786 25.0035 101.919 20.8702C101.925 20.6982 101.964 20.5291 102.035 20.3724C102.106 20.2158 102.208 20.0747 102.333 19.9572C102.459 19.8398 102.607 19.7483 102.768 19.6879C102.929 19.6276 103.1 19.5997 103.272 19.6058C103.516 19.6132 103.752 19.6892 103.955 19.825H103.968C106.654 21.6129 108.966 23.9088 110.771 26.5836C112.568 29.2906 113.727 32.3698 114.162 35.5894C114.372 37.1813 114.418 38.7907 114.298 40.3919C114.172 41.9829 113.886 43.5571 113.444 45.0904C113.223 45.8567 112.956 46.609 112.644 47.3433C112.339 48.0822 111.983 48.7995 111.58 49.4903C111.173 50.1914 110.7 50.8527 110.169 51.4654C109.893 51.7785 109.592 52.0686 109.269 52.3329C108.93 52.6144 108.555 52.8479 108.152 53.0265C108.017 53.0942 107.86 53.1053 107.717 53.0575C107.573 53.0096 107.454 52.9067 107.387 52.7714C107.319 52.636 107.308 52.4794 107.356 52.3358C107.404 52.1923 107.506 52.0736 107.642 52.0059L107.663 51.9927C108.23 51.6279 108.716 51.1506 109.091 50.5903C109.509 50.0078 109.873 49.3877 110.176 48.7381C110.798 47.4184 111.269 46.0324 111.578 44.6066C111.898 43.1836 112.078 41.7327 112.115 40.2747C112.163 38.8261 112.062 37.3764 111.813 35.9485C111.335 33.1082 110.244 30.406 108.617 28.0295C107.012 25.65 104.873 23.6523 102.488 21.9815L104.537 20.9458C104.454 23.1129 104.248 25.2736 103.919 27.4171C103.837 27.9539 103.739 28.4869 103.645 29.0217C103.55 29.5566 103.437 30.0858 103.31 30.615C103.078 31.6753 102.796 32.7242 102.499 33.7675C101.887 35.8608 101.141 37.9126 100.265 39.91C99.8308 40.9041 99.3583 41.8812 98.8575 42.8413C98.3567 43.8015 97.8256 44.7465 97.2643 45.6763C96.703 46.6062 96.119 47.5115 95.501 48.3998C94.883 49.2881 94.2329 50.1499 93.562 50.9967C90.8776 54.3726 87.7869 57.4044 84.36 60.0233C83.5038 60.6734 82.6307 61.299 81.7311 61.8887C81.2788 62.1835 80.8227 62.4696 80.3628 62.7467C79.896 63.0246 79.4386 63.2873 78.9378 63.5462C78.8057 63.6214 78.6492 63.641 78.5026 63.6008C78.3561 63.5606 78.2315 63.4638 78.1563 63.3317C78.0811 63.1996 78.0615 63.0431 78.1017 62.8965C78.142 62.7499 78.2388 62.6254 78.3708 62.5502L78.4011 62.5369Z" fill="black"/>
<path d="M98.8765 78.2806C99.655 78.7023 100.322 79.3036 100.821 80.0345C101.339 80.7963 101.677 81.6653 101.812 82.5765C101.944 83.4807 101.908 84.4017 101.704 85.2925C101.658 85.513 101.599 85.7307 101.528 85.9445C101.458 86.1581 101.392 86.3735 101.301 86.5795C101.218 86.787 101.125 86.9901 101.022 87.1881C100.921 87.3885 100.819 87.5869 100.7 87.7759C99.7791 89.3315 98.3748 90.5434 96.7012 91.227C95.8692 91.5587 94.9812 91.7275 94.0856 91.7241C93.2179 91.7195 92.3605 91.5368 91.5663 91.1873C91.4434 91.1333 91.343 91.0384 91.2823 90.9187C91.2215 90.799 91.2042 90.6619 91.2332 90.5308C91.2621 90.3998 91.3357 90.2828 91.4412 90.1999C91.5468 90.117 91.6778 90.0732 91.812 90.076H91.8309C93.1891 90.1255 94.5345 89.7984 95.7184 89.131C96.8376 88.4717 97.7719 87.54 98.4343 86.4227C99.1079 85.3312 99.4748 84.0782 99.4964 82.7958C99.5058 81.5352 99.0579 80.3048 98.1583 79.1727L98.147 79.1594C98.0642 79.0546 98.02 78.9245 98.0218 78.791C98.0235 78.6574 98.0712 78.5285 98.1567 78.4259C98.2422 78.3233 98.3604 78.2533 98.4915 78.2275C98.6226 78.2017 98.7585 78.2218 98.8765 78.2844V78.2806Z" fill="black"/>
<path d="M90.438 56.4379C102.469 13.8337 23.0154 17.4058 37.4883 59.1557L38.2046 92.5538C38.2046 92.5538 46.7508 109.513 66.1753 108.358C85.5998 107.203 101.386 89.3824 84.2013 77.9687C77.8323 63.5103 90.438 56.4379 90.438 56.4379Z" fill="#51CAE4"/>
<path d="M38.2915 91.7694C41.9163 85.986 46.3652 78.5716 46.4049 78.5395C44.7607 78.2786 71.7329 68.0396 36.2504 60.989C32.0775 60.6979 22.454 57.7401 13.8757 38.3091C2.21873 54.7709 15.45 70.7621 20.806 71.2346C7.41599 73.5177 17.9315 85.8556 26.5759 85.1223C23.7996 91.3952 31.518 97.4375 38.2915 91.7694Z" fill="#51CAE4"/>
<path d="M24.7067 72.6899C23.5198 72.3119 22.3216 72.0624 21.1706 72.1115C20.0679 72.1282 18.9923 72.4557 18.0674 73.0565C17.21 73.6183 16.5658 74.4515 16.238 75.4228C16.1632 75.6568 16.107 75.8963 16.0698 76.1391C16.0374 76.3815 16.0266 76.6263 16.0376 76.8705C16.0569 77.3636 16.1638 77.8494 16.3533 78.305C16.7777 79.2861 17.4506 80.1394 18.3055 80.7809C19.2364 81.493 20.2658 82.066 21.3615 82.4819C22.5116 82.9334 23.6976 83.2874 24.907 83.5403C26.1317 83.8238 27.3922 84.0128 28.6679 84.2037C28.8002 84.2307 28.9187 84.3033 29.0029 84.4088C29.0871 84.5143 29.1317 84.646 29.1287 84.781C29.1258 84.9159 29.0756 85.0455 28.9869 85.1473C28.8982 85.249 28.7766 85.3164 28.6434 85.3377C27.3112 85.4707 25.9701 85.4884 24.6349 85.3906C23.2686 85.2935 21.9166 85.0508 20.6018 84.6668C20.2673 84.5723 19.9384 84.4494 19.6077 84.3341C19.277 84.2188 18.9519 84.0714 18.6287 83.9164C17.9715 83.6097 17.3444 83.2421 16.7558 82.8183C16.1446 82.3769 15.5899 81.8621 15.104 81.2856C14.6016 80.6823 14.1938 80.0061 13.8945 79.2803C13.5958 78.53 13.4327 77.7326 13.4126 76.9253C13.3988 76.1136 13.5372 75.3065 13.8208 74.5458C14.3881 73.0489 15.4748 71.8059 16.8824 71.0437C17.0525 70.9473 17.2283 70.866 17.4022 70.7848C17.576 70.7035 17.7575 70.6336 17.9408 70.5769L18.2129 70.4861C18.3037 70.4578 18.4019 70.4351 18.487 70.4105C18.676 70.3557 18.865 70.3255 19.0426 70.2896C19.7748 70.1631 20.5211 70.1409 21.2595 70.2234C22.6646 70.3958 24.0128 70.8829 25.2037 71.6485C25.2716 71.6803 25.3326 71.7251 25.3831 71.7804C25.4337 71.8357 25.4728 71.9005 25.4984 71.971C25.5239 72.0414 25.5353 72.1162 25.5319 72.1911C25.5286 72.266 25.5105 72.3394 25.4787 72.4073C25.4469 72.4752 25.4021 72.5362 25.3468 72.5867C25.2915 72.6373 25.2267 72.6764 25.1563 72.702C25.0858 72.7275 25.011 72.7389 24.9361 72.7355C24.8613 72.7322 24.7878 72.7141 24.7199 72.6823L24.7067 72.6899Z" fill="black"/>
<path d="M27.4395 84.8426C27.2034 85.2916 27.0135 85.7633 26.8726 86.2506C26.7448 86.7058 26.6812 87.1765 26.6836 87.6492C26.6939 88.5425 26.9834 89.4102 27.5114 90.1308C28.0454 90.8563 28.7487 91.4402 29.56 91.8318C30.3841 92.2407 31.2864 92.4676 32.2059 92.4971C33.1365 92.5324 34.0649 92.3821 34.9368 92.0548C35.8425 91.7091 36.6873 91.221 37.4391 90.609C37.8296 90.2893 38.2019 89.9479 38.5541 89.5865C38.9094 89.2198 39.2458 88.8305 39.5747 88.4166C39.9035 88.0027 40.2116 87.5774 40.5064 87.1314C40.8012 86.6853 41.0885 86.2261 41.3795 85.7611V85.7441C41.4097 85.6756 41.453 85.6137 41.5071 85.562C41.5612 85.5102 41.6249 85.4696 41.6947 85.4425C41.7644 85.4154 41.8389 85.4023 41.9137 85.404C41.9885 85.4056 42.0623 85.422 42.1308 85.4521C42.1993 85.4823 42.2612 85.5256 42.3129 85.5797C42.3647 85.6338 42.4053 85.6975 42.4324 85.7673C42.4595 85.837 42.4726 85.9115 42.4709 85.9863C42.4693 86.0611 42.4529 86.1349 42.4228 86.2034C42.3472 86.4812 42.2678 86.7572 42.179 87.0331C42.0901 87.309 41.99 87.5812 41.8785 87.8515C41.6637 88.3969 41.4163 88.929 41.1376 89.4447C40.8489 89.9688 40.527 90.4738 40.1738 90.9567C39.8118 91.4462 39.4138 91.9081 38.9831 92.3383C38.0893 93.226 37.0375 93.9388 35.8818 94.44C35.2885 94.6948 34.6694 94.8849 34.0353 95.007C32.7495 95.2506 31.4251 95.1976 30.1629 94.852C29.5305 94.6774 28.9213 94.4274 28.3486 94.1073C27.7714 93.7879 27.2384 93.3947 26.7629 92.9374C26.2796 92.4761 25.8658 91.9471 25.5345 91.3668C24.8555 90.1954 24.598 88.8267 24.805 87.4886C25.0187 86.2378 25.6088 85.082 26.4965 84.1754C26.5922 84.076 26.7204 84.0142 26.8578 84.0013C26.9952 83.9883 27.1327 84.0251 27.2453 84.105C27.3579 84.1849 27.438 84.3025 27.4713 84.4364C27.5045 84.5704 27.4885 84.7118 27.4263 84.835L27.4395 84.8426Z" fill="black"/>
<path d="M35.6305 62.484L35.3394 62.4046L35.071 62.3271C34.8953 62.2742 34.7214 62.2194 34.5475 62.1627C34.201 62.048 33.8602 61.9271 33.5251 61.7998C32.851 61.5478 32.1883 61.2694 31.5369 60.9644C30.2355 60.3617 28.9731 59.6781 27.7571 58.9176C22.8581 55.8563 18.797 51.625 15.9395 46.6043C14.5185 44.1047 13.3776 41.4559 12.5376 38.706L15.0285 39.118C14.1725 40.3804 13.3956 41.6946 12.702 43.053C12.0231 44.4093 11.4873 45.8325 11.1032 47.2998C10.7171 48.7657 10.4946 50.2699 10.4398 51.7848C10.3926 53.3047 10.5079 54.8253 10.7838 56.3207C11.3593 59.3501 12.5394 62.2324 14.2537 64.7955C15.0991 66.0786 16.0911 67.259 17.2095 68.3127C17.7568 68.8282 18.3516 69.2907 18.986 69.6943C19.5559 70.0793 20.1994 70.3419 20.8759 70.4654H20.8986C21.0991 70.4862 21.2831 70.5858 21.4102 70.7423C21.5372 70.8988 21.5969 71.0994 21.5761 71.2999C21.5553 71.5004 21.4557 71.6844 21.2992 71.8115C21.1428 71.9385 20.9422 71.9982 20.7417 71.9774C20.267 71.9345 19.8007 71.825 19.3564 71.6524C18.9412 71.4959 18.5392 71.3063 18.1544 71.0854C17.4129 70.6557 16.7131 70.1577 16.0642 69.5979C14.7922 68.4985 13.6553 67.2518 12.6775 65.8841C10.7075 63.1539 9.30872 60.0542 8.56502 56.7706C8.19548 55.1175 8.00539 53.4294 7.99805 51.7356C8.00048 50.0334 8.19062 48.3366 8.56502 46.6761C8.93746 45.0175 9.48023 43.4018 10.1847 41.8547C10.3529 41.4635 10.5494 41.0987 10.7327 40.7075C10.9161 40.3163 11.1259 39.9515 11.3432 39.5962C11.4509 39.4072 11.5549 39.2296 11.6645 39.05L12.0084 38.5189C12.1218 38.3299 12.239 38.1655 12.3637 37.9954L12.7417 37.4851L12.7682 37.4473C12.9224 37.2375 13.1324 37.0752 13.3744 36.979C13.6164 36.8829 13.8805 36.8566 14.1366 36.9033C14.3928 36.95 14.6306 37.0678 14.8231 37.2432C15.0155 37.4185 15.1548 37.6445 15.2251 37.8952C15.9522 40.4701 16.9619 42.9567 18.2357 45.3097C20.7963 50.0323 24.4903 54.0446 28.9855 56.986C30.1067 57.7199 31.2725 58.3833 32.4762 58.9724C33.0772 59.266 33.687 59.5375 34.3056 59.787C34.6131 59.913 34.923 60.0302 35.2355 60.1385L35.7004 60.2973L35.9291 60.3691L36.1407 60.4296L36.1955 60.4466C36.4644 60.5218 36.6925 60.7007 36.8295 60.944C36.9665 61.1874 37.0012 61.4751 36.926 61.7441C36.8508 62.013 36.6719 62.241 36.4286 62.378C36.1852 62.515 35.8975 62.5497 35.6286 62.4745L35.6305 62.484Z" fill="black"/>
<path d="M45.6319 101.907C40.2608 90.83 47.1212 79.8341 50.9766 79.4977C50.5003 78.7265 50.8424 78.9307 50.8424 78.9307C50.8424 78.9307 25.5553 75.2395 37.4845 59.1575C39.3332 58.0031 41.468 57.3891 43.6475 57.3848C41.0489 51.934 38.4502 37.1259 50.9766 33.0965C62.849 29.2806 68.5906 42.3064 67.7514 51.9605C70.6959 51.4861 72.274 52.0965 72.0774 51.9775C71.741 39.7776 78.8509 29.7474 86.4276 34.1322C93.3749 43.3402 90.6269 57.0464 90.6269 57.0464C90.6269 57.0464 102.482 58.2541 99.175 69.6149C96.7446 77.9686 80.3761 77.3412 80.3761 77.3412C94.3803 77.9743 101.416 108.186 61.3522 108.337C48.2929 103.761 45.6319 101.907 45.6319 101.907Z" fill="#FFFCD9"/>
<path d="M48.2628 59.923C46.6639 59.3239 44.9989 58.9969 43.4038 59.167C41.8332 59.3178 40.3427 59.9315 39.1213 60.9304C37.9133 61.9199 36.993 63.2155 36.4565 64.682C36.1852 65.4042 36.0154 66.1604 35.9519 66.9292C35.9192 67.3063 35.9117 67.6852 35.9292 68.0632C35.9512 68.4444 36.0011 68.8234 36.0785 69.1972C36.387 70.7054 37.1186 72.0945 38.1877 73.2021C39.3157 74.3605 40.6595 75.287 42.1432 75.9294C43.6935 76.615 45.3166 77.1222 46.9814 77.4414C48.6922 77.7785 50.4213 78.0151 52.1598 78.1501C52.3101 78.1501 52.4544 78.2099 52.5607 78.3162C52.667 78.4225 52.7267 78.5667 52.7267 78.7171C52.7267 78.8675 52.667 79.0117 52.5607 79.118C52.4544 79.2244 52.3101 79.2841 52.1598 79.2841C50.3433 79.4571 48.5144 79.4571 46.6979 79.2841C44.8344 79.1193 43.001 78.7081 41.2455 78.0613C40.3438 77.7263 39.4772 77.3034 38.6582 76.7988C37.8157 76.2848 37.0367 75.6733 36.3374 74.9768C35.6241 74.2623 35.0129 73.4527 34.5212 72.5709C34.0304 71.6739 33.6781 70.7079 33.4761 69.7056C33.0871 67.7064 33.2907 65.6371 34.062 63.7522C34.4354 62.8182 34.9393 61.942 35.5588 61.1496C36.1735 60.3542 36.902 59.6537 37.7208 59.0706C37.9268 58.9251 38.131 58.7815 38.3502 58.6567C38.5694 58.532 38.7868 58.4091 39.0079 58.2939C39.229 58.1786 39.4633 58.0841 39.6901 57.9801C39.9169 57.8762 40.1588 57.7911 40.397 57.7288C41.3459 57.4329 42.3342 57.2825 43.3282 57.2827C45.2523 57.3221 47.1306 57.8769 48.7674 58.8892C48.8349 58.9218 48.8953 58.9674 48.9452 59.0234C48.9951 59.0794 49.0334 59.1447 49.0581 59.2155C49.0827 59.2863 49.0932 59.3613 49.0889 59.4362C49.0846 59.511 49.0656 59.5843 49.0329 59.6518C49.0003 59.7193 48.9547 59.7798 48.8987 59.8296C48.8427 59.8795 48.7774 59.9179 48.7066 59.9425C48.6358 59.9672 48.5608 59.9777 48.486 59.9733C48.4111 59.969 48.3378 59.95 48.2703 59.9174L48.2628 59.923Z" fill="black"/>
<path d="M43.8688 33.0946C42.9238 30.9022 42.6384 23.673 44.8572 18.8762C48.2836 11.4637 53.8872 17.9312 49.1624 23.6012C44.8156 28.8195 45.3675 31.8793 45.3675 31.8793" fill="#51CAE4"/>
<path d="M85.4939 58.2013C87.0729 57.2227 88.8769 56.6662 90.7328 56.5853C91.6952 56.5636 92.6553 56.6872 93.5809 56.952C94.5185 57.222 95.4063 57.6419 96.2097 58.1956C97.8499 59.3141 99.1111 60.9052 99.8257 62.7575C100.54 64.6098 100.675 66.6356 100.211 68.566C99.9716 69.5313 99.5847 70.4538 99.0635 71.3008C98.5497 72.1323 97.924 72.8891 97.2038 73.5499C95.7978 74.8046 94.1546 75.7647 92.3713 76.3736C91.9385 76.5191 91.5038 76.6665 91.0654 76.778C90.6269 76.8895 90.1866 77.001 89.7424 77.0936C88.8645 77.266 87.9782 77.3922 87.0871 77.4716C85.3308 77.6214 83.5645 77.6094 81.8105 77.4357C81.6588 77.4357 81.5134 77.3755 81.4062 77.2683C81.299 77.1611 81.2388 77.0156 81.2388 76.864C81.2388 76.7124 81.299 76.5669 81.4062 76.4597C81.5134 76.3525 81.6588 76.2923 81.8105 76.2923C83.4899 76.158 85.1606 75.9308 86.815 75.6119C88.4269 75.3122 90.0025 74.8421 91.5152 74.2095C92.9855 73.5688 94.35 72.7467 95.4254 71.6864C95.9592 71.1678 96.4224 70.5813 96.8032 69.9419C97.1785 69.3187 97.4563 68.6419 97.6272 67.9347C97.9698 66.5088 97.8857 65.0135 97.3853 63.635C96.8871 62.231 96.0019 60.9966 94.832 60.0743C93.6363 59.1372 92.1891 58.5767 90.6742 58.464C89.1339 58.3279 87.5293 58.653 85.9796 59.22C85.8433 59.2862 85.6862 59.2955 85.5431 59.2458C85.3999 59.1962 85.2823 59.0917 85.2161 58.9554C85.1499 58.819 85.1406 58.662 85.1903 58.5188C85.2399 58.3756 85.3443 58.258 85.4807 58.1918L85.4939 58.2013Z" fill="black"/>
<path d="M70.3689 81.038C72.2172 79.2255 74.4624 77.7097 77.0497 76.88C78.3583 76.4685 79.7245 76.27 81.096 76.2922C82.4918 76.3171 83.8717 76.5917 85.1707 77.103C87.8026 78.1555 89.9845 80.0941 91.3394 82.584C92.017 83.8161 92.4876 85.1512 92.7322 86.536C92.9714 87.9169 92.9956 89.3264 92.8041 90.7147C92.6097 92.0857 92.2215 93.422 91.6512 94.6837C91.0895 95.9286 90.3808 97.1019 89.5402 98.1783C88.7109 99.2345 87.7867 100.213 86.779 101.1C85.7808 101.968 84.7182 102.758 83.6002 103.465L82.7629 103.981C82.4813 104.147 82.196 104.304 81.9087 104.464L81.4816 104.703L81.045 104.924C80.7559 105.073 80.4629 105.217 80.1719 105.36L79.2836 105.759L78.8395 105.948L78.3897 106.137L77.4901 106.502C77.1877 106.615 76.8847 106.726 76.581 106.834C74.1606 107.691 71.6739 108.347 69.1461 108.796C68.9988 108.832 68.8431 108.808 68.7134 108.73C68.5837 108.651 68.4905 108.524 68.4544 108.377C68.4183 108.229 68.4422 108.074 68.5209 107.944C68.5996 107.814 68.7266 107.721 68.874 107.685C71.2585 106.958 73.5995 106.096 75.8855 105.101L76.7341 104.723L77.5676 104.321L77.9833 104.12L78.3916 103.905L79.2061 103.474C80.2735 102.887 81.3099 102.246 82.3113 101.552C83.2951 100.855 84.2349 100.097 85.1253 99.284C85.9927 98.4755 86.7846 97.5899 87.4915 96.638C88.1878 95.7061 88.7755 94.6979 89.2435 93.6329C89.7085 92.589 90.0229 91.4842 90.1771 90.3518C90.5031 88.1066 90.1171 85.8156 89.0734 83.8011C88.8161 83.3014 88.5184 82.8235 88.1832 82.3723C88.0056 82.155 87.8411 81.9263 87.6465 81.7221C87.552 81.6201 87.4575 81.5086 87.363 81.4122L87.0625 81.1174C86.653 80.7297 86.2104 80.3787 85.7396 80.0684C85.2753 79.7499 84.7832 79.4741 84.2692 79.2444C83.2303 78.7834 82.1198 78.5047 80.9864 78.4203C79.8287 78.3296 78.664 78.4227 77.5354 78.6963C75.2373 79.2255 73.0752 80.4218 71.1097 81.9092C70.9947 82.008 70.8452 82.057 70.694 82.0455C70.5428 82.034 70.4024 81.9629 70.3037 81.8478C70.205 81.7328 70.1559 81.5832 70.1675 81.4321C70.179 81.2809 70.2501 81.1405 70.3651 81.0417L70.3689 81.038Z" fill="black"/>
<path d="M68.876 108.808C66.3481 108.358 63.8614 107.701 61.4411 106.844L60.532 106.511L59.6324 106.147L59.1826 105.958L58.7385 105.769L57.8502 105.368C57.5573 105.226 57.2643 105.081 56.9752 104.933L56.5386 104.712L56.1115 104.472C55.828 104.311 55.5445 104.156 55.2573 103.99L54.42 103.474C54.1384 103.308 53.8719 103.109 53.5979 102.928L53.1878 102.65C53.0536 102.556 52.9232 102.461 52.789 102.357C52.5263 102.155 52.258 101.964 52.0047 101.749L51.2487 101.108C50.2387 100.222 49.3125 99.2441 48.4819 98.1878C47.6435 97.1099 46.9349 95.9369 46.3709 94.6932C45.8016 93.4313 45.4141 92.095 45.2199 90.7242C45.0283 89.3359 45.0526 87.9264 45.2917 86.5455C45.5354 85.1608 46.0067 83.826 46.6865 82.5954C48.0395 80.1047 50.2211 78.1658 52.8533 77.1144C54.152 76.6022 55.5321 76.3276 56.9279 76.3036C58.2995 76.2807 59.6659 76.4791 60.9742 76.8914C63.5615 77.7154 65.8068 79.2312 67.6551 81.0494C67.7701 81.1481 67.8412 81.2885 67.8527 81.4397C67.8643 81.5909 67.8153 81.7404 67.7165 81.8555C67.6178 81.9705 67.4774 82.0416 67.3262 82.0531C67.175 82.0646 67.0255 82.0156 66.9105 81.9169C65.9389 81.1766 64.9058 80.5209 63.8223 79.9569C62.7644 79.4066 61.6428 78.9883 60.4829 78.7115C59.3545 78.4364 58.1897 78.3426 57.0319 78.4336C55.898 78.5191 54.7871 78.7978 53.7472 79.2577C53.2337 79.4882 52.7416 79.764 52.2769 80.0817C51.8064 80.3925 51.3638 80.7434 50.9539 81.1306L50.6534 81.4255C50.5514 81.5238 50.4644 81.6334 50.368 81.7373C50.1791 81.9396 50.009 82.1682 49.8332 82.3875C49.4968 82.8376 49.1984 83.3149 48.9412 83.8144C47.8974 85.8295 47.512 88.1213 47.8393 90.367C47.9935 91.4994 48.3079 92.6041 48.773 93.6481C49.2409 94.7131 49.8287 95.7212 50.5249 96.6531C51.2312 97.6055 52.0232 98.4912 52.8911 99.2991L53.5639 99.8964C53.785 100.097 54.0288 100.274 54.2594 100.463C54.3766 100.558 54.49 100.652 54.609 100.749L54.9719 101.021C55.2176 101.199 55.45 101.399 55.7052 101.558C56.7087 102.252 57.747 102.895 58.816 103.484L59.6305 103.914L60.0387 104.13L60.4545 104.33L61.288 104.733L62.1365 105.111C64.4213 106.11 66.7618 106.977 69.1462 107.708C69.2936 107.744 69.4206 107.837 69.4993 107.967C69.5779 108.096 69.6019 108.252 69.5658 108.399C69.5297 108.547 69.4365 108.674 69.3068 108.752C69.1771 108.831 69.0214 108.855 68.8741 108.819L68.876 108.808Z" fill="black"/>
<path d="M36.9534 59.3428C36.6056 58.3563 36.2257 57.3773 35.9555 56.3585L35.7363 55.6025C35.6682 55.3474 35.6191 55.0885 35.5586 54.8314L35.3866 54.0584L35.3016 53.6804L35.2392 53.2892C34.8539 51.1874 34.7478 49.0439 34.9236 46.9143C35.2743 42.5575 36.9943 38.4234 39.8374 35.1037L40.3684 34.4876L40.5026 34.3345L40.6444 34.1889L40.9222 33.8903L41.4892 33.3101C41.6781 33.1211 41.8879 32.9434 42.0883 32.762C42.2886 32.5806 42.4889 32.3972 42.693 32.2215L43.3261 31.7168C43.5397 31.5505 43.7457 31.3747 43.9649 31.2198L44.6245 30.7529C46.3896 29.5256 48.2785 28.4867 50.2602 27.6533C52.2322 26.8291 54.2747 26.1851 56.3628 25.7293C60.5307 24.7978 64.8241 24.5635 69.0686 25.0357C71.1945 25.2609 73.2954 25.6797 75.3451 26.2869C77.4086 26.8962 79.3997 27.7283 81.2831 28.7684C83.1848 29.8142 84.9331 31.1173 86.4785 32.641C89.6186 35.6993 91.6592 39.7102 92.2824 44.049C92.5874 46.1655 92.6084 48.3133 92.3448 50.4353L92.3051 50.8303L92.2409 51.2215L92.1142 52.0021C92.0689 52.2629 92.0349 52.5237 91.9819 52.7827L91.8081 53.5519C91.5945 54.5838 91.2732 55.5836 90.9841 56.5872C90.948 56.7341 90.855 56.8606 90.7257 56.9389C90.5963 57.0173 90.4411 57.041 90.2943 57.0049C90.1474 56.9688 90.0209 56.8759 89.9426 56.7465C89.8642 56.6171 89.8405 56.4619 89.8766 56.3151V56.2773C90.0845 55.2831 90.3245 54.2985 90.4549 53.2968L90.5758 52.5408C90.6118 52.2913 90.6288 52.0399 90.6571 51.7848L90.7327 51.0288L90.7705 50.6508L90.7856 50.2728C90.7989 49.7738 90.8329 49.273 90.8348 48.774L90.8159 47.3093L90.6779 45.8275C90.608 45.338 90.5192 44.8542 90.4417 44.3666C90.0791 42.4414 89.4111 40.5866 88.4629 38.8723C87.5145 37.1728 86.3068 35.6316 84.8834 34.3042C83.447 32.9775 81.8449 31.8423 80.1171 30.9268C78.3745 30.0035 76.5368 29.2722 74.6363 28.7458C66.9059 26.6457 58.7044 27.0937 51.2487 30.0234C49.4151 30.7545 47.663 31.6756 46.0212 32.7714L45.4107 33.1854C45.2085 33.3252 45.0214 33.4821 44.8248 33.6276L44.2409 34.0755L43.6833 34.5537C43.4943 34.7144 43.3054 34.8675 43.1277 35.0338L42.6023 35.5422L42.3377 35.7973L42.2054 35.9239L42.0826 36.06L41.5912 36.6006C38.9525 39.5248 37.2778 43.1904 36.7946 47.0995C36.7474 47.5909 36.6831 48.0804 36.6472 48.5737L36.5962 50.0611L36.6472 51.5542C36.6812 52.0512 36.7417 52.5483 36.7833 53.0473L36.8192 53.4253L36.8797 53.8033L36.9987 54.546C37.0403 54.7955 37.0705 55.045 37.1216 55.2907L37.286 56.0297C37.475 57.0219 37.7698 57.9915 38.042 58.9724L38.0514 59.0083C38.0963 59.1527 38.0819 59.3089 38.0116 59.4427C37.9412 59.5765 37.8206 59.6769 37.6763 59.7218C37.5319 59.7667 37.3756 59.7523 37.2418 59.682C37.108 59.6116 37.0077 59.491 36.9628 59.3466L36.9534 59.3428Z" fill="black"/>
<path d="M43.3452 33.3233C42.968 32.5358 42.701 31.7001 42.5514 30.8398C42.5061 30.6319 42.4758 30.4259 42.4418 30.2162C42.4078 30.0064 42.3757 29.8004 42.353 29.5925L42.2793 28.9669L42.2245 28.3413C42.1621 27.5059 42.1564 26.6686 42.1678 25.8295C42.1907 24.9875 42.2569 24.1472 42.3662 23.312C42.5753 21.5948 43.0238 19.9153 43.6986 18.3224C44.0695 17.469 44.5574 16.6713 45.1482 15.9524C45.227 15.8548 45.3115 15.762 45.4014 15.6746L45.6717 15.4043C45.77 15.3173 45.8777 15.2323 45.9797 15.1491C46.0831 15.0595 46.1938 14.9786 46.3105 14.9072C46.8091 14.5616 47.3821 14.3382 47.983 14.2552C48.6449 14.1697 49.3172 14.2828 49.9145 14.5802C50.4652 14.8562 50.9386 15.2648 51.2923 15.7691C51.6095 16.2176 51.8514 16.7149 52.0086 17.2414C52.0482 17.368 52.0747 17.4946 52.1068 17.6194L52.1503 17.8084L52.1786 17.9974C52.1975 18.124 52.2164 18.2506 52.2297 18.3754L52.2486 18.7534C52.2751 19.7307 52.0995 20.7029 51.7326 21.6091C51.389 22.4734 50.9127 23.2787 50.3209 23.9962C50.0166 24.3742 49.786 24.6255 49.5271 24.9279C49.2682 25.2303 49.0376 25.5252 48.7919 25.8238L48.6029 26.0487L48.4347 26.2812L48.0946 26.7461C47.9812 26.903 47.8829 27.0655 47.7752 27.2243C47.6674 27.383 47.5616 27.5418 47.4671 27.7062C47.0639 28.3455 46.7192 29.0198 46.4371 29.721C46.2966 30.0634 46.1798 30.4152 46.0875 30.7737L46.0251 31.0383C46.0043 31.1271 45.993 31.2141 45.976 31.3029C45.9589 31.3917 45.9533 31.4749 45.9419 31.5618C45.9306 31.6488 45.9306 31.7508 45.923 31.7735L45.8796 31.9776C45.8522 32.1006 45.7837 32.2105 45.6855 32.2893C45.5872 32.3681 45.465 32.4111 45.3391 32.4111C45.2131 32.4111 45.0909 32.3681 44.9926 32.2893C44.8944 32.2105 44.8259 32.1006 44.7985 31.9776C44.7716 31.8484 44.7514 31.7178 44.7381 31.5864C44.7286 31.4692 44.7192 31.352 44.7173 31.2386C44.7154 31.1252 44.7173 31.0118 44.7173 30.8984L44.7343 30.5639C44.7755 30.1261 44.8469 29.6916 44.9478 29.2636C44.9989 29.0519 45.0461 28.8364 45.116 28.6342C45.186 28.432 45.2408 28.2165 45.322 28.0181L45.5507 27.4152L45.8096 26.8274C45.8928 26.6271 45.9986 26.4494 46.095 26.2604C46.1914 26.0714 46.284 25.8824 46.3955 25.6934L46.7168 25.1434L46.8774 24.8694L47.0513 24.6029C47.2819 24.2513 47.5087 23.8922 47.7638 23.5596C48.019 23.227 48.2854 22.8546 48.4706 22.59C48.8727 22.0313 49.1911 21.4169 49.4156 20.7662C49.6281 20.1599 49.7186 19.5176 49.6821 18.8762L49.6632 18.6494L49.6254 18.4302L49.6084 18.3205L49.58 18.2166C49.5592 18.1485 49.546 18.0767 49.5233 18.0106C49.4441 17.7644 49.3253 17.5327 49.1718 17.3245C49.062 17.1638 48.913 17.0337 48.739 16.9465C48.6086 16.882 48.4613 16.8595 48.3176 16.8823C48.0133 16.9087 47.5332 17.196 47.1269 17.6798C46.6859 18.2055 46.3149 18.7862 46.0232 19.4073C45.3968 20.7759 44.938 22.2151 44.6568 23.6938C44.3468 25.2166 44.161 26.762 44.1012 28.3148C44.052 29.0954 44.069 29.8741 44.1012 30.649L44.1352 31.2273L44.1957 31.7943C44.2127 31.9833 44.2524 32.1628 44.2788 32.3499C44.2924 32.4386 44.3113 32.5263 44.3355 32.6127L44.396 32.8716L44.4111 32.9396C44.446 33.0766 44.4285 33.2217 44.3619 33.3465C44.2954 33.4712 44.1847 33.5666 44.0515 33.6139C43.9183 33.6612 43.7722 33.6571 43.6419 33.6022C43.5116 33.5474 43.4064 33.4459 43.3471 33.3176L43.3452 33.3233Z" fill="black"/>
<path d="M52.7228 56.8972C53.056 56.6625 53.418 56.4719 53.8001 56.3302C54.177 56.1888 54.5669 56.0849 54.9643 56.0202C55.7749 55.8873 56.6036 55.9136 57.4041 56.0977C58.2085 56.2847 58.967 56.6318 59.6342 57.1183C60.2836 57.5929 60.8257 58.1989 61.2255 58.8968C61.2615 58.9627 61.2743 59.0386 61.2621 59.1126C61.2499 59.1866 61.2133 59.2545 61.1581 59.3053C61.103 59.3561 61.0324 59.3871 60.9576 59.3932C60.8829 59.3993 60.8082 59.3802 60.7455 59.339C60.1675 58.9389 59.5647 58.5759 58.9406 58.2523C58.3457 57.9544 57.7177 57.7279 57.0696 57.5776C56.4172 57.4294 55.7505 57.3527 55.0814 57.3489C54.7412 57.3489 54.3954 57.3583 54.0458 57.3829C53.6961 57.4075 53.337 57.4528 53.0006 57.4925H52.9609C52.8881 57.5005 52.8148 57.4841 52.7522 57.4461C52.6896 57.4081 52.6413 57.3504 52.6148 57.2822C52.5883 57.2139 52.5851 57.1388 52.6057 57.0685C52.6262 56.9982 52.6694 56.9366 52.7285 56.8934L52.7228 56.8972Z" fill="black"/>
<path d="M84.8383 55.7329C84.5038 55.7896 84.1409 55.8444 83.8026 55.9219C83.4643 55.9994 83.126 56.0788 82.801 56.1808C82.1598 56.3732 81.5414 56.6343 80.9564 56.9595C80.3777 57.2878 79.8393 57.6823 79.3519 58.1351C78.8448 58.6226 78.3689 59.1415 77.9269 59.6887C77.8988 59.7227 77.8642 59.7508 77.8252 59.7714C77.7863 59.792 77.7436 59.8046 77.6997 59.8087C77.6558 59.8127 77.6115 59.808 77.5694 59.7949C77.5273 59.7818 77.4882 59.7604 77.4544 59.7321C77.4075 59.6924 77.3723 59.6406 77.3527 59.5823C77.333 59.524 77.3297 59.4615 77.3429 59.4014C77.5303 58.6196 77.8792 57.8857 78.3672 57.2468C78.8701 56.5915 79.5 56.0445 80.2193 55.6384C80.936 55.2385 81.7236 54.9817 82.5383 54.8824C82.9382 54.8327 83.3421 54.8226 83.744 54.8522C84.1493 54.8792 84.5494 54.958 84.9347 55.0866C85.0037 55.1112 85.0627 55.1579 85.1024 55.2195C85.1422 55.2811 85.1605 55.3542 85.1544 55.4272C85.1484 55.5003 85.1184 55.5693 85.0691 55.6236C85.0198 55.6779 84.9539 55.7143 84.8817 55.7273L84.8383 55.7329Z" fill="black"/>
<path d="M75.8366 59.5488C73.3173 48.1767 67.8555 50.2878 65.2115 56.8499C64.2665 59.1821 62.6847 60.8472 61.3447 60.3596C65.6197 65.4796 63.9906 72.9639 68.5907 72.9639C73.3154 72.9639 72.5292 58.3657 75.1298 58.6133C75.477 58.8225 75.7302 59.1576 75.8366 59.5488Z" fill="#FFC300"/>
<path d="M61.4561 60.0534C61.6483 60.0887 61.8458 60.0827 62.0354 60.0358C62.2251 59.9889 62.4026 59.9021 62.5561 59.7812C62.9126 59.5188 63.2235 59.1996 63.4765 58.8362C63.7479 58.46 63.9851 58.0603 64.1852 57.6418C64.2872 57.4301 64.3742 57.2146 64.4687 56.9973C64.514 56.8896 64.5575 56.7799 64.5972 56.6684L64.7314 56.3112C65.1019 55.3289 65.5872 54.3938 66.1772 53.5254C66.4821 53.0771 66.8282 52.6582 67.2109 52.2742C67.6094 51.8686 68.063 51.5212 68.5584 51.2423C69.094 50.9392 69.6922 50.7639 70.3066 50.7301C70.9386 50.7068 71.5652 50.8536 72.1209 51.1553C72.6318 51.4407 73.088 51.8144 73.4685 52.2591C73.8252 52.6721 74.1369 53.1219 74.3983 53.601C74.8908 54.5192 75.2788 55.4898 75.5549 56.4945C75.8273 57.4741 76.0281 58.4721 76.1559 59.4807C76.164 59.5607 76.1426 59.6408 76.0956 59.706C76.0487 59.7712 75.9795 59.817 75.9011 59.8347C75.8227 59.8524 75.7406 59.8407 75.6702 59.802C75.5998 59.7632 75.546 59.7001 75.519 59.6244C75.2091 58.6794 74.9029 57.7457 74.5325 56.8442C74.3548 56.3925 74.1545 55.9483 73.9466 55.5212C73.74 55.0959 73.5097 54.6827 73.2568 54.2833C73.0113 53.903 72.7337 53.5445 72.4271 53.2116C72.1471 52.9032 71.8143 52.6472 71.4443 52.4556C70.7526 52.1041 70.008 52.1589 69.2842 52.5615C68.5603 52.964 67.9159 53.6293 67.3602 54.3664C66.8034 55.1361 66.3242 55.9592 65.9296 56.8234L65.7784 57.156C65.7255 57.277 65.6688 57.3961 65.6121 57.5151C65.4968 57.7533 65.3683 57.9838 65.2341 58.2125C64.9618 58.6743 64.6453 59.1085 64.2891 59.5091C63.9223 59.9293 63.484 60.2812 62.9945 60.5486C62.7275 60.6862 62.4383 60.7757 62.1403 60.8132C61.8298 60.8476 61.5157 60.8 61.2294 60.6752C61.1524 60.6436 61.0904 60.5839 61.056 60.5081C61.0215 60.4324 61.0172 60.3464 61.044 60.2677C61.0707 60.1889 61.1265 60.1233 61.1999 60.0842C61.2733 60.0451 61.3589 60.0354 61.4391 60.0572L61.4561 60.0534Z" fill="black"/>
<path d="M65.6196 63.0396L71.0588 63.7956C71.0588 63.7956 70.6014 69.4656 68.6643 69.6243C66.7271 69.7831 65.6196 63.0396 65.6196 63.0396Z" fill="#EB5D72"/>
<path d="M61.5222 59.9495C62.6713 60.1971 63.8615 60.1809 65.0035 59.9022C66.1374 59.6338 67.2714 59.1727 68.4336 58.6832C69.0214 58.4413 69.6167 58.1861 70.248 57.9536C70.9019 57.6989 71.5792 57.509 72.2702 57.3866C72.458 57.3565 72.6472 57.3363 72.8371 57.3261L73.1263 57.3129C73.2246 57.3129 73.3266 57.3129 73.4249 57.328C73.629 57.3408 73.8318 57.3693 74.0316 57.4131C74.1317 57.4358 74.2338 57.4717 74.3321 57.5038C74.4339 57.5315 74.5327 57.5695 74.6269 57.6172L74.9085 57.7609C74.9975 57.8144 75.0833 57.8731 75.1655 57.9366C75.3297 58.056 75.4806 58.1929 75.6153 58.3449C75.7396 58.4927 75.8557 58.6473 75.9631 58.8079C76.0519 58.9723 76.135 59.1349 76.2125 59.2993C76.2561 59.3922 76.2667 59.4972 76.2424 59.5969C76.2182 59.6966 76.1606 59.785 76.0791 59.8475C75.9977 59.9099 75.8974 59.9426 75.7948 59.9402C75.6922 59.9378 75.5935 59.9004 75.5151 59.8342L75.4584 59.785C75.3432 59.6886 75.2411 59.596 75.1353 59.494C75.0294 59.3919 74.9198 59.3239 74.8045 59.2634C74.6983 59.1996 74.5863 59.1458 74.47 59.1027C74.4133 59.0857 74.3623 59.0574 74.3056 59.0441L74.1355 59.0082C74.0797 58.9955 74.0227 58.9885 73.9654 58.9875C73.9068 58.9875 73.852 58.9742 73.7934 58.9742C73.6721 58.9751 73.5509 58.9833 73.4306 58.9988L73.2416 59.0234L73.0526 59.0649C72.9279 59.0857 72.7918 59.1368 72.6614 59.1689C72.096 59.3528 71.5419 59.5699 71.002 59.819C70.4351 60.0704 69.8454 60.3388 69.2388 60.5958C68.0254 61.1024 66.7082 61.5635 65.2832 61.7015C64.5639 61.7716 63.8382 61.7327 63.1306 61.5862C62.4275 61.439 61.7587 61.16 61.1594 60.764C61.0711 60.7052 61.0061 60.6173 60.9757 60.5156C60.9452 60.4139 60.9513 60.3048 60.9927 60.2071C61.0342 60.1094 61.1085 60.0293 61.2027 59.9805C61.297 59.9317 61.4053 59.9174 61.509 59.94L61.5222 59.9495Z" fill="black"/>
<path d="M61.3445 60.0346C61.4762 60.0298 61.6068 60.0605 61.7225 60.1234C61.8108 60.1708 61.8927 60.2293 61.9663 60.2973C62.0857 60.4128 62.194 60.5394 62.2895 60.6753C62.457 60.9204 62.6073 61.1768 62.7393 61.4426C63.002 61.9567 63.2137 62.4783 63.4272 62.9962C63.8411 64.0357 64.2229 65.0752 64.6103 66.1015C64.9977 67.1277 65.3984 68.1426 65.8595 69.1084C66.092 69.5885 66.3358 70.0534 66.6042 70.4957C66.8551 70.9166 67.1552 71.3061 67.4981 71.6561C67.759 71.9436 68.108 72.1364 68.4903 72.2042C68.6626 72.2196 68.8362 72.1977 68.9992 72.14C69.1623 72.0823 69.311 71.9901 69.4353 71.8697C69.7718 71.5512 70.0484 71.1748 70.2517 70.7584C70.4861 70.2939 70.6918 69.8154 70.8678 69.3258C71.0568 68.8249 71.2118 68.309 71.3649 67.7854C71.5179 67.2619 71.671 66.7365 71.8147 66.2035C72.117 65.1413 72.3986 64.0622 72.7936 63.0038C72.8203 62.9245 72.8763 62.8585 72.9501 62.8193C73.0239 62.7801 73.11 62.7706 73.1906 62.7929C73.2712 62.8152 73.3401 62.8674 73.3834 62.939C73.4266 63.0106 73.4408 63.0959 73.423 63.1776C73.0299 65.3303 72.7936 67.5397 72.1435 69.7435C71.9805 70.3085 71.7726 70.8597 71.5217 71.3916C71.2585 71.9816 70.886 72.5165 70.4237 72.9678C70.1491 73.2219 69.8283 73.4208 69.4787 73.5537C69.1117 73.6889 68.7189 73.7393 68.3297 73.7011C67.9515 73.661 67.5856 73.5439 67.2543 73.3571C66.9555 73.1881 66.6809 72.9796 66.4379 72.7372C66.0026 72.2978 65.6264 71.8035 65.319 71.2668C65.0246 70.7644 64.7614 70.2443 64.5309 69.7095C64.0846 68.6714 63.6959 67.6095 63.3667 66.5286C63.0247 65.4645 62.7317 64.3948 62.4218 63.344C62.2687 62.8166 62.1043 62.295 61.9247 61.7942C61.8394 61.551 61.7384 61.3136 61.6224 61.0835C61.5732 60.9829 61.5143 60.8873 61.4466 60.7981C61.4235 60.7674 61.3976 60.7389 61.3691 60.7131C61.3483 60.6942 61.3445 60.6923 61.3464 60.6847C61.3015 60.6882 61.2564 60.6823 61.2139 60.6674C61.1714 60.6526 61.1324 60.6292 61.0994 60.5986C61.0663 60.5679 61.04 60.5308 61.0219 60.4896C61.0039 60.4483 60.9946 60.4038 60.9946 60.3587C60.9946 60.3137 61.0039 60.2691 61.0219 60.2279C61.04 60.1866 61.0663 60.1495 61.0994 60.1189C61.1324 60.0883 61.1714 60.0648 61.2139 60.05C61.2564 60.0352 61.3015 60.0293 61.3464 60.0327L61.3445 60.0346Z" fill="black"/>
<path d="M63.7127 60.6639C63.9909 60.7184 64.2527 60.836 64.4781 61.0079C64.6871 61.1694 64.8773 61.3539 65.0451 61.5579C65.3648 61.9492 65.6447 62.3715 65.8805 62.8185C66.3338 63.6851 66.7334 64.5789 67.0768 65.4947L67.5946 66.8366C67.7666 67.2788 67.9367 67.7192 68.1295 68.1313C68.2201 68.3295 68.3217 68.5226 68.4337 68.7096C68.4819 68.7896 68.5349 68.8666 68.5925 68.9402C68.6262 68.9842 68.6656 69.0236 68.7097 69.0573C68.7097 69.0573 68.7096 69.0573 68.687 69.0573C68.6573 69.0492 68.6259 69.0492 68.5963 69.0573C68.5414 69.0781 68.5755 69.0725 68.6152 69.0214C68.7245 68.8713 68.8135 68.7073 68.8797 68.5338C69.0472 68.1083 69.1923 67.6742 69.3144 67.2335C69.4429 66.7818 69.5639 66.3187 69.6924 65.8557C69.9268 64.9277 70.1762 63.9922 70.4484 63.0604C70.7206 62.1145 71.0708 61.1928 71.4954 60.3048C71.7162 59.8477 71.9903 59.4182 72.3118 59.0253C72.6428 58.5959 73.1003 58.2812 73.6196 58.1256C73.6797 58.1123 73.7425 58.1219 73.7958 58.1526C73.849 58.1833 73.8888 58.2328 73.9073 58.2915C73.9259 58.3501 73.9217 58.4135 73.8958 58.4693C73.8698 58.525 73.8239 58.5689 73.7671 58.5925C73.3772 58.7672 73.0483 59.0541 72.8221 59.4165C72.5702 59.7946 72.3586 60.1982 72.1909 60.6204C71.8505 61.4963 71.572 62.395 71.3574 63.3099C71.1212 64.2284 70.9303 65.1658 70.713 66.1033C70.6052 66.5739 70.4956 67.0483 70.3728 67.5189C70.2536 68.0093 70.1014 68.4911 69.9173 68.961C69.8112 69.2359 69.6675 69.4948 69.4902 69.7302C69.3505 69.9126 69.1607 70.0505 68.944 70.1271C68.7989 70.1711 68.6456 70.1808 68.4961 70.1554C68.3706 70.1303 68.2504 70.0836 68.1408 70.0175C67.9838 69.9201 67.8445 69.7967 67.7288 69.6527C67.6355 69.5395 67.5508 69.4195 67.4755 69.2936C67.3425 69.0669 67.2226 68.8328 67.1165 68.5924C66.7045 67.672 66.4134 66.7553 66.1016 65.8481C65.7897 64.9409 65.4892 64.0451 65.1245 63.1889C64.9487 62.7667 64.7376 62.3602 64.4933 61.9736C64.2513 61.607 63.9622 61.2668 63.5993 61.1345H63.5861C63.5282 61.1134 63.4804 61.0713 63.4521 61.0166C63.4238 60.9619 63.417 60.8986 63.4332 60.8392C63.4493 60.7797 63.4872 60.7285 63.5394 60.6957C63.5915 60.6629 63.654 60.6509 63.7146 60.662L63.7127 60.6639Z" fill="black"/>
<path d="M46.4522 102.376C46.8396 102.754 47.0683 102.968 47.0683 102.968C47.0683 102.968 32.0076 104.629 32.1966 107.693C36.8741 110.686 45.46 107.693 45.46 107.693C45.46 107.693 40.9374 112.937 45.1293 114.213C49.3211 115.489 52.5283 105.899 52.5283 105.899C52.5283 105.899 47.9793 103.179 46.4522 102.376Z" fill="#51CAE4"/>
<path d="M64.6519 60.902L72.529 58.3657C71.5855 60.7831 70.8385 63.2728 70.2951 65.8103C68.4733 63.2777 66.0504 63.9903 66.0504 63.9903L64.6519 60.902Z" fill="black"/>
<path d="M57.4816 50.1631L59.7665 49.2276C60.1037 49.0886 60.3793 48.8325 60.5425 48.5064C60.7057 48.1802 60.7456 47.8061 60.6547 47.4529C59.6984 43.6483 57.7102 40.9967 55.7977 41.2537C53.5505 41.5561 52.2616 45.7613 52.9193 50.647C53.2482 53.0907 54.0003 55.2397 54.9529 56.7422C55.9715 57.1051 56.1832 57.0673 57.3058 56.9161C57.92 56.8329 59.3337 58.4904 59.7854 57.8913C60.4109 57.0578 60.8607 55.7896 61.0781 54.2606C61.1232 53.9531 61.0725 53.6392 60.9328 53.3615C60.7932 53.0839 60.5713 52.856 60.2975 52.7089L57.4305 51.1762C57.3388 51.1244 57.2634 51.0481 57.2126 50.9559C57.1618 50.8636 57.1377 50.759 57.143 50.6539C57.1483 50.5487 57.1828 50.4471 57.2426 50.3604C57.3024 50.2737 57.3851 50.2054 57.4816 50.1631Z" fill="black"/>
<path d="M81.0678 49.7662L83.2488 49.2276C83.5823 49.1317 83.8727 48.9241 84.0713 48.6395C84.2699 48.3549 84.3645 48.0106 84.3393 47.6645C84.1503 43.8581 82.8406 40.9966 81.1056 40.9418C79.0645 40.8776 77.2048 44.7218 76.9478 49.5111C76.8212 51.9095 77.1179 54.0924 77.7038 55.6856C78.2897 57.2789 78.3199 57.861 79.3405 57.8932C80.0397 56.9482 81.0414 56.8952 81.5497 56.3812C82.2471 55.68 83.0938 55.6932 83.5493 54.2606C83.6446 53.9795 83.6552 53.6766 83.5796 53.3896C83.5039 53.1026 83.3455 52.8441 83.124 52.6465L80.8562 50.7207C80.7839 50.6533 80.7304 50.5683 80.7011 50.474C80.6717 50.3796 80.6676 50.2793 80.6889 50.1829C80.7103 50.0864 80.7565 49.9972 80.823 49.9242C80.8895 49.8511 80.9738 49.7966 81.0678 49.7662Z" fill="black"/>
<path d="M38.4257 91.5861C38.5845 91.8961 38.7678 92.2438 38.9606 92.567C39.1533 92.8902 39.348 93.219 39.554 93.5384C39.9679 94.1773 40.4026 94.7991 40.8637 95.4001C43.6143 98.9903 47.1644 101.89 51.2318 103.867C51.9121 104.179 52.5868 104.51 53.2899 104.771C53.9797 105.071 54.6998 105.294 55.4085 105.547C56.8502 106.012 58.318 106.39 59.8044 106.681C62.7886 107.284 65.8521 107.555 68.9781 107.685C69.0525 107.681 69.1271 107.691 69.1975 107.716C69.268 107.74 69.3329 107.778 69.3887 107.828C69.4444 107.877 69.4898 107.937 69.5223 108.004C69.5548 108.072 69.5738 108.145 69.5781 108.219C69.5824 108.293 69.5721 108.368 69.5476 108.438C69.5231 108.509 69.485 108.574 69.4354 108.63C69.3858 108.685 69.3258 108.731 69.2587 108.763C69.1915 108.796 69.1187 108.815 69.0442 108.819C65.864 109.316 62.6298 109.366 59.4359 108.966C59.0333 108.91 58.6308 108.87 58.2301 108.8L57.0319 108.573C56.8335 108.534 56.6313 108.503 56.4328 108.454L55.8413 108.305C55.4463 108.203 55.0475 108.116 54.6563 107.997C53.0839 107.534 51.5508 106.947 50.0714 106.241C47.108 104.8 44.4432 102.812 42.2169 100.382C41.1192 99.1696 40.1431 97.8522 39.3026 96.449C38.8923 95.7451 38.5176 95.0209 38.18 94.2793C38.0175 93.9013 37.8606 93.5233 37.717 93.1453C37.649 92.9563 37.5809 92.7673 37.5186 92.5632C37.4562 92.3591 37.3995 92.1852 37.3428 91.9546C37.2892 91.8135 37.2938 91.6569 37.3556 91.5192C37.4175 91.3815 37.5315 91.274 37.6726 91.2204C37.8137 91.1667 37.9703 91.1713 38.108 91.2332C38.2457 91.295 38.3532 91.4091 38.4068 91.5502L38.4257 91.5861Z" fill="black"/>
<path d="M47.2555 103.508C46.0445 104.107 44.7867 104.607 43.4946 105.001C42.8388 105.19 42.1716 105.364 41.4931 105.498C40.8147 105.632 40.1286 105.729 39.469 105.801C39.1421 105.838 38.8189 105.874 38.5241 105.918C38.3691 105.935 38.2274 105.961 38.0781 105.984L37.6169 106.065C37.0027 106.182 36.3979 106.307 35.8272 106.475C35.2923 106.615 34.7754 106.816 34.2869 107.075C34.1266 107.157 33.98 107.265 33.8522 107.392C33.822 107.426 33.8201 107.441 33.8352 107.409C33.8573 107.353 33.8638 107.291 33.8541 107.231C33.8447 107.169 33.8239 107.144 33.8352 107.16C33.8615 107.201 33.894 107.239 33.9316 107.271C34.0881 107.407 34.2608 107.522 34.4457 107.615C34.9329 107.857 35.4484 108.037 35.9803 108.152C37.1478 108.405 38.3444 108.499 39.5371 108.43C42.0326 108.284 44.4716 107.627 46.7036 106.502C46.8309 106.419 46.9858 106.391 47.1341 106.423C47.2825 106.454 47.4121 106.544 47.4946 106.671C47.577 106.798 47.6055 106.953 47.5738 107.102C47.5421 107.25 47.4527 107.38 47.3254 107.462C45.1535 109.234 42.5326 110.367 39.7544 110.737C38.3276 110.94 36.8775 110.915 35.4586 110.662C34.6978 110.527 33.9585 110.29 33.2607 109.959C32.854 109.761 32.4773 109.506 32.1419 109.203C31.9339 109.014 31.7516 108.8 31.5994 108.564C31.4074 108.265 31.2823 107.929 31.2328 107.577C31.1792 107.19 31.228 106.796 31.3745 106.434C31.4958 106.135 31.6692 105.861 31.8867 105.623C32.2138 105.275 32.5971 104.984 33.0207 104.763C33.701 104.416 34.4214 104.153 35.1657 103.981C35.8508 103.815 36.5449 103.688 37.2446 103.603L37.7587 103.544C37.9477 103.529 38.1215 103.51 38.2935 103.501C38.6469 103.478 38.9777 103.47 39.3065 103.459C39.9604 103.438 40.5803 103.417 41.2059 103.366C41.8314 103.315 42.457 103.244 43.0844 103.145C44.3431 102.956 45.6056 102.686 46.8888 102.418C47.0319 102.367 47.1891 102.376 47.3257 102.442C47.4624 102.508 47.5673 102.625 47.6174 102.768C47.6675 102.911 47.6587 103.068 47.593 103.205C47.5273 103.342 47.4099 103.447 47.2668 103.497L47.2555 103.508Z" fill="black"/>
<path d="M47.6392 105.861C47.7351 106.398 47.7421 106.946 47.6599 107.485C47.5703 108.05 47.3782 108.593 47.093 109.089C46.526 110.085 45.6793 110.803 45.101 111.416C44.9739 111.545 44.8581 111.685 44.7552 111.834C44.6959 111.916 44.6547 112.01 44.6342 112.109C44.6292 112.166 44.6363 112.224 44.655 112.278C44.6644 112.314 44.6852 112.363 44.706 112.416C44.7274 112.47 44.754 112.523 44.7854 112.573C44.9039 112.729 45.0674 112.846 45.2541 112.907C45.5258 113.005 45.8144 113.046 46.1027 113.03C46.8051 112.994 47.4859 112.775 48.0776 112.395C48.7173 111.99 49.263 111.453 49.6784 110.821C50.1259 110.132 50.4602 109.377 50.6687 108.583C50.892 107.715 51.0406 106.83 51.1128 105.937V105.925C51.1266 105.792 51.1863 105.667 51.282 105.572C51.3776 105.478 51.5031 105.419 51.637 105.407C51.771 105.395 51.905 105.429 52.0162 105.505C52.1274 105.581 52.2089 105.692 52.2468 105.821C52.5287 106.812 52.643 107.842 52.5851 108.87C52.5255 109.96 52.2424 111.026 51.7535 112.002C51.2317 113.031 50.4597 113.913 49.5083 114.566C48.5135 115.256 47.3357 115.634 46.1253 115.651C45.4594 115.656 44.8006 115.514 44.1957 115.236C43.8624 115.078 43.5556 114.87 43.2867 114.618C43.0019 114.348 42.7704 114.028 42.6044 113.673C42.5295 113.51 42.4663 113.343 42.4154 113.172C42.3578 112.992 42.3173 112.807 42.2945 112.62C42.2384 112.202 42.2811 111.778 42.4192 111.38C42.5463 111.026 42.7386 110.699 42.9862 110.416C43.1813 110.195 43.3937 109.99 43.6212 109.802C44.0332 109.462 44.4074 109.195 44.7552 108.925C45.0766 108.677 45.3723 108.397 45.6377 108.089C45.8859 107.794 46.0856 107.461 46.2293 107.103C46.3745 106.715 46.4679 106.31 46.5071 105.897V105.899C46.5266 105.765 46.5925 105.643 46.6933 105.553C46.794 105.462 46.9232 105.411 47.0583 105.406C47.1934 105.402 47.3257 105.445 47.4322 105.528C47.5388 105.611 47.6127 105.729 47.641 105.861H47.6392Z" fill="black"/>
<path d="M68.8152 101.677C52.8047 97.3882 58.3495 81.3756 68.8152 89.003C79.2807 81.7304 85.9846 96.8472 68.8152 101.677Z" fill="#EB5D72"/>
        </symbol>
        <symbol id="frame-2">
<path d="M45.8978 35.6843C43.5198 35.4734 37.024 32.2879 33.8586 28.0556C28.966 21.5174 37.3198 19.6619 40.0621 26.5141C42.5867 32.819 45.5411 33.788 45.5411 33.788" fill="#51CAE4"/>
<path d="M45.8502 36.2535C44.9781 36.2109 44.1159 36.0487 43.288 35.7713C43.0835 35.7123 42.8879 35.641 42.6872 35.5712C42.4864 35.5014 42.2899 35.4318 42.0962 35.3529L41.5108 35.1203L40.9344 34.8712C40.1698 34.5289 39.4305 34.1359 38.6976 33.727C37.9677 33.3066 37.2599 32.8489 36.5771 32.3557C35.1657 31.3554 33.9013 30.1624 32.8207 28.8116C32.2462 28.0795 31.7764 27.2711 31.4247 26.4096C31.3763 26.2939 31.3349 26.1754 31.3006 26.0547L31.1913 25.6885C31.1615 25.5607 31.1379 25.4255 31.1133 25.2961C31.0836 25.1626 31.065 25.0268 31.0577 24.8902C30.9906 24.2872 31.0665 23.6769 31.2791 23.1087C31.5185 22.4858 31.9376 21.9481 32.4833 21.5639C32.9879 21.2107 33.5723 20.9884 34.1841 20.917C34.7296 20.8511 35.2821 20.8747 35.8199 20.9867C35.9502 21.012 36.0742 21.0489 36.1992 21.0799L36.3862 21.1315L36.5659 21.1964C36.6863 21.24 36.8067 21.2836 36.9227 21.3312L37.2643 21.4943C38.1367 21.9355 38.9086 22.5522 39.5315 23.3058C40.1284 24.0189 40.6105 24.8208 40.9604 25.6826C41.1484 26.1299 41.2599 26.4523 41.4028 26.8238C41.5458 27.1954 41.6956 27.5384 41.8415 27.8965L41.9496 28.1697L42.0741 28.4282L42.3214 28.9485C42.4056 29.1228 42.5018 29.2865 42.5903 29.4568C42.6788 29.627 42.7681 29.7956 42.8679 29.9569C43.2387 30.6155 43.668 31.2393 44.1508 31.8208C44.3853 32.1073 44.6392 32.3773 44.9107 32.6289L45.1139 32.8095C45.1822 32.8701 45.2532 32.9214 45.3233 32.9786C45.3934 33.0357 45.4638 33.0803 45.5349 33.1316C45.606 33.1829 45.6958 33.2314 45.7122 33.2488L45.8711 33.3841C45.9663 33.4666 46.0304 33.5791 46.0531 33.703C46.0757 33.8269 46.0554 33.9549 45.9955 34.0657C45.9356 34.1765 45.8397 34.2636 45.7237 34.3126C45.6077 34.3616 45.4784 34.3695 45.3572 34.3352C45.2307 34.2974 45.1062 34.2531 44.9843 34.2024C44.8767 34.155 44.7691 34.1076 44.6684 34.0554C44.5678 34.0031 44.4689 33.9476 44.3691 33.8937L44.0829 33.7197C43.7173 33.4753 43.369 33.206 43.0404 32.9136C42.8785 32.7681 42.7113 32.6241 42.5667 32.4665C42.422 32.3088 42.2585 32.1582 42.1225 31.9923L41.7008 31.5045L41.3068 30.9973C41.17 30.8289 41.0641 30.6514 40.9436 30.4767C40.8231 30.3021 40.7009 30.1308 40.5876 29.9428L40.2565 29.3987L40.0917 29.1271L39.9399 28.8475C39.7403 28.4775 39.5321 28.1073 39.3608 27.7247C39.1894 27.3421 38.9885 26.9306 38.8438 26.6419C38.5434 26.0226 38.1542 25.4504 37.6884 24.9435C37.256 24.4684 36.734 24.0834 36.1523 23.8106L35.9438 23.7195L35.7329 23.6485L35.6284 23.6113L35.5235 23.5869C35.4537 23.5728 35.3842 23.5503 35.3153 23.5388C35.061 23.4915 34.8007 23.4858 34.5446 23.5219C34.351 23.5421 34.1657 23.6113 34.0063 23.723C33.8875 23.8071 33.7977 23.926 33.7494 24.0633C33.628 24.3435 33.6526 24.9024 33.8851 25.4899C34.1379 26.1278 34.4724 26.7302 34.8802 27.2821C35.7865 28.4838 36.8346 29.5717 38.0019 30.522C39.1942 31.5185 40.4655 32.4167 41.8032 33.2075C42.4666 33.6218 43.1597 33.977 43.8568 34.3171L44.3817 34.5621L44.9093 34.7784C45.0837 34.8533 45.2605 34.9037 45.4377 34.9694C45.5221 34.9996 45.6083 35.0246 45.6958 35.0444L45.9523 35.1143L46.0194 35.1333C46.1565 35.1678 46.2758 35.2522 46.3539 35.37C46.4321 35.4878 46.4633 35.6306 46.4416 35.7703C46.4199 35.9099 46.3468 36.0365 46.2367 36.1251C46.1265 36.2137 45.9872 36.2579 45.8461 36.2491L45.8502 36.2535Z" fill="black"/>
<path d="M109.498 74.0934C126.281 63.9234 119.88 46.0989 119.244 45.4324C109.648 57.6043 95.763 68.2153 79.6067 69.1397C79.6067 69.1397 70.4894 59.0243 56.9423 93.2005C57.486 92.8598 73.8351 100.171 74.3731 99.7986C80.54 102.192 85.9529 102.069 86.5505 92.8621C98.015 99.6491 104.869 94.709 102.57 87.1899C122.015 89.5735 116.502 74.8854 109.498 74.0934Z" fill="#51CAE4"/>
<path d="M106.079 73.7866C106.772 73.7238 107.468 73.705 108.163 73.7305C108.871 73.7603 109.577 73.8389 110.275 73.9656C111.676 74.2444 113.108 74.7283 114.369 75.6922C114.688 75.9337 114.986 76.2008 115.261 76.4909C115.54 76.7934 115.788 77.1219 116.004 77.4719C116.231 77.8321 116.414 78.2177 116.55 78.6207C116.619 78.8245 116.678 79.0318 116.726 79.2418C116.771 79.4531 116.804 79.6669 116.826 79.882C116.871 80.3132 116.863 80.7485 116.802 81.1778C116.749 81.5996 116.65 82.0145 116.507 82.4149C116.224 83.1904 115.809 83.9106 115.278 84.5427C114.264 85.7154 112.981 86.6258 111.54 87.1965C110.177 87.7392 108.738 88.0637 107.275 88.1582C106.564 88.2062 105.852 88.211 105.141 88.1724C104.435 88.1317 103.738 88.0501 103.048 87.946C101.682 87.7165 100.343 87.3545 99.0475 86.8652C98.9004 86.8288 98.7737 86.7355 98.6953 86.6058C98.617 86.476 98.5934 86.3204 98.6297 86.1733C98.6661 86.0261 98.7594 85.8994 98.8891 85.8211C99.0189 85.7427 99.1745 85.7191 99.3216 85.7554C100.636 85.9139 101.934 86.0502 103.222 86.0758C104.489 86.1137 105.758 86.0382 107.012 85.8503C108.217 85.6714 109.393 85.3307 110.508 84.8373C111.038 84.5956 111.543 84.3026 112.017 83.9626C112.469 83.6429 112.879 83.2662 113.235 82.8418C113.928 82.0197 114.308 81.0408 114.252 80.0984C114.196 79.156 113.706 78.2274 112.876 77.4883C111.971 76.7134 110.917 76.1328 109.778 75.7825C109.178 75.5779 108.567 75.408 107.948 75.2739C107.633 75.2076 107.316 75.1403 106.997 75.0889C106.677 75.0376 106.353 74.986 106.028 74.925L106.007 74.9127C105.856 74.9055 105.714 74.8385 105.613 74.7267C105.511 74.6148 105.458 74.4672 105.466 74.3163C105.473 74.1654 105.54 74.0235 105.652 73.9219C105.763 73.8203 105.911 73.7673 106.062 73.7746L106.079 73.7866Z" fill="black"/>
<path d="M102.302 86.4372C103.116 87.3593 103.667 88.4832 103.897 89.6912L103.972 90.1707C103.983 90.3323 103.986 90.4976 103.991 90.6622C104 90.828 103.995 90.9942 103.975 91.1591L103.916 91.6577C103.889 91.8228 103.843 91.986 103.802 92.1504L103.738 92.3946C103.714 92.477 103.679 92.5528 103.65 92.6324L103.459 93.1044C103.384 93.2557 103.299 93.4005 103.215 93.5487L103.089 93.7681C103.046 93.8417 102.99 93.9052 102.942 93.9735L102.641 94.3779C102.531 94.5026 102.415 94.6209 102.301 94.7428L102.128 94.9221C102.067 94.9811 102.003 95.0315 101.942 95.0854L101.565 95.4048C101.436 95.5072 101.298 95.5912 101.164 95.6839C100.897 95.8655 100.618 96.029 100.33 96.1732C100.191 96.2519 100.046 96.3202 99.8973 96.3776L99.4562 96.5594C99.1604 96.6636 98.8592 96.7581 98.5567 96.8475C98.2541 96.9369 97.9503 96.9906 97.6442 97.0408C97.338 97.0911 97.0305 97.1361 96.7207 97.1624C95.5084 97.2526 94.2894 97.1663 93.1019 96.9063C91.945 96.644 90.8239 96.2429 89.7631 95.7119C87.6989 94.6727 85.8808 93.2041 84.4308 91.4046C84.3432 91.297 84.2975 91.1614 84.3018 91.0228C84.3062 90.8841 84.3604 90.7517 84.4545 90.6498C84.5486 90.5479 84.6763 90.4834 84.8142 90.468C84.952 90.4526 85.0908 90.4875 85.205 90.5662L85.2132 90.571C86.9849 91.7924 88.7799 92.879 90.6943 93.5849C91.633 93.9407 92.6028 94.2083 93.5912 94.3844C93.8358 94.4144 94.0801 94.4485 94.3235 94.4843C94.5669 94.52 94.8107 94.5211 95.0542 94.5417C95.2977 94.5622 95.5389 94.5487 95.7815 94.5557C96.0241 94.5626 96.2615 94.5294 96.5025 94.5202C97.4361 94.4588 98.3519 94.2359 99.2093 93.8613C99.4153 93.7716 99.615 93.6682 99.807 93.5517C99.9004 93.4921 99.9997 93.4447 100.092 93.3799L100.356 93.1875C100.4 93.1562 100.447 93.1269 100.489 93.0922L100.607 92.9832L100.848 92.7691L101.058 92.5344C101.094 92.4943 101.133 92.4576 101.167 92.4165L101.255 92.288C101.507 91.9523 101.704 91.5777 101.836 91.1789C101.9 90.9742 101.948 90.7647 101.979 90.5525C101.992 90.444 102.011 90.3351 102.024 90.2249L102.025 89.8871L102.031 89.7156C102.031 89.6588 102.02 89.6023 102.015 89.5453L101.98 89.1952C101.953 88.9615 101.883 88.727 101.846 88.4852L101.623 87.7715C101.538 87.5412 101.43 87.3002 101.338 87.0551L101.323 87.0135C101.273 86.8853 101.27 86.7433 101.315 86.6133C101.361 86.4832 101.451 86.3737 101.57 86.3045C101.689 86.2353 101.829 86.211 101.965 86.236C102.1 86.2611 102.222 86.3338 102.308 86.441L102.302 86.4372Z" fill="black"/>
<path d="M76.665 68.4517C77.1608 68.4433 77.6919 68.4117 78.2076 68.369C78.7232 68.3263 79.2446 68.2737 79.7622 68.2125C80.7968 68.0874 81.8297 67.9352 82.8652 67.7518C86.9655 67.0048 90.9674 65.7927 94.7931 64.139C95.7466 63.7248 96.6851 63.2824 97.6086 62.8117C98.5315 62.3472 99.4444 61.8507 100.338 61.3319C101.231 60.8131 102.11 60.2622 102.966 59.6827C103.822 59.1033 104.666 58.5036 105.486 57.8644C107.132 56.6113 108.695 55.2542 110.167 53.8015C113.1 50.8864 115.684 47.6394 117.866 44.1263C117.956 43.9801 118.075 43.8534 118.215 43.7533C118.355 43.6531 118.513 43.5816 118.681 43.5427C118.848 43.5039 119.022 43.4984 119.192 43.5268C119.361 43.5551 119.524 43.6166 119.67 43.7078C119.877 43.836 120.044 44.0201 120.151 44.2388L120.162 44.2454C121.595 47.1371 122.449 50.2811 122.675 53.5004C122.878 56.743 122.342 59.9892 121.109 62.9949C120.495 64.4788 119.73 65.8953 118.825 67.222C117.921 68.5371 116.886 69.7572 115.736 70.8639C115.161 71.417 114.554 71.935 113.917 72.4153C113.283 72.9023 112.617 73.3457 111.922 73.7426C111.219 74.146 110.479 74.4823 109.712 74.7472C109.317 74.8805 108.911 74.9813 108.499 75.0487C108.065 75.1232 107.623 75.1374 107.185 75.0909C107.034 75.0818 106.893 75.0132 106.793 74.9C106.692 74.7867 106.641 74.6383 106.65 74.4872C106.659 74.3362 106.728 74.195 106.841 74.0946C106.954 73.9942 107.103 73.9428 107.254 73.9519L107.278 73.9509C107.952 73.9185 108.612 73.7483 109.217 73.4507C109.87 73.1553 110.495 72.7999 111.082 72.3891C112.281 71.5573 113.382 70.5922 114.363 69.5122C115.351 68.4398 116.232 67.2732 116.993 66.0291C117.759 64.7987 118.397 63.4925 118.895 62.1313C119.901 59.4325 120.307 56.5471 120.086 53.6753C119.887 50.8123 119.033 48.0126 117.803 45.3731L120.095 45.5005C118.94 47.3362 117.681 49.1042 116.324 50.7958C115.985 51.22 115.633 51.6325 115.284 52.0484C114.935 52.4644 114.572 52.866 114.198 53.261C113.466 54.063 112.698 54.8306 111.919 55.5857C110.343 57.0927 108.671 58.4965 106.914 59.7883C106.04 60.432 105.142 61.0419 104.229 61.623C103.315 62.2041 102.382 62.7569 101.431 63.2816C100.48 63.8062 99.5218 64.2982 98.5425 64.7585C97.5631 65.2188 96.5692 65.6401 95.5648 66.038C91.5521 67.6194 87.3596 68.6997 83.0824 69.2542C82.0158 69.3892 80.9469 69.4944 79.873 69.5553C79.3338 69.5845 78.7958 69.6041 78.259 69.6143C77.7158 69.6215 77.1883 69.6203 76.6252 69.5941C76.4732 69.5932 76.3278 69.5319 76.221 69.4238C76.1142 69.3157 76.0547 69.1696 76.0556 69.0176C76.0566 68.8656 76.1178 68.7202 76.2259 68.6134C76.3341 68.5066 76.4802 68.4471 76.6322 68.448L76.665 68.4517Z" fill="black"/>
<path d="M86.5252 92.3237C86.9885 93.0781 87.2652 93.9322 87.3324 94.815C87.3998 95.7335 87.2585 96.6554 86.919 97.5116C86.5819 98.361 86.0898 99.1403 85.4678 99.8098C85.3175 99.9777 85.1579 100.137 84.9895 100.287C84.8222 100.437 84.6572 100.59 84.4756 100.723C84.3001 100.861 84.1177 100.991 83.9291 101.11C83.7422 101.234 83.5546 101.355 83.3569 101.459C81.7814 102.345 79.9593 102.693 78.1681 102.448C77.2817 102.319 76.4283 102.021 75.6544 101.571C74.9052 101.133 74.254 100.546 73.741 99.8461C73.6616 99.7379 73.6221 99.6055 73.6293 99.4715C73.6366 99.3374 73.6901 99.2101 73.7807 99.111C73.8714 99.012 73.9935 98.9475 74.1264 98.9284C74.2593 98.9094 74.3946 98.937 74.5094 99.0066L74.5258 99.016C75.6773 99.7379 77.006 100.127 78.365 100.141C79.6639 100.13 80.9388 99.7903 82.0711 99.1538C83.2003 98.5453 84.1445 97.6437 84.8044 96.5439C85.4429 95.4569 85.6702 94.1674 85.4572 92.7371L85.454 92.72C85.4347 92.5878 85.4615 92.4531 85.5298 92.3383C85.5981 92.2235 85.7038 92.1357 85.8292 92.0896C85.9545 92.0435 86.0919 92.042 86.2183 92.0852C86.3447 92.1284 86.4524 92.2138 86.5233 92.3269L86.5252 92.3237Z" fill="black"/>
<path d="M90.438 56.4379C102.469 13.8337 23.0154 17.4058 37.4883 59.1557L38.2046 92.5538C38.2046 92.5538 46.7508 109.513 66.1753 108.358C85.5998 107.203 101.386 89.3824 84.2013 77.9687C77.8323 63.5103 90.438 56.4379 90.438 56.4379Z" fill="#51CAE4"/>
<path d="M45.6319 101.907C40.2608 90.83 47.1212 79.8341 50.9766 79.4977C50.5003 78.7265 50.8424 78.9307 50.8424 78.9307C50.8424 78.9307 25.5553 75.2395 37.4845 59.1575C39.3332 58.0031 41.468 57.3891 43.6475 57.3848C41.0489 51.934 38.4502 37.1259 50.9766 33.0965C62.849 29.2806 68.5906 42.3064 67.7514 51.9605C70.6959 51.4861 72.274 52.0965 72.0774 51.9775C71.741 39.7776 78.8509 29.7474 86.4276 34.1322C93.3749 43.3402 90.6269 57.0464 90.6269 57.0464C90.6269 57.0464 102.482 58.2541 99.175 69.6149C96.7446 77.9686 80.3761 77.3412 80.3761 77.3412C94.3803 77.9743 101.416 108.186 61.3522 108.337C48.2929 103.761 45.6319 101.907 45.6319 101.907Z" fill="#FFFCD9"/>
<path d="M85.4939 58.2013C87.0729 57.2227 88.8769 56.6662 90.7328 56.5853C91.6952 56.5636 92.6553 56.6872 93.5809 56.952C94.5185 57.222 95.4063 57.6419 96.2097 58.1956C97.8499 59.3141 99.1111 60.9052 99.8257 62.7575C100.54 64.6098 100.675 66.6356 100.211 68.566C99.9716 69.5313 99.5847 70.4538 99.0635 71.3008C98.5497 72.1323 97.924 72.8891 97.2038 73.5499C95.7978 74.8046 94.1546 75.7647 92.3713 76.3736C91.9385 76.5191 91.5038 76.6665 91.0654 76.778C90.6269 76.8895 90.1866 77.001 89.7424 77.0936C88.8645 77.266 87.9782 77.3922 87.0871 77.4716C85.3308 77.6214 83.5645 77.6094 81.8105 77.4357C81.6588 77.4357 81.5134 77.3755 81.4062 77.2683C81.299 77.1611 81.2388 77.0156 81.2388 76.864C81.2388 76.7124 81.299 76.5669 81.4062 76.4597C81.5134 76.3525 81.6588 76.2923 81.8105 76.2923C83.4899 76.158 85.1606 75.9308 86.815 75.6119C88.4269 75.3122 90.0025 74.8421 91.5152 74.2095C92.9855 73.5688 94.35 72.7467 95.4254 71.6864C95.9592 71.1678 96.4224 70.5813 96.8032 69.9419C97.1785 69.3187 97.4563 68.6419 97.6272 67.9347C97.9698 66.5088 97.8857 65.0135 97.3853 63.635C96.8871 62.231 96.0019 60.9966 94.832 60.0743C93.6363 59.1372 92.1891 58.5767 90.6742 58.464C89.1339 58.3279 87.5293 58.653 85.9796 59.22C85.8433 59.2862 85.6862 59.2955 85.5431 59.2458C85.3999 59.1962 85.2823 59.0917 85.2161 58.9554C85.1499 58.819 85.1406 58.662 85.1903 58.5188C85.2399 58.3756 85.3443 58.258 85.4807 58.1918L85.4939 58.2013Z" fill="black"/>
<path d="M70.3689 81.038C72.2172 79.2255 74.4624 77.7097 77.0497 76.88C78.3583 76.4685 79.7245 76.27 81.096 76.2922C82.4918 76.3171 83.8717 76.5917 85.1707 77.103C87.8026 78.1555 89.9845 80.0941 91.3394 82.584C92.017 83.8161 92.4876 85.1512 92.7322 86.536C92.9714 87.9169 92.9956 89.3264 92.8041 90.7147C92.6097 92.0857 92.2215 93.422 91.6512 94.6837C91.0895 95.9286 90.3808 97.1019 89.5402 98.1783C88.7109 99.2345 87.7867 100.213 86.779 101.1C85.7808 101.968 84.7182 102.758 83.6002 103.465L82.7629 103.981C82.4813 104.147 82.196 104.304 81.9087 104.464L81.4816 104.703L81.045 104.924C80.7559 105.073 80.4629 105.217 80.1719 105.36L79.2836 105.759L78.8395 105.948L78.3897 106.137L77.4901 106.502C77.1877 106.615 76.8847 106.726 76.581 106.834C74.1606 107.691 71.6739 108.347 69.1461 108.796C68.9988 108.832 68.8431 108.808 68.7134 108.73C68.5837 108.651 68.4905 108.524 68.4544 108.377C68.4183 108.229 68.4422 108.074 68.5209 107.944C68.5996 107.814 68.7266 107.721 68.874 107.685C71.2585 106.958 73.5995 106.096 75.8855 105.101L76.7341 104.723L77.5676 104.321L77.9833 104.12L78.3916 103.905L79.2061 103.474C80.2735 102.887 81.3099 102.246 82.3113 101.552C83.2951 100.855 84.2349 100.097 85.1253 99.284C85.9927 98.4755 86.7846 97.5899 87.4915 96.638C88.1878 95.7061 88.7755 94.6979 89.2435 93.6329C89.7085 92.589 90.0229 91.4842 90.1771 90.3518C90.5031 88.1066 90.1171 85.8156 89.0734 83.8011C88.8161 83.3014 88.5184 82.8235 88.1832 82.3723C88.0056 82.155 87.8411 81.9263 87.6465 81.7221C87.552 81.6201 87.4575 81.5086 87.363 81.4122L87.0625 81.1174C86.653 80.7297 86.2104 80.3787 85.7396 80.0684C85.2753 79.7499 84.7832 79.4741 84.2692 79.2444C83.2303 78.7834 82.1198 78.5047 80.9864 78.4203C79.8287 78.3296 78.664 78.4227 77.5354 78.6963C75.2373 79.2255 73.0752 80.4218 71.1097 81.9092C70.9947 82.008 70.8452 82.057 70.694 82.0455C70.5428 82.034 70.4024 81.9629 70.3037 81.8478C70.205 81.7328 70.1559 81.5832 70.1675 81.4321C70.179 81.2809 70.2501 81.1405 70.3651 81.0417L70.3689 81.038Z" fill="black"/>
<path d="M36.9534 59.3428C36.6056 58.3563 36.2257 57.3773 35.9555 56.3585L35.7363 55.6025C35.6682 55.3474 35.6191 55.0885 35.5586 54.8314L35.3866 54.0584L35.3016 53.6804L35.2392 53.2892C34.8539 51.1874 34.7478 49.0439 34.9236 46.9143C35.2743 42.5575 36.9943 38.4234 39.8374 35.1037L40.3684 34.4876L40.5026 34.3345L40.6444 34.1889L40.9222 33.8903L41.4892 33.3101C41.6781 33.1211 41.8879 32.9434 42.0883 32.762C42.2886 32.5806 42.4889 32.3972 42.693 32.2215L43.3261 31.7168C43.5397 31.5505 43.7457 31.3747 43.9649 31.2198L44.6245 30.7529C46.3896 29.5256 48.2785 28.4867 50.2602 27.6533C52.2322 26.8291 54.2747 26.1851 56.3628 25.7293C60.5307 24.7978 64.8241 24.5635 69.0686 25.0357C71.1945 25.2609 73.2954 25.6797 75.3451 26.2869C77.4086 26.8962 79.3997 27.7283 81.2831 28.7684C83.1848 29.8142 84.9331 31.1173 86.4785 32.641C89.6186 35.6993 91.6592 39.7102 92.2824 44.049C92.5874 46.1655 92.6084 48.3133 92.3448 50.4353L92.3051 50.8303L92.2409 51.2215L92.1142 52.0021C92.0689 52.2629 92.0349 52.5237 91.9819 52.7827L91.8081 53.5519C91.5945 54.5838 91.2732 55.5836 90.9841 56.5872C90.948 56.7341 90.855 56.8606 90.7257 56.9389C90.5963 57.0173 90.4411 57.041 90.2943 57.0049C90.1474 56.9688 90.0209 56.8759 89.9426 56.7465C89.8642 56.6171 89.8405 56.4619 89.8766 56.3151V56.2773C90.0845 55.2831 90.3245 54.2985 90.4549 53.2968L90.5758 52.5408C90.6118 52.2913 90.6288 52.0399 90.6571 51.7848L90.7327 51.0288L90.7705 50.6508L90.7856 50.2728C90.7989 49.7738 90.8329 49.273 90.8348 48.774L90.8159 47.3093L90.6779 45.8275C90.608 45.338 90.5192 44.8542 90.4417 44.3666C90.0791 42.4414 89.4111 40.5866 88.4629 38.8723C87.5145 37.1728 86.3068 35.6316 84.8834 34.3042C83.447 32.9775 81.8449 31.8423 80.1171 30.9268C78.3745 30.0035 76.5368 29.2722 74.6363 28.7458C66.9059 26.6457 58.7044 27.0937 51.2487 30.0234C49.4151 30.7545 47.663 31.6756 46.0212 32.7714L45.4107 33.1854C45.2085 33.3252 45.0214 33.4821 44.8248 33.6276L44.2409 34.0755L43.6833 34.5537C43.4943 34.7144 43.3054 34.8675 43.1277 35.0338L42.6023 35.5422L42.3377 35.7973L42.2054 35.9239L42.0826 36.06L41.5912 36.6006C38.9525 39.5248 37.2778 43.1904 36.7946 47.0995C36.7474 47.5909 36.6831 48.0804 36.6472 48.5737L36.5962 50.0611L36.6472 51.5542C36.6812 52.0512 36.7417 52.5483 36.7833 53.0473L36.8192 53.4253L36.8797 53.8033L36.9987 54.546C37.0403 54.7955 37.0705 55.045 37.1216 55.2907L37.286 56.0297C37.475 57.0219 37.7698 57.9915 38.042 58.9724L38.0514 59.0083C38.0963 59.1527 38.0819 59.3089 38.0116 59.4427C37.9412 59.5765 37.8206 59.6769 37.6763 59.7218C37.5319 59.7667 37.3756 59.7523 37.2418 59.682C37.108 59.6116 37.0077 59.491 36.9628 59.3466L36.9534 59.3428Z" fill="black"/>
<path d="M52.7228 56.8972C53.056 56.6625 53.418 56.4719 53.8001 56.3302C54.177 56.1888 54.5669 56.0849 54.9643 56.0202C55.7749 55.8873 56.6036 55.9136 57.4041 56.0977C58.2085 56.2847 58.967 56.6318 59.6342 57.1183C60.2836 57.5929 60.8257 58.1989 61.2255 58.8968C61.2615 58.9627 61.2743 59.0386 61.2621 59.1126C61.2499 59.1866 61.2133 59.2545 61.1581 59.3053C61.103 59.3561 61.0324 59.3871 60.9576 59.3932C60.8829 59.3993 60.8082 59.3802 60.7455 59.339C60.1675 58.9389 59.5647 58.5759 58.9406 58.2523C58.3457 57.9544 57.7177 57.7279 57.0696 57.5776C56.4172 57.4294 55.7505 57.3527 55.0814 57.3489C54.7412 57.3489 54.3954 57.3583 54.0458 57.3829C53.6961 57.4075 53.337 57.4528 53.0006 57.4925H52.9609C52.8881 57.5005 52.8148 57.4841 52.7522 57.4461C52.6896 57.4081 52.6413 57.3504 52.6148 57.2822C52.5883 57.2139 52.5851 57.1388 52.6057 57.0685C52.6262 56.9982 52.6694 56.9366 52.7285 56.8934L52.7228 56.8972Z" fill="black"/>
<path d="M84.8383 55.7329C84.5038 55.7896 84.1409 55.8444 83.8026 55.9219C83.4643 55.9994 83.126 56.0788 82.801 56.1808C82.1598 56.3732 81.5414 56.6343 80.9564 56.9595C80.3777 57.2878 79.8393 57.6823 79.3519 58.1351C78.8448 58.6226 78.3689 59.1415 77.9269 59.6887C77.8988 59.7227 77.8642 59.7508 77.8252 59.7714C77.7863 59.792 77.7436 59.8046 77.6997 59.8087C77.6558 59.8127 77.6115 59.808 77.5694 59.7949C77.5273 59.7818 77.4882 59.7604 77.4544 59.7321C77.4075 59.6924 77.3723 59.6406 77.3527 59.5823C77.333 59.524 77.3297 59.4615 77.3429 59.4014C77.5303 58.6196 77.8792 57.8857 78.3672 57.2468C78.8701 56.5915 79.5 56.0445 80.2193 55.6384C80.936 55.2385 81.7236 54.9817 82.5383 54.8824C82.9382 54.8327 83.3421 54.8226 83.744 54.8522C84.1493 54.8792 84.5494 54.958 84.9347 55.0866C85.0037 55.1112 85.0627 55.1579 85.1024 55.2195C85.1422 55.2811 85.1605 55.3542 85.1544 55.4272C85.1484 55.5003 85.1184 55.5693 85.0691 55.6236C85.0198 55.6779 84.9539 55.7143 84.8817 55.7273L84.8383 55.7329Z" fill="black"/>
<path d="M75.8366 59.5488C73.3173 48.1767 67.8555 50.2878 65.2115 56.8499C64.2665 59.1821 62.6847 60.8472 61.3447 60.3596C65.6197 65.4796 63.9906 72.9639 68.5907 72.9639C73.3154 72.9639 72.5292 58.3657 75.1298 58.6133C75.477 58.8225 75.7302 59.1576 75.8366 59.5488Z" fill="#FFC300"/>
<path d="M61.4561 60.0534C61.6483 60.0887 61.8458 60.0827 62.0354 60.0358C62.2251 59.9889 62.4026 59.9021 62.5561 59.7812C62.9126 59.5188 63.2235 59.1996 63.4765 58.8362C63.7479 58.46 63.9851 58.0603 64.1852 57.6418C64.2872 57.4301 64.3742 57.2146 64.4687 56.9973C64.514 56.8896 64.5575 56.7799 64.5972 56.6684L64.7314 56.3112C65.1019 55.3289 65.5872 54.3938 66.1772 53.5254C66.4821 53.0771 66.8282 52.6582 67.2109 52.2742C67.6094 51.8686 68.063 51.5212 68.5584 51.2423C69.094 50.9392 69.6922 50.7639 70.3066 50.7301C70.9386 50.7068 71.5652 50.8536 72.1209 51.1553C72.6318 51.4407 73.088 51.8144 73.4685 52.2591C73.8252 52.6721 74.1369 53.1219 74.3983 53.601C74.8908 54.5192 75.2788 55.4898 75.5549 56.4945C75.8273 57.4741 76.0281 58.4721 76.1559 59.4807C76.164 59.5607 76.1426 59.6408 76.0956 59.706C76.0487 59.7712 75.9795 59.817 75.9011 59.8347C75.8227 59.8524 75.7406 59.8407 75.6702 59.802C75.5998 59.7632 75.546 59.7001 75.519 59.6244C75.2091 58.6794 74.9029 57.7457 74.5325 56.8442C74.3548 56.3925 74.1545 55.9483 73.9466 55.5212C73.74 55.0959 73.5097 54.6827 73.2568 54.2833C73.0113 53.903 72.7337 53.5445 72.4271 53.2116C72.1471 52.9032 71.8143 52.6472 71.4443 52.4556C70.7526 52.1041 70.008 52.1589 69.2842 52.5615C68.5603 52.964 67.9159 53.6293 67.3602 54.3664C66.8034 55.1361 66.3242 55.9592 65.9296 56.8234L65.7784 57.156C65.7255 57.277 65.6688 57.3961 65.6121 57.5151C65.4968 57.7533 65.3683 57.9838 65.2341 58.2125C64.9618 58.6743 64.6453 59.1085 64.2891 59.5091C63.9223 59.9293 63.484 60.2812 62.9945 60.5486C62.7275 60.6862 62.4383 60.7757 62.1403 60.8132C61.8298 60.8476 61.5157 60.8 61.2294 60.6752C61.1524 60.6436 61.0904 60.5839 61.056 60.5081C61.0215 60.4324 61.0172 60.3464 61.044 60.2677C61.0707 60.1889 61.1265 60.1233 61.1999 60.0842C61.2733 60.0451 61.3589 60.0354 61.4391 60.0572L61.4561 60.0534Z" fill="black"/>
<path d="M65.6196 63.0396L71.0588 63.7956C71.0588 63.7956 70.6014 69.4656 68.6643 69.6243C66.7271 69.7831 65.6196 63.0396 65.6196 63.0396Z" fill="#EB5D72"/>
<path d="M61.5222 59.9495C62.6713 60.1971 63.8615 60.1809 65.0035 59.9022C66.1374 59.6338 67.2714 59.1727 68.4336 58.6832C69.0214 58.4413 69.6167 58.1861 70.248 57.9536C70.9019 57.6989 71.5792 57.509 72.2702 57.3866C72.458 57.3565 72.6472 57.3363 72.8371 57.3261L73.1263 57.3129C73.2246 57.3129 73.3266 57.3129 73.4249 57.328C73.629 57.3408 73.8318 57.3693 74.0316 57.4131C74.1317 57.4358 74.2338 57.4717 74.3321 57.5038C74.4339 57.5315 74.5327 57.5695 74.6269 57.6172L74.9085 57.7609C74.9975 57.8144 75.0833 57.8731 75.1655 57.9366C75.3297 58.056 75.4806 58.1929 75.6153 58.3449C75.7396 58.4927 75.8557 58.6473 75.9631 58.8079C76.0519 58.9723 76.135 59.1349 76.2125 59.2993C76.2561 59.3922 76.2667 59.4972 76.2424 59.5969C76.2182 59.6966 76.1606 59.785 76.0791 59.8475C75.9977 59.9099 75.8974 59.9426 75.7948 59.9402C75.6922 59.9378 75.5935 59.9004 75.5151 59.8342L75.4584 59.785C75.3432 59.6886 75.2411 59.596 75.1353 59.494C75.0294 59.3919 74.9198 59.3239 74.8045 59.2634C74.6983 59.1996 74.5863 59.1458 74.47 59.1027C74.4133 59.0857 74.3623 59.0574 74.3056 59.0441L74.1355 59.0082C74.0797 58.9955 74.0227 58.9885 73.9654 58.9875C73.9068 58.9875 73.852 58.9742 73.7934 58.9742C73.6721 58.9751 73.5509 58.9833 73.4306 58.9988L73.2416 59.0234L73.0526 59.0649C72.9279 59.0857 72.7918 59.1368 72.6614 59.1689C72.096 59.3528 71.5419 59.5699 71.002 59.819C70.4351 60.0704 69.8454 60.3388 69.2388 60.5958C68.0254 61.1024 66.7082 61.5635 65.2832 61.7015C64.5639 61.7716 63.8382 61.7327 63.1306 61.5862C62.4275 61.439 61.7587 61.16 61.1594 60.764C61.0711 60.7052 61.0061 60.6173 60.9757 60.5156C60.9452 60.4139 60.9513 60.3048 60.9927 60.2071C61.0342 60.1094 61.1085 60.0293 61.2027 59.9805C61.297 59.9317 61.4053 59.9174 61.509 59.94L61.5222 59.9495Z" fill="black"/>
<path d="M61.3445 60.0346C61.4762 60.0298 61.6068 60.0605 61.7225 60.1234C61.8108 60.1708 61.8927 60.2293 61.9663 60.2973C62.0857 60.4128 62.194 60.5394 62.2895 60.6753C62.457 60.9204 62.6073 61.1768 62.7393 61.4426C63.002 61.9567 63.2137 62.4783 63.4272 62.9962C63.8411 64.0357 64.2229 65.0752 64.6103 66.1015C64.9977 67.1277 65.3984 68.1426 65.8595 69.1084C66.092 69.5885 66.3358 70.0534 66.6042 70.4957C66.8551 70.9166 67.1552 71.3061 67.4981 71.6561C67.759 71.9436 68.108 72.1364 68.4903 72.2042C68.6626 72.2196 68.8362 72.1977 68.9992 72.14C69.1623 72.0823 69.311 71.9901 69.4353 71.8697C69.7718 71.5512 70.0484 71.1748 70.2517 70.7584C70.4861 70.2939 70.6918 69.8154 70.8678 69.3258C71.0568 68.8249 71.2118 68.309 71.3649 67.7854C71.5179 67.2619 71.671 66.7365 71.8147 66.2035C72.117 65.1413 72.3986 64.0622 72.7936 63.0038C72.8203 62.9245 72.8763 62.8585 72.9501 62.8193C73.0239 62.7801 73.11 62.7706 73.1906 62.7929C73.2712 62.8152 73.3401 62.8674 73.3834 62.939C73.4266 63.0106 73.4408 63.0959 73.423 63.1776C73.0299 65.3303 72.7936 67.5397 72.1435 69.7435C71.9805 70.3085 71.7726 70.8597 71.5217 71.3916C71.2585 71.9816 70.886 72.5165 70.4237 72.9678C70.1491 73.2219 69.8283 73.4208 69.4787 73.5537C69.1117 73.6889 68.7189 73.7393 68.3297 73.7011C67.9515 73.661 67.5856 73.5439 67.2543 73.3571C66.9555 73.1881 66.6809 72.9796 66.4379 72.7372C66.0026 72.2978 65.6264 71.8035 65.319 71.2668C65.0246 70.7644 64.7614 70.2443 64.5309 69.7095C64.0846 68.6714 63.6959 67.6095 63.3667 66.5286C63.0247 65.4645 62.7317 64.3948 62.4218 63.344C62.2687 62.8166 62.1043 62.295 61.9247 61.7942C61.8394 61.551 61.7384 61.3136 61.6224 61.0835C61.5732 60.9829 61.5143 60.8873 61.4466 60.7981C61.4235 60.7674 61.3976 60.7389 61.3691 60.7131C61.3483 60.6942 61.3445 60.6923 61.3464 60.6847C61.3015 60.6882 61.2564 60.6823 61.2139 60.6674C61.1714 60.6526 61.1324 60.6292 61.0994 60.5986C61.0663 60.5679 61.04 60.5308 61.0219 60.4896C61.0039 60.4483 60.9946 60.4038 60.9946 60.3587C60.9946 60.3137 61.0039 60.2691 61.0219 60.2279C61.04 60.1866 61.0663 60.1495 61.0994 60.1189C61.1324 60.0883 61.1714 60.0648 61.2139 60.05C61.2564 60.0352 61.3015 60.0293 61.3464 60.0327L61.3445 60.0346Z" fill="black"/>
<path d="M63.7127 60.6639C63.9909 60.7184 64.2527 60.836 64.4781 61.0079C64.6871 61.1694 64.8773 61.3539 65.0451 61.5579C65.3648 61.9492 65.6447 62.3715 65.8805 62.8185C66.3338 63.6851 66.7334 64.5789 67.0768 65.4947L67.5946 66.8366C67.7666 67.2788 67.9367 67.7192 68.1295 68.1313C68.2201 68.3295 68.3217 68.5226 68.4337 68.7096C68.4819 68.7896 68.5349 68.8666 68.5925 68.9402C68.6262 68.9842 68.6656 69.0236 68.7097 69.0573C68.7097 69.0573 68.7096 69.0573 68.687 69.0573C68.6573 69.0492 68.6259 69.0492 68.5963 69.0573C68.5414 69.0781 68.5755 69.0725 68.6152 69.0214C68.7245 68.8713 68.8135 68.7073 68.8797 68.5338C69.0472 68.1083 69.1923 67.6742 69.3144 67.2335C69.4429 66.7818 69.5639 66.3187 69.6924 65.8557C69.9268 64.9277 70.1762 63.9922 70.4484 63.0604C70.7206 62.1145 71.0708 61.1928 71.4954 60.3048C71.7162 59.8477 71.9903 59.4182 72.3118 59.0253C72.6428 58.5959 73.1003 58.2812 73.6196 58.1256C73.6797 58.1123 73.7425 58.1219 73.7958 58.1526C73.849 58.1833 73.8888 58.2328 73.9073 58.2915C73.9259 58.3501 73.9217 58.4135 73.8958 58.4693C73.8698 58.525 73.8239 58.5689 73.7671 58.5925C73.3772 58.7672 73.0483 59.0541 72.8221 59.4165C72.5702 59.7946 72.3586 60.1982 72.1909 60.6204C71.8505 61.4963 71.572 62.395 71.3574 63.3099C71.1212 64.2284 70.9303 65.1658 70.713 66.1033C70.6052 66.5739 70.4956 67.0483 70.3728 67.5189C70.2536 68.0093 70.1014 68.4911 69.9173 68.961C69.8112 69.2359 69.6675 69.4948 69.4902 69.7302C69.3505 69.9126 69.1607 70.0505 68.944 70.1271C68.7989 70.1711 68.6456 70.1808 68.4961 70.1554C68.3706 70.1303 68.2504 70.0836 68.1408 70.0175C67.9838 69.9201 67.8445 69.7967 67.7288 69.6527C67.6355 69.5395 67.5508 69.4195 67.4755 69.2936C67.3425 69.0669 67.2226 68.8328 67.1165 68.5924C66.7045 67.672 66.4134 66.7553 66.1016 65.8481C65.7897 64.9409 65.4892 64.0451 65.1245 63.1889C64.9487 62.7667 64.7376 62.3602 64.4933 61.9736C64.2513 61.607 63.9622 61.2668 63.5993 61.1345H63.5861C63.5282 61.1134 63.4804 61.0713 63.4521 61.0166C63.4238 60.9619 63.417 60.8986 63.4332 60.8392C63.4493 60.7797 63.4872 60.7285 63.5394 60.6957C63.5915 60.6629 63.654 60.6509 63.7146 60.662L63.7127 60.6639Z" fill="black"/>
<path d="M64.6519 60.902L72.529 58.3657C71.5855 60.7831 70.8385 63.2728 70.2951 65.8103C68.4733 63.2777 66.0504 63.9903 66.0504 63.9903L64.6519 60.902Z" fill="black"/>
<path d="M47.5283 104.25C48.0248 104.465 48.3145 104.584 48.3145 104.584C48.3145 104.584 34.8287 111.492 36.0947 114.288C41.531 115.423 48.4913 109.572 48.4913 109.572C48.4913 109.572 46.1292 116.082 50.5007 115.784C54.8722 115.486 54.4599 105.382 54.4599 105.382C54.4599 105.382 49.2412 104.458 47.5283 104.25Z" fill="#51CAE4"/>
<path d="M48.6816 105.022C47.7628 106.013 46.7648 106.927 45.6974 107.755C45.1516 108.165 44.5899 108.565 44.0035 108.931C43.4171 109.298 42.8101 109.632 42.2192 109.934C41.9271 110.085 41.6378 110.234 41.3777 110.379C41.2389 110.45 41.1158 110.525 40.9843 110.6L40.5822 110.84C40.0498 111.167 39.5289 111.499 39.0553 111.859C38.6049 112.18 38.1932 112.551 37.8287 112.967C37.7084 113.101 37.6094 113.254 37.5353 113.418C37.5191 113.461 37.5227 113.476 37.5254 113.44C37.526 113.38 37.5103 113.32 37.4799 113.267C37.4489 113.213 37.4208 113.197 37.4367 113.207C37.4762 113.237 37.5199 113.26 37.5665 113.277C37.7609 113.348 37.9634 113.395 38.1692 113.416C38.7107 113.469 39.2566 113.454 39.7944 113.372C40.9758 113.193 42.1274 112.855 43.2176 112.367C45.4981 111.343 47.5444 109.862 49.2303 108.017C49.32 107.894 49.4546 107.813 49.6045 107.79C49.7544 107.766 49.9074 107.804 50.0297 107.894C50.1521 107.983 50.2338 108.118 50.2569 108.268C50.28 108.418 50.2426 108.571 50.1529 108.693C48.7528 111.121 46.7063 113.113 44.2413 114.446C42.9799 115.144 41.6155 115.635 40.1993 115.903C39.4403 116.048 38.6652 116.089 37.895 116.027C37.4445 115.987 37.0019 115.883 36.5805 115.719C36.3192 115.617 36.0724 115.481 35.8464 115.314C35.5608 115.104 35.3242 114.834 35.1529 114.523C34.9652 114.18 34.8707 113.794 34.8788 113.404C34.886 113.081 34.9505 112.763 35.0692 112.464C35.2511 112.022 35.506 111.614 35.8233 111.257C36.3356 110.69 36.9155 110.188 37.5499 109.763C38.1313 109.364 38.7352 108.999 39.3586 108.67L39.8182 108.433C39.9895 108.351 40.1453 108.272 40.3027 108.202C40.6249 108.055 40.9313 107.93 41.2347 107.803C41.8384 107.551 42.4104 107.311 42.977 107.041C43.5435 106.771 44.1027 106.481 44.6542 106.166C45.7634 105.542 46.8472 104.841 47.9512 104.133C48.0671 104.036 48.2171 103.988 48.3682 104.001C48.5193 104.014 48.6591 104.086 48.7568 104.202C48.8545 104.318 48.9022 104.468 48.8894 104.619C48.8765 104.77 48.8041 104.91 48.6882 105.008L48.6816 105.022Z" fill="black"/>
<path d="M49.8767 107.085C50.1571 107.552 50.3587 108.063 50.4734 108.595C50.5905 109.155 50.6043 109.732 50.5141 110.297C50.3383 111.429 49.8023 112.401 49.4795 113.179C49.4065 113.345 49.3481 113.517 49.3048 113.693C49.2787 113.791 49.2736 113.893 49.2899 113.994C49.3054 114.049 49.3324 114.1 49.3691 114.144C49.3907 114.174 49.4276 114.212 49.4658 114.254C49.5053 114.298 49.5488 114.338 49.5958 114.373C49.7623 114.477 49.9566 114.528 50.1528 114.519C50.4415 114.513 50.7261 114.45 50.9896 114.332C51.6334 114.048 52.1918 113.602 52.6097 113.036C53.0636 112.43 53.3829 111.735 53.5461 110.995C53.7196 110.193 53.7635 109.368 53.676 108.552C53.5762 107.661 53.4003 106.781 53.1503 105.921L53.1462 105.91C53.1115 105.78 53.123 105.642 53.1787 105.52C53.2345 105.397 53.331 105.298 53.4518 105.239C53.5726 105.18 53.7102 105.165 53.8411 105.196C53.9719 105.227 54.0879 105.303 54.1691 105.41C54.7847 106.235 55.2579 107.158 55.5693 108.139C55.9011 109.179 56.0156 110.276 55.9056 111.362C55.7839 112.509 55.3759 113.608 54.719 114.557C54.0346 115.556 53.0681 116.327 51.9429 116.774C51.3222 117.015 50.656 117.117 49.9916 117.071C49.624 117.043 49.2632 116.957 48.9222 116.817C48.5602 116.667 48.2299 116.449 47.9485 116.176C47.8208 116.051 47.7022 115.917 47.5938 115.775C47.476 115.628 47.3724 115.47 47.2845 115.303C47.0836 114.932 46.9726 114.52 46.9602 114.099C46.9532 113.723 47.0167 113.349 47.1474 112.997C47.2512 112.721 47.3766 112.453 47.5225 112.197C47.7866 111.733 48.0416 111.35 48.2705 110.974C48.4828 110.628 48.6597 110.261 48.7984 109.88C48.9254 109.515 48.9936 109.133 49.0005 108.747C48.9983 108.333 48.9414 107.921 48.8314 107.521L48.8321 107.523C48.8028 107.391 48.8208 107.253 48.8829 107.133C48.945 107.013 49.0474 106.919 49.172 106.866C49.2966 106.814 49.4357 106.807 49.5648 106.847C49.694 106.887 49.805 106.971 49.8785 107.085L49.8767 107.085Z" fill="black"/>
<path d="M57.4816 50.1631L59.7665 49.2276C60.1037 49.0886 60.3793 48.8325 60.5425 48.5064C60.7057 48.1802 60.7456 47.8061 60.6547 47.4529C59.6984 43.6483 57.7102 40.9967 55.7977 41.2537C53.5505 41.5561 52.2616 45.7613 52.9193 50.647C53.2482 53.0907 54.0003 55.2397 54.9529 56.7422C55.9715 57.1051 56.1832 57.0673 57.3058 56.9161C57.92 56.8329 59.3337 58.4904 59.7854 57.8913C60.4109 57.0578 60.8607 55.7896 61.0781 54.2606C61.1232 53.9531 61.0725 53.6392 60.9328 53.3615C60.7932 53.0839 60.5713 52.856 60.2975 52.7089L57.4305 51.1762C57.3388 51.1244 57.2634 51.0481 57.2126 50.9559C57.1618 50.8636 57.1377 50.759 57.143 50.6539C57.1483 50.5487 57.1828 50.4471 57.2426 50.3604C57.3024 50.2737 57.3851 50.2054 57.4816 50.1631Z" fill="black"/>
<path d="M81.0678 49.7662L83.2488 49.2276C83.5823 49.1317 83.8727 48.9241 84.0713 48.6395C84.2699 48.3549 84.3645 48.0106 84.3393 47.6645C84.1503 43.8581 82.8406 40.9966 81.1056 40.9418C79.0645 40.8776 77.2048 44.7218 76.9478 49.5111C76.8212 51.9095 77.1179 54.0924 77.7038 55.6856C78.2897 57.2789 78.3199 57.861 79.3405 57.8932C80.0397 56.9482 81.0414 56.8952 81.5497 56.3812C82.2471 55.68 83.0938 55.6932 83.5493 54.2606C83.6446 53.9795 83.6552 53.6766 83.5796 53.3896C83.5039 53.1026 83.3455 52.8441 83.124 52.6465L80.8562 50.7207C80.7839 50.6533 80.7304 50.5683 80.7011 50.474C80.6717 50.3796 80.6676 50.2793 80.6889 50.1829C80.7103 50.0864 80.7565 49.9972 80.823 49.9242C80.8895 49.8511 80.9738 49.7966 81.0678 49.7662Z" fill="black"/>
<path d="M38.4257 91.5861C38.5845 91.8961 38.7678 92.2438 38.9606 92.567C39.1533 92.8902 39.348 93.219 39.554 93.5384C39.9679 94.1773 40.4026 94.7991 40.8637 95.4001C43.6143 98.9903 47.1644 101.89 51.2318 103.867C51.9121 104.179 52.5868 104.51 53.2899 104.771C53.9797 105.071 54.6998 105.294 55.4085 105.547C56.8502 106.012 58.318 106.39 59.8044 106.681C62.7886 107.284 65.8521 107.555 68.9781 107.685C69.0525 107.681 69.1271 107.691 69.1975 107.716C69.268 107.74 69.3329 107.778 69.3887 107.828C69.4444 107.877 69.4898 107.937 69.5223 108.004C69.5548 108.072 69.5738 108.145 69.5781 108.219C69.5824 108.293 69.5721 108.368 69.5476 108.438C69.5231 108.509 69.485 108.574 69.4354 108.63C69.3858 108.685 69.3258 108.731 69.2587 108.763C69.1915 108.796 69.1187 108.815 69.0442 108.819C65.864 109.316 62.6298 109.366 59.4359 108.966C59.0333 108.91 58.6308 108.87 58.2301 108.8L57.0319 108.573C56.8335 108.534 56.6313 108.503 56.4328 108.454L55.8413 108.305C55.4463 108.203 55.0475 108.116 54.6563 107.997C53.0839 107.534 51.5508 106.947 50.0714 106.241C47.108 104.8 44.4432 102.812 42.2169 100.382C41.1192 99.1696 40.1431 97.8522 39.3026 96.449C38.8923 95.7451 38.5176 95.0209 38.18 94.2793C38.0175 93.9013 37.8606 93.5233 37.717 93.1453C37.649 92.9563 37.5809 92.7673 37.5186 92.5632C37.4562 92.3591 37.3995 92.1852 37.3428 91.9546C37.2892 91.8135 37.2938 91.6569 37.3556 91.5192C37.4175 91.3815 37.5315 91.274 37.6726 91.2204C37.8137 91.1667 37.9703 91.1713 38.108 91.2332C38.2457 91.295 38.3532 91.4091 38.4068 91.5502L38.4257 91.5861Z" fill="black"/>
<path d="M44.1048 98.1201C46.1093 91.5956 48.4876 83.2823 48.5176 83.241C46.8619 83.4146 37.602 78.713 34.1667 68.9167C30.0606 69.7156 19.9995 69.3493 6.68441 52.8006C-0.314731 71.7186 16.6045 83.7404 21.9003 82.8106C9.55747 88.4815 22.9079 97.6773 31.068 94.7317C30.0099 101.509 39.0292 105.348 44.1048 98.1201Z" fill="#51CAE4"/>
<path d="M26.0448 83.2066C24.8006 83.1487 23.5786 83.2178 22.4796 83.5632C21.4187 83.8646 20.4645 84.4594 19.7267 85.2791C19.0438 86.0437 18.6373 87.0152 18.572 88.0383C18.5604 88.2836 18.5681 88.5295 18.5949 88.7737C18.6264 89.0162 18.6794 89.2554 18.7532 89.4885C18.8994 89.9599 19.1284 90.4014 19.4294 90.7925C20.0932 91.6302 20.9641 92.2803 21.9559 92.6787C23.0394 93.1256 24.182 93.4126 25.348 93.5308C26.5758 93.6692 27.813 93.7042 29.0466 93.6355C30.3029 93.5923 31.5695 93.4486 32.8511 93.3029C32.9858 93.2947 33.1191 93.3342 33.2278 93.4143C33.3364 93.4944 33.4135 93.6101 33.4456 93.7412C33.4777 93.8723 33.4628 94.0105 33.4035 94.1317C33.3441 94.253 33.2441 94.3495 33.1209 94.4046C31.8685 94.8779 30.5777 95.2421 29.2626 95.4932C27.9178 95.753 26.549 95.8685 25.1797 95.8378C24.8321 95.8331 24.4826 95.7996 24.1333 95.7738C23.784 95.748 23.4319 95.6898 23.0796 95.6237C22.3654 95.4976 21.6646 95.3048 20.9863 95.0478C20.2817 94.7796 19.6126 94.4259 18.9941 93.9947C18.3526 93.5421 17.7837 92.9945 17.3068 92.3709C16.8241 91.7234 16.4601 90.9955 16.2318 90.2209C16.0083 89.4404 15.9332 88.625 16.0102 87.8168C16.1708 86.2241 16.8987 84.7422 18.0611 83.6416C18.2005 83.5044 18.3492 83.3805 18.4961 83.257C18.643 83.1335 18.8002 83.019 18.9626 82.9167L19.202 82.7587C19.2823 82.7078 19.3713 82.6605 19.4471 82.6147C19.6155 82.5129 19.7902 82.4347 19.9525 82.3541C20.627 82.0424 21.3421 81.8278 22.0767 81.7164C23.4786 81.5192 24.907 81.6408 26.2554 82.0721C26.3292 82.0852 26.3997 82.1127 26.4628 82.1531C26.526 82.1934 26.5806 82.2458 26.6235 82.3073C26.6664 82.3687 26.6967 82.438 26.7129 82.5112C26.729 82.5844 26.7305 82.6601 26.7174 82.7339C26.7043 82.8077 26.6768 82.8782 26.6364 82.9413C26.5961 83.0045 26.5437 83.059 26.4822 83.1019C26.4208 83.1448 26.3515 83.1752 26.2783 83.1913C26.2051 83.2075 26.1294 83.209 26.0556 83.1959L26.0448 83.2066Z" fill="black"/>
<path d="M31.83 94.238C31.7181 94.7327 31.6567 95.2376 31.6467 95.7448C31.6411 96.2175 31.7015 96.6886 31.8262 97.1446C32.0674 98.0048 32.5715 98.768 33.268 99.3274C33.9716 99.89 34.8021 100.272 35.6871 100.44C36.5889 100.622 37.5193 100.608 38.415 100.398C39.3231 100.191 40.1809 99.8058 40.9384 99.264C41.7238 98.6957 42.4134 98.0056 42.9812 97.2198C43.2758 96.8099 43.547 96.3839 43.7936 95.9435C44.0419 95.4974 44.2661 95.0343 44.4766 94.5494C44.6871 94.0644 44.8746 93.5739 45.044 93.0668C45.2133 92.5597 45.3719 92.0417 45.5327 91.5173L45.5283 91.5008C45.5397 91.4269 45.5656 91.3559 45.6044 91.2919C45.6432 91.2279 45.6943 91.1722 45.7547 91.128C45.815 91.0837 45.8835 91.0518 45.9562 91.034C46.0289 91.0162 46.1044 91.0129 46.1784 91.0243C46.2523 91.0357 46.3234 91.0616 46.3873 91.1005C46.4513 91.1393 46.507 91.1904 46.5513 91.2507C46.5955 91.3111 46.6274 91.3796 46.6452 91.4523C46.663 91.525 46.6663 91.6005 46.6549 91.6745C46.6537 91.9624 46.6485 92.2495 46.6341 92.539C46.6197 92.8285 46.5934 93.1173 46.5557 93.4072C46.4894 93.9897 46.3881 94.5676 46.2524 95.1379C46.1092 95.7189 45.9289 96.29 45.7127 96.8479C45.4898 97.4144 45.2249 97.9635 44.9203 98.4906C44.2867 99.5794 43.4552 100.54 42.4685 101.323C41.9614 101.723 41.4126 102.067 40.8318 102.349C39.6528 102.917 38.3598 103.209 37.0512 103.201C36.3951 103.196 35.742 103.113 35.1059 102.952C34.4658 102.793 33.8491 102.551 33.2715 102.232C32.6853 101.912 32.1487 101.508 31.6784 101.033C30.7194 100.077 30.1165 98.8218 29.97 97.4757C29.8527 96.2122 30.1236 94.9431 30.7464 93.8376C30.8131 93.7168 30.9209 93.6239 31.0503 93.5759C31.1797 93.5278 31.322 93.5278 31.4514 93.5758C31.5808 93.6238 31.6887 93.7166 31.7555 93.8374C31.8222 93.9582 31.8434 94.099 31.8152 94.2341L31.83 94.238Z" fill="black"/>
<path d="M33.9549 70.5213L33.6532 70.5199L33.3739 70.5145C33.1905 70.5089 33.0083 70.5009 32.8257 70.4912C32.4614 70.4701 32.1009 70.4415 31.7442 70.4053C31.0279 70.3364 30.3157 70.2389 29.6075 70.113C28.1945 69.8676 26.7982 69.534 25.4268 69.1142C19.9024 67.4252 14.8846 64.389 10.8249 60.279C8.80538 58.2324 7.01785 55.9691 5.49474 53.5304L8.00741 53.2836C7.50732 54.7245 7.09694 56.195 6.77864 57.6867C6.4739 59.1724 6.32469 60.6859 6.33341 62.2026C6.33987 63.7184 6.51428 65.229 6.85345 66.7064C7.20121 68.1868 7.70615 69.6257 8.35969 70.9988C9.69962 73.776 11.5855 76.2546 13.9048 78.2867C15.0535 79.3073 16.3172 80.1907 17.6702 80.9191C18.3323 81.2753 19.0266 81.5681 19.7438 81.7938C20.3938 82.0181 21.0834 82.1052 21.7689 82.0495L21.7908 82.0436C21.9898 82.0118 22.1933 82.0604 22.3566 82.1787C22.5198 82.2969 22.6294 82.4752 22.6612 82.6743C22.693 82.8733 22.6444 83.0768 22.5261 83.2401C22.4079 83.4033 22.2296 83.5129 22.0306 83.5447C21.5609 83.6261 21.0822 83.6411 20.6083 83.5892C20.1668 83.5456 19.7294 83.4665 19.3006 83.3527C18.4731 83.1295 17.6683 82.8297 16.8966 82.4569C15.3833 81.7242 13.9625 80.8142 12.664 79.7462C10.0545 77.6189 7.90117 74.9868 6.33296 72.0076C5.54817 70.5065 4.92765 68.9251 4.48216 67.2909C4.04394 65.6461 3.78845 63.9579 3.72032 62.2571C3.65079 60.5586 3.75689 58.8575 4.03693 57.1808C4.09814 56.7594 4.19358 56.3561 4.2694 55.9308C4.34521 55.5054 4.45344 55.0988 4.57141 54.6993C4.62655 54.4889 4.68097 54.2904 4.74038 54.0886L4.93517 53.4866C4.99578 53.2747 5.06641 53.0855 5.14287 52.8889L5.3759 52.2982L5.39167 52.2548C5.4863 52.0123 5.64721 51.8012 5.85603 51.6457C6.06485 51.4901 6.31318 51.3964 6.57269 51.3752C6.83219 51.354 7.09244 51.4062 7.32372 51.5258C7.55501 51.6454 7.74803 51.8276 7.88077 52.0516C9.24957 54.3506 10.8684 56.4911 12.7078 58.4342C16.4035 62.3332 21.01 65.2527 26.1134 66.9304C27.3864 67.3492 28.6842 67.6882 29.9992 67.9457C30.6557 68.0737 31.3151 68.1782 31.9772 68.259C32.3067 68.3012 32.6365 68.3341 32.9663 68.3579L33.4565 68.3909L33.696 68.4011L33.9161 68.4048L33.9734 68.407C34.2526 68.41 34.5192 68.5239 34.7145 68.7235C34.9098 68.923 35.0178 69.192 35.0148 69.4712C35.0118 69.7504 34.8979 70.017 34.6984 70.2123C34.4988 70.4076 34.2298 70.5156 33.9506 70.5126L33.9549 70.5213Z" fill="black"/>
<path d="M48.2628 59.923C46.6639 59.3239 44.9989 58.9969 43.4038 59.167C41.8332 59.3178 40.3427 59.9315 39.1213 60.9304C37.9133 61.9199 36.993 63.2155 36.4565 64.682C36.1852 65.4042 36.0154 66.1604 35.9519 66.9292C35.9192 67.3063 35.9117 67.6852 35.9292 68.0632C35.9512 68.4444 36.0011 68.8234 36.0785 69.1972C36.387 70.7054 37.1186 72.0945 38.1877 73.2021C39.3157 74.3605 40.6595 75.287 42.1432 75.9294C43.6935 76.615 45.3166 77.1222 46.9814 77.4414C48.6922 77.7785 50.4213 78.0151 52.1598 78.1501C52.3101 78.1501 52.4544 78.2099 52.5607 78.3162C52.667 78.4225 52.7267 78.5667 52.7267 78.7171C52.7267 78.8675 52.667 79.0117 52.5607 79.118C52.4544 79.2244 52.3101 79.2841 52.1598 79.2841C50.3433 79.4571 48.5144 79.4571 46.6979 79.2841C44.8344 79.1193 43.001 78.7081 41.2455 78.0613C40.3438 77.7263 39.4772 77.3034 38.6582 76.7988C37.8157 76.2848 37.0367 75.6733 36.3374 74.9768C35.6241 74.2623 35.0129 73.4527 34.5212 72.5709C34.0304 71.6739 33.6781 70.7079 33.4761 69.7056C33.0871 67.7064 33.2907 65.6371 34.062 63.7522C34.4354 62.8182 34.9393 61.942 35.5588 61.1496C36.1735 60.3542 36.902 59.6537 37.7208 59.0706C37.9268 58.9251 38.131 58.7815 38.3502 58.6567C38.5694 58.532 38.7868 58.4091 39.0079 58.2939C39.229 58.1786 39.4633 58.0841 39.6901 57.9801C39.9169 57.8762 40.1588 57.7911 40.397 57.7288C41.3459 57.4329 42.3342 57.2825 43.3282 57.2827C45.2523 57.3221 47.1306 57.8769 48.7674 58.8892C48.8349 58.9218 48.8953 58.9674 48.9452 59.0234C48.9951 59.0794 49.0334 59.1447 49.0581 59.2155C49.0827 59.2863 49.0932 59.3613 49.0889 59.4362C49.0846 59.511 49.0656 59.5843 49.0329 59.6518C49.0003 59.7193 48.9547 59.7798 48.8987 59.8296C48.8427 59.8795 48.7774 59.9179 48.7066 59.9425C48.6358 59.9672 48.5608 59.9777 48.486 59.9733C48.4111 59.969 48.3378 59.95 48.2703 59.9174L48.2628 59.923Z" fill="black"/>
<path d="M68.876 108.808C66.3481 108.358 63.8614 107.701 61.4411 106.844L60.532 106.511L59.6324 106.147L59.1826 105.958L58.7385 105.769L57.8502 105.368C57.5573 105.226 57.2643 105.081 56.9752 104.933L56.5386 104.712L56.1115 104.472C55.828 104.311 55.5445 104.156 55.2573 103.99L54.42 103.474C54.1384 103.308 53.8719 103.109 53.5979 102.928L53.1878 102.65C53.0536 102.556 52.9232 102.461 52.789 102.357C52.5263 102.155 52.258 101.964 52.0047 101.749L51.2487 101.108C50.2387 100.222 49.3125 99.2441 48.4819 98.1878C47.6435 97.1099 46.9349 95.9369 46.3709 94.6932C45.8016 93.4313 45.4141 92.095 45.2199 90.7242C45.0283 89.3359 45.0526 87.9264 45.2917 86.5455C45.5354 85.1608 46.0067 83.826 46.6865 82.5954C48.0395 80.1047 50.2211 78.1658 52.8533 77.1144C54.152 76.6022 55.5321 76.3276 56.9279 76.3036C58.2995 76.2807 59.6659 76.4791 60.9742 76.8914C63.5615 77.7154 65.8068 79.2312 67.6551 81.0494C67.7701 81.1481 67.8412 81.2885 67.8527 81.4397C67.8643 81.5909 67.8153 81.7404 67.7165 81.8555C67.6178 81.9705 67.4774 82.0416 67.3262 82.0531C67.175 82.0646 67.0255 82.0156 66.9105 81.9169C65.9389 81.1766 64.9058 80.5209 63.8223 79.9569C62.7644 79.4066 61.6428 78.9883 60.4829 78.7115C59.3545 78.4364 58.1897 78.3426 57.0319 78.4336C55.898 78.5191 54.7871 78.7978 53.7472 79.2577C53.2337 79.4882 52.7416 79.764 52.2769 80.0817C51.8064 80.3925 51.3638 80.7434 50.9539 81.1306L50.6534 81.4255C50.5514 81.5238 50.4644 81.6334 50.368 81.7373C50.1791 81.9396 50.009 82.1682 49.8332 82.3875C49.4968 82.8376 49.1984 83.3149 48.9412 83.8144C47.8974 85.8295 47.512 88.1213 47.8393 90.367C47.9935 91.4994 48.3079 92.6041 48.773 93.6481C49.2409 94.7131 49.8287 95.7212 50.5249 96.6531C51.2312 97.6055 52.0232 98.4912 52.8911 99.2991L53.5639 99.8964C53.785 100.097 54.0288 100.274 54.2594 100.463C54.3766 100.558 54.49 100.652 54.609 100.749L54.9719 101.021C55.2176 101.199 55.45 101.399 55.7052 101.558C56.7087 102.252 57.747 102.895 58.816 103.484L59.6305 103.914L60.0387 104.13L60.4545 104.33L61.288 104.733L62.1365 105.111C64.4213 106.11 66.7618 106.977 69.1462 107.708C69.2936 107.744 69.4206 107.837 69.4993 107.967C69.5779 108.096 69.6019 108.252 69.5658 108.399C69.5297 108.547 69.4365 108.674 69.3068 108.752C69.1771 108.831 69.0214 108.855 68.8741 108.819L68.876 108.808Z" fill="black"/>
<path d="M68.8627 100.21C56.0467 96.7769 60.4852 83.9593 68.8627 90.0649C77.2401 84.2433 82.6063 96.3439 68.8627 100.21Z" fill="#EB5D72"/>
        </symbol>
    </defs>
    <style type="text/css">
      @keyframes frameTransform {
        100% {
            transform: translateX(-256px);
        }
      }
      .frames:target{
          animation: frameTransform 500ms steps(2) infinite;
      }
    </style>
    <g class="frames" id="play">
      <use href="#frame-1" />
      <use href="#frame-2" x="128px" />
    </g>
</svg>
