<svg width="572" height="602" viewBox="0 0 572 602" fill="none" xmlns="http://www.w3.org/2000/svg">
<path d="M56.8594 507.29C82.5406 507.29 103.359 486.695 103.359 461.29C103.359 435.885 82.5406 415.29 56.8594 415.29C31.1781 415.29 10.3594 435.885 10.3594 461.29C10.3594 486.695 31.1781 507.29 56.8594 507.29Z" fill="#DEDBD7"/>
<path d="M409.359 424.29C430.346 424.29 447.359 407.46 447.359 386.7C447.359 365.94 430.346 349.11 409.359 349.11C388.373 349.11 371.359 365.94 371.359 386.7C371.359 407.46 388.373 424.29 409.359 424.29Z" fill="#DEDBD7"/>
<path d="M51.3594 357.29C60.3594 388.29 119.439 527.69 123.199 537.27C134.199 565.27 173.439 567.23 182.199 556.27C224.199 616.27 313.919 589.54 347.199 546.27C408.199 554.27 466.359 456.29 439.359 420.29C414.489 387.13 428.359 386.29 392.359 375.29C397.359 387.29 426.569 214.29 418.359 214.29C417.359 214.29 274.359 82.29 51.3594 357.29Z" fill="#DEDBD7"/>
<path d="M56.8594 507.29C82.5406 507.29 103.359 486.695 103.359 461.29C103.359 435.885 82.5406 415.29 56.8594 415.29C31.1781 415.29 10.3594 435.885 10.3594 461.29C10.3594 486.695 31.1781 507.29 56.8594 507.29Z" fill="#DEDBD7"/>
<path d="M409.359 424.29C430.346 424.29 447.359 407.46 447.359 386.7C447.359 365.94 430.346 349.11 409.359 349.11C388.373 349.11 371.359 365.94 371.359 386.7C371.359 407.46 388.373 424.29 409.359 424.29Z" fill="#DEDBD7"/>
<path d="M51.3594 357.29C60.3594 388.29 119.439 527.69 123.199 537.27C134.199 565.27 173.439 567.23 182.199 556.27C224.199 616.27 313.919 589.54 347.199 546.27C408.199 554.27 466.359 456.29 439.359 420.29C414.489 387.13 428.359 386.29 392.359 375.29C397.359 387.29 426.569 214.29 418.359 214.29C417.359 214.29 274.359 82.29 51.3594 357.29Z" fill="#DEDBD7"/>
<path d="M67.1992 401.27C67.1992 401.27 119.429 527.69 123.199 537.27C134.199 565.27 173.439 567.23 182.199 556.27C224.199 616.27 313.919 589.54 347.199 546.27C408.199 554.27 462.199 455.27 435.199 419.27C410.329 386.11 394.199 363.27 338.199 399.27C343.199 411.27 348.359 419.29 347.359 420.29C338.359 431.29 304.359 442.29 287.359 439.29C286.379 439.12 287.199 421.27 287.199 421.27C287.199 421.27 211.199 383.27 132.199 450.27C106.199 410.27 106.859 396.44 102.199 366.27C81.1992 379.27 67.1992 401.27 67.1992 401.27Z" fill="#CA5C3A"/>
<path d="M67.1992 401.27C67.1992 401.27 119.429 527.69 123.199 537.27C134.199 565.27 173.439 567.23 182.199 556.27C224.199 616.27 313.919 589.54 347.199 546.27C408.199 554.27 462.199 455.27 435.199 419.27C410.329 386.11 394.199 363.27 338.199 399.27C343.199 411.27 346.359 415.29 345.359 416.29C336.359 427.29 302.359 438.29 285.359 435.29C284.379 435.12 287.199 421.27 287.199 421.27C287.199 421.27 211.199 383.27 132.199 450.27C106.199 410.27 106.859 396.44 102.199 366.27C81.1992 379.27 67.1992 401.27 67.1992 401.27Z" fill="#808080"/>
<path d="M338.07 393.93C327.38 371.6 323.98 336.17 333.03 310.9C348.06 268.93 395.7 268.76 405.7 298.76C405.7 298.76 395.36 390.28 391.36 389.28C387.36 388.28 342.36 394.28 342.36 394.28" fill="white"/>
<path d="M405.7 298.77C395.7 268.77 348.06 268.93 333.03 310.91C323.98 336.18 327.38 371.61 338.07 393.94" stroke="#030303" stroke-width="16" stroke-miterlimit="10" stroke-linecap="round"/>
<path d="M364.87 331.65C355.57 328.59 353.47 322.02 371.3 316.98C373.76 316.29 375.62 314.26 376.15 311.76C379.59 295.29 380.64 281.87 373.42 277.84C373.42 277.84 342.4 264.96 326.37 312.28C315.83 343.39 332.95 394.13 332.95 394.13C332.95 394.13 346.96 391.14 365.77 386.51C362.37 376.27 364.57 360.43 369.5 339.86C370.33 336.35 368.32 332.79 364.87 331.65Z" fill="#030303"/>
<path d="M103.49 346.13C105.24 355.05 106.98 364.09 108.91 372.96C110.88 381.83 112.86 390.66 115.36 399.29C117.84 407.92 120.68 416.38 124.16 424.44C127.59 432.52 131.72 440.14 136.63 446.93L136.72 447.05C138.97 450.16 138.27 454.51 135.16 456.77C132.2 458.91 128.1 458.36 125.77 455.62C119.23 447.87 114.44 439.11 110.66 430.18C108.77 425.7 107.13 421.16 105.71 416.58C104.27 412 103.02 407.39 101.97 402.75C100.91 398.11 99.9397 393.46 99.2097 388.79C98.8197 386.45 98.4997 384.11 98.1697 381.78C97.8697 379.44 97.6298 377.09 97.3998 374.74C97.1598 372.39 97.0098 370.04 96.8598 367.69L96.6697 364.16L96.5697 360.63C96.4697 355.9 96.5098 351.24 96.9098 346.43C97.0598 344.6 98.6597 343.24 100.49 343.39C102 343.51 103.19 344.63 103.47 346.05L103.49 346.13Z" fill="#030303"/>
<path d="M278.039 430.83C277.469 430.58 276.919 430.33 276.369 430.05L274.369 429.31C273.699 429.06 272.909 428.86 272.189 428.62C271.479 428.38 270.679 428.19 269.889 428C266.779 427.2 263.389 426.63 259.989 426.17C253.139 425.28 246.029 424.96 238.919 425.03C231.799 425.15 224.649 425.6 217.559 426.55C210.469 427.48 203.429 428.76 196.529 430.55C189.629 432.32 182.879 434.55 176.379 437.31C169.849 440 163.619 443.29 157.699 447.05C145.909 454.65 135.909 464.7 128.309 476.81L128.239 476.92C126.559 479.6 123.019 480.41 120.339 478.73C117.939 477.23 117.039 474.24 118.079 471.7C124.229 456.68 134.819 443.28 147.769 433.24C154.219 428.17 161.249 423.93 168.499 420.24C175.789 416.63 183.339 413.64 191.059 411.25C206.519 406.6 222.489 404.07 238.629 403.81C246.699 403.67 254.809 404.13 262.999 405.35C267.099 406.05 271.209 406.81 275.399 408.1C279.599 409.39 283.799 410.84 288.359 413.69C293.029 416.61 294.439 422.76 291.519 427.43C288.869 431.67 283.559 433.22 279.109 431.29L278.039 430.83Z" fill="#030303"/>
<path d="M41.7292 288.3C50.1792 316.4 59.4992 344.36 69.1492 372.24C71.5392 379.22 74.0492 386.16 76.5092 393.12C78.9292 400.09 81.4692 407.03 83.9592 413.98L99.2292 455.61L114.809 497.19L122.609 518.11L124.569 523.6C125.119 525.16 125.679 526.69 126.309 528.2C127.559 531.2 128.979 534.06 130.599 536.74C133.839 542.07 137.869 546.62 142.589 549.76C147.289 552.92 152.609 554.74 158.199 555.15C169.299 555.97 181.719 550.71 187.479 540.23L187.679 539.87C189.149 537.21 192.489 536.24 195.159 537.7C197.229 538.84 198.269 541.12 197.949 543.33C197.289 547.82 195.479 552.15 192.969 555.95C190.439 559.76 187.199 563.05 183.529 565.73C176.189 571.09 167.139 574.07 157.879 574.21C153.249 574.29 148.599 573.62 144.129 572.32C139.679 570.97 135.429 569 131.589 566.49C123.869 561.49 117.839 554.65 113.309 547.4C111.039 543.76 109.119 539.98 107.469 536.16C106.649 534.25 105.899 532.31 105.199 530.38L103.289 525.44L95.0492 504.86C89.4792 491.1 84.0892 477.24 78.7392 463.37L70.7592 442.53L63.0392 421.58C57.9492 407.59 52.9292 393.57 48.2092 379.42L44.6292 368.83L41.1692 358.19C38.8592 351.1 36.6792 343.96 34.4892 336.82L32.8492 331.47L31.2992 326.08L28.2092 315.3C27.1492 311.72 26.2392 308.08 25.2792 304.46L22.4392 293.59C21.0392 288.25 24.2392 282.78 29.5792 281.38C34.7992 280.01 40.1392 283.04 41.6792 288.16L41.7292 288.3Z" fill="#030303"/>
<path d="M395.2 385.27C385.2 338.27 448.06 230.39 397.71 185.34" stroke="#030303" stroke-width="20" stroke-miterlimit="10"/>
<path d="M310.299 416.35C311.299 416.51 312.069 416.91 312.769 417.37C313.449 417.84 314.039 418.41 314.549 419.06C315.059 419.7 315.489 420.43 315.809 421.26C316.129 422.09 316.359 423.01 316.339 424.17C316.319 425.42 315.299 426.41 314.059 426.4C312.899 426.39 311.989 426.13 311.169 425.8C310.349 425.46 309.629 425.02 308.999 424.49C308.369 423.96 307.819 423.36 307.359 422.67C306.909 421.96 306.539 421.19 306.399 420.18C306.149 418.32 307.449 416.61 309.299 416.36C309.629 416.29 309.979 416.3 310.299 416.35Z" fill="#030303"/>
<path d="M331.359 413.73C331.619 414.51 331.589 415.23 331.479 415.93C331.359 416.63 331.129 417.3 330.819 417.95C330.509 418.6 330.139 419.25 329.679 419.87C329.199 420.49 328.689 421.1 327.959 421.66C326.939 422.44 325.469 422.25 324.689 421.23C324.609 421.12 324.529 421 324.469 420.89C324.049 420.07 323.839 419.3 323.669 418.54C323.509 417.78 323.449 417.04 323.449 416.32C323.439 415.59 323.519 414.89 323.709 414.21C323.909 413.53 324.189 412.87 324.759 412.27C326.249 410.69 328.749 410.61 330.329 412.11C330.809 412.55 331.159 413.13 331.359 413.73Z" fill="#030303"/>
<path d="M344.799 422.16C343.269 418.2 341.589 414.49 339.409 411.39C338.889 410.59 338.269 409.92 337.729 409.18C337.129 408.5 336.509 407.87 335.919 407.23C334.609 406.1 333.349 405 331.919 404.29C330.559 403.45 329.079 403 327.639 402.59C326.889 402.48 326.169 402.27 325.399 402.26C325.019 402.24 324.649 402.17 324.269 402.17L323.119 402.2C322.739 402.18 322.349 402.25 321.959 402.31L320.789 402.44L319.609 402.71C319.219 402.79 318.819 402.87 318.429 403.03C317.649 403.3 316.859 403.51 316.079 403.88C315.689 404.05 315.299 404.2 314.909 404.38L313.759 405C307.569 408.33 302.119 414.25 297.739 421.09C293.289 427.96 289.989 435.88 286.859 444.16L286.809 444.29C285.909 446.68 283.239 447.88 280.849 446.97C278.929 446.24 277.779 444.37 277.869 442.43C278.339 432.84 280.539 423.12 285.009 414.02C287.239 409.48 290.049 405.11 293.529 401.13C297.019 397.17 301.209 393.6 306.179 390.93C311.129 388.31 316.879 386.46 322.969 386.6L325.239 386.69C325.989 386.74 326.749 386.89 327.509 386.99C329.019 387.16 330.489 387.65 331.959 388.06C334.839 389.06 337.609 390.41 339.989 392.21C342.439 393.93 344.449 396.07 346.239 398.28C347.049 399.43 347.879 400.57 348.579 401.76L349.549 403.57C349.869 404.17 350.209 404.77 350.439 405.4C352.589 410.35 353.699 415.43 353.929 420.42C354.049 423.01 352.049 425.2 349.469 425.32C347.399 425.42 345.579 424.16 344.879 422.33L344.799 422.16Z" fill="#030303"/>
<path d="M395.4 379.13C395.56 378.7 395.64 378.55 395.73 378.35C395.83 378.14 395.92 377.96 396.01 377.8C396.19 377.46 396.37 377.13 396.56 376.83C396.93 376.2 397.33 375.65 397.72 375.09C398.54 374 399.41 372.98 400.37 372.06C402.27 370.21 404.42 368.65 406.73 367.53C407.29 367.23 407.9 367.01 408.48 366.76L409.36 366.4L410.25 366.12C410.85 365.94 411.44 365.76 412.03 365.6L413.82 365.26L414.71 365.1L415.59 365.02L417.34 364.88C418.5 364.84 419.63 364.9 420.76 364.93C423.38 364.98 425.47 367.15 425.42 369.78C425.38 371.93 423.91 373.72 421.93 374.27L421.15 374.48C420.38 374.69 419.6 374.85 418.86 375.08L417.79 375.48L417.26 375.67L416.77 375.92L415.81 376.4L414.94 376.96L414.51 377.23L414.12 377.55C413.87 377.77 413.59 377.94 413.37 378.18C412.41 379.05 411.68 380.07 411.1 381.12C410.81 381.65 410.58 382.2 410.39 382.73C410.32 383 410.22 383.26 410.18 383.51C410.15 383.64 410.14 383.74 410.13 383.84C410.12 383.89 410.12 383.94 410.13 383.95C410.14 383.97 410.13 384.04 410.21 383.84C408.91 387.93 404.54 390.2 400.45 388.9C396.37 387.59 394.11 383.22 395.4 379.13Z" fill="#030303"/>
<path d="M397.359 351.29C445.359 332.29 459.969 394.88 428.709 408.27" stroke="#030303" stroke-width="20" stroke-miterlimit="10"/>
<path d="M38.8095 446.17L39.7395 445.68L40.5495 445.27C41.0895 445.01 41.6195 444.76 42.1495 444.53C43.2195 444.06 44.2895 443.63 45.3795 443.24C47.5595 442.46 49.7895 441.81 52.0795 441.31C56.6495 440.31 61.4795 439.93 66.3895 440.32C68.8395 440.54 71.3095 440.96 73.7395 441.57C76.1695 442.2 78.5595 443.05 80.8895 444.07C85.5095 446.16 89.7795 449.01 93.5195 452.31L93.7695 452.53C97.9395 456.2 98.3395 462.56 94.6695 466.73C90.9995 470.9 84.6395 471.3 80.4695 467.63C80.0095 467.22 79.5595 466.74 79.1895 466.27C77.2295 463.75 74.9895 461.56 72.4595 459.76C71.1795 458.89 69.8395 458.09 68.4195 457.41C66.9895 456.75 65.4895 456.19 63.9295 455.74C60.7895 454.88 57.3895 454.49 53.8995 454.6C52.1595 454.65 50.3895 454.83 48.6395 455.12C47.7595 455.26 46.8895 455.44 46.0395 455.64C45.6095 455.74 45.1895 455.85 44.7795 455.96L44.1795 456.13C44.0095 456.18 43.7595 456.27 43.7195 456.26L40.3995 455.73C37.6195 455.28 35.7195 452.67 36.1695 449.89C36.4195 448.24 37.4595 446.9 38.8095 446.17Z" fill="#030303"/>
<path d="M96.8896 485.03C87.2196 524.01 11.3296 515.49 10.0096 455.43C9.31956 424.37 42.6396 403.42 70.0996 419.1" stroke="#030303" stroke-width="20" stroke-miterlimit="10" stroke-linecap="round"/>
<path d="M194.8 553.62C201.16 566.6 215.47 574.56 231.45 577.35C239.43 578.81 247.8 579.17 256.16 578.62C264.53 578.08 272.91 576.63 281.05 574.35C297.37 569.82 312.59 561.91 325.68 551.75C328.92 549.17 332.08 546.47 334.97 543.52C337.9 540.6 340.67 537.53 343.3 534.29C348.59 527.83 353.13 520.71 357.45 512.82L357.51 512.7C358.74 510.46 361.54 509.64 363.78 510.86C365.34 511.72 366.22 513.35 366.18 515.01C365.97 524.98 363.01 534.94 358.31 543.96C353.59 553 347.03 561.01 339.61 567.9C332.19 574.82 323.78 580.55 314.9 585.17C306 589.78 296.65 593.39 287.03 596C277.42 598.62 267.54 600.31 257.52 600.91C247.5 601.48 237.32 600.97 227.22 598.89C217.15 596.77 207.05 593.18 197.94 587.11C193.42 584.06 189.15 580.43 185.51 576.15C181.85 571.9 178.81 567.05 176.6 561.91C174.42 556.83 176.77 550.95 181.85 548.77C186.76 546.66 192.43 548.8 194.77 553.54L194.8 553.62Z" fill="#030303"/>
<path d="M338.481 393.46C340.881 391.19 343.42 389.03 346.11 387C348.82 385.02 351.63 383.1 354.61 381.41C357.6 379.74 360.711 378.18 363.981 376.89C367.251 375.61 370.651 374.53 374.171 373.73C377.691 372.96 381.33 372.5 385.02 372.35C388.71 372.19 392.45 372.39 396.15 372.98C403.56 374.12 410.77 376.8 417.19 380.59C420.42 382.46 423.43 384.65 426.24 387.04C429.06 389.41 431.66 392 434.02 394.76C436.4 397.5 438.571 400.4 440.511 403.42C442.471 406.43 444.211 409.56 445.731 412.78C448.801 419.21 451.07 425.95 452.62 432.87C454.15 439.78 454.91 446.93 454.72 454.07C454.51 467.84 451.72 481.77 446.21 494.58C443.48 500.99 440.07 507.1 436.15 512.83C432.2 518.54 427.711 523.85 422.791 528.69C412.911 538.35 401.391 546.21 388.571 551.66C382.141 554.36 375.37 556.45 368.09 557.52C364.44 558.03 360.651 558.28 356.631 557.99C352.611 557.64 348.28 556.89 343.74 554.45C339.21 552.01 337.52 546.35 339.96 541.82C342.4 537.29 348.06 535.6 352.59 538.04L352.65 538.07L352.671 538.08C353.701 538.65 355.711 539.14 357.941 539.27C360.211 539.4 362.75 539.23 365.33 538.83C370.52 538 375.89 536.32 381.05 534.06C391.41 529.56 401.051 522.92 409.131 514.88C413.171 510.85 416.811 506.46 420.011 501.78C423.171 497.08 425.91 492.11 428.08 486.9C432.47 476.5 434.671 465.22 434.761 453.78C434.831 442.87 432.03 431.77 427.02 422C422.01 412.24 414.961 403.71 406.391 397.98C397.821 392.27 387.66 389.5 376.81 390.45C374.1 390.64 371.36 391.06 368.62 391.67C365.88 392.28 363.11 393.02 360.36 393.96C354.84 395.81 349.41 398.32 343.93 401.06L343.84 401.11C341.51 402.28 338.67 401.34 337.5 399C336.54 397.11 337.001 394.86 338.481 393.46Z" fill="#030303"/>
<path d="M78.7002 364.77C78.7002 364.77 81.2002 385.27 87.2002 395.27Z" fill="white"/>
<path d="M81.4198 364.44C83.0198 366.79 84.1098 369.25 85.0798 371.66C86.0498 374.08 86.7898 376.52 87.4698 378.93C88.1598 381.34 88.6498 383.78 88.9898 386.22C89.2998 388.7 89.4798 391.13 89.3098 393.99L89.2898 394.26C89.1998 395.81 87.8698 396.99 86.3198 396.9C85.8698 396.87 85.4398 396.74 85.0698 396.53C84.3598 396.12 83.7298 395.62 83.0998 395.11C82.4898 394.59 81.9798 394.04 81.4598 393.46C80.9198 392.88 80.4998 392.29 80.0598 391.68C79.6298 391.07 79.2199 390.44 78.8699 389.81C77.3999 387.27 76.4798 384.58 75.8498 381.86C75.2198 379.13 74.8598 376.38 74.8398 373.59C74.8398 370.79 75.0498 368.01 75.9698 365.1C76.4698 363.52 78.1598 362.64 79.7398 363.14C80.4098 363.35 80.9498 363.77 81.3198 364.31L81.4198 364.44Z" fill="#030303"/>
<path d="M203.939 461.4C204.729 460.57 205.359 460.09 205.849 459.73C206.369 459.31 206.799 459.12 207.149 458.99C207.859 458.7 208.219 459.07 208.679 459.29C209.109 459.53 209.569 459.75 210.049 459.97C210.519 460.18 210.969 460.43 211.459 460.61C212.429 461 213.389 461.42 214.389 461.77L215.879 462.32L217.409 462.79C221.489 464.06 225.749 464.91 230.099 465.48C231.189 465.58 232.289 465.65 233.389 465.77C234.489 465.91 235.599 465.93 236.709 465.95C237.819 465.98 238.939 466.07 240.059 466.06L243.439 465.99L245.149 465.97L246.849 465.83C247.989 465.76 249.139 465.66 250.299 465.62C251.459 465.57 252.599 465.36 253.769 465.24C254.939 465.14 256.109 465 257.299 464.92L257.659 464.9C259.619 464.78 261.309 466.27 261.429 468.23C261.519 469.72 260.679 471.05 259.419 471.66C257.129 472.76 254.789 473.83 252.389 474.73C251.179 475.15 249.939 475.53 248.709 475.93L246.849 476.5C246.219 476.66 245.589 476.8 244.949 476.94L241.119 477.76C239.829 477.99 238.529 478.11 237.219 478.29C235.909 478.45 234.599 478.6 233.279 478.62C231.959 478.68 230.629 478.72 229.309 478.74C223.989 478.67 218.639 477.95 213.409 476.54L211.449 475.99L209.509 475.33C208.209 474.92 206.949 474.37 205.679 473.84C205.039 473.59 204.419 473.26 203.789 472.97C203.159 472.68 202.539 472.37 201.909 472.02C200.609 471.51 199.339 470.55 200.409 466.21C200.659 465.21 201.149 464.33 201.819 463.63L203.939 461.4Z" fill="#030303"/>
<path d="M183.35 465.66C183.95 465.37 184.73 465.15 185.41 464.89L187.47 464.15C188.14 463.92 188.8 463.63 189.45 463.41C190.09 463.11 190.72 462.9 191.34 462.63C193.81 461.6 196.05 460.45 198.13 459.13C198.39 458.96 198.68 458.84 198.92 458.66L199.67 458.12C200.16 457.75 200.74 457.49 201.19 457.06C201.69 456.68 202.17 456.29 202.7 455.93C202.98 455.76 203.18 455.51 203.43 455.31L204.18 454.68C205.26 453.91 206.14 452.88 207.27 451.99C208.34 451.04 209.33 449.96 210.67 448.98L211.11 448.66C212.49 447.66 214.42 447.96 215.43 449.34C215.88 449.96 216.06 450.69 216.01 451.39C215.94 452.29 215.81 453.19 215.63 454.08C215.43 454.96 215.29 455.88 214.94 456.72C214.25 458.4 213.58 460.15 212.46 461.67C210.48 464.87 207.5 467.5 204.19 469.42C200.87 471.36 197.11 472.46 193.4 472.69C192.47 472.73 191.54 472.73 190.62 472.7C189.7 472.62 188.78 472.54 187.88 472.37C186.98 472.19 186.08 472 185.21 471.68C184.31 471.39 183.51 471.05 182.55 470.55C181.31 469.91 180.83 468.38 181.47 467.14C181.73 466.64 182.14 466.26 182.62 466.03L183.35 465.66Z" fill="#030303"/>
<path d="M153.12 378.09C153.87 377.16 154.53 376.46 155.25 375.68C155.97 374.93 156.7 374.21 157.46 373.51C158.97 372.11 160.56 370.82 162.21 369.59C165.51 367.14 169.08 365.03 172.86 363.23C180.4 359.66 188.92 357.42 197.84 357.38C206.72 357.22 215.97 359.65 223.61 364.36C227.4 366.74 230.89 369.52 233.72 372.78C236.64 375.97 238.95 379.56 240.74 383.33C241.9 385.78 240.85 388.71 238.4 389.87C236.84 390.61 235.08 390.45 233.72 389.61L233.46 389.44C227.21 385.52 221.54 382.15 215.68 380.04C212.78 378.94 209.83 378.2 206.87 377.64C203.91 377.04 200.87 376.8 197.77 376.74C191.57 376.61 185.07 377.44 178.4 378.92C175.06 379.63 171.67 380.51 168.25 381.48L163.07 383L160.46 383.8C159.59 384.03 158.67 384.37 157.9 384.55L157.26 384.7C155.05 385.22 152.84 383.84 152.32 381.63C152.01 380.34 152.36 379.04 153.12 378.09Z" fill="black"/>
<path d="M215.88 270.82C215.44 271.08 214.82 271.38 214.27 271.66C213.7 271.95 213.14 272.25 212.57 272.56L209.19 274.4C206.95 275.66 204.74 276.93 202.57 278.27C198.22 280.91 194.03 283.73 190.01 286.69C181.95 292.6 174.55 299.13 167.95 306.38C164.62 309.97 161.5 313.75 158.58 317.71C155.56 321.59 152.9 325.76 150.23 329.96C145 338.45 140.48 347.52 135.8 357.05L135.76 357.13C134.54 359.61 131.55 360.63 129.07 359.41C127.24 358.51 126.21 356.65 126.28 354.74C126.7 343.44 129.58 332.22 134.15 321.63C136.48 316.35 139.24 311.23 142.48 306.4C143.28 305.19 144.09 303.98 144.98 302.82C145.86 301.66 146.7 300.47 147.61 299.33C149.5 297.11 151.32 294.83 153.37 292.76C161.37 284.28 170.85 277.25 181.12 272.04C186.27 269.46 191.61 267.28 197.11 265.68C199.86 264.87 202.65 264.21 205.47 263.69C206.88 263.43 208.3 263.22 209.74 263.05C210.46 262.97 211.18 262.91 211.91 262.85C212.66 262.78 213.34 262.76 214.21 262.73C216.51 262.65 218.44 264.44 218.52 266.74C218.58 268.33 217.74 269.74 216.46 270.49L215.88 270.82Z" fill="#030303"/>
<path d="M343.32 227.05C344.54 226.52 345.53 226.18 346.63 225.79C347.71 225.43 348.8 225.11 349.89 224.84C352.08 224.27 354.3 223.89 356.55 223.59C361.05 223.04 365.65 223 370.29 223.5C379.52 224.51 388.97 227.92 396.9 233.86C397.88 234.61 398.85 235.38 399.79 236.18L402.5 238.71C403.4 239.56 404.16 240.53 404.99 241.44C405.83 242.35 406.57 243.32 407.29 244.31C408.78 246.27 410.03 248.35 411.23 250.44C411.8 251.5 412.29 252.59 412.82 253.67L413.57 255.3L414.2 256.96C417.53 265.82 418.67 275.03 417.5 283.84C417.13 286.61 414.58 288.57 411.81 288.2C409.99 287.96 408.52 286.78 407.83 285.21L407.78 285.09C404.54 277.63 401.54 270.76 397.85 264.77L397.18 263.64L396.43 262.58C395.94 261.87 395.49 261.14 394.99 260.45C394.45 259.79 393.95 259.12 393.45 258.44C392.98 257.74 392.37 257.17 391.84 256.53L391.05 255.58C390.79 255.26 390.48 254.99 390.2 254.69C389.62 254.11 389.07 253.5 388.47 252.94L386.67 251.28C386.04 250.76 385.38 250.28 384.77 249.74C379.63 245.72 373.59 242.6 366.77 240.3C363.37 239.13 359.79 238.17 356.09 237.33C354.24 236.92 352.35 236.53 350.45 236.19L344.78 235.2L344.26 235.11C341.96 234.71 340.42 232.52 340.82 230.22C341.09 228.76 342.07 227.6 343.32 227.05Z" fill="#030303"/>
<path d="M338.2 63.27C226.68 -6.89 -52.6405 62.29 30.3595 323.29C33.0095 331.62 55.1995 368.27 59.1995 363.27C201.34 185.56 398.76 177.23 409.36 231.29C651.36 83.29 619.1 -84.07 338.2 63.27Z" fill="#030303"/>
<path d="M119.75 97.01C134.386 97.01 146.25 85.5216 146.25 71.35C146.25 57.1784 134.386 45.69 119.75 45.69C105.114 45.69 93.25 57.1784 93.25 71.35C93.25 85.5216 105.114 97.01 119.75 97.01Z" fill="black"/>
<path d="M119.75 97.01C134.386 97.01 146.25 85.5216 146.25 71.35C146.25 57.1784 134.386 45.69 119.75 45.69C105.114 45.69 93.25 57.1784 93.25 71.35C93.25 85.5216 105.114 97.01 119.75 97.01Z" fill="#030303"/>
<path d="M160.989 219.44C172.159 203.6 184.669 188.87 197.579 174.52C210.569 160.24 224.069 146.43 238.159 133.21C266.249 106.69 296.359 82.18 328.649 60.6C336.699 55.17 344.959 50.04 353.339 45.1C361.719 40.15 370.289 35.5 378.999 31.09C387.719 26.7 396.629 22.67 405.709 18.98C414.789 15.3 424.019 11.94 433.479 9.21002C442.919 6.45002 452.529 4.16002 462.279 2.54002C472.039 0.98002 481.939 0.0700195 491.859 0.0200195C501.779 0.0200195 511.739 0.88002 521.489 2.81002L523.319 3.16002L525.129 3.60002L528.749 4.47002C529.959 4.74002 531.149 5.11002 532.339 5.46002L535.909 6.52002C538.269 7.28002 540.579 8.18002 542.909 9.00002C545.209 9.92002 547.469 10.92 549.739 11.89C551.609 12.69 552.469 14.86 551.669 16.72C550.909 18.49 548.929 19.36 547.129 18.76L547.009 18.72C529.329 12.78 510.689 10.7 492.239 11.92C483.009 12.45 473.809 13.78 464.739 15.72C455.649 17.6 446.659 20.07 437.809 23.03C420.109 28.94 402.849 36.43 386.189 45.17C369.479 53.82 353.269 63.53 337.439 73.88C305.809 94.66 275.899 118.21 247.179 143.15C232.879 155.69 218.809 168.54 205.209 181.87C191.569 195.16 178.269 208.85 165.759 223.16L165.739 223.18C164.649 224.43 162.749 224.56 161.499 223.46C160.299 222.42 160.119 220.68 160.989 219.44Z" fill="#808080"/>
</svg>
