<svg width="113" height="36" viewBox="0 0 113 36" xmlns="http://www.w3.org/2000/svg"><title>Delightful</title><desc>Created with Sketch.</desc><path d="M8.35 3.448c2.376 0 4.716 2.124 4.716 11.34 0 9.54-2.376 11.088-4.572 11.088-1.224 0-1.944-.252-2.016-.9-.18-1.656-.216-6.228-.216-10.296s.036-8.676.216-10.332c.072-.648.648-.9 1.872-.9zm-8.208-.288c0 .18.108.288.36.288h1.188c.756 0 1.044.252 1.116.9.18 1.656.216 6.264.216 10.332 0 4.068-.036 8.64-.216 10.296-.072.648-.36.9-1.116.9h-1.188c-.252 0-.36.108-.36.288s.108.288.36.288c1.08 0 2.412-.072 3.78-.072l4.32.072c4.5 0 8.136-3.636 8.136-11.664 0-7.38-3.348-11.916-8.208-11.916l-4.248.072c-1.368 0-2.7-.072-3.78-.072-.252 0-.36.108-.36.288zm25.668 23.832c-2.34 0-3.744-1.548-3.744-8.1v-.144c2.556-.072 5.94 0 8.496 0 .288 0 .396-.108.396-.396 0-5.184-2.484-8.532-5.904-8.532-3.492 0-6.588 3.672-6.588 9.072 0 5.796 3.24 8.748 7.2 8.748 3.024 0 5.184-1.692 5.94-4.716.072-.288.036-.576-.216-.648-.288-.072-.468.036-.54.36-.756 2.988-2.628 4.356-5.04 4.356zm1.548-8.856c-1.548 0-3.78 0-5.292-.036.072-5.22 1.152-7.704 2.988-7.704 1.8 0 2.448 2.412 2.304 7.74zm9.324-2.988c0-4.356.072-8.964.072-9.972 0-1.836-.432-2.376-2.268-2.376h-2.988c-.252 0-.36.108-.36.288s.108.288.36.288l1.26-.036c.396 0 .576.216.648.576.252 1.188.216 6.516.216 10.98s-.036 9.18-.288 10.332c-.072.36-.252.576-.612.576h-1.26c-.252 0-.36.108-.36.288s.108.288.36.288c1.08 0 2.268-.072 3.636-.072 1.332 0 2.52.072 3.564.072.288 0 .396-.108.396-.288s-.108-.288-.396-.288h-1.26c-.36 0-.504-.144-.576-.576-.216-1.332-.144-5.328-.144-10.08zm6.912-2.052c0-1.836-.432-2.376-2.268-2.376h-2.988c-.252 0-.36.108-.36.288s.108.288.36.288l1.224-.036c.396 0 .576.216.648.576.18.756.252 4.428.252 7.092 0 2.844-.036 6.48-.252 7.38-.072.36-.252.576-.612.576h-1.26c-.252 0-.36.108-.36.288s.108.288.36.288c1.08 0 2.268-.072 3.636-.072 1.332 0 2.484.072 3.528.072.252 0 .36-.108.36-.288s-.108-.288-.36-.288h-1.224c-.36 0-.54-.144-.576-.576-.108-1.404-.144-4.176-.144-6.408 0-1.476.036-5.796.036-6.804zm-4.032-6.732c0 1.188.9 1.872 2.232 1.872 1.44 0 2.268-.72 2.268-1.872 0-1.044-.828-1.872-2.268-1.872-1.368 0-2.232.828-2.232 1.872zm21.744 5.58c0-.18-.108-.288-.36-.288h-2.196c-1.62 0-2.556.468-2.88 2.016-.432-2.268-1.656-3.852-3.384-3.852-3.204 0-6.264 3.636-6.264 9.144 0 5.472 2.628 8.64 5.868 8.64 1.692 0 3.06-1.476 3.6-3.816.072 2.196.072 4.644-.036 6.264-.288 3.348-1.584 4.68-3.564 4.68-.936 0-1.8-.324-2.412-.864.684-.72 1.008-1.8 1.008-2.916 0-1.764-.864-2.736-1.872-2.736-1.044 0-1.656.9-1.656 2.196 0 2.772 2.088 4.896 5.184 4.896 3.672 0 6.264-2.592 6.48-6.696.144-2.952 0-5.724-.036-8.568-.036-3.24 0-6.48.252-7.344.108-.36.288-.504.684-.504l1.224.036c.252 0 .36-.108.36-.288zm-9 15.048c-1.296 0-2.484-1.224-2.484-8.136 0-6.84 1.512-8.46 2.808-8.46 1.656 0 3.06 2.232 3.06 8.064s-1.728 8.532-3.384 8.532zm17.028-17.064c-1.872 0-3.312 1.152-3.888 3.132 0-2.952.072-7.524.072-9.54 0-1.26-.396-1.656-1.548-1.656h-3.708c-.252 0-.36.108-.36.288s.108.288.36.288l1.224-.036c.396 0 .576.216.648.576.252 1.188.252 6.984.252 11.448s-.036 9.648-.288 10.8c-.072.36-.252.576-.612.576h-1.26c-.252 0-.36.108-.36.288s.108.288.36.288c1.08 0 2.268-.072 3.636-.072 1.332 0 2.52.072 3.564.072.288 0 .396-.108.396-.288s-.108-.288-.396-.288h-1.26c-.36 0-.504-.144-.576-.576-.216-1.332-.216-6.984-.036-9.576.216-3.6 1.656-4.896 3.096-4.896 1.404 0 1.98.9 2.088 4.356.108 3.204-.036 11.304-.216 12.276-.072.36-.252.504-.612.504h-1.26c-.252 0-.36.108-.36.288s.108.288.36.288c1.08 0 2.304-.036 3.564-.036 1.332 0 2.628.036 3.672.036.252 0 .36-.108.36-.288s-.108-.288-.36-.288h-1.26c-.324 0-.54-.144-.612-.54-.324-1.692-.072-7.38-.108-10.836-.036-3.924-1.044-6.588-4.572-6.588zm12.312 18.828c.864 0 1.692-.144 2.34-.396.288-.108.396-.252.36-.432-.036-.18-.216-.216-.504-.144-.396.108-.936.18-1.404.18-1.296 0-2.052-.72-2.196-2.772-.18-2.412-.18-8.568-.072-13.86.792 0 1.692.036 2.628.036.288 0 .396-.144.396-.324 0-.18-.108-.324-.396-.324-.684 0-1.656.036-2.628.036.072-2.52.144-4.824.252-6.372.036-.468-.252-.468-.396-.072-.648 1.728-1.692 2.484-2.916 2.448-.072 1.152-.108 2.52-.144 3.996l-1.908-.036c-.252 0-.36.144-.36.324 0 .18.108.324.36.324h1.908c-.108 3.96-.108 8.64 0 11.7.144 4.32 1.8 5.688 4.68 5.688zm9.9-17.712c0-.18-.108-.324-.396-.324-.72 0-1.98.036-3.168.036 0-1.404.072-2.664.108-3.6.144-3.96 1.404-5.688 3.42-5.688.828 0 1.476.36 1.872.864-.936.756-1.512 2.268-1.512 3.456 0 1.332.684 2.124 1.728 2.124.936 0 1.8-.972 1.8-2.664 0-2.412-1.584-4.392-4.176-4.392-3.6 0-6.192 2.952-6.3 7.74-.036.576-.036 1.296-.036 2.16l-2.016-.036c-.252 0-.36.144-.36.324 0 .18.108.324.36.324l2.016-.036c0 4.824.072 12.492-.144 13.824-.072.396-.324.576-.684.576h-1.188c-.252 0-.36.108-.36.288s.108.288.36.288c1.08 0 2.268-.072 3.636-.072 1.332 0 3.6.072 4.644.072.288 0 .396-.108.396-.288s-.108-.288-.396-.288h-2.304c-.396 0-.612-.144-.648-.576-.108-1.224-.252-8.46-.216-13.824 1.188 0 2.448.036 3.168.036.288 0 .396-.144.396-.324zm3.672 1.692c0-1.404-.504-2.016-1.908-2.016h-3.384c-.252 0-.36.108-.36.288s.108.288.36.288l1.332-.036c.396 0 .576.18.648.576.324 1.656 0 6.264 0 9.684 0 4.752 1.728 6.408 4.608 6.408 1.836 0 3.132-1.116 3.708-3.06 0 2.88.9 3.708 3.024 3.708h2.196c.252 0 .36-.108.36-.288s-.108-.288-.36-.288l-1.08.036c-.468 0-.72-.216-.864-.684-.252-.9-.252-4.176-.18-6.984.072-2.844.144-4.788.144-6.552 0-1.404-.468-2.016-1.872-2.016h-3.708c-.252 0-.36.108-.36.288s.108.288.36.288l1.656-.036c.396 0 .576.18.648.576.252 1.368.108 6.696-.072 9.288-.216 3.6-1.44 4.896-2.88 4.896-1.368 0-2.052-.9-2.16-4.356-.072-2.664.144-7.776.144-10.008zm14.904 2.412c0-4.356.072-8.964.072-9.972 0-1.836-.432-2.376-2.268-2.376h-2.988c-.252 0-.36.108-.36.288s.108.288.36.288l1.26-.036c.396 0 .576.216.648.576.252 1.188.216 6.516.216 10.98s-.036 9.18-.288 10.332c-.072.36-.252.576-.612.576h-1.26c-.252 0-.36.108-.36.288s.108.288.36.288c1.08 0 2.268-.072 3.636-.072 1.332 0 2.52.072 3.564.072.288 0 .396-.108.396-.288s-.108-.288-.396-.288h-1.26c-.36 0-.504-.144-.576-.576-.216-1.332-.144-5.328-.144-10.08z" fill="#F59C5D"/></svg>