<svg width="260" height="260" viewBox="0 0 260 260" xmlns="http://www.w3.org/2000/svg"><title>Group</title><desc>Created with Sketch.</desc><defs><radialGradient cx="49.077%" cy="97.529%" fx="49.077%" fy="97.529%" r="134.81%" id="a"><stop stop-color="#FFB948" offset="0%"/><stop stop-color="#EE2A7B" offset="31.681%"/><stop stop-color="#002AFF" offset="100%"/></radialGradient></defs><path d="M116.371 0c-2.96 12.998-5.528 26.245-7.651 40.157-38.945 7.576-76.252 19.806-108.719 31.223l15.004 36.95c31.993-14.626 55.757-24.468 89.569-35.163l-.023.252c11.156-4.582 29.207-7.857 29.207-7.857l.257.069.064-.346c129.139-28.948 89.576 51.684-9.071 103.659l-.71-1.031c-.337-32.991 2.623-63.25 8.503-95.712-8.295 2.751-19.396 7.33-29.349 14.393-5.186 70.292 2.753 123.266 18.899 172.512l13.218-3.984c-4.288-17.74-8.196-33.615-10.446-65.859 16.745 24.012 43.554 35.232 68.471 35.232l-2.932-26.733-.046.023h-.092l-.069.046c-12.457 3.115-38.668 1.219-57.865-19.128 137.159-65.138 139.106-157.888 8.247-143.562 3.374-13.236 4.893-18.063 7.491-26.802l-31.956-8.338z" fill="url(#a)"/></svg>