<svg width="101" height="58" fill="none" xmlns="http://www.w3.org/2000/svg"><path d="M44.896 30.088c0 10.844 13.779 10.786 13.779-1.924 0-2.682-2.07-7.23-6.505-7.23-4.14 0-7.274 4.082-7.274 9.154zm9.935-.408c0 6.238-5.796 5.772-5.796.583 0-5.655 5.796-5.539 5.796-.583zm-7.629 9.736l.237.35c-6.032 4.256-12.951 1.4-16.973-3.498.355 4.256 1.124 8.512 2.366 12.651 0 0-1.656.991-3.312 2.04-1.892-5.946-3.193-10.727-4.198-15.974-1.715.7-3.43 1.341-5.086 1.866-.178-.933-.355-1.807-.533-2.624 1.834-.7 3.549-1.399 5.204-2.157-.768-5.247-1.241-11.194-1.419-19.239 2.543-1.282 5.145-2.448 7.806-3.381-.828 6.588-1.183 13.234-1.123 19.88 17.031-9.97 20.106-23.378 5.618-23.378-9.107 0-24.779 6.996-33.708 13.117 0 0-.946-4.664-1.833-10.086C4.21 6.884 18.817.122 33.009.122c12.123 0 17.327 4.955 17.327 10.727 0 8.628-8.93 16.324-19.456 21.571 2.839 4.023 7.629 5.072 12.3 2.157.71 2.04 2.13 3.79 4.022 4.84zm25.902-5.364c1.242-15.682 1.183-17.373 1.715-21.92 0 0-3.194.408-5.736 1.049.059 1.108.118 2.274.177 3.44-.769-.467-1.656-.642-2.602-.642-8.811 0-8.693 15.858-.946 15.858 1.242 0 2.424-.466 3.37-1.283-.059 1.516-.177 3.09-.236 4.665-12.3 3.789-19.397 10.843-19.397 16.09 0 3.732 2.07 6.18 6.623 6.18 7.156 0 13.661-7.52 15.553-15.45-1.419.117-2.838.35-4.198.7-3.903 9.736-7.747 12.127-11.65 12.127-2.01 0-3.312-.991-3.312-3.032 0-6.005 10.94-12.768 25.606-12.768 11.887 0 20.403 2.857 20.403 2.857 1.3-6.122 1.774-8.57 1.774-8.57-2.307-.408-15.08-1.982-27.144.7zm-5.855-5.771c-4.198 0-3.843-7.754-.118-7.754.414 0 .828.058 1.183.233.355.175.71.408.946.758 0 1.924-.06 3.848-.118 5.947-.237.291-.532.466-.887.64-.237.117-.65.176-1.006.176zM77.421 7.526c0-.467.118-.875.295-1.283.178-.408.474-.758.828-1.05.355-.29.71-.524 1.183-.699a5.108 5.108 0 0 1 1.36-.175 4.75 4.75 0 0 1 1.301.35 3.86 3.86 0 0 1 1.065.875c.295.35.473.757.591 1.166.118.408.178.874.118 1.34 0 .467-.118.875-.295 1.283-.178.408-.473.758-.828 1.05-.355.291-.71.524-1.183.7a5.11 5.11 0 0 1-1.36.174 4.751 4.751 0 0 1-1.301-.35 3.86 3.86 0 0 1-1.064-.874c-.296-.35-.474-.758-.592-1.166-.118-.467-.177-.875-.118-1.341zm6.032 12.476c.71.408 1.478.7 2.306.991 0 3.965 2.543 7.055 6.15 7.055 2.484 0 4.85-1.808 6.15-3.324l-1.241-1.515s-1.656 1.807-3.43 1.807c-1.538 0-3.075-.875-3.371-3.09 4.494.35 8.93-2.04 8.93-6.355 0-2.448-1.893-4.256-4.554-4.256-3.962 0-7.392 3.673-8.338 7.521a17.17 17.17 0 0 1-1.834-.758c-.118.35-.768 1.924-.768 1.924zm12.004-3.906c0 1.574-1.655 3.614-5.38 3.498.886-5.189 5.38-6.471 5.38-3.498zM76.416 21.4c0-2.682.295-5.305 1.005-7.929h.177c1.774.583 3.667.525 5.382-.233-1.301 3.44-2.011 6.705-2.011 9.27 0 3.09 1.774 3.906 3.607 1.457.178.7.474 1.4.887 2.041-1.064 1.574-2.542 2.565-4.257 2.565-2.839 0-4.79-2.915-4.79-7.17z" fill="#fff"/></svg>