<svg width="250" height="180" viewBox="0 0 250 180" xmlns="http://www.w3.org/2000/svg"><defs><radialGradient id="a" cx="26.083%" cy="109.929%" fx="26.083%" fy="109.929%" r="134.81%"><stop stop-color="#FFB948" offset="0%"/><stop stop-color="#EE2A7B" offset="31.681%"/><stop stop-color="#002AFF" offset="100%"/></radialGradient></defs><path d="M63.29 16c-1.457 6.399-2.721 12.921-3.767 19.77-19.173 3.729-37.54 9.751-53.523 15.371l7.387 18.191c15.75-7.201 27.45-12.046 44.095-17.311l-.011.124c5.492-2.256 14.379-3.868 14.379-3.868l.126.034.032-.17c63.576-14.251 44.099 25.444-4.466 51.032l-.35-.507c-.166-16.242 1.291-31.139 4.186-47.12-4.084 1.354-9.549 3.609-14.449 7.086-2.553 34.605 1.356 60.685 9.304 84.929l6.507-1.961c-2.111-8.733-4.035-16.549-5.143-32.423 8.244 11.821 21.442 17.345 33.709 17.345l-1.444-13.161-.023.011h-.045l-.034.023c-6.133 1.534-19.037.6-28.487-9.417 67.524-32.068 68.483-77.73 4.06-70.677 1.661-6.516 2.409-8.892 3.688-13.195l-15.732-4.105zm97.235 51.076l9.563 4.15c2-3.515.601-1.197 4.759-7.917l-10.928-5.661c-2.813 7.517-2.292 6.012-3.395 9.428zm24.957.733c-4.647 1.195-10.737 6.202-11.92 14.007-.208 0-4.201-.482-4.421-.507l-.823 4.207c2.964.788 12.532 3.954 20.311-.248 9.789-5.291 7.502-17.729-.91-17.731-.705 0-1.45.087-2.236.273zm2.616 7.634c2.143 2.46-2.199 7.027-9.417 7.23 1.545-7.59 7.443-9.507 9.417-7.23zm-28.138 21.924c4.363 2.778 9.348.959 13.838-1.566l-1.489-3.204c-4.831 2.409-10.101 2.046-9.721-3.269.319-3.982 3.153-9.883 5.176-14.018l-9.033-3.631c-1.754 5.829-6.18 20.827 1.229 25.689zm-14.909-19.723c-12.065-2.013-22.599 15.004-13.646 24.517.68.699 1.692 1.365 1.692 1.365 4.238 2.421 8.557 2.069 12.473-.056 0 2.515-.034 5.154-.147 7.904-53.23 21.625-52.841 55.531-32.756 55.627h.174c3.164-.015 6.808-.864 10.805-2.722 17.075-7.627 24.435-23.155 26.962-41.834-1.878-.127-4.333-.177-6.127.191-1.294 9.471-3.921 18.685-10.02 26.103-7.493 9.078-20.688 14.25-25.555 10.849-6.322-4.342.992-24.697 35.201-38.19l.001-.009.571-.223v.003c4.017-1.555 6.189-2.226 7.974-2.802l.001.003c19.14-6.108 39.306-8.273 59.476-8.606l-.744-13.217c-20.536 2.111-40.077 5.502-59.625 12.417.564-12.311-.011-21.16.857-34.295l-7.533-.338c-.038 3.227-.034 2.628-.034 3.316zm-8.909 10.229l.011-.045c3.485-4.531 6.787-4.977 8.977-4.195.096 4.359.103 2.843.293 11.075l-.192.282c-2.197 2.59-4.403 3.648-6.255 3.648-4.196 0-6.564-5.437-2.835-10.764zm-36.393 16.533c.838 4.94 4.876 10.117 11.695 10.759 13.849.99 21.565-23.946 5.887-29.434h-.023l-1.15-.282c-.177-.043-.488-.019-.791.003-.258.021-.509.041-.664.019-.489-.073-.981-.109-1.471-.109-7.92 0-15.472 9.354-13.483 19.044zm10.217 3.485c-.473-.378-.919-.451-1.5-1.162-2.624-2.493-2.063-8.334-1.038-9.463 1.219-2.869 3.666-4.637 5.289-4.938 1.314-.439 3.45.087 3.519.293 7.309 3.32 3.838 15.8-3.565 15.8-.854 0-1.759-.166-2.705-.53zm63.987-18.592c1.811 5.802 7.59 8.701 16.445 2.702l1.522-1.049-1.568-2.808c-4.134 1.583-9.554 3.98-10.587-.106-2.412.576-4.794 1.059-5.812 1.261z" fill="url(#a)"/></svg>