<svg id="Layer_1" data-name="Layer 1" xmlns="http://www.w3.org/2000/svg" xmlns:xlink="http://www.w3.org/1999/xlink" width="250" height="150" viewBox="0 0 250 150"><defs><radialGradient id="radial-gradient" cx="51.54" cy="135.67" r="267.16" gradientUnits="userSpaceOnUse"><stop offset="0" stop-color="#ffb948"/><stop offset="0.32" stop-color="#ee2a7b"/><stop offset="1" stop-color="#002aff"/></radialGradient></defs><title>rog.ie</title><path d="M102.1,78c0,24.91,31.49,24.83,31.49-4.47,0-6.15-4.75-16.64-14.85-16.64C109.3,56.87,102.1,66.24,102.1,78Zm22.7-.91c0,14.37-13.24,13.34-13.24,1.35C111.56,65.36,124.8,65.59,124.8,77.07ZM107.39,99.52l.58.76c-13.8,9.81-29.59,3.24-38.8-8.06a152.72,152.72,0,0,0,5.34,29.1s-3.82,2.22-7.58,4.71c-4.26-13.71-7.36-24.79-9.55-36.87-3.89,1.6-7.8,3.06-11.66,4.35-.44-2.15-.87-4.15-1.28-6q6.24-2.35,11.85-5c-1.8-12.13-2.8-25.81-3.2-44.33a145.06,145.06,0,0,1,17.8-7.84A347.84,347.84,0,0,0,68.32,76.2c38.91-23,45.93-53.9,12.82-53.9-20.77,0-56.64,16.12-77,30.22C4.19,52.52,2,41.8,0,29.23c9.17-4.74,42.5-20.3,75-20.3,27.68,0,39.58,11.4,39.58,24.67,0,19.93-20.46,37.57-44.49,49.74,6.54,9.21,17.49,11.66,28.17,5A19.61,19.61,0,0,0,107.39,99.52ZM166.58,87.1c2.78-36.22,2.72-40,3.9-50.53,0,0-7.28,1-13.16,2.39.15,2.61.27,5.24.36,7.91a11.69,11.69,0,0,0-5.88-1.51c-20.09,0-19.88,36.58-2.12,36.58a11.48,11.48,0,0,0,7.69-3q-.24,5.2-.6,10.8c-28.11,8.73-44.27,25-44.27,37.12,0,8.57,4.67,14.23,15.18,14.23,16.29,0,31.24-17.33,35.52-35.58a68.78,68.78,0,0,0-9.58,1.58c-8.92,22.5-17.68,28-26.58,28-4.55,0-7.63-2.32-7.63-7,0-13.85,25.05-29.48,58.46-29.48,27.18,0,46.57,6.62,46.57,6.62,3-14.16,4-19.77,4-19.77C223.38,84.5,194.16,80.89,166.58,87.1ZM153.25,73.79c-9.57,0-8.8-17.93-.28-17.93a6.31,6.31,0,0,1,4.89,2.28c0,4.38-.07,8.91-.22,13.68A5.72,5.72,0,0,1,153.25,73.79Zm23.21-47.84a7.64,7.64,0,1,1,15.21,1.21,7.64,7.64,0,1,1-15.21-1.21ZM190.3,54.72A38,38,0,0,0,195.53,57c0,9.08,5.81,16.26,14,16.26,5.66,0,11.14-4.11,14-7.6l-2.81-3.54s-3.8,4.13-7.8,4.13c-3.57,0-7-2-7.67-7.12,10.33.82,20.34-4.68,20.34-14.59,0-5.66-4.33-9.8-10.36-9.8-9,0-16.84,8.46-19.05,17.39A38.94,38.94,0,0,1,192,50.39C191.68,51.13,190.3,54.72,190.3,54.72Zm27.38-9c0,3.67-3.81,8.34-12.26,8C207.43,41.77,217.68,38.82,217.68,45.7ZM174.22,57.94a69.47,69.47,0,0,1,2.24-18.22l.39-.07a17.13,17.13,0,0,0,12.25-.52c-2.94,7.92-4.53,15.47-4.53,21.43,0,7.18,4.09,9,8.24,3.41a17.13,17.13,0,0,0,2,4.64c-2.5,3.62-5.82,5.87-9.76,5.87C178.56,74.47,174.22,67.79,174.22,57.94Z" /></svg>
