<svg version="1" xmlns="http://www.w3.org/2000/svg" width="700pt" height="700pt" viewBox="0 0 700.000000 700.000000"><path d="M313 .7c0 .4-.9 5.1-2 10.3-1.1 5.2-2.3 10.7-2.5 12.2-.3 1.6-1.2 5.6-2 9.1-.8 3.4-1.7 8-2.1 10.2-.3 2.2-.8 4.3-1 4.6-.2.3-.6 2.1-.9 4-.3 1.9-1.2 6.8-2 10.9-.8 4.1-1.7 9.3-2 11.5-3.7 23.9-6.1 34.8-7.6 35.1-1 .1-4.8.9-8.5 1.7-3.8.9-8.5 1.9-10.4 2.2-1.9.3-8.4 1.7-14.5 3.1-6 1.4-11.9 2.7-13 2.9-1.1.2-5.7 1.3-10.2 2.4-4.5 1.1-9.2 2.2-10.5 2.5-7.6 1.5-60.5 15.8-77.8 21-28.6 8.7-55.7 17.2-76.5 24.1-22.9 7.6-68.7 23.4-69.1 23.8-.2.2 21.5 54.6 23.7 59.2.5 1.1 4.2 10.3 8.3 20.5 4.1 10.1 7.9 18.6 8.5 18.8.5.2 4.5-1.3 8.7-3.2 4.1-2 7.7-3.6 7.9-3.6.3 0 27.2-12 38.5-17.2 10.7-4.9 46.1-19.6 65-27l27.3-10.7c6.9-2.9 44.6-16.1 66.2-23.1 13.8-4.5 28.4-9.3 32.5-10.7 12.7-4.2 44.8-12.9 58.5-15.7 7.2-1.5 13.7-3 14.5-3.3.8-.3 2-.7 2.5-.8 1.4-.4 21.5-4.4 24.5-5 1.4-.3 4.8-.9 7.5-1.5 2.8-.5 6.4-1.2 8-1.4 1.7-.3 7.1-1.2 12-2 5-.8 11.5-1.8 14.5-2.1 6-.6 12.1-1.4 16-2 11-1.6 45.6-2.4 60.6-1.2 26.7 2 48.3 9.4 60.8 20.8 10.5 9.7 14.7 19.7 14.5 34.9-.5 34.2-29.6 79.2-83 128.2-9.7 8.9-33.6 29-40.1 33.6-2 1.5-8.6 6.3-14.5 10.7-28.4 20.9-65.1 43.9-99.5 62.3-6.8 3.7-7.7 4-8.3 2.4-.7-1.6-.7-42.8 0-61.7.6-18 1.6-35 3-52 .3-3.3.7-8.9 1-12.5.3-3.6.7-8.5 1-11 2.1-19.9 3.6-33.9 4-36 .3-2.3.7-4.9 2-16 .3-2.5 1.2-8.8 2-14 .8-5.2 1.7-11.3 2-13.5.4-2.2 1.1-6.9 1.7-10.5.6-3.6 1.2-7.4 1.3-8.5.2-1.1.5-3.1.8-4.5 2.1-11.6 2.9-17.1 2.5-17.5-.6-.6-11.7 3.2-23.3 8-16.5 6.8-41.9 20.3-53.7 28.6-1.4.9-1.6 3.6-3.4 34.9-2.8 50.9-2.3 123.5 1.1 166.5.3 4.4.8 11.1 1.1 15 .2 3.8.7 8.8.9 11 .7 6.3 1.3 11.5 2 18 .5 5.2 2.4 20 4.1 33 .2 2.2 1.2 8.3 2 13.5.9 5.2 1.8 10.8 2 12.5.3 1.6 1.6 8.8 2.9 16 1.3 7.1 2.7 14.3 3 16 2.3 13.2 13 58.5 18.4 78 5.2 18.7 14.7 49.5 15.6 50.3.3.3 6-1.1 12.8-3.1 6.7-2 14.5-4.4 17.4-5.2 4.5-1.4 5.1-1.8 4.7-3.8-.3-1.2-.7-3.3-1-4.7-.3-1.4-1-4.3-1.6-6.5-.5-2.2-1.1-4.7-1.3-5.5-.2-.8-1.1-4.7-2-8.5-.9-3.9-1.9-8.1-2.1-9.5-.3-1.4-1.4-6.5-2.5-11.3-1-4.8-2.2-10.5-2.5-12.5-.3-2-.9-5.3-1.4-7.2-.4-1.9-1.2-5.8-1.6-8.5-.4-2.8-.9-5.7-1-6.5-.2-.8-.5-3.1-.8-5-.2-1.9-.7-4.6-1-6-.3-1.4-.7-4.8-1-7.5-.3-2.8-.8-5.9-1-7-.4-2.3-1.3-10.5-2.1-19-.3-3.3-.8-7.4-1-9-.5-3.3-1.2-10.6-2-20.8-.3-3.7-.8-9.7-1.1-13.5l-.6-6.7 5.5 7.4c25.8 34.6 66.7 63.2 109.7 76.6 8.5 2.7 15.3 4.5 19 5.2 1.4.2 4.1.8 6 1.3 6.4 1.6 27.5 4.1 36 4.1 8.8.1 8.3.6 7.6-5.9-.9-8.3-1.6-14.1-2.1-18.7-.9-8.5-1.5-13.2-2.1-18.5-.3-3-.7-6.6-.8-8-.2-1.4-.7-5.9-1.2-10-.4-4.1-.9-7.8-1-8.3-.1-.4-.2-1.1-.3-1.6-.1-.6-1.1-.6-2.8-.1-5.4 1.8-16.8 2.7-30.7 2.4-43.4-.8-85.4-18.3-117.2-48.8l-5.5-5.4 17.8-8.8c41.1-20.4 83-45.1 115.4-68.1 11-7.7 37.3-27.9 43.3-33.2 25.4-22.5 40.1-37 52.1-51.6 2.8-3.3 5.5-6.6 6.2-7.3 3.1-3.3 16.7-22.7 21.8-31.2 23.4-38.6 30.5-74.6 20.9-106-5-16.6-20-36.8-34.9-47-2.8-1.9-5.6-4-6.3-4.7-2.9-2.8-28.6-14.4-40.2-18.2-12-3.8-30.6-8.3-40-9.6-2.5-.3-7.2-1-10.5-1.5s-10-1.2-15-1.5c-4.9-.4-10.1-.8-11.5-1.1-5.9-1-61.1-.3-71.5.9-7.8.9-22.4 2-24.1 1.8-.9-.1 6.6-30.2 12.2-48.6 1-3.3 1.9-6.5 2-7 .1-.6 1.1-4.1 2.3-7.9 1.1-3.7 2.1-7.2 2.1-7.6 0-.7-1.6-1.3-7.5-2.6-1.8-.4-8.9-2.2-26-6.7-9.3-2.5-24.2-6.4-33-8.7-8.8-2.2-16.8-4.3-17.7-4.6-1-.3-1.8-.2-1.8.3z"/></svg>