<svg width="128" height="128" viewBox="0 0 128 128" fill="none" xmlns="http://www.w3.org/2000/svg">
<path d="M48.0356 66.3087C43.1916 76.7418 40.213 81.1532 24.8203 74.7567C9.42768 68.3601 11.7304 88.4003 24.2185 90.5678C39.7613 93.2649 47.0685 84.05 49.5935 74.2739" fill="black"/>
<path d="M48.5269 66.5379C48.1372 67.4424 47.7434 68.3458 47.3283 69.2452C46.9092 70.1426 46.4687 71.0359 45.9846 71.9149C45.5005 72.7939 44.9616 73.6556 44.3375 74.4766C43.7133 75.2945 42.9927 76.0726 42.1413 76.7225C41.2918 77.3713 40.3104 77.8796 39.2783 78.1882C38.2462 78.5009 37.1785 78.6323 36.1342 78.6394C35.0879 78.6476 34.0598 78.5355 33.0551 78.3664C32.0503 78.1933 31.0649 77.9621 30.0977 77.6901C28.1613 77.1513 26.2909 76.4607 24.454 75.7131C23.5842 75.3597 22.7043 75.0582 21.8184 74.8514C20.9344 74.6456 20.0433 74.5285 19.1969 74.5692C18.3515 74.6049 17.5538 74.8045 16.9175 75.2038C16.2781 75.599 15.7981 76.1949 15.5038 76.9262C15.2085 77.6565 15.0999 78.504 15.1394 79.3626C15.178 80.2233 15.3627 81.0962 15.6499 81.9385C16.2244 83.6273 17.2189 85.1939 18.4926 86.4569C19.131 87.0884 19.8414 87.6435 20.6056 88.107C20.9882 88.3371 21.384 88.5459 21.792 88.7273C22.1989 88.9116 22.616 89.0705 23.0433 89.205C23.4696 89.3404 23.9049 89.4453 24.3454 89.5289L25.0446 89.649L25.748 89.755C26.6867 89.8864 27.6306 89.973 28.5724 90.0117C30.456 90.087 32.3406 89.9719 34.1694 89.5971C35.0818 89.4036 35.982 89.1561 36.8517 88.8291C37.7235 88.5062 38.5679 88.111 39.3788 87.6567C41.0005 86.7431 42.466 85.5493 43.7316 84.158C45.0042 82.7707 46.0688 81.1817 46.9528 79.4899C47.3953 78.6435 47.788 77.7685 48.1402 76.8743C48.4944 75.981 48.8029 75.0673 49.0719 74.1404L49.0729 74.1384C49.1561 73.8501 49.4565 73.6841 49.7437 73.7687C50.0208 73.8491 50.1842 74.1343 50.1202 74.4134C49.8949 75.3872 49.627 76.3517 49.3093 77.3041C48.9876 78.2544 48.6162 79.1905 48.1899 80.1041C47.3395 81.9314 46.2576 83.6691 44.9383 85.2275C43.6169 86.7818 42.0418 88.1416 40.28 89.206C38.5202 90.2755 36.5736 91.0231 34.5784 91.4835C33.5787 91.7086 32.5669 91.8685 31.551 91.9602C30.5351 92.0518 29.5172 92.0732 28.5033 92.0467C27.4895 92.0182 26.4807 91.9388 25.479 91.8115L24.73 91.7086L23.9811 91.5894C23.4584 91.4977 22.9398 91.3796 22.4303 91.2258C20.3853 90.6187 18.5088 89.4759 16.9936 87.9878C15.4784 86.4966 14.3032 84.6693 13.6019 82.6424C13.2558 81.6279 13.0336 80.5584 12.9859 79.4553C12.9422 78.3552 13.0752 77.2073 13.5197 76.1144C13.742 75.5705 14.0454 75.0439 14.4311 74.5764C14.8157 74.1078 15.2836 73.7014 15.7981 73.3857C16.3116 73.0689 16.8688 72.8408 17.429 72.6931C17.9902 72.5433 18.5555 72.469 19.1096 72.4486C20.2209 72.4109 21.2866 72.5739 22.3035 72.8234C23.3214 73.074 24.2957 73.4244 25.2334 73.8196C27.0135 74.5713 28.8149 75.2598 30.6376 75.818C31.549 76.0961 32.4675 76.3334 33.388 76.5127C33.8477 76.5992 34.3084 76.6756 34.7692 76.7286C35.2289 76.7816 35.6877 76.8131 36.1433 76.8254C37.0547 76.8488 37.9519 76.7612 38.8033 76.532C39.6548 76.3049 40.4535 75.9239 41.1781 75.4065C41.9058 74.8932 42.5614 74.2494 43.1541 73.5313C43.7478 72.8143 44.2796 72.0249 44.784 71.21C45.2864 70.3931 45.7563 69.5457 46.2089 68.685C46.6666 67.8264 47.1081 66.9545 47.5465 66.0785V66.0775C47.6805 65.8096 48.0062 65.7006 48.2732 65.8361C48.5299 65.9665 48.6385 66.2761 48.5269 66.5379Z" fill="black"/>
<path d="M48.5269 66.5379C48.1372 67.4424 47.7434 68.3458 47.3283 69.2452C46.9092 70.1426 46.4687 71.0359 45.9846 71.9149C45.5005 72.7939 44.9616 73.6556 44.3375 74.4766C43.7133 75.2945 42.9927 76.0726 42.1413 76.7225C41.2918 77.3713 40.3104 77.8796 39.2783 78.1882C38.2462 78.5009 37.1785 78.6323 36.1342 78.6394C35.0879 78.6476 34.0598 78.5355 33.0551 78.3664C32.0503 78.1933 31.0649 77.9621 30.0977 77.6901C28.1613 77.1513 26.2909 76.4607 24.454 75.7131C23.5842 75.3597 22.7043 75.0582 21.8184 74.8514C20.9344 74.6456 20.0433 74.5285 19.1969 74.5692C18.3515 74.6049 17.5538 74.8045 16.9175 75.2038C16.2781 75.599 15.7981 76.1949 15.5038 76.9262C15.2085 77.6565 15.0999 78.504 15.1394 79.3626C15.178 80.2233 15.3627 81.0962 15.6499 81.9385C16.2244 83.6273 17.2189 85.1939 18.4926 86.4569C19.131 87.0884 19.8414 87.6435 20.6056 88.107C20.9882 88.3371 21.384 88.5459 21.792 88.7273C22.1989 88.9116 22.616 89.0705 23.0433 89.205C23.4696 89.3404 23.9049 89.4453 24.3454 89.5289L25.0446 89.649L25.748 89.755C26.6867 89.8864 27.6306 89.973 28.5724 90.0117C30.456 90.087 32.3406 89.9719 34.1694 89.5971C35.0818 89.4036 35.982 89.1561 36.8517 88.8291C37.7235 88.5062 38.5679 88.111 39.3788 87.6567C41.0005 86.7431 42.466 85.5493 43.7316 84.158C45.0042 82.7707 46.0688 81.1817 46.9528 79.4899C47.3953 78.6435 47.788 77.7685 48.1402 76.8743C48.4944 75.981 48.8029 75.0673 49.0719 74.1404L49.0729 74.1384C49.1561 73.8501 49.4565 73.6841 49.7437 73.7687C50.0208 73.8491 50.1842 74.1343 50.1202 74.4134C49.8949 75.3872 49.627 76.3517 49.3093 77.3041C48.9876 78.2544 48.6162 79.1905 48.1899 80.1041C47.3395 81.9314 46.2576 83.6691 44.9383 85.2275C43.6169 86.7818 42.0418 88.1416 40.28 89.206C38.5202 90.2755 36.5736 91.0231 34.5784 91.4835C33.5787 91.7086 32.5669 91.8685 31.551 91.9602C30.5351 92.0518 29.5172 92.0732 28.5033 92.0467C27.4895 92.0182 26.4807 91.9388 25.479 91.8115L24.73 91.7086L23.9811 91.5894C23.4584 91.4977 22.9398 91.3796 22.4303 91.2258C20.3853 90.6187 18.5088 89.4759 16.9936 87.9878C15.4784 86.4966 14.3032 84.6693 13.6019 82.6424C13.2558 81.6279 13.0336 80.5584 12.9859 79.4553C12.9422 78.3552 13.0752 77.2073 13.5197 76.1144C13.742 75.5705 14.0454 75.0439 14.4311 74.5764C14.8157 74.1078 15.2836 73.7014 15.7981 73.3857C16.3116 73.0689 16.8688 72.8408 17.429 72.6931C17.9902 72.5433 18.5555 72.469 19.1096 72.4486C20.2209 72.4109 21.2866 72.5739 22.3035 72.8234C23.3214 73.074 24.2957 73.4244 25.2334 73.8196C27.0135 74.5713 28.8149 75.2598 30.6376 75.818C31.549 76.0961 32.4675 76.3334 33.388 76.5127C33.8477 76.5992 34.3084 76.6756 34.7692 76.7286C35.2289 76.7816 35.6877 76.8131 36.1433 76.8254C37.0547 76.8488 37.9519 76.7612 38.8033 76.532C39.6548 76.3049 40.4535 75.9239 41.1781 75.4065C41.9058 74.8932 42.5614 74.2494 43.1541 73.5313C43.7478 72.8143 44.2796 72.0249 44.784 71.21C45.2864 70.3931 45.7563 69.5457 46.2089 68.685C46.6666 67.8264 47.1081 66.9545 47.5465 66.0785V66.0775C47.6805 65.8096 48.0062 65.7006 48.2732 65.8361C48.5299 65.9665 48.6385 66.2761 48.5269 66.5379Z" fill="black"/>
<path d="M16.6638 78.5295C16.877 78.3502 17.1063 78.1832 17.358 78.0467C17.6097 77.9133 17.8766 77.8002 18.1547 77.7259C18.7108 77.57 19.2934 77.5517 19.8485 77.6047C19.9886 77.6159 20.1256 77.6373 20.2636 77.6566C20.3996 77.6821 20.5366 77.7045 20.6696 77.7361C20.9395 77.7931 21.2003 77.8674 21.4612 77.9438C21.7189 78.0243 21.9757 78.1078 22.2264 78.1995C22.4781 78.2912 22.7237 78.39 22.9693 78.4898C23.4595 78.6894 23.9405 78.9003 24.4165 79.1111L25.8343 79.7487C26.7751 80.1684 27.7148 80.5687 28.6688 80.9068C29.6218 81.246 30.589 81.521 31.5693 81.7115C32.5487 81.9009 33.5423 81.9936 34.5378 81.9845C35.0362 81.9814 35.5334 81.9437 36.0297 81.8877C36.527 81.8327 37.0223 81.7492 37.5135 81.6371C38.4999 81.4273 39.4641 81.0993 40.4231 80.7306L40.4262 80.7296C40.5622 80.6777 40.7144 80.7459 40.7661 80.8824C40.8128 81.0046 40.7631 81.1391 40.6555 81.2042C38.844 82.2931 36.7472 82.9928 34.5815 83.1303C33.5006 83.1955 32.4097 83.1375 31.3461 82.9501C30.2804 82.7688 29.2432 82.4734 28.2395 82.1108C26.2301 81.3886 24.3718 80.3823 22.5288 79.5053C22.2974 79.3983 22.066 79.2924 21.8336 79.1946C21.6022 79.0928 21.3698 78.9991 21.1364 78.9094C20.6706 78.7342 20.1987 78.5916 19.7267 78.504C19.4903 78.4572 19.2548 78.4368 19.0204 78.4266C18.7849 78.4195 18.5535 78.4378 18.3232 78.4725C18.0928 78.5071 17.8705 78.5784 17.6503 78.6629C17.4301 78.7475 17.223 78.8677 17.016 78.994L17.0018 79.0021C16.8638 79.0867 16.6851 79.0429 16.6009 78.9043C16.5248 78.7811 16.5542 78.6202 16.6638 78.5295Z" fill="#3D3D3D"/>
<path d="M96.7965 67.2897C99.5133 73.8482 107.209 71.3985 111.698 69.7862C116.187 68.1728 118.655 75.4188 113.07 80.2101C108.435 84.1866 99.6991 80.9201 98.3675 75.76" fill="black"/>
<path d="M107.907 83.2393C106.717 83.2393 105.478 83.0468 104.238 82.6547C100.621 81.5118 97.9058 78.9909 97.1528 76.0748C96.9792 75.4015 97.3821 74.715 98.052 74.5408C98.7228 74.3666 99.4068 74.771 99.5804 75.4433C100.109 77.4936 102.233 79.382 104.99 80.2529C107.781 81.135 110.496 80.7602 112.254 79.2517C115.111 76.8 115.571 73.6058 114.554 71.8447C114.172 71.1836 113.44 70.4951 112.12 70.9687C109.388 71.9506 106.465 72.8592 103.607 72.8592C103.598 72.8592 103.589 72.8592 103.58 72.8592C99.76 72.851 97.0137 71.092 95.6386 67.7715C95.3727 67.1298 95.6761 66.3934 96.3155 66.1265C96.9539 65.8596 97.6886 66.1632 97.9545 66.8059C98.9522 69.2127 100.741 70.3372 103.586 70.3433C103.595 70.3433 103.605 70.3433 103.615 70.3433C105.01 70.3433 107.017 70.1305 111.276 68.6006C113.441 67.8224 115.579 68.6006 116.724 70.5827C117.537 71.9893 117.76 73.8563 117.336 75.703C116.867 77.7422 115.674 79.6306 113.885 81.1655C112.294 82.5314 110.191 83.2393 107.907 83.2393Z" fill="black"/>
<path d="M98.742 71.6715C99.3702 72.4762 100.278 73.0639 101.282 73.4672C101.786 73.6659 102.311 73.8288 102.851 73.9429C103.39 74.0631 103.942 74.1385 104.498 74.1792C105.054 74.224 105.614 74.224 106.171 74.1904C106.728 74.1589 107.283 74.0814 107.826 73.9663C108.368 73.8462 108.9 73.6842 109.399 73.4571C109.9 73.233 110.364 72.9427 110.762 72.576L110.77 72.5679C110.909 72.4395 111.126 72.4487 111.253 72.5882C111.367 72.7125 111.372 72.8969 111.275 73.0262C110.885 73.5436 110.379 73.9562 109.839 74.2862C109.295 74.6142 108.713 74.8637 108.116 75.0511C106.922 75.4259 105.674 75.5675 104.429 75.5359C103.807 75.5166 103.184 75.4494 102.567 75.3322C101.952 75.2059 101.34 75.0379 100.749 74.7934C100.158 74.553 99.5843 74.2434 99.0576 73.8502C98.5349 73.455 98.0539 72.9743 97.6936 72.4018C97.5048 72.1024 97.5931 71.7062 97.8925 71.5157C98.1716 71.3385 98.536 71.4047 98.7359 71.6603L98.742 71.6715Z" fill="#3D3D3D"/>
<path d="M101.786 90.0636C107.46 94.6848 103.46 105.235 96.623 102.107C90.2952 106.303 84.8068 105.596 84.8068 105.596C84.8068 109.446 89.121 109.616 89.121 111.572C89.121 113.529 86.3575 118.29 84.2039 120.45L82.6958 119.431C82.6958 119.431 80.9634 124.337 71.6022 122.637C72.1949 119.133 73.972 116.849 73.972 116.849C71.7666 116.105 70.8512 114.659 70.8512 114.659L75.5369 113.422L66.7399 106.284C55.8432 107.63 48.7797 103.19 48.7797 94.5157C48.7797 85.8416 57.5634 82.7259 62.0725 84.9596C52.3297 64.3816 67.5792 48.8934 82.3234 64.7106C82.6948 65.1088 83.3565 64.9357 83.4966 64.4091C86.391 53.484 90.5327 55.0068 93.1704 60.0476C95.9055 65.2749 98.9491 70.4288 97.1 83.5702C101.197 85.5585 102.233 86.9671 101.786 90.0636Z" fill="#F2F2F2"/>
<path d="M86.2154 64.4989C86.2611 64.3909 86.3138 64.286 86.3646 64.1791L86.4448 64.0202L86.5361 63.8674C86.598 63.7655 86.6589 63.6627 86.7269 63.5639C86.7969 63.4661 86.87 63.3703 86.9431 63.2725C87.2465 62.8926 87.6068 62.5433 88.0188 62.2479C88.4329 61.9555 88.9018 61.7213 89.396 61.5664C89.8903 61.4096 90.4089 61.3322 90.9204 61.3281C91.9485 61.3189 92.9359 61.6021 93.7905 62.0655C94.2187 62.2978 94.6176 62.5779 94.9758 62.9059C95.3321 63.2338 95.6578 63.6046 95.8953 64.0558C96.0212 64.2952 95.9308 64.5916 95.6923 64.7179C95.5279 64.8055 95.3361 64.7892 95.192 64.6914L95.1565 64.667C94.9971 64.559 94.8317 64.4582 94.6663 64.3583C94.4948 64.2636 94.3273 64.1679 94.1507 64.0843C93.8026 63.9122 93.4464 63.7604 93.0851 63.6382C92.3646 63.3927 91.6359 63.2481 90.9326 63.2481C90.2282 63.2491 89.5513 63.3978 88.8998 63.7085C88.574 63.8643 88.2563 64.0619 87.9407 64.287C87.623 64.5111 87.3257 64.78 87.003 65.0499L86.9796 65.0693C86.7726 65.2425 86.4641 65.2139 86.2915 65.0061C86.1677 64.8605 86.1464 64.6629 86.2154 64.4989Z" fill="#E0DBD3"/>
<path d="M66.8861 5.93262C69.5532 8.24475 74.0501 17.535 75.9774 24.1669C77.9046 30.7987 81.7744 45.523 81.8241 49.0126C81.8738 52.5022 73.0961 51.3706 73.5143 47.2322L74.2866 41.6321L73.4026 33.5274L71.8286 27.7777L70.1692 21.0379C70.1692 21.0379 67.9294 14.5751 68.1872 14.5354C68.4429 14.4977 66.1067 7.71612 66.1067 7.71612L66.8861 5.93262Z" fill="#B8B3AD"/>
<path d="M80.7168 50.7869C80.668 49.6798 80.4945 48.5359 80.2804 47.3972C80.0632 46.2574 79.8064 45.1136 79.5294 43.9687C79.2533 42.8228 78.9529 41.679 78.6728 40.5076C78.6028 40.2133 78.5338 39.9189 78.4688 39.6174C78.4039 39.3139 78.3409 39.0104 78.2902 38.6763L78.2557 38.4216L78.2293 38.1853L78.1836 37.7229L78.1085 36.8286C78.0121 35.6613 77.8792 34.5552 77.6163 33.4735C77.3575 32.3938 76.978 31.3487 76.4969 30.3414L76.301 29.9279C76.2351 29.7842 76.1701 29.6406 76.1072 29.495C75.9813 29.2037 75.8646 28.9042 75.754 28.5996C75.5368 27.9895 75.3613 27.3366 75.2567 26.6868C75.2029 26.3629 75.1654 26.0461 75.1309 25.7528C75.0964 25.4574 75.0629 25.1885 75.0172 24.9349C74.9289 24.4297 74.7838 23.9581 74.5747 23.4692C74.5504 23.408 74.522 23.348 74.4946 23.2868L74.4052 23.0862C74.3373 22.9385 74.2733 22.7847 74.2104 22.6309C74.0866 22.3212 73.9749 21.9963 73.8887 21.6612C73.8014 21.3282 73.7364 20.9839 73.6908 20.6702C73.6441 20.3544 73.6096 20.0763 73.5639 19.8237C73.5193 19.5701 73.4594 19.3358 73.3843 19.0955C73.3082 18.8561 73.2148 18.6147 73.1082 18.3713C72.8951 17.8844 72.6282 17.3935 72.343 16.9056C72.273 16.7833 72.1969 16.6621 72.1238 16.5399L71.8873 16.1498C71.728 15.8839 71.5727 15.613 71.4225 15.337C71.1231 14.7839 70.842 14.1992 70.6157 13.5871C70.503 13.2825 70.4036 12.9739 70.3153 12.6816C70.227 12.3903 70.1478 12.1193 70.0616 11.8657C69.9753 11.6121 69.8819 11.3707 69.7723 11.1303C69.6637 10.8899 69.5409 10.6506 69.409 10.4112C69.1421 9.93352 68.8386 9.45683 68.5139 8.98524C68.3495 8.74792 68.1881 8.51568 68.0207 8.29466C67.8542 8.07261 67.6837 7.85769 67.5102 7.66009C67.3376 7.46147 67.159 7.27813 66.9916 7.13757C66.9094 7.06729 66.8292 7.00923 66.7713 6.97664C66.7176 6.94201 66.676 6.93895 66.75 6.94914C66.7866 6.95219 66.8566 6.94914 66.9337 6.92164C67.0109 6.89515 67.0789 6.84525 67.1123 6.80858C67.1803 6.73015 67.1519 6.74033 67.1377 6.7933C67.1194 6.84728 67.1002 6.93895 67.089 7.03979C67.0778 7.14266 67.0718 7.25776 67.0728 7.37693C67.0707 7.6163 67.09 7.87501 67.1235 8.13474C67.1529 8.39549 67.1996 8.6593 67.2554 8.92107C67.2818 9.05246 67.3123 9.18284 67.3458 9.3122C67.362 9.37942 67.3793 9.43341 67.3955 9.4935C67.4097 9.5536 67.429 9.61165 67.4473 9.66971C67.5224 9.90194 67.6167 10.1291 67.7294 10.3481C67.9557 10.7861 68.2602 11.1955 68.6367 11.5622C68.8234 11.7476 69.0284 11.9197 69.2456 12.0837C69.3542 12.1662 69.4669 12.2436 69.5826 12.317C69.6394 12.3546 69.6983 12.3923 69.7561 12.427C69.8119 12.4606 69.8789 12.4972 69.9215 12.5258L69.9804 12.5645C70.1478 12.6734 70.1955 12.8996 70.0869 13.0676C70.0108 13.1858 69.8769 13.2449 69.7459 13.2316C69.6455 13.2214 69.5714 13.2123 69.4882 13.197C69.407 13.1827 69.3268 13.1664 69.2466 13.1491C69.0883 13.1104 68.931 13.0646 68.7757 13.0116C68.4652 12.9057 68.1648 12.7651 67.8755 12.5971C67.2981 12.2609 66.7744 11.7934 66.3613 11.2301C66.1543 10.949 65.9767 10.6445 65.8306 10.3267C65.7544 10.1708 65.6915 10.0007 65.6347 9.8449C65.5799 9.6911 65.5302 9.53526 65.4835 9.3784C65.3921 9.06469 65.318 8.74486 65.2592 8.41892C65.2054 8.09094 65.1668 7.75584 65.1577 7.40138C65.1547 7.04386 65.1628 6.67718 65.2947 6.22087C65.3292 6.10679 65.3769 5.98151 65.4439 5.85011C65.5109 5.71974 65.6053 5.57408 65.7453 5.4325C65.8833 5.29194 66.0782 5.15749 66.2954 5.08314C66.5115 5.00573 66.7328 4.98943 66.9165 5.00573C67.1042 5.021 67.2524 5.06378 67.3843 5.11064L67.4807 5.14731L67.567 5.18601C67.6269 5.21249 67.6746 5.23999 67.7274 5.2675C67.9283 5.37954 68.0876 5.49769 68.2348 5.61584C68.525 5.85317 68.7625 6.09559 68.9838 6.33902C69.4242 6.82589 69.8018 7.33212 70.156 7.82816C70.5132 8.32827 70.8603 8.8457 71.182 9.39878C71.3423 9.67684 71.4966 9.96306 71.6377 10.2615C71.7798 10.5589 71.9066 10.8696 72.0172 11.1762C72.1279 11.4827 72.2202 11.7812 72.3095 12.0562C72.3978 12.3312 72.4861 12.5869 72.5835 12.8374C72.7764 13.3365 73.0138 13.8234 73.2848 14.3123C73.4198 14.5557 73.5629 14.7992 73.7111 15.0406L73.9404 15.4103C74.0216 15.5417 74.1038 15.6711 74.183 15.8065C74.5027 16.3403 74.8102 16.8903 75.0801 17.4892C75.2151 17.7887 75.3399 18.1003 75.4475 18.4253C75.5541 18.7502 75.6434 19.0914 75.7053 19.4234C75.7692 19.7555 75.8098 20.0672 75.8525 20.3381C75.8951 20.6121 75.9438 20.8525 76.0098 21.0929C76.0747 21.3322 76.1569 21.5706 76.2533 21.812C76.3031 21.9332 76.3538 22.0534 76.4096 22.1756L76.502 22.3813C76.5355 22.4557 76.57 22.5301 76.6014 22.6064C76.7303 22.91 76.8491 23.2247 76.9485 23.5517C77.048 23.8776 77.1282 24.2147 77.187 24.5458C77.2469 24.8768 77.2865 25.1977 77.321 25.493C77.3565 25.7894 77.389 26.0634 77.4336 26.3252C77.5199 26.8477 77.6549 27.3468 77.8355 27.8561C77.9279 28.1097 78.0273 28.3633 78.1369 28.618L78.3054 28.9989L78.4881 29.3921C79.0239 30.5308 79.4522 31.7338 79.7384 32.9683C79.8825 33.5845 79.9932 34.2078 80.0743 34.8271C80.1565 35.4474 80.2053 36.0647 80.2479 36.6646L80.3088 37.5477L80.3433 37.9735L80.3636 38.1802C80.3707 38.2485 80.3788 38.3045 80.3869 38.3676C80.4224 38.6213 80.4762 38.9003 80.5331 39.1784C80.5899 39.4575 80.6538 39.7427 80.7188 40.0269C80.9827 41.1697 81.2628 42.3298 81.5266 43.4981C81.7895 44.6674 82.0422 45.8459 82.2411 47.0458C82.439 48.2467 82.6014 49.4628 82.6298 50.7319C82.642 51.2626 82.2228 51.7026 81.6941 51.7149C81.1724 51.7271 80.7391 51.3176 80.7157 50.7971L80.7168 50.7869Z" fill="black"/>
<path d="M71.8975 19.2258C71.1496 19.1158 70.3874 18.9039 69.6557 18.4466C69.2944 18.2164 68.9483 17.918 68.6662 17.5655C68.384 17.2131 68.1669 16.821 68.0014 16.438C67.6767 15.6669 67.5133 14.9397 67.3539 14.245C67.2007 13.5483 67.0576 12.8771 66.9328 12.1947L66.9307 12.1865C66.8404 11.6946 67.1652 11.222 67.6554 11.1313C68.0806 11.0529 68.4906 11.2871 68.6509 11.6711C68.9412 12.3638 69.1442 13.088 69.3096 13.7918C69.4771 14.4946 69.6049 15.1801 69.7815 15.7566C69.8719 16.0438 69.9764 16.2995 70.1073 16.5348C70.2413 16.767 70.4057 16.9819 70.6137 17.1887C71.0258 17.6053 71.6032 17.9567 72.204 18.3152L72.2172 18.3234C72.4486 18.4609 72.5237 18.7613 72.3867 18.9925C72.2832 19.1667 72.0873 19.2523 71.8975 19.2258Z" fill="black"/>
<path d="M73.3782 25.9636C72.5623 25.7497 71.7524 25.3474 71.0724 24.7312C70.7355 24.4236 70.432 24.0691 70.1824 23.6841C69.9307 23.3001 69.7287 22.8886 69.5684 22.474C69.2457 21.6419 69.0853 20.8006 68.9737 20.002C68.8641 19.2014 68.7991 18.4375 68.724 17.7113L68.722 17.6939C68.6702 17.1969 69.0305 16.7518 69.5258 16.7009C69.9611 16.656 70.3549 16.929 70.4797 17.3324C70.7325 18.1492 70.8431 18.9539 70.9598 19.7117C71.0734 20.4716 71.1841 21.1907 71.3708 21.8517C71.5575 22.5128 71.8234 23.1117 72.2243 23.6464C72.6191 24.1862 73.159 24.6477 73.77 25.0846L73.7832 25.0938C74.0014 25.2496 74.0521 25.5542 73.8968 25.7732C73.7761 25.9443 73.568 26.0125 73.3782 25.9636Z" fill="black"/>
<path d="M74.7402 32.7839C74.3373 32.6892 73.9394 32.5466 73.5487 32.3571C73.162 32.1636 72.7845 31.913 72.4455 31.6013C72.1076 31.2897 71.8102 30.9159 71.5798 30.5084C71.3464 30.101 71.184 29.664 71.0683 29.2322C70.839 28.3644 70.7974 27.5251 70.7821 26.7459C70.77 25.9646 70.7842 25.2343 70.7598 24.5488L70.7588 24.5244C70.7405 24.0253 71.1302 23.6056 71.6275 23.5883C72.0629 23.5731 72.4364 23.8695 72.5359 24.2789C72.7398 25.1213 72.7642 25.9402 72.7886 26.699C72.8099 27.4599 72.8221 28.1719 72.9266 28.8146C73.0301 29.4583 73.2341 30.0185 73.6035 30.5268C73.7882 30.7804 74.0074 31.0259 74.2662 31.2499C74.523 31.4781 74.8122 31.6859 75.1137 31.8998L75.1309 31.912C75.3501 32.0678 75.4019 32.3714 75.2466 32.5914C75.1299 32.7574 74.9269 32.8277 74.7402 32.7839Z" fill="black"/>
<path d="M76.4614 39.4036C76.0463 39.3069 75.6363 39.1684 75.2314 38.987C74.8315 38.7976 74.4347 38.5654 74.0704 38.2669C73.707 37.9695 73.3742 37.6079 73.1083 37.1995C72.8403 36.7931 72.6374 36.3459 72.4953 35.9018C72.2111 35.0065 72.135 34.1397 72.0721 33.3432C72.0132 32.5436 71.9655 31.8062 71.865 31.0993L71.862 31.08C71.792 30.5849 72.134 30.1276 72.6272 30.0563C73.0606 29.9942 73.4655 30.2529 73.6056 30.6522C73.9039 31.5047 74.0014 32.3756 74.0724 33.1772C74.1424 33.9808 74.185 34.7274 74.3302 35.3854C74.4743 36.0424 74.73 36.6067 75.1624 37.1231C75.3765 37.3808 75.6292 37.6263 75.9124 37.8554C76.1955 38.0866 76.5091 38.2965 76.8298 38.5165L76.846 38.5277C77.0673 38.6794 77.1241 38.982 76.9729 39.205C76.8562 39.3741 76.6502 39.4464 76.4614 39.4036Z" fill="black"/>
<path d="M74.5291 37.0772C74.5849 37.4806 74.596 37.8717 74.6052 38.2547C74.6133 38.6366 74.6113 39.0094 74.6153 39.3731C74.6194 40.0983 74.6427 40.7878 74.7483 41.4204C74.8558 42.0539 75.0416 42.6192 75.3582 43.1509C75.5165 43.4177 75.7094 43.6765 75.9387 43.9291C76.165 44.1847 76.4269 44.4282 76.7039 44.694L76.7181 44.7072C76.8684 44.8509 76.8734 45.0902 76.7293 45.24C76.6441 45.3296 76.5233 45.3673 76.4096 45.353C75.9915 45.299 75.5815 45.1697 75.1857 44.9782C74.7909 44.7867 74.4174 44.5198 74.0916 44.1919C73.7638 43.8659 73.4939 43.4748 73.2868 43.0582C73.2361 42.9543 73.1925 42.8474 73.1468 42.7404C73.1052 42.6335 73.0656 42.5255 73.0291 42.4165L72.9357 42.0885C72.9103 41.9795 72.8839 41.8695 72.8636 41.7595C72.7013 40.8775 72.7479 40.0178 72.888 39.2172C73.0362 38.4136 73.2686 37.6629 73.5812 36.9479L73.5822 36.9458C73.6928 36.6932 73.9861 36.5781 74.2378 36.6891C74.4002 36.7615 74.5057 36.9122 74.5291 37.0772Z" fill="black"/>
<path d="M76.164 51.7587C75.7489 51.6507 75.3419 51.4826 74.9512 51.2606C74.5635 51.0345 74.1931 50.7493 73.8744 50.403C73.5557 50.0577 73.2878 49.6574 73.0859 49.2306C72.8819 48.8038 72.7428 48.3536 72.6535 47.9044C72.4759 47.002 72.4972 46.1077 72.617 45.2623C72.7398 44.4159 72.957 43.6071 73.2472 42.8493C73.4258 42.3828 73.9475 42.1496 74.4133 42.3288C74.8213 42.4857 75.0507 42.9094 74.9796 43.326L74.9786 43.3311C74.8497 44.092 74.6985 44.8202 74.6061 45.5363C74.5128 46.2503 74.4712 46.949 74.5361 47.607C74.6021 48.265 74.7787 48.8762 75.1146 49.4231C75.4454 49.9752 75.9549 50.4478 76.5567 50.8807L76.5709 50.8909C76.7891 51.0477 76.8389 51.3523 76.6826 51.5713C76.5608 51.7393 76.3527 51.8065 76.164 51.7587Z" fill="black"/>
<path d="M71.1293 20.7241C70.7152 18.7746 71.6865 19.2024 71.6865 19.2024L70.6158 18.1197C70.6158 18.1197 69.4771 17.6939 69.5187 17.808C69.5593 17.9211 71.1293 20.7241 71.1293 20.7241Z" fill="black"/>
<path d="M73.3296 25.9697C72.5339 25.7558 72.8191 27.1736 72.8191 27.1736C72.8191 27.1736 71.5475 26.3374 71.58 26.2366C71.6124 26.1357 71.8093 24.5967 71.8093 24.5967L73.3296 25.9697Z" fill="black"/>
<path d="M74.7432 32.7972C74.1678 32.621 74.1211 33.4185 74.1617 33.8443C74.2023 34.269 73.5406 33.8432 73.5406 33.8432L73.3132 31.0758L74.7432 32.7972Z" fill="black"/>
<path d="M76.0607 39.3026C74.8662 38.9818 74.5495 39.7243 74.6906 40.972C73.8919 39.6326 74.2268 37.9052 74.2268 37.9052L76.0607 39.3026Z" fill="black"/>
<path d="M91.4857 57.7753C86.3616 51.5437 78.6079 47.5724 69.9297 47.5724C54.5016 47.5724 41.9952 60.1241 41.9952 75.6082C41.9952 82.3735 44.7486 88.549 48.7797 92.9329C51.5026 80.3018 62.0725 84.9596 62.0725 84.9596C49.0963 59.4142 73.4117 50.8532 82.8268 65.5235C85.7171 52.6102 91.4857 57.7753 91.4857 57.7753Z" fill="black"/>
<path d="M48.7796 94.0014C48.4924 94.0014 48.2072 93.8863 47.9971 93.6571C43.5063 88.7731 40.9305 82.1942 40.9305 75.6082C40.9305 67.8346 43.9468 60.5254 49.424 55.0282C54.9013 49.5311 62.1831 46.5039 69.9296 46.5039C77.6752 46.5039 84.9579 49.5311 90.4352 55.0282C95.9125 60.5254 98.9287 67.8336 98.9287 75.6082C98.9287 78.175 98.5959 80.7214 97.9382 83.1782C97.786 83.7475 97.2014 84.0857 96.6341 83.9329C96.0668 83.7801 95.7298 83.1934 95.8821 82.6241C96.491 80.3486 96.7995 77.9886 96.7995 75.6082C96.7995 68.405 94.0046 61.6326 88.9292 56.5388C83.8538 51.4449 77.1058 48.6398 69.9286 48.6398C62.7514 48.6398 56.0035 51.4449 50.9281 56.5388C45.8527 61.6326 43.0577 68.405 43.0577 75.6082C43.0577 81.6636 45.4275 87.7148 49.56 92.2087C49.9589 92.6426 49.9315 93.3179 49.5002 93.7182C49.2962 93.9077 49.0374 94.0014 48.7796 94.0014Z" fill="black"/>
<path d="M80.659 89.2264C81.9539 87.3319 83.7787 85.7755 85.844 84.6765C87.9133 83.5755 90.2232 82.9195 92.5838 82.7484C93.1744 82.7036 93.7681 82.7015 94.3639 82.7239C94.6612 82.7392 94.9586 82.7637 95.2559 82.7963C95.5533 82.8278 95.8496 82.8686 96.145 82.9266C96.4403 82.9806 96.7346 83.0448 97.0279 83.1202C97.3202 83.1976 97.6094 83.2882 97.8977 83.387C98.4721 83.5867 99.0353 83.8403 99.5722 84.156C100.108 84.4728 100.624 84.8425 101.076 85.304C101.306 85.528 101.514 85.7837 101.704 86.0495C101.893 86.3184 102.054 86.6118 102.189 86.9163C102.316 87.225 102.412 87.5478 102.461 87.8768C102.502 88.2068 102.507 88.5389 102.462 88.8587C102.414 89.1775 102.334 89.4872 102.208 89.7703C102.087 90.0565 101.931 90.3183 101.747 90.5556C101.676 90.6463 101.545 90.6626 101.455 90.5923C101.397 90.5475 101.37 90.4782 101.376 90.41L101.377 90.4018C101.427 89.8406 101.448 89.3211 101.376 88.8424C101.341 88.6031 101.279 88.3769 101.21 88.159C101.13 87.944 101.038 87.7383 100.924 87.5427C100.803 87.3502 100.668 87.1669 100.511 86.9968C100.35 86.8297 100.182 86.6688 99.9893 86.5283C99.6148 86.239 99.1815 86.0047 98.7288 85.8071C97.8215 85.4089 96.8168 85.1848 95.8029 85.033C95.6751 85.0157 95.5482 84.9984 95.4203 84.9841C95.2925 84.9688 95.1646 84.9505 95.0357 84.9403C94.7789 84.9138 94.5201 84.8986 94.2614 84.8853C93.7438 84.8538 93.2221 84.8527 92.6995 84.87C90.6098 84.9454 88.5141 85.3834 86.5463 86.1789C84.5733 86.9683 82.7334 88.1264 81.1055 89.6135C80.9847 89.7235 80.798 89.7153 80.6884 89.5941C80.5899 89.4902 80.5839 89.3374 80.659 89.2264Z" fill="black"/>
<path d="M61.8777 85.6543C61.6503 85.6177 61.424 85.579 61.1987 85.5382L61.0303 85.5087C60.9734 85.4995 60.9166 85.4944 60.8608 85.4873L60.5218 85.4465L60.1849 85.4027L59.8469 85.3773C59.6226 85.362 59.3983 85.3365 59.1751 85.3396L58.8412 85.3335C58.7295 85.3314 58.6189 85.3284 58.5083 85.3345C58.2881 85.3447 58.0668 85.3426 57.8476 85.361C57.6294 85.3844 57.4112 85.3987 57.196 85.4272C56.9829 85.4649 56.7678 85.4934 56.5567 85.5352C55.7133 85.7032 54.9116 85.9843 54.1788 86.3734C53.4481 86.7656 52.7823 87.2596 52.212 87.8514C51.6426 88.4442 51.1667 89.1286 50.78 89.865C50.7282 89.9547 50.6856 90.0504 50.642 90.1452L50.509 90.4283C50.4309 90.6229 50.3507 90.8164 50.2786 91.013C50.1396 91.4092 50.0117 91.8115 49.9224 92.2251C49.7357 93.0491 49.6322 93.8985 49.6291 94.7511C49.6312 95.6026 49.7144 96.4572 49.895 97.2883C50.2482 98.9526 50.9586 100.535 52.005 101.848C53.0401 103.172 54.4051 104.215 55.968 104.909C57.531 105.604 59.2806 105.961 61.0759 106.027C61.5245 106.058 61.9781 106.044 62.4318 106.045L63.1148 106.009C63.2285 106.002 63.3432 105.999 63.4568 105.99L63.7999 105.959C64.0282 105.938 64.2586 105.922 64.4869 105.895L65.174 105.803C65.2887 105.788 65.4044 105.778 65.5191 105.759L65.8631 105.702C66.0925 105.663 66.3228 105.625 66.5542 105.591L66.5847 105.586C66.9774 105.525 67.3448 105.796 67.4047 106.191C67.4585 106.542 67.2494 106.873 66.9257 106.983C65.9971 107.302 65.0502 107.593 64.0739 107.789L63.7085 107.869C63.5867 107.894 63.4629 107.91 63.3391 107.931L62.5972 108.049C62.0979 108.103 61.5986 108.171 61.0922 108.191C59.0736 108.309 56.9738 108.057 54.9948 107.309L54.6243 107.166C54.5015 107.117 54.3818 107.058 54.261 107.004L53.8987 106.839C53.7779 106.783 53.6622 106.717 53.5445 106.655L53.1924 106.465C53.0756 106.4 52.964 106.326 52.8503 106.257L52.5104 106.045C52.3977 105.973 52.2911 105.891 52.1815 105.815C51.3057 105.197 50.5141 104.455 49.825 103.631C49.141 102.802 48.5574 101.89 48.1017 100.922C47.6491 99.9518 47.3051 98.9333 47.0879 97.8903C46.8717 96.8473 46.7631 95.7829 46.7834 94.7175C46.8078 93.6531 46.9458 92.5887 47.2188 91.5528C47.4898 90.5169 47.8805 89.5045 48.4255 88.5674C48.9624 87.6273 49.6423 86.7595 50.44 86.0139C51.2448 85.2754 52.1714 84.6673 53.1629 84.2334C54.1534 83.7955 55.2049 83.5316 56.2512 83.4247C57.2996 83.3228 58.3408 83.3585 59.3486 83.5164C59.6023 83.5459 59.8499 83.604 60.0986 83.6529L60.47 83.7282L60.8354 83.824C61.3236 83.9462 61.7975 84.1071 62.2674 84.2691C62.6429 84.3984 62.8438 84.8079 62.7149 85.1858C62.5992 85.524 62.2593 85.7205 61.9193 85.6645L61.8777 85.6543Z" fill="black"/>
<path d="M75.333 113.86C75.0417 114.129 74.7119 114.362 74.3547 114.56C73.9974 114.759 73.6138 114.913 73.2271 115.03C72.8394 115.147 72.4487 115.232 72.06 115.289C71.6713 115.348 71.2846 115.38 70.901 115.402L71.581 114.523C71.6033 114.658 71.6449 114.792 71.7078 114.921C71.7687 115.053 71.8489 115.181 71.9474 115.301C72.1422 115.546 72.4061 115.76 72.7055 115.93C73.0059 116.099 73.3438 116.224 73.699 116.298C74.0553 116.372 74.4277 116.391 74.8114 116.363L74.8266 116.362C75.0336 116.346 75.2143 116.502 75.2305 116.71C75.2427 116.874 75.1483 117.022 75.0062 117.085C74.5749 117.274 74.0959 117.37 73.6107 117.374C73.1256 117.377 72.6334 117.29 72.1676 117.104C71.7017 116.921 71.2603 116.639 70.8909 116.252C70.7082 116.057 70.5448 115.836 70.4118 115.592C70.2809 115.346 70.1815 115.076 70.1246 114.795L69.9633 113.991L70.8046 113.916L71.8783 113.821C72.2315 113.785 72.5786 113.747 72.9196 113.694C73.2606 113.642 73.5955 113.581 73.9314 113.497C74.2674 113.414 74.6074 113.31 74.9666 113.208L74.9727 113.206C75.1757 113.149 75.3868 113.267 75.4446 113.471C75.4822 113.617 75.4355 113.765 75.333 113.86Z" fill="black"/>
<path d="M83.1535 111.286C81.5013 111.449 79.5121 110.971 77.048 109.846C74.5839 108.722 73.5568 107.516 73.2574 106.514C72.7601 104.854 76.9039 104.405 79.368 105.528C81.8311 106.654 83.869 109.709 83.1535 111.286Z" fill="#808080"/>
<path d="M75.6099 116.813C75.0416 117.091 74.5128 117.428 74.0581 117.831C73.6025 118.231 73.227 118.698 72.955 119.209C72.683 119.719 72.5145 120.273 72.4455 120.837C72.411 121.12 72.4008 121.405 72.414 121.686C72.4211 121.827 72.4333 121.966 72.4526 122.102C72.4617 122.17 72.4729 122.236 72.4851 122.3L72.5054 122.393L72.5155 122.435L72.5206 122.453C72.5226 122.459 72.5236 122.463 72.5236 122.456L71.7462 121.707C72.34 121.752 72.9286 121.812 73.5121 121.862C74.0967 121.911 74.6772 121.956 75.2526 121.981C76.4015 122.028 77.5432 122.024 78.6048 121.772C79.1356 121.651 79.645 121.475 80.1149 121.221C80.5889 120.975 81.0242 120.651 81.4129 120.26C82.1984 119.481 82.783 118.442 83.262 117.343L83.2631 117.342C83.329 117.19 83.5056 117.121 83.6578 117.187C83.7888 117.245 83.8588 117.386 83.8314 117.522C83.7086 118.135 83.5411 118.748 83.3016 119.346C83.0662 119.945 82.7546 120.529 82.3558 121.07C81.9559 121.608 81.4627 122.095 80.9025 122.491C80.3412 122.886 79.7191 123.186 79.0838 123.411C78.4454 123.631 77.7939 123.773 77.1464 123.868C76.4979 123.963 75.8504 123.999 75.21 124C74.5696 123.998 73.9353 123.96 73.3102 123.886C72.684 123.816 72.0659 123.712 71.458 123.571L70.773 123.413L70.6806 122.823C70.6766 122.795 70.6745 122.78 70.6725 122.765L70.6685 122.722L70.6613 122.641C70.6573 122.589 70.6553 122.538 70.6532 122.489C70.6492 122.389 70.6482 122.292 70.6492 122.195C70.6512 122.002 70.6634 121.812 70.6816 121.623C70.7202 121.246 70.7892 120.874 70.8907 120.512C71.0906 119.786 71.4215 119.098 71.864 118.502C72.3065 117.906 72.8545 117.407 73.4523 117.021C74.05 116.633 74.6924 116.35 75.344 116.143C75.5338 116.083 75.7367 116.188 75.7976 116.378C75.8524 116.551 75.7702 116.736 75.6119 116.813H75.6099Z" fill="black"/>
<path d="M83.3282 119.397C83.3901 119.485 83.4703 119.557 83.5738 119.622C83.6773 119.688 83.8001 119.744 83.9361 119.789C84.0711 119.835 84.2182 119.87 84.3674 119.896C84.4425 119.909 84.5186 119.919 84.5937 119.927C84.6313 119.931 84.6688 119.933 84.7054 119.935L84.7581 119.937C84.7723 119.937 84.7977 119.939 84.7957 119.934L84.0802 120.139L84.2598 119.96L84.4455 119.769C84.5694 119.64 84.6911 119.508 84.8119 119.375C85.0524 119.108 85.2869 118.834 85.5132 118.556C85.9628 117.996 86.3799 117.414 86.7493 116.813C87.1177 116.213 87.4333 115.589 87.6657 114.958C87.8941 114.329 88.0392 113.687 88.0321 113.088C88.0321 112.937 88.0138 112.792 87.9895 112.65C87.958 112.51 87.9235 112.372 87.8738 112.242C87.7774 111.981 87.6657 111.738 87.5348 111.495C87.4059 111.251 87.2425 111.013 87.0416 110.79C86.9919 110.734 86.9421 110.678 86.8853 110.625C86.8305 110.571 86.7777 110.516 86.7168 110.465C86.6164 110.374 86.4438 110.226 86.2977 110.089C85.9993 109.808 85.7131 109.509 85.4472 109.186C85.1844 108.86 84.9398 108.509 84.7368 108.127C84.5349 107.745 84.3694 107.33 84.2832 106.886C84.2395 106.665 84.2152 106.436 84.2192 106.204C84.2213 106.088 84.2294 105.97 84.2487 105.85C84.2578 105.791 84.27 105.731 84.2842 105.669C84.2913 105.638 84.2994 105.607 84.3096 105.574L84.3248 105.523L84.3481 105.454C84.4263 105.201 84.6952 105.059 84.9479 105.137C85.2006 105.216 85.3417 105.486 85.2635 105.739C85.2686 105.726 85.2676 105.733 85.2686 105.732C85.2696 105.732 85.2696 105.736 85.2696 105.738L85.2706 105.757L85.2737 105.8C85.2767 105.832 85.2798 105.865 85.2848 105.899C85.296 105.967 85.3082 106.038 85.3265 106.108C85.363 106.249 85.4158 106.389 85.4787 106.528C85.6086 106.803 85.7811 107.065 85.9871 107.311C86.1942 107.556 86.4225 107.79 86.6783 108.005C86.931 108.222 87.1989 108.427 87.4831 108.617C87.7388 108.777 88.1356 109.059 88.4573 109.358C88.7872 109.663 89.0957 110.014 89.3504 110.415C89.6052 110.814 89.7747 111.275 89.8629 111.741C89.9543 112.207 89.9654 112.674 89.9502 113.124C89.9198 114.028 89.6843 114.864 89.3758 115.63C89.0632 116.397 88.6644 117.098 88.2331 117.764C87.7987 118.429 87.3217 119.052 86.8173 119.646C86.5656 119.944 86.3068 120.234 86.0409 120.519C85.908 120.66 85.772 120.801 85.634 120.939L85.4239 121.147C85.3508 121.217 85.2849 121.282 85.2006 121.359L84.8911 121.645L84.4851 121.565C84.4374 121.551 84.4181 121.543 84.3867 121.532L84.3055 121.501C84.2527 121.479 84.201 121.458 84.1502 121.434C84.0487 121.389 83.9493 121.341 83.8508 121.288C83.655 121.183 83.4632 121.065 83.2784 120.923C83.0948 120.782 82.9161 120.617 82.7619 120.416C82.6076 120.216 82.4797 119.971 82.4209 119.707C82.363 119.449 82.5254 119.192 82.7832 119.135C82.977 119.092 83.1688 119.173 83.2764 119.326L83.3282 119.397Z" fill="black"/>
<path d="M64.1834 103.134C64.8421 103.413 65.4408 103.806 65.9868 104.242C66.5339 104.678 67.0342 105.157 67.5041 105.649C67.975 106.14 68.4236 106.641 68.8681 107.135C69.3126 107.629 69.752 108.118 70.1945 108.592C71.0825 109.539 72.001 110.421 72.9976 111.16C73.4959 111.529 74.0084 111.869 74.5412 112.165C74.8081 112.313 75.074 112.459 75.3481 112.589C75.6221 112.719 75.8991 112.843 76.1782 112.959C76.4583 113.073 76.7425 113.181 77.0307 113.275C77.3179 113.373 77.6092 113.461 77.9035 113.539C78.4911 113.694 79.0991 113.819 79.71 113.902C80.9309 114.068 82.1751 114.103 83.3798 113.961C83.9806 113.889 84.5713 113.777 85.1274 113.607C85.6815 113.437 86.2052 113.21 86.6264 112.922C86.7299 112.85 86.8273 112.775 86.9167 112.697C87.0039 112.619 87.0841 112.538 87.1552 112.457C87.2932 112.292 87.3916 112.125 87.4464 111.951C87.5012 111.776 87.5215 111.592 87.4962 111.384C87.4748 111.177 87.4068 110.949 87.3054 110.717L87.2942 110.691C87.0821 110.203 87.3033 109.635 87.7895 109.421C88.2563 109.217 88.7982 109.416 89.0286 109.864C89.2154 110.229 89.3747 110.634 89.4508 111.086C89.529 111.534 89.5168 112.028 89.395 112.495C89.2742 112.964 89.0469 113.39 88.7759 113.746C88.6389 113.923 88.4928 114.086 88.3385 114.235C88.1832 114.382 88.0229 114.515 87.8595 114.639C87.2008 115.124 86.4995 115.444 85.7952 115.683C85.0899 115.919 84.3785 116.077 83.667 116.177C82.2431 116.374 80.8172 116.361 79.4126 116.185C78.7093 116.097 78.0152 115.967 77.321 115.788C76.6278 115.614 75.9458 115.381 75.2851 115.096C74.6234 114.814 73.9902 114.465 73.3863 114.08C72.7875 113.686 72.2151 113.257 71.6864 112.789C71.1536 112.323 70.6583 111.825 70.1905 111.314C69.7236 110.802 69.2872 110.27 68.8691 109.734C68.0308 108.666 67.2859 107.561 66.4892 106.538C66.0893 106.029 65.6834 105.533 65.2419 105.084C64.8004 104.637 64.3224 104.237 63.7957 103.92L63.7906 103.917C63.5826 103.792 63.5156 103.522 63.6404 103.313C63.7511 103.123 63.9855 103.05 64.1834 103.134Z" fill="black"/>
<path d="M71.6347 94.4138C71.3485 94.367 71.0735 94.3242 70.7984 94.2987C70.5244 94.2733 70.2535 94.26 69.9865 94.2631C69.4537 94.2672 68.9412 94.3324 68.4602 94.4709C67.9791 94.6104 67.5295 94.8192 67.1013 95.1055C66.8871 95.2491 66.677 95.41 66.47 95.5893C66.2619 95.7696 66.062 95.9682 65.8428 96.1729L65.8266 96.1882C65.6601 96.344 65.3993 96.3349 65.244 96.1678C65.1456 96.0619 65.1131 95.9142 65.1456 95.7828C65.2288 95.4548 65.3638 95.1401 65.5353 94.8386C65.7088 94.5391 65.926 94.259 66.1777 94.0054C66.6801 93.4981 67.3337 93.1182 68.0299 92.9277C68.7261 92.7332 69.4527 92.7159 70.1347 92.8463C70.8147 92.9797 71.4652 93.2496 71.994 93.6947C72.1675 93.8404 72.1898 94.1001 72.0447 94.2743C71.9483 94.3894 71.8032 94.4383 71.6662 94.4159L71.6347 94.4138Z" fill="black"/>
<path d="M72.3969 106.311C72.9856 105.83 73.7173 105.535 74.4734 105.406C75.2305 105.28 76.0241 105.325 76.7711 105.555C77.518 105.782 78.2173 106.207 78.747 106.787C79.2788 107.366 79.632 108.086 79.7731 108.823C79.7984 108.955 79.7122 109.082 79.5813 109.108C79.4737 109.128 79.3691 109.074 79.3214 108.981L79.3194 108.976C79.0038 108.366 78.6222 107.824 78.1411 107.398C77.6642 106.972 77.0989 106.661 76.4889 106.471C75.879 106.28 75.2254 106.21 74.5738 106.252C73.9203 106.291 73.2718 106.449 72.6496 106.717L72.6446 106.719C72.5218 106.772 72.3797 106.715 72.3279 106.592C72.2843 106.492 72.3157 106.377 72.3969 106.311Z" fill="black"/>
<path d="M82.914 111.453C82.8034 110.847 82.6745 110.264 82.4583 109.723C82.2493 109.182 81.9671 108.681 81.6028 108.27C81.2384 107.862 80.7949 107.542 80.2895 107.379C79.7841 107.214 79.2229 107.209 78.6454 107.342H78.6434C78.5125 107.371 78.3826 107.29 78.3532 107.158C78.3298 107.054 78.3765 106.95 78.4618 106.897C78.75 106.717 79.0808 106.596 79.4289 106.531C79.777 106.472 80.1444 106.47 80.4996 106.542C81.2161 106.682 81.8565 107.102 82.3203 107.633C82.7892 108.166 83.0967 108.806 83.2692 109.461C83.4407 110.118 83.4793 110.794 83.394 111.446C83.3768 111.58 83.255 111.672 83.1231 111.655C83.0165 111.641 82.9353 111.559 82.917 111.459L82.914 111.453Z" fill="black"/>
<path d="M69.5125 94.0615C69.8606 95.1524 70.1245 96.2341 70.4026 97.2995C70.6735 98.3649 70.9536 99.415 71.2652 100.445C71.5839 101.472 71.9279 102.482 72.3511 103.445C72.7723 104.409 73.2534 105.337 73.84 106.179C74.9908 107.878 76.5781 109.23 78.4982 109.998L78.6758 110.075C78.7357 110.1 78.7976 110.118 78.8585 110.139L79.2269 110.265C79.3507 110.304 79.4715 110.354 79.5984 110.385L79.9779 110.483L80.3585 110.584C80.4854 110.617 80.6163 110.634 80.7462 110.66L81.1359 110.732C81.2658 110.756 81.3957 110.784 81.5287 110.795L82.3233 110.892C82.5892 110.922 82.8581 110.924 83.1271 110.945L83.531 110.971L83.937 110.972L84.7529 110.981H84.7742C84.966 110.983 85.1203 111.141 85.1183 111.334C85.1162 111.507 84.9894 111.65 84.824 111.675L83.9887 111.806C83.8487 111.826 83.7086 111.848 83.5686 111.866L83.1443 111.901L82.7191 111.934C82.577 111.942 82.4349 111.961 82.2929 111.958L81.4343 111.963C81.2902 111.967 81.1471 111.951 81.004 111.942L80.5726 111.911C80.4285 111.897 80.2834 111.894 80.1403 111.873L79.709 111.809L79.2766 111.742C79.1325 111.719 78.9915 111.676 78.8484 111.645L78.4201 111.541C78.349 111.523 78.277 111.508 78.2059 111.487L77.9959 111.419C76.8663 111.08 75.7834 110.534 74.8102 109.834C73.843 109.125 72.9925 108.262 72.2801 107.314C71.5717 106.362 70.9821 105.338 70.498 104.282C70.0159 103.224 69.617 102.142 69.2892 101.051C68.9543 99.962 68.6864 98.864 68.4378 97.7762C68.1952 96.6884 67.9709 95.6077 67.7314 94.5616L67.7294 94.5514C67.6157 94.0523 67.9263 93.5543 68.4236 93.4392C68.8965 93.3312 69.3674 93.6093 69.5125 94.0615Z" fill="black"/>
<path d="M69.9287 93.7488C70.1184 94.4536 70.3864 95.1381 70.7213 95.791C71.0572 96.4439 71.4642 97.0652 71.9249 97.6478C72.8434 98.8181 73.976 99.8398 75.2263 100.703C77.732 102.43 80.6711 103.586 83.6914 104.129C84.4475 104.263 85.2086 104.361 85.9718 104.411L86.5442 104.44L87.1156 104.451L87.686 104.447C87.8757 104.442 88.0645 104.431 88.2543 104.423C89.7644 104.33 91.2593 104.054 92.6132 103.476C93.2881 103.187 93.9264 102.827 94.4978 102.38C95.0702 101.936 95.5634 101.398 95.9795 100.796C96.1886 100.495 96.3632 100.17 96.5316 99.8367C96.6098 99.6676 96.6798 99.4934 96.7549 99.3213C96.8148 99.1431 96.8858 98.9669 96.9437 98.7855C97.171 98.0573 97.31 97.2872 97.3912 96.4958V96.4928C97.4075 96.3379 97.5455 96.2249 97.6998 96.2402C97.8307 96.2534 97.9322 96.3563 97.9494 96.4816C98.0671 97.3066 98.0803 98.1602 97.9585 99.0127C97.9271 99.2256 97.8845 99.4374 97.8449 99.6513C97.7891 99.8611 97.7363 100.073 97.6734 100.282L97.5668 100.592C97.5303 100.696 97.4978 100.801 97.4501 100.901C97.3588 101.102 97.2796 101.309 97.17 101.501C96.7661 102.29 96.2109 103.01 95.5624 103.622C94.9078 104.227 94.167 104.73 93.3835 105.128C91.8135 105.929 90.0993 106.33 88.4004 106.471C86.6975 106.62 84.9945 106.512 83.3301 106.238C81.6657 105.958 80.0328 105.508 78.4617 104.89C76.8927 104.266 75.3796 103.48 73.9821 102.499C72.5856 101.52 71.2927 100.356 70.227 98.973C69.1695 97.5908 68.3404 95.9835 67.9354 94.2509C67.8055 93.6968 68.1486 93.1417 68.7007 93.0124C69.2406 92.885 69.7815 93.212 69.9266 93.7447L69.9287 93.7488Z" fill="black"/>
<path d="M64.6198 79.2659C64.5823 78.8513 64.5447 78.4357 64.5376 78.0181C64.5295 77.8093 64.5275 77.6005 64.5244 77.3917C64.5254 77.1829 64.5335 76.9731 64.5376 76.7633C64.567 75.925 64.6432 75.0837 64.7863 74.2454L64.839 73.9306L64.903 73.6169C64.9466 73.4081 64.9862 73.1983 65.042 72.9915C65.0958 72.7837 65.1445 72.5749 65.2034 72.3692L65.3921 71.7519C65.6621 70.932 66.0011 70.1263 66.4172 69.3543C66.6232 68.9672 66.8556 68.5924 67.1002 68.2257C67.3468 67.86 67.6188 67.5096 67.9019 67.1684C68.4774 66.4952 69.1319 65.884 69.8474 65.3656C70.2016 65.1008 70.5792 64.8716 70.9597 64.6536C71.3464 64.4448 71.7371 64.2492 72.1421 64.0893C72.342 64.0048 72.548 63.9365 72.751 63.8622L73.0595 63.7654C73.162 63.7328 73.2655 63.7023 73.3701 63.6768C73.7831 63.5607 74.2053 63.4833 74.6255 63.4222C74.9492 63.3753 75.2486 63.6014 75.2943 63.9253C75.3318 64.1881 75.1918 64.4356 74.9654 64.5446L74.9533 64.5497C73.5395 65.2291 72.2476 66.0124 71.1627 67.0095C70.0707 67.9955 69.1817 69.1709 68.4723 70.4747C68.1161 71.1265 67.8075 71.81 67.5315 72.5159C67.2595 73.2227 67.0241 73.952 66.816 74.6966C66.3887 76.1847 66.1005 77.7339 65.79 79.3137L65.7869 79.327C65.724 79.6478 65.4134 79.8566 65.0927 79.7935C64.8299 79.7415 64.6432 79.5205 64.6198 79.2659Z" fill="#E0DBD3"/>
<path d="M101.826 89.5624C102.544 90.0096 103.191 90.5963 103.727 91.2828C104.259 91.9724 104.676 92.7597 104.95 93.597C105.507 95.2715 105.518 97.1131 105.013 98.8283C104.756 99.6859 104.36 100.514 103.817 101.265C103.542 101.638 103.227 101.988 102.872 102.304C102.517 102.62 102.122 102.902 101.69 103.126C101.26 103.352 100.797 103.528 100.319 103.632C99.8411 103.736 99.351 103.776 98.8709 103.756C97.9078 103.709 97.0015 103.429 96.2099 103.018C95.7197 102.763 95.5289 102.158 95.7827 101.666C96.0171 101.212 96.5499 101.013 97.0157 101.186L97.0381 101.194C97.6774 101.432 98.3158 101.583 98.9278 101.575C99.2332 101.577 99.5326 101.541 99.8198 101.468C100.108 101.398 100.387 101.292 100.651 101.148C101.177 100.859 101.664 100.449 102.056 99.9284C102.457 99.417 102.773 98.8141 103.001 98.1713C103.236 97.5296 103.369 96.8431 103.418 96.1505C103.467 95.4569 103.411 94.7551 103.267 94.0706C103.116 93.3882 102.872 92.722 102.517 92.1068C102.168 91.4875 101.712 90.9233 101.182 90.4109L101.174 90.4028C100.962 90.197 100.955 89.8578 101.16 89.6439C101.337 89.4606 101.616 89.4321 101.826 89.5624Z" fill="black"/>
<path d="M91.4257 91.2685C92.3943 91.2685 93.1794 90.689 93.1794 89.974C93.1794 89.259 92.3943 88.6794 91.4257 88.6794C90.4572 88.6794 89.672 89.259 89.672 89.974C89.672 90.689 90.4572 91.2685 91.4257 91.2685Z" fill="black"/>
<path d="M94.0147 89.974C94.0147 90.3509 93.8838 90.7196 93.694 91.0018C93.5042 91.287 93.2637 91.4978 93.0151 91.6587C92.5137 91.9765 91.9636 92.1028 91.4258 92.1089C90.8879 92.1059 90.3358 91.9847 89.8304 91.6679C89.5797 91.508 89.3382 91.2961 89.1474 91.0089C88.9566 90.7257 88.8267 90.3539 88.8267 89.974C88.8257 89.5941 88.9545 89.2223 89.1443 88.9371C89.3351 88.6489 89.5756 88.434 89.8273 88.274C90.3348 87.9563 90.8869 87.833 91.4268 87.83C91.9657 87.835 92.5178 87.9613 93.0222 88.2812C93.2718 88.4421 93.5123 88.656 93.7011 88.9432C93.8889 89.2264 94.0167 89.5972 94.0147 89.974ZM92.3452 89.974C92.3422 89.9475 92.3361 89.9221 92.3026 89.8722C92.2701 89.8233 92.2072 89.7611 92.1189 89.7072C91.9423 89.5961 91.6856 89.5299 91.4258 89.5289C91.1659 89.531 90.9102 89.6012 90.7367 89.7143C90.6504 89.7693 90.5885 89.8304 90.557 89.8783C90.5256 89.9272 90.5205 89.9506 90.5174 89.975C90.5195 89.9985 90.5225 90.0239 90.554 90.0738C90.5844 90.1227 90.6463 90.1859 90.7326 90.2419C90.9072 90.356 91.1639 90.4273 91.4247 90.4303C91.6856 90.4303 91.9454 90.3641 92.123 90.2511C92.2123 90.1971 92.2742 90.1309 92.3067 90.081C92.3402 90.028 92.3442 90.0005 92.3452 89.974Z" fill="black"/>
<path d="M101.786 89.1019C101.786 89.6683 101.172 89.8791 100.801 89.8791C100.035 89.8791 99.6595 89.6683 99.6595 89.1019C99.6595 88.5356 100.127 88.2311 100.894 88.2311C101.467 88.2311 101.786 88.5356 101.786 89.1019Z" fill="black"/>
<path d="M102.413 89.102C102.415 89.3312 102.346 89.596 102.208 89.8048C102.071 90.0157 101.889 90.1624 101.715 90.2642C101.537 90.3671 101.359 90.4292 101.178 90.4679C101.086 90.4873 100.994 90.5015 100.896 90.5066C100.782 90.5117 100.728 90.5087 100.648 90.5077C100.497 90.5026 100.339 90.4903 100.165 90.4557C99.9924 90.4201 99.7955 90.364 99.5894 90.2286C99.4869 90.1613 99.3855 90.0717 99.3012 89.9648C99.216 89.8588 99.153 89.7366 99.1104 89.6195C99.0678 89.5023 99.0455 89.3883 99.0343 89.2844C99.0231 89.1795 99.0211 89.0878 99.0292 88.9778C99.0434 88.7649 99.1114 88.5245 99.2444 88.3198C99.3763 88.114 99.56 87.9572 99.7407 87.8553C99.9223 87.7524 100.103 87.6924 100.273 87.6547C100.445 87.617 100.608 87.5997 100.766 87.5946L100.883 87.5925C100.925 87.5925 100.973 87.5946 101.017 87.5966C101.11 87.6027 101.204 87.6139 101.304 87.6353C101.5 87.6781 101.72 87.7647 101.911 87.9236C102.103 88.0804 102.246 88.3004 102.319 88.5103C102.393 88.7221 102.413 88.9218 102.413 89.102ZM101.158 89.102C101.157 89.0287 101.146 88.9706 101.134 88.9411C101.121 88.9116 101.117 88.9136 101.112 88.9085C101.108 88.9044 101.085 88.8922 101.035 88.881C101.01 88.8759 100.979 88.8718 100.944 88.8698L100.887 88.8688L100.814 88.8708C100.624 88.8769 100.451 88.9197 100.374 88.9686C100.334 88.992 100.321 89.0073 100.315 89.0165C100.309 89.0256 100.302 89.0368 100.298 89.0766C100.296 89.0929 100.296 89.1295 100.299 89.1509C100.301 89.1733 100.304 89.1856 100.305 89.1876C100.309 89.1917 100.284 89.1601 100.289 89.1682C100.295 89.1744 100.345 89.1978 100.42 89.2131C100.495 89.2294 100.59 89.2395 100.693 89.2436C100.819 89.2477 100.846 89.2477 100.921 89.2334C100.987 89.2202 101.052 89.1968 101.095 89.1723C101.139 89.1489 101.156 89.1255 101.157 89.1214C101.157 89.1194 101.157 89.1275 101.158 89.102Z" fill="black"/>
<path d="M97.3841 96.8289C97.3475 95.8603 97.241 94.8936 97.0187 93.9657C96.7944 93.0409 96.4636 92.1445 95.9643 91.3827C95.4619 90.6269 94.7951 90.0158 94.0096 89.6888C93.6169 89.5279 93.2038 89.4199 92.7826 89.3863C92.5726 89.369 92.3615 89.3639 92.1534 89.3781C91.9484 89.3904 91.7343 89.4219 91.5688 89.4667C91.1416 89.5839 90.7021 89.3313 90.5854 88.9025C90.4687 88.4737 90.7204 88.0316 91.1477 87.9155C91.1852 87.9053 91.2218 87.8982 91.2593 87.8931L91.2837 87.89C91.6023 87.8523 91.8784 87.8523 92.1636 87.8676C92.4457 87.8829 92.7238 87.9226 92.9988 87.9797C93.5479 88.0886 94.0786 88.2873 94.5678 88.5551C95.0549 88.8261 95.4954 89.1744 95.8699 89.5706C96.2454 89.9679 96.5539 90.414 96.8056 90.8795C97.0593 91.345 97.2471 91.8329 97.4044 92.3248L97.513 92.6956C97.5465 92.8199 97.5729 92.9451 97.6023 93.0694C97.6662 93.3169 97.7017 93.5695 97.7504 93.818C97.7941 94.0676 97.8205 94.3192 97.856 94.5687C97.8783 94.8193 97.9017 95.0699 97.9199 95.3204C97.9311 95.571 97.9473 95.8205 97.9555 96.0711L97.9656 96.8197C97.9676 96.9807 97.8387 97.1131 97.6784 97.1161C97.5201 97.1182 97.3902 96.9929 97.3841 96.835V96.8289Z" fill="black"/>
<path d="M97.384 96.835L97.3506 96.2085L97.3262 95.5801L97.311 94.9506C97.311 94.7398 97.3059 94.53 97.311 94.3191C97.316 93.8974 97.3282 93.4737 97.3587 93.049C97.3911 92.6232 97.4358 92.1975 97.5058 91.7686C97.6479 90.9141 97.8742 90.0412 98.3675 89.2141C98.4903 89.0083 98.6374 88.8107 98.8008 88.6213C98.9662 88.4329 99.155 88.2597 99.361 88.1039C99.566 87.948 99.7903 87.8136 100.024 87.7046C100.257 87.5966 100.498 87.5121 100.735 87.4459L100.762 87.4387C101.189 87.3206 101.63 87.5732 101.747 88.002C101.864 88.4308 101.613 88.8739 101.186 88.991C101.144 89.0022 101.097 89.0114 101.055 89.0155C100.721 89.0501 100.423 89.1357 100.148 89.2864C99.8725 89.4361 99.6239 89.6572 99.4057 89.9301C99.1844 90.2011 99.0038 90.528 98.8495 90.8754C98.6953 91.2227 98.5694 91.5945 98.4629 91.9754C98.2568 92.7414 98.1351 93.546 98.0569 94.3568C98.0366 94.5595 98.0265 94.7642 98.0102 94.9679L97.9788 95.5811L97.9656 96.1963L97.9666 96.8126V96.8176C97.9666 96.9786 97.8367 97.11 97.6763 97.11C97.52 97.112 97.3922 96.9898 97.384 96.835Z" fill="black"/>
<path d="M64.628 79.3872C64.5052 78.9492 64.3753 78.5102 64.288 78.061C64.2403 77.8369 64.1987 77.6118 64.155 77.3857C64.1124 77.1596 64.0901 76.9304 64.0566 76.7022C63.9876 76.2459 63.9663 75.7825 63.9348 75.319C63.9267 75.0868 63.9257 74.8535 63.9247 74.6203C63.9247 74.5032 63.9206 74.387 63.9247 74.2699L63.9409 73.9185L63.9602 73.5671L63.9703 73.3909L63.9886 73.2157C64.0119 72.9814 64.0414 72.7472 64.0688 72.5129L64.1875 71.8121L64.219 71.6369L64.2596 71.4628L64.3418 71.1154C64.5691 70.1906 64.8959 69.281 65.3282 68.4152L65.4957 68.0934C65.5525 67.9864 65.6073 67.8784 65.6733 67.7756L65.8621 67.4639C65.926 67.36 65.9859 67.2551 66.0579 67.1563L66.267 66.8568C66.337 66.757 66.406 66.6572 66.4842 66.5625L66.7125 66.2762L66.8272 66.1336C66.8668 66.0868 66.9084 66.042 66.95 65.9961C67.6016 65.2658 68.3546 64.615 69.203 64.1057C69.4111 63.9733 69.6364 63.8653 69.8546 63.7482L70.1956 63.5954L70.3661 63.52C70.4229 63.4956 70.4828 63.4762 70.5416 63.4548C71.0054 63.2735 71.4956 63.1533 71.9889 63.0678C72.4892 63.0016 72.9946 62.972 73.501 63.0281C74.0064 63.0851 74.5058 63.2134 74.9685 63.4243C75.2649 63.5597 75.3948 63.9101 75.2598 64.2065C75.1502 64.4479 74.8995 64.5793 74.6509 64.5477L74.6103 64.5427C74.2317 64.4948 73.8542 64.4989 73.4817 64.5355C73.3874 64.5498 73.295 64.564 73.2027 64.5753C73.1103 64.5875 73.0169 64.615 72.9256 64.6333L72.7876 64.6628C72.7419 64.6751 72.6962 64.6893 72.6506 64.7026C72.5592 64.7301 72.4689 64.7555 72.3786 64.7841C72.2 64.8543 72.0203 64.9063 71.8468 64.9929C71.7595 65.0326 71.6722 65.0672 71.586 65.109L71.3312 65.2424C71.246 65.2842 71.1628 65.3341 71.0805 65.384L70.8339 65.5317L70.5964 65.6967C70.5163 65.7507 70.4361 65.8016 70.361 65.8637C69.1239 66.7947 68.1313 68.0536 67.4158 69.4715C67.0566 70.1814 66.7673 70.9331 66.5339 71.7092C66.4121 72.0963 66.3238 72.4946 66.2254 72.8928C66.1868 73.0945 66.1503 73.2962 66.1087 73.4989L66.0782 73.6506L66.0559 73.8044L66.0112 74.112L65.9635 74.4196C65.9483 74.5225 65.9412 74.6264 65.929 74.7303L65.8621 75.3537C65.8397 75.7723 65.7941 76.1919 65.79 76.6157C65.7839 76.8275 65.7707 77.0404 65.7697 77.2533C65.7697 77.4662 65.7707 77.6801 65.7677 77.895C65.7606 78.1099 65.7707 78.3248 65.7768 78.5397C65.7788 78.7557 65.7859 78.9716 65.7839 79.1906V79.2313C65.7809 79.5573 65.515 79.819 65.1902 79.816C64.9202 79.816 64.697 79.6336 64.628 79.3872Z" fill="black"/>
<path d="M86.1465 64.6495C86.2297 63.5973 86.66 62.5452 87.3572 61.6804C88.0555 60.8177 89.0267 60.1404 90.1451 59.8277C90.7023 59.6708 91.296 59.6087 91.8897 59.6627C92.4813 59.7197 93.074 59.8928 93.5947 60.1933C94.1153 60.4938 94.5588 60.9094 94.8836 61.382C95.2083 61.8546 95.4245 62.3751 95.529 62.9017C95.5818 63.1665 95.4103 63.4252 95.1454 63.4772C94.9546 63.5148 94.7669 63.4364 94.6583 63.2887L94.643 63.2683C94.3751 62.9047 94.1011 62.5818 93.7966 62.3252C93.4942 62.0665 93.1704 61.8709 92.8305 61.7395C92.1485 61.4838 91.3944 61.4787 90.6556 61.6784C89.9167 61.8801 89.2084 62.2875 88.6045 62.8406C87.9925 63.3926 87.4983 64.0934 87.071 64.9001L87.0619 64.9174C86.936 65.1557 86.6407 65.2464 86.4032 65.1201C86.2267 65.0254 86.1313 64.8369 86.1465 64.6495Z" fill="black"/>
<path d="M63.2884 87.3206C62.306 86.2766 61.4545 85.1124 60.7126 83.8749C59.9698 82.6373 59.3517 81.3173 58.8706 79.9422C58.3886 78.5682 58.0202 77.1452 57.7939 75.6928C57.5686 74.2393 57.5006 72.7542 57.6061 71.2743C57.7147 69.7953 57.9968 68.3184 58.4901 66.9067C58.9792 65.4949 59.6612 64.1423 60.5401 62.9231C61.418 61.7049 62.4826 60.614 63.7025 59.7279C64.9224 58.8427 66.2935 58.1572 67.7478 57.7396C69.2001 57.321 70.7315 57.1641 72.2366 57.2955C73.7416 57.4249 75.2163 57.8293 76.5742 58.4598C77.9331 59.0892 79.1773 59.9336 80.2795 60.9155C80.8326 61.4044 81.3512 61.929 81.8373 62.478C82.0819 62.7509 82.3153 63.0341 82.5437 63.3193C82.6584 63.4619 82.768 63.6075 82.8796 63.7522L83.042 63.9722L83.1232 64.0822L83.1638 64.1372L83.1739 64.1515C83.1759 64.1545 83.1719 64.1474 83.1709 64.1464L83.1587 64.1311C83.1232 64.0883 83.0613 64.0445 82.9963 64.0241C82.9314 64.0028 82.8684 64.0017 82.8106 64.014C82.7527 64.0262 82.6969 64.0537 82.6472 64.0995C82.5975 64.1443 82.5589 64.2105 82.5437 64.2645L82.5386 64.2839L82.5366 64.293C82.5356 64.2981 82.5356 64.3002 82.5376 64.291L82.5498 64.2238L82.5751 64.0903L82.6259 63.8235C82.6634 63.6452 82.6979 63.467 82.7385 63.2898C82.8958 62.5788 83.0876 61.8709 83.3231 61.1701C83.5616 60.4704 83.8427 59.7778 84.1989 59.1065C84.5552 58.4363 84.9834 57.7834 85.5386 57.1978C85.8146 56.9054 86.1272 56.6335 86.4773 56.3972C86.8254 56.1598 87.2192 55.9643 87.6424 55.8319C88.0656 55.7005 88.5193 55.6404 88.9678 55.6607C89.4164 55.6811 89.8538 55.7809 90.2578 55.9368C90.6607 56.0936 91.0311 56.3024 91.365 56.5428C91.7009 56.7822 92.0013 57.0531 92.2743 57.3404C92.8213 57.9148 93.2608 58.5545 93.6312 59.2155C93.8616 59.627 93.7154 60.1485 93.3054 60.3787C92.8954 60.6099 92.3768 60.4633 92.1464 60.0518V60.0507V60.0497C91.8318 59.4865 91.4665 58.9619 91.0453 58.5209C90.6262 58.0798 90.1471 57.7233 89.6468 57.5308C89.1455 57.3363 88.636 57.3108 88.1448 57.4646C87.6536 57.6164 87.1806 57.9433 86.7706 58.3783C86.3586 58.8122 86.0044 59.3398 85.704 59.9092C85.4016 60.4785 85.1519 61.0907 84.9368 61.7202C84.7246 62.3517 84.5481 63.0015 84.4019 63.6615C84.3633 63.8265 84.3319 63.9926 84.2964 64.1586L84.2487 64.4092L84.2253 64.5344L84.2131 64.5966L84.1979 64.6689C84.1918 64.6964 84.1847 64.7239 84.1756 64.7524C84.1117 64.9755 83.9777 65.1965 83.7981 65.3595C83.6194 65.5235 83.4023 65.6335 83.1739 65.6834C82.9456 65.7333 82.701 65.7241 82.4696 65.6487C82.2382 65.5744 82.0261 65.4298 81.8759 65.2535C81.8566 65.2322 81.8393 65.2097 81.8221 65.1873L81.7886 65.1435L81.7511 65.0926L81.6749 64.9918L81.5237 64.7901C81.4192 64.6587 81.3177 64.5243 81.2111 64.3939C80.999 64.1331 80.7829 63.8765 80.5576 63.6289C80.11 63.1309 79.636 62.6603 79.1347 62.2243C78.1361 61.3494 77.0278 60.614 75.8384 60.0752C74.65 59.5364 73.3803 59.1972 72.0935 59.1045C70.8066 59.0077 69.5076 59.1575 68.2735 59.5303C67.0384 59.902 65.8733 60.503 64.833 61.2761C63.7908 62.0481 62.8784 62.9974 62.1254 64.0618C61.3723 65.1272 60.7725 66.3057 60.3463 67.5494C59.919 68.793 59.6592 70.0978 59.5537 71.4199C59.4501 72.743 59.509 74.0824 59.6907 75.4096C59.8784 76.7368 60.1981 78.0507 60.6274 79.3331C61.0567 80.6165 61.5722 81.8744 62.1335 83.1252C62.6947 84.376 63.3148 85.6084 63.9268 86.8745L63.9278 86.8766C64.0222 87.0731 63.941 87.3084 63.7461 87.4042C63.5878 87.4816 63.4031 87.4429 63.2884 87.3206Z" fill="black"/>
<path d="M68.8236 84.8639C69.0063 84.2924 69.3635 83.7791 69.7857 83.3381C70.212 82.898 70.7113 82.5283 71.2471 82.2319C72.3219 81.6391 73.5306 81.3213 74.7474 81.249C75.9643 81.1777 77.2095 81.361 78.3431 81.8459C78.9074 82.0883 79.4422 82.4081 79.9081 82.8053C80.0217 82.9102 80.1344 83.0121 80.243 83.118C80.3455 83.2321 80.45 83.3411 80.5464 83.4582C80.6398 83.5794 80.7281 83.7017 80.8123 83.8239C80.8895 83.9553 80.9656 84.0847 81.0315 84.2191C81.0326 84.2222 81.0315 84.2252 81.0285 84.2262C81.0275 84.2273 81.0254 84.2273 81.0234 84.2262C80.8803 84.1733 80.7474 84.1142 80.6165 84.0582C80.4815 84.0062 80.3485 83.9573 80.2207 83.9044C80.0867 83.8606 79.9578 83.8127 79.8289 83.7689L79.4412 83.6497C78.9257 83.501 78.4162 83.3941 77.9067 83.3156C76.8878 83.1608 75.8699 83.1201 74.8499 83.1659C73.83 83.2158 72.8121 83.3584 71.8084 83.611C71.306 83.7394 70.8067 83.8942 70.3114 84.0959C69.8141 84.2975 69.329 84.5461 68.8236 84.8639Z" fill="#E0DBD3"/>
<path d="M68.443 84.6481C68.8986 83.4237 69.7704 82.3186 70.8858 81.5374C72.0001 80.75 73.3478 80.2937 74.7149 80.2071C76.0809 80.1165 77.4825 80.4006 78.6861 81.0647C79.8857 81.7227 80.8874 82.7729 81.3613 84.0125C81.4405 84.2203 81.337 84.4535 81.1299 84.534C80.9787 84.592 80.8133 84.5523 80.7047 84.4454L80.6955 84.4362C80.2774 84.0247 79.8491 83.6611 79.3904 83.3586C78.9327 83.055 78.4496 82.8106 77.9513 82.6191C76.9537 82.2371 75.8861 82.0711 74.8245 82.122C73.7629 82.175 72.7146 82.4581 71.7585 82.9572C71.2816 83.2088 70.8259 83.5113 70.4006 83.8689C69.9744 84.2253 69.5816 84.6338 69.2041 85.082L69.196 85.0922C69.0377 85.2796 68.7586 85.303 68.5718 85.1441C68.4257 85.0178 68.38 84.8182 68.443 84.6481Z" fill="black"/>
<path d="M75.8007 85.8357C75.8322 85.7013 75.8687 85.5628 75.9205 85.4344C75.9469 85.3713 75.9743 85.3071 76.0037 85.245L76.0484 85.1502L76.0991 85.0616C76.1671 84.9435 76.2382 84.8223 76.3214 84.7153L76.4462 84.5513C76.4878 84.4963 76.5365 84.4485 76.5822 84.3965C76.9516 83.9891 77.4103 83.6601 77.9289 83.4299C78.4445 83.1987 79.0331 83.0775 79.6207 83.1365C79.913 83.163 80.2023 83.2404 80.4692 83.3566C80.6011 83.4217 80.731 83.4869 80.8487 83.5694C80.9665 83.657 81.0761 83.7528 81.1755 83.8567C81.3389 84.0278 81.3338 84.2987 81.1633 84.4627C81.1075 84.5167 81.0395 84.5524 80.9685 84.5697L80.8822 84.59C80.7604 84.6196 80.6488 84.641 80.5443 84.6552C80.4387 84.6736 80.3362 84.7031 80.2408 84.7163C80.1444 84.7326 80.05 84.7663 79.9597 84.7825C79.9374 84.7876 79.9151 84.7907 79.8927 84.7968L79.8257 84.8182L79.6938 84.8538C79.3477 84.9537 79.0169 85.0627 78.6739 85.1971C78.3318 85.3326 77.9888 85.5006 77.6367 85.686C77.4611 85.7797 77.2825 85.8785 77.1018 85.9834C77.0064 86.0333 76.9242 86.0924 76.8258 86.1444C76.7314 86.1994 76.6411 86.2574 76.5355 86.3124L76.4624 86.3501C76.2361 86.4673 75.958 86.3786 75.8413 86.1515C75.7875 86.0517 75.7774 85.9386 75.8007 85.8357Z" fill="black"/>
<path d="M83.735 106.067C82.1305 105.665 81.7529 106.861 82.7435 108.116C79.9049 105.267 78.552 107.12 78.552 107.12C78.552 107.12 74.9685 104.188 72.8789 106.284C70.0545 101.871 69.3461 97.6398 69.3461 97.6398C69.3461 97.6398 78.3318 103.604 83.735 106.067Z" fill="black"/>
<path d="M37.8048 49.5035C36.8488 49.7164 36.8843 51.067 37.6282 52.1324C36.6722 52.5592 34.6201 48.8995 34.6201 48.8995L37.8048 49.5035Z" fill="black"/>
<path d="M42.123 55.7555C40.7073 55.8624 40.9904 57.3536 41.5567 58.1359C39.2915 57.3903 38.6897 54.7257 38.6897 54.7257L42.123 55.7555Z" fill="black"/>
<path d="M50.719 53.9984C48.6334 53.0216 48.9582 51.1321 47.4288 49.9812C45.3036 48.381 43.5215 47.6405 42.0631 46.077C40.6047 44.5135 39.7573 41.5984 35.7485 40.1072C31.9945 38.7118 32.9333 36.6879 29.5953 35.537C26.5669 34.4919 27.6904 33.1576 23.0595 31.5595C18.4297 29.9614 19.1035 29.2799 14.2991 27.2683C11.7568 26.2039 11.3773 29.5886 13.7085 31.2111C16.542 31.6817 19.6526 35.9607 22.0974 35.7417C22.0974 35.7417 25.8423 40.972 28.6718 40.972C29.3416 43.2271 31.6657 45.088 32.7516 45.7979C33.7452 47.3095 33.8649 48.4319 36.7776 50.0749C38.5841 53.7213 40.967 56.4918 40.967 56.4918C41.4197 57.4706 42.0661 58.3364 43.0668 58.8009L43.1795 58.9252C42.3513 62.7529 45.5076 63.9324 47.6145 62.6042C48.8861 61.8026 50.9078 60.2819 51.9013 58.7469C53.7636 55.8685 52.4148 54.7929 50.719 53.9984Z" fill="#B8B3AD"/>
<path d="M18.0979 31.8029L18.0259 31.8732C18.0046 31.8946 17.9822 31.914 17.9609 31.9333C17.9173 31.972 17.8736 32.0087 17.829 32.0443C17.7397 32.1167 17.6483 32.1839 17.5519 32.245C17.3611 32.3693 17.1592 32.4813 16.946 32.5709C16.5208 32.7533 16.0499 32.8663 15.5668 32.8846C15.0837 32.905 14.5915 32.8337 14.1318 32.683C14.0151 32.6473 13.9045 32.6015 13.7918 32.5587C13.6832 32.5098 13.5706 32.464 13.466 32.408C13.3605 32.353 13.2539 32.299 13.1545 32.2368L13.0022 32.1462C12.9515 32.1126 12.8997 32.08 12.85 32.0454C12.0432 31.4923 11.3997 30.6509 11.1278 29.6334C10.9948 29.1241 10.939 28.5639 11.0922 27.9528C11.1714 27.6503 11.3114 27.3304 11.5459 27.0452C11.7773 26.759 12.1102 26.5258 12.4583 26.4066C12.8074 26.2823 13.1514 26.263 13.4559 26.2884C13.7614 26.3149 14.0323 26.3852 14.281 26.4718C14.3439 26.4932 14.4028 26.5176 14.4637 26.5411L14.6108 26.6022L14.8919 26.7213C15.0797 26.8028 15.2674 26.8782 15.4542 26.9638C16.2021 27.2948 16.9481 27.6594 17.6757 28.0638C18.0401 28.2655 18.3943 28.4784 18.7393 28.6872C19.0813 28.8949 19.4122 29.0987 19.738 29.282C20.3865 29.6548 21.0583 29.9593 21.7667 30.2435C22.4822 30.5297 23.1886 30.7497 24.0005 31.0573C24.787 31.365 25.5816 31.7286 26.3397 32.2491C26.7173 32.5057 27.0806 32.8123 27.3942 33.1148C27.7119 33.4204 27.9676 33.6934 28.2112 33.8981C28.333 34.003 28.4547 34.0937 28.5836 34.1772C28.7115 34.2617 28.8475 34.3392 28.9936 34.4105C29.0657 34.4471 29.1398 34.4817 29.2169 34.5143C29.292 34.549 29.3722 34.5795 29.4514 34.6111C29.5295 34.6437 29.6148 34.6712 29.6959 34.7018L29.9974 34.8118C30.4216 34.9707 30.8488 35.1683 31.2609 35.4229C31.6699 35.6796 32.0637 35.9953 32.3904 36.3386C32.7223 36.6798 32.9892 37.0302 33.2297 37.3286C33.4713 37.6311 33.6885 37.8848 33.9249 38.1068C34.1614 38.3278 34.4121 38.5214 34.6952 38.6925C34.9774 38.8636 35.2839 39.0164 35.6096 39.1498C35.905 39.268 36.3586 39.435 36.7504 39.6153C37.1512 39.7997 37.543 40.0095 37.9225 40.2448C38.6817 40.7143 39.3819 41.2969 39.9827 41.9468C40.5856 42.5946 41.092 43.3055 41.5416 43.9768C41.7679 44.3129 41.9831 44.6378 42.1962 44.9312C42.3027 45.0778 42.4093 45.2174 42.5159 45.3427C42.5686 45.4078 42.6224 45.4639 42.6752 45.524L42.8579 45.7104C43.3491 46.2044 43.9255 46.6373 44.5578 47.061C45.1901 47.4857 45.8731 47.9043 46.5561 48.3607C46.8971 48.5878 47.2391 48.8241 47.575 49.0696L47.8267 49.256L47.8896 49.3028L47.9668 49.3639C48.0185 49.4057 48.0723 49.4464 48.121 49.4913C48.324 49.6665 48.5097 49.863 48.6711 50.0678C48.9969 50.4782 49.2242 50.9101 49.4099 51.286C49.5957 51.6638 49.7479 51.9918 49.9113 52.2536C50.0737 52.5174 50.2442 52.717 50.4522 52.8861C50.5557 52.9707 50.6684 53.0491 50.7942 53.1184C50.8551 53.156 50.9221 53.1846 50.9891 53.2202C51.0865 53.2671 51.1849 53.3139 51.2834 53.3648C51.6782 53.5675 52.0902 53.8008 52.4962 54.141C52.6981 54.3121 52.8981 54.5117 53.0757 54.7511C53.2533 54.9894 53.4075 55.2685 53.51 55.568C53.6136 55.8674 53.6633 56.1812 53.6694 56.4786C53.6755 56.776 53.641 57.0571 53.5872 57.3209C53.4705 57.8394 53.2827 58.2926 53.0706 58.7011C52.964 58.9058 52.8514 59.1024 52.7347 59.2908C52.6738 59.3856 52.62 59.4772 52.553 59.573L52.3541 59.8592C52.0811 60.2269 51.7898 60.5589 51.4894 60.8737C50.8856 61.497 50.2431 62.044 49.5774 62.5523C49.2445 62.8069 48.9066 63.0503 48.5584 63.2836C48.3849 63.4007 48.2093 63.5158 48.0307 63.6279L47.9627 63.6706L47.8805 63.7205C47.8257 63.7542 47.7689 63.7837 47.712 63.8153C47.5984 63.8754 47.4827 63.9324 47.3639 63.9823C46.891 64.186 46.3805 64.3062 45.8589 64.3317C45.3382 64.3571 44.8014 64.2848 44.2929 64.0964C43.7845 63.91 43.3044 63.6014 42.9249 63.195C42.5423 62.7916 42.2693 62.2997 42.1069 61.8006C41.9445 61.2994 41.8836 60.7932 41.8877 60.3104C41.8907 59.8266 41.9567 59.3621 42.0551 58.918C42.1698 58.3996 42.6813 58.0726 43.1979 58.1877C43.7104 58.3018 44.0351 58.808 43.9286 59.3214L43.9276 59.3255C43.7885 59.9957 43.7814 60.6598 43.9631 61.1752C44.1427 61.6895 44.4918 62.0409 44.9729 62.209C45.4519 62.3791 46.0466 62.3424 46.5571 62.1112C46.621 62.0837 46.684 62.0511 46.7459 62.0175C46.7763 61.9992 46.8078 61.9839 46.8372 61.9645L46.8819 61.9371L46.9397 61.8994C47.097 61.7985 47.2533 61.6926 47.4086 61.5856C47.7202 61.3717 48.0256 61.1456 48.323 60.9134C48.9187 60.4489 49.485 59.9519 49.9854 59.4243C50.233 59.1605 50.4654 58.8905 50.6663 58.6165L50.8074 58.4108C50.8551 58.3436 50.9008 58.2621 50.9475 58.1887C51.0388 58.038 51.123 57.8862 51.1992 57.7365C51.3534 57.437 51.461 57.1406 51.5178 56.8809C51.5422 56.7526 51.5533 56.6354 51.5493 56.5336C51.5462 56.4317 51.53 56.3472 51.5016 56.2698C51.4732 56.1924 51.4326 56.118 51.3717 56.0375C51.3108 55.9571 51.2276 55.8725 51.1251 55.787C50.9191 55.6159 50.6349 55.4488 50.3203 55.293C50.2421 55.2543 50.1599 55.2156 50.0777 55.1769C49.9681 55.1219 49.8534 55.0699 49.7428 55.0047C49.5206 54.8825 49.3013 54.7358 49.0963 54.5698C48.6823 54.2408 48.3331 53.8191 48.0774 53.4056C47.8186 52.991 47.6359 52.5918 47.4675 52.2556C47.3 51.9175 47.1447 51.6435 46.9722 51.4296C46.8859 51.3216 46.7966 51.2279 46.6972 51.1434C46.6738 51.121 46.6464 51.1026 46.621 51.0812L46.5815 51.0497L46.5236 51.0079L46.2943 50.8398C45.9867 50.6168 45.6721 50.4008 45.3494 50.189C44.706 49.7632 44.0291 49.3517 43.3369 48.8923C42.9908 48.6611 42.6437 48.4136 42.3007 48.1468C41.9577 47.8799 41.6238 47.5835 41.3072 47.2677L41.0727 47.0263C40.9925 46.9377 40.9103 46.8481 40.8373 46.7585C40.686 46.5792 40.5521 46.4009 40.4242 46.2258C40.1695 45.8733 39.9452 45.5331 39.726 45.2072C39.2896 44.5543 38.8643 43.9635 38.3802 43.443C37.8992 42.9226 37.3633 42.4775 36.7686 42.1077C36.4713 41.9234 36.1617 41.7563 35.839 41.6076C35.5071 41.4548 35.2128 41.3509 34.7693 41.1706C34.3603 40.9995 33.9513 40.7958 33.5545 40.5514C33.1577 40.3079 32.7761 40.0125 32.4331 39.6856C32.09 39.3596 31.7927 39.0021 31.54 38.6803C31.2832 38.3553 31.066 38.0712 30.8417 37.8399C30.6205 37.6047 30.3871 37.4193 30.1242 37.2492C29.8593 37.0832 29.563 36.9416 29.2423 36.8193L28.9835 36.7236C28.879 36.6839 28.7744 36.6492 28.6689 36.6054C28.5633 36.5627 28.4588 36.5209 28.3533 36.472C28.2477 36.4262 28.1422 36.3753 28.0366 36.3213C27.6165 36.1125 27.1922 35.8313 26.832 35.5186C26.4686 35.2059 26.1835 34.8922 25.9267 34.6457C25.6679 34.3942 25.4213 34.1843 25.1412 33.9908C24.5881 33.6038 23.9294 33.2911 23.2373 33.014C22.5644 32.7492 21.7545 32.4823 20.9944 32.1696C20.2292 31.8539 19.4508 31.4913 18.7231 31.0624C18.3577 30.8506 18.0127 30.6326 17.6768 30.4238C17.3429 30.217 17.0171 30.0154 16.6862 29.8279C16.0255 29.4511 15.3446 29.1088 14.6402 28.788C14.4657 28.7065 14.2861 28.6311 14.1084 28.5527L13.8415 28.4356L13.7137 28.3796C13.6812 28.3673 13.6487 28.3521 13.6172 28.3419C13.4914 28.294 13.3747 28.2665 13.2834 28.2573C13.192 28.2482 13.1301 28.2563 13.1027 28.2655C13.0743 28.2757 13.0692 28.2767 13.0469 28.2991C13.0266 28.3205 12.9941 28.3724 12.9718 28.4539C12.9231 28.6189 12.9241 28.8817 12.9921 29.1414C13.058 29.4042 13.1819 29.6711 13.3432 29.9166C13.5046 30.1631 13.7055 30.3912 13.9379 30.5949L14.0273 30.6693L14.1247 30.7426C14.1886 30.7935 14.2556 30.8373 14.3226 30.8822C14.3886 30.929 14.4586 30.9636 14.5256 31.0085C14.5946 31.0441 14.6636 31.0869 14.7346 31.1185C14.8757 31.1887 15.0198 31.2437 15.168 31.2947C15.3162 31.3405 15.4684 31.3782 15.6247 31.4026C15.9362 31.4526 16.2651 31.4526 16.6 31.4057C16.7674 31.3802 16.9379 31.3487 17.1054 31.2998C17.1886 31.2753 17.2728 31.2488 17.3561 31.2203C17.3977 31.2061 17.4383 31.1908 17.4778 31.1755L17.5367 31.1521C17.554 31.146 17.5773 31.1348 17.5854 31.1348L17.8615 31.149C18.0695 31.1602 18.2288 31.3385 18.2177 31.5463C18.2075 31.6502 18.1639 31.7388 18.0979 31.8029Z" fill="black"/>
<path d="M24.1222 35.808C23.427 36.191 22.6679 36.5057 21.8032 36.6239C21.3729 36.685 20.9142 36.684 20.4565 36.6004C19.9998 36.5179 19.5532 36.3499 19.1595 36.1299C18.7647 35.9098 18.4166 35.6471 18.1009 35.3751C17.7863 35.1011 17.5001 34.82 17.2322 34.5348C16.6933 33.9664 16.2031 33.4011 15.7231 32.8267L15.7211 32.8246C15.4491 32.4997 15.4917 32.0149 15.8165 31.7419C16.1067 31.4985 16.5228 31.5066 16.8019 31.7439C17.4007 32.2512 17.9416 32.8124 18.4582 33.3482C18.9778 33.8809 19.4731 34.3861 19.9896 34.7344C20.2484 34.9096 20.5143 35.0369 20.7985 35.1317C21.0827 35.2284 21.3932 35.2682 21.723 35.2834C22.0519 35.2926 22.4 35.2732 22.7531 35.2254C23.1084 35.1806 23.4686 35.1093 23.837 35.042L23.8502 35.04C24.0735 34.9993 24.2876 35.148 24.3282 35.372C24.3617 35.5513 24.2724 35.7245 24.1222 35.808Z" fill="black"/>
<path d="M30.0774 40.688C29.707 40.9009 29.3112 41.0822 28.8829 41.2176C28.4526 41.3429 27.9888 41.4234 27.5047 41.405C27.0216 41.3938 26.5264 41.2716 26.0778 41.0699C25.6282 40.8672 25.2344 40.5821 24.8904 40.2775C24.2023 39.6623 23.704 38.9666 23.2321 38.3229C22.7612 37.6761 22.3258 37.065 21.8478 36.5618L21.8377 36.5506C21.5464 36.244 21.5575 35.7571 21.864 35.4648C22.137 35.203 22.5531 35.1847 22.8464 35.4027C23.2189 35.6777 23.5335 36.0006 23.8217 36.3224C23.9638 36.4864 24.0988 36.6504 24.2297 36.8154C24.3596 36.9804 24.4824 37.1464 24.6042 37.3094C24.8488 37.6343 25.0721 37.9603 25.3055 38.2597C25.5338 38.5633 25.7642 38.8474 26.0037 39.098C26.2432 39.3486 26.4939 39.5625 26.7618 39.7275C27.0298 39.8925 27.321 40.0015 27.6387 40.0687C27.9563 40.1308 28.3024 40.1451 28.6617 40.1166C29.023 40.087 29.3914 40.0106 29.7709 39.9312L29.7882 39.9271C30.0105 39.8803 30.2276 40.0229 30.2743 40.2459C30.3129 40.4252 30.2276 40.6014 30.0774 40.688Z" fill="black"/>
<path d="M36.4144 45.2674C35.6401 45.6524 34.8109 45.9509 33.9117 46.1108C33.4611 46.1892 32.9933 46.231 32.5021 46.1953C32.0139 46.1617 31.5024 46.0456 31.0224 45.8154C30.5403 45.5882 30.1141 45.2348 29.7802 44.8447C29.4473 44.4495 29.1976 44.0278 29.0007 43.6122C28.9003 43.4044 28.812 43.2018 28.7277 43.0001L28.4953 42.4175C28.3512 42.0375 28.2031 41.6973 28.0529 41.4183L28.0275 41.3714C27.8265 40.9996 27.9646 40.5341 28.336 40.3325C28.6648 40.1542 29.0667 40.2428 29.293 40.525C29.6239 40.9355 29.8309 41.3612 30.0187 41.7513C30.2013 42.1465 30.3617 42.5193 30.5292 42.8595C30.5708 42.9461 30.6154 43.0276 30.658 43.108C30.6986 43.1916 30.7453 43.2649 30.789 43.3433C30.8346 43.4177 30.8803 43.491 30.928 43.5613C30.9777 43.6265 31.0234 43.7008 31.0762 43.7589C31.2781 44.0115 31.4994 44.2183 31.7643 44.3711C32.0291 44.5249 32.3377 44.6308 32.6797 44.697C33.0197 44.7683 33.3942 44.7754 33.7747 44.7744C34.541 44.7571 35.3427 44.6339 36.1566 44.4913L36.1597 44.4902C36.383 44.4505 36.5961 44.6013 36.6357 44.8253C36.6692 45.0107 36.5738 45.1879 36.4144 45.2674Z" fill="black"/>
<path d="M40.2272 49.8416C39.466 50.191 38.643 50.4599 37.7316 50.5231C37.2759 50.5546 36.7969 50.518 36.3199 50.3968C35.8439 50.2745 35.3852 50.0474 34.9894 49.7642C34.5906 49.4821 34.2607 49.147 33.9715 48.8119C33.6873 48.4717 33.4316 48.1345 33.1992 47.7994C32.7303 47.1333 32.3091 46.5099 31.8453 45.9365L31.8392 45.9293C31.5723 45.6003 31.622 45.1165 31.9499 44.8486C32.2452 44.6083 32.6643 44.6246 32.9394 44.869C33.6011 45.4567 34.1186 46.1544 34.5835 46.8043C34.8199 47.1272 35.0371 47.445 35.2675 47.7261C35.4928 48.0113 35.7221 48.2659 35.9677 48.4707C36.2133 48.6774 36.4742 48.8384 36.7675 48.9575C37.0608 49.0757 37.3896 49.1419 37.7387 49.1796C38.442 49.2448 39.2103 49.1623 39.9917 49.0584L40.0009 49.0573C40.2262 49.0278 40.4322 49.1857 40.4626 49.4118C40.488 49.5962 40.3865 49.7683 40.2272 49.8416Z" fill="black"/>
<path d="M44.0381 55.078C43.2211 55.4131 42.3311 55.6494 41.3629 55.6372C40.8798 55.6321 40.3784 55.5445 39.8964 55.3662C39.4143 55.188 38.9637 54.9079 38.5821 54.5748C38.1985 54.2418 37.8818 53.8598 37.6159 53.4707C37.3541 53.0775 37.1258 52.6823 36.9289 52.2861C36.529 51.4977 36.2114 50.7267 35.8704 50.0086L35.8663 49.9994C35.6846 49.6165 35.847 49.1581 36.2286 48.9768C36.5737 48.8118 36.9806 48.93 37.1897 49.2386C37.7012 49.9933 38.0686 50.7817 38.4441 51.5049C38.6349 51.8644 38.8155 52.2158 39.0226 52.5316C39.2235 52.8514 39.4407 53.1387 39.6802 53.3811C39.9207 53.6245 40.1846 53.8231 40.483 53.9779C40.7803 54.1348 41.1173 54.2346 41.4776 54.2988C41.8388 54.3589 42.2245 54.3803 42.6183 54.3721L42.9166 54.365C43.0171 54.3569 43.1166 54.3487 43.2181 54.3426C43.3196 54.3385 43.421 54.3273 43.5225 54.3151L43.83 54.2866L43.8453 54.2856C44.0706 54.2642 44.2705 54.4312 44.2918 54.6573C44.308 54.8437 44.2005 55.0118 44.0381 55.078Z" fill="black"/>
<path d="M46.6667 59.5433C45.9502 59.8835 45.1555 60.1127 44.2858 60.1443C43.8524 60.1565 43.3998 60.1107 42.9542 59.9874C42.5077 59.8672 42.0723 59.6645 41.6846 59.3977C41.2959 59.1318 40.958 58.8049 40.6738 58.4545C40.3907 58.1021 40.1593 57.7262 39.9735 57.3432C39.6001 56.5773 39.3738 55.794 39.2428 55.025C39.1586 54.532 39.4895 54.0645 39.9807 53.98C40.4089 53.9066 40.8179 54.149 40.9712 54.5392L40.9742 54.5483C41.2381 55.2196 41.4746 55.8663 41.7668 56.4398C42.0561 57.0153 42.3981 57.5011 42.8162 57.8597C43.2323 58.2202 43.755 58.4504 44.3771 58.5625C44.6866 58.6164 45.0175 58.645 45.3575 58.648C45.6995 58.6592 46.0506 58.6297 46.4119 58.6144L46.4363 58.6134C46.7042 58.6022 46.9305 58.811 46.9417 59.0809C46.9529 59.2836 46.8382 59.4618 46.6667 59.5433Z" fill="black"/>
<path d="M35.5081 45.6697C34.3278 46.1138 34.7114 47.002 35.095 47.5347C33.3545 47.2678 32.7649 45.6401 32.7649 45.6401L35.5081 45.6697Z" fill="black"/>
<path d="M45.3037 60.0406C44.1061 60.2738 43.7651 61.1304 44.4633 61.9982C43.2333 61.931 42.3108 60.9563 42.3108 60.9563L42.4437 59.0536L45.3037 60.0406Z" fill="black"/>
<path d="M91.237 68.5302C89.6528 68.516 88.4217 70.7262 88.1 73.8074C88.0675 74.117 88.2167 74.4175 88.4603 74.5479C89.4082 75.0551 90.3703 75.5644 91.1416 75.9718C91.8124 76.3263 91.8835 77.4111 91.2654 77.8521L89.0063 79.4635C88.7587 79.6407 88.6592 80.0023 88.7658 80.3252C89.053 81.195 89.4092 81.9559 89.8141 82.563C89.9369 82.7463 90.1308 82.8451 90.3266 82.8339C91.0777 82.7891 91.7049 82.7555 91.9657 82.7412C92.0519 82.7371 92.1382 82.7534 92.2184 82.7921L93.144 83.225C93.3814 83.3361 93.6534 83.2658 93.8168 83.0417C94.8002 81.6911 95.3777 79.2068 95.2316 76.3579C95.0113 72.0514 93.2231 68.5475 91.237 68.5302Z" fill="black"/>
<path d="M93.3734 83.9319C93.2039 83.9319 93.0324 83.8952 92.869 83.8188L91.9688 83.3981C91.6917 83.4124 91.0869 83.445 90.3663 83.4888C89.9319 83.5142 89.524 83.3054 89.2723 82.9286C88.8318 82.2686 88.4533 81.4619 88.1468 80.5319C87.9489 79.932 88.1478 79.274 88.6288 78.9307L90.888 77.3194C91.0108 77.2318 91.0453 77.0566 91.0361 76.9232C91.027 76.7897 90.9712 76.6227 90.8382 76.5534C89.8548 76.034 88.9516 75.5542 88.1539 75.1275C87.6738 74.8708 87.3917 74.3136 87.4516 73.7402C87.823 70.1742 89.3017 67.8763 91.2218 67.8763C91.2289 67.8763 91.2361 67.8763 91.2432 67.8763C92.458 67.8865 93.6078 68.8328 94.4786 70.5378C95.2743 72.0962 95.7736 74.1517 95.8852 76.3243C96.0344 79.2434 95.459 81.8988 94.3457 83.4287C94.1072 83.7536 93.7459 83.9319 93.3734 83.9319ZM91.9921 82.0852C92.1637 82.0852 92.3372 82.1239 92.4945 82.1973L93.3348 82.5904C94.234 81.2999 94.71 78.9358 94.5801 76.3894C94.3629 72.1594 92.6406 69.1974 91.231 69.1852C91.2279 69.1852 91.2249 69.1852 91.2218 69.1852C90.072 69.1852 89.0327 71.1541 88.7496 73.8746C88.7445 73.9276 88.7658 73.9663 88.775 73.9734C89.5635 74.3941 90.4647 74.8728 91.4461 75.3913C91.9627 75.6642 92.2966 76.203 92.3392 76.8335C92.3819 77.465 92.121 78.0456 91.644 78.3858L89.391 79.9931C89.3819 80.0084 89.3656 80.0593 89.3859 80.1194C89.6518 80.9261 89.9735 81.6187 90.343 82.1759C91.0727 82.1321 91.6775 82.0995 91.9333 82.0862C91.9526 82.0862 91.9729 82.0852 91.9921 82.0852Z" fill="black"/>
<path d="M75.5378 119.54C75.8971 119.449 76.2462 119.384 76.5821 119.304C76.918 119.225 77.2388 119.136 77.5422 119.015C77.8456 118.895 78.1308 118.749 78.413 118.578C78.6971 118.408 78.9711 118.205 79.2787 117.998L79.2827 117.994C79.3659 117.938 79.4796 117.96 79.5364 118.044C79.5709 118.096 79.576 118.161 79.5547 118.215C79.4106 118.582 79.1721 118.909 78.8768 119.185C78.5814 119.46 78.2222 119.674 77.8426 119.814C77.463 119.954 77.0662 120.025 76.6785 120.04C76.2898 120.054 75.9093 120.02 75.5388 119.931C75.4313 119.904 75.3653 119.796 75.3917 119.688C75.4099 119.613 75.4678 119.558 75.5368 119.541L75.5378 119.54Z" fill="black"/>
<path d="M52.4017 16.6337C53.0553 21.6226 50.1669 22.1899 50.0522 25.2313C49.9741 27.2786 51.5197 29.1385 51.8587 30.9414C52.5417 34.5776 46.5215 35.3069 46.7336 29.7303C42.8933 40.5841 52.8066 44.4607 59.2521 41.9989C65.6976 39.537 66.6323 34.158 65.2561 30.4178C63.6069 25.9352 58.22 24.7536 59.2034 21.0675C56.9108 22.2205 57.2437 23.6088 57.3989 24.9197C57.7186 27.6117 54.0245 27.188 53.9869 23.8787C53.9636 21.9383 55.8198 18.3999 52.4017 16.6337Z" fill="#F2F2F2"/>
<path d="M53.7606 37.4713C53.5241 37.1383 53.3465 36.7482 53.2461 36.3275C53.1446 35.9068 53.1273 35.4617 53.176 35.036C53.2258 34.6102 53.3343 34.2038 53.4703 33.828C53.6053 33.4501 53.7657 33.0997 53.924 32.7636C54.2427 32.0923 54.5634 31.4853 54.7663 30.8782C54.9734 30.2722 55.0495 29.6641 54.9866 28.9745L54.9855 28.9613C54.9663 28.7514 55.1205 28.5661 55.3296 28.5467C55.4818 28.5325 55.6209 28.6109 55.6929 28.7351C55.8979 29.0906 56.0329 29.498 56.0948 29.9218C56.1567 30.3455 56.1384 30.7814 56.0664 31.195C55.9202 32.0271 55.5823 32.7534 55.2667 33.4103C54.948 34.0694 54.6405 34.6734 54.4781 35.2743C54.3949 35.5748 54.3472 35.8742 54.3411 36.1859C54.336 36.3418 54.3472 36.5007 54.3614 36.6626C54.3726 36.7431 54.3787 36.8266 54.3949 36.9081C54.4091 36.9906 54.4263 37.0731 54.4385 37.1597L54.4436 37.1974C54.473 37.4051 54.3289 37.5976 54.1229 37.6272C53.9778 37.6476 53.8398 37.5834 53.7606 37.4713Z" fill="black"/>
<path d="M55.7976 28.7862C55.9569 29.1773 56.1639 29.5134 56.4238 29.8251C56.6815 30.1368 56.985 30.426 57.3179 30.7133C57.9796 31.2939 58.758 31.8541 59.4806 32.6404C59.8388 33.0346 60.1808 33.5031 60.4193 34.0582C60.6568 34.6113 60.7695 35.2469 60.7167 35.8407C60.669 36.4366 60.4873 36.9784 60.2509 37.4582C60.1879 37.5763 60.127 37.6945 60.0621 37.8096C59.99 37.9196 59.921 38.0296 59.848 38.1365C59.8114 38.1895 59.7769 38.2455 59.7373 38.2954L59.6176 38.4462C59.5354 38.545 59.4562 38.6438 59.372 38.7385C59.1984 38.9331 58.9001 38.9494 58.7062 38.7752C58.5662 38.6489 58.5185 38.4584 58.5692 38.2883L58.5773 38.2598C58.7093 37.8137 58.8676 37.392 58.9467 36.9754C59.035 36.5619 59.0807 36.1656 59.0533 35.8071C59.0249 35.4476 58.9346 35.1287 58.7722 34.8171C58.6149 34.5044 58.3855 34.1968 58.1074 33.8861C57.5493 33.2627 56.8175 32.6475 56.1457 31.8714C55.8128 31.4813 55.4921 31.0443 55.2526 30.5432C55.0131 30.0451 54.8629 29.4778 54.8811 28.9247C54.8903 28.6639 55.1075 28.4602 55.3673 28.4684C55.5581 28.4745 55.7194 28.5947 55.7874 28.7617L55.7976 28.7862Z" fill="black"/>
<path d="M52.8209 16.5787C52.9397 17.1053 53.0208 17.6461 53.0482 18.2012C53.0645 18.4783 53.0635 18.7594 53.0472 19.0415C53.0391 19.1821 53.0239 19.3237 53.0107 19.4663C52.9884 19.6068 52.9742 19.7494 52.9447 19.89C52.8443 20.4553 52.6596 21.0124 52.4261 21.5299C52.3084 21.7876 52.1826 22.0361 52.0547 22.2755L51.6731 22.962C51.4285 23.404 51.2225 23.8125 51.0997 24.2189C51.0378 24.4216 50.9941 24.6243 50.9647 24.83C50.9424 25.0347 50.9292 25.2537 50.9424 25.4524C50.9738 26.2662 51.3341 27.137 51.7594 28.0629C51.9694 28.5294 52.2029 29.0102 52.4028 29.5419C52.4535 29.6743 52.4992 29.8138 52.5469 29.9503C52.5905 30.0919 52.6321 30.2365 52.6727 30.3812L52.7235 30.6083C52.7387 30.6857 52.759 30.755 52.7671 30.8416L52.7976 31.0911C52.8016 31.1329 52.8087 31.1736 52.8108 31.2164L52.8138 31.3457L52.8158 31.6045C52.8108 31.692 52.8006 31.7807 52.7925 31.8683L52.7783 31.9997C52.7732 32.0435 52.761 32.0883 52.7519 32.1321C52.7326 32.2207 52.7123 32.3083 52.691 32.3949C52.5824 32.7422 52.4231 33.0793 52.2018 33.3747C51.9786 33.667 51.7066 33.9145 51.4052 34.1081C51.1007 34.2945 50.7739 34.432 50.437 34.5124C50.099 34.5888 49.755 34.6102 49.415 34.5868C49.075 34.5562 48.7452 34.4707 48.4326 34.3464C47.8145 34.0806 47.2848 33.6324 46.9458 33.0956C46.5977 32.5629 46.4099 31.9732 46.3298 31.3987C46.3044 31.2551 46.2983 31.1115 46.2892 30.9689L46.277 30.756L46.281 30.5452C46.2821 30.263 46.3176 29.988 46.3511 29.715C46.3775 29.5052 46.5682 29.3565 46.7773 29.383C46.9529 29.4054 47.0858 29.5439 47.1082 29.712L47.1122 29.7446C47.1285 29.8688 47.1437 29.9911 47.1569 30.1133C47.166 30.2365 47.1975 30.3547 47.2168 30.4739L47.2472 30.6521L47.2919 30.8242C47.3213 30.9393 47.3477 31.0534 47.3903 31.1614C47.5334 31.6014 47.7435 31.9956 48.0124 32.3011C48.2773 32.6118 48.6122 32.8114 48.9593 32.9204C49.1369 32.9663 49.3155 32.9927 49.4941 32.9907C49.6728 32.9846 49.8483 32.9581 50.0127 32.9052C50.1751 32.8461 50.3263 32.7717 50.4583 32.677C50.5862 32.5772 50.6917 32.4611 50.78 32.3378C50.8642 32.2105 50.918 32.0669 50.9606 31.9182C50.9677 31.8367 50.9972 31.7644 50.9941 31.6778L51.0033 31.5525L50.9962 31.4211L50.9941 31.3559C50.9931 31.3335 50.987 31.3101 50.984 31.2877L50.9627 31.1512C50.9596 31.1084 50.9403 31.0524 50.9302 31.0025L50.8947 30.8497L50.7972 30.5329C50.7567 30.4239 50.7211 30.317 50.6775 30.207C50.5039 29.768 50.2939 29.3086 50.0767 28.8268C49.8585 28.3451 49.6443 27.8348 49.4688 27.2817C49.2932 26.7296 49.1704 26.1236 49.1653 25.489C49.1572 25.1672 49.1927 24.8657 49.2425 24.556C49.2993 24.2484 49.3815 23.9459 49.487 23.6566C49.7052 23.0791 50.0056 22.5719 50.2989 22.1268C50.5933 21.6776 50.8734 21.2732 51.1078 20.8617C51.2245 20.6549 51.329 20.4482 51.4244 20.2353C51.4681 20.1283 51.5168 20.0224 51.5533 19.9124C51.596 19.8044 51.6325 19.6934 51.667 19.5824C51.8081 19.1363 51.8903 18.6647 51.94 18.1798C51.9867 17.694 51.9938 17.1949 51.9816 16.6897V16.6836C51.9765 16.4483 52.1612 16.2527 52.3967 16.2476C52.6027 16.2415 52.7773 16.3841 52.8209 16.5787Z" fill="black"/>
<path d="M59.3932 21.4473C59.3181 21.5043 59.242 21.5603 59.1669 21.6133L59.0542 21.6948L58.9507 21.7834C58.8837 21.8435 58.8097 21.8964 58.7457 21.9565L58.562 22.1389C58.4514 22.2662 58.3479 22.3925 58.2687 22.5229C58.1875 22.6532 58.1307 22.7867 58.086 22.9201C58.0018 23.188 57.9967 23.4793 58.0302 23.8123C58.0455 23.9774 58.0759 24.1566 58.1084 24.342L58.1591 24.6333L58.1855 24.7851L58.1916 24.8228L58.1977 24.8706L58.2088 24.9664C58.2444 25.219 58.2403 25.4981 58.1967 25.7863C58.152 26.0746 58.0424 26.3862 57.8557 26.6704C57.6669 26.9536 57.3898 27.2001 57.0773 27.3518C56.7657 27.5056 56.4298 27.5739 56.1131 27.5729C55.7944 27.5739 55.494 27.5107 55.219 27.4079C54.944 27.305 54.6903 27.1634 54.466 26.9923C54.0215 26.648 53.6764 26.2029 53.4592 25.7232C53.237 25.2444 53.1152 24.7403 53.0807 24.2503L53.0665 23.8847C53.0685 23.7573 53.0715 23.629 53.0817 23.5109C53.0989 23.2715 53.1345 23.0494 53.171 22.8386C53.2441 22.4139 53.3354 22.0238 53.4156 21.6438C53.4957 21.2639 53.5719 20.8972 53.6185 20.5407C53.6317 20.4511 53.6439 20.3625 53.651 20.2749C53.6622 20.1863 53.6673 20.0997 53.6723 20.0131C53.6805 19.9255 53.6794 19.842 53.6835 19.7564C53.6835 19.6719 53.6825 19.5884 53.6794 19.5049C53.6642 19.1738 53.6094 18.8581 53.5039 18.5586C53.3983 18.2592 53.2319 17.977 53.0137 17.7112C52.9071 17.5767 52.7833 17.4494 52.6504 17.3282C52.5813 17.2701 52.5184 17.2029 52.4453 17.1469C52.3723 17.0899 52.2992 17.0318 52.2271 16.9717L52.2008 16.9503C52.0374 16.8148 52.015 16.5724 52.149 16.4084C52.2545 16.2801 52.4271 16.2383 52.5753 16.2923C52.6767 16.329 52.7772 16.3687 52.8787 16.4095C52.9802 16.4502 53.0776 16.5011 53.1781 16.55C53.374 16.6539 53.5668 16.7721 53.7515 16.9116C54.1179 17.1887 54.4528 17.5472 54.6953 17.9689C54.9399 18.3885 55.0972 18.855 55.1835 19.3164C55.2687 19.7799 55.2829 20.2372 55.2687 20.6772C55.2515 21.1183 55.2028 21.543 55.1429 21.9514C55.084 22.3589 55.0171 22.7541 54.9663 23.1197C54.9399 23.3031 54.9247 23.4793 54.9135 23.6382C54.9074 23.7207 54.9085 23.792 54.9074 23.8643L54.9206 24.0986C54.9491 24.4062 55.017 24.6924 55.1317 24.9389C55.1865 25.0642 55.2566 25.1742 55.3296 25.2781C55.4047 25.3809 55.492 25.4665 55.5813 25.5439C55.763 25.6865 55.9721 25.7833 56.1375 25.7884C56.2187 25.7924 56.2846 25.7843 56.3334 25.768C56.3821 25.7507 56.4186 25.7293 56.4572 25.6855C56.4957 25.6417 56.5414 25.5734 56.5668 25.4685C56.5901 25.3636 56.6124 25.2394 56.6064 25.0937V25.0407V25.0132L56.6033 24.9766L56.5932 24.8309L56.5708 24.5264C56.5587 24.3135 56.5465 24.0955 56.5526 23.8602L56.5576 23.685C56.5617 23.6249 56.5678 23.5638 56.5739 23.5027C56.582 23.3835 56.6064 23.2572 56.6287 23.134C56.65 23.0107 56.6926 22.8855 56.7261 22.7622C56.7738 22.641 56.8195 22.5188 56.8773 22.4027C57.1107 21.9341 57.467 21.5634 57.8415 21.2945C58.217 21.0205 58.6168 20.8422 59.0147 20.6884C59.2329 20.6039 59.4785 20.7129 59.5627 20.9329C59.6327 21.1152 59.5698 21.3159 59.4216 21.4269L59.3932 21.4473Z" fill="black"/>
<path d="M47.1314 29.8718C46.8584 30.8354 46.6412 31.8061 46.5387 32.7808C46.4383 33.7546 46.4616 34.7283 46.6422 35.6583L46.6565 35.7459L46.6788 35.8314L46.7224 36.0026L46.8087 36.3448C46.8757 36.5689 46.9589 36.7879 47.0309 37.0089L47.174 37.3267L47.2451 37.4856C47.2674 37.5385 47.2918 37.5915 47.3222 37.6414L47.4917 37.9439L47.5759 38.0947C47.6064 38.1436 47.6409 38.1904 47.6734 38.2373L47.8682 38.5225L47.9169 38.5938L47.9717 38.66L48.0813 38.7934L48.3006 39.0593L48.5421 39.3057C48.6943 39.4779 48.877 39.6215 49.0465 39.7763C49.1297 39.8558 49.2261 39.921 49.3175 39.9912L49.5945 40.199C50.3577 40.7226 51.2183 41.1137 52.1175 41.3785C52.3388 41.4559 52.5712 41.4997 52.7985 41.5588C52.9122 41.5904 53.0289 41.6067 53.1446 41.6291L53.4917 41.6933C53.7261 41.7228 53.9595 41.7554 54.194 41.7778L54.5471 41.8002L54.7237 41.8124C54.7826 41.8155 54.8415 41.8145 54.9003 41.8155C55.8442 41.8369 56.789 41.732 57.6994 41.5181C57.815 41.4967 57.9247 41.458 58.0373 41.4284L58.3742 41.3327L58.7031 41.2166C58.8127 41.1768 58.9223 41.1432 59.0329 41.0943C59.2531 41.0016 59.4774 40.9161 59.6905 40.8112L60.0143 40.6615L60.3299 40.4985L60.4872 40.417L60.6405 40.3284L60.9459 40.1512C61.1408 40.0218 61.3438 39.9026 61.5295 39.7621C61.9121 39.4952 62.2663 39.1947 62.5982 38.8769C62.6783 38.7954 62.7656 38.7191 62.8417 38.6335L63.0741 38.3809C63.2193 38.2047 63.3674 38.0305 63.4984 37.8441C63.7643 37.4744 64.0028 37.0863 64.1997 36.6768C64.5904 35.8569 64.8289 34.9636 64.907 34.0479C64.9841 33.1323 64.904 32.1962 64.6716 31.2968C64.6137 31.0727 64.5478 30.8476 64.4706 30.6327C64.43 30.5268 64.3925 30.4188 64.3499 30.3129L64.2118 29.9992C64.0149 29.5846 63.7754 29.1853 63.5004 28.8024C62.9534 28.0323 62.2744 27.3234 61.5468 26.6206C61.1824 26.2692 60.813 25.9086 60.4466 25.5297C60.0813 25.1488 59.7169 24.7475 59.3983 24.285C59.0877 23.8196 58.8157 23.2868 58.7071 22.6981C58.6006 22.1104 58.6604 21.5054 58.838 20.9727C58.905 20.772 59.1212 20.6641 59.3211 20.7313C59.5038 20.7934 59.6104 20.9808 59.5748 21.1662L59.5738 21.1703C59.4876 21.6266 59.4987 22.0727 59.6205 22.4842C59.7403 22.8967 59.9778 23.2767 60.269 23.6332C60.8627 24.3482 61.6584 24.9654 62.4388 25.6356C63.2213 26.3059 64.0231 27.0209 64.7081 27.8867C65.0491 28.3185 65.3617 28.785 65.6266 29.2841L65.8153 29.6641C65.8742 29.7934 65.928 29.9248 65.9838 30.0552C66.0904 30.317 66.1817 30.5797 66.2649 30.8476C66.5877 31.9181 66.7257 33.0477 66.6597 34.1742C66.5948 35.2997 66.3238 36.4242 65.8458 37.4581C65.6053 37.9735 65.3191 38.4675 64.9892 38.9289C64.8268 39.1621 64.6462 39.3791 64.4666 39.5981L64.1824 39.9118C64.089 40.0177 63.9845 40.1114 63.8861 40.2123C63.4852 40.6054 63.0549 40.966 62.6002 41.2828C62.3769 41.4498 62.1394 41.5894 61.9081 41.7411L61.5508 41.9479L61.3722 42.0508L61.1895 42.1455L60.8242 42.3329C60.7014 42.392 60.5765 42.447 60.4527 42.504C60.2061 42.6212 59.9524 42.7169 59.7017 42.8188C59.5789 42.8717 59.4439 42.9135 59.313 42.9593L58.9182 43.0938L58.5173 43.2038C58.3834 43.2384 58.2514 43.2812 58.1155 43.3067C57.0387 43.5531 55.9355 43.6397 54.8404 43.5969C54.7724 43.5939 54.7034 43.5939 54.6354 43.5888L54.4304 43.5715L54.0204 43.5358C53.7484 43.5043 53.4775 43.4615 53.2065 43.4207L52.8026 43.3382C52.6686 43.3097 52.5326 43.2863 52.4007 43.2476C52.1358 43.1732 51.8668 43.1141 51.607 43.0204C50.5617 42.6721 49.557 42.175 48.6578 41.5099L48.331 41.2471C48.2224 41.1585 48.1108 41.075 48.0113 40.9752C47.8083 40.7806 47.5972 40.5973 47.4156 40.3803L47.1365 40.0646C47.0502 39.9536 46.967 39.8395 46.8828 39.7264L46.7569 39.5573L46.695 39.4728L46.6392 39.3832L46.418 39.0236C46.3814 38.9635 46.3439 38.9044 46.3094 38.8433L46.215 38.6549L46.0282 38.278C45.9948 38.2159 45.9694 38.1507 45.944 38.0855L45.8679 37.8899L45.7177 37.4886C45.6416 37.2208 45.5573 36.9549 45.4914 36.685L45.4142 36.2765L45.3767 36.0728L45.3574 35.971L45.3473 35.8681L45.3067 35.4576L45.2864 35.2529L45.2772 35.151L45.2752 35.0482C45.2732 34.7752 45.261 34.5022 45.2691 34.2313L45.3229 33.4225L45.4406 32.626C45.6304 31.5728 45.9481 30.5604 46.3347 29.5866C46.421 29.3687 46.6676 29.2627 46.8848 29.3493C47.0878 29.4308 47.1933 29.6518 47.1355 29.8586L47.1314 29.8718Z" fill="black"/>
<path d="M40.1826 74.7048C40.8534 74.4797 41.509 74.1894 42.1291 73.8227C42.7513 73.4601 43.3409 73.0313 43.894 72.5546C44.4471 72.0759 44.9637 71.5493 45.4407 70.985C45.6792 70.7029 45.9065 70.4106 46.1227 70.1101C46.3378 69.8117 46.5469 69.4969 46.7245 69.1883L46.7296 69.1791C46.8016 69.0528 46.963 69.0101 47.0878 69.0824C47.2066 69.1516 47.2512 69.3003 47.1944 69.4226C47.0239 69.7862 46.8392 70.1182 46.6392 70.4523C46.4403 70.7844 46.2282 71.1083 46.0039 71.424C45.5543 72.0555 45.0571 72.6555 44.51 73.2136C43.962 73.7708 43.3653 74.2882 42.7167 74.7425C42.0713 75.2008 41.368 75.5879 40.6302 75.9046C40.3054 76.0442 39.9299 75.8934 39.7909 75.5675C39.6518 75.2416 39.802 74.8647 40.1268 74.7252C40.143 74.718 40.1582 74.7119 40.1745 74.7068L40.1826 74.7048Z" fill="#3D3D3D"/>
<path d="M42.1412 87.0375C42.7146 86.6321 43.2576 86.1595 43.762 85.635C44.2582 85.1023 44.7271 84.5329 45.1605 83.9319C45.5898 83.3279 45.9927 82.6995 46.3651 82.0517C46.7356 81.4049 47.0867 80.7337 47.3861 80.0594L47.3891 80.0512C47.448 79.9178 47.6033 79.8587 47.7362 79.9178C47.8621 79.9738 47.9209 80.1174 47.8773 80.2458C47.6205 80.9812 47.3242 81.684 46.9974 82.3827C46.6696 83.0794 46.3083 83.7618 45.9125 84.429C45.5126 85.0931 45.0681 85.7368 44.581 86.3551C44.0827 86.9662 43.5275 87.5427 42.9044 88.0652C42.6334 88.2924 42.2295 88.2557 42.0042 87.9838C41.7779 87.7118 41.8144 87.3064 42.0854 87.0803C42.0986 87.0691 42.1118 87.0589 42.125 87.0497L42.1412 87.0375Z" fill="#3D3D3D"/>
<path d="M41.2837 89.3018C41.6227 89.0726 41.9515 88.7864 42.2651 88.4716C42.5777 88.1559 42.8801 87.8157 43.1643 87.4531C43.7366 86.7309 44.2573 85.9466 44.7454 85.1379C45.2316 84.3271 45.6852 83.4899 46.1115 82.6363C46.5357 81.7838 46.9406 80.9109 47.3019 80.0359L47.3049 80.0298C47.379 79.8505 47.584 79.765 47.7627 79.8393C47.9311 79.9096 48.0164 80.098 47.9626 80.2702C47.6673 81.2073 47.3374 82.1168 46.9792 83.0264C46.6209 83.934 46.2312 84.8303 45.8009 85.7144C45.3675 86.5975 44.8946 87.4673 44.3405 88.3087C44.0655 88.7293 43.762 89.1408 43.4301 89.5391C43.0963 89.9363 42.7309 90.3224 42.3006 90.6728L42.2955 90.6768C41.9302 90.9742 41.3933 90.9182 41.0969 90.5515C40.8006 90.1849 40.8564 89.646 41.2218 89.3486C41.2411 89.3313 41.2624 89.316 41.2837 89.3018Z" fill="#3D3D3D"/>
<path d="M75.538 113.095C75.538 113.095 72.3634 115.193 70.8523 115.193C72.6639 117.011 73.973 116.85 73.973 116.85C73.973 116.85 70.5133 119.484 71.6033 122.638C79.4879 122.856 80.0075 122.572 82.5559 120.014C83.8772 121.341 88.6553 116.269 89.0216 112.707C87.069 116.534 79.766 115.289 75.538 113.095Z" fill="black"/>
<path d="M72.4477 122.036C73.2596 122.086 74.0674 122.052 74.8529 121.907C75.0498 121.872 75.2436 121.828 75.4365 121.779L75.7247 121.701L76.0089 121.613C76.3844 121.485 76.7538 121.338 77.108 121.159C77.8143 120.799 78.4811 120.355 79.0819 119.824C79.6939 119.305 80.2368 118.7 80.7717 118.075L80.7737 118.073C80.8214 118.018 80.9046 118.011 80.9594 118.059C81.0081 118.101 81.0183 118.17 80.9889 118.224C80.7859 118.592 80.5616 118.95 80.3048 119.286C80.18 119.457 80.042 119.618 79.907 119.782C79.7629 119.937 79.6228 120.098 79.4696 120.246C79.1661 120.544 78.8424 120.826 78.4913 121.072C78.1421 121.319 77.7747 121.544 77.3881 121.732C77.0024 121.921 76.6026 122.08 76.1905 122.199L75.881 122.284L75.5684 122.356C75.3583 122.396 75.1472 122.432 74.9351 122.456C74.0877 122.556 73.2271 122.516 72.406 122.327C72.3269 122.308 72.2782 122.23 72.2964 122.15C72.3117 122.079 72.3776 122.032 72.4477 122.036Z" fill="#3D3D3D"/>
<path d="M72.1705 115.461C72.3156 115.507 72.4496 115.567 72.5856 115.617C72.7246 115.66 72.8555 115.719 72.9935 115.753C73.0615 115.772 73.1285 115.793 73.1955 115.814L73.3995 115.862L73.501 115.886L73.6035 115.904C73.6715 115.915 73.7395 115.93 73.8075 115.938C74.0805 115.977 74.3545 115.987 74.6326 115.983C74.7716 115.981 74.9117 115.974 75.0538 115.963C75.1938 115.95 75.341 115.931 75.478 115.915L75.5003 115.912C75.5734 115.903 75.6393 115.955 75.6475 116.029C75.6525 116.076 75.6333 116.119 75.5998 116.148C75.3308 116.367 75.0233 116.483 74.7006 116.551C74.3778 116.615 74.0419 116.623 73.7172 116.57C73.635 116.56 73.5558 116.537 73.4756 116.521L73.3559 116.492L73.2392 116.454C73.162 116.427 73.0849 116.401 73.0078 116.372C72.9337 116.337 72.8596 116.304 72.7875 116.267L72.6789 116.213L72.5764 116.148C72.5084 116.104 72.4394 116.062 72.3745 116.017C72.2456 115.922 72.1258 115.814 72.0111 115.705C71.9523 115.648 71.9503 115.554 72.0071 115.495C72.0467 115.453 72.1055 115.44 72.1573 115.456L72.1705 115.461Z" fill="#3D3D3D"/>
<path d="M83.4763 119.879C83.7777 119.615 84.0801 119.376 84.341 119.09C84.48 118.958 84.5967 118.804 84.7246 118.664C84.7855 118.59 84.8403 118.512 84.9001 118.438C84.9296 118.4 84.96 118.363 84.9874 118.324L85.0686 118.206C85.2888 117.895 85.4857 117.566 85.6644 117.222C85.846 116.882 86.0094 116.523 86.1627 116.163L86.1667 116.154C86.1961 116.086 86.2743 116.055 86.3413 116.084C86.391 116.105 86.4204 116.153 86.4214 116.203C86.4265 116.425 86.3981 116.632 86.3585 116.841C86.3362 116.944 86.3118 117.048 86.2844 117.151C86.253 117.252 86.2225 117.354 86.186 117.454C86.0419 117.853 85.8379 118.232 85.5862 118.577L85.4928 118.707C85.4604 118.75 85.4248 118.79 85.3913 118.831C85.3223 118.912 85.2543 118.995 85.1813 119.072C85.029 119.222 84.8809 119.375 84.7083 119.502C84.3815 119.774 84.004 119.979 83.6163 120.134C83.5412 120.165 83.456 120.128 83.4255 120.052C83.4022 119.992 83.4194 119.927 83.4651 119.886L83.4763 119.879Z" fill="#3D3D3D"/>
<path d="M55.2992 51.4806C58.8137 49.4751 59.1699 45.0026 62.7179 45.3356C65.9554 45.6392 64.4392 49.0432 62.7859 49.6951" fill="black"/>
<path d="M55.3002 52.601C54.9115 52.601 54.5339 52.3973 54.3289 52.0336C54.0245 51.4958 54.2122 50.8114 54.7481 50.5058C56.0329 49.7734 56.858 48.6082 57.6567 47.4817C58.8238 45.8347 60.1462 43.9666 62.8235 44.2182C65.1638 44.4372 65.6245 45.9406 65.7138 46.5762C65.9554 48.2935 64.5833 50.189 63.1939 50.736C62.6195 50.9621 61.972 50.6779 61.7467 50.1024C61.5214 49.5259 61.8045 48.8761 62.3779 48.65C62.9615 48.4208 63.5806 47.4501 63.5024 46.8899C63.4689 46.6495 63.1695 46.5008 62.6144 46.4489C61.2788 46.3236 60.6537 47.117 59.4754 48.7803C58.5803 50.0434 57.5654 51.4755 55.8513 52.4533C55.6767 52.5541 55.4879 52.601 55.3002 52.601Z" fill="black"/>
<path d="M63.5836 47.7384C66.3857 48.046 68.1252 47.3187 69.7916 46.4998C73.369 44.7428 74.9299 50.9356 68.6549 50.5995" fill="black"/>
<path d="M63.6242 47.3565C64.9547 47.3086 66.2121 47.1222 67.3843 46.6863L67.6045 46.6048L67.8227 46.5152C67.9689 46.4571 68.114 46.3919 68.2591 46.3277C68.5484 46.1943 68.8396 46.0548 69.1319 45.9061C69.2831 45.8276 69.409 45.7635 69.614 45.6677C69.8058 45.5842 70.0057 45.5088 70.2189 45.4528C70.6431 45.3438 71.118 45.3061 71.595 45.4019C72.072 45.4935 72.5338 45.736 72.89 46.0782C73.2483 46.4204 73.4959 46.8584 73.6228 47.3208C73.7445 47.7843 73.7466 48.2763 73.6268 48.7326C73.5081 49.1889 73.2716 49.6034 72.9692 49.9314C72.819 50.0964 72.6525 50.239 72.478 50.3623C72.3034 50.4855 72.1228 50.5925 71.9381 50.677C71.5686 50.8522 71.187 50.953 70.8126 51.0172C70.4371 51.0773 70.0656 51.0936 69.7023 51.0783C69.5206 51.0702 69.341 51.0549 69.1634 51.0345C68.9858 51.0101 68.8102 50.9826 68.6367 50.9459C68.4479 50.9062 68.3271 50.7208 68.3667 50.5313C68.3982 50.3826 68.5189 50.2757 68.661 50.2563L68.6732 50.2543C68.7554 50.2431 68.8376 50.2329 68.9188 50.2248C69 50.2156 69.0812 50.2023 69.1614 50.1911C69.3217 50.1698 69.481 50.1433 69.6363 50.1117C69.9479 50.0485 70.2503 49.9732 70.5314 49.8703C71.0947 49.6686 71.5788 49.362 71.8508 48.9791C72.1217 48.6002 72.1887 48.1571 72.0588 47.7741C71.9979 47.5836 71.8853 47.4186 71.7503 47.2944C71.6143 47.1681 71.4499 47.0896 71.2632 47.0499C71.0754 47.0102 70.8582 47.0224 70.6268 47.0754C70.5111 47.1029 70.3924 47.1436 70.2726 47.1915C70.1691 47.2353 69.9915 47.3219 69.8373 47.3901C69.2009 47.6763 68.5271 47.9452 67.8187 48.1225C67.1133 48.3068 66.3775 48.3944 65.656 48.3924C64.9334 48.3842 64.2219 48.3007 63.541 48.1194H63.5389C63.3319 48.0644 63.2091 47.8525 63.2639 47.6447C63.3096 47.4767 63.4588 47.3626 63.6242 47.3565Z" fill="black"/>
<path d="M65.0957 48.8985C65.0785 48.9953 65.0602 49.0655 65.0369 49.145C65.0155 49.2244 64.9851 49.2957 64.9577 49.3711C64.9313 49.4475 64.8958 49.5168 64.8613 49.5881L64.8085 49.695L64.7496 49.7979C64.7101 49.8661 64.6715 49.9364 64.6268 50.0016L64.4888 50.1941C64.3995 50.3265 64.2879 50.4365 64.1844 50.5567C63.753 51.0191 63.2233 51.3746 62.6671 51.6466C62.5261 51.7097 62.387 51.779 62.2439 51.837C62.0988 51.887 61.9537 51.9379 61.8065 51.9837C61.7334 52.0061 61.6604 52.0326 61.5873 52.052L61.364 52.0998C61.2148 52.1314 61.0656 52.1599 60.9165 52.1884C60.7673 52.2129 60.6161 52.221 60.4659 52.2343C60.3157 52.2455 60.1655 52.2567 60.0163 52.2608C59.7159 52.2516 59.4165 52.2353 59.1201 52.1946C59.0034 52.1783 58.9222 52.0713 58.9385 51.9542C58.9496 51.8727 59.0054 51.8075 59.0775 51.782L59.0927 51.7769C59.3698 51.6781 59.6438 51.6038 59.9168 51.5376C60.1847 51.45 60.4527 51.3767 60.7165 51.3003C60.8464 51.2554 60.9763 51.2106 61.1062 51.1699L61.3011 51.1088L61.4899 51.0354C61.6147 50.9855 61.7416 50.9397 61.8684 50.8939L62.2338 50.7299C62.7158 50.5048 63.1725 50.2379 63.5856 49.9109L63.7368 49.7846L63.8139 49.7225L63.885 49.6543L64.0301 49.5188L64.1671 49.3762L64.2371 49.3049L64.3011 49.2295C64.3417 49.1776 64.3894 49.1287 64.4279 49.0767C64.4685 49.0248 64.5112 48.9718 64.5467 48.9178C64.5863 48.8669 64.6238 48.8048 64.6532 48.764L64.6847 48.7223C64.7608 48.6194 64.9049 48.599 65.0074 48.6754C65.0785 48.7274 65.1099 48.815 65.0957 48.8985Z" fill="#3D3D3D"/>
<path d="M73.1123 49.9416C72.886 50.3795 72.5745 50.7768 72.2132 51.1211C72.1228 51.2066 72.0274 51.2881 71.931 51.3676C71.8316 51.4419 71.7351 51.5234 71.6306 51.5916C71.5271 51.6619 71.4246 51.7342 71.316 51.7964L71.1536 51.8911L70.9872 51.9777C70.0961 52.436 69.0985 52.6509 68.1141 52.6784C67.1276 52.709 66.1462 52.547 65.2278 52.2374C64.3083 51.9288 63.4467 51.4755 62.6906 50.8949C62.5982 50.8236 62.581 50.6912 62.651 50.5985C62.7088 50.5232 62.8073 50.4977 62.8915 50.5283L62.8966 50.5303C63.3299 50.6912 63.7542 50.8562 64.1845 50.9958C64.6127 51.1384 65.0451 51.2586 65.4774 51.3604C66.3421 51.5641 67.22 51.6792 68.0907 51.6619C68.9605 51.6466 69.8231 51.4939 70.6218 51.173C71.0197 51.0111 71.4053 50.8135 71.7585 50.5629C72.1127 50.3133 72.4354 50.018 72.7287 49.6839L72.7328 49.6798C72.818 49.583 72.9652 49.5728 73.0616 49.6584C73.1418 49.7307 73.16 49.8489 73.1123 49.9416Z" fill="#3D3D3D"/>
</svg>
