<svg width="128" height="128" viewBox="0 0 128 128" fill="none" xmlns="http://www.w3.org/2000/svg">
<g clip-path="url(#clip0)">
<path d="M85.1902 77.3281L93.0448 67.2004L84.5671 61.0684L77.9125 71.6873C80.7066 73.6917 80.9884 74.0692 85.1902 77.3281C85.1721 77.0742 85.3979 77.4896 85.1902 77.3281Z" fill="#FCD87F"/>
<path d="M92.1234 83.414C92.1234 83.414 92.3294 83.6612 92.6541 84.042C93.5492 85.0953 95.3377 87.1707 96.1191 87.8696C99.9812 91.323 101.849 89.5938 104.767 85.3706C107.63 81.2282 110.106 78.4556 104.9 75.1802C103.506 74.3016 99.2691 72.1093 99.2691 72.1093" fill="#727272"/>
<path d="M99.7208 91.0445C98.3262 91.0445 96.8855 90.3422 95.2322 88.8636C94.4443 88.1581 92.8437 86.3218 91.6403 84.9058C91.3123 84.5201 91.103 84.2696 91.103 84.2696C90.6315 83.7058 90.7057 82.8651 91.2695 82.3937C91.8332 81.9223 92.6739 81.9964 93.1453 82.5602C93.147 82.5618 93.3514 82.8058 93.6695 83.18C95.247 85.0377 96.4949 86.4191 97.0075 86.8773C98.2273 87.9669 99.1718 88.4548 99.8988 88.3691C100.969 88.2422 102.136 86.8378 103.674 84.6141C103.865 84.3355 104.056 84.0652 104.242 83.7981C105.627 81.82 106.824 80.1123 106.57 78.8579C106.408 78.0568 105.609 77.198 104.193 76.3062C102.861 75.4671 98.7021 73.3127 98.6592 73.2913C98.0064 72.9533 97.7509 72.1506 98.0889 71.4962C98.4268 70.8434 99.2312 70.5879 99.884 70.9258C100.059 71.0165 104.185 73.1544 105.612 74.0512C107.697 75.3633 108.864 76.7628 109.181 78.3288C109.661 80.7024 108.161 82.8437 106.425 85.3229C106.242 85.585 106.054 85.852 105.866 86.1257C104.13 88.6378 102.507 90.7395 100.215 91.0115C100.049 91.0346 99.884 91.0445 99.7208 91.0445Z" fill="black"/>
<path d="M92.5371 69.0664C92.1893 69.0664 91.8381 68.9559 91.5414 68.7251L84.2638 63.0843C83.5533 62.5338 83.4248 61.5118 83.9753 60.803C84.5259 60.0925 85.5479 59.9639 86.2567 60.5145L93.5343 66.1553C94.2448 66.7059 94.3734 67.7279 93.8228 68.4367C93.503 68.8504 93.0233 69.0664 92.5371 69.0664Z" fill="black"/>
<path d="M85.9402 78.97C85.6171 78.97 85.2891 78.8743 85.0056 78.6732L76.9762 73.0159C76.2427 72.4983 76.0663 71.4846 76.5839 70.7494C77.1015 70.0142 78.1153 69.8395 78.8505 70.3571L86.8798 76.0144C87.6134 76.532 87.7897 77.5457 87.2721 78.2809C86.954 78.7309 86.4512 78.97 85.9402 78.97Z" fill="black"/>
<path d="M89.4101 79.6474C86.9968 82.7694 89.4431 85.4712 92.4563 81.6963C93.4717 80.4238 97.685 74.5357 99.1603 71.9428C100.563 69.4768 97.3553 66.9646 96.5971 69.0845C95.7103 71.562 92.9558 74.5126 92.9558 74.5126" fill="#D1D3D4"/>
<path d="M96.5954 69.0828C97.6833 67.0372 94.4954 65.3575 93.3662 67.0075C92.4464 68.351 87.0792 76.0588 85.6633 78.6847C84.4698 80.9002 87.6133 83.137 88.8298 81.243" fill="#D1D3D4"/>
<path d="M89.1958 80.5639C89.1018 80.8952 89.0128 81.2018 88.97 81.4887C88.9222 81.7722 88.9139 82.0326 88.9551 82.2206C88.9914 82.4118 89.0804 82.5008 89.115 82.4892C89.1348 82.4843 89.1398 82.4678 89.148 82.4596C89.1579 82.4497 89.1727 82.4464 89.2123 82.4431C89.2865 82.4381 89.4431 82.4217 89.631 82.3557C89.8205 82.2931 90.0365 82.1859 90.2557 82.0475C90.6958 81.7672 91.1294 81.3584 91.5102 80.8771C91.703 80.6282 91.9107 80.348 92.1135 80.0694L92.7217 79.2238C93.1256 78.6551 93.5278 78.0831 93.9267 77.5078C94.7229 76.3572 95.5075 75.1967 96.2773 74.033C96.663 73.4511 97.0471 72.8692 97.418 72.2857C97.6059 71.9955 97.7922 71.7054 97.9718 71.4153C98.0642 71.2703 98.1532 71.1252 98.2372 70.9834C98.3197 70.845 98.4235 70.6768 98.4647 70.5928C98.6889 70.184 98.7252 69.8048 98.6362 69.5609C98.5933 69.4389 98.5241 69.3433 98.4548 69.2872C98.3839 69.2262 98.3246 69.2131 98.2702 69.2098C98.2422 69.2065 98.2092 69.2131 98.1664 69.2312C98.1235 69.2477 98.0724 69.2757 98.0147 69.3284C97.985 69.3499 97.957 69.3828 97.9257 69.4142C97.9142 69.4224 97.8845 69.4603 97.8581 69.4916L97.7806 69.5856C97.6768 69.7059 97.5713 69.8444 97.4658 69.9746L96.18 71.6082C95.3047 72.7011 94.4262 73.8038 93.4618 74.8456C93.2311 75.0945 92.8437 75.1094 92.5948 74.8786C92.397 74.6956 92.3475 74.4105 92.453 74.1764C92.7464 73.522 93.0745 72.8939 93.4124 72.2692C93.7487 71.6444 94.108 71.0329 94.4723 70.4213C94.8399 69.8114 95.2223 69.2147 95.6344 68.6147C95.7416 68.4647 95.8421 68.3163 95.9575 68.163L96.0416 68.0476C96.0713 68.0081 96.0927 67.9768 96.1405 67.9191C96.2262 67.8169 96.3119 67.718 96.4141 67.6224C96.8031 67.2383 97.3784 66.9119 98.0279 66.8443C98.6741 66.7718 99.3367 66.9548 99.8362 67.3075C100.088 67.4806 100.309 67.6916 100.492 67.924C100.672 68.1597 100.814 68.4169 100.921 68.6823C101.028 68.9493 101.089 69.2246 101.125 69.4999C101.155 69.7735 101.157 70.0455 101.125 70.3059C101.071 70.8318 100.903 71.3065 100.693 71.7285C100.578 71.9593 100.496 72.0895 100.4 72.256C100.308 72.4175 100.215 72.5741 100.121 72.7291C99.9351 73.0406 99.7455 73.3456 99.556 73.6489C99.1719 74.2522 98.7845 74.8489 98.3905 75.4391C97.601 76.6177 96.7965 77.7831 95.9855 78.9435C95.58 79.5238 95.1712 80.1024 94.7591 80.6809L94.1311 81.548C93.9185 81.8381 93.7075 82.1233 93.4668 82.4299C92.9756 83.0513 92.4135 83.6613 91.6882 84.1739C91.3239 84.4294 90.9151 84.6569 90.4337 84.8135C89.9557 84.9668 89.3936 85.0525 88.7722 84.9289C88.4639 84.8662 88.1425 84.7426 87.8524 84.5481C87.7073 84.4492 87.5705 84.3354 87.4485 84.2085C87.3282 84.0783 87.2227 83.9382 87.1337 83.7898C86.9573 83.4931 86.8617 83.1717 86.8238 82.8733C86.7875 82.5717 86.8056 82.2914 86.8567 82.0343C86.9589 81.52 87.1765 81.1013 87.432 80.7518C87.6908 80.4024 87.9892 80.1156 88.3238 79.8897C88.5892 79.71 88.9485 79.7809 89.1282 80.0463C89.2271 80.193 89.2502 80.3678 89.2057 80.526L89.1958 80.5639Z" fill="black"/>
<path d="M96.7603 68.3807C96.663 68.229 96.5542 68.1235 96.4273 68.018C96.302 67.9142 96.1602 67.8153 96.002 67.7262C95.6905 67.5449 95.3245 67.3982 94.9751 67.3108C94.6289 67.2235 94.2811 67.1988 94.0932 67.2564C93.9992 67.2828 93.9547 67.3158 93.9283 67.3438C93.9151 67.3586 93.9036 67.3735 93.8904 67.3966L93.6712 67.7295C92.5008 69.5065 91.3206 71.2687 90.1453 73.0308L88.3848 75.6682C87.8079 76.5468 87.2194 77.4271 86.6919 78.2974L86.3507 78.876C86.2831 78.9947 86.2402 79.1068 86.2188 79.2189C86.1743 79.4398 86.2139 79.6837 86.3523 79.9195C86.4858 80.1535 86.6968 80.3695 86.8996 80.498C87.0018 80.5623 87.0974 80.6184 87.2144 80.6431C87.3331 80.6761 87.4782 80.6678 87.671 80.6052L87.8326 80.5524C88.1623 80.4453 88.5167 80.625 88.6238 80.9546C88.6749 81.1129 88.6601 81.2777 88.5941 81.4162C88.4359 81.7525 88.1326 82.064 87.7419 82.2602C87.3512 82.4514 86.8979 82.5206 86.4809 82.4728C85.6386 82.3756 84.9347 81.9223 84.4451 81.2992C83.9572 80.6761 83.6737 79.837 83.7297 78.9947C83.7545 78.576 83.8583 78.1705 84.0133 77.8062C84.033 77.76 84.0512 77.7139 84.0726 77.671C84.0924 77.6315 84.1171 77.5738 84.1336 77.5474L84.2341 77.3595L84.4369 76.9853C84.9842 76.0193 85.5446 75.1078 86.1232 74.2012C86.6968 73.2929 87.287 72.4011 87.882 71.5126C89.0755 69.7406 90.3019 67.9933 91.5448 66.2658L91.7788 65.941C91.9156 65.7449 92.0838 65.5602 92.2733 65.402C92.6525 65.0822 93.1058 64.8861 93.5278 64.7937C94.3849 64.6174 95.1317 64.7542 95.7844 65.0146C96.4355 65.2833 97.0075 65.6905 97.4575 66.2542C97.6768 66.5377 97.868 66.8641 97.9834 67.235C98.0988 67.6026 98.1284 68.0263 98.0229 68.407C97.929 68.74 97.5828 68.9345 97.2498 68.8422C97.0965 68.7994 96.9729 68.7037 96.8938 68.5801L96.7603 68.3807Z" fill="black"/>
<path d="M95.8405 78.8727C94.2498 81.0288 101.214 87.2614 103.819 84.4129C101.081 89.3037 99.8378 89.7076 99.8378 89.7076L92.1217 83.414L95.8405 78.8727Z" fill="black"/>
<path d="M83.7248 65.4284L91.2365 69.8313C91.8942 70.217 92.1151 71.0626 91.7293 71.7203C91.3436 72.378 90.498 72.5989 89.8403 72.2132C89.7776 72.1769 89.715 72.1308 89.6606 72.0879L82.9434 66.5493C82.6517 66.3086 82.6088 65.8768 82.8511 65.5833C83.0654 65.3196 83.4396 65.2603 83.7248 65.4284Z" fill="black"/>
<path d="M85.0897 71.0526L89.0442 72.9697C89.7365 73.306 90.0266 74.1401 89.6903 74.8324C89.3541 75.5247 88.52 75.8148 87.8276 75.4786C87.6941 75.4126 87.5705 75.3253 87.4683 75.2264L84.3083 72.1735C84.033 71.9081 84.0264 71.4697 84.2918 71.1944C84.5028 70.9735 84.8276 70.9257 85.0897 71.0526Z" fill="black"/>
<path d="M87.8672 50.8433L87.1304 49.7373L87.2342 49.7406C86.8913 42.1448 81.5786 39.1117 76.4109 40.3562L75.3377 40.3497L76.101 39.992C76.101 39.992 76.5691 32.106 69.3442 30.1082C63.5468 28.5059 56.7554 33.3275 51.9256 40.3958L40.2583 40.5969C25.9321 37.5243 20.5913 56.3292 33.9581 55.7968C41.9133 55.4803 43.2946 60.9118 44.7765 65.7399C45.6799 68.6856 46.4859 70.9554 47.3513 72.8049L46.5914 72.3961C41.277 69.3021 34.8433 76.982 51.0239 87.3636C67.2046 97.7468 77.3043 91.5423 71.1904 85.6295L69.9508 84.9619C75.8834 83.8986 83.1775 80.048 88.182 73.2648C96.9498 61.3782 93.8921 49.8049 87.8672 50.8433Z" fill="white"/>
<path d="M50.7997 79.0243C49.7299 78.2281 48.7508 77.2589 47.9183 76.1825C47.7172 75.9088 47.5079 75.6385 47.3249 75.355L47.0414 74.933L46.776 74.5027C46.4265 73.9258 46.115 73.334 45.8166 72.7406C45.2216 71.5505 44.7287 70.3356 44.2721 69.1207C43.8171 67.9059 43.4083 66.6745 43.0193 65.4629C42.6319 64.2612 42.2462 63.109 41.7682 62.0656C41.2918 61.0238 40.7165 60.104 40.0093 59.41C39.3038 58.7127 38.4681 58.2265 37.4922 57.938C36.518 57.6495 35.4219 57.5556 34.2911 57.5951L33.8213 57.6133C33.6432 57.6215 33.4619 57.6215 33.2806 57.6232C32.9179 57.6248 32.552 57.6067 32.1828 57.5753C31.4443 57.5127 30.6926 57.3858 29.941 57.1583C29.1909 56.9341 28.4393 56.6044 27.7403 56.1478C27.0398 55.6945 26.3969 55.1044 25.8826 54.4121C25.3667 53.723 24.9842 52.9384 24.7469 52.134C24.5062 51.3296 24.4106 50.5037 24.4221 49.7042C24.4452 48.0971 24.8837 46.5838 25.5612 45.2305C26.9211 42.5189 29.3195 40.437 32.0822 39.3573C33.4636 38.8166 34.9273 38.5281 36.3763 38.4589C37.8269 38.3929 39.261 38.5512 40.6341 38.8594C41.5901 39.0737 42.1902 40.0216 41.9759 40.9776C41.7649 41.9205 40.8385 42.5172 39.8956 42.3277L39.889 42.326C37.667 41.8777 35.407 41.9782 33.4388 42.781C32.4564 43.1749 31.5481 43.7387 30.7717 44.4426C29.9953 45.1464 29.3459 45.9871 28.8827 46.9036C28.4211 47.8185 28.1491 48.8141 28.1376 49.7537C28.1244 50.6949 28.3651 51.5538 28.8497 52.2131C29.3294 52.8741 30.0745 53.367 31.0075 53.6555C31.4723 53.8005 31.9784 53.8945 32.5059 53.9439C32.7696 53.9687 33.0383 53.9835 33.3119 53.9884C33.4487 53.9901 33.5855 53.9917 33.724 53.9884L34.207 53.9785C35.6131 53.9621 37.0834 54.0972 38.5423 54.5621C39.2692 54.7961 39.9863 55.1143 40.6555 55.5264C41.3248 55.9368 41.9429 56.4396 42.4753 57.0034C43.5484 58.1325 44.2721 59.4496 44.8128 60.7304C45.3534 62.0194 45.7276 63.2969 46.082 64.5266C46.4315 65.7481 46.7809 66.9432 47.1502 68.1333C47.5161 69.3218 47.9051 70.4938 48.3337 71.6312C48.5497 72.1983 48.7771 72.7604 49.031 73.3011L49.2156 73.7115L49.4151 74.1104C49.5436 74.3808 49.6936 74.6346 49.8354 74.8967C50.4107 75.9368 51.1195 76.8913 51.9058 77.8292L51.9157 77.8424C52.2058 78.1886 52.1596 78.7045 51.8135 78.9963C51.5168 79.2435 51.0964 79.2452 50.7997 79.0243Z" fill="black"/>
<path d="M38.6576 21.0354C40.1016 23.0596 39.7505 25.5174 36.579 25.6608C37.1279 27.057 36.5444 29.0169 34.0817 29.1257C34.3784 31.534 33.0317 32.8017 31.4657 33.4676L49.4942 46.6663L55.5224 34.9759L38.6576 21.0354Z" fill="#727272"/>
<path d="M39.3253 22.1794C40.1215 24.5828 38.3758 26.1454 36.5791 25.6625C37.7049 27.6306 36.5444 29.0186 34.0817 29.1274C34.3784 31.5357 33.0317 32.8033 31.4657 33.4693C31.4657 33.4693 28.6651 24.1806 25.3964 21.0305C18.8061 14.6792 26.1348 18.8941 26.6722 19.1051C29.7003 20.2986 39.3253 22.1794 39.3253 22.1794Z" fill="white"/>
<path d="M48.1343 48.2916C47.7799 48.2916 47.4238 48.1762 47.1255 47.9405L28.8036 33.4296L28.8645 32.5725C28.8695 32.5098 29.2602 25.8173 24.6793 21.6502L23.5155 20.5919L24.5359 19.3935C24.8194 19.0606 24.943 18.7787 24.971 18.7078L25.5645 16.344L27.503 17.8951C27.5541 17.933 32.9196 21.876 38.0214 20.0479L38.8703 19.7446L55.8174 33.1346C56.523 33.6917 56.6416 34.7137 56.0845 35.4192C55.5273 36.1248 54.5053 36.2434 53.7998 35.6863L38.234 23.3876C35.0559 24.2431 31.9915 23.6002 29.669 22.7035C31.8102 26.3382 32.1119 30.2054 32.1284 31.9147L49.1447 45.3904C49.8486 45.9475 49.9673 46.9712 49.4101 47.6751C49.0903 48.0806 48.614 48.2916 48.1343 48.2916Z" fill="black"/>
<path d="M27.0612 21.2415C33.129 23.0399 36.2477 23.2673 37.4362 23.2673C37.8384 23.2673 38.0181 23.241 38.0181 23.241C38.7401 23.8542 38.9989 25.6625 37.2994 25.6625C36.8527 25.6625 36.2708 25.5372 35.5257 25.2322C37.0983 27.1114 36.4225 28.6642 34.9208 28.6642C34.4955 28.6642 34.0026 28.5389 33.4768 28.2603C34.6158 29.8692 33.7422 31.6709 32.5108 31.6709C32.3493 31.6709 32.1828 31.6395 32.013 31.5736C32.013 31.5736 30.1108 25.3031 27.0612 21.2415ZM21.8276 17.6018L25.4606 22.4415C28.2662 26.1784 30.0794 32.0945 30.0976 32.1538L30.3794 33.0852L31.2861 33.4379C31.6833 33.5929 32.0954 33.672 32.5108 33.672C33.7702 33.672 34.9356 32.9319 35.5521 31.7401C35.7516 31.356 35.8834 30.9472 35.9527 30.5269C36.9087 30.2598 37.6917 29.6236 38.1055 28.7367C38.2884 28.3428 38.3939 27.9274 38.4236 27.4988C39.3434 27.2153 40.044 26.5707 40.3786 25.6608C40.8649 24.3404 40.4066 22.6443 39.3154 21.7146L38.5901 21.0981L37.7527 21.2547C37.7098 21.2579 37.606 21.2645 37.4362 21.2645C36.4587 21.2645 33.5477 21.075 27.6299 19.3227L21.8276 17.6018Z" fill="black"/>
<path d="M36.7785 29.6251L45.2446 37.5259C45.4391 37.7072 45.449 38.0121 45.2677 38.2066C45.1012 38.3847 44.8292 38.4094 44.6364 38.2709L35.1977 31.5636C34.6339 31.163 34.5004 30.3801 34.9026 29.8147C35.3048 29.2493 36.0862 29.1174 36.6516 29.5196C36.6944 29.5509 36.7406 29.5905 36.7785 29.6251Z" fill="black"/>
<path d="M41.4006 28.8619L53.5855 37.5935C54.1476 37.9957 54.2762 38.7787 53.874 39.3408C53.4718 39.9029 52.6888 40.0314 52.1267 39.6292C52.0987 39.6095 52.069 39.5864 52.0443 39.565L40.6357 29.8411C40.3736 29.6185 40.3423 29.2262 40.5665 28.9641C40.7758 28.7169 41.1418 28.6773 41.4006 28.8619Z" fill="black"/>
<path d="M28.5514 28.6196C27.2541 22.0722 18 16.3176 18 16.3176L22.6633 14C25.2562 15.9006 27.6349 19.3194 34.7658 20.5408C34.1394 21.5843 30.1355 26.5459 28.5514 28.6196Z" fill="black"/>
<path d="M56.917 106.18C56.167 103.083 52.9707 99.5913 53.64 97.2737C54.2252 95.2478 55.7137 92.7736 55.7137 92.7736L49.5767 88.7416L46.3821 87.0981C46.3821 87.0981 44.7485 90.7098 43.2749 92.3977C41.0001 95.0022 35.4038 89.3647 31.7608 94.9363C29.6575 98.1523 31.7823 101.614 35.0395 102.334C38.3973 103.078 42.5875 101.932 45.0947 103.635L45.2562 101.553C46.6557 105.262 43.7496 109.574 49.3871 112.012C52.5603 113.383 58.0214 110.739 56.917 106.18Z" fill="#D0D2D3"/>
<path d="M45.093 105.26C44.7782 105.26 44.46 105.169 44.1815 104.978C43.0902 104.236 41.249 104.241 39.2989 104.246C37.7774 104.251 36.2032 104.255 34.6884 103.92C32.4202 103.419 30.5723 101.904 29.7432 99.8682C28.9635 97.9528 29.1959 95.8841 30.4009 94.0428C33.1586 89.8262 36.973 90.6471 39.4967 91.1894C40.6028 91.4268 41.7468 91.6724 42.0501 91.3246C43.1248 90.0932 44.7881 86.6052 45.3386 85.3656C45.7029 84.5447 46.6639 84.1738 47.4848 84.5381C48.3057 84.9024 48.6766 85.8635 48.3123 86.6844C48.0898 87.1871 46.0903 91.6444 44.5012 93.4642C42.9369 95.256 40.6506 94.7648 38.8143 94.3692C36.2378 93.8153 34.5845 93.5895 33.124 95.8231C32.5125 96.7577 32.3855 97.7319 32.7564 98.6402C33.1768 99.6704 34.1856 100.476 35.3922 100.744C36.556 101.001 37.9456 100.997 39.2907 100.994C41.6479 100.987 44.0858 100.981 46.0095 102.286C46.753 102.791 46.9458 103.803 46.4414 104.546C46.1249 105.011 45.6139 105.26 45.093 105.26Z" fill="black"/>
<path d="M57.3258 92.912L57.1708 93.1609L57.0093 93.4329C56.9021 93.6159 56.7966 93.8038 56.6944 93.9917C56.49 94.3675 56.2972 94.75 56.1175 95.134C55.7647 95.9005 55.4581 96.6835 55.2768 97.4319L55.2422 97.572L55.2339 97.6066C55.2307 97.6198 55.229 97.6297 55.229 97.6314L55.2257 97.6594C55.2158 97.694 55.2175 97.7434 55.2109 97.788C55.2109 97.8918 55.2142 98.0121 55.2372 98.1539C55.2817 98.4374 55.3889 98.7852 55.5274 99.1446C55.8125 99.8732 56.2246 100.658 56.6499 101.47C57.0769 102.286 57.5285 103.137 57.9241 104.082C58.1203 104.555 58.3033 105.054 58.4483 105.595L58.5011 105.798L58.5489 106.017C58.5785 106.163 58.6066 106.312 58.6263 106.463C58.6676 106.765 58.6923 107.073 58.689 107.387C58.6857 108.011 58.5835 108.649 58.3824 109.251C58.1813 109.854 57.8846 110.418 57.5219 110.914C56.7933 111.911 55.8356 112.645 54.807 113.154C53.7735 113.66 52.6526 113.955 51.474 113.992C50.8855 114.008 50.2789 113.957 49.669 113.809C49.364 113.735 49.0591 113.636 48.7607 113.507L48.3931 113.344C48.2711 113.288 48.1508 113.227 48.0288 113.167C47.5458 112.919 47.0562 112.637 46.5881 112.277C46.12 111.918 45.665 111.493 45.2842 110.982C45.0914 110.73 44.9216 110.456 44.7699 110.176C44.6216 109.892 44.4996 109.6 44.3974 109.307C44.1963 108.718 44.0974 108.133 44.0463 107.584C43.9573 106.482 44.0628 105.522 44.1271 104.654C44.1913 103.785 44.2194 103.01 44.1056 102.3C43.9919 101.592 43.7265 100.926 43.2666 100.279C42.8067 99.6358 42.1721 99.0391 41.4748 98.4605L41.4649 98.4523C41.2424 98.2676 41.211 97.938 41.3957 97.7154C41.5308 97.5522 41.7435 97.4929 41.9363 97.544C42.8792 97.7995 43.8172 98.2099 44.6694 98.8676C45.0947 99.194 45.4952 99.5847 45.8348 100.038C46.1777 100.488 46.4562 100.999 46.6672 101.525C47.0892 102.585 47.2194 103.674 47.287 104.644C47.3579 105.618 47.3662 106.505 47.4585 107.24C47.4832 107.421 47.5046 107.598 47.5392 107.761C47.5738 107.922 47.6151 108.076 47.6563 108.221C47.7486 108.507 47.864 108.76 48.0206 108.999C48.1772 109.238 48.3849 109.464 48.6371 109.679C48.8909 109.892 49.1926 110.093 49.5272 110.266C49.6129 110.309 49.6953 110.354 49.7827 110.395L50.0448 110.515C50.1684 110.568 50.3036 110.612 50.447 110.647C50.7338 110.718 51.0536 110.748 51.3849 110.739C52.0492 110.72 52.7531 110.542 53.3746 110.235C53.996 109.93 54.535 109.497 54.8944 109.002C55.2554 108.504 55.4351 107.96 55.44 107.368C55.4416 107.22 55.4301 107.068 55.4087 106.913C55.4004 106.836 55.384 106.759 55.3675 106.679L55.3411 106.561L55.3065 106.43C55.2142 106.079 55.0823 105.71 54.924 105.334C54.6076 104.578 54.1971 103.796 53.7702 102.979C53.3432 102.158 52.8883 101.312 52.4976 100.323C52.3064 99.8237 52.1284 99.2896 52.0262 98.6616C51.9751 98.3501 51.9503 98.0088 51.9619 97.6511C51.9751 97.4665 51.9866 97.2852 52.0245 97.094L52.0509 96.9522C52.0558 96.9258 52.0591 96.9077 52.0641 96.8929L52.0756 96.8434L52.1234 96.6473C52.3806 95.6038 52.7581 94.6642 53.1735 93.7576C53.3844 93.306 53.607 92.8658 53.8427 92.4323C53.9597 92.2147 54.0817 92.0004 54.207 91.7861L54.3982 91.4647C54.4658 91.3543 54.5251 91.257 54.6092 91.1268C55.0955 90.3718 56.1027 90.1542 56.8576 90.6405C57.6043 91.1218 57.8252 92.1125 57.3571 92.8658L57.3258 92.912Z" fill="black"/>
<path d="M46.3656 90.657C47.4865 89.0614 49.1761 89.3977 50.4108 90.24C53.5378 92.3747 50.9943 96.5797 52.2042 99.4677C53.9663 97.211 56.6648 90.3702 56.6648 90.3702L46.8651 85.2816L46.3656 90.657Z" fill="black"/>
<path d="M45.9766 73.4511C45.1722 73.0901 44.3216 73.0077 43.6754 73.2187C43.3523 73.3192 43.0886 73.484 42.8974 73.6901C42.7029 73.8945 42.5825 74.1401 42.5034 74.4253C42.3534 74.9973 42.4474 75.7786 42.7688 76.5797C42.9237 76.9803 43.1298 77.3875 43.3738 77.7864C43.6128 78.1886 43.8914 78.5842 44.193 78.9716C44.498 79.3573 44.8177 79.7397 45.1623 80.1106C45.5084 80.4798 45.8678 80.8425 46.2453 81.1953C46.992 81.9057 47.8046 82.5733 48.6354 83.2228C50.3086 84.5085 52.1135 85.7086 53.9532 86.7916C55.7977 87.8663 57.6983 88.8273 59.6533 89.5806C60.6308 89.9548 61.6182 90.2928 62.6171 90.5483C63.6127 90.8136 64.6166 91.0065 65.6106 91.1087C66.6029 91.2093 67.5903 91.2208 68.5101 91.0939C68.9684 91.0296 69.4085 90.9274 69.8091 90.7889C70.0052 90.7164 70.1981 90.6389 70.3679 90.5466C70.5426 90.4592 70.7025 90.3636 70.841 90.2598C71.1278 90.0537 71.314 89.823 71.4393 89.5806C71.497 89.457 71.5366 89.3268 71.5597 89.185C71.5844 89.0433 71.5926 88.8867 71.5712 88.7169C71.5349 88.3773 71.4014 87.9932 71.1904 87.6092C70.9827 87.2218 70.7025 86.8394 70.3827 86.4668L70.3662 86.447C69.9459 85.9575 70.0019 85.2206 70.4898 84.8003C70.93 84.4212 71.5712 84.4294 72.0014 84.792C72.4828 85.1959 72.9344 85.6641 73.3383 86.2097C73.541 86.4817 73.7224 86.7817 73.8839 87.1047C74.0487 87.4245 74.1773 87.7806 74.2746 88.1564C74.474 88.9048 74.4674 89.7834 74.2004 90.5895C73.9301 91.3922 73.4372 92.0895 72.8718 92.6038C72.308 93.1329 71.6767 93.4989 71.0454 93.7857C70.4124 94.0659 69.7695 94.2637 69.1332 94.4055C67.8574 94.689 66.5947 94.7467 65.3633 94.6956C62.899 94.5786 60.5467 94.0165 58.3132 93.2351C57.1955 92.8428 56.1043 92.3961 55.0444 91.895C53.9828 91.3972 52.946 90.8598 51.9372 90.2779C50.9283 89.6977 49.941 89.0878 48.9816 88.4383C48.0189 87.7921 47.0744 87.1064 46.1579 86.3696C45.2397 85.636 44.3496 84.853 43.504 83.9992C42.66 83.1453 41.8572 82.2255 41.1418 81.1985C40.4297 80.1732 39.7918 79.0408 39.3863 77.7287C39.1868 77.0726 39.0434 76.372 39.022 75.6237C39.0088 75.2511 39.0269 74.8671 39.0896 74.4797C39.1506 74.0923 39.2478 73.7 39.3995 73.3176C39.6962 72.5511 40.2138 71.8373 40.8698 71.3181C41.5259 70.7972 42.3039 70.4691 43.0737 70.3488C43.8452 70.2268 44.6084 70.2829 45.3073 70.4642C46.0062 70.6505 46.6442 70.9554 47.2046 71.3378C47.7634 71.7186 47.9068 72.4818 47.5261 73.0406C47.1865 73.5384 46.5436 73.7066 46.0128 73.4676L45.9766 73.4511Z" fill="black"/>
<path d="M63.2319 83.7898C64.3875 84.0651 65.6287 84.07 66.8584 83.948C68.0914 83.8228 69.3228 83.5524 70.5277 83.1947C72.941 82.4744 75.2553 81.393 77.4098 80.0858C79.5659 78.7754 81.5539 77.2061 83.3325 75.4473C84.2177 74.5621 85.0518 73.6307 85.8216 72.6483C86.0144 72.4027 86.2007 72.1538 86.387 71.9016C86.5749 71.6477 86.7595 71.3922 86.9392 71.1334C87.2985 70.6175 87.643 70.0916 87.9711 69.5559C89.2766 67.4179 90.325 65.1382 90.9662 62.7793C91.2843 61.6007 91.5102 60.4056 91.5876 59.2204C91.6767 58.0385 91.619 56.8616 91.3849 55.7802C91.1525 54.7055 90.7123 53.7247 90.1156 53.1098C89.8156 52.8065 89.4942 52.5889 89.1282 52.4686C88.7623 52.3483 88.3403 52.3186 87.8689 52.3928C87.3991 52.4719 86.8963 52.6549 86.3952 52.917C85.8957 53.1791 85.4012 53.5153 84.9215 53.8945C83.9638 54.661 83.072 55.5956 82.2314 56.5945L82.2248 56.6028C81.9 56.9885 81.3231 57.0396 80.9357 56.7132C80.5961 56.4281 80.517 55.9467 80.7231 55.5725C81.4006 54.3445 82.1951 53.1527 83.2006 52.0648C83.7067 51.5241 84.2655 51.0081 84.9083 50.5515C85.5479 50.0949 86.2798 49.6977 87.1188 49.4405C87.5392 49.3169 87.9843 49.2229 88.4491 49.1932C88.9123 49.1619 89.3936 49.1899 89.8667 49.2806C90.8178 49.4619 91.7146 49.9169 92.4184 50.5103C93.1289 51.1037 93.6795 51.8076 94.1031 52.5362C94.5284 53.2681 94.8333 54.0296 95.0658 54.7928C95.529 56.3226 95.674 57.8655 95.6641 59.3754C95.6361 60.8853 95.4449 62.3705 95.1119 63.8096C94.4476 66.6893 93.2789 69.3943 91.7986 71.8719C91.4261 72.49 91.0371 73.0966 90.6299 73.6901C90.4272 73.9868 90.2178 74.2785 90.0068 74.5687C89.7892 74.8588 89.57 75.1472 89.3442 75.4308C88.4409 76.5649 87.465 77.6413 86.41 78.6303C84.31 80.6199 81.9297 82.2963 79.3763 83.6167C78.7368 83.9447 78.0856 84.2513 77.4263 84.5349C76.7653 84.8151 76.0927 85.0706 75.4119 85.3047C74.0504 85.7646 72.6525 86.1289 71.225 86.3547C69.7992 86.5822 68.342 86.6811 66.8765 86.5838C65.4161 86.4833 63.9259 86.1849 62.5578 85.4876C62.1077 85.2569 61.9281 84.7063 62.1588 84.2546C62.355 83.8706 62.7852 83.6843 63.1858 83.7799L63.2319 83.7898Z" fill="black"/>
<path d="M45.0122 53.8632C45.2331 51.7318 45.726 49.6318 46.3969 47.5943C47.076 45.5586 47.9381 43.5838 48.9684 41.6931C49.4876 40.7502 50.0365 39.8205 50.6365 38.9205C51.2398 38.0237 51.8728 37.1435 52.5586 36.2979C53.9284 34.6066 55.4762 33.0357 57.2334 31.656C57.6719 31.3115 58.1235 30.9768 58.595 30.6637C59.0631 30.3472 59.5477 30.0472 60.0472 29.7669C60.545 29.485 61.0626 29.2246 61.5983 28.9872C62.1324 28.7499 62.683 28.5372 63.2533 28.3575C63.8237 28.1762 64.4105 28.0262 65.0138 27.9174C65.6188 27.8119 66.2386 27.7493 66.8666 27.7312C67.4947 27.7163 68.1326 27.7476 68.7656 27.8465C69.0821 27.8976 69.3969 27.9553 69.7085 28.0345C69.8683 28.0707 70.0151 28.1119 70.1634 28.1531C70.3118 28.1927 70.4601 28.2422 70.6068 28.2883C71.7871 28.6707 72.9508 29.2576 73.9761 30.0587C75.0031 30.8565 75.8718 31.8604 76.5394 32.9483C77.2086 34.0379 77.6735 35.2116 77.985 36.3935C78.1433 36.9853 78.262 37.5836 78.346 38.1886C78.3872 38.4919 78.4202 38.7952 78.4416 39.1051C78.4532 39.26 78.4631 39.4166 78.4697 39.5782L78.4763 39.8254V39.9573V40.0298L78.473 40.1304C78.3955 41.4409 77.2696 42.4398 75.9592 42.3623C74.6487 42.2849 73.6498 41.159 73.7272 39.8485V39.8601L73.7289 39.8518L73.7305 39.8271L73.7355 39.7661L73.7421 39.6276C73.7454 39.532 73.747 39.4315 73.747 39.3293C73.7454 39.1249 73.7355 38.9172 73.719 38.7078C73.6877 38.2891 73.6283 37.8721 73.5459 37.4633C73.3761 36.6473 73.1008 35.8742 72.725 35.1902C71.9783 33.8121 70.7865 32.8329 69.2485 32.2791C69.1513 32.2461 69.0573 32.2098 68.9568 32.1802C68.8579 32.1489 68.759 32.1175 68.6667 32.0945C68.4804 32.0401 68.2908 32.0021 68.1013 31.9659C67.7188 31.895 67.3249 31.867 66.926 31.8653C66.1265 31.862 65.2973 32.0071 64.4715 32.2577C62.8182 32.7687 61.206 33.7132 59.7159 34.8539C58.2191 35.9979 56.8493 37.3644 55.5735 38.8216C54.9372 39.5535 54.324 40.3117 53.7438 41.098C53.1602 41.8826 52.6014 42.6887 52.0756 43.5179C51.019 45.1745 50.0695 46.9086 49.2502 48.707C48.4227 50.5021 47.7354 52.3632 47.1782 54.2736L47.1749 54.2835C47.0035 54.8704 46.3903 55.2066 45.8034 55.0352C45.2825 54.8868 44.9578 54.3841 45.0122 53.8632Z" fill="black"/>
<path d="M56.6894 56.072C56.6746 56.1033 56.6482 56.1857 56.6268 56.25C56.6037 56.3143 56.5823 56.3918 56.5609 56.4626C56.5147 56.606 56.4735 56.756 56.4323 56.9061C56.3466 57.2044 56.274 57.516 56.1982 57.8242C56.0581 58.4456 55.9279 59.077 55.8273 59.7149C55.6213 60.9908 55.4729 62.2881 55.4136 63.5952C55.3592 64.9008 55.3427 66.2195 55.435 67.5333C55.4597 68.1943 55.5389 68.8487 55.6032 69.508C55.6295 69.8394 55.6872 70.1641 55.7334 70.4938L55.8768 71.4795L55.8817 71.5158C55.9394 71.918 55.6625 72.2905 55.2603 72.3482C54.8927 72.401 54.5498 72.1735 54.4493 71.8273L54.1575 70.8317C54.0636 70.4987 53.9548 70.1674 53.8789 69.8295C53.7174 69.1553 53.5361 68.4827 53.4141 67.797C53.124 66.4338 52.9426 65.0475 52.8058 63.6513C52.6723 62.2534 52.6328 60.8441 52.6608 59.4264C52.6723 58.7176 52.7168 58.0055 52.7745 57.2901C52.8091 56.9308 52.8421 56.5731 52.8915 56.2104C52.9146 56.0291 52.9377 55.8478 52.969 55.6615C52.9839 55.5676 52.9954 55.4785 53.0152 55.3796C53.0333 55.2791 53.0465 55.1967 53.0762 55.0648L53.124 54.8521C53.3547 53.8301 54.3702 53.1889 55.3905 53.4197C56.4125 53.6505 57.0537 54.6659 56.823 55.6862C56.7916 55.8198 56.7438 55.9549 56.6894 56.072Z" fill="black"/>
<path d="M69.9837 60.0677C69.9343 60.1122 69.87 60.1732 69.809 60.2326C69.748 60.2903 69.6854 60.3513 69.6227 60.4139C69.4975 60.5392 69.3705 60.6595 69.2469 60.7897C68.9964 61.0436 68.7491 61.3024 68.5035 61.5661C68.2546 61.8266 68.0172 62.0986 67.7733 62.3656L67.0611 63.1848C66.1232 64.2876 65.2364 65.4382 64.4023 66.6267C63.56 67.8102 62.8083 69.0531 62.1094 70.3257L61.605 71.2916C61.4418 71.6164 61.3 71.9477 61.1451 72.2774L60.9176 72.7736C60.8451 72.94 60.7841 73.1098 60.7165 73.278L60.3192 74.2934L60.3011 74.3395C60.1527 74.717 59.7275 74.9033 59.35 74.7566C59.0022 74.6214 58.8159 74.2489 58.9049 73.8945L59.1835 72.7752C59.2313 72.5889 59.2741 72.3994 59.3269 72.2147L59.4983 71.6642C59.6154 71.2982 59.7225 70.9257 59.8494 70.5631L60.25 69.4801C60.8121 68.0476 61.4385 66.6349 62.1638 65.2767C62.8808 63.9134 63.6605 62.5832 64.5012 61.2892L65.1441 60.3249C65.3666 60.0084 65.5825 59.687 65.8117 59.3738C66.0391 59.0589 66.2683 58.7457 66.5056 58.4342C66.621 58.2776 66.7463 58.1226 66.8666 57.9677L67.0546 57.732C67.1172 57.6528 67.1798 57.577 67.2573 57.4847L67.2969 57.4385C67.9727 56.6473 69.1612 56.555 69.9524 57.2309C70.7437 57.9067 70.836 59.0952 70.1601 59.8864C70.1123 59.9474 70.0447 60.0133 69.9837 60.0677Z" fill="black"/>
<path d="M78.5389 71.3774C78.4532 71.4466 78.3823 71.4977 78.3114 71.5521C78.2406 71.6065 78.168 71.6593 78.0988 71.7087C77.9587 71.8093 77.8186 71.9131 77.6785 72.0071C77.3999 72.2032 77.118 72.3911 76.8361 72.5758C76.5559 72.7637 76.2674 72.9368 75.9839 73.1181C75.6987 73.2945 75.407 73.4626 75.1201 73.634C73.9613 74.3066 72.7679 74.9132 71.5464 75.4572C70.3299 76.0077 69.0639 76.4561 67.7848 76.8385L66.8172 77.1023C66.4941 77.1847 66.1628 77.244 65.8364 77.3149L65.3468 77.4171C65.182 77.4468 65.0155 77.4666 64.8507 77.4913L63.86 77.6314C63.4578 77.6874 63.0869 77.4089 63.0308 77.0067C62.9797 76.6424 63.2056 76.3028 63.5484 76.2006L63.6028 76.1841L64.4913 75.9204C64.638 75.8759 64.7864 75.8363 64.9331 75.7868L65.3682 75.6253C65.6567 75.5149 65.9485 75.4176 66.232 75.2973L67.0793 74.9247C68.1969 74.4005 69.2865 73.8236 70.3233 73.1511C71.3635 72.4884 72.369 71.7713 73.33 71.0048C73.5674 70.8087 73.808 70.6175 74.0421 70.4197C74.2729 70.2185 74.5102 70.024 74.7361 69.818C74.9635 69.6152 75.1894 69.4108 75.407 69.2015C75.5191 69.0993 75.6229 68.9938 75.73 68.8899C75.7844 68.8372 75.8355 68.7861 75.885 68.735C75.9361 68.6839 75.9872 68.6311 76.0202 68.5932C76.7092 67.8119 77.9026 67.7361 78.684 68.4251C79.4653 69.1141 79.5411 70.3076 78.8521 71.0889C78.7812 71.168 78.707 71.2406 78.6279 71.3048L78.5389 71.3774Z" fill="black"/>
<path d="M66.6804 48.9179C66.9293 47.6256 67.3678 46.3514 67.976 45.1365C68.5925 43.9266 69.3788 42.7694 70.3678 41.7672C71.3503 40.7633 72.5075 39.8897 73.8113 39.2402C75.1119 38.5875 76.5625 38.1704 78.0741 38.0534C79.5824 37.9363 81.1583 38.1358 82.6319 38.7045C82.8132 38.7803 82.9929 38.8627 83.1726 38.9452L83.4413 39.0704L83.5748 39.1347L83.7034 39.2089L84.216 39.5106C84.3001 39.5617 84.3875 39.6111 84.4699 39.6655L84.7106 39.8402L85.1853 40.1979C85.3452 40.315 85.4804 40.4584 85.6287 40.5903C85.7738 40.7238 85.9188 40.8589 86.0606 40.9958L86.4496 41.4359C86.5749 41.5859 86.715 41.726 86.8255 41.8859L87.1634 42.359C87.3958 42.6722 87.5705 43.0117 87.7568 43.3447C87.9546 43.6761 88.0881 44.0255 88.2414 44.37C88.4046 44.7129 88.5052 45.0673 88.6189 45.4201C89.0524 46.8311 89.2321 48.2602 89.2321 49.6515C89.2338 50.7576 88.337 51.6559 87.231 51.6559C86.2089 51.6576 85.3666 50.8927 85.2413 49.9053L85.2314 49.8312C85.093 48.7482 84.8919 47.708 84.5523 46.7618C84.46 46.5294 84.3891 46.2855 84.2754 46.0728C84.1682 45.8552 84.0825 45.6212 83.9506 45.425C83.827 45.2222 83.7199 45.0063 83.5732 44.8283L83.3737 44.5415C83.3094 44.4442 83.2253 44.3684 83.1528 44.2794L82.9303 44.0189L82.683 43.7898C82.599 43.7156 82.5264 43.6266 82.4341 43.5623L82.1654 43.3612L82.0336 43.2557C81.9874 43.2244 81.938 43.1964 81.8918 43.1667L81.6083 42.987L81.5374 42.9409L81.4616 42.9046L81.3099 42.8321L81.0083 42.6804C80.1775 42.326 79.2461 42.1463 78.2818 42.1546C77.3158 42.1612 76.3202 42.3557 75.3575 42.7167C74.3965 43.0826 73.4652 43.6002 72.6047 44.2546C71.7426 44.9058 70.9481 45.692 70.2442 46.5789C69.5321 47.4624 68.9172 48.4482 68.337 49.4932L68.3222 49.5213C68.0848 49.9482 67.5458 50.1031 67.1172 49.8658C66.7776 49.6696 66.6111 49.2839 66.6804 48.9179Z" fill="black"/>
<path d="M65.0567 86.3448C69.0293 87.2053 67.8095 91.4895 64.0083 90.8647C64.7583 92.1999 71.4986 92.3746 71.4986 92.3746L71.9997 84.7195L65.0567 86.3448Z" fill="black"/>
<path d="M47.9184 76.227C45.7293 73.006 41.882 75.2891 44.0875 78.8545C41.2721 78.3221 40.2567 72.9434 40.2567 72.9434L43.1347 71.4104L47.1387 71.567L47.9184 76.227Z" fill="black"/>
<path d="M83.5138 44.7295C84.9215 48.3263 84.1336 50.9011 82.7984 52.528C83.6177 53.5154 87.8672 50.8417 87.8672 50.8417L86.4446 44.9092L83.5138 44.7295Z" fill="black"/>
<path d="M90.7931 73.4577C87.765 78.0666 92.4134 79.7233 93.7701 77.7436C94.2481 80.3085 89.5667 83.5805 89.1166 83.714C87.6282 84.1542 84.2951 79.1974 85.9386 77.0133C88.0798 74.1665 91.7359 72.0236 90.7931 73.4577Z" fill="black"/>
<path d="M89.2337 80.4634C88.609 81.4326 89.4843 82.4464 90.3596 81.9552C90.4222 83.6843 87.5771 84.2761 87.8952 82.0837C88.2133 79.8914 89.2337 80.4634 89.2337 80.4634Z" fill="black"/>
</g>
<defs>
<clipPath id="clip0">
<rect width="91.2683" height="100" fill="white" transform="translate(18 14)"/>
</clipPath>
</defs>
</svg>
