<svg width="193" height="192" viewBox="0 0 193 192" fill="none" xmlns="http://www.w3.org/2000/svg">
<g filter="url(#filter0_dd)">
<path d="M76.4078 98.1719C76.4078 116.266 99.117 116.208 99.117 94.9249C99.117 90.4576 95.6915 82.8378 88.4078 82.8378C81.6001 82.8232 76.4078 89.6295 76.4078 98.1719ZM92.778 97.5109C92.778 107.949 83.2299 107.201 83.2299 98.4915C83.2299 88.9903 92.778 89.1574 92.778 97.4964V97.5109ZM80.1212 113.746C80.1879 113.785 80.2467 113.836 80.2931 113.897V113.897C80.4837 114.148 80.4263 114.511 80.1648 114.687C71.3527 120.637 61.5018 117.445 54.8461 110.908C54.1433 110.218 52.8687 110.76 52.9798 111.739C53.6375 117.535 54.7482 123.271 56.3022 128.894C56.4237 129.333 56.2378 129.8 55.8468 130.034C55.0607 130.505 53.6677 131.353 52.1657 132.325C51.6041 132.688 50.8463 132.417 50.6505 131.778C47.92 122.86 45.876 115.43 44.3826 107.5C44.2645 106.873 43.6003 106.51 43.0086 106.749C40.9434 107.583 38.8741 108.36 36.8208 109.072C36.2526 109.269 35.6434 108.918 35.5211 108.329C35.3477 107.494 35.177 106.692 35.0103 105.924C34.9051 105.439 35.1699 104.95 35.6325 104.771C38.0931 103.818 40.45 102.815 42.7032 101.763C43.1012 101.577 43.3277 101.152 43.2656 100.717C42.0537 92.2234 41.3665 82.6385 41.0776 69.8675C41.069 69.4888 41.2755 69.135 41.6117 68.9604C45.1056 67.1458 48.6981 65.531 52.372 64.1238C53.0693 63.8567 53.7939 64.4309 53.7084 65.1727C52.5623 75.1148 52.0038 85.1167 52.0357 95.1255C52.0381 95.8969 52.888 96.3616 53.5433 95.9547C80.2805 79.3548 84.739 57.7119 61.2924 57.7119C47.1739 57.7119 23.3803 68.1154 8.39859 77.8874C7.57898 78.422 5.36213 77.5014 5.1813 76.5397C4.62268 73.5687 3.74102 68.7733 2.89084 63.4569C2.82296 63.0325 3.03242 62.6126 3.41532 62.4173C10.8236 58.6387 34.1257 48 56.8645 48C76.826 48 85.4078 56.2809 85.4078 65.9201C85.4078 80.1107 71.231 92.703 54.349 101.522C53.8094 101.803 53.6367 102.499 54.0187 102.973C58.5493 108.595 65.5477 110.137 72.5203 106.338C73.0952 106.025 73.8307 106.294 74.0834 106.898C75.2882 109.778 77.4058 112.19 80.1212 113.746ZM124.232 104.493C123.573 104.631 122.961 104.086 123.012 103.415C124.8 79.8429 124.881 75.9948 125.582 69.3565C125.65 68.7081 125.096 68.1661 124.451 68.2648C122.8 68.5179 119.799 69.009 117.046 69.6254C116.573 69.7312 116.25 70.1657 116.276 70.6495C116.332 71.685 116.381 72.7254 116.423 73.7732C116.455 74.5544 115.6 75.0812 114.854 74.8469C114.015 74.5832 113.136 74.4524 112.249 74.4625C97.7612 74.4625 97.9126 101.034 110.72 101.034C111.958 101.029 113.168 100.744 114.266 100.214C115.07 99.8255 116.194 100.387 116.148 101.279C116.068 102.822 115.977 104.401 115.877 106.014C115.851 106.427 115.568 106.782 115.174 106.909C95.3093 113.298 83.9078 124.955 83.9078 133.663C83.9078 139.889 87.2756 144 94.8549 144C106.204 144 116.652 132.251 120.13 119.501C120.31 118.842 119.768 118.221 119.09 118.304C117.403 118.51 115.727 118.804 114.069 119.184C113.751 119.257 113.488 119.49 113.367 119.793C107.002 135.727 100.747 139.642 94.3934 139.642C91.1121 139.642 88.891 137.956 88.891 134.557C88.891 124.496 106.956 113.143 131.05 113.143C147.463 113.143 159.937 116.515 163.56 117.611C164.136 117.786 164.744 117.429 164.867 116.841C166.284 110.073 167.03 106.212 167.34 104.559C167.441 104.021 167.093 103.511 166.552 103.427C161.173 102.593 142.383 100.669 124.232 104.493ZM113.295 95.1138C106.393 95.1138 106.949 82.0896 113.093 82.0896C113.766 82.0859 114.431 82.2325 115.041 82.5189C115.542 82.7544 115.996 83.0797 116.381 83.478C116.542 83.6449 116.619 83.8726 116.619 84.1046C116.616 87.066 116.568 90.1234 116.472 93.3292C116.465 93.5579 116.382 93.7806 116.219 93.9406C115.874 94.2772 115.474 94.5513 115.034 94.7499C114.488 94.9971 113.894 95.1212 113.295 95.1138ZM130.033 60.3632C130.052 59.6096 130.224 58.8679 130.537 58.1833C130.85 57.4987 131.299 56.8855 131.855 56.3812C132.411 55.877 133.064 55.4921 133.772 55.2502C134.481 55.0083 135.232 54.9143 135.978 54.9741C136.724 55.0339 137.45 55.2461 138.112 55.5979C138.774 55.9497 139.357 56.4336 139.828 57.0201C140.298 57.6066 140.644 58.2835 140.846 59.0094C141.048 59.7353 141.101 60.495 141.002 61.2421C140.982 61.9957 140.811 62.7374 140.498 63.422C140.184 64.1066 139.736 64.7198 139.18 65.2241C138.623 65.7284 137.971 66.1132 137.262 66.3551C136.553 66.5971 135.803 66.691 135.057 66.6312C134.311 66.5714 133.585 66.3592 132.923 66.0074C132.261 65.6557 131.677 65.1718 131.207 64.5852C130.737 63.9987 130.39 63.3218 130.188 62.596C129.987 61.8701 129.934 61.1104 130.033 60.3632ZM140.329 80.4379C140.148 80.9086 140.347 81.4411 140.799 81.6636C141.557 82.0362 142.332 82.3733 143.12 82.674C143.517 82.8252 143.782 83.2024 143.802 83.6263C144.09 89.883 148.188 94.7288 153.882 94.7288C157.642 94.7288 161.292 92.1953 163.456 89.8142C163.771 89.4678 163.772 88.9469 163.482 88.5793L162.68 87.5621C162.298 87.0774 161.565 87.0441 161.097 87.4466C160.064 88.3351 158.226 89.6368 156.326 89.6368C154.052 89.6368 151.856 88.5029 151.042 85.6741C150.866 85.0631 151.392 84.5139 152.028 84.5218C159.021 84.6086 165.463 80.6671 165.463 73.8668C165.463 69.7554 162.341 66.7482 157.992 66.7482C151.857 66.7482 146.469 72.239 144.552 78.3188C144.374 78.8823 143.771 79.2115 143.221 78.9935C142.876 78.8562 142.532 78.7119 142.192 78.5608C141.67 78.3287 141.058 78.5596 140.85 79.0923C140.679 79.5305 140.486 80.0292 140.329 80.4379ZM159.759 74.724C159.759 77.2185 157.353 80.349 152.051 80.5388C151.45 80.5603 151.003 80.0059 151.144 79.4209C153.007 71.679 159.759 69.9331 159.759 74.7094V74.724ZM128.418 83.6005C128.373 79.2043 128.899 74.8213 129.982 70.563C130.013 70.4426 130.111 70.3515 130.233 70.3294V70.3294C130.286 70.3198 130.341 70.3239 130.392 70.3408C132.514 71.0418 134.771 71.1461 136.924 70.6638C137.783 70.4712 138.652 71.3133 138.376 72.1498C136.751 77.0868 135.881 81.7332 135.881 85.5036C135.881 89.8896 137.967 91.5221 140.411 89.5157C141.06 88.9824 142.176 89.183 142.522 89.9488C142.65 90.2339 142.79 90.5141 142.94 90.7889C143.129 91.1358 143.125 91.5635 142.886 91.8787C141.132 94.1975 138.874 95.615 136.228 95.615C131.547 95.6077 128.418 90.7554 128.418 83.6005Z" fill="url(#paint0_radial)"/>
<path d="M76.4078 98.1719C76.4078 116.266 99.117 116.208 99.117 94.9249C99.117 90.4576 95.6915 82.8378 88.4078 82.8378C81.6001 82.8232 76.4078 89.6295 76.4078 98.1719ZM92.778 97.5109C92.778 107.949 83.2299 107.201 83.2299 98.4915C83.2299 88.9903 92.778 89.1574 92.778 97.4964V97.5109ZM80.1212 113.746C80.1879 113.785 80.2467 113.836 80.2931 113.897V113.897C80.4837 114.148 80.4263 114.511 80.1648 114.687C71.3527 120.637 61.5018 117.445 54.8461 110.908C54.1433 110.218 52.8687 110.76 52.9798 111.739C53.6375 117.535 54.7482 123.271 56.3022 128.894C56.4237 129.333 56.2378 129.8 55.8468 130.034C55.0607 130.505 53.6677 131.353 52.1657 132.325C51.6041 132.688 50.8463 132.417 50.6505 131.778C47.92 122.86 45.876 115.43 44.3826 107.5C44.2645 106.873 43.6003 106.51 43.0086 106.749C40.9434 107.583 38.8741 108.36 36.8208 109.072C36.2526 109.269 35.6434 108.918 35.5211 108.329C35.3477 107.494 35.177 106.692 35.0103 105.924C34.9051 105.439 35.1699 104.95 35.6325 104.771C38.0931 103.818 40.45 102.815 42.7032 101.763C43.1012 101.577 43.3277 101.152 43.2656 100.717C42.0537 92.2234 41.3665 82.6385 41.0776 69.8675C41.069 69.4888 41.2755 69.135 41.6117 68.9604C45.1056 67.1458 48.6981 65.531 52.372 64.1238C53.0693 63.8567 53.7939 64.4309 53.7084 65.1727C52.5623 75.1148 52.0038 85.1167 52.0357 95.1255C52.0381 95.8969 52.888 96.3616 53.5433 95.9547C80.2805 79.3548 84.739 57.7119 61.2924 57.7119C47.1739 57.7119 23.3803 68.1154 8.39859 77.8874C7.57898 78.422 5.36213 77.5014 5.1813 76.5397C4.62268 73.5687 3.74102 68.7733 2.89084 63.4569C2.82296 63.0325 3.03242 62.6126 3.41532 62.4173C10.8236 58.6387 34.1257 48 56.8645 48C76.826 48 85.4078 56.2809 85.4078 65.9201C85.4078 80.1107 71.231 92.703 54.349 101.522C53.8094 101.803 53.6367 102.499 54.0187 102.973C58.5493 108.595 65.5477 110.137 72.5203 106.338C73.0952 106.025 73.8307 106.294 74.0834 106.898C75.2882 109.778 77.4058 112.19 80.1212 113.746ZM124.232 104.493C123.573 104.631 122.961 104.086 123.012 103.415C124.8 79.8429 124.881 75.9948 125.582 69.3565C125.65 68.7081 125.096 68.1661 124.451 68.2648C122.8 68.5179 119.799 69.009 117.046 69.6254C116.573 69.7312 116.25 70.1657 116.276 70.6495C116.332 71.685 116.381 72.7254 116.423 73.7732C116.455 74.5544 115.6 75.0812 114.854 74.8469C114.015 74.5832 113.136 74.4524 112.249 74.4625C97.7612 74.4625 97.9126 101.034 110.72 101.034C111.958 101.029 113.168 100.744 114.266 100.214C115.07 99.8255 116.194 100.387 116.148 101.279C116.068 102.822 115.977 104.401 115.877 106.014C115.851 106.427 115.568 106.782 115.174 106.909C95.3093 113.298 83.9078 124.955 83.9078 133.663C83.9078 139.889 87.2756 144 94.8549 144C106.204 144 116.652 132.251 120.13 119.501C120.31 118.842 119.768 118.221 119.09 118.304C117.403 118.51 115.727 118.804 114.069 119.184C113.751 119.257 113.488 119.49 113.367 119.793C107.002 135.727 100.747 139.642 94.3934 139.642C91.1121 139.642 88.891 137.956 88.891 134.557C88.891 124.496 106.956 113.143 131.05 113.143C147.463 113.143 159.937 116.515 163.56 117.611C164.136 117.786 164.744 117.429 164.867 116.841C166.284 110.073 167.03 106.212 167.34 104.559C167.441 104.021 167.093 103.511 166.552 103.427C161.173 102.593 142.383 100.669 124.232 104.493ZM113.295 95.1138C106.393 95.1138 106.949 82.0896 113.093 82.0896C113.766 82.0859 114.431 82.2325 115.041 82.5189C115.542 82.7544 115.996 83.0797 116.381 83.478C116.542 83.6449 116.619 83.8726 116.619 84.1046C116.616 87.066 116.568 90.1234 116.472 93.3292C116.465 93.5579 116.382 93.7806 116.219 93.9406C115.874 94.2772 115.474 94.5513 115.034 94.7499C114.488 94.9971 113.894 95.1212 113.295 95.1138ZM130.033 60.3632C130.052 59.6096 130.224 58.8679 130.537 58.1833C130.85 57.4987 131.299 56.8855 131.855 56.3812C132.411 55.877 133.064 55.4921 133.772 55.2502C134.481 55.0083 135.232 54.9143 135.978 54.9741C136.724 55.0339 137.45 55.2461 138.112 55.5979C138.774 55.9497 139.357 56.4336 139.828 57.0201C140.298 57.6066 140.644 58.2835 140.846 59.0094C141.048 59.7353 141.101 60.495 141.002 61.2421C140.982 61.9957 140.811 62.7374 140.498 63.422C140.184 64.1066 139.736 64.7198 139.18 65.2241C138.623 65.7284 137.971 66.1132 137.262 66.3551C136.553 66.5971 135.803 66.691 135.057 66.6312C134.311 66.5714 133.585 66.3592 132.923 66.0074C132.261 65.6557 131.677 65.1718 131.207 64.5852C130.737 63.9987 130.39 63.3218 130.188 62.596C129.987 61.8701 129.934 61.1104 130.033 60.3632ZM140.329 80.4379C140.148 80.9086 140.347 81.4411 140.799 81.6636C141.557 82.0362 142.332 82.3733 143.12 82.674C143.517 82.8252 143.782 83.2024 143.802 83.6263C144.09 89.883 148.188 94.7288 153.882 94.7288C157.642 94.7288 161.292 92.1953 163.456 89.8142C163.771 89.4678 163.772 88.9469 163.482 88.5793L162.68 87.5621C162.298 87.0774 161.565 87.0441 161.097 87.4466C160.064 88.3351 158.226 89.6368 156.326 89.6368C154.052 89.6368 151.856 88.5029 151.042 85.6741C150.866 85.0631 151.392 84.5139 152.028 84.5218C159.021 84.6086 165.463 80.6671 165.463 73.8668C165.463 69.7554 162.341 66.7482 157.992 66.7482C151.857 66.7482 146.469 72.239 144.552 78.3188C144.374 78.8823 143.771 79.2115 143.221 78.9935C142.876 78.8562 142.532 78.7119 142.192 78.5608C141.67 78.3287 141.058 78.5596 140.85 79.0923C140.679 79.5305 140.486 80.0292 140.329 80.4379ZM159.759 74.724C159.759 77.2185 157.353 80.349 152.051 80.5388C151.45 80.5603 151.003 80.0059 151.144 79.4209C153.007 71.679 159.759 69.9331 159.759 74.7094V74.724ZM128.418 83.6005C128.373 79.2043 128.899 74.8213 129.982 70.563C130.013 70.4426 130.111 70.3515 130.233 70.3294V70.3294C130.286 70.3198 130.341 70.3239 130.392 70.3408C132.514 71.0418 134.771 71.1461 136.924 70.6638C137.783 70.4712 138.652 71.3133 138.376 72.1498C136.751 77.0868 135.881 81.7332 135.881 85.5036C135.881 89.8896 137.967 91.5221 140.411 89.5157C141.06 88.9824 142.176 89.183 142.522 89.9488C142.65 90.2339 142.79 90.5141 142.94 90.7889C143.129 91.1358 143.125 91.5635 142.886 91.8787C141.132 94.1975 138.874 95.615 136.228 95.615C131.547 95.6077 128.418 90.7554 128.418 83.6005Z" fill="black"/>
<path d="M80.7244 115.516C71.3789 121.826 61.0041 118.358 54.1454 111.622C54.13 111.607 54.1179 111.602 54.1007 111.599C54.0769 111.596 54.0424 111.599 54.0079 111.614C53.9918 111.621 53.981 111.628 53.9743 111.634C54.6262 117.375 55.7267 123.057 57.2661 128.627C57.5069 129.498 57.1387 130.425 56.361 130.892C55.5806 131.36 54.198 132.201 52.7089 133.164C51.5984 133.883 50.0874 133.354 49.6943 132.071C46.9595 123.138 44.9033 115.668 43.3999 107.685L43.3992 107.682L80.7244 115.516ZM80.7244 115.516C81.4685 115.013 81.622 113.995 81.0902 113.293C80.9599 113.121 80.798 112.982 80.6184 112.879C78.0955 111.433 76.1265 109.19 75.0059 106.512C74.5305 105.375 73.151 104.856 72.0419 105.46C68.7329 107.263 65.4747 107.771 62.5427 107.206C59.6289 106.646 56.963 105.012 54.8371 102.395C63.3295 97.9561 71.1879 92.5462 76.9383 86.4197C82.6907 80.2911 86.4078 73.3625 86.4078 65.9201C86.4078 60.7691 84.0991 55.9871 79.1983 52.5283C74.3306 49.0929 66.9664 47 56.8645 47C33.8767 47 10.3965 57.734 2.96096 61.5265C2.18541 61.9221 1.76817 62.7693 1.90339 63.6149C2.75563 68.9441 3.63916 73.7495 4.19852 76.7245C4.3037 77.2838 4.66718 77.7071 4.99021 77.987C5.33227 78.2833 5.7484 78.5235 6.16519 78.6975C6.58218 78.8716 7.04515 78.9983 7.49554 79.0344C7.92071 79.0685 8.47345 79.0325 8.94491 78.725C16.3773 73.8772 26.0117 68.8633 35.5396 65.064C45.0927 61.2547 54.4273 58.7119 61.2924 58.7119C67.0303 58.7119 70.8524 60.0402 73.0522 62.0853C75.2036 64.0856 75.9666 66.9272 75.257 70.4086C74.5405 73.9233 72.3224 78.0317 68.5779 82.3183C64.8463 86.5902 59.6416 90.9892 53.0356 95.0929C53.005 85.1333 53.5614 75.1805 54.7018 65.2872C54.8712 63.8179 53.4299 62.6478 52.0143 63.19C48.3051 64.6107 44.6782 66.2409 41.1507 68.073C40.4712 68.4259 40.0608 69.1357 40.0779 69.8901C40.3673 82.6845 41.0562 92.312 42.2757 100.858C42.2757 100.858 42.2757 100.859 42.2758 100.859C40.0455 101.901 37.7108 102.894 35.2714 103.838C34.352 104.194 33.8229 105.167 34.0331 106.136C34.1992 106.901 34.3692 107.7 34.542 108.532C34.7851 109.703 36.0014 110.415 37.1485 110.017C39.218 109.299 41.3029 108.516 43.383 107.676L43.386 107.675L43.3869 107.675L80.7244 115.516ZM110.72 102.034L110.725 102.034C112.113 102.028 113.47 101.709 114.701 101.114C114.772 101.08 114.913 101.072 115.05 101.146C115.11 101.178 115.138 101.211 115.147 101.226C115.148 101.227 115.148 101.228 115.149 101.229C115.069 102.767 114.979 104.341 114.879 105.949C114.879 105.949 114.878 105.95 114.878 105.95C114.877 105.952 114.875 105.954 114.872 105.955C114.871 105.956 114.87 105.956 114.868 105.957C104.826 109.187 96.879 113.761 91.4226 118.673C85.9984 123.557 82.9078 128.897 82.9078 133.663C82.9078 136.949 83.7985 139.821 85.8287 141.87C87.8615 143.922 90.8895 145 94.8549 145C100.881 145 106.572 141.886 111.156 137.234C115.747 132.575 119.312 126.297 121.095 119.764C121.464 118.412 120.345 117.143 118.969 117.311C117.247 117.522 115.537 117.821 113.845 118.209C113.191 118.359 112.675 118.83 112.438 119.422C109.28 127.329 106.191 132.137 103.19 134.965C100.228 137.755 97.3238 138.642 94.3934 138.642C92.9121 138.642 91.7998 138.261 91.0709 137.622C90.3623 137.001 89.891 136.027 89.891 134.557C89.891 132.347 90.8851 129.97 92.8577 127.608C94.8274 125.249 97.7293 122.96 101.413 120.956C108.779 116.948 119.151 114.143 131.05 114.143C147.333 114.143 159.706 117.489 163.271 118.569C164.402 118.911 165.601 118.215 165.846 117.046C167.264 110.273 168.011 106.404 168.323 104.743C168.524 103.67 167.823 102.612 166.705 102.439C161.267 101.596 142.343 99.6552 124.026 103.514C124.025 103.513 124.022 103.512 124.019 103.509C124.014 103.504 124.011 103.499 124.01 103.497C124.009 103.496 124.009 103.495 124.009 103.495L124.009 103.494C124.009 103.494 124.009 103.493 124.009 103.49C124.798 93.0932 125.254 86.5379 125.578 81.8917C125.989 75.9878 126.185 73.1662 126.576 69.4614C126.711 68.1786 125.609 67.0757 124.3 67.2764C122.641 67.5305 119.614 68.0257 116.827 68.6495C115.868 68.8642 115.226 69.7419 115.278 70.703C115.333 71.7342 115.382 72.7704 115.424 73.8139C115.424 73.8141 115.424 73.8142 115.424 73.8144C115.421 73.8194 115.409 73.8366 115.379 73.8563C115.309 73.9025 115.22 73.9136 115.154 73.8929C114.216 73.5983 113.234 73.4518 112.244 73.4625C108.273 73.4642 105.281 75.3036 103.29 78.0237C101.321 80.7149 100.339 84.2469 100.249 87.7223C100.159 91.1964 100.957 94.7253 102.675 97.4199C104.412 100.143 107.115 102.034 110.72 102.034ZM113.307 94.1139V94.1138H113.295C111.937 94.1138 110.974 93.495 110.317 92.5201C109.636 91.509 109.282 90.0954 109.302 88.6153C109.322 87.1365 109.715 85.7057 110.396 84.6766C111.063 83.669 111.965 83.0896 113.093 83.0896L113.098 83.0896C113.622 83.0867 114.14 83.2008 114.616 83.424C114.989 83.5992 115.328 83.8382 115.619 84.1298C115.615 87.0642 115.569 90.0939 115.473 93.2702C115.223 93.5051 114.935 93.6973 114.623 93.8387C114.209 94.0257 113.76 94.1195 113.307 94.1139ZM136.226 96.615H136.228C139.274 96.615 141.8 94.9718 143.684 92.482C144.193 91.8095 144.168 90.9511 143.818 90.3098C143.68 90.0571 143.551 89.7993 143.433 89.537C143.101 88.8016 142.426 88.3922 141.773 88.2639C141.122 88.1361 140.365 88.259 139.776 88.7428C139.262 89.1651 138.85 89.3258 138.561 89.3583C138.301 89.3875 138.085 89.3222 137.879 89.1461C137.396 88.7337 136.881 87.613 136.881 85.5036C136.881 81.8715 137.722 77.3343 139.326 72.4625C139.605 71.6161 139.283 70.8162 138.784 70.315C138.289 69.8183 137.518 69.5058 136.705 69.6879C134.728 70.131 132.655 70.0352 130.706 69.3913C130.5 69.3232 130.276 69.3054 130.055 69.3453C129.55 69.4367 129.141 69.8144 129.013 70.3165C127.909 74.6573 127.373 79.1249 127.418 83.6061C127.418 87.312 128.227 90.5177 129.728 92.8323C131.246 95.1725 133.49 96.6108 136.226 96.615ZM75.4078 98.1719C75.4078 102.908 76.8975 106.561 79.2364 108.985C81.5734 111.408 84.7032 112.54 87.8349 112.312C94.1808 111.851 100.117 105.931 100.117 94.9249C100.117 92.4791 99.1933 89.2541 97.3064 86.6233C95.4011 83.9669 92.4488 81.8385 88.4099 81.8378C80.8265 81.8216 75.4078 89.329 75.4078 98.1719ZM91.778 97.5109C91.778 102.51 89.5535 104.163 87.9918 104.182C86.3792 104.201 84.2299 102.535 84.2299 98.4915C84.2299 94.0438 86.4003 92.3744 88.0473 92.3029C89.6889 92.2318 91.778 93.7022 91.778 97.4964V97.5109ZM129.628 57.7672C129.266 58.5586 129.064 59.4144 129.035 60.2844C128.927 61.1482 128.992 62.0251 129.225 62.8639C129.463 63.7198 129.872 64.5183 130.427 65.2107C130.982 65.903 131.671 66.4747 132.454 66.8905C133.236 67.3063 134.095 67.5573 134.977 67.628C135.86 67.6987 136.747 67.5876 137.585 67.3015C138.423 67.0155 139.194 66.5606 139.851 65.965C140.508 65.3694 141.037 64.6456 141.407 63.8381C141.769 63.0468 141.97 62.191 142 61.321C142.107 60.4572 142.043 59.5802 141.81 58.7414C141.572 57.8855 141.163 57.087 140.608 56.3947C140.053 55.7023 139.363 55.1306 138.581 54.7149C137.799 54.2991 136.94 54.048 136.057 53.9773C135.175 53.9066 134.288 54.0177 133.449 54.3038C132.611 54.5899 131.84 55.0448 131.183 55.6404C130.526 56.2359 129.997 56.9597 129.628 57.7672ZM140.358 82.561C141.144 82.9472 141.946 83.2967 142.764 83.6084C142.771 83.6111 142.78 83.6165 142.788 83.6278C142.791 83.6325 142.794 83.6376 142.796 83.6432C142.8 83.652 142.802 83.6618 142.803 83.6723C143.108 90.3061 147.51 95.7288 153.882 95.7288C158.048 95.7288 161.947 92.9612 164.196 90.4868C164.862 89.7538 164.838 88.6846 164.267 87.9604L163.466 86.9431C162.694 85.9632 161.296 85.9562 160.445 86.6884C159.963 87.103 159.308 87.6006 158.57 87.9907C157.825 88.384 157.055 88.6368 156.326 88.6368C155.351 88.6368 154.439 88.3939 153.7 87.8899C152.996 87.4106 152.394 86.6587 152.04 85.522C155.707 85.5629 159.278 84.5528 161.96 82.583C164.67 80.5929 166.463 77.6221 166.463 73.8668C166.463 69.1611 162.85 65.7482 157.992 65.7482C151.262 65.7482 145.592 71.6966 143.598 78.018C143.594 78.0302 143.589 78.0397 143.582 78.0472C143.579 78.0513 143.575 78.0545 143.572 78.0569C143.245 77.9266 142.92 77.7899 142.598 77.6469C141.587 77.1979 140.346 77.632 139.918 78.7287C139.746 79.1692 139.553 79.6699 139.396 80.0792C139.036 81.0155 139.425 82.1021 140.358 82.561ZM158.759 74.724C158.759 76.5236 156.964 79.3134 152.146 79.5341C153.037 75.9638 154.998 73.9394 156.537 73.2927C157.323 72.9627 157.872 73.0307 158.17 73.2052C158.432 73.3583 158.759 73.7473 158.759 74.7094V74.724Z" stroke="black" stroke-width="2" stroke-linejoin="round"/>
</g>
<g style="mix-blend-mode:screen" filter="url(#filter1_d)">
<path d="M76.4078 98.1719C76.4078 116.266 99.117 116.208 99.117 94.9249C99.117 90.4576 95.6915 82.8378 88.4078 82.8378C81.6001 82.8232 76.4078 89.6295 76.4078 98.1719ZM92.778 97.5109C92.778 107.949 83.2299 107.201 83.2299 98.4915C83.2299 88.9903 92.778 89.1574 92.778 97.4964V97.5109ZM80.1321 113.753C80.1917 113.787 80.2441 113.832 80.2855 113.887L80.3308 113.947C80.5007 114.171 80.4491 114.494 80.2164 114.652C70.8792 120.997 60.3653 117.057 53.7187 109.736C53.3876 109.371 52.7598 109.631 52.8082 110.121C53.4475 116.596 54.6513 123.003 56.406 129.267C56.4675 129.486 56.3752 129.719 56.1793 129.835C55.4384 130.276 53.5602 131.407 51.6039 132.691C51.3243 132.874 50.9453 132.738 50.8471 132.419C47.9471 122.984 45.8067 115.24 44.269 106.889C44.2112 106.576 43.879 106.394 43.5837 106.515C41.1482 107.511 38.7044 108.43 36.2853 109.256C36.0008 109.354 35.6962 109.178 35.6357 108.883C35.3906 107.69 35.1504 106.563 34.9184 105.502C34.8655 105.259 34.9979 105.015 35.2295 104.926C37.9588 103.88 40.5615 102.773 43.0377 101.606C43.2364 101.512 43.3498 101.3 43.3183 101.083C42.0637 92.4305 41.3595 82.6685 41.0707 69.5579C41.0665 69.3685 41.1698 69.1911 41.3376 69.1033C45.1589 67.1042 49.0989 65.3448 53.1351 63.8349C53.4848 63.7041 53.8471 63.9914 53.8032 64.3622C52.559 74.859 51.9701 85.424 52.0399 95.995C52.0425 96.3806 52.4713 96.6113 52.8009 96.4109C80.1963 79.7543 84.9544 57.7119 61.2924 57.7119C46.7502 57.7119 21.9435 68.7492 7.07408 78.7652C6.66828 79.0386 5.56804 78.5841 5.47686 78.1034C4.97024 75.4325 3.87279 69.6358 2.83426 63.1021C2.80053 62.8898 2.89408 62.685 3.08512 62.5866C10.1073 58.9682 33.7763 48 56.8645 48C76.826 48 85.4078 56.2809 85.4078 65.9201C85.4078 80.2539 70.9434 92.957 53.8371 101.787C53.5666 101.927 53.4808 102.275 53.664 102.518C58.2972 108.667 65.7422 110.325 73.084 106.02C73.3664 105.854 73.7347 105.988 73.8472 106.295C75.0004 109.445 77.2241 112.089 80.1321 113.753ZM123.569 104.635C123.241 104.707 122.935 104.428 122.96 104.093C124.856 79.1581 124.877 75.8361 125.65 68.7173C125.685 68.3932 125.409 68.1213 125.087 68.169C123.626 68.3852 119.899 68.966 116.638 69.7181C116.401 69.7725 116.24 69.9896 116.253 70.2315C116.335 71.6982 116.403 73.1742 116.458 74.6662C116.473 75.0569 116.049 75.3157 115.691 75.1596C114.608 74.6878 113.436 74.449 112.249 74.4625C97.7612 74.4625 97.9126 101.034 110.72 101.034C112.367 101.027 113.965 100.526 115.316 99.6078C115.685 99.3569 116.23 99.621 116.209 100.067C116.109 102.102 115.991 104.198 115.855 106.357C115.842 106.563 115.7 106.741 115.503 106.804C95.4351 113.17 83.9078 124.907 83.9078 133.663C83.9078 139.889 87.2756 144 94.8549 144C106.403 144 117.018 131.835 120.307 118.829C120.39 118.498 120.119 118.188 119.78 118.225C117.773 118.441 115.781 118.781 113.815 119.243C113.656 119.28 113.525 119.397 113.464 119.549C107.065 135.687 100.779 139.642 94.3934 139.642C91.1121 139.642 88.891 137.956 88.891 134.557C88.891 124.496 106.956 113.143 131.05 113.143C148.423 113.143 161.383 116.921 164.104 117.779C164.391 117.87 164.69 117.687 164.751 117.393C166.411 109.484 167.187 105.39 167.431 104.074C167.48 103.805 167.31 103.551 167.04 103.506C162.359 102.718 142.522 100.491 123.569 104.635ZM113.295 95.1138C106.393 95.1138 106.949 82.0896 113.093 82.0896C113.766 82.0859 114.431 82.2325 115.041 82.5189C115.597 82.7799 116.094 83.151 116.503 83.6095C116.58 83.6961 116.619 83.8091 116.619 83.9251C116.618 86.9968 116.569 90.1708 116.466 93.5059C116.463 93.6203 116.421 93.7309 116.342 93.8143C115.972 94.209 115.528 94.527 115.034 94.7499C114.488 94.9971 113.894 95.1212 113.295 95.1138ZM130.033 60.3632C130.052 59.6096 130.224 58.8679 130.537 58.1833C130.85 57.4987 131.299 56.8855 131.855 56.3812C132.411 55.877 133.064 55.4921 133.772 55.2502C134.481 55.0083 135.232 54.9143 135.978 54.9741C136.724 55.0339 137.45 55.2461 138.112 55.5979C138.774 55.9497 139.357 56.4336 139.828 57.0201C140.298 57.6066 140.644 58.2835 140.846 59.0094C141.048 59.7353 141.101 60.495 141.002 61.2421C140.982 61.9957 140.811 62.7374 140.498 63.422C140.184 64.1066 139.736 64.7198 139.18 65.2241C138.623 65.7284 137.971 66.1132 137.262 66.3551C136.553 66.5971 135.803 66.691 135.057 66.6312C134.311 66.5714 133.585 66.3592 132.923 66.0074C132.261 65.6557 131.677 65.1718 131.207 64.5852C130.737 63.9987 130.39 63.3218 130.188 62.596C129.987 61.8701 129.934 61.1104 130.033 60.3632ZM140.171 80.8496C140.081 81.085 140.18 81.3508 140.405 81.4657C141.393 81.9715 142.41 82.4164 143.452 82.798C143.651 82.871 143.785 83.0607 143.789 83.2728C143.937 89.6996 148.082 94.7288 153.882 94.7288C157.8 94.7288 161.599 91.9775 163.721 89.5145C163.874 89.3372 163.875 89.0776 163.73 88.8938L162.316 87.0995C162.125 86.8571 161.76 86.8397 161.536 87.0514C160.663 87.8747 158.537 89.6368 156.326 89.6368C153.897 89.6368 151.558 88.3438 150.896 85.0745C150.833 84.763 151.094 84.4891 151.411 84.5037C158.637 84.8376 165.463 80.8667 165.463 73.8668C165.463 69.7554 162.341 66.7482 157.992 66.7482C151.68 66.7482 146.159 72.5609 144.394 78.8471C144.315 79.1315 144.012 79.2955 143.736 79.1919C143.051 78.9355 142.377 78.6524 141.714 78.343C141.455 78.2221 141.147 78.3373 141.042 78.6031C140.785 79.251 140.389 80.2805 140.171 80.8496ZM159.759 74.724C159.759 77.3057 157.182 80.5688 151.484 80.5478C151.183 80.5466 150.961 80.2694 151.021 79.9746C152.687 71.7643 159.759 69.8212 159.759 74.7094V74.724ZM128.418 83.6005C128.373 79.2043 128.899 74.8213 129.982 70.563C130.013 70.4426 130.111 70.3515 130.233 70.3294V70.3294C130.286 70.3198 130.341 70.3239 130.392 70.3408C132.889 71.1656 135.572 71.1643 138.053 70.3535C138.472 70.2167 138.898 70.6243 138.753 71.04C136.886 76.3886 135.881 81.4519 135.881 85.5036C135.881 90.3338 138.411 91.8246 141.162 88.7931C141.445 88.482 141.991 88.5833 142.132 88.9793C142.389 89.7051 142.713 90.4058 143.099 91.0721C143.199 91.2431 143.195 91.4567 143.079 91.6171C141.299 94.0904 138.972 95.615 136.228 95.615C131.547 95.6077 128.418 90.7554 128.418 83.6005Z" fill="white"/>
<path d="M110.72 102.034L110.725 102.034C112.291 102.027 113.817 101.622 115.167 100.872C115.083 102.526 114.987 104.219 114.878 105.954C104.887 109.166 96.9683 113.709 91.513 118.592C86.032 123.498 82.9078 128.871 82.9078 133.663C82.9078 136.949 83.7985 139.821 85.8287 141.87C87.8615 143.922 90.8895 145 94.8549 145C100.987 145 106.771 141.776 111.397 136.986C116.031 132.19 119.59 125.741 121.276 119.074C121.532 118.062 120.699 117.12 119.672 117.23C117.625 117.452 115.592 117.798 113.587 118.269C113.096 118.384 112.71 118.738 112.535 119.18C109.359 127.189 106.254 132.059 103.236 134.921C100.258 137.746 97.3382 138.642 94.3934 138.642C92.9121 138.642 91.7998 138.261 91.0709 137.622C90.3623 137.001 89.891 136.027 89.891 134.557C89.891 132.347 90.8851 129.97 92.8577 127.608C94.8274 125.249 97.7293 122.96 101.413 120.956C108.779 116.948 119.151 114.143 131.05 114.143C148.286 114.143 161.14 117.893 163.803 118.733C164.677 119.009 165.552 118.447 165.73 117.599C167.391 109.683 168.169 105.581 168.414 104.255C168.561 103.46 168.049 102.661 167.206 102.519C162.515 101.73 142.934 99.5267 124.007 103.518C124.797 93.104 125.254 86.5406 125.578 81.89C126.012 75.653 126.207 72.8562 126.644 68.8252C126.748 67.8676 125.928 67.0337 124.94 67.1798C123.475 67.3967 119.715 67.9822 116.413 68.7437C115.697 68.9086 115.215 69.5645 115.255 70.2867C115.323 71.5115 115.381 72.7429 115.431 73.9848C114.41 73.6289 113.332 73.4508 112.244 73.4625C108.273 73.4642 105.281 75.3036 103.29 78.0237C101.321 80.7149 100.339 84.2469 100.249 87.7223C100.159 91.1964 100.957 94.7253 102.675 97.4199C104.412 100.143 107.115 102.034 110.72 102.034ZM113.307 94.1139V94.1138H113.295C111.937 94.1138 110.974 93.495 110.317 92.5201C109.636 91.509 109.282 90.0954 109.302 88.6153C109.322 87.1365 109.715 85.7057 110.396 84.6766C111.063 83.669 111.965 83.0896 113.093 83.0896L113.098 83.0896C113.622 83.0867 114.14 83.2008 114.616 83.424C114.989 83.5992 115.328 83.8382 115.619 84.1298C115.615 87.0642 115.569 90.0939 115.473 93.2702C115.223 93.5051 114.935 93.6973 114.623 93.8387C114.209 94.0257 113.76 94.1195 113.307 94.1139ZM136.226 96.615H136.228C139.389 96.615 141.986 94.8473 143.891 92.2013C144.252 91.6989 144.247 91.0578 143.964 90.5703C143.609 89.9574 143.311 89.3129 143.074 88.6451C142.672 87.5103 141.194 87.2705 140.422 88.1211C139.133 89.5415 138.339 89.4436 138.012 89.2435C137.779 89.1007 137.491 88.7784 137.26 88.1404C137.03 87.508 136.881 86.6315 136.881 85.5036C136.881 81.5989 137.853 76.6509 139.697 71.3696C140.138 70.1052 138.88 69.0314 137.743 69.4029C135.463 70.1477 132.999 70.1489 130.706 69.3913C130.5 69.3232 130.276 69.3054 130.055 69.3453C129.55 69.4367 129.141 69.8144 129.013 70.3165C127.909 74.6573 127.373 79.1249 127.418 83.6061C127.418 87.312 128.227 90.5177 129.728 92.8323C131.246 95.1725 133.49 96.6108 136.226 96.615ZM75.4078 98.1719C75.4078 102.908 76.8975 106.561 79.2364 108.985C81.5734 111.408 84.7032 112.54 87.8349 112.312C94.1808 111.851 100.117 105.931 100.117 94.9249C100.117 92.4791 99.1933 89.2541 97.3064 86.6233C95.4011 83.9669 92.4488 81.8385 88.4099 81.8378C80.8265 81.8216 75.4078 89.329 75.4078 98.1719ZM91.778 97.5109C91.778 102.51 89.5535 104.163 87.9918 104.182C86.3792 104.201 84.2299 102.535 84.2299 98.4915C84.2299 94.0438 86.4003 92.3744 88.0473 92.3029C89.6889 92.2318 91.778 93.7022 91.778 97.4964V97.5109ZM81.1278 113.343L81.0826 113.283C80.9574 113.118 80.8017 112.983 80.6286 112.884C77.9267 111.339 75.8589 108.881 74.7863 105.951C74.4612 105.064 73.4033 104.673 72.5781 105.157C69.0867 107.205 65.6348 107.8 62.5469 107.207C59.6325 106.647 56.9644 105.014 54.8371 102.395C63.2447 98.0004 71.0294 92.6549 76.7631 86.6054C82.6155 80.4308 86.4078 73.4375 86.4078 65.9201C86.4078 60.7691 84.0991 55.9871 79.1983 52.5283C74.3306 49.0929 66.9664 47 56.8645 47C33.5247 47 9.67608 58.0654 2.62707 61.6977C2.01961 62.0107 1.75109 62.6578 1.84666 63.2591C2.88767 69.8084 3.98748 75.6174 4.49438 78.2898C4.5773 78.7269 4.85259 79.0302 5.05314 79.2039C5.27205 79.3935 5.52814 79.5389 5.77512 79.6411C6.02217 79.7433 6.30577 79.8213 6.59409 79.8421C6.85812 79.8612 7.2656 79.8419 7.63275 79.5946C15.0048 74.6288 24.8618 69.397 34.6822 65.4091C44.5285 61.4106 54.2195 58.7119 61.2924 58.7119C67.0835 58.7119 70.9223 60.0648 73.1123 62.1418C75.2545 64.1734 75.9882 67.0627 75.2161 70.602C74.4373 74.1727 72.1274 78.3388 68.266 82.6719C64.5579 86.833 59.4588 91.1028 53.0356 95.0929C53.0042 84.8623 53.5921 74.639 54.7962 64.4799C54.9272 63.3747 53.8444 62.502 52.7848 62.8983C48.7098 64.4227 44.7319 66.199 40.874 68.2172C40.3645 68.4838 40.0585 69.0161 40.0709 69.5799C40.3562 82.5296 41.0464 92.2437 42.2758 100.859C39.924 101.957 37.456 103.002 34.8717 103.992C34.18 104.257 33.7827 104.988 33.9415 105.715C34.1726 106.773 34.412 107.896 34.6561 109.085C34.8369 109.965 35.7496 110.496 36.6087 110.203C38.8599 109.433 41.1314 108.585 43.3971 107.67C44.9366 115.849 47.0562 123.489 49.8912 132.712C50.186 133.672 51.3185 134.074 52.1526 133.527C54.0913 132.254 55.9553 131.132 56.6904 130.695C57.2776 130.346 57.5515 129.649 57.3689 128.997C55.7571 123.243 54.6143 117.367 53.9513 111.429C60.8311 118.307 71.3281 121.901 80.7784 115.479C81.4893 114.996 81.6401 114.019 81.1278 113.343ZM129.628 57.7672C129.266 58.5586 129.064 59.4144 129.035 60.2844C128.927 61.1482 128.992 62.0251 129.225 62.8639C129.463 63.7198 129.872 64.5183 130.427 65.2107C130.982 65.903 131.671 66.4747 132.454 66.8905C133.236 67.3063 134.095 67.5573 134.977 67.628C135.86 67.6987 136.747 67.5876 137.585 67.3015C138.423 67.0155 139.194 66.5606 139.851 65.965C140.508 65.3694 141.037 64.6456 141.407 63.8381C141.769 63.0468 141.97 62.191 142 61.321C142.107 60.4572 142.043 59.5802 141.81 58.7414C141.572 57.8855 141.163 57.087 140.608 56.3947C140.053 55.7023 139.363 55.1306 138.581 54.7149C137.799 54.2991 136.94 54.048 136.057 53.9773C135.175 53.9066 134.288 54.0177 133.449 54.3038C132.611 54.5899 131.84 55.0448 131.183 55.6404C130.526 56.2359 129.997 56.9597 129.628 57.7672ZM139.949 82.3559C140.876 82.8302 141.828 83.253 142.8 83.6223C143.089 90.2806 147.492 95.7288 153.882 95.7288C158.22 95.7288 162.271 92.7292 164.479 90.1673C164.956 89.613 164.945 88.8195 164.515 88.2748L163.101 86.4805C162.527 85.7515 161.477 85.7318 160.849 86.324C160.444 86.707 159.754 87.3002 158.923 87.7926C158.081 88.2916 157.178 88.6368 156.326 88.6368C155.285 88.6368 154.316 88.36 153.55 87.783C152.917 87.3058 152.37 86.5839 152.04 85.522C155.602 85.5616 159.069 84.6101 161.72 82.7548C164.562 80.7666 166.463 77.7343 166.463 73.8668C166.463 69.1611 162.85 65.7482 157.992 65.7482C154.521 65.7482 151.329 67.3451 148.804 69.7105C146.41 71.9533 144.563 74.9321 143.584 78.0617C143.096 77.8676 142.613 77.6592 142.137 77.4368C141.378 77.0826 140.439 77.4117 140.112 78.2346C139.853 78.8886 139.455 79.9234 139.238 80.4917C138.968 81.1958 139.262 82.0041 139.949 82.3559ZM158.759 74.724C158.759 76.5166 156.964 79.3175 152.146 79.5345C153.014 76.0547 154.904 74.0355 156.43 73.34C157.249 72.9666 157.832 73.0198 158.148 73.1926C158.419 73.3407 158.759 73.7261 158.759 74.7094V74.724Z" stroke="black" stroke-width="2" stroke-linejoin="round"/>
</g>
<defs>
<filter id="filter0_dd" x="0.878204" y="46" width="170.479" height="102" filterUnits="userSpaceOnUse" color-interpolation-filters="sRGB">
<feFlood flood-opacity="0" result="BackgroundImageFix"/>
<feColorMatrix in="SourceAlpha" type="matrix" values="0 0 0 0 0 0 0 0 0 0 0 0 0 0 0 0 0 0 127 0"/>
<feOffset dx="2" dy="2"/>
<feColorMatrix type="matrix" values="0 0 0 0 0 0 0 0 0 0 0 0 0 0 0 0 0 0 1 0"/>
<feBlend mode="normal" in2="BackgroundImageFix" result="effect1_dropShadow"/>
<feColorMatrix in="SourceAlpha" type="matrix" values="0 0 0 0 0 0 0 0 0 0 0 0 0 0 0 0 0 0 127 0"/>
<feOffset dx="1" dy="1"/>
<feColorMatrix type="matrix" values="0 0 0 0 0 0 0 0 0 0 0 0 0 0 0 0 0 0 1 0"/>
<feBlend mode="normal" in2="effect1_dropShadow" result="effect2_dropShadow"/>
<feBlend mode="normal" in="SourceGraphic" in2="effect2_dropShadow" result="shape"/>
</filter>
<filter id="filter1_d" x="0.828094" y="46" width="170.611" height="101" filterUnits="userSpaceOnUse" color-interpolation-filters="sRGB">
<feFlood flood-opacity="0" result="BackgroundImageFix"/>
<feColorMatrix in="SourceAlpha" type="matrix" values="0 0 0 0 0 0 0 0 0 0 0 0 0 0 0 0 0 0 127 0"/>
<feOffset dx="2" dy="1"/>
<feColorMatrix type="matrix" values="0 0 0 0 0 0 0 0 0 0 0 0 0 0 0 0 0 0 1 0"/>
<feBlend mode="normal" in2="BackgroundImageFix" result="effect1_dropShadow"/>
<feBlend mode="normal" in="SourceGraphic" in2="effect1_dropShadow" result="shape"/>
</filter>
<radialGradient id="paint0_radial" cx="0" cy="0" r="1" gradientUnits="userSpaceOnUse" gradientTransform="translate(39.9462 140.063) scale(192.664 194.063)">
<stop stop-color="#FFB948"/>
<stop offset="0.32" stop-color="#EE2A7B"/>
<stop offset="1" stop-color="#002AFF"/>
</radialGradient>
</defs>
</svg>
