<svg width="194" height="192" viewBox="0 0 194 192" fill="none" xmlns="http://www.w3.org/2000/svg">
<g filter="url(#filter0_dd)">
<path d="M77.4078 98.1719C77.4078 116.266 100.117 116.208 100.117 94.9249C100.117 90.4576 96.6915 82.8378 89.4078 82.8378C82.6001 82.8232 77.4078 89.6295 77.4078 98.1719ZM93.778 97.5109C93.778 107.949 84.2299 107.201 84.2299 98.4915C84.2299 88.9903 93.778 89.1574 93.778 97.4964V97.5109ZM81.1212 113.746C81.1879 113.785 81.2467 113.836 81.2931 113.897V113.897C81.4837 114.148 81.4263 114.511 81.1648 114.687C72.3527 120.637 62.5018 117.445 55.8461 110.908C55.1433 110.218 53.8687 110.76 53.9798 111.739C54.6375 117.535 55.7482 123.271 57.3022 128.894C57.4237 129.333 57.2378 129.8 56.8468 130.034C56.0607 130.505 54.6677 131.353 53.1657 132.325C52.6041 132.688 51.8463 132.417 51.6505 131.778C48.92 122.86 46.876 115.43 45.3826 107.5C45.2645 106.873 44.6003 106.51 44.0086 106.749C41.9434 107.583 39.8741 108.36 37.8208 109.072C37.2526 109.269 36.6434 108.918 36.5211 108.329C36.3477 107.494 36.177 106.692 36.0103 105.924C35.9051 105.439 36.1699 104.95 36.6325 104.771C39.0931 103.818 41.45 102.815 43.7032 101.763C44.1012 101.577 44.3277 101.152 44.2656 100.717C43.0537 92.2234 42.3665 82.6385 42.0776 69.8675C42.069 69.4888 42.2755 69.135 42.6117 68.9604C46.1056 67.1458 49.6981 65.531 53.372 64.1238C54.0693 63.8567 54.7939 64.4309 54.7084 65.1727C53.5623 75.1148 53.0038 85.1167 53.0357 95.1255C53.0381 95.8969 53.888 96.3616 54.5433 95.9547C81.2805 79.3548 85.739 57.7119 62.2924 57.7119C48.1739 57.7119 24.3803 68.1154 9.39859 77.8874C8.57898 78.422 6.36213 77.5014 6.1813 76.5397C5.62268 73.5687 4.74102 68.7733 3.89084 63.4569C3.82296 63.0325 4.03242 62.6126 4.41532 62.4173C11.8236 58.6387 35.1257 48 57.8645 48C77.826 48 86.4078 56.2809 86.4078 65.9201C86.4078 80.1107 72.231 92.703 55.349 101.522C54.8094 101.803 54.6367 102.499 55.0187 102.973C59.5493 108.595 66.5477 110.137 73.5203 106.338C74.0952 106.025 74.8307 106.294 75.0834 106.898C76.2882 109.778 78.4058 112.19 81.1212 113.746ZM125.232 104.493C124.573 104.631 123.961 104.086 124.012 103.415C125.8 79.8429 125.881 75.9948 126.582 69.3565C126.65 68.7081 126.096 68.1661 125.451 68.2648C123.8 68.5179 120.799 69.009 118.046 69.6254C117.573 69.7312 117.25 70.1657 117.276 70.6495C117.332 71.685 117.381 72.7254 117.423 73.7732C117.455 74.5544 116.6 75.0812 115.854 74.8469C115.015 74.5832 114.136 74.4524 113.249 74.4625C98.7612 74.4625 98.9126 101.034 111.72 101.034C112.958 101.029 114.168 100.744 115.266 100.214C116.07 99.8255 117.194 100.387 117.148 101.279C117.068 102.822 116.977 104.401 116.877 106.014C116.851 106.427 116.568 106.782 116.174 106.909C96.3093 113.298 84.9078 124.955 84.9078 133.663C84.9078 139.889 88.2756 144 95.8549 144C107.204 144 117.652 132.251 121.13 119.501C121.31 118.842 120.768 118.221 120.09 118.304C118.403 118.51 116.727 118.804 115.069 119.184C114.751 119.257 114.488 119.49 114.367 119.793C108.002 135.727 101.747 139.642 95.3934 139.642C92.1121 139.642 89.891 137.956 89.891 134.557C89.891 124.496 107.956 113.143 132.05 113.143C148.463 113.143 160.937 116.515 164.56 117.611C165.136 117.786 165.744 117.429 165.867 116.841C167.284 110.073 168.03 106.212 168.34 104.559C168.441 104.021 168.093 103.511 167.552 103.427C162.173 102.593 143.383 100.669 125.232 104.493ZM114.295 95.1138C107.393 95.1138 107.949 82.0896 114.093 82.0896C114.766 82.0859 115.431 82.2325 116.041 82.5189C116.542 82.7544 116.996 83.0797 117.381 83.478C117.542 83.6449 117.619 83.8726 117.619 84.1046C117.616 87.066 117.568 90.1234 117.472 93.3292C117.465 93.5579 117.382 93.7806 117.219 93.9406C116.874 94.2772 116.474 94.5513 116.034 94.7499C115.488 94.9971 114.894 95.1212 114.295 95.1138ZM131.033 60.3632C131.052 59.6096 131.224 58.8679 131.537 58.1833C131.85 57.4987 132.299 56.8855 132.855 56.3812C133.411 55.877 134.064 55.4921 134.772 55.2502C135.481 55.0083 136.232 54.9143 136.978 54.9741C137.724 55.0339 138.45 55.2461 139.112 55.5979C139.774 55.9497 140.357 56.4336 140.828 57.0201C141.298 57.6066 141.644 58.2835 141.846 59.0094C142.048 59.7353 142.101 60.495 142.002 61.2421C141.982 61.9957 141.811 62.7374 141.498 63.422C141.184 64.1066 140.736 64.7198 140.18 65.2241C139.623 65.7284 138.971 66.1132 138.262 66.3551C137.553 66.5971 136.803 66.691 136.057 66.6312C135.311 66.5714 134.585 66.3592 133.923 66.0074C133.261 65.6557 132.677 65.1718 132.207 64.5852C131.737 63.9987 131.39 63.3218 131.188 62.596C130.987 61.8701 130.934 61.1104 131.033 60.3632ZM141.329 80.4379C141.148 80.9086 141.347 81.4411 141.799 81.6636C142.557 82.0362 143.332 82.3733 144.12 82.674C144.517 82.8252 144.782 83.2024 144.802 83.6263C145.09 89.883 149.188 94.7288 154.882 94.7288C158.642 94.7288 162.292 92.1953 164.456 89.8142C164.771 89.4678 164.772 88.9469 164.482 88.5793L163.68 87.5621C163.298 87.0774 162.565 87.0441 162.097 87.4466C161.064 88.3351 159.226 89.6368 157.326 89.6368C155.052 89.6368 152.856 88.5029 152.042 85.6741C151.866 85.0631 152.392 84.5139 153.028 84.5218C160.021 84.6086 166.463 80.6671 166.463 73.8668C166.463 69.7554 163.341 66.7482 158.992 66.7482C152.857 66.7482 147.469 72.239 145.552 78.3188C145.374 78.8823 144.771 79.2115 144.221 78.9935C143.876 78.8562 143.532 78.7119 143.192 78.5608C142.67 78.3287 142.058 78.5596 141.85 79.0923C141.679 79.5305 141.486 80.0292 141.329 80.4379ZM160.759 74.724C160.759 77.2185 158.353 80.349 153.051 80.5388C152.45 80.5603 152.003 80.0059 152.144 79.4209C154.007 71.679 160.759 69.9331 160.759 74.7094V74.724ZM129.418 83.6005C129.373 79.2043 129.899 74.8213 130.982 70.563C131.013 70.4426 131.111 70.3515 131.233 70.3294V70.3294C131.286 70.3198 131.341 70.3239 131.392 70.3408C133.514 71.0418 135.771 71.1461 137.924 70.6638C138.783 70.4712 139.652 71.3133 139.376 72.1498C137.751 77.0868 136.881 81.7332 136.881 85.5036C136.881 89.8896 138.967 91.5221 141.411 89.5157C142.06 88.9824 143.176 89.183 143.522 89.9488C143.65 90.2339 143.79 90.5141 143.94 90.7889C144.129 91.1358 144.125 91.5635 143.886 91.8787C142.132 94.1975 139.874 95.615 137.228 95.615C132.547 95.6077 129.418 90.7554 129.418 83.6005Z" fill="url(#paint0_radial)"/>
<path d="M77.4078 98.1719C77.4078 116.266 100.117 116.208 100.117 94.9249C100.117 90.4576 96.6915 82.8378 89.4078 82.8378C82.6001 82.8232 77.4078 89.6295 77.4078 98.1719ZM93.778 97.5109C93.778 107.949 84.2299 107.201 84.2299 98.4915C84.2299 88.9903 93.778 89.1574 93.778 97.4964V97.5109ZM81.1212 113.746C81.1879 113.785 81.2467 113.836 81.2931 113.897V113.897C81.4837 114.148 81.4263 114.511 81.1648 114.687C72.3527 120.637 62.5018 117.445 55.8461 110.908C55.1433 110.218 53.8687 110.76 53.9798 111.739C54.6375 117.535 55.7482 123.271 57.3022 128.894C57.4237 129.333 57.2378 129.8 56.8468 130.034C56.0607 130.505 54.6677 131.353 53.1657 132.325C52.6041 132.688 51.8463 132.417 51.6505 131.778C48.92 122.86 46.876 115.43 45.3826 107.5C45.2645 106.873 44.6003 106.51 44.0086 106.749C41.9434 107.583 39.8741 108.36 37.8208 109.072C37.2526 109.269 36.6434 108.918 36.5211 108.329C36.3477 107.494 36.177 106.692 36.0103 105.924C35.9051 105.439 36.1699 104.95 36.6325 104.771C39.0931 103.818 41.45 102.815 43.7032 101.763C44.1012 101.577 44.3277 101.152 44.2656 100.717C43.0537 92.2234 42.3665 82.6385 42.0776 69.8675C42.069 69.4888 42.2755 69.135 42.6117 68.9604C46.1056 67.1458 49.6981 65.531 53.372 64.1238C54.0693 63.8567 54.7939 64.4309 54.7084 65.1727C53.5623 75.1148 53.0038 85.1167 53.0357 95.1255C53.0381 95.8969 53.888 96.3616 54.5433 95.9547C81.2805 79.3548 85.739 57.7119 62.2924 57.7119C48.1739 57.7119 24.3803 68.1154 9.39859 77.8874C8.57898 78.422 6.36213 77.5014 6.1813 76.5397C5.62268 73.5687 4.74102 68.7733 3.89084 63.4569C3.82296 63.0325 4.03242 62.6126 4.41532 62.4173C11.8236 58.6387 35.1257 48 57.8645 48C77.826 48 86.4078 56.2809 86.4078 65.9201C86.4078 80.1107 72.231 92.703 55.349 101.522C54.8094 101.803 54.6367 102.499 55.0187 102.973C59.5493 108.595 66.5477 110.137 73.5203 106.338C74.0952 106.025 74.8307 106.294 75.0834 106.898C76.2882 109.778 78.4058 112.19 81.1212 113.746ZM125.232 104.493C124.573 104.631 123.961 104.086 124.012 103.415C125.8 79.8429 125.881 75.9948 126.582 69.3565C126.65 68.7081 126.096 68.1661 125.451 68.2648C123.8 68.5179 120.799 69.009 118.046 69.6254C117.573 69.7312 117.25 70.1657 117.276 70.6495C117.332 71.685 117.381 72.7254 117.423 73.7732C117.455 74.5544 116.6 75.0812 115.854 74.8469C115.015 74.5832 114.136 74.4524 113.249 74.4625C98.7612 74.4625 98.9126 101.034 111.72 101.034C112.958 101.029 114.168 100.744 115.266 100.214C116.07 99.8255 117.194 100.387 117.148 101.279C117.068 102.822 116.977 104.401 116.877 106.014C116.851 106.427 116.568 106.782 116.174 106.909C96.3093 113.298 84.9078 124.955 84.9078 133.663C84.9078 139.889 88.2756 144 95.8549 144C107.204 144 117.652 132.251 121.13 119.501C121.31 118.842 120.768 118.221 120.09 118.304C118.403 118.51 116.727 118.804 115.069 119.184C114.751 119.257 114.488 119.49 114.367 119.793C108.002 135.727 101.747 139.642 95.3934 139.642C92.1121 139.642 89.891 137.956 89.891 134.557C89.891 124.496 107.956 113.143 132.05 113.143C148.463 113.143 160.937 116.515 164.56 117.611C165.136 117.786 165.744 117.429 165.867 116.841C167.284 110.073 168.03 106.212 168.34 104.559C168.441 104.021 168.093 103.511 167.552 103.427C162.173 102.593 143.383 100.669 125.232 104.493ZM114.295 95.1138C107.393 95.1138 107.949 82.0896 114.093 82.0896C114.766 82.0859 115.431 82.2325 116.041 82.5189C116.542 82.7544 116.996 83.0797 117.381 83.478C117.542 83.6449 117.619 83.8726 117.619 84.1046C117.616 87.066 117.568 90.1234 117.472 93.3292C117.465 93.5579 117.382 93.7806 117.219 93.9406C116.874 94.2772 116.474 94.5513 116.034 94.7499C115.488 94.9971 114.894 95.1212 114.295 95.1138ZM131.033 60.3632C131.052 59.6096 131.224 58.8679 131.537 58.1833C131.85 57.4987 132.299 56.8855 132.855 56.3812C133.411 55.877 134.064 55.4921 134.772 55.2502C135.481 55.0083 136.232 54.9143 136.978 54.9741C137.724 55.0339 138.45 55.2461 139.112 55.5979C139.774 55.9497 140.357 56.4336 140.828 57.0201C141.298 57.6066 141.644 58.2835 141.846 59.0094C142.048 59.7353 142.101 60.495 142.002 61.2421C141.982 61.9957 141.811 62.7374 141.498 63.422C141.184 64.1066 140.736 64.7198 140.18 65.2241C139.623 65.7284 138.971 66.1132 138.262 66.3551C137.553 66.5971 136.803 66.691 136.057 66.6312C135.311 66.5714 134.585 66.3592 133.923 66.0074C133.261 65.6557 132.677 65.1718 132.207 64.5852C131.737 63.9987 131.39 63.3218 131.188 62.596C130.987 61.8701 130.934 61.1104 131.033 60.3632ZM141.329 80.4379C141.148 80.9086 141.347 81.4411 141.799 81.6636C142.557 82.0362 143.332 82.3733 144.12 82.674C144.517 82.8252 144.782 83.2024 144.802 83.6263C145.09 89.883 149.188 94.7288 154.882 94.7288C158.642 94.7288 162.292 92.1953 164.456 89.8142C164.771 89.4678 164.772 88.9469 164.482 88.5793L163.68 87.5621C163.298 87.0774 162.565 87.0441 162.097 87.4466C161.064 88.3351 159.226 89.6368 157.326 89.6368C155.052 89.6368 152.856 88.5029 152.042 85.6741C151.866 85.0631 152.392 84.5139 153.028 84.5218C160.021 84.6086 166.463 80.6671 166.463 73.8668C166.463 69.7554 163.341 66.7482 158.992 66.7482C152.857 66.7482 147.469 72.239 145.552 78.3188C145.374 78.8823 144.771 79.2115 144.221 78.9935C143.876 78.8562 143.532 78.7119 143.192 78.5608C142.67 78.3287 142.058 78.5596 141.85 79.0923C141.679 79.5305 141.486 80.0292 141.329 80.4379ZM160.759 74.724C160.759 77.2185 158.353 80.349 153.051 80.5388C152.45 80.5603 152.003 80.0059 152.144 79.4209C154.007 71.679 160.759 69.9331 160.759 74.7094V74.724ZM129.418 83.6005C129.373 79.2043 129.899 74.8213 130.982 70.563C131.013 70.4426 131.111 70.3515 131.233 70.3294V70.3294C131.286 70.3198 131.341 70.3239 131.392 70.3408C133.514 71.0418 135.771 71.1461 137.924 70.6638C138.783 70.4712 139.652 71.3133 139.376 72.1498C137.751 77.0868 136.881 81.7332 136.881 85.5036C136.881 89.8896 138.967 91.5221 141.411 89.5157C142.06 88.9824 143.176 89.183 143.522 89.9488C143.65 90.2339 143.79 90.5141 143.94 90.7889C144.129 91.1358 144.125 91.5635 143.886 91.8787C142.132 94.1975 139.874 95.615 137.228 95.615C132.547 95.6077 129.418 90.7554 129.418 83.6005Z" fill="black"/>
<path d="M81.7244 115.516C72.3789 121.826 62.0041 118.358 55.1454 111.622C55.13 111.607 55.1179 111.602 55.1007 111.599C55.0769 111.596 55.0424 111.599 55.0079 111.614C54.9918 111.621 54.981 111.628 54.9743 111.634C55.6262 117.375 56.7267 123.057 58.2661 128.627C58.5069 129.498 58.1387 130.425 57.361 130.892C56.5806 131.36 55.198 132.201 53.7089 133.164C52.5984 133.883 51.0874 133.354 50.6943 132.071C47.9595 123.138 45.9033 115.668 44.3999 107.685L44.3992 107.682L81.7244 115.516ZM81.7244 115.516C82.4685 115.013 82.622 113.995 82.0902 113.293C81.9599 113.121 81.798 112.982 81.6184 112.879C79.0955 111.433 77.1265 109.19 76.0059 106.512C75.5305 105.375 74.151 104.856 73.0419 105.46C69.7329 107.263 66.4747 107.771 63.5427 107.206C60.6289 106.646 57.963 105.012 55.8371 102.395C64.3295 97.9561 72.1879 92.5462 77.9383 86.4197C83.6907 80.2911 87.4078 73.3625 87.4078 65.9201C87.4078 60.7691 85.0991 55.9871 80.1983 52.5283C75.3306 49.0929 67.9664 47 57.8645 47C34.8767 47 11.3965 57.734 3.96096 61.5265C3.18541 61.9221 2.76817 62.7693 2.90339 63.6149C3.75563 68.9441 4.63916 73.7495 5.19852 76.7245C5.3037 77.2838 5.66718 77.7071 5.99021 77.987C6.33227 78.2833 6.7484 78.5235 7.16519 78.6975C7.58218 78.8716 8.04515 78.9983 8.49554 79.0344C8.92071 79.0685 9.47345 79.0325 9.94491 78.725C17.3773 73.8772 27.0117 68.8633 36.5396 65.064C46.0927 61.2547 55.4273 58.7119 62.2924 58.7119C68.0303 58.7119 71.8524 60.0402 74.0522 62.0853C76.2036 64.0856 76.9666 66.9272 76.257 70.4086C75.5405 73.9233 73.3224 78.0317 69.5779 82.3183C65.8463 86.5902 60.6416 90.9892 54.0356 95.0929C54.005 85.1333 54.5614 75.1805 55.7018 65.2872C55.8712 63.8179 54.4299 62.6478 53.0143 63.19C49.3051 64.6107 45.6782 66.2409 42.1507 68.073C41.4712 68.4259 41.0608 69.1357 41.0779 69.8901C41.3673 82.6845 42.0562 92.312 43.2757 100.858C43.2757 100.858 43.2757 100.859 43.2758 100.859C41.0455 101.901 38.7108 102.894 36.2714 103.838C35.352 104.194 34.8229 105.167 35.0331 106.136C35.1992 106.901 35.3692 107.7 35.542 108.532C35.7851 109.703 37.0014 110.415 38.1485 110.017C40.218 109.299 42.3029 108.516 44.383 107.676L44.386 107.675L44.3869 107.675L81.7244 115.516ZM111.72 102.034L111.725 102.034C113.113 102.028 114.47 101.709 115.701 101.114C115.772 101.08 115.913 101.072 116.05 101.146C116.11 101.178 116.138 101.211 116.147 101.226C116.148 101.227 116.148 101.228 116.149 101.229C116.069 102.767 115.979 104.341 115.879 105.949C115.879 105.949 115.878 105.95 115.878 105.95C115.877 105.952 115.875 105.954 115.872 105.955C115.871 105.956 115.87 105.956 115.868 105.957C105.826 109.187 97.879 113.761 92.4226 118.673C86.9984 123.557 83.9078 128.897 83.9078 133.663C83.9078 136.949 84.7985 139.821 86.8287 141.87C88.8615 143.922 91.8895 145 95.8549 145C101.881 145 107.572 141.886 112.156 137.234C116.747 132.575 120.312 126.297 122.095 119.764C122.464 118.412 121.345 117.143 119.969 117.311C118.247 117.522 116.537 117.821 114.845 118.209C114.191 118.359 113.675 118.83 113.438 119.422C110.28 127.329 107.191 132.137 104.19 134.965C101.228 137.755 98.3238 138.642 95.3934 138.642C93.9121 138.642 92.7998 138.261 92.0709 137.622C91.3623 137.001 90.891 136.027 90.891 134.557C90.891 132.347 91.8851 129.97 93.8577 127.608C95.8274 125.249 98.7293 122.96 102.413 120.956C109.779 116.948 120.151 114.143 132.05 114.143C148.333 114.143 160.706 117.489 164.271 118.569C165.402 118.911 166.601 118.215 166.846 117.046C168.264 110.273 169.011 106.404 169.323 104.743C169.524 103.67 168.823 102.612 167.705 102.439C162.267 101.596 143.343 99.6552 125.026 103.514C125.025 103.513 125.022 103.512 125.019 103.509C125.014 103.504 125.011 103.499 125.01 103.497C125.009 103.496 125.009 103.495 125.009 103.495L125.009 103.494C125.009 103.494 125.009 103.493 125.009 103.49C125.798 93.0932 126.254 86.5379 126.578 81.8917C126.989 75.9878 127.185 73.1662 127.576 69.4614C127.711 68.1786 126.609 67.0757 125.3 67.2764C123.641 67.5305 120.614 68.0257 117.827 68.6495C116.868 68.8642 116.226 69.7419 116.278 70.703C116.333 71.7342 116.382 72.7704 116.424 73.8139C116.424 73.8141 116.424 73.8142 116.424 73.8144C116.421 73.8194 116.409 73.8366 116.379 73.8563C116.309 73.9025 116.22 73.9136 116.154 73.8929C115.216 73.5983 114.234 73.4518 113.244 73.4625C109.273 73.4642 106.281 75.3036 104.29 78.0237C102.321 80.7149 101.339 84.2469 101.249 87.7223C101.159 91.1964 101.957 94.7253 103.675 97.4199C105.412 100.143 108.115 102.034 111.72 102.034ZM114.307 94.1139V94.1138H114.295C112.937 94.1138 111.974 93.495 111.317 92.5201C110.636 91.509 110.282 90.0954 110.302 88.6153C110.322 87.1365 110.715 85.7057 111.396 84.6766C112.063 83.669 112.965 83.0896 114.093 83.0896L114.098 83.0896C114.622 83.0867 115.14 83.2008 115.616 83.424C115.989 83.5992 116.328 83.8382 116.619 84.1298C116.615 87.0642 116.569 90.0939 116.473 93.2702C116.223 93.5051 115.935 93.6973 115.623 93.8387C115.209 94.0257 114.76 94.1195 114.307 94.1139ZM137.226 96.615H137.228C140.274 96.615 142.8 94.9718 144.684 92.482C145.193 91.8095 145.168 90.9511 144.818 90.3098C144.68 90.0571 144.551 89.7993 144.433 89.537C144.101 88.8016 143.426 88.3922 142.773 88.2639C142.122 88.1361 141.365 88.259 140.776 88.7428C140.262 89.1651 139.85 89.3258 139.561 89.3583C139.301 89.3875 139.085 89.3222 138.879 89.1461C138.396 88.7337 137.881 87.613 137.881 85.5036C137.881 81.8715 138.722 77.3343 140.326 72.4625C140.605 71.6161 140.283 70.8162 139.784 70.315C139.289 69.8183 138.518 69.5058 137.705 69.6879C135.728 70.131 133.655 70.0352 131.706 69.3913C131.5 69.3232 131.276 69.3054 131.055 69.3453C130.55 69.4367 130.141 69.8144 130.013 70.3165C128.909 74.6573 128.373 79.1249 128.418 83.6061C128.418 87.312 129.227 90.5177 130.728 92.8323C132.246 95.1725 134.49 96.6108 137.226 96.615ZM76.4078 98.1719C76.4078 102.908 77.8975 106.561 80.2364 108.985C82.5734 111.408 85.7032 112.54 88.8349 112.312C95.1808 111.851 101.117 105.931 101.117 94.9249C101.117 92.4791 100.193 89.2541 98.3064 86.6233C96.4011 83.9669 93.4488 81.8385 89.4099 81.8378C81.8265 81.8216 76.4078 89.329 76.4078 98.1719ZM92.778 97.5109C92.778 102.51 90.5535 104.163 88.9918 104.182C87.3792 104.201 85.2299 102.535 85.2299 98.4915C85.2299 94.0438 87.4003 92.3744 89.0473 92.3029C90.6889 92.2318 92.778 93.7022 92.778 97.4964V97.5109ZM130.628 57.7672C130.266 58.5586 130.064 59.4144 130.035 60.2844C129.927 61.1482 129.992 62.0251 130.225 62.8639C130.463 63.7198 130.872 64.5183 131.427 65.2107C131.982 65.903 132.671 66.4747 133.454 66.8905C134.236 67.3063 135.095 67.5573 135.977 67.628C136.86 67.6987 137.747 67.5876 138.585 67.3015C139.423 67.0155 140.194 66.5606 140.851 65.965C141.508 65.3694 142.037 64.6456 142.407 63.8381C142.769 63.0468 142.97 62.191 143 61.321C143.107 60.4572 143.043 59.5802 142.81 58.7414C142.572 57.8855 142.163 57.087 141.608 56.3947C141.053 55.7023 140.363 55.1306 139.581 54.7149C138.799 54.2991 137.94 54.048 137.057 53.9773C136.175 53.9066 135.288 54.0177 134.449 54.3038C133.611 54.5899 132.84 55.0448 132.183 55.6404C131.526 56.2359 130.997 56.9597 130.628 57.7672ZM141.358 82.561C142.144 82.9472 142.946 83.2967 143.764 83.6084C143.771 83.6111 143.78 83.6165 143.788 83.6278C143.791 83.6325 143.794 83.6376 143.796 83.6432C143.8 83.652 143.802 83.6618 143.803 83.6723C144.108 90.3061 148.51 95.7288 154.882 95.7288C159.048 95.7288 162.947 92.9612 165.196 90.4868C165.862 89.7538 165.838 88.6846 165.267 87.9604L164.466 86.9431C163.694 85.9632 162.296 85.9562 161.445 86.6884C160.963 87.103 160.308 87.6006 159.57 87.9907C158.825 88.384 158.055 88.6368 157.326 88.6368C156.351 88.6368 155.439 88.3939 154.7 87.8899C153.996 87.4106 153.394 86.6587 153.04 85.522C156.707 85.5629 160.278 84.5528 162.96 82.583C165.67 80.5929 167.463 77.6221 167.463 73.8668C167.463 69.1611 163.85 65.7482 158.992 65.7482C152.262 65.7482 146.592 71.6966 144.598 78.018C144.594 78.0302 144.589 78.0397 144.582 78.0472C144.579 78.0513 144.575 78.0545 144.572 78.0569C144.245 77.9266 143.92 77.7899 143.598 77.6469C142.587 77.1979 141.346 77.632 140.918 78.7287C140.746 79.1692 140.553 79.6699 140.396 80.0792C140.036 81.0155 140.425 82.1021 141.358 82.561ZM159.759 74.724C159.759 76.5236 157.964 79.3134 153.146 79.5341C154.037 75.9638 155.998 73.9394 157.537 73.2927C158.323 72.9627 158.872 73.0307 159.17 73.2052C159.432 73.3583 159.759 73.7473 159.759 74.7094V74.724Z" stroke="black" stroke-width="2" stroke-linejoin="round"/>
</g>
<g style="mix-blend-mode:screen" filter="url(#filter1_d)">
<path d="M77.4078 98.1719C77.4078 116.266 100.117 116.208 100.117 94.9249C100.117 90.4576 96.6915 82.8378 89.4078 82.8378C82.6001 82.8232 77.4078 89.6295 77.4078 98.1719ZM93.778 97.5109C93.778 107.949 84.2299 107.201 84.2299 98.4915C84.2299 88.9903 93.778 89.1574 93.778 97.4964V97.5109ZM81.1321 113.753C81.1917 113.787 81.2441 113.832 81.2855 113.887L81.3308 113.947C81.5007 114.171 81.4491 114.494 81.2164 114.652C71.8792 120.997 61.3653 117.057 54.7187 109.736C54.3876 109.371 53.7598 109.631 53.8082 110.121C54.4475 116.596 55.6513 123.003 57.406 129.267C57.4675 129.486 57.3752 129.719 57.1793 129.835C56.4384 130.276 54.5602 131.407 52.6039 132.691C52.3243 132.874 51.9453 132.738 51.8471 132.419C48.9471 122.984 46.8067 115.24 45.269 106.889C45.2112 106.576 44.879 106.394 44.5837 106.515C42.1482 107.511 39.7044 108.43 37.2853 109.256C37.0008 109.354 36.6962 109.178 36.6357 108.883C36.3906 107.69 36.1504 106.563 35.9184 105.502C35.8655 105.259 35.9979 105.015 36.2295 104.926C38.9588 103.88 41.5615 102.773 44.0377 101.606C44.2364 101.512 44.3498 101.3 44.3183 101.083C43.0637 92.4305 42.3595 82.6685 42.0707 69.5579C42.0665 69.3685 42.1698 69.1911 42.3376 69.1033C46.1589 67.1042 50.0989 65.3448 54.1351 63.8349C54.4848 63.7041 54.8471 63.9914 54.8032 64.3622C53.559 74.859 52.9701 85.424 53.0399 95.995C53.0425 96.3806 53.4713 96.6113 53.8009 96.4109C81.1963 79.7543 85.9544 57.7119 62.2924 57.7119C47.7502 57.7119 22.9435 68.7492 8.07408 78.7652C7.66828 79.0386 6.56804 78.5841 6.47686 78.1034C5.97024 75.4325 4.87279 69.6358 3.83426 63.1021C3.80053 62.8898 3.89408 62.685 4.08512 62.5866C11.1073 58.9682 34.7763 48 57.8645 48C77.826 48 86.4078 56.2809 86.4078 65.9201C86.4078 80.2539 71.9434 92.957 54.8371 101.787C54.5666 101.927 54.4808 102.275 54.664 102.518C59.2972 108.667 66.7422 110.325 74.084 106.02C74.3664 105.854 74.7347 105.988 74.8472 106.295C76.0004 109.445 78.2241 112.089 81.1321 113.753ZM124.569 104.635C124.241 104.707 123.935 104.428 123.96 104.093C125.856 79.1581 125.877 75.8361 126.65 68.7173C126.685 68.3932 126.409 68.1213 126.087 68.169C124.626 68.3852 120.899 68.966 117.638 69.7181C117.401 69.7725 117.24 69.9896 117.253 70.2315C117.335 71.6982 117.403 73.1742 117.458 74.6662C117.473 75.0569 117.049 75.3157 116.691 75.1596C115.608 74.6878 114.436 74.449 113.249 74.4625C98.7612 74.4625 98.9126 101.034 111.72 101.034C113.367 101.027 114.965 100.526 116.316 99.6078C116.685 99.3569 117.23 99.621 117.209 100.067C117.109 102.102 116.991 104.198 116.855 106.357C116.842 106.563 116.7 106.741 116.503 106.804C96.4351 113.17 84.9078 124.907 84.9078 133.663C84.9078 139.889 88.2756 144 95.8549 144C107.403 144 118.018 131.835 121.307 118.829C121.39 118.498 121.119 118.188 120.78 118.225C118.773 118.441 116.781 118.781 114.815 119.243C114.656 119.28 114.525 119.397 114.464 119.549C108.065 135.687 101.779 139.642 95.3934 139.642C92.1121 139.642 89.891 137.956 89.891 134.557C89.891 124.496 107.956 113.143 132.05 113.143C149.423 113.143 162.383 116.921 165.104 117.779C165.391 117.87 165.69 117.687 165.751 117.393C167.411 109.484 168.187 105.39 168.431 104.074C168.48 103.805 168.31 103.551 168.04 103.506C163.359 102.718 143.522 100.491 124.569 104.635ZM114.295 95.1138C107.393 95.1138 107.949 82.0896 114.093 82.0896C114.766 82.0859 115.431 82.2325 116.041 82.5189C116.597 82.7799 117.094 83.151 117.503 83.6095C117.58 83.6961 117.619 83.8091 117.619 83.9251C117.618 86.9968 117.569 90.1708 117.466 93.5059C117.463 93.6203 117.421 93.7309 117.342 93.8143C116.972 94.209 116.528 94.527 116.034 94.7499C115.488 94.9971 114.894 95.1212 114.295 95.1138ZM131.033 60.3632C131.052 59.6096 131.224 58.8679 131.537 58.1833C131.85 57.4987 132.299 56.8855 132.855 56.3812C133.411 55.877 134.064 55.4921 134.772 55.2502C135.481 55.0083 136.232 54.9143 136.978 54.9741C137.724 55.0339 138.45 55.2461 139.112 55.5979C139.774 55.9497 140.357 56.4336 140.828 57.0201C141.298 57.6066 141.644 58.2835 141.846 59.0094C142.048 59.7353 142.101 60.495 142.002 61.2421C141.982 61.9957 141.811 62.7374 141.498 63.422C141.184 64.1066 140.736 64.7198 140.18 65.2241C139.623 65.7284 138.971 66.1132 138.262 66.3551C137.553 66.5971 136.803 66.691 136.057 66.6312C135.311 66.5714 134.585 66.3592 133.923 66.0074C133.261 65.6557 132.677 65.1718 132.207 64.5852C131.737 63.9987 131.39 63.3218 131.188 62.596C130.987 61.8701 130.934 61.1104 131.033 60.3632ZM141.171 80.8496C141.081 81.085 141.18 81.3508 141.405 81.4657C142.393 81.9715 143.41 82.4164 144.452 82.798C144.651 82.871 144.785 83.0607 144.789 83.2728C144.937 89.6996 149.082 94.7288 154.882 94.7288C158.8 94.7288 162.599 91.9775 164.721 89.5145C164.874 89.3372 164.875 89.0776 164.73 88.8938L163.316 87.0995C163.125 86.8571 162.76 86.8397 162.536 87.0514C161.663 87.8747 159.537 89.6368 157.326 89.6368C154.897 89.6368 152.558 88.3438 151.896 85.0745C151.833 84.763 152.094 84.4891 152.411 84.5037C159.637 84.8376 166.463 80.8667 166.463 73.8668C166.463 69.7554 163.341 66.7482 158.992 66.7482C152.68 66.7482 147.159 72.5609 145.394 78.8471C145.315 79.1315 145.012 79.2955 144.736 79.1919C144.051 78.9355 143.377 78.6524 142.714 78.343C142.455 78.2221 142.147 78.3373 142.042 78.6031C141.785 79.251 141.389 80.2805 141.171 80.8496ZM160.759 74.724C160.759 77.3057 158.182 80.5688 152.484 80.5478C152.183 80.5466 151.961 80.2694 152.021 79.9746C153.687 71.7643 160.759 69.8212 160.759 74.7094V74.724ZM129.418 83.6005C129.373 79.2043 129.899 74.8213 130.982 70.563C131.013 70.4426 131.111 70.3515 131.233 70.3294V70.3294C131.286 70.3198 131.341 70.3239 131.392 70.3408C133.889 71.1656 136.572 71.1643 139.053 70.3535C139.472 70.2167 139.898 70.6243 139.753 71.04C137.886 76.3886 136.881 81.4519 136.881 85.5036C136.881 90.3338 139.411 91.8246 142.162 88.7931C142.445 88.482 142.991 88.5833 143.132 88.9793C143.389 89.7051 143.713 90.4058 144.099 91.0721C144.199 91.2431 144.195 91.4567 144.079 91.6171C142.299 94.0904 139.972 95.615 137.228 95.615C132.547 95.6077 129.418 90.7554 129.418 83.6005Z" fill="#00FF00"/>
<path d="M111.72 102.034L111.725 102.034C113.291 102.027 114.817 101.622 116.167 100.872C116.083 102.526 115.987 104.219 115.878 105.954C105.887 109.166 97.9683 113.709 92.513 118.592C87.032 123.498 83.9078 128.871 83.9078 133.663C83.9078 136.949 84.7985 139.821 86.8287 141.87C88.8615 143.922 91.8895 145 95.8549 145C101.987 145 107.771 141.776 112.397 136.986C117.031 132.19 120.59 125.741 122.276 119.074C122.532 118.062 121.699 117.12 120.672 117.23C118.625 117.452 116.592 117.798 114.587 118.269C114.096 118.384 113.71 118.738 113.535 119.18C110.359 127.189 107.254 132.059 104.236 134.921C101.258 137.746 98.3382 138.642 95.3934 138.642C93.9121 138.642 92.7998 138.261 92.0709 137.622C91.3623 137.001 90.891 136.027 90.891 134.557C90.891 132.347 91.8851 129.97 93.8577 127.608C95.8274 125.249 98.7293 122.96 102.413 120.956C109.779 116.948 120.151 114.143 132.05 114.143C149.286 114.143 162.14 117.893 164.803 118.733C165.677 119.009 166.552 118.447 166.73 117.599C168.391 109.683 169.169 105.581 169.414 104.255C169.561 103.46 169.049 102.661 168.206 102.519C163.515 101.73 143.934 99.5267 125.007 103.518C125.797 93.104 126.254 86.5406 126.578 81.89C127.012 75.653 127.207 72.8562 127.644 68.8252C127.748 67.8676 126.928 67.0337 125.94 67.1798C124.475 67.3967 120.715 67.9822 117.413 68.7437C116.697 68.9086 116.215 69.5645 116.255 70.2867C116.323 71.5115 116.381 72.7429 116.431 73.9848C115.41 73.6289 114.332 73.4508 113.244 73.4625C109.273 73.4642 106.281 75.3036 104.29 78.0237C102.321 80.7149 101.339 84.2469 101.249 87.7223C101.159 91.1964 101.957 94.7253 103.675 97.4199C105.412 100.143 108.115 102.034 111.72 102.034ZM114.307 94.1139V94.1138H114.295C112.937 94.1138 111.974 93.495 111.317 92.5201C110.636 91.509 110.282 90.0954 110.302 88.6153C110.322 87.1365 110.715 85.7057 111.396 84.6766C112.063 83.669 112.965 83.0896 114.093 83.0896L114.098 83.0896C114.622 83.0867 115.14 83.2008 115.616 83.424C115.989 83.5992 116.328 83.8382 116.619 84.1298C116.615 87.0642 116.569 90.0939 116.473 93.2702C116.223 93.5051 115.935 93.6973 115.623 93.8387C115.209 94.0257 114.76 94.1195 114.307 94.1139ZM137.226 96.615H137.228C140.389 96.615 142.986 94.8473 144.891 92.2013C145.252 91.6989 145.247 91.0578 144.964 90.5703C144.609 89.9574 144.311 89.3129 144.074 88.6451C143.672 87.5103 142.194 87.2705 141.422 88.1211C140.133 89.5415 139.339 89.4436 139.012 89.2435C138.779 89.1007 138.491 88.7784 138.26 88.1404C138.03 87.508 137.881 86.6315 137.881 85.5036C137.881 81.5989 138.853 76.6509 140.697 71.3696C141.138 70.1052 139.88 69.0314 138.743 69.4029C136.463 70.1477 133.999 70.1489 131.706 69.3913C131.5 69.3232 131.276 69.3054 131.055 69.3453C130.55 69.4367 130.141 69.8144 130.013 70.3165C128.909 74.6573 128.373 79.1249 128.418 83.6061C128.418 87.312 129.227 90.5177 130.728 92.8323C132.246 95.1725 134.49 96.6108 137.226 96.615ZM76.4078 98.1719C76.4078 102.908 77.8975 106.561 80.2364 108.985C82.5734 111.408 85.7032 112.54 88.8349 112.312C95.1808 111.851 101.117 105.931 101.117 94.9249C101.117 92.4791 100.193 89.2541 98.3064 86.6233C96.4011 83.9669 93.4488 81.8385 89.4099 81.8378C81.8265 81.8216 76.4078 89.329 76.4078 98.1719ZM92.778 97.5109C92.778 102.51 90.5535 104.163 88.9918 104.182C87.3792 104.201 85.2299 102.535 85.2299 98.4915C85.2299 94.0438 87.4003 92.3744 89.0473 92.3029C90.6889 92.2318 92.778 93.7022 92.778 97.4964V97.5109ZM82.1278 113.343L82.0826 113.283C81.9574 113.118 81.8017 112.983 81.6286 112.884C78.9267 111.339 76.8589 108.881 75.7863 105.951C75.4612 105.064 74.4033 104.673 73.5781 105.157C70.0867 107.205 66.6348 107.8 63.5469 107.207C60.6325 106.647 57.9644 105.014 55.8371 102.395C64.2447 98.0004 72.0294 92.6549 77.7631 86.6054C83.6155 80.4308 87.4078 73.4375 87.4078 65.9201C87.4078 60.7691 85.0991 55.9871 80.1983 52.5283C75.3306 49.0929 67.9664 47 57.8645 47C34.5247 47 10.6761 58.0654 3.62707 61.6977C3.01961 62.0107 2.75109 62.6578 2.84666 63.2591C3.88767 69.8084 4.98748 75.6174 5.49438 78.2898C5.5773 78.7269 5.85259 79.0302 6.05314 79.2039C6.27205 79.3935 6.52814 79.5389 6.77512 79.6411C7.02217 79.7433 7.30577 79.8213 7.59409 79.8421C7.85812 79.8612 8.2656 79.8419 8.63275 79.5946C16.0048 74.6288 25.8618 69.397 35.6822 65.4091C45.5285 61.4106 55.2195 58.7119 62.2924 58.7119C68.0835 58.7119 71.9223 60.0648 74.1123 62.1418C76.2545 64.1734 76.9882 67.0627 76.2161 70.602C75.4373 74.1727 73.1274 78.3388 69.266 82.6719C65.5579 86.833 60.4588 91.1028 54.0356 95.0929C54.0042 84.8623 54.5921 74.639 55.7962 64.4799C55.9272 63.3747 54.8444 62.502 53.7848 62.8983C49.7098 64.4227 45.7319 66.199 41.874 68.2172C41.3645 68.4838 41.0585 69.0161 41.0709 69.5799C41.3562 82.5296 42.0464 92.2437 43.2758 100.859C40.924 101.957 38.456 103.002 35.8717 103.992C35.18 104.257 34.7827 104.988 34.9415 105.715C35.1726 106.773 35.412 107.896 35.6561 109.085C35.8369 109.965 36.7496 110.496 37.6087 110.203C39.8599 109.433 42.1314 108.585 44.3971 107.67C45.9366 115.849 48.0562 123.489 50.8912 132.712C51.186 133.672 52.3185 134.074 53.1526 133.527C55.0913 132.254 56.9553 131.132 57.6904 130.695C58.2776 130.346 58.5515 129.649 58.3689 128.997C56.7571 123.243 55.6143 117.367 54.9513 111.429C61.8311 118.307 72.3281 121.901 81.7784 115.479C82.4893 114.996 82.6401 114.019 82.1278 113.343ZM130.628 57.7672C130.266 58.5586 130.064 59.4144 130.035 60.2844C129.927 61.1482 129.992 62.0251 130.225 62.8639C130.463 63.7198 130.872 64.5183 131.427 65.2107C131.982 65.903 132.671 66.4747 133.454 66.8905C134.236 67.3063 135.095 67.5573 135.977 67.628C136.86 67.6987 137.747 67.5876 138.585 67.3015C139.423 67.0155 140.194 66.5606 140.851 65.965C141.508 65.3694 142.037 64.6456 142.407 63.8381C142.769 63.0468 142.97 62.191 143 61.321C143.107 60.4572 143.043 59.5802 142.81 58.7414C142.572 57.8855 142.163 57.087 141.608 56.3947C141.053 55.7023 140.363 55.1306 139.581 54.7149C138.799 54.2991 137.94 54.048 137.057 53.9773C136.175 53.9066 135.288 54.0177 134.449 54.3038C133.611 54.5899 132.84 55.0448 132.183 55.6404C131.526 56.2359 130.997 56.9597 130.628 57.7672ZM140.949 82.3559C141.876 82.8302 142.828 83.253 143.8 83.6223C144.089 90.2806 148.492 95.7288 154.882 95.7288C159.22 95.7288 163.271 92.7292 165.479 90.1673C165.956 89.613 165.945 88.8195 165.515 88.2748L164.101 86.4805C163.527 85.7515 162.477 85.7318 161.849 86.324C161.444 86.707 160.754 87.3002 159.923 87.7926C159.081 88.2916 158.178 88.6368 157.326 88.6368C156.285 88.6368 155.316 88.36 154.55 87.783C153.917 87.3058 153.37 86.5839 153.04 85.522C156.602 85.5616 160.069 84.6101 162.72 82.7548C165.562 80.7666 167.463 77.7343 167.463 73.8668C167.463 69.1611 163.85 65.7482 158.992 65.7482C155.521 65.7482 152.329 67.3451 149.804 69.7105C147.41 71.9533 145.563 74.9321 144.584 78.0617C144.096 77.8676 143.613 77.6592 143.137 77.4368C142.378 77.0826 141.439 77.4117 141.112 78.2346C140.853 78.8886 140.455 79.9234 140.238 80.4917C139.968 81.1958 140.262 82.0041 140.949 82.3559ZM159.759 74.724C159.759 76.5166 157.964 79.3175 153.146 79.5345C154.014 76.0547 155.904 74.0355 157.43 73.34C158.249 72.9666 158.832 73.0198 159.148 73.1926C159.419 73.3407 159.759 73.7261 159.759 74.7094V74.724Z" stroke="black" stroke-width="2" stroke-linejoin="round"/>
</g>
<g style="mix-blend-mode:screen" filter="url(#filter2_d)">
<path d="M75.63 98.1719C75.63 116.266 98.3392 116.208 98.3392 94.9249C98.3392 90.4576 94.9137 82.8378 87.63 82.8378C80.8223 82.8232 75.63 89.6295 75.63 98.1719ZM92.0002 97.5109C92.0002 107.949 82.4521 107.201 82.4521 98.4915C82.4521 88.9903 92.0002 89.1574 92.0002 97.4964V97.5109ZM79.3543 113.753C79.4139 113.787 79.4663 113.832 79.5077 113.887L79.553 113.947C79.7229 114.171 79.6713 114.494 79.4386 114.652C70.1014 120.997 59.5875 117.057 52.9409 109.736C52.6098 109.371 51.982 109.631 52.0304 110.121C52.6697 116.596 53.8735 123.003 55.6282 129.267C55.6897 129.486 55.5974 129.719 55.4015 129.835C54.6606 130.276 52.7824 131.407 50.8261 132.691C50.5465 132.874 50.1675 132.738 50.0693 132.419C47.1693 122.984 45.0289 115.24 43.4912 106.889C43.4334 106.576 43.1012 106.394 42.8059 106.515C40.3704 107.511 37.9266 108.43 35.5075 109.256C35.223 109.354 34.9184 109.178 34.8579 108.883C34.6128 107.69 34.3726 106.563 34.1406 105.502C34.0877 105.259 34.2201 105.015 34.4517 104.926C37.1809 103.88 39.7837 102.773 42.2599 101.606C42.4586 101.512 42.572 101.3 42.5405 101.083C41.2859 92.4305 40.5817 82.6685 40.2929 69.5579C40.2887 69.3685 40.392 69.1911 40.5598 69.1033C44.3811 67.1042 48.3211 65.3448 52.3573 63.8349C52.707 63.7041 53.0693 63.9914 53.0254 64.3622C51.7812 74.859 51.1923 85.424 51.2621 95.995C51.2647 96.3806 51.6935 96.6113 52.0231 96.4109C79.4185 79.7543 84.1766 57.7119 60.5146 57.7119C45.9724 57.7119 21.1657 68.7492 6.29628 78.7652C5.89048 79.0386 4.79024 78.5841 4.69906 78.1034C4.19244 75.4325 3.09498 69.6358 2.05646 63.1021C2.02272 62.8898 2.11628 62.685 2.30732 62.5866C9.32953 58.9682 32.9985 48 56.0867 48C76.0482 48 84.63 56.2809 84.63 65.9201C84.63 80.2539 70.1656 92.957 53.0593 101.787C52.7888 101.927 52.703 102.275 52.8862 102.518C57.5194 108.667 64.9644 110.325 72.3062 106.02C72.5886 105.854 72.9569 105.988 73.0694 106.295C74.2226 109.445 76.4463 112.089 79.3543 113.753ZM122.792 104.635C122.463 104.707 122.157 104.428 122.183 104.093C124.078 79.1581 124.099 75.8361 124.872 68.7173C124.907 68.3932 124.631 68.1213 124.309 68.169C122.849 68.3852 119.121 68.966 115.86 69.7181C115.624 69.7725 115.462 69.9896 115.476 70.2315C115.557 71.6982 115.625 73.1742 115.68 74.6662C115.695 75.0569 115.271 75.3157 114.913 75.1596C113.83 74.6878 112.658 74.449 111.471 74.4625C96.9834 74.4625 97.1348 101.034 109.943 101.034C111.59 101.027 113.187 100.526 114.538 99.6078C114.907 99.3569 115.453 99.621 115.431 100.067C115.331 102.102 115.214 104.198 115.077 106.357C115.064 106.563 114.923 106.741 114.725 106.804C94.6573 113.17 83.13 124.907 83.13 133.663C83.13 139.889 86.4978 144 94.0771 144C105.626 144 116.24 131.835 119.529 118.829C119.613 118.498 119.341 118.188 119.002 118.225C116.995 118.441 115.003 118.781 113.037 119.243C112.878 119.28 112.747 119.397 112.687 119.549C106.287 135.687 100.002 139.642 93.6156 139.642C90.3343 139.642 88.1132 137.956 88.1132 134.557C88.1132 124.496 106.178 113.143 130.272 113.143C147.645 113.143 160.605 116.921 163.327 117.779C163.613 117.87 163.912 117.687 163.973 117.393C165.633 109.484 166.41 105.39 166.653 104.074C166.702 103.805 166.532 103.551 166.263 103.506C161.581 102.718 141.744 100.491 122.792 104.635ZM112.517 95.1138C105.616 95.1138 106.171 82.0896 112.315 82.0896C112.988 82.0859 113.653 82.2325 114.263 82.5189C114.819 82.7799 115.316 83.151 115.725 83.6095C115.802 83.6961 115.842 83.8091 115.842 83.9251C115.84 86.9968 115.791 90.1708 115.688 93.5059C115.685 93.6203 115.643 93.7309 115.565 93.8143C115.194 94.209 114.75 94.527 114.257 94.7499C113.71 94.9971 113.116 95.1212 112.517 95.1138ZM129.255 60.3632C129.274 59.6096 129.446 58.8679 129.759 58.1833C130.072 57.4987 130.521 56.8855 131.077 56.3812C131.633 55.877 132.286 55.4921 132.995 55.2502C133.703 55.0083 134.454 54.9143 135.2 54.9741C135.946 55.0339 136.672 55.2461 137.334 55.5979C137.996 55.9497 138.58 56.4336 139.05 57.0201C139.52 57.6066 139.866 58.2835 140.068 59.0094C140.27 59.7353 140.323 60.495 140.224 61.2421C140.205 61.9957 140.033 62.7374 139.72 63.422C139.407 64.1066 138.958 64.7198 138.402 65.2241C137.846 65.7284 137.193 66.1132 136.484 66.3551C135.775 66.5971 135.025 66.691 134.279 66.6312C133.533 66.5714 132.807 66.3592 132.145 66.0074C131.483 65.6557 130.899 65.1718 130.429 64.5852C129.959 63.9987 129.613 63.3218 129.411 62.596C129.209 61.8701 129.156 61.1104 129.255 60.3632ZM139.393 80.8496C139.303 81.085 139.403 81.3508 139.627 81.4657C140.615 81.9715 141.633 82.4164 142.674 82.798C142.873 82.871 143.007 83.0607 143.012 83.2728C143.159 89.6996 147.304 94.7288 153.104 94.7288C157.022 94.7288 160.821 91.9775 162.943 89.5145C163.096 89.3372 163.097 89.0776 162.952 88.8938L161.538 87.0995C161.347 86.8571 160.982 86.8397 160.758 87.0514C159.885 87.8747 157.759 89.6368 155.548 89.6368C153.12 89.6368 150.781 88.3438 150.118 85.0745C150.055 84.763 150.316 84.4891 150.633 84.5037C157.86 84.8376 164.685 80.8667 164.685 73.8668C164.685 69.7554 161.563 66.7482 157.214 66.7482C150.902 66.7482 145.381 72.5609 143.617 78.8471C143.537 79.1315 143.235 79.2955 142.958 79.1919C142.273 78.9355 141.599 78.6524 140.936 78.343C140.677 78.2221 140.37 78.3373 140.264 78.6031C140.007 79.251 139.612 80.2805 139.393 80.8496ZM158.981 74.724C158.981 77.3057 156.404 80.5688 150.706 80.5478C150.406 80.5466 150.183 80.2694 150.243 79.9746C151.909 71.7643 158.981 69.8212 158.981 74.7094V74.724ZM127.64 83.6005C127.595 79.2043 128.121 74.8213 129.204 70.563C129.235 70.4426 129.333 70.3515 129.456 70.3294V70.3294C129.509 70.3198 129.563 70.3239 129.614 70.3408C132.111 71.1656 134.794 71.1643 137.276 70.3535C137.694 70.2167 138.12 70.6243 137.975 71.04C136.108 76.3886 135.104 81.4519 135.104 85.5036C135.104 90.3338 137.633 91.8246 140.385 88.7931C140.667 88.482 141.213 88.5833 141.354 88.9793C141.611 89.7051 141.935 90.4058 142.322 91.0721C142.421 91.2431 142.417 91.4567 142.301 91.6171C140.521 94.0904 138.194 95.615 135.45 95.615C130.77 95.6077 127.64 90.7554 127.64 83.6005Z" fill="#FF0000"/>
<path d="M109.943 102.034L109.947 102.034C111.513 102.027 113.039 101.622 114.389 100.872C114.305 102.526 114.209 104.219 114.101 105.954C104.109 109.166 96.1905 113.709 90.7352 118.592C85.2542 123.498 82.13 128.871 82.13 133.663C82.13 136.949 83.0207 139.821 85.0509 141.87C87.0837 143.922 90.1116 145 94.0771 145C100.209 145 105.993 141.776 110.62 136.986C115.253 132.19 118.813 125.741 120.498 119.074C120.754 118.062 119.921 117.12 118.895 117.23C116.847 117.452 114.815 117.798 112.809 118.269C112.318 118.384 111.933 118.738 111.757 119.18C108.581 127.189 105.476 132.059 102.458 134.921C99.4798 137.746 96.5604 138.642 93.6156 138.642C92.1343 138.642 91.022 138.261 90.2931 137.622C89.5845 137.001 89.1132 136.027 89.1132 134.557C89.1132 132.347 90.1073 129.97 92.0799 127.608C94.0496 125.249 96.9515 122.96 100.635 120.956C108.001 116.948 118.373 114.143 130.272 114.143C147.509 114.143 160.362 117.893 163.026 118.733C163.899 119.009 164.774 118.447 164.952 117.599C166.613 109.683 167.391 105.581 167.636 104.255C167.783 103.46 167.272 102.661 166.429 102.519C161.737 101.73 142.156 99.5267 123.229 103.518C124.019 93.104 124.476 86.5406 124.8 81.89C125.234 75.653 125.429 72.8562 125.866 68.8252C125.97 67.8676 125.15 67.0337 124.163 67.1798C122.697 67.3967 118.937 67.9822 115.635 68.7437C114.92 68.9086 114.437 69.5645 114.477 70.2867C114.545 71.5115 114.604 72.7429 114.653 73.9848C113.633 73.6289 112.555 73.4508 111.466 73.4625C107.496 73.4642 104.503 75.3036 102.512 78.0237C100.543 80.7149 99.5615 84.2469 99.4714 87.7223C99.3814 91.1964 100.179 94.7253 101.898 97.4199C103.634 100.143 106.337 102.034 109.943 102.034ZM112.529 94.1139V94.1138H112.517C111.159 94.1138 110.196 93.495 109.539 92.5201C108.858 91.509 108.504 90.0954 108.524 88.6153C108.544 87.1365 108.937 85.7057 109.618 84.6766C110.285 83.669 111.187 83.0896 112.315 83.0896L112.321 83.0896C112.844 83.0867 113.363 83.2008 113.838 83.424C114.211 83.5992 114.55 83.8382 114.841 84.1298C114.838 87.0642 114.791 90.0939 114.695 93.2702C114.445 93.5051 114.158 93.6973 113.845 93.8387C113.431 94.0257 112.982 94.1195 112.529 94.1139ZM135.448 96.615H135.45C138.611 96.615 141.209 94.8473 143.113 92.2013C143.475 91.6989 143.469 91.0578 143.187 90.5703C142.831 89.9574 142.533 89.3129 142.296 88.6451C141.894 87.5103 140.416 87.2705 139.644 88.1211C138.355 89.5415 137.561 89.4436 137.234 89.2435C137.001 89.1007 136.714 88.7784 136.482 88.1404C136.252 87.508 136.104 86.6315 136.104 85.5036C136.104 81.5989 137.076 76.6509 138.919 71.3696C139.36 70.1052 138.102 69.0314 136.965 69.4029C134.686 70.1477 132.221 70.1489 129.928 69.3913C129.722 69.3232 129.498 69.3054 129.278 69.3453C128.772 69.4367 128.363 69.8144 128.235 70.3165C127.131 74.6573 126.595 79.1249 126.64 83.6061C126.641 87.312 127.449 90.5177 128.951 92.8323C130.469 95.1725 132.712 96.6108 135.448 96.615ZM74.63 98.1719C74.63 102.908 76.1197 106.561 78.4586 108.985C80.7956 111.408 83.9254 112.54 87.0571 112.312C93.403 111.851 99.3392 105.931 99.3392 94.9249C99.3392 92.4791 98.4155 89.2541 96.5285 86.6233C94.6233 83.9669 91.671 81.8385 87.6321 81.8378C80.0487 81.8216 74.63 89.329 74.63 98.1719ZM91.0002 97.5109C91.0002 102.51 88.7757 104.163 87.214 104.182C85.6014 104.201 83.4521 102.535 83.4521 98.4915C83.4521 94.0438 85.6225 92.3744 87.2695 92.3029C88.911 92.2318 91.0002 93.7022 91.0002 97.4964V97.5109ZM80.35 113.343L80.3048 113.283C80.1796 113.118 80.0239 112.983 79.8508 112.884C77.1489 111.339 75.0811 108.881 74.0085 105.951C73.6833 105.064 72.6255 104.673 71.8003 105.157C68.3089 107.205 64.857 107.8 61.7691 107.207C58.8547 106.647 56.1866 105.014 54.0593 102.395C62.4669 98.0004 70.2516 92.6549 75.9853 86.6054C81.8377 80.4308 85.63 73.4375 85.63 65.9201C85.63 60.7691 83.3213 55.9871 78.4205 52.5283C73.5528 49.0929 66.1886 47 56.0867 47C32.7469 47 8.89828 58.0654 1.84927 61.6977C1.24181 62.0107 0.973292 62.6578 1.06886 63.2591C2.10987 69.8084 3.20968 75.6174 3.71658 78.2898C3.7995 78.7269 4.07479 79.0302 4.27534 79.2039C4.49425 79.3935 4.75034 79.5389 4.99731 79.6411C5.24437 79.7433 5.52797 79.8213 5.81629 79.8421C6.08032 79.8612 6.48779 79.8419 6.85495 79.5946C14.227 74.6288 24.084 69.397 33.9044 65.4091C43.7507 61.4106 53.4417 58.7119 60.5146 58.7119C66.3057 58.7119 70.1445 60.0648 72.3345 62.1418C74.4767 64.1734 75.2104 67.0627 74.4383 70.602C73.6595 74.1727 71.3496 78.3388 67.4882 82.6719C63.7801 86.833 58.681 91.1028 52.2578 95.0929C52.2264 84.8623 52.8143 74.639 54.0184 64.4799C54.1494 63.3747 53.0666 62.502 52.007 62.8983C47.932 64.4227 43.9541 66.199 40.0962 68.2172C39.5867 68.4838 39.2807 69.0161 39.2931 69.5799C39.5784 82.5296 40.2686 92.2437 41.498 100.859C39.1462 101.957 36.6782 103.002 34.0939 103.992C33.4022 104.257 33.0049 104.988 33.1637 105.715C33.3948 106.773 33.6342 107.896 33.8783 109.085C34.0591 109.965 34.9718 110.496 35.8309 110.203C38.0821 109.433 40.3536 108.585 42.6193 107.67C44.1588 115.849 46.2784 123.489 49.1134 132.712C49.4082 133.672 50.5407 134.074 51.3748 133.527C53.3135 132.254 55.1775 131.132 55.9126 130.695C56.4998 130.346 56.7737 129.649 56.5911 128.997C54.9793 123.243 53.8365 117.367 53.1735 111.429C60.0533 118.307 70.5503 121.901 80.0006 115.479C80.7115 114.996 80.8623 114.019 80.35 113.343ZM128.85 57.7672C128.488 58.5586 128.286 59.4144 128.257 60.2844C128.149 61.1482 128.214 62.0251 128.447 62.8639C128.685 63.7198 129.094 64.5183 129.649 65.2107C130.204 65.903 130.893 66.4747 131.676 66.8905C132.458 67.3063 133.317 67.5573 134.199 67.628C135.082 67.6987 135.969 67.5876 136.807 67.3015C137.645 67.0155 138.416 66.5606 139.073 65.965C139.73 65.3694 140.26 64.6456 140.629 63.8381C140.991 63.0468 141.193 62.191 141.222 61.321C141.33 60.4572 141.265 59.5802 141.032 58.7414C140.794 57.8855 140.385 57.087 139.83 56.3947C139.275 55.7023 138.586 55.1306 137.803 54.7149C137.021 54.2991 136.162 54.048 135.28 53.9773C134.397 53.9066 133.51 54.0177 132.672 54.3038C131.834 54.5899 131.063 55.0448 130.406 55.6404C129.749 56.2359 129.219 56.9597 128.85 57.7672ZM139.171 82.3559C140.098 82.8302 141.05 83.253 142.023 83.6223C142.311 90.2806 146.714 95.7288 153.104 95.7288C157.442 95.7288 161.493 92.7292 163.701 90.1673C164.178 89.613 164.167 88.8195 163.737 88.2748L162.323 86.4805C161.749 85.7515 160.699 85.7318 160.072 86.324C159.666 86.707 158.976 87.3002 158.145 87.7926C157.303 88.2916 156.4 88.6368 155.548 88.6368C154.507 88.6368 153.538 88.36 152.773 87.783C152.139 87.3058 151.592 86.5839 151.262 85.522C154.824 85.5616 158.291 84.6101 160.943 82.7548C163.784 80.7666 165.685 77.7343 165.685 73.8668C165.685 69.1611 162.072 65.7482 157.214 65.7482C153.743 65.7482 150.551 67.3451 148.026 69.7105C145.632 71.9533 143.785 74.9321 142.807 78.0617C142.318 77.8676 141.835 77.6592 141.359 77.4368C140.6 77.0826 139.661 77.4117 139.335 78.2346C139.075 78.8886 138.677 79.9234 138.46 80.4917C138.19 81.1958 138.484 82.0041 139.171 82.3559ZM157.981 74.724C157.981 76.5166 156.187 79.3175 151.368 79.5345C152.236 76.0547 154.126 74.0355 155.652 73.34C156.471 72.9666 157.054 73.0198 157.37 73.1926C157.641 73.3407 157.981 73.7261 157.981 74.7094V74.724Z" stroke="black" stroke-width="2" stroke-linejoin="round"/>
</g>
<g style="mix-blend-mode:screen" filter="url(#filter3_d)">
<path d="M78.5929 98.1719C78.5929 116.266 101.302 116.208 101.302 94.9249C101.302 90.4576 97.8766 82.8378 90.593 82.8378C83.7852 82.8232 78.5929 89.6295 78.5929 98.1719ZM94.9632 97.5109C94.9632 107.949 85.4151 107.201 85.4151 98.4915C85.4151 88.9903 94.9632 89.1574 94.9632 97.4964V97.5109ZM82.3173 113.753C82.3768 113.787 82.4292 113.832 82.4707 113.887L82.5159 113.947C82.6859 114.171 82.6343 114.494 82.4015 114.652C73.0643 120.997 62.5505 117.057 55.9039 109.736C55.5728 109.371 54.9449 109.631 54.9933 110.121C55.6327 116.596 56.8365 123.003 58.5912 129.267C58.6526 129.486 58.5604 129.719 58.3645 129.835C57.6236 130.276 55.7454 131.407 53.7891 132.691C53.5095 132.874 53.1305 132.738 53.0322 132.419C50.1322 122.984 47.9919 115.24 46.4541 106.889C46.3963 106.576 46.0641 106.394 45.7688 106.515C43.3333 107.511 40.8896 108.43 38.4705 109.256C38.1859 109.354 37.8813 109.178 37.8208 108.883C37.5757 107.69 37.3355 106.563 37.1036 105.502C37.0506 105.259 37.1831 105.015 37.4147 104.926C40.1439 103.88 42.7466 102.773 45.2229 101.606C45.4215 101.512 45.535 101.3 45.5035 101.083C44.2488 92.4305 43.5447 82.6685 43.2559 69.5579C43.2517 69.3685 43.3549 69.1911 43.5227 69.1033C47.344 67.1042 51.284 65.3448 55.3203 63.8349C55.67 63.7041 56.0323 63.9914 55.9883 64.3622C54.7442 74.859 54.1553 85.424 54.2251 95.995C54.2276 96.3806 54.6565 96.6113 54.986 96.4109C82.3814 79.7543 87.1396 57.7119 63.4775 57.7119C48.9353 57.7119 24.1287 68.7492 9.25923 78.7652C8.85343 79.0386 7.75319 78.5841 7.66201 78.1034C7.15539 75.4325 6.05794 69.6358 5.01941 63.1021C4.98568 62.8898 5.07923 62.685 5.27027 62.5866C12.2925 58.9682 35.9615 48 59.0496 48C79.0112 48 87.5929 56.2809 87.5929 65.9201C87.5929 80.2539 73.1286 92.957 56.0222 101.787C55.7518 101.927 55.666 102.275 55.8491 102.518C60.4823 108.667 67.9273 110.325 75.2691 106.02C75.5515 105.854 75.9198 105.988 76.0324 106.295C77.1856 109.445 79.4092 112.089 82.3173 113.753ZM125.755 104.635C125.426 104.707 125.12 104.428 125.145 104.093C127.041 79.1581 127.062 75.8361 127.835 68.7173C127.87 68.3932 127.594 68.1213 127.272 68.169C125.812 68.3852 122.084 68.966 118.823 69.7181C118.587 69.7725 118.425 69.9896 118.439 70.2315C118.52 71.6982 118.588 73.1742 118.643 74.6662C118.658 75.0569 118.234 75.3157 117.876 75.1596C116.793 74.6878 115.621 74.449 114.434 74.4625C99.9463 74.4625 100.098 101.034 112.905 101.034C114.553 101.027 116.15 100.526 117.501 99.6078C117.87 99.3569 118.416 99.621 118.394 100.067C118.294 102.102 118.176 104.198 118.04 106.357C118.027 106.563 117.885 106.741 117.688 106.804C97.6203 113.17 86.0929 124.907 86.0929 133.663C86.0929 139.889 89.4607 144 97.0401 144C108.588 144 119.203 131.835 122.492 118.829C122.576 118.498 122.304 118.188 121.965 118.225C119.958 118.441 117.966 118.781 116 119.243C115.841 119.28 115.71 119.397 115.65 119.549C109.25 135.687 102.964 139.642 96.5785 139.642C93.2973 139.642 91.0761 137.956 91.0761 134.557C91.0761 124.496 109.141 113.143 133.235 113.143C150.608 113.143 163.568 116.921 166.289 117.779C166.576 117.87 166.875 117.687 166.936 117.393C168.596 109.484 169.372 105.39 169.616 104.074C169.665 103.805 169.495 103.551 169.226 103.506C164.544 102.718 144.707 100.491 125.755 104.635ZM115.48 95.1138C108.579 95.1138 109.134 82.0896 115.278 82.0896C115.951 82.0859 116.616 82.2325 117.226 82.5189C117.782 82.7799 118.279 83.151 118.688 83.6095C118.765 83.6961 118.805 83.8091 118.804 83.9251C118.803 86.9968 118.754 90.1708 118.651 93.5059C118.648 93.6203 118.606 93.7309 118.528 93.8143C118.157 94.209 117.713 94.527 117.22 94.7499C116.673 94.9971 116.079 95.1212 115.48 95.1138ZM132.218 60.3632C132.237 59.6096 132.409 58.8679 132.722 58.1833C133.035 57.4987 133.484 56.8855 134.04 56.3812C134.596 55.877 135.249 55.4921 135.958 55.2502C136.666 55.0083 137.417 54.9143 138.163 54.9741C138.909 55.0339 139.635 55.2461 140.297 55.5979C140.959 55.9497 141.543 56.4336 142.013 57.0201C142.483 57.6066 142.829 58.2835 143.031 59.0094C143.233 59.7353 143.286 60.495 143.187 61.2421C143.168 61.9957 142.996 62.7374 142.683 63.422C142.369 64.1066 141.921 64.7198 141.365 65.2241C140.808 65.7284 140.156 66.1132 139.447 66.3551C138.738 66.5971 137.988 66.691 137.242 66.6312C136.496 66.5714 135.77 66.3592 135.108 66.0074C134.446 65.6557 133.862 65.1718 133.392 64.5852C132.922 63.9987 132.575 63.3218 132.374 62.596C132.172 61.8701 132.119 61.1104 132.218 60.3632ZM142.356 80.8496C142.266 81.085 142.366 81.3508 142.59 81.4657C143.578 81.9715 144.596 82.4164 145.637 82.798C145.836 82.871 145.97 83.0607 145.975 83.2728C146.122 89.6996 150.267 94.7288 156.067 94.7288C159.985 94.7288 163.784 91.9775 165.906 89.5145C166.059 89.3372 166.06 89.0776 165.915 88.8938L164.501 87.0995C164.31 86.8571 163.945 86.8397 163.721 87.0514C162.848 87.8747 160.722 89.6368 158.511 89.6368C156.082 89.6368 153.743 88.3438 153.081 85.0745C153.018 84.763 153.279 84.4891 153.596 84.5037C160.823 84.8376 167.648 80.8667 167.648 73.8668C167.648 69.7554 164.526 66.7482 160.177 66.7482C153.865 66.7482 148.344 72.5609 146.58 78.8471C146.5 79.1315 146.198 79.2955 145.921 79.1919C145.236 78.9355 144.562 78.6524 143.899 78.343C143.64 78.2221 143.333 78.3373 143.227 78.6031C142.97 79.251 142.574 80.2805 142.356 80.8496ZM161.944 74.724C161.944 77.3057 159.367 80.5688 153.669 80.5478C153.369 80.5466 153.146 80.2694 153.206 79.9746C154.872 71.7643 161.944 69.8212 161.944 74.7094V74.724ZM130.603 83.6005C130.558 79.2043 131.084 74.8213 132.167 70.563C132.198 70.4426 132.296 70.3515 132.419 70.3294V70.3294C132.472 70.3198 132.526 70.3239 132.577 70.3408C135.074 71.1656 137.757 71.1643 140.239 70.3535C140.657 70.2167 141.083 70.6243 140.938 71.04C139.071 76.3886 138.067 81.4519 138.067 85.5036C138.067 90.3338 140.596 91.8246 143.347 88.7931C143.63 88.482 144.176 88.5833 144.317 88.9793C144.574 89.7051 144.898 90.4058 145.285 91.0721C145.384 91.2431 145.38 91.4567 145.264 91.6171C143.484 94.0904 141.157 95.615 138.413 95.615C133.732 95.6077 130.603 90.7554 130.603 83.6005Z" fill="#0000FF"/>
<path d="M112.905 102.034L112.91 102.034C114.476 102.027 116.002 101.622 117.352 100.872C117.268 102.526 117.172 104.219 117.064 105.954C107.072 109.166 99.1535 113.709 93.6982 118.592C88.2172 123.498 85.0929 128.871 85.0929 133.663C85.0929 136.949 85.9836 139.821 88.0139 141.87C90.0467 143.922 93.0746 145 97.0401 145C103.172 145 108.956 141.776 113.583 136.986C118.216 132.19 121.775 125.741 123.461 119.074C123.717 118.062 122.884 117.12 121.858 117.23C119.81 117.452 117.778 117.798 115.772 118.269C115.281 118.384 114.895 118.738 114.72 119.18C111.544 127.189 108.439 132.059 105.421 134.921C102.443 137.746 99.5234 138.642 96.5785 138.642C95.0973 138.642 93.985 138.261 93.256 137.622C92.5474 137.001 92.0761 136.027 92.0761 134.557C92.0761 132.347 93.0703 129.97 95.0428 127.608C97.0126 125.249 99.9144 122.96 103.598 120.956C110.964 116.948 121.336 114.143 133.235 114.143C150.472 114.143 163.325 117.893 165.989 118.733C166.862 119.009 167.737 118.447 167.915 117.599C169.576 109.683 170.354 105.581 170.599 104.255C170.746 103.46 170.235 102.661 169.392 102.519C164.7 101.73 145.119 99.5267 126.192 103.518C126.982 93.104 127.439 86.5406 127.763 81.89C128.197 75.653 128.392 72.8562 128.829 68.8252C128.933 67.8676 128.113 67.0337 127.126 67.1798C125.66 67.3967 121.9 67.9822 118.598 68.7437C117.883 68.9086 117.4 69.5645 117.44 70.2867C117.508 71.5115 117.567 72.7429 117.616 73.9848C116.596 73.6289 115.518 73.4508 114.429 73.4625C110.459 73.4642 107.466 75.3036 105.475 78.0237C103.506 80.7149 102.524 84.2469 102.434 87.7223C102.344 91.1964 103.142 94.7253 104.861 97.4199C106.597 100.143 109.3 102.034 112.905 102.034ZM115.492 94.1139V94.1138H115.48C114.122 94.1138 113.159 93.495 112.502 92.5201C111.821 91.509 111.467 90.0954 111.487 88.6153C111.507 87.1365 111.9 85.7057 112.581 84.6766C113.248 83.669 114.15 83.0896 115.278 83.0896L115.284 83.0896C115.807 83.0867 116.326 83.2008 116.801 83.424C117.174 83.5992 117.513 83.8382 117.804 84.1298C117.801 87.0642 117.754 90.0939 117.658 93.2702C117.408 93.5051 117.121 93.6973 116.808 93.8387C116.394 94.0257 115.945 94.1195 115.492 94.1139ZM138.411 96.615H138.413C141.574 96.615 144.172 94.8473 146.076 92.2013C146.438 91.6989 146.432 91.0578 146.149 90.5703C145.794 89.9574 145.496 89.3129 145.259 88.6451C144.857 87.5103 143.379 87.2705 142.607 88.1211C141.318 89.5415 140.524 89.4436 140.197 89.2435C139.964 89.1007 139.676 88.7784 139.445 88.1404C139.215 87.508 139.067 86.6315 139.067 85.5036C139.067 81.5989 140.039 76.6509 141.882 71.3696C142.323 70.1052 141.065 69.0314 139.928 69.4029C137.649 70.1477 135.184 70.1489 132.891 69.3913C132.685 69.3232 132.461 69.3054 132.241 69.3453C131.735 69.4367 131.326 69.8144 131.198 70.3165C130.094 74.6573 129.558 79.1249 129.603 83.6061C129.603 87.312 130.412 90.5177 131.914 92.8323C133.431 95.1725 135.675 96.6108 138.411 96.615ZM77.5929 98.1719C77.5929 102.908 79.0827 106.561 81.4216 108.985C83.7586 111.408 86.8884 112.54 90.0201 112.312C96.3659 111.851 102.302 105.931 102.302 94.9249C102.302 92.4791 101.378 89.2541 99.4915 86.6233C97.5863 83.9669 94.6339 81.8385 90.5951 81.8378C83.0116 81.8216 77.5929 89.329 77.5929 98.1719ZM93.9632 97.5109C93.9632 102.51 91.7386 104.163 90.1769 104.182C88.5644 104.201 86.4151 102.535 86.4151 98.4915C86.4151 94.0438 88.5855 92.3744 90.2324 92.3029C91.874 92.2318 93.9632 93.7022 93.9632 97.4964V97.5109ZM83.313 113.343L83.2677 113.283C83.1426 113.118 82.9869 112.983 82.8138 112.884C80.1118 111.339 78.0441 108.881 76.9714 105.951C76.6463 105.064 75.5884 104.673 74.7633 105.157C71.2719 107.205 67.8199 107.8 64.732 107.207C61.8177 106.647 59.1495 105.014 57.0222 102.395C65.4299 98.0004 73.2146 92.6549 78.9483 86.6054C84.8006 80.4308 88.5929 73.4375 88.5929 65.9201C88.5929 60.7691 86.2843 55.9871 81.3835 52.5283C76.5158 49.0929 69.1516 47 59.0496 47C35.7098 47 11.8612 58.0654 4.81222 61.6977C4.20476 62.0107 3.93624 62.6578 4.03181 63.2591C5.07282 69.8084 6.17263 75.6174 6.67953 78.2898C6.76245 78.7269 7.03774 79.0302 7.23829 79.2039C7.4572 79.3935 7.71329 79.5389 7.96027 79.6411C8.20732 79.7433 8.49092 79.8213 8.77924 79.8421C9.04327 79.8612 9.45075 79.8419 9.8179 79.5946C17.19 74.6288 27.047 69.397 36.8673 65.4091C46.7136 61.4106 56.4047 58.7119 63.4775 58.7119C69.2687 58.7119 73.1074 60.0648 75.2975 62.1418C77.4397 64.1734 78.1733 67.0627 77.4013 70.602C76.6224 74.1727 74.3125 78.3388 70.4511 82.6719C66.743 86.833 61.644 91.1028 55.2207 95.0929C55.1893 84.8623 55.7772 74.639 56.9814 64.4799C57.1124 63.3747 56.0295 62.502 54.9699 62.8983C50.8949 64.4227 46.9171 66.199 43.0592 68.2172C42.5496 68.4838 42.2437 69.0161 42.2561 69.5799C42.5414 82.5296 43.2316 92.2437 44.4609 100.859C42.1091 101.957 39.6412 103.002 37.0568 103.992C36.3652 104.257 35.9678 104.988 36.1266 105.715C36.3578 106.773 36.5971 107.896 36.8413 109.085C37.022 109.965 37.9347 110.496 38.7939 110.203C41.0451 109.433 43.3165 108.585 45.5823 107.67C47.1218 115.849 49.2413 123.489 52.0764 132.712C52.3712 133.672 53.5036 134.074 54.3378 133.527C56.2764 132.254 58.1404 131.132 58.8756 130.695C59.4627 130.346 59.7366 129.649 59.5541 128.997C57.9423 123.243 56.7995 117.367 56.1364 111.429C63.0162 118.307 73.5132 121.901 82.9636 115.479C83.6744 114.996 83.8253 114.019 83.313 113.343ZM131.813 57.7672C131.451 58.5586 131.249 59.4144 131.22 60.2844C131.112 61.1482 131.177 62.0251 131.41 62.8639C131.648 63.7198 132.057 64.5183 132.612 65.2107C133.167 65.903 133.856 66.4747 134.639 66.8905C135.421 67.3063 136.28 67.5573 137.162 67.628C138.045 67.6987 138.932 67.5876 139.77 67.3015C140.608 67.0155 141.379 66.5606 142.036 65.965C142.693 65.3694 143.223 64.6456 143.592 63.8381C143.954 63.0468 144.156 62.191 144.185 61.321C144.293 60.4572 144.228 59.5802 143.995 58.7414C143.757 57.8855 143.348 57.087 142.793 56.3947C142.238 55.7023 141.548 55.1306 140.766 54.7149C139.984 54.2991 139.125 54.048 138.243 53.9773C137.36 53.9066 136.473 54.0177 135.635 54.3038C134.796 54.5899 134.025 55.0448 133.368 55.6404C132.711 56.2359 132.182 56.9597 131.813 57.7672ZM142.134 82.3559C143.061 82.8302 144.013 83.253 144.986 83.6223C145.274 90.2806 149.677 95.7288 156.067 95.7288C160.405 95.7288 164.456 92.7292 166.664 90.1673C167.141 89.613 167.13 88.8195 166.7 88.2748L165.286 86.4805C164.712 85.7515 163.662 85.7318 163.035 86.324C162.629 86.707 161.939 87.3002 161.108 87.7926C160.266 88.2916 159.363 88.6368 158.511 88.6368C157.47 88.6368 156.501 88.36 155.736 87.783C155.102 87.3058 154.555 86.5839 154.225 85.522C157.787 85.5616 161.254 84.6101 163.906 82.7548C166.747 80.7666 168.648 77.7343 168.648 73.8668C168.648 69.1611 165.035 65.7482 160.177 65.7482C156.706 65.7482 153.514 67.3451 150.989 69.7105C148.595 71.9533 146.748 74.9321 145.77 78.0617C145.281 77.8676 144.798 77.6592 144.322 77.4368C143.563 77.0826 142.624 77.4117 142.298 78.2346C142.038 78.8886 141.64 79.9234 141.423 80.4917C141.153 81.1958 141.447 82.0041 142.134 82.3559ZM160.944 74.724C160.944 76.5166 159.149 79.3175 154.331 79.5345C155.199 76.0547 157.089 74.0355 158.615 73.34C159.434 72.9666 160.017 73.0198 160.333 73.1926C160.604 73.3407 160.944 73.7261 160.944 74.7094V74.724Z" stroke="black" stroke-width="2" stroke-linejoin="round"/>
</g>
<defs>
<filter id="filter0_dd" x="1.8782" y="46" width="170.479" height="102" filterUnits="userSpaceOnUse" color-interpolation-filters="sRGB">
<feFlood flood-opacity="0" result="BackgroundImageFix"/>
<feColorMatrix in="SourceAlpha" type="matrix" values="0 0 0 0 0 0 0 0 0 0 0 0 0 0 0 0 0 0 127 0"/>
<feOffset dx="2" dy="2"/>
<feColorMatrix type="matrix" values="0 0 0 0 0 0 0 0 0 0 0 0 0 0 0 0 0 0 1 0"/>
<feBlend mode="normal" in2="BackgroundImageFix" result="effect1_dropShadow"/>
<feColorMatrix in="SourceAlpha" type="matrix" values="0 0 0 0 0 0 0 0 0 0 0 0 0 0 0 0 0 0 127 0"/>
<feOffset dx="1" dy="1"/>
<feColorMatrix type="matrix" values="0 0 0 0 0 0 0 0 0 0 0 0 0 0 0 0 0 0 1 0"/>
<feBlend mode="normal" in2="effect1_dropShadow" result="effect2_dropShadow"/>
<feBlend mode="normal" in="SourceGraphic" in2="effect2_dropShadow" result="shape"/>
</filter>
<filter id="filter1_d" x="1.82809" y="46" width="170.611" height="101" filterUnits="userSpaceOnUse" color-interpolation-filters="sRGB">
<feFlood flood-opacity="0" result="BackgroundImageFix"/>
<feColorMatrix in="SourceAlpha" type="matrix" values="0 0 0 0 0 0 0 0 0 0 0 0 0 0 0 0 0 0 127 0"/>
<feOffset dx="2" dy="1"/>
<feColorMatrix type="matrix" values="0 0 0 0 0 0 0 0 0 0 0 0 0 0 0 0 0 0 1 0"/>
<feBlend mode="normal" in2="BackgroundImageFix" result="effect1_dropShadow"/>
<feBlend mode="normal" in="SourceGraphic" in2="effect1_dropShadow" result="shape"/>
</filter>
<filter id="filter2_d" x="0.050293" y="46" width="170.611" height="101" filterUnits="userSpaceOnUse" color-interpolation-filters="sRGB">
<feFlood flood-opacity="0" result="BackgroundImageFix"/>
<feColorMatrix in="SourceAlpha" type="matrix" values="0 0 0 0 0 0 0 0 0 0 0 0 0 0 0 0 0 0 127 0"/>
<feOffset dx="2" dy="1"/>
<feColorMatrix type="matrix" values="0 0 0 0 0 0 0 0 0 0 0 0 0 0 0 0 0 0 1 0"/>
<feBlend mode="normal" in2="BackgroundImageFix" result="effect1_dropShadow"/>
<feBlend mode="normal" in="SourceGraphic" in2="effect1_dropShadow" result="shape"/>
</filter>
<filter id="filter3_d" x="3.01324" y="46" width="170.611" height="101" filterUnits="userSpaceOnUse" color-interpolation-filters="sRGB">
<feFlood flood-opacity="0" result="BackgroundImageFix"/>
<feColorMatrix in="SourceAlpha" type="matrix" values="0 0 0 0 0 0 0 0 0 0 0 0 0 0 0 0 0 0 127 0"/>
<feOffset dx="2" dy="1"/>
<feColorMatrix type="matrix" values="0 0 0 0 0 0 0 0 0 0 0 0 0 0 0 0 0 0 1 0"/>
<feBlend mode="normal" in2="BackgroundImageFix" result="effect1_dropShadow"/>
<feBlend mode="normal" in="SourceGraphic" in2="effect1_dropShadow" result="shape"/>
</filter>
<radialGradient id="paint0_radial" cx="0" cy="0" r="1" gradientUnits="userSpaceOnUse" gradientTransform="translate(40.9462 140.063) scale(192.664 194.063)">
<stop stop-color="#FFB948"/>
<stop offset="0.32" stop-color="#EE2A7B"/>
<stop offset="1" stop-color="#002AFF"/>
</radialGradient>
</defs>
</svg>
