<svg width="128" height="128" viewBox="0 0 128 128" fill="none" xmlns="http://www.w3.org/2000/svg">
<g clip-path="url(#clip0_506_205)">
<path d="M30.5173 38.2637C28.859 36.8326 28.7069 34.2995 30.1756 32.5876C31.6443 30.8757 34.1793 30.6395 35.8376 32.0617" fill="black"/>
<path d="M30.5171 39.6948C30.1751 39.6947 29.8445 39.5723 29.585 39.3495C29.0422 38.8849 28.5994 38.3149 28.2832 37.6741C27.9671 37.0333 27.7844 36.335 27.746 35.6215C27.6583 34.1748 28.1406 32.7512 29.0895 31.6556C31.0699 29.3462 34.5154 29.0421 36.7694 30.9759C36.9122 31.0982 37.0294 31.2475 37.1144 31.4152C37.1994 31.5829 37.2506 31.7657 37.2649 31.9532C37.2793 32.1406 37.2566 32.3291 37.1981 32.5078C37.1397 32.6864 37.0466 32.8519 36.9242 32.9946C36.8018 33.1373 36.6525 33.2545 36.4848 33.3395C36.3171 33.4245 36.1343 33.4757 35.9468 33.49C35.7594 33.5044 35.5709 33.4817 35.3922 33.4233C35.2135 33.3648 35.0481 33.2717 34.9054 33.1493C33.8499 32.2424 32.2219 32.4087 31.2613 33.5196C30.7982 34.0516 30.5618 34.7439 30.6029 35.448C30.6199 35.7785 30.7036 36.1022 30.849 36.3995C30.9944 36.6968 31.1986 36.9616 31.4491 37.1778C31.6709 37.3682 31.8291 37.622 31.9024 37.9049C31.9756 38.1879 31.9605 38.4865 31.859 38.7606C31.7575 39.0347 31.5745 39.2712 31.3346 39.4382C31.0947 39.6052 30.8094 39.6947 30.5171 39.6948V39.6948Z" fill="black"/>
<path d="M19.1842 73.3951C19.1842 73.3951 14.1143 93.0726 37.8232 96.5072C43.9378 110.818 51.582 108.893 59.9883 109.262C63.1726 120.514 68.8883 116.97 71.3981 114.641C77.3017 115.258 78.8491 115.966 82.4896 111.754C87.6239 113.505 90.259 111.716 90.7062 104.659C95.1786 103.407 104.524 95.0654 95.8763 86.7704C95.6276 81.0049 105.966 60.7765 93.8369 57.646C92.8941 52.0289 84.9405 42.9773 69.8793 44.0274C54.8182 45.0774 19.1842 73.3951 19.1842 73.3951Z" fill="#FEF3E6"/>
<path d="M82.4093 48.7428C75.2535 23.5932 60.763 15.9745 32.6497 35.262C8.36122 51.9288 9.93907 78.2411 25.3974 90.2194C22.1987 86.232 24.1308 81.733 31.6104 74.2985C42.031 63.9195 61.8078 50.5943 82.4093 48.7428Z" fill="black"/>
<path d="M55.6679 104.122C56.0047 104.19 56.3359 104.283 56.659 104.4C56.9893 104.523 57.3098 104.672 57.6179 104.843C58.2458 105.2 58.8113 105.657 59.2923 106.196C59.7626 106.729 60.1641 107.319 60.4873 107.952C60.7958 108.554 61.0618 109.176 61.2834 109.815C61.7217 111.045 62.033 112.258 62.448 113.274C62.6219 113.734 62.8585 114.167 63.1511 114.562C63.2155 114.648 63.2852 114.723 63.3532 114.798C63.389 114.832 63.4212 114.87 63.4588 114.902C63.4963 114.934 63.5285 114.966 63.5768 115.006C63.7565 115.155 63.948 115.29 64.1493 115.408C64.5503 115.651 64.9884 115.826 65.4463 115.927C65.9068 116.034 66.3814 116.067 66.8524 116.025C67.8326 115.938 68.7656 115.565 69.5358 114.952C70.3677 114.272 71.0395 113.417 71.5037 112.448C72.0126 111.394 72.3882 110.281 72.6218 109.135V109.124C72.6559 108.978 72.7411 108.85 72.8619 108.762C72.9828 108.674 73.1312 108.632 73.2803 108.644C73.4293 108.656 73.5691 108.722 73.6741 108.828C73.7791 108.934 73.8424 109.075 73.8526 109.224C73.9404 110.565 73.7852 111.911 73.3946 113.197C72.9801 114.574 72.2237 115.824 71.196 116.83C70.0949 117.895 68.6829 118.58 67.1655 118.786C65.6094 118.992 64.0293 118.667 62.6806 117.864C62.347 117.663 62.0305 117.434 61.7342 117.181C61.6609 117.12 61.5822 117.049 61.5035 116.974C61.4247 116.898 61.3514 116.823 61.278 116.748C61.1361 116.595 61.0029 116.435 60.8791 116.267C60.4405 115.649 60.0946 114.971 59.8523 114.253C59.6359 113.623 59.4531 112.982 59.3048 112.333C59.1546 111.716 59.0276 111.119 58.8826 110.544C58.5982 109.394 58.2547 108.333 57.6876 107.437C57.4071 106.985 57.0611 106.577 56.6608 106.226C56.2354 105.861 55.7682 105.547 55.269 105.292H55.2565C55.1246 105.222 55.0222 105.107 54.968 104.968C54.9137 104.829 54.9111 104.675 54.9607 104.534C55.0102 104.393 55.1087 104.275 55.2381 104.2C55.3675 104.126 55.5194 104.1 55.6661 104.128L55.6679 104.122Z" fill="black"/>
<path d="M73.0118 112.861C73.074 112.997 73.1457 113.129 73.2265 113.254C73.262 113.316 73.3008 113.376 73.3428 113.433C73.3911 113.487 73.4322 113.541 73.4751 113.593C73.5203 113.644 73.5687 113.692 73.62 113.737C73.665 113.788 73.7154 113.833 73.7703 113.872C73.8258 113.911 73.8741 113.954 73.926 113.993L74.1048 114.099C74.3345 114.237 74.5819 114.343 74.8401 114.414C74.9653 114.457 75.1031 114.478 75.2337 114.508C75.3006 114.52 75.368 114.529 75.4358 114.534C75.5033 114.545 75.5714 114.552 75.6398 114.555C76.1907 114.586 76.7428 114.518 77.2695 114.353C77.3983 114.297 77.5325 114.263 77.6595 114.208C77.7865 114.153 77.9189 114.101 78.0387 114.029C78.2902 113.9 78.5296 113.748 78.7543 113.576C78.9915 113.404 79.2146 113.213 79.4216 113.006C79.5236 112.897 79.6345 112.797 79.7347 112.682C79.8348 112.568 79.9279 112.446 80.0316 112.324C80.4195 111.817 80.7648 111.279 81.0638 110.714C81.6757 109.535 82.1372 108.21 82.6131 106.815V106.804C82.6588 106.668 82.7495 106.551 82.8703 106.473C82.991 106.395 83.1347 106.361 83.2776 106.375C83.4206 106.39 83.5543 106.453 83.6569 106.553C83.7594 106.654 83.8247 106.786 83.8421 106.929C84.0316 108.525 83.8748 110.143 83.3823 111.673C83.1126 112.477 82.7417 113.242 82.2785 113.952C82.1515 114.131 82.0209 114.31 81.8885 114.489C81.7562 114.668 81.6005 114.823 81.4556 114.99C81.1466 115.316 80.8103 115.615 80.4502 115.884C80.0809 116.155 79.6875 116.391 79.2749 116.589C79.0692 116.693 78.8473 116.768 78.6327 116.85C78.418 116.932 78.189 116.986 77.9654 117.047C77.0491 117.258 76.0964 117.254 75.1818 117.036C74.7203 116.924 74.2765 116.748 73.8633 116.514C73.6547 116.396 73.455 116.264 73.2658 116.117C73.1706 116.043 73.0798 115.963 72.9939 115.879C72.9016 115.801 72.8161 115.715 72.7381 115.623C72.4106 115.266 72.1538 114.85 71.9814 114.398C71.8189 113.956 71.7501 113.485 71.7792 113.015C71.7857 112.883 71.8343 112.757 71.9178 112.655C72.0014 112.553 72.1155 112.481 72.2433 112.448C72.3711 112.416 72.5059 112.426 72.6278 112.476C72.7498 112.526 72.8524 112.614 72.9206 112.727L73.0118 112.861Z" fill="black"/>
<path opacity="0.25" d="M89.4915 103.366C88.3734 106.312 86.3984 110.56 83.7508 108.732C82.4842 111.006 82.4985 111.752 82.4985 111.752C82.4985 111.752 88.08 114.92 89.5345 110.335C90.9889 105.75 89.4915 103.366 89.4915 103.366Z" fill="black"/>
<path opacity="0.25" d="M82.4842 107.392C81.3661 110.337 76.7059 114.587 73.6862 111.902C72.4178 114.176 73.1352 114.662 73.1352 114.662C73.1352 114.662 80.359 117.83 81.8134 113.244C83.2678 108.657 82.4842 107.392 82.4842 107.392Z" fill="black"/>
<path opacity="0.25" d="M72.5305 109.442C71.6843 112.771 65.8577 115.966 62.3532 113.058C60.3352 114.703 60.9506 114.093 60.9506 114.093C60.9506 114.093 66.9132 119.95 69.958 116.228C73.0028 112.505 72.5305 109.442 72.5305 109.442Z" fill="black"/>
<path d="M92.5919 100.539C92.2448 101.096 92.082 101.75 91.9729 102.473C91.8638 103.196 91.819 103.958 91.7707 104.748C91.7224 105.539 91.6724 106.358 91.5829 107.197C91.5364 107.618 91.4768 108.046 91.404 108.48C91.3217 108.929 91.2148 109.372 91.0838 109.809C90.9396 110.28 90.7522 110.736 90.5239 111.172C90.2702 111.654 89.9444 112.095 89.5578 112.478C89.3521 112.678 89.1281 112.857 88.8888 113.015C88.7697 113.095 88.646 113.169 88.5184 113.235L88.1821 113.398C87.7102 113.618 87.2108 113.773 86.6973 113.859C86.1454 113.95 85.5811 113.934 85.0354 113.811C84.4972 113.681 83.992 113.441 83.5523 113.104C83.1512 112.795 82.8063 112.419 82.5326 111.993C82.4024 111.793 82.287 111.584 82.1874 111.367C82.1391 111.258 82.0926 111.149 82.0514 111.038C82.0103 110.927 81.9781 110.825 81.9351 110.68C81.8979 110.552 81.9037 110.415 81.9516 110.29C81.9995 110.166 82.0869 110.06 82.2005 109.99C82.314 109.919 82.4475 109.888 82.5804 109.901C82.7134 109.913 82.8386 109.969 82.9369 110.06L83.064 110.178C83.1087 110.219 83.1749 110.297 83.2321 110.357C83.2894 110.416 83.3555 110.485 83.411 110.548C83.538 110.673 83.6686 110.788 83.801 110.895C84.0471 111.097 84.3213 111.261 84.615 111.383C85.1082 111.59 85.6618 111.6 86.1624 111.412C86.442 111.314 86.7101 111.186 86.9621 111.031L87.1642 110.904C87.2143 110.866 87.2608 110.832 87.3055 110.793C87.3988 110.717 87.485 110.634 87.5632 110.543C87.9267 110.071 88.1914 109.532 88.3413 108.956C88.4433 108.628 88.5328 108.278 88.6079 107.913C88.683 107.548 88.7599 107.174 88.8297 106.788C88.971 106.019 89.0981 105.214 89.2752 104.392C89.4442 103.536 89.6928 102.698 90.0176 101.888C90.1988 101.452 90.4261 101.036 90.6956 100.648C90.9823 100.237 91.347 99.8866 91.769 99.6162C91.889 99.5416 92.0307 99.5099 92.1711 99.526C92.3114 99.5422 92.4422 99.6054 92.5421 99.7053C92.642 99.8052 92.7052 99.936 92.7214 100.076C92.7376 100.217 92.7058 100.358 92.6312 100.478L92.5919 100.539Z" fill="black"/>
<path d="M87.9119 65.4257C97.5722 66.3595 89.9084 78.9853 91.3825 85.257L84.2983 85.656C84.2983 85.656 75.6505 66.338 87.9119 65.4257Z" fill="white"/>
<path d="M94.0408 65.9034C92.7379 65.8382 91.4324 65.8447 90.1302 65.923C88.9024 65.9907 87.6938 66.2583 86.5523 66.7155C85.4897 67.1497 84.5388 67.818 83.7705 68.6707C83.6733 68.7732 83.5836 68.8827 83.5022 68.9981C83.4181 69.1126 83.3233 69.2199 83.2446 69.3362L83.0209 69.6939C82.9406 69.8124 82.8695 69.9368 82.8081 70.066C82.6737 70.3213 82.5542 70.5841 82.4503 70.8531L82.291 71.2592L82.164 71.6832C81.8376 72.8465 81.6934 74.0534 81.7365 75.2609L81.7883 76.1857L81.8975 77.1106L82.0495 78.0354L82.2517 78.9567C82.5593 80.1854 82.9704 81.3858 83.4807 82.5451C83.9955 83.7146 84.5933 84.8456 85.2696 85.9296V85.9458C85.4594 86.2428 85.5234 86.603 85.4476 86.9472C85.3718 87.2914 85.1623 87.5914 84.8653 87.7811C84.5683 87.9709 84.2081 88.0349 83.8639 87.9591C83.5197 87.8833 83.2197 87.6738 83.0299 87.3768C81.4458 85.0048 80.2782 82.3798 79.5772 79.615L79.3447 78.5613L79.1658 77.488L79.0531 76.4147L79.0047 75.3217C78.9742 73.8324 79.1745 72.3473 79.5987 70.9193C80.033 69.4308 80.805 68.0626 81.8545 66.9212C82.1232 66.6362 82.4113 66.3702 82.7168 66.1252L83.1748 65.7674L83.6667 65.4508C84.3233 65.0483 85.0269 64.728 85.7616 64.4973C87.1769 64.0725 88.6601 63.9214 90.132 64.0519C91.5379 64.1729 92.9193 64.4946 94.234 65.0071C94.3365 65.0472 94.4216 65.1219 94.4745 65.2183C94.5274 65.3147 94.5446 65.4267 94.5233 65.5346C94.502 65.6424 94.4434 65.7394 94.3578 65.8085C94.2722 65.8775 94.1651 65.9143 94.0552 65.9123L94.0408 65.9034Z" fill="black"/>
<path d="M91.1105 86.7096C90.8688 86.7091 90.6343 86.6271 90.4451 86.4768C90.2558 86.3265 90.1228 86.1167 90.0676 85.8813C89.522 83.5701 90.0676 80.6704 90.6365 77.6007C91.3252 73.9049 92.039 70.0875 90.547 68.0822C89.8654 67.1645 88.7151 66.6332 87.0335 66.4525C86.755 66.417 86.5014 66.2737 86.3273 66.0535C86.1531 65.8332 86.0723 65.5534 86.102 65.2742C86.1317 64.995 86.2697 64.7385 86.4863 64.5599C86.7029 64.3812 86.9809 64.2945 87.2607 64.3184C89.5398 64.5617 91.225 65.3917 92.2698 66.7996C94.3217 69.5562 93.522 73.8459 92.7456 77.9942C92.2394 80.7115 91.7152 83.5183 92.1571 85.3894C92.2221 85.6662 92.1745 85.9575 92.0249 86.1993C91.8754 86.4411 91.6359 86.6137 91.3592 86.6792C91.2778 86.6989 91.1943 86.7091 91.1105 86.7096Z" fill="black"/>
<path d="M84.2911 87.0119L84.25 86.9332C84.0801 87.0119 84.2911 87.0119 84.2911 87.0119Z" fill="black"/>
<path d="M88.5953 78.3932C89.0032 75.7653 85.1355 76.2895 85.411 74.014C85.7026 71.6187 90.0802 73.082 88.7098 69.1501C88.2128 68.0525 87.3539 67.1589 86.2769 66.6189C75.477 67.397 83.6721 85.8241 84.25 86.9207C84.4772 86.7972 85.3913 86.4896 88.4379 85.7186C87.9048 83.4539 88.2089 80.9029 88.5953 78.3932Z" fill="black"/>
<path d="M81.9584 88.4931C83.2159 87.4068 84.6158 86.4974 86.1195 85.7901C87.6935 85.0395 89.4039 84.6171 91.1464 84.5486C92.0585 84.527 92.9692 84.6305 93.8531 84.8563C94.7582 85.0919 95.6209 85.4679 96.4095 85.9708C96.8071 86.2239 97.1824 86.5106 97.5312 86.8276C97.8824 87.141 98.2073 87.4826 98.5025 87.8491C99.0882 88.5814 99.5598 89.398 99.9015 90.2712C100.572 92.0047 100.738 93.8925 100.381 95.7165C100.208 96.6108 99.9188 97.4786 99.5205 98.2978C99.1239 99.1024 98.6327 99.8567 98.0571 100.545C97.4874 101.215 96.8461 101.822 96.1447 102.353C95.4506 102.89 94.7493 103.291 94.1769 103.707C93.5902 104.124 93.0572 104.612 92.5901 105.16C92.099 105.743 91.6403 106.353 91.2162 106.986V106.986C91.1299 107.113 90.9996 107.204 90.8504 107.241C90.7012 107.277 90.5437 107.257 90.4084 107.185C90.2731 107.112 90.1696 106.991 90.1179 106.847C90.0662 106.702 90.07 106.543 90.1285 106.401C90.4362 105.627 90.8078 104.88 91.2394 104.167C91.6994 103.423 92.2571 102.743 92.8978 102.147C93.54 101.554 94.1787 101.088 94.6867 100.595C95.2073 100.109 95.6794 99.5742 96.0964 98.9973C96.4976 98.4323 96.8371 97.826 97.109 97.1887C97.3672 96.5632 97.5503 95.9093 97.6546 95.2407C97.8673 93.9195 97.7247 92.5655 97.2413 91.3177C97.1244 91.0094 96.9845 90.7105 96.8227 90.4232C96.6657 90.1398 96.4862 89.8695 96.286 89.6147C96.0898 89.358 95.872 89.1186 95.6349 88.8992C95.4009 88.6758 95.1496 88.4713 94.8835 88.2874C94.3435 87.9148 93.7515 87.6237 93.1268 87.4233C92.8072 87.321 92.4808 87.2414 92.15 87.1854C91.813 87.1237 91.4724 87.0837 91.1303 87.0656C89.6843 87.0183 88.2415 87.2285 86.869 87.6863C85.4379 88.1192 84.0514 88.7864 82.6686 89.5091C82.5333 89.5793 82.3769 89.5974 82.2291 89.5599C82.0813 89.5225 81.9524 89.4321 81.8669 89.3059C81.7813 89.1798 81.745 89.0266 81.7648 88.8755C81.7847 88.7243 81.8592 88.5857 81.9745 88.4859L81.9584 88.4931Z" fill="black"/>
<path d="M31.5083 84.0174C31.9999 84.0713 32.4837 84.1818 32.9501 84.3465C33.4278 84.5201 33.8816 84.7533 34.3008 85.0406C35.1222 85.6318 35.8134 86.3857 36.3312 87.2552C37.3653 88.9457 37.9019 90.7649 38.41 92.5216C38.6587 93.4035 38.8769 94.28 39.1095 95.1423C39.342 96.0045 39.5782 96.856 39.8251 97.6878C40.3403 99.3461 40.9503 100.933 41.7929 102.308C42.5981 103.654 43.7193 104.784 45.0595 105.598C45.3921 105.796 45.7355 105.975 46.0882 106.135L46.6678 106.382L47.2528 106.611C48.0293 106.91 48.8247 107.157 49.6339 107.351C50.4447 107.541 51.266 107.684 52.0937 107.777C52.9309 107.875 53.7842 107.915 54.6787 107.956C55.6405 107.981 56.6 108.065 57.5517 108.206C58.0938 108.295 58.6255 108.439 59.1385 108.636C59.6799 108.848 60.1901 109.133 60.6555 109.482C60.9541 109.703 61.1547 110.033 61.2148 110.4C61.2749 110.767 61.1898 111.143 60.9775 111.448C60.7651 111.753 60.4423 111.964 60.0774 112.035C59.7124 112.107 59.334 112.033 59.0222 111.831L58.9918 111.811C58.4145 111.458 57.764 111.242 57.0902 111.179C56.337 111.086 55.4801 111.068 54.5713 111.051C52.7591 111.02 50.7824 110.886 48.895 110.414C47.9511 110.186 47.0241 109.893 46.1204 109.537L45.4513 109.26L44.793 108.965C44.3284 108.745 43.8768 108.498 43.4405 108.226C42.562 107.68 41.7611 107.018 41.0594 106.258C40.7146 105.881 40.3915 105.484 40.0916 105.07C39.8 104.655 39.5245 104.231 39.2794 103.799C38.2937 102.06 37.6944 100.221 37.2472 98.4069C37.02 97.5018 36.8375 96.5984 36.6676 95.704L36.1685 93.0529C36.0057 92.1799 35.8303 91.3195 35.6085 90.4894C35.4094 89.672 35.1345 88.8749 34.7874 88.1085C34.4661 87.3755 34.0028 86.7134 33.4242 86.1604C32.8244 85.6157 32.1059 85.2182 31.3258 84.9994H31.3168C31.1986 84.9625 31.0983 84.8831 31.0352 84.7765C30.9721 84.67 30.9507 84.5438 30.9752 84.4224C30.9997 84.301 31.0682 84.193 31.1677 84.1192C31.2671 84.0454 31.3903 84.011 31.5136 84.0227L31.5083 84.0174Z" fill="black"/>
<path d="M21.3184 84.6864L21.6458 85.3C21.7549 85.5039 21.8569 85.715 21.9785 85.9082C22.2164 86.3017 22.4418 86.706 22.7066 87.0781C23.2039 87.8357 23.764 88.5502 24.3811 89.214C25.5922 90.5285 27.0514 91.5906 28.6745 92.3391C29.5094 92.7188 30.3703 93.0387 31.2506 93.2962C32.1451 93.5663 33.0843 93.7953 34.0575 94.0564C34.5458 94.1924 35.0414 94.3266 35.5512 94.5037C36.0824 94.6778 36.5992 94.8931 37.0969 95.1476C37.6405 95.4254 38.1446 95.7743 38.596 96.1852C39.0585 96.6198 39.4513 97.123 39.7606 97.6771C39.9294 97.9764 39.9749 98.3297 39.8873 98.662C39.7997 98.9943 39.586 99.2794 39.2916 99.4566C38.9972 99.6339 38.6453 99.6894 38.3106 99.6113C37.976 99.5332 37.6849 99.3277 37.4994 99.0384L37.4457 98.9543C37.27 98.6529 37.0512 98.3787 36.7963 98.1404C36.5167 97.8955 36.2064 97.688 35.8732 97.5233C35.1577 97.1655 34.2829 96.9079 33.3687 96.6646C32.4546 96.4213 31.4689 96.1959 30.4832 95.9097C29.4752 95.6235 28.4893 95.2648 27.5332 94.8364C25.5751 93.953 23.8103 92.6922 22.3399 91.1263C21.6121 90.3581 20.9497 89.5306 20.3595 88.6523C20.0536 88.2248 19.7924 87.774 19.5205 87.3285C19.3792 87.1085 19.2647 86.8777 19.1395 86.6506L18.7691 85.9672C18.6725 85.8016 18.6102 85.6183 18.5858 85.4281C18.5615 85.238 18.5755 85.0449 18.6272 84.8603C18.6789 84.6756 18.7672 84.5033 18.8868 84.3535C19.0064 84.2036 19.1549 84.0793 19.3234 83.988C19.492 83.8966 19.6772 83.8401 19.868 83.8217C20.0589 83.8033 20.2515 83.8234 20.4344 83.8809C20.6173 83.9384 20.7868 84.032 20.9328 84.1562C21.0788 84.2805 21.1984 84.4328 21.2844 84.6041V84.6148L21.3184 84.6864Z" fill="black"/>
<path d="M58.2386 69.7172C56.3871 69.1644 54.5141 68.7798 52.6589 68.7423C51.7435 68.7115 50.8273 68.7714 49.9236 68.9211C49.0418 69.0616 48.1788 69.3017 47.3511 69.6367C45.7368 70.2824 44.3269 71.3523 43.2705 72.7332C42.7551 73.4136 42.3373 74.1626 42.029 74.9585C41.7187 75.7632 41.516 76.6053 41.4261 77.463C41.332 78.3368 41.3398 79.2187 41.4494 80.0908C41.4975 80.5339 41.5728 80.9736 41.6748 81.4074L41.7499 81.7294L41.8412 82.0496C41.8984 82.2643 41.9718 82.4753 42.0415 82.6864C42.6247 84.3805 43.5908 85.9922 44.6731 87.5915C45.2187 88.3893 45.7822 89.2015 46.3547 90.01C46.9271 90.8186 47.4996 91.654 48.0273 92.5269C49.1007 94.255 50.0149 96.1655 50.4299 98.2066C50.4637 98.3604 50.4376 98.5213 50.3569 98.6565C50.2762 98.7917 50.147 98.8911 49.9956 98.9344C49.8442 98.9777 49.682 98.9617 49.542 98.8896C49.402 98.8176 49.2947 98.6948 49.242 98.5465V98.5465C48.9085 97.6622 48.501 96.8077 48.0238 95.992C47.5357 95.1734 47.0023 94.3827 46.4262 93.6235C45.8448 92.8579 45.2348 92.0994 44.6122 91.3391C43.9897 90.5789 43.3475 89.8132 42.7321 89.0136C42.0915 88.1999 41.495 87.3526 40.9449 86.4752C40.3806 85.5673 39.9015 84.6092 39.5138 83.6131C39.4189 83.359 39.3188 83.1068 39.24 82.8456L39.1184 82.4539L39.0111 82.0568C38.872 81.5313 38.7622 80.9986 38.6819 80.4611C38.5172 79.3712 38.4865 78.2652 38.5907 77.1678C38.7939 74.9177 39.646 72.7751 41.0433 70.9998C41.7424 70.1195 42.5684 69.3478 43.4942 68.71C44.4081 68.0808 45.4052 67.5817 46.4567 67.2271C48.539 66.5116 50.7501 66.3899 52.8325 66.66C54.8912 66.9463 56.8832 67.5943 58.7163 68.5741C58.8524 68.6463 58.9568 68.7665 59.0092 68.9114C59.0615 69.0562 59.0582 69.2154 58.9997 69.3579C58.9413 69.5005 58.8319 69.6162 58.6929 69.6826C58.5539 69.749 58.3952 69.7613 58.2476 69.7172H58.2386Z" fill="black"/>
<path d="M79.6541 62.5832C80.9655 61.0186 82.4861 59.642 84.173 58.4921L84.495 58.2739L84.8295 58.0753C85.055 57.9429 85.2786 57.807 85.5058 57.6782C85.9707 57.4275 86.4484 57.2012 86.9369 57.0002C87.433 56.7966 87.94 56.6211 88.4557 56.4743L89.2518 56.2954C89.5184 56.2346 89.7885 56.2095 90.0658 56.1666C91.1886 56.0274 92.3273 56.088 93.429 56.3455C93.7108 56.4074 93.9881 56.4881 94.2591 56.587L94.667 56.7372C94.7349 56.7641 94.8029 56.7873 94.8691 56.8159L95.0659 56.9107C95.5917 57.1596 96.092 57.4592 96.5597 57.8052C97.482 58.4935 98.2734 59.3417 98.896 60.3096C99.4936 61.2526 99.9657 62.2695 100.3 63.3346L100.528 64.1234C100.597 64.3864 100.647 64.6601 100.706 64.9177L100.791 65.3166L100.85 65.7155C100.887 65.9803 100.934 66.2522 100.962 66.5134C101.005 67.05 101.068 67.5867 101.064 68.1108L101.077 68.9069L101.05 69.6975C101.05 70.2342 100.977 70.744 100.935 71.2681C100.918 71.5293 100.871 71.7905 100.837 72.0535C100.803 72.3164 100.767 72.5758 100.723 72.837L100.567 73.6115L100.486 73.9997L100.392 74.3808L100.198 75.1446L99.9748 75.8941C99.905 76.1464 99.8227 76.3896 99.7404 76.6347C99.6581 76.8798 99.5794 77.1267 99.4917 77.3646C99.3129 77.8422 99.134 78.3198 98.9551 78.7831C98.5973 79.7134 98.2395 80.6203 97.9264 81.4986C97.6213 82.3515 97.3768 83.2248 97.1947 84.1122C97.0423 84.9729 96.9734 85.8463 96.989 86.7203V86.7758C96.9979 86.9637 96.9698 87.1516 96.9061 87.3286C96.8424 87.5056 96.7445 87.6684 96.6179 87.8076C96.4913 87.9468 96.3386 88.0597 96.1683 88.1399C95.9981 88.2201 95.8138 88.2659 95.6258 88.2748C95.4379 88.2838 95.25 88.2556 95.073 88.1919C94.8959 88.1282 94.7331 88.0303 94.5939 87.9038C94.4547 87.7772 94.3418 87.6244 94.2616 87.4542C94.1815 87.284 94.1356 87.0996 94.1267 86.9117C94.0371 85.8138 94.0695 84.7093 94.2233 83.6184C94.396 82.5633 94.6526 81.5237 94.9908 80.5094C95.3074 79.5148 95.6795 78.59 96.0158 77.6705C96.3521 76.751 96.6742 75.8637 96.9532 74.9711L97.1536 74.302L97.3325 73.6294L97.4184 73.2949L97.4881 72.9568L97.6259 72.2806L97.735 71.6027C97.769 71.3737 97.8155 71.1501 97.8334 70.9193C97.8763 70.4596 97.9461 69.998 97.9568 69.5401L97.9944 68.8514V68.1681C98.0069 67.7083 97.9568 67.2611 97.9407 66.8067C97.9228 66.5831 97.8906 66.3613 97.8674 66.1377L97.8298 65.8032L97.7708 65.4758C97.7278 65.2576 97.6956 65.0357 97.6473 64.8211L97.4845 64.1825C96.9997 62.5099 96.1768 60.9536 94.9067 59.9268C94.2754 59.4086 93.5502 59.0168 92.7707 58.773C91.9596 58.5279 91.1122 58.4256 90.2662 58.4706C90.0479 58.4885 89.8296 58.4849 89.6114 58.5171L88.9531 58.612C88.5102 58.6994 88.0724 58.8111 87.6418 58.9465C87.2035 59.0681 86.7777 59.2506 86.343 59.4116C86.1319 59.5046 85.9208 59.6066 85.7079 59.7032L85.3895 59.8499L85.08 60.0162C83.3918 60.9309 81.8088 62.0274 80.359 63.2863V63.2863C80.2628 63.3649 80.1409 63.4049 80.0169 63.3987C79.8928 63.3925 79.7755 63.3405 79.6877 63.2526C79.5999 63.1648 79.5479 63.0475 79.5416 62.9235C79.5354 62.7995 79.5755 62.6776 79.6541 62.5814V62.5832Z" fill="black"/>
<path d="M50.9309 87.0209C51.0972 86.8545 51.2475 86.7275 51.4085 86.5862C51.5695 86.4448 51.7341 86.3232 51.9023 86.198C52.235 85.9475 52.5856 85.7239 52.9434 85.5057C53.6681 85.0789 54.4304 84.7197 55.2208 84.4324C56.8527 83.8275 58.5964 83.5833 60.3318 83.7168C61.2208 83.7883 62.0968 83.9741 62.9383 84.2696C63.1494 84.3394 63.3533 84.4342 63.5608 84.5165C63.6628 84.5612 63.7666 84.6005 63.8667 84.6488L64.1619 84.8045L64.4571 84.9583C64.5566 85.0075 64.6528 85.063 64.7451 85.1246L65.3015 85.4824C65.4804 85.6041 65.6593 85.749 65.8238 85.8814L66.0797 86.0853C66.1655 86.1532 66.2407 86.2338 66.3194 86.3071C66.4768 86.4574 66.6342 86.604 66.7881 86.7561C66.9419 86.9081 67.0725 87.0763 67.2121 87.2391C67.4876 87.5613 67.7416 87.9013 67.9724 88.2569C68.1962 88.6107 68.4011 88.9761 68.586 89.3517C68.6528 89.48 68.6732 89.6274 68.6437 89.7689C68.6141 89.9105 68.5365 90.0375 68.424 90.1283C68.3114 90.2191 68.1709 90.2682 68.0263 90.2672C67.8817 90.2661 67.7419 90.2151 67.6307 90.1227L67.6021 90.0977C66.416 89.1102 65.2532 88.2444 64.0063 87.6344C63.3913 87.3411 62.752 87.1017 62.0957 86.9189C61.9293 86.8813 61.7665 86.8384 61.6037 86.7955C61.4409 86.7525 61.271 86.7346 61.1064 86.7006C60.9418 86.6667 60.7719 86.6488 60.6037 86.6255L60.3515 86.5915L60.0956 86.5736C58.6925 86.474 57.2824 86.5703 55.9059 86.8599C55.1903 86.9976 54.4748 87.1747 53.7592 87.3768C53.4014 87.4824 53.0436 87.5879 52.6858 87.7042L51.6214 88.062L51.5731 88.0781C51.4384 88.1234 51.2924 88.1217 51.1588 88.0733C51.0253 88.0249 50.9121 87.9326 50.8377 87.8115C50.7634 87.6905 50.7323 87.5478 50.7495 87.4068C50.7668 87.2657 50.8313 87.1347 50.9327 87.0352L50.9309 87.0209Z" fill="black"/>
<path d="M92.1875 57.1469C91.9961 56.1791 91.5131 55.3187 90.971 54.4636C90.7045 54.0343 90.4057 53.6121 90.1034 53.1917C89.801 52.7713 89.4862 52.3527 89.1588 51.9395C88.513 51.1095 87.8243 50.2938 87.1391 49.4745L86.1051 48.2437C85.9262 48.0344 85.758 47.8341 85.5899 47.6248C85.4217 47.4155 85.2428 47.2044 85.0943 47.013L85.0586 46.9647C84.8318 46.6876 84.7171 46.3357 84.7371 45.9782C84.7571 45.6208 84.9104 45.2838 85.1667 45.0338C85.423 44.7838 85.7637 44.639 86.1215 44.6278C86.4794 44.6167 86.8284 44.7401 87.0997 44.9737C87.3448 45.174 87.5523 45.3583 87.767 45.5586C87.9817 45.759 88.1838 45.9593 88.3878 46.1633C88.7939 46.5729 89.1803 47.0005 89.5524 47.4423C90.3025 48.3321 90.9831 49.2782 91.5882 50.2723C91.8984 50.7777 92.1808 51.2997 92.4344 51.8357C92.6965 52.3829 92.9165 52.9492 93.0927 53.5298C93.2774 54.1289 93.3938 54.747 93.4398 55.3723C93.493 56.027 93.4014 56.6854 93.1714 57.3007C93.1288 57.4017 93.055 57.4865 92.9609 57.5427C92.8668 57.5989 92.7572 57.6236 92.648 57.6132C92.5389 57.6028 92.4359 57.5579 92.354 57.485C92.2722 57.412 92.2157 57.3149 92.1929 57.2077L92.1875 57.1469Z" fill="black"/>
<path d="M82.9029 95.9025C80.9154 90.7721 75.808 89.6594 74.1818 97.949C74.1451 98.1371 74.1656 98.3319 74.2405 98.5083C74.3154 98.6847 74.4413 98.8346 74.6021 98.9389C74.7629 99.0431 74.9512 99.0969 75.1429 99.0933C75.3345 99.0897 75.5206 99.0288 75.6774 98.9186L78.1425 97.178C78.5527 96.889 79.0296 96.709 79.5284 96.6549C80.0272 96.6008 80.5315 96.6743 80.9941 96.8685L81.6364 97.1386C81.8105 97.2118 82.0023 97.232 82.1878 97.1968C82.3733 97.1615 82.5443 97.0724 82.6795 96.9405C82.8146 96.8086 82.9079 96.6398 82.9476 96.4552C82.9874 96.2706 82.9718 96.0784 82.9029 95.9025Z" fill="white"/>
<path d="M75.1246 100.169C74.8247 100.168 74.5287 100.101 74.2577 99.9726C73.9867 99.8442 73.7474 99.6576 73.5567 99.4262C73.3661 99.1947 73.2288 98.924 73.1548 98.6335C73.0807 98.3429 73.0716 98.0396 73.1282 97.7451C74.2498 92.0207 76.8241 90.9581 78.2571 90.8329C80.5111 90.6343 82.7294 92.4733 83.9048 95.5197C84.0493 95.8919 84.0811 96.2984 83.9962 96.6885C83.9114 97.0786 83.7135 97.4351 83.4274 97.7136C83.1413 97.9921 82.7796 98.1802 82.3873 98.2545C81.995 98.3288 81.5895 98.286 81.2213 98.1315L80.5773 97.8614C80.2829 97.7364 79.9614 97.689 79.6435 97.7238C79.3256 97.7585 79.0219 97.8743 78.7615 98.0599L76.2964 99.7987C75.9534 100.04 75.5441 100.17 75.1246 100.169V100.169ZM78.5916 92.9599C78.5433 92.9599 78.495 92.9599 78.4467 92.9599C77.0907 93.0797 75.9207 94.9079 75.291 97.8703L77.5236 96.2943C78.0813 95.8981 78.7313 95.6513 79.4114 95.5774C80.0916 95.5035 80.7793 95.605 81.4092 95.8721L81.8027 96.0367C81.0174 94.1673 79.7651 92.9599 78.5916 92.9599V92.9599Z" fill="black"/>
<path d="M78.155 92.9849C79.0656 93.3946 79.4735 96.407 79.4735 96.407L74.1621 98.8184C74.1621 98.8184 74.7382 94.9473 74.8043 94.8292C76.1872 92.3874 78.155 92.9849 78.155 92.9849Z" fill="black"/>
<path d="M19.1199 86.6327C16.5886 81.8618 14.9034 77.9549 13.8121 74.3378C12.4149 69.7047 11.9659 65.4597 12.44 61.3578C13.5634 51.6175 19.9822 42.6893 32.0647 34.0598C45.1097 24.7417 54.9811 21.1353 63.1315 22.7095C72.7775 24.5735 78.5433 33.593 84.6472 43.1401L85.098 43.8556L82.6883 45.3976L82.2357 44.6821C76.2213 35.2745 71.028 27.1513 62.5895 25.5198C55.3622 24.1245 45.9219 27.679 33.7284 36.3889C22.3418 44.5211 16.3095 52.7964 15.2826 61.687C14.3148 70.0947 17.9571 78.3234 21.6495 85.3L19.1199 86.6327Z" fill="black"/>
<path d="M32.401 37.956C31.3008 40.1903 30.2543 42.4281 29.7462 44.7286C29.2382 47.0291 29.2721 49.3796 29.7462 51.7195C30.2203 54.0593 31.0665 56.3473 32.0128 58.6173C32.9592 60.8874 34.0522 63.1253 35.0916 65.415C35.1418 65.5202 35.1506 65.6403 35.1165 65.7517C35.0823 65.8631 35.0075 65.9576 34.907 66.0166C34.8065 66.0755 34.6875 66.0945 34.5736 66.0699C34.4597 66.0453 34.3592 65.9788 34.2919 65.8837C33.5424 64.8658 32.8429 63.814 32.1756 62.7353C31.8393 62.1986 31.5298 61.6459 31.2078 61.0985C30.8858 60.5511 30.5978 59.984 30.3133 59.4134C29.1541 57.1451 28.1773 54.7355 27.6442 52.1524C27.3749 50.8507 27.2549 49.5225 27.2864 48.1936C27.3206 46.8586 27.5373 45.5345 27.9304 44.2581C28.1204 43.6267 28.348 43.0073 28.612 42.4031C28.8822 41.8074 29.1648 41.2207 29.4832 40.6572C30.1124 39.5393 30.8252 38.4707 31.6157 37.4605C31.6874 37.3711 31.7894 37.3113 31.9024 37.2923C32.0153 37.2733 32.1314 37.2965 32.2283 37.3574C32.3253 37.4184 32.3965 37.5129 32.4283 37.6229C32.4602 37.733 32.4505 37.8509 32.401 37.9542V37.956Z" fill="#4D4D4D"/>
<path d="M90.5436 56.0253C90.5649 56.1719 90.6183 56.3121 90.7001 56.4356C90.7819 56.5592 90.89 56.6632 91.0167 56.7401C91.1434 56.8171 91.2855 56.865 91.4329 56.8806C91.5802 56.8962 91.7292 56.879 91.8692 56.8303C102.004 53.3259 108.394 44.666 111.29 38.2261C123.915 10.141 93.9104 -1.06621 72.3965 26.3517C63.7702 38.058 59.3998 47.2992 43.2814 61.3793C32.6962 70.6259 26.1934 77.0372 20.5386 85.6273C35.1686 60.8427 87.6026 34.9453 90.5436 56.0253Z" fill="#333333"/>
<path d="M20.5367 87.0566C20.2846 87.0562 20.0371 86.9892 19.8193 86.8625C19.6014 86.7357 19.4209 86.5536 19.296 86.3347C19.1711 86.1157 19.1062 85.8677 19.1079 85.6156C19.1097 85.3636 19.178 85.1164 19.3059 84.8993C21.1986 81.6918 23.7246 78.4594 26.6996 75.2859C30.9519 70.5132 35.9574 65.8747 42.3404 60.2989C54.5607 49.6247 59.9579 41.7537 65.67 33.4248C67.4142 30.881 69.2175 28.2514 71.2444 25.5019C71.2517 25.4899 71.2601 25.4785 71.2694 25.4679C77.062 18.0853 83.8511 12.9316 90.9049 10.5614C97.4148 8.37539 103.606 8.74211 108.315 11.5936C114.592 15.3895 119.013 24.5306 112.594 38.8111C111.05 42.2457 105.027 53.7963 92.336 58.1826C91.9965 58.3005 91.635 58.3418 91.2776 58.3034C90.9202 58.2651 90.5757 58.1481 90.2689 57.9608C89.9621 57.7736 89.7006 57.5207 89.5031 57.2204C89.3056 56.9201 89.177 56.5797 89.1267 56.2238V56.2238C88.6419 52.7481 86.6418 50.707 83.0138 49.9825C76.0852 48.5979 63.8882 52.351 51.1813 59.7783C42.4692 64.8694 34.6926 70.9623 28.9 77.1088C26.2709 80.0167 23.8746 83.127 21.7335 86.4109C21.6032 86.6093 21.4256 86.7722 21.2167 86.885C21.0078 86.9977 20.7741 87.0567 20.5367 87.0566ZM73.536 27.2175C71.5431 29.9222 69.7577 32.525 68.0314 35.0437C63.2013 42.09 58.5894 48.818 50.006 57.1415C62.4374 49.9056 75.409 45.5426 83.5756 47.1758C88.2268 48.1042 91.0891 50.9127 91.8781 55.3079C103.161 51.1721 108.578 40.7645 109.984 37.6376C114.712 27.1173 113.505 18.0764 106.835 14.0443C99.0982 9.37536 85.1785 12.3896 73.536 27.2175Z" fill="black"/>
<path opacity="0.25" d="M31.7856 85.0996C35.8108 88.7543 31.0146 94.3695 26.6406 91.3875C28.8267 95.7612 37.8233 96.5072 37.8233 96.5072C37.8233 96.5072 37.1525 85.9958 31.7856 85.0996Z" fill="black"/>
<path opacity="0.25" d="M55.3692 105.355C56.2637 106.199 55.1206 108.485 50.7466 107.591C54.5248 110.076 60.092 110.176 60.092 110.176L57.1099 105.403L55.3692 105.355Z" fill="black"/>
<path d="M93.7045 31.4535C95.0623 31.0832 96.4326 30.7916 97.7922 30.509L101.86 29.6986C103.209 29.4303 104.544 29.1619 105.875 28.8435C107.206 28.5251 108.504 28.1906 109.728 27.6736H109.75C109.851 27.6305 109.964 27.6245 110.069 27.6565C110.175 27.6885 110.265 27.7565 110.325 27.8487C110.386 27.9409 110.411 28.0512 110.398 28.1605C110.385 28.2698 110.334 28.371 110.254 28.4464C110.116 28.5752 109.973 28.7004 109.828 28.8238L109.377 29.1601C109.224 29.2657 109.066 29.3659 108.909 29.4678L108.427 29.7451C107.783 30.0921 107.116 30.3951 106.431 30.6521C105.081 31.1505 103.693 31.5388 102.281 31.813C100.883 32.0905 99.4705 32.2823 98.0498 32.3873C96.6276 32.5026 95.1983 32.5026 93.776 32.3873C93.6659 32.3775 93.5627 32.3293 93.4845 32.2511C93.4064 32.1729 93.3583 32.0696 93.3487 31.9595C93.3391 31.8493 93.3686 31.7393 93.432 31.6488C93.4954 31.5582 93.5887 31.4928 93.6955 31.4642L93.7045 31.4535Z" fill="black"/>
<path d="M92.4953 37.6143C93.8531 37.244 95.2234 36.9524 96.583 36.6716L100.651 35.8594C102.002 35.5911 103.335 35.3228 104.665 35.0044C105.996 34.6859 107.295 34.3514 108.519 33.8344H108.54C108.642 33.7914 108.755 33.7853 108.86 33.8173C108.965 33.8493 109.056 33.9174 109.116 34.0095C109.176 34.1017 109.202 34.2121 109.189 34.3214C109.176 34.4307 109.125 34.5319 109.045 34.6072C108.907 34.736 108.764 34.8613 108.619 34.9847L108.168 35.3228C108.014 35.4265 107.857 35.5267 107.701 35.6287L107.22 35.906C106.575 36.2526 105.907 36.5556 105.222 36.8129C103.872 37.3118 102.484 37.7001 101.071 37.9739C99.6743 38.2515 98.2613 38.4432 96.8406 38.5481C95.419 38.6644 93.9903 38.6644 92.5686 38.5481C92.4584 38.5387 92.355 38.4907 92.2766 38.4126C92.1982 38.3345 92.1499 38.2313 92.14 38.1211C92.1302 38.0109 92.1596 37.9008 92.2229 37.81C92.2862 37.7193 92.3795 37.6538 92.4863 37.6251L92.4953 37.6143Z" fill="black"/>
<path d="M95.4739 42.0292C95.8048 40.6733 96.1895 39.3334 96.5723 38.0061L97.7119 34.0402C98.0696 32.7182 98.4274 31.3998 98.7584 30.0743C99.0893 28.7487 99.3523 27.4196 99.635 26.0565V26.0404C99.6577 25.9329 99.7174 25.8368 99.8036 25.7686C99.8899 25.7005 99.9972 25.6648 100.107 25.6675C100.217 25.6703 100.322 25.7114 100.405 25.7838C100.488 25.8561 100.543 25.9551 100.56 26.0636C100.76 27.5004 100.778 28.9569 100.612 30.398C100.44 31.8237 100.161 33.2344 99.7763 34.618C99.3891 35.991 98.911 37.3369 98.3451 38.6465C97.7871 39.9641 97.108 41.2271 96.3165 42.4192C96.2545 42.5103 96.1625 42.5767 96.0565 42.6069C95.9505 42.6371 95.8373 42.6292 95.7366 42.5845C95.6359 42.5398 95.5541 42.4611 95.5054 42.3623C95.4567 42.2634 95.4443 42.1506 95.4703 42.0435L95.4739 42.0292Z" fill="black"/>
<path d="M101.574 40.8897C101.864 39.5248 102.216 38.176 102.572 36.8415L103.66 32.8559C104.018 31.5322 104.376 30.2084 104.725 28.8829C105.073 27.5573 105.383 26.2282 105.742 24.8758V24.8651C105.771 24.7585 105.835 24.6651 105.925 24.6013C106.015 24.5375 106.125 24.5074 106.235 24.5161C106.345 24.5249 106.448 24.5719 106.527 24.6491C106.605 24.7263 106.655 24.8287 106.666 24.9384C106.792 26.3686 106.761 27.8083 106.573 29.2317C106.386 30.6451 106.104 32.0442 105.728 33.4194C105.352 34.7874 104.894 36.1315 104.356 37.4444C103.825 38.7668 103.18 40.0401 102.426 41.2493C102.359 41.3543 102.252 41.4284 102.131 41.4552C102.009 41.482 101.881 41.4594 101.776 41.3924C101.696 41.3402 101.634 41.2653 101.597 41.1773C101.56 41.0893 101.55 40.9923 101.569 40.8986L101.574 40.8897Z" fill="black"/>
</g>
<defs>
<clipPath id="clip0_506_205">
<rect width="103.471" height="109.696" fill="white" transform="translate(12.2646 9.15175)"/>
</clipPath>
</defs>
</svg>
