<svg width="128" height="128" viewBox="0 0 128 128" fill="none" xmlns="http://www.w3.org/2000/svg">
<g filter="url(#filter0_d)">
<path d="M50.3271 70.9097C50.3271 82.6537 65.0663 82.616 65.0663 68.8023C65.0663 65.9028 62.843 60.9572 58.1156 60.9572C53.6971 60.9478 50.3271 65.3654 50.3271 70.9097ZM60.952 70.4807C60.952 77.2555 54.755 76.7699 54.755 71.1171C54.755 64.9505 60.952 65.0589 60.952 70.4712V70.4807ZM52.7373 81.018C52.7806 81.0429 52.8187 81.076 52.8489 81.1158C52.9726 81.279 52.9353 81.5141 52.7656 81.6287C46.8935 85.5935 40.3107 83.3038 35.9913 78.8319C35.6491 78.4777 35.0162 78.7433 35.0684 79.233C35.4914 83.1972 36.2406 87.1199 37.3087 90.9604C37.3698 91.18 37.277 91.4132 37.0813 91.5302C36.5694 91.836 35.5305 92.4653 34.4255 93.1849C34.1452 93.3673 33.7665 93.2326 33.6684 92.9128C31.8458 86.9709 30.4902 82.0541 29.5075 76.7819C29.449 76.4682 29.1169 76.2867 28.8213 76.4068C27.3705 76.9961 25.9159 77.5427 24.4741 78.0394C24.1898 78.1374 23.8852 77.9617 23.8244 77.6672C23.6905 77.0194 23.559 76.402 23.4313 75.8151C23.3785 75.5727 23.5109 75.3282 23.7423 75.239C25.4193 74.5927 27.0222 73.911 28.5513 73.1938C28.7501 73.1005 28.8635 72.8881 28.8323 72.6707C28.033 67.1107 27.5819 60.8367 27.3944 52.4468C27.3902 52.2575 27.4934 52.0804 27.6614 51.9928C30.0267 50.7602 32.4619 49.6689 34.9543 48.7246C35.3034 48.5923 35.6657 48.8795 35.6224 49.2503C34.8496 55.8685 34.478 62.5279 34.5097 69.1916C34.5116 69.5773 34.9383 69.8089 35.2668 69.6068C52.816 58.8154 55.7986 44.6496 40.5166 44.6496C31.2272 44.6496 15.4844 51.5888 5.78872 58.0057C5.38071 58.2757 4.27703 57.8157 4.18616 57.335C3.82993 55.4502 3.19878 52.0591 2.59495 48.2727C2.5611 48.0605 2.66071 47.8529 2.85197 47.7548C7.54701 45.3489 22.7803 38.3462 37.6428 38.3462C50.5986 38.3462 56.1685 43.7208 56.1685 49.977C56.1685 59.2299 46.8817 67.4359 35.8577 73.1631C35.5876 73.3035 35.5013 73.651 35.6886 73.8908C38.6614 77.6958 43.3367 78.7311 47.9732 76.1162C48.2583 75.9554 48.6259 76.0898 48.7459 76.3943C49.5137 78.3424 50.919 79.9759 52.7373 81.018ZM81.1693 75.054C80.8402 75.1245 80.5342 74.8492 80.5597 74.5137C81.7522 58.8105 81.7873 56.4648 82.263 52.0177C82.2977 51.6936 82.0211 51.4213 81.6988 51.47C80.6584 51.627 78.5114 51.9714 76.5807 52.4094C76.3445 52.463 76.1834 52.6801 76.1966 52.922C76.2401 53.7227 76.2777 54.5279 76.3094 55.3402C76.3246 55.7308 75.8991 55.9921 75.5323 55.8569C74.9125 55.6283 74.2544 55.5138 73.5896 55.5214C64.1863 55.5214 64.2846 72.7672 72.5973 72.7672C73.5228 72.7633 74.4244 72.5189 75.2186 72.0668C75.6065 71.846 76.1608 72.1191 76.1383 72.5649C76.0803 73.7139 76.0134 74.8929 75.9375 76.1018C75.9246 76.3083 75.7831 76.4859 75.586 76.5489C62.6324 80.6889 55.1949 88.2789 55.1949 93.9451C55.1949 97.9854 57.3808 100.654 62.3 100.654C69.7255 100.654 76.5561 92.9049 78.7583 84.5528C78.8453 84.2227 78.5743 83.9125 78.2352 83.9517C77.0448 84.0895 75.8628 84.2941 74.6948 84.5646C74.5359 84.6014 74.4045 84.7186 74.3441 84.8702C70.2027 95.2723 66.1338 97.8251 62.0005 97.8251C59.8708 97.8251 58.4292 96.7314 58.4292 94.5249C58.4292 87.9953 70.154 80.6264 85.7918 80.6264C96.7076 80.6264 104.939 82.9242 107.056 83.5766C107.343 83.6652 107.644 83.4866 107.706 83.1924C108.693 78.484 109.188 75.903 109.373 74.9102C109.423 74.6413 109.252 74.3869 108.982 74.3436C105.681 73.8138 93.183 72.4794 81.1693 75.054ZM74.2683 68.9249C69.789 68.9249 70.1494 60.4716 74.1372 60.4716C74.5739 60.4692 75.0057 60.5644 75.4014 60.7503C75.7431 60.9107 76.0506 61.1354 76.3078 61.4116C76.3868 61.4965 76.426 61.61 76.4259 61.726C76.4241 63.6809 76.393 65.7001 76.3285 67.8192C76.325 67.9336 76.2835 68.0446 76.2032 68.1262C75.9716 68.3617 75.6985 68.5526 75.3973 68.6887C75.0425 68.8491 74.6572 68.9297 74.2683 68.9249ZM85.1319 46.3704C85.1444 45.8813 85.2557 45.3999 85.459 44.9555C85.6624 44.5112 85.9534 44.1132 86.3145 43.7859C86.6755 43.4586 87.099 43.2089 87.559 43.0518C88.0191 42.8948 88.506 42.8339 88.9902 42.8727C89.4744 42.9115 89.9457 43.0492 90.3753 43.2775C90.8049 43.5058 91.1839 43.8199 91.489 44.2006C91.7941 44.5813 92.0191 45.0206 92.1501 45.4917C92.2811 45.9628 92.3154 46.4559 92.251 46.9408C92.2385 47.4299 92.1272 47.9113 91.9239 48.3557C91.7206 48.8 91.4295 49.198 91.0685 49.5253C90.7074 49.8526 90.284 50.1024 89.8239 50.2594C89.3639 50.4164 88.8769 50.4774 88.3927 50.4386C87.9085 50.3998 87.4372 50.262 87.0076 50.0337C86.578 49.8054 86.1991 49.4913 85.8939 49.1106C85.5888 48.73 85.3639 48.2907 85.2328 47.8195C85.1018 47.3484 85.0675 46.8553 85.1319 46.3704ZM91.7675 59.5223C91.6772 59.7577 91.7764 60.0238 92.0018 60.1367C92.5626 60.4176 93.1378 60.6685 93.7248 60.8883C93.9236 60.9627 94.0565 61.1514 94.064 61.3635C94.2096 65.4752 96.8836 68.675 100.611 68.675C103.098 68.675 105.51 66.9672 106.904 65.3968C107.059 65.2218 107.06 64.9613 106.916 64.7775L106.213 63.8856C106.022 63.6433 105.656 63.6261 105.426 63.8321C104.789 64.4032 103.517 65.3701 102.197 65.3701C100.674 65.3701 99.2057 64.5867 98.7201 62.6202C98.6439 62.3116 98.906 62.0377 99.2238 62.0466C103.833 62.1753 108.128 59.6079 108.128 55.1348C108.128 52.4663 106.101 50.5145 103.278 50.5145C99.2438 50.5145 95.7072 54.1734 94.5069 58.1814C94.4222 58.4644 94.1203 58.6287 93.8448 58.5221C93.5197 58.3964 93.1982 58.2614 92.8808 58.1171C92.6205 57.9988 92.3141 58.114 92.2096 58.3802C92.0693 58.7377 91.8927 59.1962 91.7675 59.5223ZM104.425 55.6911C104.425 57.3362 102.813 59.4075 99.255 59.4696C98.9542 59.4748 98.7297 59.1994 98.7952 58.9057C99.9466 53.7401 104.425 52.5477 104.425 55.6816V55.6911ZM84.0834 61.4523C84.0546 58.599 84.3961 55.7543 85.099 52.9904C85.1189 52.9123 85.1827 52.8532 85.262 52.8388C85.2964 52.8326 85.3318 52.8353 85.365 52.8462C86.8541 53.3382 88.4454 53.3773 89.9435 52.972C90.3686 52.857 90.7987 53.272 90.6576 53.6891C89.5318 57.0166 88.9278 60.1562 88.9278 62.6875C88.9278 65.6723 90.4163 66.6924 92.0999 65.0851C92.4038 64.795 92.9566 64.897 93.1147 65.2862C93.2424 65.6005 93.3898 65.9066 93.556 66.2026C93.6527 66.3749 93.6496 66.5887 93.5322 66.7476C92.3857 68.2985 90.8993 69.2502 89.1525 69.2502C86.1148 69.2454 84.0834 66.0961 84.0834 61.4523Z" fill="url(#paint0_radial)"/>
<path d="M50.3271 70.9097C50.3271 82.6537 65.0663 82.616 65.0663 68.8023C65.0663 65.9028 62.843 60.9572 58.1156 60.9572C53.6971 60.9478 50.3271 65.3654 50.3271 70.9097ZM60.952 70.4807C60.952 77.2555 54.755 76.7699 54.755 71.1171C54.755 64.9505 60.952 65.0589 60.952 70.4712V70.4807ZM52.7373 81.018C52.7806 81.0429 52.8187 81.076 52.8489 81.1158C52.9726 81.279 52.9353 81.5141 52.7656 81.6287C46.8935 85.5935 40.3107 83.3038 35.9913 78.8319C35.6491 78.4777 35.0162 78.7433 35.0684 79.233C35.4914 83.1972 36.2406 87.1199 37.3087 90.9604C37.3698 91.18 37.277 91.4132 37.0813 91.5302C36.5694 91.836 35.5305 92.4653 34.4255 93.1849C34.1452 93.3673 33.7665 93.2326 33.6684 92.9128C31.8458 86.9709 30.4902 82.0541 29.5075 76.7819C29.449 76.4682 29.1169 76.2867 28.8213 76.4068C27.3705 76.9961 25.9159 77.5427 24.4741 78.0394C24.1898 78.1374 23.8852 77.9617 23.8244 77.6672C23.6905 77.0194 23.559 76.402 23.4313 75.8151C23.3785 75.5727 23.5109 75.3282 23.7423 75.239C25.4193 74.5927 27.0222 73.911 28.5513 73.1938C28.7501 73.1005 28.8635 72.8881 28.8323 72.6707C28.033 67.1107 27.5819 60.8367 27.3944 52.4468C27.3902 52.2575 27.4934 52.0804 27.6614 51.9928C30.0267 50.7602 32.4619 49.6689 34.9543 48.7246C35.3034 48.5923 35.6657 48.8795 35.6224 49.2503C34.8496 55.8685 34.478 62.5279 34.5097 69.1916C34.5116 69.5773 34.9383 69.8089 35.2668 69.6068C52.816 58.8154 55.7986 44.6496 40.5166 44.6496C31.2272 44.6496 15.4844 51.5888 5.78872 58.0057C5.38071 58.2757 4.27703 57.8157 4.18616 57.335C3.82993 55.4502 3.19878 52.0591 2.59495 48.2727C2.5611 48.0605 2.66071 47.8529 2.85197 47.7548C7.54701 45.3489 22.7803 38.3462 37.6428 38.3462C50.5986 38.3462 56.1685 43.7208 56.1685 49.977C56.1685 59.2299 46.8817 67.4359 35.8577 73.1631C35.5876 73.3035 35.5013 73.651 35.6886 73.8908C38.6614 77.6958 43.3367 78.7311 47.9732 76.1162C48.2583 75.9554 48.6259 76.0898 48.7459 76.3943C49.5137 78.3424 50.919 79.9759 52.7373 81.018ZM81.1693 75.054C80.8402 75.1245 80.5342 74.8492 80.5597 74.5137C81.7522 58.8105 81.7873 56.4648 82.263 52.0177C82.2977 51.6936 82.0211 51.4213 81.6988 51.47C80.6584 51.627 78.5114 51.9714 76.5807 52.4094C76.3445 52.463 76.1834 52.6801 76.1966 52.922C76.2401 53.7227 76.2777 54.5279 76.3094 55.3402C76.3246 55.7308 75.8991 55.9921 75.5323 55.8569C74.9125 55.6283 74.2544 55.5138 73.5896 55.5214C64.1863 55.5214 64.2846 72.7672 72.5973 72.7672C73.5228 72.7633 74.4244 72.5189 75.2186 72.0668C75.6065 71.846 76.1608 72.1191 76.1383 72.5649C76.0803 73.7139 76.0134 74.8929 75.9375 76.1018C75.9246 76.3083 75.7831 76.4859 75.586 76.5489C62.6324 80.6889 55.1949 88.2789 55.1949 93.9451C55.1949 97.9854 57.3808 100.654 62.3 100.654C69.7255 100.654 76.5561 92.9049 78.7583 84.5528C78.8453 84.2227 78.5743 83.9125 78.2352 83.9517C77.0448 84.0895 75.8628 84.2941 74.6948 84.5646C74.5359 84.6014 74.4045 84.7186 74.3441 84.8702C70.2027 95.2723 66.1338 97.8251 62.0005 97.8251C59.8708 97.8251 58.4292 96.7314 58.4292 94.5249C58.4292 87.9953 70.154 80.6264 85.7918 80.6264C96.7076 80.6264 104.939 82.9242 107.056 83.5766C107.343 83.6652 107.644 83.4866 107.706 83.1924C108.693 78.484 109.188 75.903 109.373 74.9102C109.423 74.6413 109.252 74.3869 108.982 74.3436C105.681 73.8138 93.183 72.4794 81.1693 75.054ZM74.2683 68.9249C69.789 68.9249 70.1494 60.4716 74.1372 60.4716C74.5739 60.4692 75.0057 60.5644 75.4014 60.7503C75.7431 60.9107 76.0506 61.1354 76.3078 61.4116C76.3868 61.4965 76.426 61.61 76.4259 61.726C76.4241 63.6809 76.393 65.7001 76.3285 67.8192C76.325 67.9336 76.2835 68.0446 76.2032 68.1262C75.9716 68.3617 75.6985 68.5526 75.3973 68.6887C75.0425 68.8491 74.6572 68.9297 74.2683 68.9249ZM85.1319 46.3704C85.1444 45.8813 85.2557 45.3999 85.459 44.9555C85.6624 44.5112 85.9534 44.1132 86.3145 43.7859C86.6755 43.4586 87.099 43.2089 87.559 43.0518C88.0191 42.8948 88.506 42.8339 88.9902 42.8727C89.4744 42.9115 89.9457 43.0492 90.3753 43.2775C90.8049 43.5058 91.1839 43.8199 91.489 44.2006C91.7941 44.5813 92.0191 45.0206 92.1501 45.4917C92.2811 45.9628 92.3154 46.4559 92.251 46.9408C92.2385 47.4299 92.1272 47.9113 91.9239 48.3557C91.7206 48.8 91.4295 49.198 91.0685 49.5253C90.7074 49.8526 90.284 50.1024 89.8239 50.2594C89.3639 50.4164 88.8769 50.4774 88.3927 50.4386C87.9085 50.3998 87.4372 50.262 87.0076 50.0337C86.578 49.8054 86.1991 49.4913 85.8939 49.1106C85.5888 48.73 85.3639 48.2907 85.2328 47.8195C85.1018 47.3484 85.0675 46.8553 85.1319 46.3704ZM91.7675 59.5223C91.6772 59.7577 91.7764 60.0238 92.0018 60.1367C92.5626 60.4176 93.1378 60.6685 93.7248 60.8883C93.9236 60.9627 94.0565 61.1514 94.064 61.3635C94.2096 65.4752 96.8836 68.675 100.611 68.675C103.098 68.675 105.51 66.9672 106.904 65.3968C107.059 65.2218 107.06 64.9613 106.916 64.7775L106.213 63.8856C106.022 63.6433 105.656 63.6261 105.426 63.8321C104.789 64.4032 103.517 65.3701 102.197 65.3701C100.674 65.3701 99.2057 64.5867 98.7201 62.6202C98.6439 62.3116 98.906 62.0377 99.2238 62.0466C103.833 62.1753 108.128 59.6079 108.128 55.1348C108.128 52.4663 106.101 50.5145 103.278 50.5145C99.2438 50.5145 95.7072 54.1734 94.5069 58.1814C94.4222 58.4644 94.1203 58.6287 93.8448 58.5221C93.5197 58.3964 93.1982 58.2614 92.8808 58.1171C92.6205 57.9988 92.3141 58.114 92.2096 58.3802C92.0693 58.7377 91.8927 59.1962 91.7675 59.5223ZM104.425 55.6911C104.425 57.3362 102.813 59.4075 99.255 59.4696C98.9542 59.4748 98.7297 59.1994 98.7952 58.9057C99.9466 53.7401 104.425 52.5477 104.425 55.6816V55.6911ZM84.0834 61.4523C84.0546 58.599 84.3961 55.7543 85.099 52.9904C85.1189 52.9123 85.1827 52.8532 85.262 52.8388C85.2964 52.8326 85.3318 52.8353 85.365 52.8462C86.8541 53.3382 88.4454 53.3773 89.9435 52.972C90.3686 52.857 90.7987 53.272 90.6576 53.6891C89.5318 57.0166 88.9278 60.1562 88.9278 62.6875C88.9278 65.6723 90.4163 66.6924 92.0999 65.0851C92.4038 64.795 92.9566 64.897 93.1147 65.2862C93.2424 65.6005 93.3898 65.9066 93.556 66.2026C93.6527 66.3749 93.6496 66.5887 93.5322 66.7476C92.3857 68.2985 90.8993 69.2502 89.1525 69.2502C86.1148 69.2454 84.0834 66.0961 84.0834 61.4523Z" fill="black"/>
<path d="M83.5834 61.4551C83.5839 63.8412 84.1049 65.8914 85.0593 67.363C86.0221 68.8473 87.4349 69.7475 89.1517 69.7502H89.1525C91.1033 69.7502 92.7242 68.6817 93.9342 67.0449C94.1812 66.7108 94.1743 66.2826 93.992 65.9578C93.836 65.6801 93.6978 65.3929 93.578 65.098C93.4245 64.7202 93.0887 64.5042 92.7569 64.44C92.4262 64.376 92.0406 64.4505 91.7547 64.7234C91.3746 65.0862 91.0442 65.2626 90.7854 65.3202C90.5424 65.3743 90.3473 65.3291 90.1782 65.2051C89.7977 64.9261 89.4278 64.142 89.4278 62.6875C89.4278 60.2273 90.0166 57.1437 91.1312 53.8493C91.2737 53.4283 91.1182 53.0265 90.8645 52.7756C90.6131 52.5268 90.2207 52.3791 89.8129 52.4894C88.4089 52.8692 86.9175 52.8325 85.5219 52.3715C85.4112 52.3349 85.2913 52.3254 85.1731 52.3468C84.9021 52.3958 84.6829 52.5982 84.6145 52.8672L85.099 52.9904L84.6145 52.8672C83.901 55.6722 83.5544 58.5593 83.5834 61.4551ZM83.5834 61.4551C83.5834 61.4541 83.5834 61.4532 83.5834 61.4523H84.0834M83.5834 61.4551C83.5834 61.4558 83.5835 61.4566 83.5835 61.4573L84.0834 61.4523M84.0834 61.4523C84.0834 66.0961 86.1148 69.2454 89.1525 69.2502L84.0834 61.4523ZM58.1161 60.4572C53.3101 60.4473 49.8271 65.2153 49.8271 70.9097C49.8271 73.9518 50.7835 76.2837 52.2703 77.8246C53.7561 79.3645 55.744 80.0835 57.733 79.9388C61.752 79.6463 65.5663 75.8912 65.5663 68.8023C65.5663 67.2465 64.9768 65.1836 63.77 63.5011C62.554 61.8056 60.6786 60.4574 58.1161 60.4572ZM58.1161 60.4572C58.1163 60.4572 58.1165 60.4572 58.1167 60.4572L58.1156 60.9572V60.4572C58.1158 60.4572 58.116 60.4572 58.1161 60.4572ZM22.9427 75.9214L23.4313 75.8151L22.9427 75.9215C23.0701 76.5068 23.2012 77.1224 23.3347 77.7683C23.4558 78.3546 24.0642 78.7095 24.637 78.5121C26.0876 78.0124 27.5506 77.4626 29.0094 76.87C29.0103 76.8697 29.0108 76.8695 29.011 76.8695C29.0111 76.8695 29.0113 76.8695 29.0116 76.8696L29.0135 76.8704C29.0147 76.8711 29.0153 76.8717 29.0156 76.8719C29.0156 76.8722 29.0158 76.8727 29.0159 76.8735C30.0038 82.173 31.3656 87.1106 33.1904 93.0595C33.3873 93.7013 34.1432 93.9653 34.6983 93.6039C35.7958 92.8892 36.8287 92.2635 37.3377 91.9594C37.7275 91.7265 37.9116 91.2623 37.7904 90.8265C36.73 87.0133 35.986 83.1187 35.5659 79.1828C35.5687 79.1808 35.5729 79.1781 35.5789 79.1756C35.5935 79.1693 35.6073 79.1685 35.6155 79.1698C35.619 79.1704 35.6212 79.1713 35.6226 79.172C35.6239 79.1727 35.6269 79.1744 35.6317 79.1793C40.049 83.7525 46.8981 86.1937 53.0454 82.0431C53.4564 81.7655 53.5417 81.2022 53.2474 80.8138C53.1754 80.7187 53.0856 80.6414 52.9859 80.5842C51.2669 79.599 49.9376 78.0542 49.2111 76.211C48.982 75.6299 48.2825 75.3678 47.7276 75.6807C45.4985 76.9379 43.2902 77.3024 41.3014 76.92C39.3195 76.5389 37.5154 75.4086 36.0975 73.602C41.6365 70.7234 46.7624 67.211 50.5109 63.2352C54.2596 59.2593 56.6685 54.7778 56.6685 49.977C56.6685 46.6832 55.1944 43.6245 52.0524 41.407C48.9269 39.2012 44.1813 37.8462 37.6428 37.8462C22.6552 37.8462 7.3325 44.897 2.62395 47.3099C2.23093 47.5113 2.03492 47.9359 2.10119 48.3514C2.70614 52.1448 3.33832 55.5415 3.69486 57.4278C3.74756 57.7066 3.92839 57.918 4.08964 58.058C4.26024 58.2062 4.46778 58.3263 4.67576 58.4132C4.88378 58.5001 5.11496 58.5633 5.34007 58.5809C5.55279 58.5975 5.8293 58.5784 6.06467 58.4226C10.8823 55.2342 17.2117 51.9105 23.4916 49.3852C29.7842 46.8548 35.97 45.1496 40.5166 45.1496C44.2751 45.1496 46.8052 46.0227 48.2692 47.3962C49.7091 48.7472 50.2014 50.663 49.7141 52.9785C49.2235 55.3102 47.7397 58.0165 45.2646 60.824C42.7951 63.6252 39.3601 66.5023 35.0097 69.178C34.9785 62.5382 35.349 55.9027 36.119 49.3083C36.205 48.5721 35.4835 47.9894 34.7771 48.257C32.2663 49.2084 29.8131 50.3077 27.4303 51.5494C27.091 51.7262 26.8861 52.0811 26.8945 52.458C27.0823 60.8597 27.5342 67.1551 28.3373 72.7419C28.3373 72.7419 28.3373 72.7419 28.3373 72.7419C26.8201 73.4535 25.2286 74.1304 23.5625 74.7724C23.1019 74.95 22.8373 75.4371 22.9427 75.9214ZM72.5973 73.2672L72.5994 73.2672C73.6117 73.2629 74.5977 72.9956 75.466 72.5013C75.4915 72.4868 75.5448 72.4797 75.6005 72.5089C75.6248 72.5216 75.6357 72.5348 75.6387 72.5394C75.6394 72.5405 75.6394 72.54 75.6392 72.5397C75.6391 72.5395 75.6389 72.5393 75.6389 72.5397C75.581 73.6861 75.5143 74.8625 75.4386 76.069C75.4385 76.0691 75.4384 76.0692 75.4383 76.0694C75.437 76.071 75.4353 76.0721 75.4338 76.0726C68.9023 78.1601 63.739 81.1241 60.1988 84.3027C56.6749 87.4666 54.6949 90.9054 54.6949 93.9451C54.6949 96.0517 55.2658 97.8728 56.5476 99.1665C57.8306 100.462 59.7525 101.154 62.3 101.154C66.1901 101.154 69.8751 99.1268 72.8456 96.0847C75.8193 93.0394 78.1194 88.9369 79.2417 84.6803C79.4194 84.0066 78.8634 83.3757 78.1777 83.4551C76.9687 83.5949 75.7682 83.8027 74.582 84.0775C74.256 84.153 73.9977 84.3886 73.8796 84.6852C71.8208 89.8562 69.8015 93.0183 67.8259 94.885C65.8701 96.733 63.9436 97.3251 62.0005 97.3251C61.0153 97.3251 60.2542 97.0721 59.7458 96.6264C59.2476 96.1898 58.9292 95.5132 58.9292 94.5249C58.9292 93.045 59.5946 91.4697 60.8893 89.9191C62.1827 88.3701 64.0824 86.8736 66.4853 85.5662C71.2901 82.952 78.0471 81.1264 85.7918 81.1264C96.6414 81.1264 104.821 83.411 106.909 84.0544C107.479 84.2302 108.074 83.8753 108.195 83.2949C109.183 78.5835 109.678 75.9989 109.864 75.0019C109.964 74.4691 109.621 73.9398 109.061 73.8499C105.73 73.3153 93.1646 71.9724 81.0666 74.5647C81.0659 74.5642 81.0651 74.5636 81.0641 74.5628C81.0613 74.5602 81.0595 74.5575 81.0588 74.5557L81.0583 74.5541C81.0582 74.5538 81.0581 74.5531 81.0583 74.5516C81.5792 67.6914 81.8792 63.3827 82.0913 60.3364C82.3653 56.4011 82.4926 54.5722 82.7601 52.0709C82.8286 51.4309 82.2802 50.8766 81.6241 50.9756C80.5805 51.1331 78.4191 51.4796 76.4701 51.9218C75.9919 52.0302 75.6711 52.4683 75.6973 52.9491C75.7407 53.7473 75.7782 54.55 75.8098 55.3597C75.8098 55.3599 75.8098 55.3601 75.8098 55.3602C75.8083 55.3625 75.8035 55.3688 75.7925 55.3759C75.7643 55.3942 75.7301 55.3969 75.7053 55.3877C75.0295 55.1386 74.3119 55.0135 73.5868 55.0214C71.0619 55.0222 69.1621 56.1894 67.8951 57.9207C66.6386 59.6376 66.008 61.8986 65.9501 64.1313C65.8923 66.3634 66.4054 68.6229 67.5015 70.3414C68.6067 72.074 70.3174 73.2672 72.5973 73.2672ZM74.2745 68.4249H74.2683C73.332 68.4249 72.6629 67.9941 72.212 67.3247C71.7489 66.6372 71.5142 65.6877 71.5275 64.705C71.5408 63.723 71.8013 62.765 72.2623 62.0684C72.7163 61.3827 73.3442 60.9716 74.1372 60.9717L74.14 60.9716C74.5021 60.9696 74.8604 61.0486 75.1889 61.2028C75.4655 61.3328 75.7154 61.5135 75.9259 61.7354C75.924 63.6789 75.8931 65.6865 75.829 67.7934C75.6444 67.9769 75.4285 68.1259 75.1914 68.2331C74.9031 68.3634 74.5902 68.4288 74.2745 68.4249ZM87.3975 42.5786L87.559 43.0518L87.3975 42.5786C86.8728 42.7577 86.3901 43.0425 85.9787 43.4155C85.5673 43.7884 85.2358 44.2417 85.0044 44.7475C84.7766 45.2452 84.6504 45.7836 84.6328 46.331C84.5642 46.8742 84.6044 47.4259 84.7511 47.9535C84.9002 48.4896 85.1562 48.9898 85.5038 49.4233C85.8513 49.8569 86.2831 50.2149 86.7729 50.4752C87.2628 50.7355 87.8003 50.8927 88.3527 50.937C88.9052 50.9812 89.4607 50.9117 89.9854 50.7326C90.5101 50.5535 90.9929 50.2687 91.4043 49.8957C91.8157 49.5228 92.1471 49.0695 92.3785 48.5637C92.6063 48.066 92.7326 47.5276 92.7501 46.9803C92.8187 46.437 92.7785 45.8853 92.6318 45.3577C92.4827 44.8216 92.2267 44.3214 91.8791 43.8879C91.5316 43.4543 91.0998 43.0963 90.61 42.836C90.1201 42.5757 89.5826 42.4185 89.0302 42.3743C88.4778 42.33 87.9222 42.3996 87.3975 42.5786ZM60.452 70.4807C60.452 73.7581 58.984 74.9454 57.8474 74.9593C56.6854 74.9734 55.255 73.7877 55.255 71.1171C55.255 68.1853 56.6959 67.0027 57.8752 66.9516C59.0517 66.9006 60.452 67.9527 60.452 70.4712V70.4807ZM91.3007 59.3432C91.1207 59.8121 91.3163 60.3525 91.7779 60.5837C92.3545 60.8726 92.9459 61.1305 93.5495 61.3565C93.5523 61.3575 93.5555 61.3596 93.5586 61.364C93.5619 61.3686 93.5641 61.3745 93.5643 61.3812C93.7166 65.6819 96.5408 69.175 100.611 69.175C103.304 69.175 105.842 67.347 107.278 65.7287C107.603 65.3629 107.595 64.8316 107.308 64.468L106.605 63.5761C106.221 63.0882 105.519 63.0776 105.092 63.4599C104.79 63.7308 104.344 64.0895 103.825 64.3783C103.301 64.6694 102.739 64.8701 102.197 64.8701C101.519 64.8701 100.878 64.6959 100.36 64.3257C99.8569 63.9661 99.4374 63.399 99.2172 62.5466C101.61 62.612 103.945 61.9802 105.696 60.7225C107.46 59.4556 108.628 57.5517 108.628 55.1348C108.628 52.1691 106.355 50.0145 103.278 50.0145C101.106 50.0145 99.0974 50.999 97.4912 52.477C95.8851 53.955 94.6532 55.9498 94.0279 58.038C94.0257 58.0455 94.0217 58.0503 94.0182 58.0531C93.7044 57.9316 93.3941 57.8012 93.0877 57.6619C92.5807 57.4316 91.959 57.6504 91.7442 58.1975C91.6032 58.5568 91.4259 59.0169 91.3007 59.3432ZM103.925 55.6911C103.925 56.9836 102.624 58.8929 99.2935 58.9687C99.8499 56.5283 101.166 55.1095 102.242 54.6395C102.788 54.4011 103.207 54.428 103.461 54.5718C103.694 54.7042 103.925 55.0157 103.925 55.6816V55.6911Z" stroke="black" stroke-linejoin="round"/>
</g>
<g style="mix-blend-mode:difference">
<path d="M83.5834 61.4551C83.5839 63.8412 84.1049 65.8914 85.0593 67.363C86.0221 68.8473 87.4349 69.7475 89.1517 69.7502H89.1525C91.1033 69.7502 92.7242 68.6817 93.9342 67.0449C94.1812 66.7108 94.1743 66.2826 93.992 65.9578C93.836 65.6801 93.6978 65.3929 93.578 65.098C93.4245 64.7202 93.0887 64.5042 92.7569 64.44C92.4262 64.376 92.0406 64.4505 91.7547 64.7234C91.3746 65.0862 91.0442 65.2626 90.7854 65.3202C90.5424 65.3743 90.3473 65.3291 90.1782 65.2051C89.7977 64.9261 89.4278 64.142 89.4278 62.6875C89.4278 60.2273 90.0166 57.1437 91.1312 53.8493C91.2737 53.4283 91.1182 53.0265 90.8645 52.7756C90.6131 52.5268 90.2207 52.3791 89.8129 52.4894C88.4089 52.8692 86.9175 52.8325 85.5219 52.3715C85.4112 52.3349 85.2913 52.3254 85.1731 52.3468C84.9021 52.3958 84.6829 52.5982 84.6145 52.8672L85.099 52.9904L84.6145 52.8672C83.901 55.6722 83.5544 58.5593 83.5834 61.4551ZM83.5834 61.4551C83.5834 61.4541 83.5834 61.4532 83.5834 61.4523H84.0834M83.5834 61.4551C83.5834 61.4558 83.5835 61.4566 83.5835 61.4573L84.0834 61.4523M84.0834 61.4523C84.0834 66.0961 86.1148 69.2454 89.1525 69.2502L84.0834 61.4523ZM58.1161 60.4572C53.3101 60.4473 49.8271 65.2153 49.8271 70.9097C49.8271 73.9518 50.7835 76.2837 52.2703 77.8246C53.7561 79.3645 55.744 80.0835 57.733 79.9388C61.752 79.6463 65.5663 75.8912 65.5663 68.8023C65.5663 67.2465 64.9768 65.1836 63.77 63.5011C62.554 61.8056 60.6786 60.4574 58.1161 60.4572ZM58.1161 60.4572C58.1163 60.4572 58.1165 60.4572 58.1167 60.4572L58.1156 60.9572V60.4572C58.1158 60.4572 58.116 60.4572 58.1161 60.4572ZM22.9427 75.9214L23.4313 75.8151L22.9427 75.9215C23.0701 76.5068 23.2012 77.1224 23.3347 77.7683C23.4558 78.3546 24.0642 78.7095 24.637 78.5121C26.0876 78.0124 27.5506 77.4626 29.0094 76.87C29.0103 76.8697 29.0108 76.8695 29.011 76.8695C29.0111 76.8695 29.0113 76.8695 29.0116 76.8696L29.0135 76.8704C29.0147 76.8711 29.0153 76.8717 29.0156 76.8719C29.0156 76.8722 29.0158 76.8727 29.0159 76.8735C30.0038 82.173 31.3656 87.1106 33.1904 93.0595C33.3873 93.7013 34.1432 93.9653 34.6983 93.6039C35.7958 92.8892 36.8287 92.2635 37.3377 91.9594C37.7275 91.7265 37.9116 91.2623 37.7904 90.8265C36.73 87.0133 35.986 83.1187 35.5659 79.1828C35.5687 79.1808 35.5729 79.1781 35.5789 79.1756C35.5935 79.1693 35.6073 79.1685 35.6155 79.1698C35.619 79.1704 35.6212 79.1713 35.6226 79.172C35.6239 79.1727 35.6269 79.1744 35.6317 79.1793C40.049 83.7525 46.8981 86.1937 53.0454 82.0431C53.4564 81.7655 53.5417 81.2022 53.2474 80.8138C53.1754 80.7187 53.0856 80.6414 52.9859 80.5842C51.2669 79.599 49.9376 78.0542 49.2111 76.211C48.982 75.6299 48.2825 75.3678 47.7276 75.6807C45.4985 76.9379 43.2902 77.3024 41.3014 76.92C39.3195 76.5389 37.5154 75.4086 36.0975 73.602C41.6365 70.7234 46.7624 67.211 50.5109 63.2352C54.2596 59.2593 56.6685 54.7778 56.6685 49.977C56.6685 46.6832 55.1944 43.6245 52.0524 41.407C48.9269 39.2012 44.1813 37.8462 37.6428 37.8462C22.6552 37.8462 7.3325 44.897 2.62395 47.3099C2.23093 47.5113 2.03492 47.9359 2.10119 48.3514C2.70614 52.1448 3.33832 55.5415 3.69486 57.4278C3.74756 57.7066 3.92839 57.918 4.08964 58.058C4.26024 58.2062 4.46778 58.3263 4.67576 58.4132C4.88378 58.5001 5.11496 58.5633 5.34007 58.5809C5.55279 58.5975 5.8293 58.5784 6.06467 58.4226C10.8823 55.2342 17.2117 51.9105 23.4916 49.3852C29.7842 46.8548 35.97 45.1496 40.5166 45.1496C44.2751 45.1496 46.8052 46.0227 48.2692 47.3962C49.7091 48.7472 50.2014 50.663 49.7141 52.9785C49.2235 55.3102 47.7397 58.0165 45.2646 60.824C42.7951 63.6252 39.3601 66.5023 35.0097 69.178C34.9785 62.5382 35.349 55.9027 36.119 49.3083C36.205 48.5721 35.4835 47.9894 34.7771 48.257C32.2663 49.2084 29.8131 50.3077 27.4303 51.5494C27.091 51.7262 26.8861 52.0811 26.8945 52.458C27.0823 60.8597 27.5342 67.1551 28.3373 72.7419C28.3373 72.7419 28.3373 72.7419 28.3373 72.7419C26.8201 73.4535 25.2286 74.1304 23.5625 74.7724C23.1019 74.95 22.8373 75.4371 22.9427 75.9214ZM72.5973 73.2672L72.5994 73.2672C73.6117 73.2629 74.5977 72.9956 75.466 72.5013C75.4915 72.4868 75.5448 72.4797 75.6005 72.5089C75.6248 72.5216 75.6357 72.5348 75.6387 72.5394C75.6394 72.5405 75.6394 72.54 75.6392 72.5397C75.6391 72.5395 75.6389 72.5393 75.6389 72.5397C75.581 73.6861 75.5143 74.8625 75.4386 76.069C75.4385 76.0691 75.4384 76.0692 75.4383 76.0694C75.437 76.071 75.4353 76.0721 75.4338 76.0726C68.9023 78.1601 63.739 81.1241 60.1988 84.3027C56.6749 87.4666 54.6949 90.9054 54.6949 93.9451C54.6949 96.0517 55.2658 97.8728 56.5476 99.1665C57.8306 100.462 59.7525 101.154 62.3 101.154C66.1901 101.154 69.8751 99.1268 72.8456 96.0847C75.8193 93.0394 78.1194 88.9369 79.2417 84.6803C79.4194 84.0066 78.8634 83.3757 78.1777 83.4551C76.9687 83.5949 75.7682 83.8027 74.582 84.0775C74.256 84.153 73.9977 84.3886 73.8796 84.6852C71.8208 89.8562 69.8015 93.0183 67.8259 94.885C65.8701 96.733 63.9436 97.3251 62.0005 97.3251C61.0153 97.3251 60.2542 97.0721 59.7458 96.6264C59.2476 96.1898 58.9292 95.5132 58.9292 94.5249C58.9292 93.045 59.5946 91.4697 60.8893 89.9191C62.1827 88.3701 64.0824 86.8736 66.4853 85.5662C71.2901 82.952 78.0471 81.1264 85.7918 81.1264C96.6414 81.1264 104.821 83.411 106.909 84.0544C107.479 84.2302 108.074 83.8753 108.195 83.2949C109.183 78.5835 109.678 75.9989 109.864 75.0019C109.964 74.4691 109.621 73.9398 109.061 73.8499C105.73 73.3153 93.1646 71.9724 81.0666 74.5647C81.0659 74.5642 81.0651 74.5636 81.0641 74.5628C81.0613 74.5602 81.0595 74.5575 81.0588 74.5557L81.0583 74.5541C81.0582 74.5538 81.0581 74.5531 81.0583 74.5516C81.5792 67.6914 81.8792 63.3827 82.0913 60.3364C82.3653 56.4011 82.4926 54.5722 82.7601 52.0709C82.8286 51.4309 82.2802 50.8766 81.6241 50.9756C80.5805 51.1331 78.4191 51.4796 76.4701 51.9218C75.9919 52.0302 75.6711 52.4683 75.6973 52.9491C75.7407 53.7473 75.7782 54.55 75.8098 55.3597C75.8098 55.3599 75.8098 55.3601 75.8098 55.3602C75.8083 55.3625 75.8035 55.3688 75.7925 55.3759C75.7643 55.3942 75.7301 55.3969 75.7053 55.3877C75.0295 55.1386 74.3119 55.0135 73.5868 55.0214C71.0619 55.0222 69.1621 56.1894 67.8951 57.9207C66.6386 59.6376 66.008 61.8986 65.9501 64.1313C65.8923 66.3634 66.4054 68.6229 67.5015 70.3414C68.6067 72.074 70.3174 73.2672 72.5973 73.2672ZM74.2745 68.4249H74.2683C73.332 68.4249 72.6629 67.9941 72.212 67.3247C71.7489 66.6372 71.5142 65.6877 71.5275 64.705C71.5408 63.723 71.8013 62.765 72.2623 62.0684C72.7163 61.3827 73.3442 60.9716 74.1372 60.9717L74.14 60.9716C74.5021 60.9696 74.8604 61.0486 75.1889 61.2028C75.4655 61.3328 75.7154 61.5135 75.9259 61.7354C75.924 63.6789 75.8931 65.6865 75.829 67.7934C75.6444 67.9769 75.4285 68.1259 75.1914 68.2331C74.9031 68.3634 74.5902 68.4288 74.2745 68.4249ZM87.3975 42.5786L87.559 43.0518L87.3975 42.5786C86.8728 42.7577 86.3901 43.0425 85.9787 43.4155C85.5673 43.7884 85.2358 44.2417 85.0044 44.7475C84.7766 45.2452 84.6504 45.7836 84.6328 46.331C84.5642 46.8742 84.6044 47.4259 84.7511 47.9535C84.9002 48.4896 85.1562 48.9898 85.5038 49.4233C85.8513 49.8569 86.2831 50.2149 86.7729 50.4752C87.2628 50.7355 87.8003 50.8927 88.3527 50.937C88.9052 50.9812 89.4607 50.9117 89.9854 50.7326C90.5101 50.5535 90.9929 50.2687 91.4043 49.8957C91.8157 49.5228 92.1471 49.0695 92.3785 48.5637C92.6063 48.066 92.7326 47.5276 92.7501 46.9803C92.8187 46.437 92.7785 45.8853 92.6318 45.3577C92.4827 44.8216 92.2267 44.3214 91.8791 43.8879C91.5316 43.4543 91.0998 43.0963 90.61 42.836C90.1201 42.5757 89.5826 42.4185 89.0302 42.3743C88.4778 42.33 87.9222 42.3996 87.3975 42.5786ZM60.452 70.4807C60.452 73.7581 58.984 74.9454 57.8474 74.9593C56.6854 74.9734 55.255 73.7877 55.255 71.1171C55.255 68.1853 56.6959 67.0027 57.8752 66.9516C59.0517 66.9006 60.452 67.9527 60.452 70.4712V70.4807ZM91.3007 59.3432C91.1207 59.8121 91.3163 60.3525 91.7779 60.5837C92.3545 60.8726 92.9459 61.1305 93.5495 61.3565C93.5523 61.3575 93.5555 61.3596 93.5586 61.364C93.5619 61.3686 93.5641 61.3745 93.5643 61.3812C93.7166 65.6819 96.5408 69.175 100.611 69.175C103.304 69.175 105.842 67.347 107.278 65.7287C107.603 65.3629 107.595 64.8316 107.308 64.468L106.605 63.5761C106.221 63.0882 105.519 63.0776 105.092 63.4599C104.79 63.7308 104.344 64.0895 103.825 64.3783C103.301 64.6694 102.739 64.8701 102.197 64.8701C101.519 64.8701 100.878 64.6959 100.36 64.3257C99.8569 63.9661 99.4374 63.399 99.2172 62.5466C101.61 62.612 103.945 61.9802 105.696 60.7225C107.46 59.4556 108.628 57.5517 108.628 55.1348C108.628 52.1691 106.355 50.0145 103.278 50.0145C101.106 50.0145 99.0974 50.999 97.4912 52.477C95.8851 53.955 94.6532 55.9498 94.0279 58.038C94.0257 58.0455 94.0217 58.0503 94.0182 58.0531C93.7044 57.9316 93.3941 57.8012 93.0877 57.6619C92.5807 57.4316 91.959 57.6504 91.7442 58.1975C91.6032 58.5568 91.4259 59.0169 91.3007 59.3432ZM103.925 55.6911C103.925 56.9836 102.624 58.8929 99.2935 58.9687C99.8499 56.5283 101.166 55.1095 102.242 54.6395C102.788 54.4011 103.207 54.428 103.461 54.5718C103.694 54.7042 103.925 55.0157 103.925 55.6816V55.6911Z" fill="#00FF00"/>
<path d="M83.5834 61.4551C83.5839 63.8412 84.1049 65.8914 85.0593 67.363C86.0221 68.8473 87.4349 69.7475 89.1517 69.7502H89.1525C91.1033 69.7502 92.7242 68.6817 93.9342 67.0449C94.1812 66.7108 94.1743 66.2826 93.992 65.9578C93.836 65.6801 93.6978 65.3929 93.578 65.098C93.4245 64.7202 93.0887 64.5042 92.7569 64.44C92.4262 64.376 92.0406 64.4505 91.7547 64.7234C91.3746 65.0862 91.0442 65.2626 90.7854 65.3202C90.5424 65.3743 90.3473 65.3291 90.1782 65.2051C89.7977 64.9261 89.4278 64.142 89.4278 62.6875C89.4278 60.2273 90.0166 57.1437 91.1312 53.8493C91.2737 53.4283 91.1182 53.0265 90.8645 52.7756C90.6131 52.5268 90.2207 52.3791 89.8129 52.4894C88.4089 52.8692 86.9175 52.8325 85.5219 52.3715C85.4112 52.3349 85.2913 52.3254 85.1731 52.3468C84.9021 52.3958 84.6829 52.5982 84.6145 52.8672L85.099 52.9904L84.6145 52.8672C83.901 55.6722 83.5544 58.5593 83.5834 61.4551ZM83.5834 61.4551C83.5834 61.4541 83.5834 61.4532 83.5834 61.4523H84.0834M83.5834 61.4551C83.5834 61.4558 83.5835 61.4566 83.5835 61.4573L84.0834 61.4523M84.0834 61.4523C84.0834 66.0961 86.1148 69.2454 89.1525 69.2502L84.0834 61.4523ZM58.1161 60.4572C53.3101 60.4473 49.8271 65.2153 49.8271 70.9097C49.8271 73.9518 50.7835 76.2837 52.2703 77.8246C53.7561 79.3645 55.744 80.0835 57.733 79.9388C61.752 79.6463 65.5663 75.8912 65.5663 68.8023C65.5663 67.2465 64.9768 65.1836 63.77 63.5011C62.554 61.8056 60.6786 60.4574 58.1161 60.4572ZM58.1161 60.4572C58.1163 60.4572 58.1165 60.4572 58.1167 60.4572L58.1156 60.9572V60.4572C58.1158 60.4572 58.116 60.4572 58.1161 60.4572ZM22.9427 75.9214L23.4313 75.8151L22.9427 75.9215C23.0701 76.5068 23.2012 77.1224 23.3347 77.7683C23.4558 78.3546 24.0642 78.7095 24.637 78.5121C26.0876 78.0124 27.5506 77.4626 29.0094 76.87C29.0103 76.8697 29.0108 76.8695 29.011 76.8695C29.0111 76.8695 29.0113 76.8695 29.0116 76.8696L29.0135 76.8704C29.0147 76.8711 29.0153 76.8717 29.0156 76.8719C29.0156 76.8722 29.0158 76.8727 29.0159 76.8735C30.0038 82.173 31.3656 87.1106 33.1904 93.0595C33.3873 93.7013 34.1432 93.9653 34.6983 93.6039C35.7958 92.8892 36.8287 92.2635 37.3377 91.9594C37.7275 91.7265 37.9116 91.2623 37.7904 90.8265C36.73 87.0133 35.986 83.1187 35.5659 79.1828C35.5687 79.1808 35.5729 79.1781 35.5789 79.1756C35.5935 79.1693 35.6073 79.1685 35.6155 79.1698C35.619 79.1704 35.6212 79.1713 35.6226 79.172C35.6239 79.1727 35.6269 79.1744 35.6317 79.1793C40.049 83.7525 46.8981 86.1937 53.0454 82.0431C53.4564 81.7655 53.5417 81.2022 53.2474 80.8138C53.1754 80.7187 53.0856 80.6414 52.9859 80.5842C51.2669 79.599 49.9376 78.0542 49.2111 76.211C48.982 75.6299 48.2825 75.3678 47.7276 75.6807C45.4985 76.9379 43.2902 77.3024 41.3014 76.92C39.3195 76.5389 37.5154 75.4086 36.0975 73.602C41.6365 70.7234 46.7624 67.211 50.5109 63.2352C54.2596 59.2593 56.6685 54.7778 56.6685 49.977C56.6685 46.6832 55.1944 43.6245 52.0524 41.407C48.9269 39.2012 44.1813 37.8462 37.6428 37.8462C22.6552 37.8462 7.3325 44.897 2.62395 47.3099C2.23093 47.5113 2.03492 47.9359 2.10119 48.3514C2.70614 52.1448 3.33832 55.5415 3.69486 57.4278C3.74756 57.7066 3.92839 57.918 4.08964 58.058C4.26024 58.2062 4.46778 58.3263 4.67576 58.4132C4.88378 58.5001 5.11496 58.5633 5.34007 58.5809C5.55279 58.5975 5.8293 58.5784 6.06467 58.4226C10.8823 55.2342 17.2117 51.9105 23.4916 49.3852C29.7842 46.8548 35.97 45.1496 40.5166 45.1496C44.2751 45.1496 46.8052 46.0227 48.2692 47.3962C49.7091 48.7472 50.2014 50.663 49.7141 52.9785C49.2235 55.3102 47.7397 58.0165 45.2646 60.824C42.7951 63.6252 39.3601 66.5023 35.0097 69.178C34.9785 62.5382 35.349 55.9027 36.119 49.3083C36.205 48.5721 35.4835 47.9894 34.7771 48.257C32.2663 49.2084 29.8131 50.3077 27.4303 51.5494C27.091 51.7262 26.8861 52.0811 26.8945 52.458C27.0823 60.8597 27.5342 67.1551 28.3373 72.7419C28.3373 72.7419 28.3373 72.7419 28.3373 72.7419C26.8201 73.4535 25.2286 74.1304 23.5625 74.7724C23.1019 74.95 22.8373 75.4371 22.9427 75.9214ZM72.5973 73.2672L72.5994 73.2672C73.6117 73.2629 74.5977 72.9956 75.466 72.5013C75.4915 72.4868 75.5448 72.4797 75.6005 72.5089C75.6248 72.5216 75.6357 72.5348 75.6387 72.5394C75.6394 72.5405 75.6394 72.54 75.6392 72.5397C75.6391 72.5395 75.6389 72.5393 75.6389 72.5397C75.581 73.6861 75.5143 74.8625 75.4386 76.069C75.4385 76.0691 75.4384 76.0692 75.4383 76.0694C75.437 76.071 75.4353 76.0721 75.4338 76.0726C68.9023 78.1601 63.739 81.1241 60.1988 84.3027C56.6749 87.4666 54.6949 90.9054 54.6949 93.9451C54.6949 96.0517 55.2658 97.8728 56.5476 99.1665C57.8306 100.462 59.7525 101.154 62.3 101.154C66.1901 101.154 69.8751 99.1268 72.8456 96.0847C75.8193 93.0394 78.1194 88.9369 79.2417 84.6803C79.4194 84.0066 78.8634 83.3757 78.1777 83.4551C76.9687 83.5949 75.7682 83.8027 74.582 84.0775C74.256 84.153 73.9977 84.3886 73.8796 84.6852C71.8208 89.8562 69.8015 93.0183 67.8259 94.885C65.8701 96.733 63.9436 97.3251 62.0005 97.3251C61.0153 97.3251 60.2542 97.0721 59.7458 96.6264C59.2476 96.1898 58.9292 95.5132 58.9292 94.5249C58.9292 93.045 59.5946 91.4697 60.8893 89.9191C62.1827 88.3701 64.0824 86.8736 66.4853 85.5662C71.2901 82.952 78.0471 81.1264 85.7918 81.1264C96.6414 81.1264 104.821 83.411 106.909 84.0544C107.479 84.2302 108.074 83.8753 108.195 83.2949C109.183 78.5835 109.678 75.9989 109.864 75.0019C109.964 74.4691 109.621 73.9398 109.061 73.8499C105.73 73.3153 93.1646 71.9724 81.0666 74.5647C81.0659 74.5642 81.0651 74.5636 81.0641 74.5628C81.0613 74.5602 81.0595 74.5575 81.0588 74.5557L81.0583 74.5541C81.0582 74.5538 81.0581 74.5531 81.0583 74.5516C81.5792 67.6914 81.8792 63.3827 82.0913 60.3364C82.3653 56.4011 82.4926 54.5722 82.7601 52.0709C82.8286 51.4309 82.2802 50.8766 81.6241 50.9756C80.5805 51.1331 78.4191 51.4796 76.4701 51.9218C75.9919 52.0302 75.6711 52.4683 75.6973 52.9491C75.7407 53.7473 75.7782 54.55 75.8098 55.3597C75.8098 55.3599 75.8098 55.3601 75.8098 55.3602C75.8083 55.3625 75.8035 55.3688 75.7925 55.3759C75.7643 55.3942 75.7301 55.3969 75.7053 55.3877C75.0295 55.1386 74.3119 55.0135 73.5868 55.0214C71.0619 55.0222 69.1621 56.1894 67.8951 57.9207C66.6386 59.6376 66.008 61.8986 65.9501 64.1313C65.8923 66.3634 66.4054 68.6229 67.5015 70.3414C68.6067 72.074 70.3174 73.2672 72.5973 73.2672ZM74.2745 68.4249H74.2683C73.332 68.4249 72.6629 67.9941 72.212 67.3247C71.7489 66.6372 71.5142 65.6877 71.5275 64.705C71.5408 63.723 71.8013 62.765 72.2623 62.0684C72.7163 61.3827 73.3442 60.9716 74.1372 60.9717L74.14 60.9716C74.5021 60.9696 74.8604 61.0486 75.1889 61.2028C75.4655 61.3328 75.7154 61.5135 75.9259 61.7354C75.924 63.6789 75.8931 65.6865 75.829 67.7934C75.6444 67.9769 75.4285 68.1259 75.1914 68.2331C74.9031 68.3634 74.5902 68.4288 74.2745 68.4249ZM87.3975 42.5786L87.559 43.0518L87.3975 42.5786C86.8728 42.7577 86.3901 43.0425 85.9787 43.4155C85.5673 43.7884 85.2358 44.2417 85.0044 44.7475C84.7766 45.2452 84.6504 45.7836 84.6328 46.331C84.5642 46.8742 84.6044 47.4259 84.7511 47.9535C84.9002 48.4896 85.1562 48.9898 85.5038 49.4233C85.8513 49.8569 86.2831 50.2149 86.7729 50.4752C87.2628 50.7355 87.8003 50.8927 88.3527 50.937C88.9052 50.9812 89.4607 50.9117 89.9854 50.7326C90.5101 50.5535 90.9929 50.2687 91.4043 49.8957C91.8157 49.5228 92.1471 49.0695 92.3785 48.5637C92.6063 48.066 92.7326 47.5276 92.7501 46.9803C92.8187 46.437 92.7785 45.8853 92.6318 45.3577C92.4827 44.8216 92.2267 44.3214 91.8791 43.8879C91.5316 43.4543 91.0998 43.0963 90.61 42.836C90.1201 42.5757 89.5826 42.4185 89.0302 42.3743C88.4778 42.33 87.9222 42.3996 87.3975 42.5786ZM60.452 70.4807C60.452 73.7581 58.984 74.9454 57.8474 74.9593C56.6854 74.9734 55.255 73.7877 55.255 71.1171C55.255 68.1853 56.6959 67.0027 57.8752 66.9516C59.0517 66.9006 60.452 67.9527 60.452 70.4712V70.4807ZM91.3007 59.3432C91.1207 59.8121 91.3163 60.3525 91.7779 60.5837C92.3545 60.8726 92.9459 61.1305 93.5495 61.3565C93.5523 61.3575 93.5555 61.3596 93.5586 61.364C93.5619 61.3686 93.5641 61.3745 93.5643 61.3812C93.7166 65.6819 96.5408 69.175 100.611 69.175C103.304 69.175 105.842 67.347 107.278 65.7287C107.603 65.3629 107.595 64.8316 107.308 64.468L106.605 63.5761C106.221 63.0882 105.519 63.0776 105.092 63.4599C104.79 63.7308 104.344 64.0895 103.825 64.3783C103.301 64.6694 102.739 64.8701 102.197 64.8701C101.519 64.8701 100.878 64.6959 100.36 64.3257C99.8569 63.9661 99.4374 63.399 99.2172 62.5466C101.61 62.612 103.945 61.9802 105.696 60.7225C107.46 59.4556 108.628 57.5517 108.628 55.1348C108.628 52.1691 106.355 50.0145 103.278 50.0145C101.106 50.0145 99.0974 50.999 97.4912 52.477C95.8851 53.955 94.6532 55.9498 94.0279 58.038C94.0257 58.0455 94.0217 58.0503 94.0182 58.0531C93.7044 57.9316 93.3941 57.8012 93.0877 57.6619C92.5807 57.4316 91.959 57.6504 91.7442 58.1975C91.6032 58.5568 91.4259 59.0169 91.3007 59.3432ZM103.925 55.6911C103.925 56.9836 102.624 58.8929 99.2935 58.9687C99.8499 56.5283 101.166 55.1095 102.242 54.6395C102.788 54.4011 103.207 54.428 103.461 54.5718C103.694 54.7042 103.925 55.0157 103.925 55.6816V55.6911Z" stroke="black" stroke-linejoin="round"/>
</g>
<g style="mix-blend-mode:difference">
<path d="M82.445 61.4551C82.4454 63.8412 82.9664 65.8914 83.9209 67.363C84.8836 68.8473 86.2965 69.7475 88.0133 69.7502H88.014C89.9648 69.7502 91.5857 68.6817 92.7958 67.0449C93.0427 66.7108 93.0359 66.2826 92.8535 65.9578C92.6976 65.6801 92.5593 65.3929 92.4395 65.098C92.286 64.7202 91.9503 64.5042 91.6185 64.44C91.2878 64.376 90.9021 64.4505 90.6162 64.7234C90.2362 65.0862 89.9057 65.2626 89.6469 65.3202C89.4039 65.3743 89.2088 65.3291 89.0397 65.2051C88.6593 64.9261 88.2894 64.142 88.2894 62.6875C88.2894 60.2273 88.8781 57.1437 89.9928 53.8493C90.1352 53.4283 89.9797 53.0265 89.7261 52.7756C89.4746 52.5268 89.0823 52.3791 88.6745 52.4894C87.2704 52.8692 85.779 52.8325 84.3834 52.3715C84.2727 52.3349 84.1529 52.3254 84.0346 52.3468C83.7637 52.3958 83.5444 52.5982 83.476 52.8672L83.9606 52.9904L83.476 52.8672C82.7626 55.6722 82.4159 58.5593 82.445 61.4551ZM82.445 61.4551C82.445 61.4541 82.445 61.4532 82.445 61.4523H82.945M82.445 61.4551C82.445 61.4558 82.445 61.4566 82.445 61.4573L82.945 61.4523M82.945 61.4523C82.945 66.0961 84.9763 69.2454 88.014 69.2502L82.945 61.4523ZM56.9777 60.4572C52.1716 60.4473 48.6887 65.2153 48.6887 70.9097C48.6887 73.9518 49.6451 76.2837 51.1318 77.8246C52.6176 79.3645 54.6056 80.0835 56.5945 79.9388C60.6136 79.6463 64.4278 75.8912 64.4278 68.8023C64.4278 67.2465 63.8383 65.1836 62.6315 63.5011C61.4155 61.8056 59.5402 60.4574 56.9777 60.4572ZM56.9777 60.4572C56.9779 60.4572 56.978 60.4572 56.9782 60.4572L56.9771 60.9572V60.4572C56.9773 60.4572 56.9775 60.4572 56.9777 60.4572ZM21.8042 75.9214L22.2928 75.8151L21.8042 75.9215C21.9317 76.5068 22.0628 77.1224 22.1962 77.7683C22.3174 78.3546 22.9258 78.7095 23.4985 78.5121C24.9491 78.0124 26.4121 77.4626 27.871 76.87C27.8718 76.8697 27.8723 76.8695 27.8726 76.8695C27.8727 76.8695 27.8729 76.8695 27.8731 76.8696L27.875 76.8704C27.8762 76.8711 27.8769 76.8717 27.8771 76.8719C27.8772 76.8722 27.8773 76.8727 27.8775 76.8735C28.8653 82.173 30.2272 87.1106 32.0519 93.0595C32.2488 93.7013 33.0048 93.9653 33.5598 93.6039C34.6574 92.8892 35.6902 92.2635 36.1993 91.9594C36.5891 91.7265 36.7732 91.2623 36.652 90.8265C35.5915 87.0133 34.8476 83.1187 34.4274 79.1828C34.4302 79.1808 34.4344 79.1781 34.4404 79.1756C34.4551 79.1693 34.4689 79.1685 34.477 79.1698C34.4805 79.1704 34.4827 79.1713 34.4842 79.172C34.4854 79.1727 34.4885 79.1744 34.4932 79.1793C38.9105 83.7525 45.7597 86.1937 51.9069 82.0431C52.3179 81.7655 52.4032 81.2022 52.1089 80.8138C52.0369 80.7187 51.9472 80.6414 51.8474 80.5842C50.1284 79.599 48.7991 78.0542 48.0726 76.211C47.8436 75.6299 47.144 75.3678 46.5891 75.6807C44.3601 76.9379 42.1518 77.3024 40.1629 76.92C38.181 76.5389 36.3769 75.4086 34.959 73.602C40.4981 70.7234 45.6239 67.211 49.3724 63.2352C53.1211 59.2593 55.53 54.7778 55.53 49.977C55.53 46.6832 54.056 43.6245 50.9139 41.407C47.7884 39.2012 43.0428 37.8462 36.5043 37.8462C21.5167 37.8462 6.19404 44.897 1.48549 47.3099C1.09247 47.5113 0.896457 47.9359 0.962727 48.3514C1.56768 52.1448 2.19986 55.5415 2.5564 57.4278C2.6091 57.7066 2.78993 57.918 2.95118 58.058C3.12179 58.2062 3.32932 58.3263 3.5373 58.4132C3.74533 58.5001 3.97651 58.5633 4.20161 58.5809C4.41433 58.5975 4.69084 58.5784 4.92621 58.4226C9.74389 55.2342 16.0732 51.9105 22.3531 49.3852C28.6458 46.8548 34.8315 45.1496 39.3782 45.1496C43.1367 45.1496 45.6667 46.0227 47.1307 47.3962C48.5707 48.7472 49.0629 50.663 48.5757 52.9785C48.085 55.3102 46.6012 58.0165 44.1262 60.824C41.6566 63.6252 38.2217 66.5023 33.8712 69.178C33.8401 62.5382 34.2106 55.9027 34.9806 49.3083C35.0665 48.5721 34.345 47.9894 33.6387 48.257C31.1279 49.2084 28.6747 50.3077 26.2919 51.5494C25.9526 51.7262 25.7477 52.0811 25.7561 52.458C25.9438 60.8597 26.3958 67.1551 27.1989 72.7419C27.1989 72.7419 27.1989 72.7419 27.1989 72.7419C25.6816 73.4535 24.0901 74.1304 22.4241 74.7724C21.9634 74.95 21.6988 75.4371 21.8042 75.9214ZM71.4588 73.2672L71.461 73.2672C72.4733 73.2629 73.4592 72.9956 74.3275 72.5013C74.353 72.4868 74.4064 72.4797 74.4621 72.5089C74.4864 72.5216 74.4973 72.5348 74.5003 72.5394C74.5009 72.5405 74.5009 72.54 74.5007 72.5397C74.5006 72.5395 74.5005 72.5393 74.5005 72.5397C74.4426 73.6861 74.3758 74.8625 74.3001 76.069C74.3001 76.0691 74.3 76.0692 74.2999 76.0694C74.2986 76.071 74.2969 76.0721 74.2953 76.0726C67.7638 78.1601 62.6005 81.1241 59.0604 84.3027C55.5364 87.4666 53.5565 90.9054 53.5565 93.9451C53.5565 96.0517 54.1273 97.8728 55.4091 99.1665C56.6922 100.462 58.614 101.154 61.1616 101.154C65.0516 101.154 68.7366 99.1268 71.7072 96.0847C74.6808 93.0394 76.981 88.9369 78.1033 84.6803C78.2809 84.0066 77.725 83.3757 77.0392 83.4551C75.8302 83.5949 74.6298 83.8027 73.4436 84.0775C73.1175 84.153 72.8592 84.3886 72.7411 84.6852C70.6824 89.8562 68.663 93.0183 66.6874 94.885C64.7316 96.733 62.8051 97.3251 60.862 97.3251C59.8769 97.3251 59.1157 97.0721 58.6073 96.6264C58.1092 96.1898 57.7907 95.5132 57.7907 94.5249C57.7907 93.045 58.4561 91.4697 59.7509 89.9191C61.0443 88.3701 62.944 86.8736 65.3469 85.5662C70.1517 82.952 76.9086 81.1264 84.6534 81.1264C95.5029 81.1264 103.682 83.411 105.77 84.0544C106.341 84.2302 106.935 83.8753 107.057 83.2949C108.044 78.5835 108.54 75.9989 108.726 75.0019C108.825 74.4691 108.482 73.9398 107.923 73.8499C104.592 73.3153 92.0262 71.9724 79.9281 74.5647C79.9274 74.5642 79.9266 74.5636 79.9256 74.5628C79.9228 74.5602 79.9211 74.5575 79.9203 74.5557L79.9198 74.5541C79.9198 74.5538 79.9197 74.5531 79.9198 74.5516C80.4407 67.6914 80.7407 63.3827 80.9528 60.3364C81.2268 56.4011 81.3541 54.5722 81.6217 52.0709C81.6901 51.4309 81.1417 50.8766 80.4857 50.9756C79.442 51.1331 77.2806 51.4796 75.3316 51.9218C74.8535 52.0302 74.5327 52.4683 74.5588 52.9491C74.6022 53.7473 74.6397 54.55 74.6713 55.3597C74.6713 55.3599 74.6713 55.3601 74.6713 55.3602C74.6699 55.3625 74.6651 55.3688 74.6541 55.3759C74.6258 55.3942 74.5916 55.3969 74.5668 55.3877C73.891 55.1386 73.1734 55.0135 72.4483 55.0214C69.9234 55.0222 68.0236 56.1894 66.7566 57.9207C65.5002 59.6376 64.8695 61.8986 64.8117 64.1313C64.7538 66.3634 65.2669 68.6229 66.3631 70.3414C67.4682 72.074 69.179 73.2672 71.4588 73.2672ZM73.136 68.4249H73.1298C72.1935 68.4249 71.5244 67.9941 71.0735 67.3247C70.6104 66.6372 70.3757 65.6877 70.3891 64.705C70.4024 63.723 70.6628 62.765 71.1239 62.0684C71.5778 61.3827 72.2058 60.9716 72.9988 60.9717L73.0015 60.9716C73.3637 60.9696 73.7219 61.0486 74.0504 61.2028C74.3271 61.3328 74.577 61.5135 74.7875 61.7354C74.7856 63.6789 74.7546 65.6865 74.6906 67.7934C74.5059 67.9769 74.29 68.1259 74.0529 68.2331C73.7646 68.3634 73.4517 68.4288 73.136 68.4249ZM86.259 42.5786L86.4206 43.0518L86.259 42.5786C85.7343 42.7577 85.2516 43.0425 84.8402 43.4155C84.4288 43.7884 84.0974 44.2417 83.8659 44.7475C83.6382 45.2452 83.5119 45.7836 83.4944 46.331C83.4258 46.8742 83.466 47.4259 83.6127 47.9535C83.7618 48.4896 84.0178 48.9898 84.3653 49.4233C84.7129 49.8569 85.1447 50.2149 85.6345 50.4752C86.1243 50.7355 86.6619 50.8927 87.2143 50.937C87.7667 50.9812 88.3223 50.9117 88.847 50.7326C89.3717 50.5535 89.8544 50.2687 90.2658 49.8957C90.6772 49.5228 91.0086 49.0695 91.2401 48.5637C91.4678 48.066 91.5941 47.5276 91.6117 46.9803C91.6802 46.437 91.6401 45.8853 91.4933 45.3577C91.3443 44.8216 91.0882 44.3214 90.7407 43.8879C90.3931 43.4543 89.9613 43.0963 89.4715 42.836C88.9817 42.5757 88.4441 42.4185 87.8917 42.3743C87.3393 42.33 86.7838 42.3996 86.259 42.5786ZM59.3136 70.4807C59.3136 73.7581 57.8456 74.9454 56.709 74.9593C55.5469 74.9734 54.1165 73.7877 54.1165 71.1171C54.1165 68.1853 55.5575 67.0027 56.7367 66.9516C57.9132 66.9006 59.3136 67.9527 59.3136 70.4712V70.4807ZM90.1622 59.3432C89.9823 59.8121 90.1778 60.3525 90.6395 60.5837C91.216 60.8726 91.8074 61.1305 92.4111 61.3565C92.4138 61.3575 92.417 61.3596 92.4202 61.364C92.4234 61.3686 92.4256 61.3745 92.4258 61.3812C92.5781 65.6819 95.4023 69.175 99.4721 69.175C102.166 69.175 104.703 67.347 106.14 65.7287C106.464 65.3629 106.456 64.8316 106.17 64.468L105.467 63.5761C105.082 63.0882 104.38 63.0776 103.954 63.4599C103.652 63.7308 103.205 64.0895 102.686 64.3783C102.163 64.6694 101.601 64.8701 101.059 64.8701C100.381 64.8701 99.7399 64.6959 99.2218 64.3257C98.7184 63.9661 98.2989 63.399 98.0787 62.5466C100.471 62.612 102.806 61.9802 104.557 60.7225C106.321 59.4556 107.489 57.5517 107.489 55.1348C107.489 52.1691 105.217 50.0145 102.14 50.0145C99.9674 50.0145 97.9589 50.999 96.3527 52.477C94.7466 53.955 93.5148 55.9498 92.8895 58.038C92.8872 58.0455 92.8832 58.0503 92.8797 58.0531C92.5659 57.9316 92.2556 57.8012 91.9492 57.6619C91.4423 57.4316 90.8205 57.6504 90.6058 58.1975C90.4647 58.5568 90.2875 59.0169 90.1622 59.3432ZM102.787 55.6911C102.787 56.9836 101.486 58.8929 98.1551 58.9687C98.7114 56.5283 100.028 55.1095 101.104 54.6395C101.649 54.4011 102.069 54.428 102.322 54.5718C102.556 54.7042 102.787 55.0157 102.787 55.6816V55.6911Z" fill="#FF0000"/>
<path d="M82.445 61.4551C82.4454 63.8412 82.9664 65.8914 83.9209 67.363C84.8836 68.8473 86.2965 69.7475 88.0133 69.7502H88.014C89.9648 69.7502 91.5857 68.6817 92.7958 67.0449C93.0427 66.7108 93.0359 66.2826 92.8535 65.9578C92.6976 65.6801 92.5593 65.3929 92.4395 65.098C92.286 64.7202 91.9503 64.5042 91.6185 64.44C91.2878 64.376 90.9021 64.4505 90.6162 64.7234C90.2362 65.0862 89.9057 65.2626 89.6469 65.3202C89.4039 65.3743 89.2088 65.3291 89.0397 65.2051C88.6593 64.9261 88.2894 64.142 88.2894 62.6875C88.2894 60.2273 88.8781 57.1437 89.9928 53.8493C90.1352 53.4283 89.9797 53.0265 89.7261 52.7756C89.4746 52.5268 89.0823 52.3791 88.6745 52.4894C87.2704 52.8692 85.779 52.8325 84.3834 52.3715C84.2727 52.3349 84.1529 52.3254 84.0346 52.3468C83.7637 52.3958 83.5444 52.5982 83.476 52.8672L83.9606 52.9904L83.476 52.8672C82.7626 55.6722 82.4159 58.5593 82.445 61.4551ZM82.445 61.4551C82.445 61.4541 82.445 61.4532 82.445 61.4523H82.945M82.445 61.4551C82.445 61.4558 82.445 61.4566 82.445 61.4573L82.945 61.4523M82.945 61.4523C82.945 66.0961 84.9763 69.2454 88.014 69.2502L82.945 61.4523ZM56.9777 60.4572C52.1716 60.4473 48.6887 65.2153 48.6887 70.9097C48.6887 73.9518 49.6451 76.2837 51.1318 77.8246C52.6176 79.3645 54.6056 80.0835 56.5945 79.9388C60.6136 79.6463 64.4278 75.8912 64.4278 68.8023C64.4278 67.2465 63.8383 65.1836 62.6315 63.5011C61.4155 61.8056 59.5402 60.4574 56.9777 60.4572ZM56.9777 60.4572C56.9779 60.4572 56.978 60.4572 56.9782 60.4572L56.9771 60.9572V60.4572C56.9773 60.4572 56.9775 60.4572 56.9777 60.4572ZM21.8042 75.9214L22.2928 75.8151L21.8042 75.9215C21.9317 76.5068 22.0628 77.1224 22.1962 77.7683C22.3174 78.3546 22.9258 78.7095 23.4985 78.5121C24.9491 78.0124 26.4121 77.4626 27.871 76.87C27.8718 76.8697 27.8723 76.8695 27.8726 76.8695C27.8727 76.8695 27.8729 76.8695 27.8731 76.8696L27.875 76.8704C27.8762 76.8711 27.8769 76.8717 27.8771 76.8719C27.8772 76.8722 27.8773 76.8727 27.8775 76.8735C28.8653 82.173 30.2272 87.1106 32.0519 93.0595C32.2488 93.7013 33.0048 93.9653 33.5598 93.6039C34.6574 92.8892 35.6902 92.2635 36.1993 91.9594C36.5891 91.7265 36.7732 91.2623 36.652 90.8265C35.5915 87.0133 34.8476 83.1187 34.4274 79.1828C34.4302 79.1808 34.4344 79.1781 34.4404 79.1756C34.4551 79.1693 34.4689 79.1685 34.477 79.1698C34.4805 79.1704 34.4827 79.1713 34.4842 79.172C34.4854 79.1727 34.4885 79.1744 34.4932 79.1793C38.9105 83.7525 45.7597 86.1937 51.9069 82.0431C52.3179 81.7655 52.4032 81.2022 52.1089 80.8138C52.0369 80.7187 51.9472 80.6414 51.8474 80.5842C50.1284 79.599 48.7991 78.0542 48.0726 76.211C47.8436 75.6299 47.144 75.3678 46.5891 75.6807C44.3601 76.9379 42.1518 77.3024 40.1629 76.92C38.181 76.5389 36.3769 75.4086 34.959 73.602C40.4981 70.7234 45.6239 67.211 49.3724 63.2352C53.1211 59.2593 55.53 54.7778 55.53 49.977C55.53 46.6832 54.056 43.6245 50.9139 41.407C47.7884 39.2012 43.0428 37.8462 36.5043 37.8462C21.5167 37.8462 6.19404 44.897 1.48549 47.3099C1.09247 47.5113 0.896457 47.9359 0.962727 48.3514C1.56768 52.1448 2.19986 55.5415 2.5564 57.4278C2.6091 57.7066 2.78993 57.918 2.95118 58.058C3.12179 58.2062 3.32932 58.3263 3.5373 58.4132C3.74533 58.5001 3.97651 58.5633 4.20161 58.5809C4.41433 58.5975 4.69084 58.5784 4.92621 58.4226C9.74389 55.2342 16.0732 51.9105 22.3531 49.3852C28.6458 46.8548 34.8315 45.1496 39.3782 45.1496C43.1367 45.1496 45.6667 46.0227 47.1307 47.3962C48.5707 48.7472 49.0629 50.663 48.5757 52.9785C48.085 55.3102 46.6012 58.0165 44.1262 60.824C41.6566 63.6252 38.2217 66.5023 33.8712 69.178C33.8401 62.5382 34.2106 55.9027 34.9806 49.3083C35.0665 48.5721 34.345 47.9894 33.6387 48.257C31.1279 49.2084 28.6747 50.3077 26.2919 51.5494C25.9526 51.7262 25.7477 52.0811 25.7561 52.458C25.9438 60.8597 26.3958 67.1551 27.1989 72.7419C27.1989 72.7419 27.1989 72.7419 27.1989 72.7419C25.6816 73.4535 24.0901 74.1304 22.4241 74.7724C21.9634 74.95 21.6988 75.4371 21.8042 75.9214ZM71.4588 73.2672L71.461 73.2672C72.4733 73.2629 73.4592 72.9956 74.3275 72.5013C74.353 72.4868 74.4064 72.4797 74.4621 72.5089C74.4864 72.5216 74.4973 72.5348 74.5003 72.5394C74.5009 72.5405 74.5009 72.54 74.5007 72.5397C74.5006 72.5395 74.5005 72.5393 74.5005 72.5397C74.4426 73.6861 74.3758 74.8625 74.3001 76.069C74.3001 76.0691 74.3 76.0692 74.2999 76.0694C74.2986 76.071 74.2969 76.0721 74.2953 76.0726C67.7638 78.1601 62.6005 81.1241 59.0604 84.3027C55.5364 87.4666 53.5565 90.9054 53.5565 93.9451C53.5565 96.0517 54.1273 97.8728 55.4091 99.1665C56.6922 100.462 58.614 101.154 61.1616 101.154C65.0516 101.154 68.7366 99.1268 71.7072 96.0847C74.6808 93.0394 76.981 88.9369 78.1033 84.6803C78.2809 84.0066 77.725 83.3757 77.0392 83.4551C75.8302 83.5949 74.6298 83.8027 73.4436 84.0775C73.1175 84.153 72.8592 84.3886 72.7411 84.6852C70.6824 89.8562 68.663 93.0183 66.6874 94.885C64.7316 96.733 62.8051 97.3251 60.862 97.3251C59.8769 97.3251 59.1157 97.0721 58.6073 96.6264C58.1092 96.1898 57.7907 95.5132 57.7907 94.5249C57.7907 93.045 58.4561 91.4697 59.7509 89.9191C61.0443 88.3701 62.944 86.8736 65.3469 85.5662C70.1517 82.952 76.9086 81.1264 84.6534 81.1264C95.5029 81.1264 103.682 83.411 105.77 84.0544C106.341 84.2302 106.935 83.8753 107.057 83.2949C108.044 78.5835 108.54 75.9989 108.726 75.0019C108.825 74.4691 108.482 73.9398 107.923 73.8499C104.592 73.3153 92.0262 71.9724 79.9281 74.5647C79.9274 74.5642 79.9266 74.5636 79.9256 74.5628C79.9228 74.5602 79.9211 74.5575 79.9203 74.5557L79.9198 74.5541C79.9198 74.5538 79.9197 74.5531 79.9198 74.5516C80.4407 67.6914 80.7407 63.3827 80.9528 60.3364C81.2268 56.4011 81.3541 54.5722 81.6217 52.0709C81.6901 51.4309 81.1417 50.8766 80.4857 50.9756C79.442 51.1331 77.2806 51.4796 75.3316 51.9218C74.8535 52.0302 74.5327 52.4683 74.5588 52.9491C74.6022 53.7473 74.6397 54.55 74.6713 55.3597C74.6713 55.3599 74.6713 55.3601 74.6713 55.3602C74.6699 55.3625 74.6651 55.3688 74.6541 55.3759C74.6258 55.3942 74.5916 55.3969 74.5668 55.3877C73.891 55.1386 73.1734 55.0135 72.4483 55.0214C69.9234 55.0222 68.0236 56.1894 66.7566 57.9207C65.5002 59.6376 64.8695 61.8986 64.8117 64.1313C64.7538 66.3634 65.2669 68.6229 66.3631 70.3414C67.4682 72.074 69.179 73.2672 71.4588 73.2672ZM73.136 68.4249H73.1298C72.1935 68.4249 71.5244 67.9941 71.0735 67.3247C70.6104 66.6372 70.3757 65.6877 70.3891 64.705C70.4024 63.723 70.6628 62.765 71.1239 62.0684C71.5778 61.3827 72.2058 60.9716 72.9988 60.9717L73.0015 60.9716C73.3637 60.9696 73.7219 61.0486 74.0504 61.2028C74.3271 61.3328 74.577 61.5135 74.7875 61.7354C74.7856 63.6789 74.7546 65.6865 74.6906 67.7934C74.5059 67.9769 74.29 68.1259 74.0529 68.2331C73.7646 68.3634 73.4517 68.4288 73.136 68.4249ZM86.259 42.5786L86.4206 43.0518L86.259 42.5786C85.7343 42.7577 85.2516 43.0425 84.8402 43.4155C84.4288 43.7884 84.0974 44.2417 83.8659 44.7475C83.6382 45.2452 83.5119 45.7836 83.4944 46.331C83.4258 46.8742 83.466 47.4259 83.6127 47.9535C83.7618 48.4896 84.0178 48.9898 84.3653 49.4233C84.7129 49.8569 85.1447 50.2149 85.6345 50.4752C86.1243 50.7355 86.6619 50.8927 87.2143 50.937C87.7667 50.9812 88.3223 50.9117 88.847 50.7326C89.3717 50.5535 89.8544 50.2687 90.2658 49.8957C90.6772 49.5228 91.0086 49.0695 91.2401 48.5637C91.4678 48.066 91.5941 47.5276 91.6117 46.9803C91.6802 46.437 91.6401 45.8853 91.4933 45.3577C91.3443 44.8216 91.0882 44.3214 90.7407 43.8879C90.3931 43.4543 89.9613 43.0963 89.4715 42.836C88.9817 42.5757 88.4441 42.4185 87.8917 42.3743C87.3393 42.33 86.7838 42.3996 86.259 42.5786ZM59.3136 70.4807C59.3136 73.7581 57.8456 74.9454 56.709 74.9593C55.5469 74.9734 54.1165 73.7877 54.1165 71.1171C54.1165 68.1853 55.5575 67.0027 56.7367 66.9516C57.9132 66.9006 59.3136 67.9527 59.3136 70.4712V70.4807ZM90.1622 59.3432C89.9823 59.8121 90.1778 60.3525 90.6395 60.5837C91.216 60.8726 91.8074 61.1305 92.4111 61.3565C92.4138 61.3575 92.417 61.3596 92.4202 61.364C92.4234 61.3686 92.4256 61.3745 92.4258 61.3812C92.5781 65.6819 95.4023 69.175 99.4721 69.175C102.166 69.175 104.703 67.347 106.14 65.7287C106.464 65.3629 106.456 64.8316 106.17 64.468L105.467 63.5761C105.082 63.0882 104.38 63.0776 103.954 63.4599C103.652 63.7308 103.205 64.0895 102.686 64.3783C102.163 64.6694 101.601 64.8701 101.059 64.8701C100.381 64.8701 99.7399 64.6959 99.2218 64.3257C98.7184 63.9661 98.2989 63.399 98.0787 62.5466C100.471 62.612 102.806 61.9802 104.557 60.7225C106.321 59.4556 107.489 57.5517 107.489 55.1348C107.489 52.1691 105.217 50.0145 102.14 50.0145C99.9674 50.0145 97.9589 50.999 96.3527 52.477C94.7466 53.955 93.5148 55.9498 92.8895 58.038C92.8872 58.0455 92.8832 58.0503 92.8797 58.0531C92.5659 57.9316 92.2556 57.8012 91.9492 57.6619C91.4423 57.4316 90.8205 57.6504 90.6058 58.1975C90.4647 58.5568 90.2875 59.0169 90.1622 59.3432ZM102.787 55.6911C102.787 56.9836 101.486 58.8929 98.1551 58.9687C98.7114 56.5283 100.028 55.1095 101.104 54.6395C101.649 54.4011 102.069 54.428 102.322 54.5718C102.556 54.7042 102.787 55.0157 102.787 55.6816V55.6911Z" stroke="black" stroke-linejoin="round"/>
</g>
<g style="mix-blend-mode:difference">
<path d="M84.545 61.4551C84.5454 63.8412 85.0664 65.8914 86.0209 67.363C86.9836 68.8473 88.3965 69.7475 90.1133 69.7502H90.1141C92.0648 69.7502 93.6857 68.6817 94.8958 67.0449C95.1427 66.7108 95.1359 66.2826 94.9535 65.9578C94.7976 65.6801 94.6593 65.3929 94.5395 65.098C94.386 64.7202 94.0503 64.5042 93.7185 64.44C93.3878 64.376 93.0021 64.4505 92.7162 64.7234C92.3362 65.0862 92.0057 65.2626 91.7469 65.3202C91.5039 65.3743 91.3088 65.3291 91.1397 65.2051C90.7593 64.9261 90.3894 64.142 90.3894 62.6875C90.3894 60.2273 90.9781 57.1437 92.0928 53.8493C92.2352 53.4283 92.0797 53.0265 91.8261 52.7756C91.5746 52.5268 91.1823 52.3791 90.7745 52.4894C89.3704 52.8692 87.879 52.8325 86.4834 52.3715C86.3727 52.3349 86.2529 52.3254 86.1346 52.3468C85.8637 52.3958 85.6444 52.5982 85.576 52.8672L86.0606 52.9904L85.576 52.8672C84.8626 55.6722 84.5159 58.5593 84.545 61.4551ZM84.545 61.4551C84.545 61.4541 84.545 61.4532 84.545 61.4523H85.045M84.545 61.4551C84.545 61.4558 84.545 61.4566 84.545 61.4573L85.045 61.4523M85.045 61.4523C85.045 66.0961 87.0764 69.2454 90.1141 69.2502L85.045 61.4523ZM59.0777 60.4572C54.2716 60.4473 50.7887 65.2153 50.7887 70.9097C50.7887 73.9518 51.7451 76.2837 53.2318 77.8246C54.7176 79.3645 56.7056 80.0835 58.6945 79.9388C62.7136 79.6463 66.5278 75.8912 66.5278 68.8023C66.5278 67.2465 65.9383 65.1836 64.7315 63.5011C63.5155 61.8056 61.6402 60.4574 59.0777 60.4572ZM59.0777 60.4572C59.0779 60.4572 59.078 60.4572 59.0782 60.4572L59.0772 60.9572V60.4572C59.0773 60.4572 59.0775 60.4572 59.0777 60.4572ZM23.9042 75.9214L24.3928 75.8151L23.9042 75.9215C24.0317 76.5068 24.1628 77.1224 24.2962 77.7683C24.4174 78.3546 25.0258 78.7095 25.5985 78.5121C27.0491 78.0124 28.5121 77.4626 29.971 76.87C29.9718 76.8697 29.9723 76.8695 29.9726 76.8695C29.9727 76.8695 29.9729 76.8695 29.9731 76.8696L29.975 76.8704C29.9762 76.8711 29.9769 76.8717 29.9771 76.8719C29.9772 76.8722 29.9773 76.8727 29.9775 76.8735C30.9654 82.173 32.3272 87.1106 34.1519 93.0595C34.3488 93.7013 35.1048 93.9653 35.6598 93.6039C36.7574 92.8892 37.7902 92.2635 38.2993 91.9594C38.6891 91.7265 38.8732 91.2623 38.752 90.8265C37.6915 87.0133 36.9476 83.1187 36.5274 79.1828C36.5302 79.1808 36.5344 79.1781 36.5404 79.1756C36.5551 79.1693 36.5689 79.1685 36.5771 79.1698C36.5805 79.1704 36.5827 79.1713 36.5842 79.172C36.5854 79.1727 36.5885 79.1744 36.5932 79.1793C41.0105 83.7525 47.8597 86.1937 54.0069 82.0431C54.418 81.7655 54.5032 81.2022 54.209 80.8138C54.1369 80.7187 54.0472 80.6414 53.9474 80.5842C52.2284 79.599 50.8991 78.0542 50.1726 76.211C49.9436 75.6299 49.244 75.3678 48.6891 75.6807C46.4601 76.9379 44.2518 77.3024 42.263 76.92C40.281 76.5389 38.4769 75.4086 37.0591 73.602C42.5981 70.7234 47.7239 67.211 51.4724 63.2352C55.2211 59.2593 57.63 54.7778 57.63 49.977C57.63 46.6832 56.156 43.6245 53.0139 41.407C49.8884 39.2012 45.1428 37.8462 38.6043 37.8462C23.6167 37.8462 8.29405 44.897 3.5855 47.3099C3.19248 47.5113 2.99646 47.9359 3.06273 48.3514C3.66769 52.1448 4.29987 55.5415 4.65641 57.4278C4.70911 57.7066 4.88994 57.918 5.05119 58.058C5.22179 58.2062 5.42933 58.3263 5.6373 58.4132C5.84533 58.5001 6.07651 58.5633 6.30162 58.5809C6.51434 58.5975 6.79085 58.5784 7.02622 58.4226C11.8439 55.2342 18.1732 51.9105 24.4531 49.3852C30.7458 46.8548 36.9315 45.1496 41.4782 45.1496C45.2367 45.1496 47.7667 46.0227 49.2307 47.3962C50.6707 48.7472 51.1629 50.663 50.6757 52.9785C50.185 55.3102 48.7012 58.0165 46.2262 60.824C43.7566 63.6252 40.3217 66.5023 35.9712 69.178C35.9401 62.5382 36.3106 55.9027 37.0806 49.3083C37.1665 48.5721 36.445 47.9894 35.7387 48.257C33.2279 49.2084 30.7747 50.3077 28.3919 51.5494C28.0526 51.7262 27.8477 52.0811 27.8561 52.458C28.0439 60.8597 28.4958 67.1551 29.2989 72.7419C29.2989 72.7419 29.2989 72.7419 29.2989 72.7419C27.7817 73.4535 26.1901 74.1304 24.5241 74.7724C24.0634 74.95 23.7988 75.4371 23.9042 75.9214ZM73.5588 73.2672L73.561 73.2672C74.5733 73.2629 75.5592 72.9956 76.4275 72.5013C76.453 72.4868 76.5064 72.4797 76.5621 72.5089C76.5864 72.5216 76.5973 72.5348 76.6003 72.5394C76.601 72.5405 76.6009 72.54 76.6007 72.5397C76.6006 72.5395 76.6005 72.5393 76.6005 72.5397C76.5426 73.6861 76.4758 74.8625 76.4002 76.069C76.4001 76.0691 76.4 76.0692 76.3999 76.0694C76.3986 76.071 76.3969 76.0721 76.3953 76.0726C69.8638 78.1601 64.7005 81.1241 61.1604 84.3027C57.6364 87.4666 55.6565 90.9054 55.6565 93.9451C55.6565 96.0517 56.2273 97.8728 57.5091 99.1665C58.7922 100.462 60.714 101.154 63.2616 101.154C67.1516 101.154 70.8366 99.1268 73.8072 96.0847C76.7808 93.0394 79.081 88.9369 80.2033 84.6803C80.3809 84.0066 79.825 83.3757 79.1392 83.4551C77.9302 83.5949 76.7298 83.8027 75.5436 84.0775C75.2175 84.153 74.9593 84.3886 74.8411 84.6852C72.7824 89.8562 70.763 93.0183 68.7874 94.885C66.8316 96.733 64.9051 97.3251 62.962 97.3251C61.9769 97.3251 61.2157 97.0721 60.7073 96.6264C60.2092 96.1898 59.8908 95.5132 59.8908 94.5249C59.8908 93.045 60.5561 91.4697 61.8509 89.9191C63.1443 88.3701 65.044 86.8736 67.4469 85.5662C72.2517 82.952 79.0086 81.1264 86.7534 81.1264C97.6029 81.1264 105.782 83.411 107.87 84.0544C108.441 84.2302 109.035 83.8753 109.157 83.2949C110.144 78.5835 110.64 75.9989 110.826 75.0019C110.925 74.4691 110.582 73.9398 110.023 73.8499C106.692 73.3153 94.1262 71.9724 82.0281 74.5647C82.0275 74.5642 82.0266 74.5636 82.0257 74.5628C82.0228 74.5602 82.0211 74.5575 82.0203 74.5557L82.0198 74.5541C82.0198 74.5538 82.0197 74.5531 82.0198 74.5516C82.5407 67.6914 82.8407 63.3827 83.0528 60.3364C83.3268 56.4011 83.4542 54.5722 83.7217 52.0709C83.7902 51.4309 83.2417 50.8766 82.5857 50.9756C81.542 51.1331 79.3806 51.4796 77.4316 51.9218C76.9535 52.0302 76.6327 52.4683 76.6588 52.9491C76.7022 53.7473 76.7397 54.55 76.7713 55.3597C76.7713 55.3599 76.7713 55.3601 76.7713 55.3602C76.7699 55.3625 76.7651 55.3688 76.7541 55.3759C76.7259 55.3942 76.6917 55.3969 76.6668 55.3877C75.991 55.1386 75.2734 55.0135 74.5483 55.0214C72.0234 55.0222 70.1236 56.1894 68.8566 57.9207C67.6002 59.6376 66.9695 61.8986 66.9117 64.1313C66.8538 66.3634 67.3669 68.6229 68.4631 70.3414C69.5682 72.074 71.279 73.2672 73.5588 73.2672ZM75.236 68.4249H75.2298C74.2935 68.4249 73.6244 67.9941 73.1735 67.3247C72.7104 66.6372 72.4757 65.6877 72.4891 64.705C72.5024 63.723 72.7628 62.765 73.2239 62.0684C73.6778 61.3827 74.3058 60.9716 75.0988 60.9717L75.1015 60.9716C75.4637 60.9696 75.8219 61.0486 76.1504 61.2028C76.4271 61.3328 76.677 61.5135 76.8875 61.7354C76.8856 63.6789 76.8546 65.6865 76.7906 67.7934C76.6059 67.9769 76.39 68.1259 76.1529 68.2331C75.8646 68.3634 75.5517 68.4288 75.236 68.4249ZM88.3591 42.5786L88.5206 43.0518L88.359 42.5786C87.8344 42.7577 87.3516 43.0425 86.9402 43.4155C86.5288 43.7884 86.1974 44.2417 85.9659 44.7475C85.7382 45.2452 85.6119 45.7836 85.5944 46.331C85.5258 46.8742 85.566 47.4259 85.7127 47.9535C85.8618 48.4896 86.1178 48.9898 86.4653 49.4233C86.8129 49.8569 87.2447 50.2149 87.7345 50.4752C88.2243 50.7355 88.7619 50.8927 89.3143 50.937C89.8667 50.9812 90.4223 50.9117 90.947 50.7326C91.4717 50.5535 91.9544 50.2687 92.3658 49.8957C92.7772 49.5228 93.1087 49.0695 93.3401 48.5637C93.5678 48.066 93.6941 47.5276 93.7117 46.9803C93.7802 46.437 93.7401 45.8853 93.5933 45.3577C93.4443 44.8216 93.1882 44.3214 92.8407 43.8879C92.4931 43.4543 92.0614 43.0963 91.5715 42.836C91.0817 42.5757 90.5441 42.4185 89.9917 42.3743C89.4393 42.33 88.8838 42.3996 88.3591 42.5786ZM61.4136 70.4807C61.4136 73.7581 59.9456 74.9454 58.809 74.9593C57.6469 74.9734 56.2165 73.7877 56.2165 71.1171C56.2165 68.1853 57.6575 67.0027 58.8367 66.9516C60.0132 66.9006 61.4136 67.9527 61.4136 70.4712V70.4807ZM92.2623 59.3432C92.0823 59.8121 92.2778 60.3525 92.7395 60.5837C93.316 60.8726 93.9074 61.1305 94.5111 61.3565C94.5138 61.3575 94.517 61.3596 94.5202 61.364C94.5234 61.3686 94.5256 61.3745 94.5259 61.3812C94.6781 65.6819 97.5023 69.175 101.572 69.175C104.266 69.175 106.803 67.347 108.24 65.7287C108.564 65.3629 108.556 64.8316 108.27 64.468L107.567 63.5761C107.182 63.0882 106.48 63.0776 106.054 63.4599C105.752 63.7308 105.305 64.0895 104.786 64.3783C104.263 64.6694 103.701 64.8701 103.159 64.8701C102.481 64.8701 101.84 64.6959 101.322 64.3257C100.818 63.9661 100.399 63.399 100.179 62.5466C102.571 62.612 104.906 61.9802 106.657 60.7225C108.421 59.4556 109.589 57.5517 109.589 55.1348C109.589 52.1691 107.317 50.0145 104.24 50.0145C102.067 50.0145 100.059 50.999 98.4528 52.477C96.8466 53.955 95.6148 55.9498 94.9895 58.038C94.9872 58.0455 94.9832 58.0503 94.9797 58.0531C94.6659 57.9316 94.3556 57.8012 94.0492 57.6619C93.5423 57.4316 92.9205 57.6504 92.7058 58.1975C92.5647 58.5568 92.3875 59.0169 92.2623 59.3432ZM104.887 55.6911C104.887 56.9836 103.586 58.8929 100.255 58.9687C100.811 56.5283 102.128 55.1095 103.204 54.6395C103.749 54.4011 104.169 54.428 104.422 54.5718C104.656 54.7042 104.887 55.0157 104.887 55.6816V55.6911Z" fill="#0000FF"/>
<path d="M84.545 61.4551C84.5454 63.8412 85.0664 65.8914 86.0209 67.363C86.9836 68.8473 88.3965 69.7475 90.1133 69.7502H90.1141C92.0648 69.7502 93.6857 68.6817 94.8958 67.0449C95.1427 66.7108 95.1359 66.2826 94.9535 65.9578C94.7976 65.6801 94.6593 65.3929 94.5395 65.098C94.386 64.7202 94.0503 64.5042 93.7185 64.44C93.3878 64.376 93.0021 64.4505 92.7162 64.7234C92.3362 65.0862 92.0057 65.2626 91.7469 65.3202C91.5039 65.3743 91.3088 65.3291 91.1397 65.2051C90.7593 64.9261 90.3894 64.142 90.3894 62.6875C90.3894 60.2273 90.9781 57.1437 92.0928 53.8493C92.2352 53.4283 92.0797 53.0265 91.8261 52.7756C91.5746 52.5268 91.1823 52.3791 90.7745 52.4894C89.3704 52.8692 87.879 52.8325 86.4834 52.3715C86.3727 52.3349 86.2529 52.3254 86.1346 52.3468C85.8637 52.3958 85.6444 52.5982 85.576 52.8672L86.0606 52.9904L85.576 52.8672C84.8626 55.6722 84.5159 58.5593 84.545 61.4551ZM84.545 61.4551C84.545 61.4541 84.545 61.4532 84.545 61.4523H85.045M84.545 61.4551C84.545 61.4558 84.545 61.4566 84.545 61.4573L85.045 61.4523M85.045 61.4523C85.045 66.0961 87.0764 69.2454 90.1141 69.2502L85.045 61.4523ZM59.0777 60.4572C54.2716 60.4473 50.7887 65.2153 50.7887 70.9097C50.7887 73.9518 51.7451 76.2837 53.2318 77.8246C54.7176 79.3645 56.7056 80.0835 58.6945 79.9388C62.7136 79.6463 66.5278 75.8912 66.5278 68.8023C66.5278 67.2465 65.9383 65.1836 64.7315 63.5011C63.5155 61.8056 61.6402 60.4574 59.0777 60.4572ZM59.0777 60.4572C59.0779 60.4572 59.078 60.4572 59.0782 60.4572L59.0772 60.9572V60.4572C59.0773 60.4572 59.0775 60.4572 59.0777 60.4572ZM23.9042 75.9214L24.3928 75.8151L23.9042 75.9215C24.0317 76.5068 24.1628 77.1224 24.2962 77.7683C24.4174 78.3546 25.0258 78.7095 25.5985 78.5121C27.0491 78.0124 28.5121 77.4626 29.971 76.87C29.9718 76.8697 29.9723 76.8695 29.9726 76.8695C29.9727 76.8695 29.9729 76.8695 29.9731 76.8696L29.975 76.8704C29.9762 76.8711 29.9769 76.8717 29.9771 76.8719C29.9772 76.8722 29.9773 76.8727 29.9775 76.8735C30.9654 82.173 32.3272 87.1106 34.1519 93.0595C34.3488 93.7013 35.1048 93.9653 35.6598 93.6039C36.7574 92.8892 37.7902 92.2635 38.2993 91.9594C38.6891 91.7265 38.8732 91.2623 38.752 90.8265C37.6915 87.0133 36.9476 83.1187 36.5274 79.1828C36.5302 79.1808 36.5344 79.1781 36.5404 79.1756C36.5551 79.1693 36.5689 79.1685 36.5771 79.1698C36.5805 79.1704 36.5827 79.1713 36.5842 79.172C36.5854 79.1727 36.5885 79.1744 36.5932 79.1793C41.0105 83.7525 47.8597 86.1937 54.0069 82.0431C54.418 81.7655 54.5032 81.2022 54.209 80.8138C54.1369 80.7187 54.0472 80.6414 53.9474 80.5842C52.2284 79.599 50.8991 78.0542 50.1726 76.211C49.9436 75.6299 49.244 75.3678 48.6891 75.6807C46.4601 76.9379 44.2518 77.3024 42.263 76.92C40.281 76.5389 38.4769 75.4086 37.0591 73.602C42.5981 70.7234 47.7239 67.211 51.4724 63.2352C55.2211 59.2593 57.63 54.7778 57.63 49.977C57.63 46.6832 56.156 43.6245 53.0139 41.407C49.8884 39.2012 45.1428 37.8462 38.6043 37.8462C23.6167 37.8462 8.29405 44.897 3.5855 47.3099C3.19248 47.5113 2.99646 47.9359 3.06273 48.3514C3.66769 52.1448 4.29987 55.5415 4.65641 57.4278C4.70911 57.7066 4.88994 57.918 5.05119 58.058C5.22179 58.2062 5.42933 58.3263 5.6373 58.4132C5.84533 58.5001 6.07651 58.5633 6.30162 58.5809C6.51434 58.5975 6.79085 58.5784 7.02622 58.4226C11.8439 55.2342 18.1732 51.9105 24.4531 49.3852C30.7458 46.8548 36.9315 45.1496 41.4782 45.1496C45.2367 45.1496 47.7667 46.0227 49.2307 47.3962C50.6707 48.7472 51.1629 50.663 50.6757 52.9785C50.185 55.3102 48.7012 58.0165 46.2262 60.824C43.7566 63.6252 40.3217 66.5023 35.9712 69.178C35.9401 62.5382 36.3106 55.9027 37.0806 49.3083C37.1665 48.5721 36.445 47.9894 35.7387 48.257C33.2279 49.2084 30.7747 50.3077 28.3919 51.5494C28.0526 51.7262 27.8477 52.0811 27.8561 52.458C28.0439 60.8597 28.4958 67.1551 29.2989 72.7419C29.2989 72.7419 29.2989 72.7419 29.2989 72.7419C27.7817 73.4535 26.1901 74.1304 24.5241 74.7724C24.0634 74.95 23.7988 75.4371 23.9042 75.9214ZM73.5588 73.2672L73.561 73.2672C74.5733 73.2629 75.5592 72.9956 76.4275 72.5013C76.453 72.4868 76.5064 72.4797 76.5621 72.5089C76.5864 72.5216 76.5973 72.5348 76.6003 72.5394C76.601 72.5405 76.6009 72.54 76.6007 72.5397C76.6006 72.5395 76.6005 72.5393 76.6005 72.5397C76.5426 73.6861 76.4758 74.8625 76.4002 76.069C76.4001 76.0691 76.4 76.0692 76.3999 76.0694C76.3986 76.071 76.3969 76.0721 76.3953 76.0726C69.8638 78.1601 64.7005 81.1241 61.1604 84.3027C57.6364 87.4666 55.6565 90.9054 55.6565 93.9451C55.6565 96.0517 56.2273 97.8728 57.5091 99.1665C58.7922 100.462 60.714 101.154 63.2616 101.154C67.1516 101.154 70.8366 99.1268 73.8072 96.0847C76.7808 93.0394 79.081 88.9369 80.2033 84.6803C80.3809 84.0066 79.825 83.3757 79.1392 83.4551C77.9302 83.5949 76.7298 83.8027 75.5436 84.0775C75.2175 84.153 74.9593 84.3886 74.8411 84.6852C72.7824 89.8562 70.763 93.0183 68.7874 94.885C66.8316 96.733 64.9051 97.3251 62.962 97.3251C61.9769 97.3251 61.2157 97.0721 60.7073 96.6264C60.2092 96.1898 59.8908 95.5132 59.8908 94.5249C59.8908 93.045 60.5561 91.4697 61.8509 89.9191C63.1443 88.3701 65.044 86.8736 67.4469 85.5662C72.2517 82.952 79.0086 81.1264 86.7534 81.1264C97.6029 81.1264 105.782 83.411 107.87 84.0544C108.441 84.2302 109.035 83.8753 109.157 83.2949C110.144 78.5835 110.64 75.9989 110.826 75.0019C110.925 74.4691 110.582 73.9398 110.023 73.8499C106.692 73.3153 94.1262 71.9724 82.0281 74.5647C82.0275 74.5642 82.0266 74.5636 82.0257 74.5628C82.0228 74.5602 82.0211 74.5575 82.0203 74.5557L82.0198 74.5541C82.0198 74.5538 82.0197 74.5531 82.0198 74.5516C82.5407 67.6914 82.8407 63.3827 83.0528 60.3364C83.3268 56.4011 83.4542 54.5722 83.7217 52.0709C83.7902 51.4309 83.2417 50.8766 82.5857 50.9756C81.542 51.1331 79.3806 51.4796 77.4316 51.9218C76.9535 52.0302 76.6327 52.4683 76.6588 52.9491C76.7022 53.7473 76.7397 54.55 76.7713 55.3597C76.7713 55.3599 76.7713 55.3601 76.7713 55.3602C76.7699 55.3625 76.7651 55.3688 76.7541 55.3759C76.7259 55.3942 76.6917 55.3969 76.6668 55.3877C75.991 55.1386 75.2734 55.0135 74.5483 55.0214C72.0234 55.0222 70.1236 56.1894 68.8566 57.9207C67.6002 59.6376 66.9695 61.8986 66.9117 64.1313C66.8538 66.3634 67.3669 68.6229 68.4631 70.3414C69.5682 72.074 71.279 73.2672 73.5588 73.2672ZM75.236 68.4249H75.2298C74.2935 68.4249 73.6244 67.9941 73.1735 67.3247C72.7104 66.6372 72.4757 65.6877 72.4891 64.705C72.5024 63.723 72.7628 62.765 73.2239 62.0684C73.6778 61.3827 74.3058 60.9716 75.0988 60.9717L75.1015 60.9716C75.4637 60.9696 75.8219 61.0486 76.1504 61.2028C76.4271 61.3328 76.677 61.5135 76.8875 61.7354C76.8856 63.6789 76.8546 65.6865 76.7906 67.7934C76.6059 67.9769 76.39 68.1259 76.1529 68.2331C75.8646 68.3634 75.5517 68.4288 75.236 68.4249ZM88.3591 42.5786L88.5206 43.0518L88.359 42.5786C87.8344 42.7577 87.3516 43.0425 86.9402 43.4155C86.5288 43.7884 86.1974 44.2417 85.9659 44.7475C85.7382 45.2452 85.6119 45.7836 85.5944 46.331C85.5258 46.8742 85.566 47.4259 85.7127 47.9535C85.8618 48.4896 86.1178 48.9898 86.4653 49.4233C86.8129 49.8569 87.2447 50.2149 87.7345 50.4752C88.2243 50.7355 88.7619 50.8927 89.3143 50.937C89.8667 50.9812 90.4223 50.9117 90.947 50.7326C91.4717 50.5535 91.9544 50.2687 92.3658 49.8957C92.7772 49.5228 93.1087 49.0695 93.3401 48.5637C93.5678 48.066 93.6941 47.5276 93.7117 46.9803C93.7802 46.437 93.7401 45.8853 93.5933 45.3577C93.4443 44.8216 93.1882 44.3214 92.8407 43.8879C92.4931 43.4543 92.0614 43.0963 91.5715 42.836C91.0817 42.5757 90.5441 42.4185 89.9917 42.3743C89.4393 42.33 88.8838 42.3996 88.3591 42.5786ZM61.4136 70.4807C61.4136 73.7581 59.9456 74.9454 58.809 74.9593C57.6469 74.9734 56.2165 73.7877 56.2165 71.1171C56.2165 68.1853 57.6575 67.0027 58.8367 66.9516C60.0132 66.9006 61.4136 67.9527 61.4136 70.4712V70.4807ZM92.2623 59.3432C92.0823 59.8121 92.2778 60.3525 92.7395 60.5837C93.316 60.8726 93.9074 61.1305 94.5111 61.3565C94.5138 61.3575 94.517 61.3596 94.5202 61.364C94.5234 61.3686 94.5256 61.3745 94.5259 61.3812C94.6781 65.6819 97.5023 69.175 101.572 69.175C104.266 69.175 106.803 67.347 108.24 65.7287C108.564 65.3629 108.556 64.8316 108.27 64.468L107.567 63.5761C107.182 63.0882 106.48 63.0776 106.054 63.4599C105.752 63.7308 105.305 64.0895 104.786 64.3783C104.263 64.6694 103.701 64.8701 103.159 64.8701C102.481 64.8701 101.84 64.6959 101.322 64.3257C100.818 63.9661 100.399 63.399 100.179 62.5466C102.571 62.612 104.906 61.9802 106.657 60.7225C108.421 59.4556 109.589 57.5517 109.589 55.1348C109.589 52.1691 107.317 50.0145 104.24 50.0145C102.067 50.0145 100.059 50.999 98.4528 52.477C96.8466 53.955 95.6148 55.9498 94.9895 58.038C94.9872 58.0455 94.9832 58.0503 94.9797 58.0531C94.6659 57.9316 94.3556 57.8012 94.0492 57.6619C93.5423 57.4316 92.9205 57.6504 92.7058 58.1975C92.5647 58.5568 92.3875 59.0169 92.2623 59.3432ZM104.887 55.6911C104.887 56.9836 103.586 58.8929 100.255 58.9687C100.811 56.5283 102.128 55.1095 103.204 54.6395C103.749 54.4011 104.169 54.428 104.422 54.5718C104.656 54.7042 104.887 55.0157 104.887 55.6816V55.6911Z" stroke="black" stroke-linejoin="round"/>
</g>
<defs>
<filter id="filter0_d" x="1.58856" y="37.3462" width="110.793" height="65.3077" filterUnits="userSpaceOnUse" color-interpolation-filters="sRGB">
<feFlood flood-opacity="0" result="BackgroundImageFix"/>
<feColorMatrix in="SourceAlpha" type="matrix" values="0 0 0 0 0 0 0 0 0 0 0 0 0 0 0 0 0 0 127 0"/>
<feOffset dx="2" dy="1"/>
<feColorMatrix type="matrix" values="0 0 0 0 0 0 0 0 0 0 0 0 0 0 0 0 0 0 1 0"/>
<feBlend mode="normal" in2="BackgroundImageFix" result="effect1_dropShadow"/>
<feBlend mode="normal" in="SourceGraphic" in2="effect1_dropShadow" result="shape"/>
</filter>
<radialGradient id="paint0_radial" cx="0" cy="0" r="1" gradientUnits="userSpaceOnUse" gradientTransform="translate(26.6621 98.0986) scale(125.046 125.954)">
<stop stop-color="#FFB948"/>
<stop offset="0.32" stop-color="#EE2A7B"/>
<stop offset="1" stop-color="#002AFF"/>
</radialGradient>
</defs>
</svg>
