<svg width="832" height="882" viewBox="0 0 832 882" fill="none" xmlns="http://www.w3.org/2000/svg">
<g clip-path="url(#clip0_506_205)">
<path d="M147.091 234.305C133.773 222.812 132.551 202.468 144.347 188.719C156.143 174.97 176.502 173.074 189.82 184.495" fill="black"/>
<path d="M147.091 245.799C144.345 245.798 141.69 244.815 139.606 243.026C135.246 239.294 131.69 234.716 129.151 229.57C126.612 224.424 125.144 218.815 124.836 213.085C124.132 201.466 128.005 190.033 135.626 181.234C151.531 162.687 179.203 160.244 197.306 175.775C198.452 176.758 199.393 177.957 200.076 179.304C200.759 180.65 201.169 182.118 201.285 183.624C201.4 185.129 201.218 186.643 200.748 188.078C200.279 189.513 199.531 190.842 198.548 191.988C197.565 193.134 196.366 194.075 195.019 194.758C193.673 195.441 192.204 195.851 190.699 195.967C189.193 196.082 187.68 195.9 186.245 195.431C184.809 194.961 183.481 194.213 182.335 193.231C173.858 185.947 160.783 187.283 153.068 196.204C149.349 200.477 147.451 206.037 147.781 211.692C147.917 214.346 148.589 216.946 149.757 219.334C150.925 221.721 152.565 223.848 154.577 225.585C156.358 227.114 157.628 229.151 158.217 231.424C158.805 233.697 158.684 236.095 157.868 238.296C157.053 240.498 155.583 242.397 153.657 243.738C151.73 245.079 149.439 245.798 147.091 245.799Z" fill="black"/>
<path d="M56.0733 516.454C56.0733 516.454 15.3559 674.489 205.768 702.073C254.876 817.007 316.268 801.549 383.781 804.508C409.355 894.876 455.259 866.415 475.417 847.709C522.829 852.666 535.257 858.355 564.495 824.521C605.729 838.587 626.893 824.22 630.485 767.543C666.403 757.486 741.459 690.494 672.007 623.875C670.01 577.571 753.039 415.111 655.628 389.969C648.056 344.857 584.178 272.161 463.219 280.595C342.259 289.028 56.0733 516.454 56.0733 516.454Z" fill="#FEF3E6"/>
<path d="M563.849 318.466C506.379 116.483 390.002 55.2949 164.217 210.198C-30.8497 344.053 -18.1777 555.374 105.972 651.574C80.2826 619.551 95.7995 583.418 155.87 523.71C239.56 440.354 398.393 333.335 563.849 318.466Z" fill="black"/>
<path d="M349.084 763.233C351.788 763.777 354.449 764.521 357.043 765.459C359.696 766.452 362.27 767.643 364.744 769.023C369.787 771.889 374.329 775.557 378.192 779.884C381.969 784.166 385.194 788.906 387.79 793.992C390.267 798.822 392.403 803.819 394.183 808.948C397.703 818.832 400.203 828.573 403.536 836.733C404.932 840.425 406.833 843.906 409.183 847.077C409.7 847.767 410.26 848.37 410.806 848.974C411.094 849.247 411.352 849.548 411.654 849.807C411.956 850.066 412.214 850.324 412.602 850.64C414.045 851.84 415.583 852.921 417.2 853.873C420.42 855.823 423.939 857.231 427.616 858.039C431.315 858.898 435.127 859.164 438.909 858.829C446.781 858.126 454.274 855.129 460.46 850.209C467.141 844.746 472.537 837.879 476.264 830.096C480.352 821.634 483.368 812.696 485.244 803.488V803.402C485.518 802.233 486.203 801.201 487.173 800.494C488.144 799.786 489.336 799.451 490.533 799.549C491.73 799.646 492.852 800.17 493.696 801.024C494.539 801.879 495.048 803.009 495.129 804.207C495.834 814.978 494.588 825.787 491.451 836.115C488.122 847.176 482.048 857.214 473.793 865.294C464.95 873.841 453.61 879.343 441.423 880.997C428.926 882.653 416.236 880.046 405.404 873.598C402.725 871.979 400.183 870.144 397.804 868.11C397.215 867.622 396.582 867.047 395.95 866.444C395.318 865.84 394.729 865.237 394.14 864.633C393 863.407 391.93 862.117 390.936 860.769C387.414 855.807 384.635 850.357 382.689 844.592C380.951 839.535 379.484 834.389 378.293 829.176C377.086 824.22 376.066 819.421 374.902 814.81C372.617 805.572 369.859 797.052 365.304 789.854C363.052 786.222 360.272 782.945 357.058 780.128C353.641 777.195 349.889 774.677 345.88 772.628H345.779C344.72 772.065 343.898 771.141 343.462 770.024C343.026 768.906 343.005 767.669 343.404 766.538C343.802 765.406 344.592 764.455 345.632 763.857C346.671 763.258 347.891 763.052 349.069 763.276L349.084 763.233Z" fill="black"/>
<path d="M488.376 833.414C488.876 834.507 489.452 835.563 490.1 836.575C490.385 837.07 490.697 837.55 491.034 838.012C491.422 838.443 491.752 838.874 492.097 839.29C492.46 839.703 492.848 840.092 493.261 840.454C493.622 840.857 494.027 841.219 494.468 841.532C494.913 841.848 495.301 842.193 495.718 842.509L497.155 843.356C498.999 844.463 500.986 845.314 503.06 845.885C504.065 846.23 505.172 846.402 506.22 846.646C506.758 846.742 507.3 846.81 507.844 846.847C508.386 846.941 508.933 846.999 509.482 847.02C513.907 847.269 518.341 846.719 522.571 845.396C523.605 844.951 524.683 844.678 525.703 844.233C526.723 843.787 527.786 843.371 528.749 842.796C530.768 841.757 532.691 840.54 534.496 839.161C536.4 837.778 538.192 836.245 539.855 834.578C540.674 833.702 541.564 832.897 542.369 831.978C543.174 831.058 543.921 830.081 544.754 829.104C547.87 825.031 550.642 820.706 553.044 816.174C557.958 806.707 561.664 796.061 565.486 784.855V784.769C565.854 783.675 566.582 782.738 567.552 782.113C568.522 781.488 569.675 781.211 570.823 781.328C571.971 781.445 573.045 781.949 573.869 782.757C574.693 783.565 575.218 784.629 575.357 785.774C576.879 798.592 575.619 811.588 571.664 823.875C569.498 830.327 566.519 836.478 562.8 842.178C561.779 843.615 560.731 845.052 559.667 846.488C558.604 847.925 557.354 849.175 556.191 850.511C553.709 853.132 551.008 855.535 548.116 857.694C545.15 859.867 541.99 861.761 538.677 863.355C537.024 864.188 535.243 864.792 533.519 865.452C531.795 866.113 529.956 866.544 528.16 867.033C520.801 868.728 513.149 868.699 505.804 866.946C502.097 866.045 498.533 864.633 495.215 862.752C493.539 861.808 491.935 860.741 490.416 859.562C489.651 858.968 488.922 858.33 488.232 857.651C487.491 857.025 486.804 856.338 486.178 855.597C483.548 852.73 481.485 849.391 480.1 845.755C478.796 842.206 478.243 838.424 478.477 834.65C478.529 833.593 478.919 832.58 479.59 831.761C480.261 830.942 481.177 830.36 482.204 830.101C483.231 829.842 484.313 829.92 485.292 830.322C486.272 830.725 487.096 831.431 487.643 832.337L488.376 833.414Z" fill="black"/>
<path opacity="0.25" d="M620.729 757.156C611.749 780.818 595.888 814.939 574.624 800.256C564.452 818.516 564.567 824.507 564.567 824.507C564.567 824.507 609.393 849.951 621.074 813.129C632.755 776.306 620.729 757.156 620.729 757.156Z" fill="black"/>
<path opacity="0.25" d="M564.452 789.495C555.472 813.143 518.045 847.278 493.793 825.714C483.606 843.974 489.367 847.882 489.367 847.882C489.367 847.882 547.383 873.325 559.064 836.489C570.745 799.652 564.452 789.495 564.452 789.495Z" fill="black"/>
<path opacity="0.25" d="M484.511 805.96C477.715 832.696 430.921 858.355 402.775 834.995C386.568 848.212 391.511 843.313 391.511 843.313C391.511 843.313 439.397 890.35 463.851 860.453C488.304 830.555 484.511 805.96 484.511 805.96Z" fill="black"/>
<path d="M645.628 734.456C642.841 738.924 641.533 744.182 640.657 749.986C639.781 755.791 639.421 761.911 639.033 768.261C638.645 774.611 638.243 781.191 637.525 787.929C637.151 791.31 636.672 794.744 636.088 798.23C635.427 801.833 634.569 805.396 633.516 808.905C632.358 812.685 630.853 816.35 629.019 819.852C626.982 823.723 624.366 827.259 621.261 830.34C619.608 831.941 617.809 833.384 615.887 834.65C614.931 835.296 613.938 835.886 612.913 836.417L610.212 837.724C606.422 839.492 602.411 840.738 598.287 841.431C593.855 842.162 589.323 842.031 584.94 841.043C580.618 840.002 576.561 838.069 573.029 835.368C569.808 832.886 567.038 829.868 564.84 826.447C563.794 824.84 562.867 823.16 562.067 821.418C561.679 820.542 561.305 819.665 560.975 818.775C560.645 817.884 560.386 817.065 560.041 815.901C559.742 814.871 559.789 813.771 560.173 812.77C560.558 811.768 561.26 810.92 562.172 810.355C563.084 809.79 564.156 809.539 565.224 809.64C566.292 809.742 567.297 810.19 568.087 810.916L569.107 811.864C569.466 812.195 569.998 812.827 570.458 813.301C570.917 813.775 571.449 814.335 571.894 814.838C572.914 815.844 573.963 816.763 575.026 817.625C577.003 819.244 579.205 820.565 581.564 821.547C585.525 823.206 589.971 823.288 593.991 821.777C596.237 820.992 598.39 819.966 600.414 818.717L602.037 817.697C602.439 817.395 602.813 817.122 603.172 816.806C603.921 816.199 604.613 815.526 605.241 814.795C608.161 811.011 610.286 806.677 611.491 802.052C612.31 799.423 613.028 796.607 613.632 793.676C614.235 790.745 614.853 787.742 615.413 784.639C616.548 778.461 617.568 771.996 618.991 765.402C620.348 758.527 622.345 751.793 624.953 745.289C626.409 741.785 628.234 738.448 630.399 735.332C632.701 732.031 635.63 729.214 639.019 727.043C639.983 726.444 641.121 726.189 642.249 726.318C643.376 726.448 644.426 726.956 645.229 727.758C646.031 728.561 646.538 729.611 646.668 730.738C646.798 731.865 646.543 733.004 645.944 733.967L645.628 734.456Z" fill="black"/>
<path d="M608.043 452.45C685.627 459.95 624.077 561.35 635.916 611.72L579.021 614.924C579.021 614.924 509.568 459.777 608.043 452.45Z" fill="white"/>
<path d="M657.266 456.286C646.802 455.763 636.317 455.815 625.858 456.444C615.997 456.987 606.291 459.137 597.123 462.809C588.59 466.296 580.953 471.663 574.782 478.512C574.001 479.335 573.281 480.214 572.627 481.141C571.952 482.06 571.19 482.922 570.558 483.856L568.762 486.729C568.117 487.681 567.546 488.68 567.052 489.718C565.973 491.768 565.014 493.879 564.179 496.039L562.9 499.3L561.88 502.706C559.258 512.049 558.1 521.741 558.446 531.439L558.863 538.867L559.739 546.294L560.961 553.722L562.584 561.121C565.054 570.989 568.356 580.63 572.455 589.941C576.589 599.332 581.39 608.416 586.822 617.122V617.252C588.346 619.637 588.86 622.53 588.251 625.294C587.642 628.059 585.96 630.468 583.575 631.992C581.19 633.516 578.296 634.03 575.532 633.422C572.767 632.813 570.358 631.131 568.834 628.745C556.112 609.695 546.734 588.613 541.105 566.408L539.237 557.946L537.8 549.326L536.895 540.706L536.507 531.928C536.261 519.966 537.871 508.039 541.277 496.571C544.765 484.616 550.965 473.628 559.394 464.461C561.552 462.172 563.866 460.036 566.32 458.068L569.998 455.194L573.949 452.652C579.222 449.419 584.872 446.847 590.773 444.994C602.139 441.582 614.052 440.368 625.873 441.417C637.164 442.389 648.258 444.972 658.817 449.089C659.64 449.41 660.324 450.01 660.748 450.785C661.173 451.559 661.312 452.458 661.141 453.324C660.969 454.191 660.499 454.97 659.812 455.524C659.124 456.079 658.264 456.374 657.381 456.358L657.266 456.286Z" fill="black"/>
<path d="M633.732 623.386C631.79 623.383 629.907 622.724 628.387 621.517C626.867 620.309 625.799 618.624 625.355 616.735C620.973 598.173 625.355 574.884 629.924 550.231C635.456 520.549 641.188 489.89 629.206 473.785C623.732 466.415 614.494 462.148 600.988 460.697C598.751 460.411 596.715 459.261 595.316 457.492C593.918 455.723 593.268 453.476 593.507 451.233C593.745 448.991 594.853 446.931 596.593 445.496C598.333 444.061 600.566 443.365 602.813 443.557C621.117 445.511 634.651 452.177 643.042 463.484C659.521 485.623 653.099 520.075 646.864 553.391C642.798 575.214 638.588 597.756 642.137 612.784C642.659 615.007 642.277 617.346 641.076 619.288C639.874 621.23 637.951 622.616 635.729 623.142C635.075 623.3 634.405 623.382 633.732 623.386Z" fill="black"/>
<path d="M578.963 625.814L578.632 625.182C577.268 625.814 578.963 625.814 578.963 625.814Z" fill="black"/>
<path d="M613.531 556.595C616.807 535.49 585.744 539.7 587.957 521.425C590.299 502.188 625.456 513.94 614.451 482.362C610.459 473.547 603.561 466.37 594.911 462.033C508.174 468.283 573.992 616.275 578.633 625.082C580.457 624.09 587.799 621.619 612.267 615.427C607.985 597.239 610.428 576.752 613.531 556.595Z" fill="black"/>
<path d="M560.228 637.71C570.327 628.986 581.57 621.683 593.646 616.002C606.288 609.973 620.024 606.581 634.019 606.031C641.344 605.857 648.658 606.689 655.757 608.502C663.027 610.394 669.954 613.414 676.288 617.453C679.482 619.486 682.495 621.788 685.297 624.334C688.117 626.851 690.726 629.595 693.098 632.538C697.801 638.42 701.589 644.978 704.333 651.991C709.718 665.913 711.053 681.074 708.184 695.723C706.795 702.906 704.472 709.875 701.273 716.454C698.089 722.916 694.143 728.974 689.521 734.499C684.945 739.885 679.795 744.756 674.162 749.024C668.587 753.334 662.955 756.552 658.358 759.899C653.645 763.249 649.365 767.167 645.614 771.565C641.669 776.249 637.986 781.146 634.579 786.234C633.887 787.255 632.84 787.983 631.642 788.277C630.443 788.571 629.179 788.411 628.092 787.826C627.005 787.242 626.174 786.275 625.759 785.113C625.343 783.951 625.374 782.677 625.844 781.536C628.315 775.317 631.299 769.315 634.766 763.592C638.46 757.614 642.939 752.158 648.085 747.372C653.243 742.602 658.372 738.867 662.452 734.901C666.633 731.002 670.425 726.705 673.774 722.072C676.996 717.535 679.722 712.665 681.906 707.547C683.98 702.523 685.451 697.272 686.288 691.902C687.996 681.291 686.851 670.417 682.969 660.395C682.03 657.92 680.906 655.518 679.607 653.212C678.346 650.936 676.904 648.764 675.297 646.718C673.721 644.657 671.971 642.734 670.067 640.971C668.188 639.178 666.17 637.535 664.033 636.058C659.695 633.066 654.942 630.728 649.924 629.119C647.358 628.297 644.736 627.658 642.079 627.208C639.373 626.712 636.637 626.391 633.89 626.245C622.277 625.866 610.689 627.554 599.666 631.231C588.172 634.707 577.038 640.066 565.932 645.87C564.845 646.434 563.589 646.579 562.402 646.278C561.215 645.977 560.18 645.251 559.493 644.238C558.806 643.225 558.514 641.995 558.673 640.781C558.832 639.567 559.432 638.454 560.357 637.653L560.228 637.71Z" fill="black"/>
<path d="M155.051 601.764C159 602.198 162.885 603.085 166.631 604.408C170.467 605.802 174.112 607.675 177.478 609.982C184.076 614.731 189.626 620.785 193.785 627.768C202.09 641.345 206.4 655.956 210.48 670.064C212.478 677.147 214.23 684.187 216.098 691.111C217.966 698.036 219.862 704.875 221.845 711.555C225.983 724.873 230.882 737.617 237.649 748.665C244.116 759.474 253.121 768.543 263.884 775.085C266.556 776.675 269.314 778.114 272.146 779.395L276.801 781.378L281.499 783.217C287.735 785.619 294.123 787.606 300.622 789.165C307.134 790.692 313.731 791.834 320.377 792.584C327.101 793.374 333.954 793.69 341.138 794.021C348.863 794.224 356.569 794.895 364.212 796.032C368.566 796.748 372.836 797.903 376.956 799.48C381.304 801.188 385.402 803.474 389.14 806.275C391.538 808.056 393.149 810.699 393.631 813.647C394.114 816.594 393.43 819.613 391.725 822.065C390.02 824.517 387.428 826.21 384.497 826.783C381.566 827.357 378.526 826.767 376.022 825.139L375.778 824.981C371.141 822.147 365.917 820.412 360.506 819.91C354.457 819.162 347.575 819.019 340.276 818.875C325.722 818.631 309.846 817.553 294.688 813.761C287.108 811.928 279.662 809.576 272.404 806.721L267.031 804.494L261.744 802.123C258.012 800.356 254.386 798.374 250.882 796.19C243.826 791.805 237.394 786.49 231.759 780.387C228.989 777.356 226.394 774.171 223.986 770.847C221.644 767.514 219.431 764.109 217.463 760.632C209.547 746.668 204.733 731.899 201.142 717.331C199.317 710.061 197.851 702.806 196.487 695.623L192.478 674.331C191.171 667.32 189.763 660.41 187.981 653.743C186.382 647.178 184.174 640.776 181.386 634.621C178.806 628.734 175.085 623.417 170.438 618.976C165.621 614.601 159.851 611.409 153.585 609.652H153.513C152.564 609.355 151.758 608.717 151.252 607.862C150.745 607.006 150.573 605.993 150.77 605.018C150.966 604.043 151.517 603.175 152.315 602.582C153.114 601.989 154.104 601.713 155.094 601.808L155.051 601.764Z" fill="black"/>
<path d="M73.2137 607.138L75.8429 612.065C76.7193 613.703 77.5383 615.398 78.5153 616.95C80.4261 620.111 82.2364 623.358 84.3628 626.346C88.3568 632.431 92.8554 638.169 97.8108 643.5C107.538 654.057 119.257 662.587 132.293 668.599C138.998 671.648 145.912 674.217 152.982 676.285C160.166 678.454 167.708 680.293 175.524 682.391C179.447 683.483 183.427 684.56 187.521 685.983C191.787 687.381 195.938 689.111 199.935 691.155C204.3 693.385 208.349 696.187 211.975 699.487C215.689 702.978 218.843 707.019 221.328 711.469C222.684 713.873 223.049 716.711 222.345 719.38C221.642 722.048 219.926 724.338 217.561 725.761C215.197 727.185 212.37 727.63 209.683 727.003C206.995 726.376 204.658 724.725 203.167 722.402L202.736 721.727C201.325 719.306 199.568 717.104 197.521 715.19C195.275 713.223 192.783 711.557 190.107 710.234C184.36 707.36 177.335 705.291 169.993 703.338C162.651 701.384 154.735 699.574 146.818 697.275C138.723 694.977 130.805 692.096 123.126 688.655C107.4 681.56 93.227 671.435 81.4175 658.858C75.5724 652.689 70.2524 646.043 65.5127 638.989C63.0559 635.555 60.9582 631.935 58.7744 628.357C57.6393 626.59 56.7198 624.737 55.7141 622.912L52.74 617.424C51.9642 616.094 51.4636 614.622 51.2678 613.095C51.0721 611.568 51.1852 610.017 51.6004 608.534C52.0156 607.051 52.7245 605.667 53.6851 604.464C54.6456 603.26 55.8381 602.262 57.1918 601.529C58.5455 600.795 60.0329 600.341 61.5656 600.193C63.0982 600.045 64.645 600.207 66.1139 600.669C67.5829 601.13 68.9441 601.882 70.1168 602.88C71.2896 603.878 72.2499 605.101 72.9407 606.477V606.563L73.2137 607.138Z" fill="black"/>
<path d="M369.73 486.916C354.859 482.477 339.817 479.388 324.918 479.086C317.565 478.839 310.207 479.321 302.95 480.523C295.868 481.651 288.937 483.579 282.289 486.27C269.324 491.456 258.001 500.048 249.517 511.139C245.378 516.603 242.022 522.618 239.546 529.011C237.054 535.473 235.426 542.236 234.704 549.124C233.948 556.143 234.011 563.225 234.891 570.229C235.277 573.788 235.882 577.319 236.701 580.803L237.305 583.389L238.037 585.961C238.497 587.685 239.086 589.38 239.647 591.075C244.33 604.681 252.089 617.625 260.781 630.469C265.163 636.877 269.689 643.399 274.287 649.893C278.884 656.387 283.482 663.096 287.72 670.107C296.341 683.985 303.682 699.329 307.016 715.721C307.287 716.957 307.077 718.249 306.429 719.335C305.781 720.421 304.744 721.219 303.528 721.567C302.312 721.915 301.009 721.786 299.885 721.207C298.76 720.629 297.899 719.643 297.476 718.451C294.797 711.35 291.524 704.487 287.691 697.935C283.771 691.362 279.488 685.011 274.861 678.914C270.192 672.765 265.293 666.673 260.293 660.567C255.293 654.461 250.135 648.313 245.192 641.891C240.048 635.356 235.257 628.55 230.839 621.504C226.307 614.213 222.46 606.518 219.345 598.517C218.584 596.477 217.779 594.451 217.147 592.354L216.17 589.208L215.308 586.018C214.192 581.798 213.309 577.52 212.665 573.203C211.341 564.45 211.095 555.567 211.932 546.754C213.564 528.683 220.407 511.475 231.63 497.217C237.245 490.147 243.878 483.95 251.313 478.828C258.653 473.774 266.661 469.765 275.106 466.918C291.829 461.171 309.587 460.194 326.311 462.363C342.846 464.662 358.843 469.867 373.566 477.736C374.659 478.316 375.497 479.281 375.918 480.445C376.338 481.608 376.312 482.886 375.842 484.031C375.373 485.176 374.495 486.105 373.378 486.638C372.262 487.171 370.987 487.27 369.801 486.916H369.73Z" fill="black"/>
<path d="M541.723 429.621C552.255 417.056 564.467 406 578.015 396.765L580.601 395.012L583.288 393.417C585.098 392.354 586.894 391.262 588.719 390.228C592.453 388.215 596.289 386.397 600.213 384.783C604.196 383.148 608.269 381.738 612.411 380.559L618.804 379.122C620.945 378.634 623.114 378.433 625.341 378.088C634.359 376.97 643.504 377.457 652.352 379.525C654.615 380.022 656.842 380.67 659.019 381.464L662.294 382.671C662.84 382.886 663.386 383.073 663.918 383.303L665.498 384.064C669.721 386.063 673.739 388.469 677.495 391.248C684.903 396.776 691.258 403.588 696.259 411.361C701.058 418.935 704.85 427.102 707.538 435.656L709.362 441.991C709.923 444.103 710.325 446.301 710.799 448.37L711.474 451.574L711.948 454.778C712.25 456.904 712.624 459.088 712.854 461.185C713.198 465.495 713.701 469.805 713.673 474.015L713.773 480.408L713.558 486.758C713.558 491.068 712.969 495.163 712.638 499.372C712.494 501.47 712.121 503.567 711.848 505.679C711.575 507.791 711.288 509.874 710.928 511.972L709.678 518.193L709.032 521.31L708.27 524.371L706.719 530.505L704.923 536.525C704.362 538.55 703.701 540.504 703.041 542.473C702.38 544.441 701.748 546.423 701.044 548.334C699.607 552.17 698.17 556.006 696.733 559.727C693.86 567.198 690.986 574.482 688.472 581.536C686.021 588.385 684.058 595.4 682.596 602.526C681.372 609.439 680.818 616.453 680.943 623.473V623.918C681.015 625.427 680.789 626.936 680.277 628.358C679.766 629.78 678.98 631.087 677.963 632.205C676.946 633.323 675.719 634.23 674.352 634.874C672.985 635.517 671.505 635.886 669.995 635.957C668.486 636.029 666.977 635.803 665.555 635.291C664.133 634.78 662.826 633.994 661.708 632.977C660.59 631.96 659.683 630.734 659.039 629.367C658.395 628 658.027 626.519 657.955 625.01C657.236 616.192 657.496 607.321 658.731 598.561C660.118 590.087 662.179 581.737 664.895 573.591C667.438 565.603 670.426 558.176 673.128 550.791C675.829 543.407 678.415 536.28 680.656 529.111L682.265 523.738L683.702 518.336L684.392 515.65L684.952 512.935L686.058 507.504L686.935 502.059C687.208 500.22 687.581 498.424 687.725 496.571C688.07 492.879 688.63 489.172 688.716 485.494L689.018 479.963V474.475C689.119 470.782 688.716 467.191 688.587 463.542C688.443 461.746 688.185 459.964 687.998 458.168L687.696 455.482L687.222 452.853C686.877 451.1 686.619 449.318 686.231 447.594L684.923 442.465C681.03 429.033 674.421 416.533 664.22 408.287C659.15 404.125 653.325 400.979 647.065 399.02C640.551 397.053 633.745 396.231 626.95 396.592C625.198 396.736 623.445 396.707 621.692 396.966L616.405 397.727C612.848 398.43 609.332 399.327 605.873 400.414C602.353 401.391 598.934 402.856 595.443 404.149C593.747 404.896 592.052 405.715 590.342 406.491L587.785 407.669L585.299 409.005C571.741 416.351 559.027 425.158 547.383 435.268C546.611 435.899 545.632 436.221 544.636 436.171C543.64 436.121 542.698 435.703 541.992 434.998C541.287 434.293 540.869 433.351 540.819 432.355C540.769 431.358 541.091 430.379 541.723 429.607V429.621Z" fill="black"/>
<path d="M311.038 625.886C312.375 624.55 313.581 623.53 314.875 622.395C316.168 621.26 317.489 620.283 318.84 619.277C321.512 617.266 324.328 615.47 327.202 613.717C333.022 610.29 339.144 607.405 345.492 605.097C358.598 600.239 372.602 598.279 386.539 599.351C393.679 599.925 400.715 601.417 407.473 603.79C409.168 604.35 410.806 605.112 412.473 605.773C413.292 606.132 414.125 606.448 414.93 606.836L417.3 608.086L419.671 609.321C420.47 609.716 421.243 610.162 421.984 610.657L426.452 613.531C427.889 614.508 429.326 615.671 430.648 616.735L432.702 618.372C433.392 618.918 433.995 619.565 434.627 620.154C435.892 621.361 437.156 622.539 438.392 623.76C439.627 624.981 440.676 626.332 441.797 627.639C444.01 630.227 446.049 632.957 447.903 635.814C449.701 638.655 451.346 641.59 452.831 644.606C453.368 645.636 453.531 646.82 453.294 647.957C453.057 649.094 452.434 650.113 451.53 650.843C450.626 651.572 449.498 651.966 448.336 651.958C447.175 651.95 446.052 651.54 445.159 650.798L444.929 650.597C435.403 642.667 426.064 635.713 416.05 630.814C411.111 628.458 405.977 626.536 400.706 625.067C399.37 624.766 398.062 624.421 396.755 624.076C395.447 623.731 394.082 623.588 392.761 623.315C391.439 623.042 390.074 622.898 388.723 622.711L386.698 622.438L384.643 622.295C373.374 621.494 362.049 622.268 350.994 624.593C345.247 625.699 339.5 627.122 333.753 628.745C330.88 629.593 328.006 630.44 325.133 631.374L316.584 634.248L316.196 634.377C315.115 634.741 313.942 634.727 312.869 634.339C311.797 633.95 310.887 633.209 310.29 632.236C309.693 631.264 309.443 630.118 309.582 628.986C309.72 627.853 310.239 626.801 311.053 626.001L311.038 625.886Z" fill="black"/>
<path d="M642.381 385.961C640.844 378.188 636.965 371.278 632.611 364.411C630.471 360.963 628.071 357.572 625.643 354.196C623.215 350.82 620.686 347.458 618.057 344.139C612.87 337.473 607.339 330.922 601.836 324.342L593.532 314.457C592.095 312.776 590.744 311.167 589.394 309.486C588.043 307.805 586.607 306.11 585.414 304.573L585.127 304.185C583.305 301.96 582.384 299.133 582.545 296.262C582.706 293.392 583.937 290.686 585.995 288.678C588.054 286.67 590.79 285.507 593.664 285.417C596.538 285.328 599.341 286.319 601.52 288.195C603.488 289.804 605.155 291.284 606.879 292.893C608.603 294.502 610.227 296.111 611.865 297.749C615.126 301.039 618.229 304.472 621.218 308.021C627.242 315.167 632.708 322.766 637.568 330.749C640.059 334.809 642.328 339 644.364 343.306C646.469 347.7 648.236 352.248 649.651 356.911C651.134 361.723 652.069 366.687 652.438 371.709C652.866 376.967 652.13 382.255 650.283 387.196C649.941 388.008 649.348 388.688 648.592 389.14C647.836 389.591 646.956 389.789 646.08 389.706C645.203 389.623 644.376 389.262 643.719 388.676C643.061 388.091 642.608 387.31 642.424 386.449L642.381 385.961Z" fill="black"/>
<path d="M567.814 697.217C551.852 656.013 510.832 647.077 497.772 713.653C497.478 715.164 497.642 716.728 498.244 718.144C498.845 719.561 499.857 720.765 501.148 721.603C502.44 722.44 503.952 722.872 505.491 722.843C507.03 722.814 508.525 722.325 509.784 721.44L529.582 707.461C532.876 705.14 536.706 703.694 540.712 703.26C544.718 702.825 548.769 703.415 552.484 704.975L557.642 707.145C559.04 707.732 560.58 707.895 562.07 707.612C563.56 707.329 564.934 706.613 566.019 705.553C567.105 704.494 567.854 703.138 568.173 701.656C568.492 700.173 568.367 698.629 567.814 697.217Z" fill="white"/>
<path d="M505.344 731.482C502.936 731.475 500.559 730.936 498.382 729.905C496.206 728.874 494.283 727.375 492.752 725.516C491.221 723.657 490.119 721.484 489.524 719.15C488.929 716.816 488.856 714.38 489.31 712.015C498.318 666.041 518.993 657.507 530.502 656.502C548.605 654.907 566.42 669.676 575.86 694.143C577.021 697.132 577.276 700.396 576.594 703.53C575.913 706.663 574.324 709.526 572.026 711.762C569.728 713.999 566.823 715.51 563.672 716.106C560.522 716.703 557.265 716.36 554.308 715.118L549.136 712.949C546.772 711.945 544.19 711.565 541.637 711.844C539.083 712.123 536.645 713.053 534.553 714.544L514.755 728.508C512 730.448 508.713 731.487 505.344 731.482ZM533.188 673.584C532.8 673.584 532.412 673.584 532.024 673.584C521.134 674.547 511.738 689.229 506.68 713.021L524.611 700.364C529.09 697.182 534.31 695.2 539.773 694.606C545.235 694.013 550.759 694.827 555.817 696.973L558.978 698.295C552.671 683.281 542.613 673.584 533.188 673.584Z" fill="black"/>
<path d="M529.682 673.785C536.996 677.075 540.271 701.269 540.271 701.269L497.614 720.635C497.614 720.635 502.241 689.545 502.772 688.597C513.878 668.986 529.682 673.785 529.682 673.785Z" fill="black"/>
<path d="M55.5561 622.769C35.2261 584.452 21.6919 553.075 12.9278 524.026C1.70679 486.816 -1.89944 452.723 1.90794 419.78C10.9307 341.553 62.4812 269.848 159.519 200.543C264.287 125.707 343.566 96.7431 409.024 109.386C486.494 124.356 532.8 196.793 581.822 273.469L585.443 279.216L566.09 291.6L562.455 285.853C514.151 210.298 472.442 145.059 404.671 131.956C346.627 120.75 270.809 149.297 172.881 219.249C81.4319 284.56 32.9848 351.021 24.7378 422.424C16.965 489.948 46.2172 556.035 75.8717 612.065L55.5561 622.769Z" fill="black"/>
<path d="M162.22 231.834C153.384 249.778 144.979 267.751 140.899 286.227C136.818 304.702 137.091 323.58 140.899 342.372C144.706 361.164 151.502 379.539 159.102 397.77C166.703 416.002 175.481 433.975 183.829 452.364C184.232 453.209 184.303 454.174 184.029 455.068C183.754 455.963 183.154 456.722 182.346 457.195C181.539 457.669 180.583 457.821 179.669 457.624C178.754 457.426 177.947 456.893 177.407 456.128C171.387 447.954 165.769 439.506 160.41 430.843C157.709 426.533 155.223 422.093 152.637 417.697C150.051 413.301 147.738 408.747 145.453 404.164C136.143 385.946 128.299 366.594 124.017 345.849C121.854 335.395 120.89 324.728 121.144 314.055C121.418 303.333 123.158 292.699 126.316 282.448C127.842 277.377 129.669 272.402 131.79 267.55C133.959 262.766 136.229 258.053 138.787 253.528C143.84 244.55 149.565 235.968 155.913 227.854C156.489 227.137 157.308 226.656 158.215 226.504C159.123 226.351 160.054 226.537 160.833 227.027C161.612 227.517 162.184 228.275 162.44 229.159C162.695 230.043 162.617 230.99 162.22 231.82V231.834Z" fill="#4D4D4D"/>
<path d="M629.177 376.953C629.348 378.131 629.778 379.256 630.434 380.249C631.091 381.241 631.959 382.076 632.977 382.694C633.994 383.312 635.135 383.697 636.319 383.822C637.503 383.948 638.699 383.809 639.823 383.418C721.215 355.273 772.536 285.724 795.797 234.003C897.188 8.44489 656.217 -81.563 483.434 138.637C414.154 232.653 379.054 306.872 249.603 419.953C164.591 494.215 112.365 545.705 66.9495 614.694C184.447 415.643 605.557 207.655 629.177 376.953Z" fill="#333333"/>
<path d="M66.9352 626.174C64.9107 626.17 62.9231 625.632 61.1733 624.614C59.4235 623.596 57.9737 622.134 56.9705 620.375C55.9674 618.617 55.4465 616.625 55.4605 614.601C55.4745 612.576 56.023 610.591 57.0504 608.847C72.2512 583.088 92.538 557.127 116.431 531.64C150.583 493.309 190.783 456.057 242.046 411.275C340.19 325.549 383.537 262.335 429.412 195.443C443.42 175.013 457.903 153.894 474.181 131.813C474.24 131.716 474.307 131.624 474.382 131.539C520.904 72.2477 575.429 30.8571 632.08 11.8211C684.363 -5.73513 734.089 -2.78991 771.904 20.1108C822.319 50.5971 857.821 124.011 806.271 238.701C793.872 266.286 745.496 359.052 643.574 394.279C640.846 395.226 637.943 395.557 635.073 395.249C632.203 394.941 629.436 394.002 626.972 392.498C624.508 390.994 622.407 388.963 620.821 386.551C619.235 384.139 618.203 381.406 617.798 378.548C613.905 350.633 597.842 334.241 568.705 328.422C513.059 317.302 415.102 347.444 313.05 407.094C243.08 447.982 180.625 496.916 134.103 546.28C112.988 569.634 93.7429 594.614 76.547 620.987C75.5008 622.581 74.0745 623.89 72.3966 624.795C70.7186 625.7 68.8418 626.174 66.9352 626.174ZM492.586 145.59C476.58 167.313 462.242 188.216 448.377 208.445C409.585 265.036 372.546 319.069 303.61 385.918C403.45 327.804 507.629 292.764 573.216 305.881C610.571 313.337 633.559 335.893 639.895 371.192C730.511 337.976 774.016 254.39 785.309 229.277C823.282 144.786 813.584 72.1759 760.022 39.7932C697.883 2.29586 586.089 26.5039 492.586 145.59Z" fill="black"/>
<path opacity="0.25" d="M157.278 610.456C189.605 639.808 151.085 684.905 115.957 660.955C133.514 696.082 205.768 702.073 205.768 702.073C205.768 702.073 200.38 617.654 157.278 610.456Z" fill="black"/>
<path opacity="0.25" d="M346.684 773.131C353.868 779.913 344.687 798.273 309.559 791.09C339.903 811.045 384.614 811.85 384.614 811.85L360.664 773.519L346.684 773.131Z" fill="black"/>
<path d="M654.565 179.611C665.469 176.637 676.475 174.295 687.394 172.025L720.066 165.517C730.899 163.362 741.617 161.207 752.307 158.65C762.996 156.092 773.427 153.406 783.254 149.254H783.426C784.24 148.908 785.149 148.859 785.995 149.116C786.841 149.373 787.569 149.92 788.052 150.66C788.535 151.4 788.743 152.287 788.638 153.164C788.533 154.042 788.122 154.855 787.478 155.46C786.372 156.495 785.222 157.5 784.059 158.491L780.438 161.192C779.202 162.04 777.938 162.845 776.674 163.663L772.809 165.89C767.635 168.677 762.278 171.111 756.775 173.174C745.934 177.178 734.787 180.296 723.442 182.499C712.221 184.727 700.873 186.267 689.463 187.11C678.041 188.037 666.562 188.037 655.139 187.11C654.255 187.032 653.426 186.645 652.798 186.017C652.171 185.388 651.785 184.559 651.707 183.675C651.63 182.79 651.867 181.907 652.376 181.179C652.886 180.452 653.635 179.927 654.493 179.697L654.565 179.611Z" fill="black"/>
<path d="M644.852 229.09C655.757 226.116 666.763 223.774 677.682 221.519L710.353 214.996C721.201 212.841 731.905 210.686 742.594 208.129C753.283 205.572 763.714 202.885 773.542 198.733H773.714C774.527 198.387 775.437 198.338 776.282 198.595C777.128 198.852 777.856 199.399 778.34 200.139C778.823 200.879 779.03 201.766 778.925 202.644C778.82 203.521 778.41 204.334 777.766 204.939C776.659 205.974 775.51 206.979 774.346 207.971L770.726 210.686C769.49 211.519 768.226 212.324 766.976 213.143L763.111 215.37C757.93 218.154 752.569 220.587 747.062 222.654C736.223 226.661 725.075 229.779 713.73 231.978C702.508 234.207 691.161 235.747 679.751 236.589C668.333 237.523 656.859 237.523 645.441 236.589C644.556 236.514 643.725 236.128 643.096 235.501C642.466 234.874 642.078 234.045 641.999 233.16C641.92 232.275 642.156 231.39 642.664 230.662C643.173 229.933 643.922 229.407 644.78 229.176L644.852 229.09Z" fill="black"/>
<path d="M668.774 264.547C671.432 253.657 674.521 242.896 677.596 232.236L686.748 200.385C689.621 189.768 692.495 179.18 695.153 168.534C697.811 157.888 699.923 147.214 702.193 136.266V136.137C702.376 135.274 702.855 134.501 703.547 133.954C704.24 133.408 705.102 133.12 705.984 133.142C706.867 133.164 707.713 133.495 708.377 134.076C709.042 134.657 709.481 135.452 709.621 136.324C711.231 147.863 711.371 159.56 710.037 171.134C708.658 182.584 706.415 193.914 703.328 205.026C700.218 216.053 696.378 226.862 691.834 237.38C687.352 247.962 681.898 258.105 675.541 267.679C675.043 268.411 674.304 268.944 673.453 269.187C672.602 269.429 671.693 269.366 670.884 269.006C670.075 268.647 669.418 268.016 669.027 267.222C668.636 266.428 668.537 265.522 668.745 264.662L668.774 264.547Z" fill="black"/>
<path d="M717.767 255.396C720.094 244.434 722.925 233.601 725.784 222.884L734.519 190.874C737.393 180.243 740.266 169.611 743.068 158.966C745.87 148.32 748.355 137.645 751.243 126.784V126.698C751.469 125.841 751.989 125.092 752.711 124.579C753.434 124.067 754.313 123.825 755.196 123.895C756.079 123.965 756.909 124.343 757.542 124.963C758.174 125.583 758.569 126.406 758.657 127.287C759.671 138.773 759.421 150.336 757.91 161.767C756.411 173.118 754.146 184.355 751.128 195.4C748.108 206.387 744.428 217.181 740.108 227.725C735.847 238.346 730.66 248.572 724.606 258.283C724.066 259.127 723.214 259.722 722.236 259.937C721.258 260.153 720.235 259.971 719.39 259.433C718.748 259.014 718.246 258.412 717.949 257.705C717.652 256.999 717.574 256.219 717.724 255.467L717.767 255.396Z" fill="black"/>
</g>
<defs>
<clipPath id="clip0_506_205">
<rect width="831" height="881" fill="white" transform="translate(0.5 0.5)"/>
</clipPath>
</defs>
</svg>
