<svg width="128" height="128" viewBox="0 0 128 128" fill="none" xmlns="http://www.w3.org/2000/svg">
<g clip-path="url(#clip0_506_205)">
<path d="M40.8697 46.221C39.7241 45.2324 39.619 43.4825 40.6336 42.2999C41.6482 41.1173 43.3994 40.9541 44.545 41.9366" fill="black"/>
<path d="M40.8696 47.2096C40.6333 47.2096 40.4049 47.125 40.2257 46.9711C39.8507 46.6501 39.5448 46.2564 39.3264 45.8137C39.108 45.371 38.9818 44.8886 38.9553 44.3958C38.8947 43.3963 39.2278 42.4129 39.8834 41.6561C41.2514 40.0607 43.6316 39.8506 45.1888 41.1865C45.2874 41.271 45.3683 41.3741 45.4271 41.49C45.4858 41.6058 45.5211 41.7321 45.5311 41.8616C45.541 41.9911 45.5253 42.1213 45.4849 42.2447C45.4445 42.3682 45.3802 42.4824 45.2957 42.581C45.2111 42.6796 45.108 42.7606 44.9921 42.8193C44.8763 42.878 44.75 42.9134 44.6205 42.9233C44.491 42.9332 44.3608 42.9176 44.2374 42.8772C44.1139 42.8368 43.9996 42.7725 43.901 42.6879C43.1719 42.0614 42.0473 42.1763 41.3837 42.9437C41.0637 43.3112 40.9005 43.7895 40.9289 44.2759C40.9406 44.5042 40.9984 44.7278 41.0989 44.9332C41.1993 45.1386 41.3403 45.3215 41.5134 45.4709C41.6666 45.6024 41.7759 45.7777 41.8265 45.9732C41.8771 46.1686 41.8667 46.3749 41.7966 46.5643C41.7264 46.7536 41.6 46.917 41.4343 47.0324C41.2686 47.1477 41.0715 47.2096 40.8696 47.2096V47.2096Z" fill="black"/>
<path d="M33.0406 70.4903C33.0406 70.4903 29.5383 84.0837 45.9167 86.4564C50.1408 96.3426 55.4215 95.0129 61.2286 95.2674C63.4284 103.04 67.3769 100.592 69.1107 98.9834C73.189 99.4097 74.2579 99.8991 76.7729 96.9889C80.3197 98.1987 82.1401 96.9629 82.449 92.0878C85.5386 91.2228 91.9946 85.4604 86.0206 79.7301C85.8488 75.7472 92.9906 61.7731 84.6117 59.6105C83.9604 55.7302 78.4659 49.4772 68.0615 50.2026C57.6571 50.928 33.0406 70.4903 33.0406 70.4903Z" fill="#FEF3E6"/>
<path d="M76.7173 53.4601C71.774 36.0864 61.7638 30.8233 42.3428 44.1474C25.5639 55.661 26.6539 73.838 37.3327 82.1127C35.1231 79.3582 36.4578 76.2502 41.6248 71.1143C48.8235 63.9444 62.4855 54.7391 76.7173 53.4601Z" fill="black"/>
<path d="M58.2442 91.7171C58.4769 91.7639 58.7057 91.8279 58.9289 91.9086C59.1571 91.994 59.3785 92.0964 59.5913 92.2151C60.025 92.4616 60.4157 92.7772 60.748 93.1493C61.0729 93.5177 61.3502 93.9254 61.5735 94.3629C61.7866 94.7783 61.9704 95.2082 62.1235 95.6493C62.4263 96.4995 62.6413 97.3374 62.928 98.0393C63.0481 98.3568 63.2115 98.6563 63.4137 98.929C63.4582 98.9883 63.5064 99.0402 63.5533 99.0921C63.5781 99.1156 63.6003 99.1416 63.6262 99.1638C63.6522 99.1861 63.6744 99.2083 63.7078 99.2355C63.8319 99.3387 63.9642 99.4317 64.1033 99.5135C64.3803 99.6813 64.683 99.8024 64.9993 99.8719C65.3174 99.9458 65.6453 99.9687 65.9706 99.9399C66.6478 99.8794 67.2923 99.6216 67.8244 99.1984C68.399 98.7285 68.8631 98.1378 69.1838 97.4683C69.5354 96.7405 69.7948 95.9717 69.9562 95.1797V95.1723C69.9797 95.0717 70.0386 94.9829 70.1221 94.9221C70.2056 94.8613 70.3081 94.8324 70.4111 94.8408C70.514 94.8492 70.6106 94.8942 70.6831 94.9678C70.7557 95.0413 70.7994 95.1384 70.8064 95.2415C70.8671 96.168 70.7599 97.0978 70.49 97.9861C70.2037 98.9375 69.6812 99.8009 68.9712 100.496C68.2106 101.231 67.2351 101.704 66.1869 101.847C65.112 101.989 64.0204 101.765 63.0887 101.21C62.8583 101.071 62.6396 100.913 62.4349 100.738C62.3842 100.696 62.3299 100.647 62.2755 100.595C62.2211 100.543 62.1704 100.491 62.1198 100.439C62.0217 100.334 61.9297 100.223 61.8442 100.107C61.5412 99.6799 61.3022 99.2111 61.1348 98.7152C60.9853 98.2803 60.8591 97.8377 60.7567 97.3893C60.6528 96.9629 60.5651 96.5502 60.465 96.1535C60.2685 95.3589 60.0312 94.6261 59.6395 94.007C59.4457 93.6945 59.2066 93.4126 58.9301 93.1703C58.6363 92.918 58.3135 92.7015 57.9686 92.5253H57.96C57.8689 92.4768 57.7982 92.3973 57.7607 92.3012C57.7232 92.2051 57.7214 92.0987 57.7556 92.0014C57.7899 91.904 57.8579 91.8222 57.9473 91.7707C58.0367 91.7193 58.1416 91.7015 58.243 91.7208L58.2442 91.7171Z" fill="black"/>
<path d="M70.2256 97.7538C70.2686 97.8478 70.3181 97.9387 70.3739 98.0257C70.3985 98.0683 70.4253 98.1095 70.4542 98.1492C70.4876 98.1863 70.516 98.2234 70.5457 98.2592C70.5769 98.2947 70.6103 98.3282 70.6458 98.3593C70.6768 98.394 70.7117 98.4251 70.7496 98.452C70.7879 98.4792 70.8213 98.5089 70.8571 98.536L70.9807 98.609C71.1394 98.7042 71.3102 98.7773 71.4886 98.8265C71.5751 98.8561 71.6703 98.8709 71.7605 98.8919C71.8067 98.9002 71.8533 98.906 71.9002 98.9092C71.9467 98.9173 71.9938 98.9223 72.041 98.9241C72.4217 98.9455 72.803 98.8982 73.1669 98.7844C73.2559 98.7461 73.3485 98.7227 73.4363 98.6843C73.524 98.646 73.6155 98.6102 73.6983 98.5608C73.872 98.4714 74.0374 98.3667 74.1926 98.2481C74.3565 98.1291 74.5106 97.9973 74.6536 97.8539C74.724 97.7785 74.8007 97.7093 74.8699 97.6302C74.9391 97.5511 75.0033 97.4671 75.075 97.3831C75.343 97.0327 75.5815 96.6607 75.7881 96.2709C76.2107 95.4565 76.5296 94.5408 76.8583 93.5769V93.5695C76.8899 93.4754 76.9526 93.3949 77.036 93.3411C77.1194 93.2873 77.2186 93.2635 77.3174 93.2735C77.4161 93.2836 77.5085 93.3269 77.5794 93.3964C77.6502 93.4659 77.6953 93.5575 77.7073 93.656C77.8382 94.7585 77.7299 95.8764 77.3897 96.9333C77.2034 97.4883 76.9472 98.0173 76.6272 98.5076C76.5395 98.6312 76.4492 98.7548 76.3578 98.8784C76.2663 99.0019 76.1588 99.1095 76.0587 99.2244C75.8453 99.4498 75.6129 99.6565 75.3642 99.8423C75.109 100.029 74.8373 100.192 74.5522 100.329C74.4101 100.401 74.2569 100.453 74.1086 100.51C73.9603 100.566 73.8021 100.603 73.6476 100.646C73.0146 100.791 72.3565 100.789 71.7247 100.638C71.4058 100.561 71.0993 100.439 70.8139 100.277C70.6697 100.196 70.5318 100.104 70.4011 100.003C70.3353 99.9518 70.2726 99.897 70.2133 99.8386C70.1495 99.7847 70.0904 99.7256 70.0365 99.6618C69.8103 99.4153 69.6329 99.128 69.5138 98.8153C69.4016 98.51 69.354 98.1847 69.3741 97.8601C69.3786 97.7691 69.4122 97.682 69.4699 97.6116C69.5276 97.5411 69.6064 97.4911 69.6947 97.4688C69.783 97.4465 69.8761 97.4532 69.9604 97.4878C70.0446 97.5224 70.1155 97.5832 70.1626 97.6611L70.2256 97.7538Z" fill="black"/>
<path opacity="0.25" d="M81.6099 91.1944C80.8375 93.2297 79.4732 96.1646 77.6441 94.9017C76.7692 96.4723 76.7791 96.9876 76.7791 96.9876C76.7791 96.9876 80.6348 99.1762 81.6396 96.0089C82.6443 92.8416 81.6099 91.1944 81.6099 91.1944Z" fill="black"/>
<path opacity="0.25" d="M76.7692 93.9761C75.9968 96.0101 72.7775 98.9463 70.6914 97.0914C69.8152 98.6621 70.3108 98.9982 70.3108 98.9982C70.3108 98.9982 75.301 101.187 76.3058 98.0183C77.3105 94.8497 76.7692 93.9761 76.7692 93.9761Z" fill="black"/>
<path opacity="0.25" d="M69.8931 95.3923C69.3085 97.692 65.2834 99.8991 62.8624 97.8897C61.4684 99.0266 61.8935 98.6053 61.8935 98.6053C61.8935 98.6053 66.0126 102.651 68.1159 100.08C70.2193 97.5079 69.8931 95.3923 69.8931 95.3923Z" fill="black"/>
<path d="M83.7516 89.2418C83.5119 89.6261 83.3994 90.0784 83.324 90.5777C83.2486 91.0769 83.2177 91.6034 83.1844 92.1496C83.151 92.6958 83.1164 93.2618 83.0546 93.8413C83.0225 94.1322 82.9813 94.4275 82.931 94.7274C82.8742 95.0373 82.8003 95.3438 82.7098 95.6456C82.6102 95.9707 82.4807 96.286 82.323 96.5872C82.1478 96.9202 81.9227 97.2244 81.6557 97.4893C81.5135 97.6271 81.3588 97.7512 81.1935 97.8601C81.1112 97.9156 81.0258 97.9664 80.9376 98.0121L80.7053 98.1245C80.3793 98.2765 80.0343 98.3838 79.6796 98.4434C79.2983 98.5063 78.9085 98.4949 78.5315 98.41C78.1597 98.3205 77.8107 98.1542 77.507 97.9219C77.2299 97.7084 76.9916 97.4488 76.8026 97.1545C76.7126 97.0163 76.6329 96.8717 76.564 96.7219C76.5307 96.6466 76.4985 96.5712 76.4701 96.4946C76.4417 96.4179 76.4195 96.3475 76.3898 96.2474C76.3641 96.1588 76.3681 96.0642 76.4012 95.978C76.4343 95.8919 76.4946 95.819 76.5731 95.7704C76.6515 95.7218 76.7437 95.7002 76.8356 95.7089C76.9275 95.7176 77.0139 95.7561 77.0819 95.8186L77.1696 95.9001C77.2005 95.9286 77.2462 95.9829 77.2858 96.0237C77.3253 96.0645 77.371 96.1127 77.4093 96.1559C77.4971 96.2424 77.5873 96.3215 77.6788 96.3957C77.8488 96.5349 78.0382 96.6486 78.2411 96.7331C78.5818 96.8757 78.9642 96.8828 79.3101 96.7528C79.5032 96.6853 79.6884 96.5971 79.8625 96.4896L80.0021 96.4019C80.0367 96.3759 80.0689 96.3524 80.0997 96.3252C80.1641 96.273 80.2237 96.2151 80.2777 96.1522C80.5288 95.8268 80.7117 95.4539 80.8153 95.0561C80.8857 94.83 80.9475 94.5878 80.9994 94.3357C81.0513 94.0836 81.1045 93.8253 81.1527 93.5584C81.2503 93.027 81.338 92.4709 81.4604 91.9037C81.5772 91.3123 81.7489 90.7331 81.9733 90.1736C82.0984 89.8723 82.2555 89.5852 82.4416 89.3172C82.6397 89.0332 82.8916 88.7909 83.1831 88.6042C83.266 88.5526 83.364 88.5307 83.4609 88.5419C83.5579 88.553 83.6482 88.5967 83.7173 88.6657C83.7863 88.7347 83.8299 88.8251 83.8411 88.922C83.8523 89.019 83.8303 89.1169 83.7788 89.1998L83.7516 89.2418Z" fill="black"/>
<path d="M80.5185 64.9849C87.192 65.63 81.8977 74.352 82.916 78.6846L78.0221 78.9602C78.0221 78.9602 72.0481 65.6151 80.5185 64.9849Z" fill="white"/>
<path d="M84.7525 65.3149C83.8524 65.2698 82.9506 65.2744 82.051 65.3285C81.2028 65.3752 80.3679 65.5601 79.5793 65.8759C78.8453 66.1758 78.1884 66.6375 77.6576 67.2266C77.5905 67.2974 77.5285 67.373 77.4723 67.4528C77.4142 67.5318 77.3487 67.606 77.2943 67.6863L77.1398 67.9335C77.0843 68.0153 77.0352 68.1012 76.9928 68.1905C76.8999 68.3668 76.8174 68.5484 76.7456 68.7342L76.6356 69.0148L76.5479 69.3076C76.3224 70.1113 76.2227 70.945 76.2525 71.7792L76.2883 72.4181L76.3637 73.057L76.4688 73.6958L76.6084 74.3323C76.8209 75.1811 77.1049 76.0104 77.4574 76.8112C77.813 77.6191 78.226 78.4004 78.6933 79.1493V79.1604C78.8244 79.3656 78.8686 79.6144 78.8162 79.8522C78.7638 80.09 78.6191 80.2972 78.414 80.4283C78.2088 80.5594 77.9599 80.6037 77.7221 80.5513C77.4843 80.4989 77.2771 80.3542 77.146 80.149C76.0517 78.5104 75.2451 76.697 74.7608 74.787L74.6002 74.0592L74.4766 73.3177L74.3988 72.5762L74.3654 71.8212C74.3443 70.7923 74.4827 69.7664 74.7757 68.78C75.0757 67.7517 75.609 66.8065 76.3341 66.018C76.5196 65.8211 76.7187 65.6374 76.9297 65.4681L77.2461 65.2209L77.586 65.0022C78.0395 64.7241 78.5255 64.5029 79.0331 64.3436C80.0108 64.0501 81.0354 63.9457 82.0522 64.0358C83.0235 64.1195 83.9777 64.3417 84.886 64.6957C84.9568 64.7234 85.0155 64.775 85.0521 64.8416C85.0886 64.9082 85.1006 64.9856 85.0858 65.0601C85.0711 65.1346 85.0306 65.2016 84.9715 65.2493C84.9124 65.297 84.8384 65.3224 84.7624 65.3211L84.7525 65.3149Z" fill="black"/>
<path d="M82.7283 79.6881C82.5613 79.6878 82.3993 79.6311 82.2686 79.5273C82.1378 79.4234 82.0459 79.2785 82.0078 79.1159C81.6309 77.5193 82.0078 75.5161 82.4008 73.3956C82.8766 70.8425 83.3697 68.2053 82.339 66.82C81.8682 66.1861 81.0735 65.819 79.9119 65.6942C79.7194 65.6697 79.5443 65.5707 79.424 65.4186C79.3037 65.2664 79.2478 65.0731 79.2683 64.8802C79.2889 64.6873 79.3842 64.5102 79.5338 64.3868C79.6835 64.2633 79.8755 64.2034 80.0688 64.22C81.6433 64.388 82.8074 64.9614 83.5291 65.934C84.9466 67.8383 84.3942 70.8017 83.8579 73.6674C83.5081 75.5446 83.146 77.4835 83.4513 78.7761C83.4962 78.9673 83.4633 79.1685 83.36 79.3356C83.2567 79.5026 83.0912 79.6219 82.9001 79.6671C82.8438 79.6807 82.7862 79.6877 82.7283 79.6881Z" fill="black"/>
<path d="M78.0178 79.8973L77.9892 79.8426C77.8709 79.8973 78.0178 79.8973 78.0178 79.8973Z" fill="black"/>
<path d="M80.9908 73.943C81.2726 72.1276 78.6007 72.4897 78.791 70.9178C78.9925 69.2631 82.0165 70.274 81.0699 67.5578C80.7266 66.7996 80.1332 66.1822 79.3892 65.8092C71.9285 66.3467 77.5898 79.0764 77.989 79.8339C78.1459 79.7486 78.7774 79.5361 80.882 79.0035C80.5138 77.439 80.7238 75.6768 80.9908 73.943Z" fill="black"/>
<path d="M76.4059 80.9202C77.2746 80.1698 78.2417 79.5415 79.2805 79.0529C80.3678 78.5344 81.5494 78.2426 82.7531 78.1953C83.3832 78.1803 84.0123 78.2518 84.623 78.4078C85.2483 78.5705 85.8442 78.8303 86.3889 79.1777C86.6636 79.3526 86.9229 79.5506 87.1638 79.7696C87.4064 79.9861 87.6309 80.2221 87.8349 80.4753C88.2394 80.9812 88.5652 81.5453 88.8013 82.1485C89.2644 83.346 89.3792 84.6502 89.1325 85.9102C89.0131 86.528 88.8132 87.1275 88.5381 87.6934C88.2641 88.2492 87.9248 88.7703 87.5271 89.2455C87.1336 89.7088 86.6906 90.1278 86.206 90.4949C85.7265 90.8656 85.2421 91.1424 84.8466 91.4304C84.4413 91.7184 84.0731 92.0555 83.7505 92.4338C83.4112 92.8367 83.0943 93.2579 82.8013 93.6955V93.6955C82.7418 93.7834 82.6517 93.846 82.5487 93.8713C82.4456 93.8966 82.3368 93.8828 82.2433 93.8325C82.1498 93.7822 82.0783 93.6991 82.0426 93.5991C82.0069 93.4992 82.0095 93.3896 82.05 93.2914C82.2625 92.7565 82.5192 92.2403 82.8174 91.748C83.1351 91.2337 83.5204 90.7645 83.963 90.3528C84.4067 89.9425 84.8479 89.6212 85.1988 89.2801C85.5585 88.9447 85.8846 88.5751 86.1727 88.1766C86.4498 87.7863 86.6843 87.3675 86.8722 86.9272C87.0506 86.4951 87.1771 86.0434 87.2491 85.5815C87.3961 84.6688 87.2975 83.7334 86.9636 82.8714C86.8829 82.6585 86.7862 82.452 86.6744 82.2535C86.5659 82.0578 86.442 81.871 86.3037 81.695C86.1681 81.5177 86.0176 81.3523 85.8538 81.2007C85.6922 81.0464 85.5186 80.9051 85.3348 80.778C84.9617 80.5207 84.5528 80.3196 84.1212 80.1812C83.9005 80.1104 83.675 80.0555 83.4464 80.0168C83.2136 79.9742 82.9784 79.9465 82.742 79.934C81.7431 79.9014 80.7464 80.0466 79.7983 80.3628C78.8096 80.6619 77.8518 81.1228 76.8966 81.6221C76.8031 81.6705 76.695 81.683 76.593 81.6571C76.4909 81.6313 76.4018 81.5688 76.3427 81.4817C76.2836 81.3945 76.2585 81.2887 76.2722 81.1843C76.2859 81.0799 76.3374 80.9842 76.4171 80.9152L76.4059 80.9202Z" fill="black"/>
<path d="M41.5543 77.8283C41.8939 77.8656 42.2281 77.9419 42.5503 78.0556C42.8803 78.1755 43.1938 78.3366 43.4834 78.5351C44.0508 78.9436 44.5283 79.4643 44.886 80.065C45.6004 81.2328 45.9711 82.4896 46.3221 83.7031C46.4939 84.3124 46.6446 84.9179 46.8053 85.5135C46.9659 86.1091 47.1291 86.6974 47.2996 87.272C47.6555 88.4176 48.077 89.5137 48.659 90.464C49.2153 91.3937 49.9898 92.1738 50.9157 92.7366C51.1454 92.8733 51.3827 92.9971 51.6263 93.1073L52.0267 93.2779L52.4308 93.436C52.9672 93.6426 53.5167 93.8135 54.0757 93.9476C54.6358 94.079 55.2032 94.1772 55.7749 94.2417C56.3533 94.3097 56.9428 94.3369 57.5607 94.3653C58.2252 94.3828 58.888 94.4406 59.5454 94.5383C59.9199 94.5999 60.2872 94.6993 60.6416 94.8349C61.0156 94.9819 61.3681 95.1785 61.6896 95.4194C61.8959 95.5726 62.0344 95.8 62.0759 96.0535C62.1175 96.307 62.0587 96.5667 61.912 96.7776C61.7653 96.9885 61.5423 97.1341 61.2902 97.1834C61.0381 97.2328 60.7767 97.182 60.5613 97.042L60.5403 97.0284C60.1414 96.7846 59.6921 96.6354 59.2266 96.5922C58.7063 96.5279 58.1144 96.5156 57.4866 96.5032C56.2347 96.4822 54.8691 96.3895 53.5653 96.0633C52.9132 95.9056 52.2728 95.7033 51.6485 95.4578L51.1863 95.2662L50.7315 95.0623C50.4106 94.9102 50.0986 94.7398 49.7972 94.5519C49.1903 94.1748 48.6371 93.7176 48.1523 93.1926C47.9141 92.9319 47.6909 92.658 47.4838 92.372C47.2823 92.0853 47.092 91.7925 46.9227 91.4934C46.2418 90.2922 45.8277 89.0219 45.5188 87.7688C45.3618 87.1435 45.2358 86.5194 45.1184 85.9015L44.7736 84.0701C44.6611 83.4671 44.54 82.8727 44.3868 82.2993C44.2492 81.7346 44.0593 81.1839 43.8195 80.6545C43.5976 80.1481 43.2775 79.6907 42.8778 79.3087C42.4635 78.9324 41.9671 78.6578 41.4282 78.5067H41.422C41.3404 78.4812 41.2711 78.4263 41.2275 78.3527C41.1839 78.2791 41.1691 78.192 41.186 78.1081C41.2029 78.0242 41.2503 77.9496 41.319 77.8986C41.3877 77.8476 41.4728 77.8239 41.558 77.832L41.5543 77.8283Z" fill="black"/>
<path d="M34.5149 78.2904L34.741 78.7143C34.8164 78.8552 34.8868 79.001 34.9709 79.1345C35.1352 79.4063 35.2909 79.6856 35.4739 79.9427C35.8174 80.466 36.2043 80.9596 36.6306 81.4182C37.4673 82.3263 38.4753 83.06 39.5966 83.5771C40.1733 83.8394 40.768 84.0603 41.3762 84.2382C41.9941 84.4248 42.6429 84.583 43.3152 84.7634C43.6526 84.8573 43.9949 84.95 44.3471 85.0723C44.714 85.1927 45.071 85.3414 45.4149 85.5172C45.7904 85.7091 46.1386 85.9501 46.4505 86.234C46.7699 86.5342 47.0413 86.8818 47.255 87.2646C47.3716 87.4714 47.403 87.7155 47.3425 87.945C47.282 88.1746 47.1344 88.3715 46.931 88.4939C46.7276 88.6164 46.4845 88.6547 46.2533 88.6007C46.0221 88.5468 45.8211 88.4048 45.6929 88.205L45.6558 88.1469C45.5344 87.9387 45.3833 87.7493 45.2072 87.5847C45.0141 87.4155 44.7997 87.2722 44.5695 87.1583C44.0752 86.9112 43.4709 86.7332 42.8394 86.5652C42.2079 86.3971 41.5269 86.2414 40.846 86.0437C40.1497 85.846 39.4686 85.5982 38.8081 85.3022C37.4554 84.6919 36.2363 83.821 35.2205 82.7392C34.7177 82.2086 34.2601 81.6369 33.8524 81.0302C33.6411 80.7348 33.4607 80.4234 33.2728 80.1157C33.1752 79.9637 33.0961 79.8043 33.0096 79.6473L32.7538 79.1753C32.6871 79.0609 32.644 78.9342 32.6272 78.8029C32.6103 78.6715 32.6201 78.5381 32.6558 78.4106C32.6915 78.283 32.7525 78.164 32.8351 78.0605C32.9177 77.9569 33.0203 77.8711 33.1367 77.808C33.2532 77.7449 33.3811 77.7058 33.5129 77.6931C33.6448 77.6804 33.7778 77.6943 33.9042 77.734C34.0305 77.7737 34.1476 77.8384 34.2485 77.9242C34.3493 78.01 34.4319 78.1152 34.4914 78.2336V78.241L34.5149 78.2904Z" fill="black"/>
<path d="M60.0201 67.9495C58.741 67.5677 57.4471 67.302 56.1655 67.276C55.5331 67.2548 54.9002 67.2962 54.276 67.3996C53.6668 67.4966 53.0706 67.6625 52.4988 67.8939C51.3836 68.34 50.4097 69.0791 49.6799 70.033C49.3239 70.503 49.0352 71.0205 48.8223 71.5703C48.6079 72.1262 48.4679 72.7079 48.4058 73.3004C48.3407 73.9041 48.3461 74.5133 48.4218 75.1157C48.4551 75.4218 48.5071 75.7256 48.5776 76.0253L48.6295 76.2477L48.6925 76.4689C48.732 76.6172 48.7827 76.763 48.8309 76.9088C49.2338 78.0791 49.9011 79.1925 50.6488 80.2973C51.0257 80.8485 51.415 81.4095 51.8105 81.9681C52.2059 82.5266 52.6014 83.1037 52.966 83.7068C53.7075 84.9006 54.339 86.2204 54.6257 87.6304C54.649 87.7366 54.631 87.8478 54.5753 87.9412C54.5195 88.0346 54.4303 88.1032 54.3257 88.1332C54.2211 88.1631 54.109 88.152 54.0123 88.1022C53.9156 88.0525 53.8415 87.9677 53.8051 87.8652V87.8652C53.5747 87.2543 53.2932 86.664 52.9635 86.1005C52.6263 85.535 52.2579 84.9888 51.8599 84.4643C51.4583 83.9354 51.0369 83.4114 50.6068 82.8862C50.1767 82.361 49.7331 81.8321 49.3079 81.2797C48.8655 80.7176 48.4533 80.1323 48.0733 79.5262C47.6835 78.899 47.3526 78.2371 47.0847 77.549C47.0192 77.3735 46.95 77.1992 46.8956 77.0188L46.8116 76.7482L46.7374 76.4739C46.6414 76.1109 46.5655 75.7429 46.51 75.3715C46.3962 74.6186 46.375 73.8546 46.447 73.0965C46.5874 71.5421 47.176 70.0619 48.1413 68.8356C48.6243 68.2274 49.1949 67.6943 49.8344 67.2538C50.4658 66.819 51.1545 66.4743 51.8809 66.2293C53.3194 65.735 54.8469 65.651 56.2854 65.8376C57.7076 66.0353 59.0837 66.483 60.3501 67.1599C60.4441 67.2097 60.5162 67.2928 60.5524 67.3928C60.5886 67.4929 60.5862 67.6029 60.5459 67.7013C60.5055 67.7998 60.4299 67.8797 60.3339 67.9256C60.2379 67.9715 60.1282 67.98 60.0263 67.9495H60.0201Z" fill="black"/>
<path d="M74.8142 63.0213C75.7202 61.9404 76.7706 60.9894 77.9359 60.1951L78.1584 60.0443L78.3895 59.9071C78.5452 59.8157 78.6997 59.7218 78.8566 59.6328C79.1778 59.4596 79.5078 59.3033 79.8453 59.1644C80.188 59.0238 80.5382 58.9025 80.8945 58.8011L81.4444 58.6776C81.6286 58.6355 81.8152 58.6182 82.0067 58.5886C82.7824 58.4924 83.569 58.5343 84.3301 58.7121C84.5248 58.7549 84.7163 58.8106 84.9035 58.879L85.1853 58.9828C85.2323 59.0013 85.2792 59.0174 85.3249 59.0371L85.4609 59.1026C85.8241 59.2746 86.1697 59.4815 86.4928 59.7205C87.13 60.196 87.6767 60.782 88.1068 61.4506C88.5196 62.1021 88.8457 62.8045 89.0769 63.5403L89.2339 64.0853C89.2821 64.2669 89.3167 64.456 89.3574 64.634L89.4155 64.9095L89.4563 65.1851C89.4823 65.368 89.5144 65.5558 89.5342 65.7363C89.5638 66.107 89.6071 66.4777 89.6046 66.8398L89.6133 67.3897L89.5947 67.9359C89.5947 68.3067 89.5441 68.6589 89.5156 69.0209C89.5033 69.2014 89.4711 69.3818 89.4477 69.5634C89.4242 69.7451 89.3995 69.9243 89.3686 70.1047L89.2611 70.6398L89.2054 70.908L89.1399 71.1712L89.0065 71.6989L88.852 72.2166C88.8038 72.3909 88.7469 72.5589 88.6901 72.7282C88.6333 72.8975 88.5789 73.0681 88.5183 73.2324C88.3947 73.5624 88.2712 73.8923 88.1476 74.2124C87.9004 74.855 87.6532 75.4815 87.437 76.0883C87.2262 76.6775 87.0573 77.2808 86.9315 77.8938C86.8262 78.4884 86.7786 79.0918 86.7894 79.6955V79.7338C86.7956 79.8637 86.7761 79.9934 86.7321 80.1157C86.6881 80.238 86.6205 80.3505 86.533 80.4466C86.4456 80.5428 86.3401 80.6208 86.2225 80.6762C86.1049 80.7316 85.9775 80.7632 85.8477 80.7694C85.7179 80.7756 85.5881 80.7561 85.4658 80.7121C85.3435 80.6681 85.231 80.6005 85.1349 80.513C85.0387 80.4256 84.9607 80.3201 84.9053 80.2025C84.8499 80.0849 84.8182 79.9576 84.8121 79.8277C84.7502 79.0692 84.7726 78.3062 84.8788 77.5527C84.9981 76.8238 85.1754 76.1056 85.409 75.4049C85.6277 74.7178 85.8848 74.0789 86.1171 73.4438C86.3494 72.8086 86.5719 72.1956 86.7647 71.579L86.9031 71.1168L87.0267 70.6521L87.086 70.4211L87.1342 70.1875L87.2294 69.7204L87.3047 69.252C87.3282 69.0938 87.3604 68.9394 87.3727 68.78C87.4024 68.4624 87.4506 68.1435 87.458 67.8272L87.4839 67.3514V66.8794C87.4926 66.5618 87.458 66.2528 87.4469 65.9389C87.4345 65.7845 87.4123 65.6312 87.3962 65.4768L87.3702 65.2457L87.3295 65.0195C87.2998 64.8687 87.2776 64.7155 87.2442 64.5672L87.1317 64.1261C86.7968 62.9706 86.2283 61.8955 85.3509 61.1862C84.9148 60.8282 84.4138 60.5576 83.8753 60.3891C83.315 60.2198 82.7296 60.1492 82.1452 60.1802C81.9944 60.1926 81.8436 60.1901 81.6928 60.2124L81.2381 60.2779C80.9321 60.3383 80.6297 60.4154 80.3322 60.509C80.0294 60.593 79.7353 60.719 79.435 60.8303C79.2892 60.8945 79.1433 60.965 78.9963 61.0317L78.7763 61.133L78.5625 61.2479C77.3963 61.8798 76.3027 62.6373 75.3011 63.5069V63.5069C75.2347 63.5612 75.1505 63.5889 75.0648 63.5846C74.9791 63.5803 74.8981 63.5444 74.8374 63.4837C74.7768 63.4231 74.7408 63.342 74.7365 63.2564C74.7322 63.1707 74.7599 63.0865 74.8142 63.02V63.0213Z" fill="black"/>
<path d="M54.9715 79.9031C55.0864 79.7882 55.1902 79.7005 55.3015 79.6028C55.4127 79.5052 55.5264 79.4212 55.6426 79.3347C55.8724 79.1617 56.1146 79.0072 56.3618 78.8564C56.8624 78.5616 57.389 78.3134 57.935 78.115C59.0624 77.6971 60.267 77.5284 61.4658 77.6207C62.0799 77.67 62.6851 77.7984 63.2664 78.0025C63.4122 78.0507 63.5531 78.1162 63.6965 78.1731C63.7669 78.2039 63.8386 78.2311 63.9078 78.2645L64.1117 78.372L64.3156 78.4783C64.3843 78.5122 64.4508 78.5506 64.5146 78.5932L64.8989 78.8404C65.0225 78.9244 65.1461 79.0245 65.2598 79.1159L65.4365 79.2568C65.4958 79.3038 65.5477 79.3594 65.6021 79.4101C65.7109 79.5139 65.8196 79.6152 65.9259 79.7202C66.0322 79.8253 66.1224 79.9414 66.2188 80.0539C66.4091 80.2765 66.5846 80.5114 66.744 80.757C66.8987 81.0014 67.0401 81.2539 67.1679 81.5133C67.2141 81.6019 67.2281 81.7037 67.2077 81.8015C67.1873 81.8993 67.1337 81.987 67.056 82.0498C66.9782 82.1125 66.8812 82.1464 66.7813 82.1457C66.6814 82.145 66.5848 82.1098 66.508 82.0459L66.4882 82.0286C65.6688 81.3465 64.8655 80.7484 64.0042 80.327C63.5793 80.1244 63.1377 79.959 62.6843 79.8327C62.5694 79.8067 62.4569 79.7771 62.3445 79.7474C62.232 79.7178 62.1146 79.7054 62.0009 79.6819C61.8872 79.6584 61.7698 79.6461 61.6536 79.63L61.4794 79.6065L61.3027 79.5942C60.3334 79.5253 59.3592 79.5919 58.4083 79.7919C57.914 79.8871 57.4197 80.0094 56.9253 80.149C56.6782 80.222 56.431 80.2949 56.1839 80.3752L55.4485 80.6223L55.4152 80.6335C55.3221 80.6648 55.2213 80.6636 55.129 80.6302C55.0367 80.5967 54.9585 80.533 54.9071 80.4493C54.8558 80.3657 54.8343 80.2671 54.8462 80.1697C54.8581 80.0723 54.9027 79.9818 54.9727 79.913L54.9715 79.9031Z" fill="black"/>
<path d="M83.4721 59.2658C83.3399 58.5972 83.0062 58.0028 82.6318 57.4121C82.4476 57.1155 82.2412 56.8239 82.0324 56.5335C81.8235 56.2431 81.606 55.9539 81.3799 55.6684C80.9337 55.095 80.4579 54.5315 79.9846 53.9656L79.2703 53.1153C79.1467 52.9708 79.0305 52.8323 78.9144 52.6878C78.7982 52.5432 78.6746 52.3974 78.5721 52.2651L78.5473 52.2318C78.3907 52.0404 78.3114 51.7972 78.3253 51.5503C78.3391 51.3034 78.445 51.0706 78.622 50.8979C78.7991 50.7252 79.0344 50.6251 79.2817 50.6174C79.5289 50.6098 79.77 50.695 79.9574 50.8564C80.1267 50.9948 80.2701 51.122 80.4184 51.2605C80.5667 51.3989 80.7063 51.5373 80.8472 51.6781C81.1278 51.9611 81.3947 52.2565 81.6517 52.5617C82.1699 53.1764 82.6401 53.83 83.0581 54.5167C83.2724 54.8659 83.4675 55.2264 83.6427 55.5968C83.8237 55.9748 83.9757 56.366 84.0974 56.767C84.225 57.1809 84.3054 57.6079 84.3372 58.0399C84.374 58.4922 84.3107 58.947 84.1518 59.372C84.1224 59.4418 84.0714 59.5004 84.0064 59.5392C83.9414 59.578 83.8656 59.5951 83.7902 59.5879C83.7148 59.5807 83.6437 59.5497 83.5872 59.4993C83.5306 59.449 83.4916 59.3819 83.4758 59.3078L83.4721 59.2658Z" fill="black"/>
<path d="M77.0584 86.0387C75.6854 82.4945 72.1571 81.7259 71.0337 87.4524C71.0084 87.5824 71.0225 87.7169 71.0743 87.8388C71.126 87.9606 71.213 88.0642 71.3241 88.1362C71.4352 88.2083 71.5653 88.2454 71.6977 88.2429C71.83 88.2404 71.9586 88.1984 72.0669 88.1222L73.7699 86.9198C74.0532 86.7202 74.3826 86.5958 74.7272 86.5585C75.0718 86.5211 75.4202 86.5718 75.7398 86.706L76.1835 86.8926C76.3037 86.9432 76.4362 86.9571 76.5644 86.9328C76.6925 86.9084 76.8107 86.8469 76.9041 86.7557C76.9974 86.6646 77.0618 86.548 77.0893 86.4205C77.1168 86.293 77.106 86.1602 77.0584 86.0387Z" fill="white"/>
<path d="M71.685 88.986C71.4778 88.9854 71.2733 88.9391 71.0861 88.8504C70.8989 88.7617 70.7336 88.6328 70.6019 88.4729C70.4702 88.313 70.3754 88.126 70.3242 87.9253C70.273 87.7246 70.2667 87.515 70.3058 87.3116C71.0807 83.3571 72.859 82.623 73.8489 82.5365C75.4061 82.3994 76.9385 83.6698 77.7504 85.7743C77.8503 86.0314 77.8723 86.3122 77.8136 86.5817C77.755 86.8512 77.6183 87.0975 77.4207 87.2898C77.223 87.4822 76.9731 87.6122 76.7021 87.6635C76.4311 87.7148 76.151 87.6853 75.8967 87.5785L75.4518 87.3919C75.2484 87.3056 75.0263 87.2728 74.8067 87.2969C74.5871 87.3209 74.3773 87.4008 74.1974 87.5291L72.4944 88.7302C72.2575 88.8971 71.9748 88.9864 71.685 88.986V88.986ZM74.08 84.0059C74.0466 84.0059 74.0133 84.0059 73.9799 84.0059C73.0432 84.0887 72.2349 85.3516 71.7999 87.3981L73.3422 86.3094C73.7275 86.0357 74.1765 85.8652 74.6464 85.8141C75.1162 85.7631 75.5913 85.8332 76.0264 86.0177L76.2983 86.1314C75.7558 84.84 74.8907 84.0059 74.08 84.0059V84.0059Z" fill="black"/>
<path d="M73.7786 84.0232C74.4077 84.3062 74.6894 86.3872 74.6894 86.3872L71.0203 88.053C71.0203 88.053 71.4182 85.3788 71.4639 85.2972C72.4192 83.6104 73.7786 84.0232 73.7786 84.0232Z" fill="black"/>
<path d="M32.996 79.635C31.2474 76.3392 30.0832 73.6402 29.3293 71.1415C28.3642 67.9409 28.054 65.0084 28.3815 62.1748C29.1576 55.446 33.5917 49.2783 41.9385 43.3169C50.9502 36.8798 57.7695 34.3885 63.3999 35.476C70.0635 36.7636 74.0466 42.9944 78.2632 49.5897L78.5746 50.084L76.91 51.1492L76.5973 50.6549C72.4424 44.156 68.8548 38.5444 63.0254 37.4174C58.0327 36.4535 51.5112 38.9089 43.0878 44.9259C35.2218 50.5437 31.0546 56.2604 30.3452 62.4022C29.6766 68.2103 32.1928 73.8948 34.7435 78.7143L32.996 79.635Z" fill="black"/>
<path d="M42.1709 46.0084C41.4109 47.5519 40.6879 49.0979 40.3369 50.6871C39.986 52.2763 40.0094 53.9001 40.3369 55.5164C40.6644 57.1328 41.249 58.7134 41.9027 60.2816C42.5565 61.8498 43.3116 63.3957 44.0296 64.9775C44.0643 65.0501 44.0704 65.1332 44.0468 65.2101C44.0232 65.2871 43.9715 65.3524 43.9021 65.3931C43.8326 65.4338 43.7504 65.4469 43.6718 65.4299C43.5931 65.4129 43.5236 65.367 43.4772 65.3013C42.9594 64.5981 42.4762 63.8715 42.0152 63.1263C41.7829 62.7556 41.5691 62.3737 41.3466 61.9956C41.1242 61.6174 40.9252 61.2257 40.7287 60.8315C39.9279 59.2645 39.2531 57.6 38.8848 55.8155C38.6988 54.9163 38.6159 53.9988 38.6377 53.0807C38.6613 52.1585 38.811 51.2438 39.0826 50.3621C39.2138 49.9259 39.371 49.4979 39.5534 49.0806C39.74 48.6691 39.9353 48.2637 40.1553 47.8744C40.5899 47.1022 41.0823 46.364 41.6284 45.6661C41.6779 45.6044 41.7484 45.5631 41.8264 45.5499C41.9045 45.5368 41.9846 45.5528 42.0516 45.5949C42.1186 45.6371 42.1678 45.7023 42.1898 45.7783C42.2118 45.8544 42.2051 45.9358 42.1709 46.0072V46.0084Z" fill="#4D4D4D"/>
<path d="M82.3367 58.4909C82.3515 58.5923 82.3884 58.6891 82.4449 58.7744C82.5014 58.8598 82.5761 58.9316 82.6636 58.9848C82.7511 59.0379 82.8492 59.0711 82.9511 59.0818C83.0529 59.0926 83.1558 59.0807 83.2525 59.047C90.2535 56.6262 94.6678 50.6438 96.6686 46.195C105.39 26.7935 84.6626 19.0514 69.8005 37.992C63.8413 46.0789 60.8222 52.4629 49.6874 62.1896C42.375 68.5773 37.8828 73.0063 33.9763 78.9405C44.0829 61.8189 80.305 43.9286 82.3367 58.4909Z" fill="#333333"/>
<path d="M33.9751 79.9278C33.8009 79.9276 33.63 79.8813 33.4795 79.7937C33.3289 79.7061 33.2042 79.5803 33.1179 79.4291C33.0317 79.2779 32.9869 79.1065 32.9881 78.9324C32.9893 78.7583 33.0364 78.5875 33.1248 78.4375C34.4323 76.2218 36.1773 73.9887 38.2325 71.7965C41.1701 68.4994 44.6279 65.2951 49.0373 61.4432C57.4793 54.0694 61.2078 48.632 65.1538 42.8782C66.3587 41.121 67.6044 39.3044 69.0046 37.405C69.0097 37.3967 69.0155 37.3888 69.0219 37.3815C73.0235 32.2815 77.7135 28.7213 82.5864 27.0839C87.0835 25.5738 91.3607 25.8271 94.6134 27.7969C98.95 30.4192 102.004 36.734 97.5695 46.5991C96.503 48.9718 92.342 56.9512 83.575 59.9813C83.3405 60.0627 83.0907 60.0912 82.8438 60.0647C82.597 60.0382 82.359 59.9574 82.147 59.828C81.9351 59.6987 81.7544 59.524 81.618 59.3165C81.4815 59.1091 81.3927 58.874 81.358 58.6281V58.6281C81.023 56.227 79.6414 54.817 77.1351 54.3165C72.3488 53.36 63.9229 55.9527 55.1448 61.0836C49.1263 64.6006 43.7542 68.8096 39.7526 73.0557C37.9363 75.0646 36.281 77.2132 34.8018 79.4817C34.7118 79.6188 34.5892 79.7314 34.4448 79.8093C34.3005 79.8871 34.1391 79.9279 33.9751 79.9278ZM70.5877 38.5901C69.211 40.4586 67.9776 42.2566 66.7851 43.9966C63.4483 48.8643 60.2624 53.512 54.3329 59.2621C62.9206 54.2634 71.8816 51.2493 77.5232 52.3776C80.7363 53.019 82.7137 54.9591 83.2587 57.9954C91.053 55.1383 94.7951 47.9486 95.7665 45.7885C99.0328 38.5209 98.1986 32.2753 93.5914 29.4899C88.2465 26.2645 78.6305 28.3468 70.5877 38.5901Z" fill="black"/>
<path opacity="0.25" d="M41.7459 78.5759C44.5265 81.1006 41.2133 84.9797 38.1917 82.9196C39.7018 85.9411 45.9168 86.4564 45.9168 86.4564C45.9168 86.4564 45.4534 79.195 41.7459 78.5759Z" fill="black"/>
<path opacity="0.25" d="M58.0379 92.5685C58.6558 93.1518 57.8661 94.7311 54.8445 94.1132C57.4546 95.8297 61.3004 95.8989 61.3004 95.8989L59.2403 92.6019L58.0379 92.5685Z" fill="black"/>
<path d="M84.5202 41.5164C85.4582 41.2606 86.4048 41.0592 87.3441 40.8639L90.1543 40.3041C91.0861 40.1188 92.0081 39.9334 92.9275 39.7134C93.847 39.4935 94.7442 39.2624 95.5895 38.9052H95.6043C95.6743 38.8755 95.7525 38.8713 95.8253 38.8934C95.898 38.9155 95.9606 38.9625 96.0022 39.0262C96.0438 39.0899 96.0616 39.1661 96.0526 39.2416C96.0435 39.3171 96.0082 39.387 95.9528 39.4391C95.8577 39.5281 95.7588 39.6146 95.6587 39.6998L95.3473 39.9322C95.241 40.0051 95.1322 40.0743 95.0235 40.1447L94.691 40.3362C94.246 40.576 93.7852 40.7853 93.3119 40.9628C92.3794 41.3071 91.4206 41.5754 90.4447 41.7648C89.4795 41.9565 88.5034 42.089 87.522 42.1615C86.5395 42.2412 85.5521 42.2412 84.5696 42.1615C84.4935 42.1548 84.4222 42.1215 84.3683 42.0674C84.3143 42.0134 84.2811 41.9421 84.2744 41.866C84.2678 41.7899 84.2882 41.7139 84.332 41.6513C84.3758 41.5888 84.4402 41.5436 84.514 41.5238L84.5202 41.5164Z" fill="black"/>
<path d="M83.6849 45.7724C84.6229 45.5166 85.5696 45.3152 86.5088 45.1211L89.3191 44.5601C90.2521 44.3748 91.1728 44.1894 92.0923 43.9694C93.0117 43.7494 93.9089 43.5184 94.7542 43.1612H94.7691C94.839 43.1315 94.9172 43.1273 94.99 43.1494C95.0627 43.1715 95.1254 43.2185 95.167 43.2822C95.2085 43.3458 95.2263 43.4221 95.2173 43.4976C95.2083 43.5731 95.173 43.643 95.1176 43.6951C95.0224 43.7841 94.9235 43.8706 94.8234 43.9558L94.512 44.1894C94.4057 44.2611 94.297 44.3303 94.1895 44.4007L93.857 44.5922C93.4114 44.8317 92.9502 45.041 92.4766 45.2188C91.5442 45.5634 90.5854 45.8317 89.6095 46.0208C88.6443 46.2126 87.6682 46.345 86.6868 46.4175C85.7047 46.4978 84.7177 46.4978 83.7356 46.4175C83.6594 46.411 83.588 46.3778 83.5339 46.3239C83.4797 46.2699 83.4463 46.1986 83.4395 46.1225C83.4327 46.0464 83.453 45.9703 83.4967 45.9076C83.5405 45.8449 83.6049 45.7997 83.6787 45.7798L83.6849 45.7724Z" fill="black"/>
<path d="M85.7426 48.8223C85.9712 47.8856 86.2369 46.96 86.5014 46.043L87.2886 43.3033C87.5358 42.3901 87.7829 41.4793 88.0116 40.5636C88.2402 39.6479 88.4219 38.7297 88.6171 37.7881V37.777C88.6329 37.7027 88.6741 37.6363 88.7337 37.5893C88.7932 37.5422 88.8674 37.5175 88.9433 37.5194C89.0192 37.5213 89.092 37.5497 89.1491 37.5997C89.2062 37.6497 89.2441 37.7181 89.2561 37.793C89.3946 38.7856 89.4066 39.7917 89.2919 40.7873C89.1733 41.7722 88.9803 42.7467 88.7148 43.7025C88.4473 44.651 88.117 45.5807 87.7261 46.4854C87.3406 47.3957 86.8715 48.2682 86.3247 49.0917C86.2818 49.1546 86.2183 49.2005 86.1451 49.2214C86.0719 49.2422 85.9937 49.2367 85.9241 49.2059C85.8545 49.175 85.798 49.1206 85.7644 49.0523C85.7308 48.9841 85.7222 48.9061 85.7401 48.8322L85.7426 48.8223Z" fill="black"/>
<path d="M89.9569 48.0351C90.1571 47.0922 90.4005 46.1604 90.6465 45.2386L91.3979 42.4853C91.645 41.5708 91.8922 40.6563 92.1332 39.7406C92.3742 38.8249 92.588 37.9067 92.8364 36.9725V36.9651C92.8558 36.8914 92.9005 36.8269 92.9626 36.7829C93.0248 36.7388 93.1004 36.718 93.1764 36.724C93.2523 36.73 93.3237 36.7626 93.3781 36.8159C93.4325 36.8692 93.4665 36.9399 93.4741 37.0157C93.5613 38.0037 93.5398 38.9983 93.4098 39.9816C93.2809 40.958 93.086 41.9245 92.8265 42.8745C92.5667 43.8196 92.2501 44.7481 91.8786 45.655C91.5121 46.5686 91.0659 47.4481 90.5451 48.2835C90.4987 48.356 90.4254 48.4072 90.3413 48.4257C90.2572 48.4443 90.1691 48.4287 90.0965 48.3823C90.0413 48.3463 89.9981 48.2946 89.9725 48.2338C89.947 48.173 89.9403 48.1059 89.9532 48.0413L89.9569 48.0351Z" fill="black"/>
</g>
<defs>
<clipPath id="clip0_506_205">
<rect width="71.4791" height="75.7799" fill="white" transform="translate(28.2605 26.1101)"/>
</clipPath>
</defs>
</svg>
