<svg width="128" height="128" viewBox="0 0 128 128" fill="none" xmlns="http://www.w3.org/2000/svg">
<path d="M33.6459 91.3812C37.099 91.3812 39.8984 88.612 39.8984 85.196C39.8984 81.78 37.099 79.0107 33.6459 79.0107C30.1928 79.0107 27.3934 81.78 27.3934 85.196C27.3934 88.612 30.1928 91.3812 33.6459 91.3812Z" fill="#DEDBD7"/>
<path d="M81.0436 80.2209C83.8656 80.2209 86.1532 77.9579 86.1532 75.1665C86.1532 72.375 83.8656 70.1121 81.0436 70.1121C78.2217 70.1121 75.9341 72.375 75.9341 75.1665C75.9341 77.9579 78.2217 80.2209 81.0436 80.2209Z" fill="#DEDBD7"/>
<path d="M32.9065 71.2121C34.1166 75.3804 42.0606 94.1244 42.5662 95.4125C44.0453 99.1774 49.3216 99.441 50.4995 97.9673C56.1469 106.035 68.2108 102.441 72.6857 96.6227C80.8878 97.6984 88.7081 84.5238 85.0777 79.6832C81.7336 75.2244 83.5986 75.1115 78.7579 73.6324C79.4303 75.2459 83.3579 51.984 82.254 51.984C82.1195 51.984 62.8915 34.2351 32.9065 71.2121Z" fill="#DEDBD7"/>
<path d="M33.6459 91.3812C37.099 91.3812 39.8984 88.612 39.8984 85.196C39.8984 81.78 37.099 79.0107 33.6459 79.0107C30.1928 79.0107 27.3934 81.78 27.3934 85.196C27.3934 88.612 30.1928 91.3812 33.6459 91.3812Z" fill="#DEDBD7"/>
<path d="M81.0436 80.2209C83.8656 80.2209 86.1532 77.9579 86.1532 75.1665C86.1532 72.375 83.8656 70.1121 81.0436 70.1121C78.2217 70.1121 75.9341 72.375 75.9341 75.1665C75.9341 77.9579 78.2217 80.2209 81.0436 80.2209Z" fill="#DEDBD7"/>
<path d="M32.9065 71.2121C34.1166 75.3804 42.0606 94.1244 42.5662 95.4125C44.0453 99.1774 49.3216 99.441 50.4995 97.9673C56.1469 106.035 68.2108 102.441 72.6857 96.6227C80.8878 97.6984 88.7081 84.5238 85.0777 79.6832C81.7336 75.2244 83.5986 75.1115 78.7579 73.6324C79.4303 75.2459 83.3579 51.984 82.254 51.984C82.1195 51.984 62.8915 34.2351 32.9065 71.2121Z" fill="#DEDBD7"/>
<path d="M35.0364 77.1269C35.0364 77.1269 42.0593 94.1256 42.5662 95.4137C44.0453 99.1787 49.3216 99.4422 50.4995 97.9685C56.1469 106.036 68.2108 102.442 72.6857 96.6239C80.8878 97.6996 88.1488 84.3879 84.5183 79.5472C81.1742 75.0885 79.0054 72.0174 71.4755 76.858C72.1478 78.4716 72.8416 79.5499 72.7072 79.6844C71.497 81.1635 66.9253 82.6426 64.6395 82.2392C64.5077 82.2163 64.618 79.8162 64.618 79.8162C64.618 79.8162 54.3989 74.7066 43.7764 83.7156C40.2804 78.3371 40.3691 76.4775 39.7425 72.4208C36.9188 74.1688 35.0364 77.1269 35.0364 77.1269Z" fill="#CA5C3A"/>
<path d="M35.0364 77.1269C35.0364 77.1269 42.0593 94.1256 42.5662 95.4137C44.0453 99.1787 49.3216 99.4422 50.4995 97.9685C56.1469 106.036 68.2108 102.442 72.6857 96.6239C80.8878 97.6996 88.1488 84.3879 84.5183 79.5472C81.1742 75.0885 79.0054 72.0174 71.4755 76.858C72.1478 78.4716 72.5727 79.0121 72.4383 79.1466C71.2281 80.6256 66.6564 82.1047 64.3705 81.7013C64.2388 81.6785 64.618 79.8162 64.618 79.8162C64.618 79.8162 54.3989 74.7066 43.7764 83.7156C40.2804 78.3371 40.3691 76.4775 39.7425 72.4208C36.9188 74.1688 35.0364 77.1269 35.0364 77.1269Z" fill="#808080"/>
<path d="M71.4579 76.1399C70.0205 73.1374 69.5633 68.3734 70.7802 64.9756C72.8011 59.3322 79.2069 59.3094 80.5515 63.3432C80.5515 63.3432 79.1612 75.6491 78.6233 75.5147C78.0855 75.3802 72.0347 76.187 72.0347 76.187" fill="white"/>
<path d="M71.4592 77.2157C71.0585 77.2157 70.6726 76.9899 70.4884 76.6039C68.8265 73.1321 68.5239 68.0898 69.7677 64.6127C70.9066 61.4313 73.5488 59.3929 76.5069 59.4278C78.8694 59.4534 80.8581 60.8571 81.5734 63.0031C81.7617 63.5665 81.4565 64.1757 80.8931 64.3639C80.3283 64.5521 79.7206 64.2469 79.5323 63.6835C79.1047 62.4021 77.9363 61.5953 76.4841 61.5792C76.4693 61.5792 76.4558 61.5792 76.441 61.5792C74.8369 61.5792 72.7877 62.5648 71.794 65.3374C70.7412 68.2767 71.0142 72.7207 72.4287 75.6748C72.6855 76.2113 72.4583 76.8527 71.9231 77.1095C71.7725 77.1821 71.6139 77.2157 71.4592 77.2157Z" fill="#030303"/>
<path d="M75.0615 67.7655C73.811 67.3541 73.5286 66.4706 75.9261 65.793C76.2568 65.7002 76.5069 65.4272 76.5782 65.0911C77.0408 62.8765 77.1819 61.072 76.2111 60.5301C76.2111 60.5301 72.0401 58.7983 69.8847 65.161C68.4675 69.3441 70.7695 76.1667 70.7695 76.1667C70.7695 76.1667 72.6533 75.7646 75.1825 75.1421C74.7253 73.7652 75.0211 71.6353 75.684 68.8694C75.7956 68.3975 75.5254 67.9174 75.0615 67.7655Z" fill="#030303"/>
<path d="M39.9156 69.7127C40.1509 70.9121 40.3849 72.1276 40.6444 73.3203C40.9093 74.513 41.1755 75.7003 41.5116 76.8607C41.8451 78.0211 42.227 79.1587 42.6949 80.2424C43.1561 81.3289 43.7114 82.3535 44.3716 83.2665L44.3837 83.2826C44.6863 83.7008 44.5922 84.2857 44.174 84.5896C43.776 84.8773 43.2247 84.8034 42.9114 84.4349C42.032 83.3929 41.3879 82.215 40.8797 81.0142C40.6255 80.4118 40.405 79.8014 40.2141 79.1855C40.0205 78.5697 39.8524 77.9498 39.7112 77.3259C39.5687 76.702 39.4382 76.0768 39.3401 75.4489C39.2876 75.1342 39.2446 74.8196 39.2002 74.5063C39.1599 74.1916 39.1276 73.8757 39.0967 73.5597C39.0644 73.2437 39.0443 72.9277 39.0241 72.6117L38.9986 72.1371L38.9851 71.6624C38.9717 71.0264 38.977 70.3998 39.0308 69.7531C39.051 69.507 39.2661 69.3241 39.5122 69.3443C39.7152 69.3604 39.8752 69.511 39.9129 69.702L39.9156 69.7127Z" fill="#030303"/>
<path d="M63.3861 81.1015C63.3095 81.0679 63.2355 81.0343 63.1615 80.9966L62.8926 80.8971C62.8025 80.8635 62.6963 80.8366 62.5995 80.8043C62.504 80.7721 62.3965 80.7465 62.2902 80.721C61.8721 80.6134 61.4162 80.5368 60.9591 80.4749C60.038 80.3552 59.082 80.3122 58.126 80.3216C57.1686 80.3378 56.2072 80.3983 55.2539 80.526C54.3005 80.6511 53.3539 80.8232 52.4261 81.0639C51.4983 81.3019 50.5907 81.6017 49.7167 81.9728C48.8387 82.3345 48.001 82.7769 47.205 83.2825C45.6197 84.3044 44.2751 85.6557 43.2532 87.284L43.2437 87.2988C43.0178 87.6592 42.5418 87.7681 42.1815 87.5422C41.8588 87.3405 41.7378 86.9385 41.8776 86.5969C42.7045 84.5773 44.1285 82.7755 45.8698 81.4256C46.7371 80.7438 47.6823 80.1737 48.6572 79.6776C49.6374 79.1921 50.6526 78.7901 51.6906 78.4687C53.7694 77.8435 55.9168 77.5033 58.087 77.4683C59.1721 77.4495 60.2626 77.5114 61.3638 77.6754C61.9151 77.7695 62.4677 77.8717 63.0311 78.0452C63.5959 78.2186 64.1606 78.4136 64.7737 78.7968C65.4017 79.1895 65.5913 80.0164 65.1986 80.6443C64.8423 81.2144 64.1283 81.4229 63.53 81.1634L63.3861 81.1015Z" fill="#030303"/>
<path d="M31.6116 61.9356C32.7478 65.7139 34.001 69.4735 35.2986 73.2223C35.6199 74.1608 35.9574 75.094 36.2882 76.0298C36.6136 76.967 36.9551 77.9002 37.2899 78.8347L39.3432 84.4324L41.4381 90.0233L42.4869 92.8362L42.7504 93.5744C42.8244 93.7842 42.8997 93.9899 42.9844 94.1929C43.1525 94.5963 43.3434 94.9809 43.5612 95.3412C43.9969 96.0579 44.5388 96.6697 45.1734 97.0919C45.8054 97.5168 46.5207 97.7616 47.2724 97.8167C48.7649 97.9269 50.4349 97.2197 51.2094 95.8105L51.2363 95.7621C51.434 95.4044 51.8831 95.274 52.2421 95.4703C52.5204 95.6236 52.6603 95.9302 52.6172 96.2273C52.5285 96.8311 52.2851 97.4133 51.9476 97.9243C51.6074 98.4366 51.1718 98.8789 50.6783 99.2393C49.6913 99.96 48.4745 100.361 47.2293 100.38C46.6068 100.39 45.9815 100.3 45.3805 100.125C44.7821 99.9439 44.2107 99.679 43.6943 99.3415C42.6563 98.6692 41.8455 97.7495 41.2364 96.7746C40.9312 96.2852 40.673 95.7769 40.4511 95.2633C40.3409 95.0064 40.24 94.7456 40.1459 94.4861L39.8891 93.8218L38.7811 91.0546C38.0322 89.2044 37.3074 87.3408 36.588 85.4758L35.515 82.6736L34.477 79.8566C33.7926 77.9755 33.1176 76.0904 32.4829 74.1877L32.0016 72.7638L31.5363 71.3331C31.2257 70.3798 30.9326 69.4197 30.6381 68.4596L30.4176 67.7403L30.2092 67.0155L29.7937 65.566C29.6512 65.0847 29.5288 64.5952 29.3997 64.1085L29.0178 62.6469C28.8296 61.9288 29.2599 61.1933 29.9779 61.0051C30.6798 60.8209 31.3978 61.2283 31.6049 61.9167L31.6116 61.9356Z" fill="#030303"/>
<path d="M77.8247 75.2552C77.26 72.6036 78.1609 68.9395 79.1129 65.0616C80.5745 59.109 82.2324 52.3617 78.5817 49.0956L80.3755 47.0922C85.2296 51.4353 83.3672 59.0162 81.7255 65.7044C80.8488 69.2757 80.0205 72.648 80.4561 74.6972L77.8247 75.2552Z" fill="#030303"/>
<path d="M67.7239 79.1533C67.8583 79.1748 67.9619 79.2286 68.056 79.2905C68.1474 79.3537 68.2267 79.4303 68.2953 79.5177C68.3639 79.6038 68.4217 79.7019 68.4647 79.8135C68.5078 79.9251 68.5387 80.0488 68.536 80.2048C68.5333 80.3729 68.3962 80.506 68.2294 80.5047C68.0735 80.5033 67.9511 80.4684 67.8408 80.424C67.7306 80.3783 67.6338 80.3191 67.5491 80.2479C67.4643 80.1766 67.3904 80.0959 67.3285 80.0031C67.268 79.9077 67.2183 79.8041 67.1995 79.6683C67.1658 79.4182 67.3406 79.1883 67.5894 79.1547C67.6338 79.1453 67.6808 79.1466 67.7239 79.1533Z" fill="#030303"/>
<path d="M70.5556 78.8023C70.5906 78.9072 70.5866 79.004 70.5718 79.0981C70.5556 79.1922 70.5247 79.2823 70.483 79.3697C70.4413 79.4571 70.3916 79.5445 70.3297 79.6279C70.2652 79.7113 70.1966 79.7933 70.0985 79.8686C69.9613 79.9735 69.7637 79.9479 69.6588 79.8108C69.648 79.796 69.6373 79.7798 69.6292 79.7651C69.5727 79.6548 69.5445 79.5513 69.5216 79.4491C69.5001 79.3469 69.4921 79.2474 69.4921 79.1506C69.4907 79.0524 69.5015 78.9583 69.527 78.8668C69.5539 78.7754 69.5916 78.6867 69.6682 78.606C69.8685 78.3935 70.2047 78.3828 70.4171 78.5845C70.4817 78.6436 70.5287 78.7216 70.5556 78.8023Z" fill="#030303"/>
<path d="M72.363 79.9343C72.1573 79.4018 71.9314 78.903 71.6382 78.4862C71.5683 78.3786 71.4849 78.2885 71.4123 78.189C71.3317 78.0976 71.2483 78.0129 71.169 77.9268C70.9928 77.7749 70.8234 77.627 70.6311 77.5315C70.4482 77.4185 70.2492 77.358 70.0556 77.3029C69.9548 77.2881 69.858 77.2599 69.7544 77.2585C69.7033 77.2558 69.6536 77.2464 69.6025 77.2464L69.4478 77.2505C69.3968 77.2478 69.3443 77.2572 69.2919 77.2653L69.1346 77.2827L68.9759 77.319C68.9234 77.3298 68.8697 77.3405 68.8172 77.3621C68.7123 77.3984 68.6061 77.4266 68.5012 77.4764C68.4488 77.4992 68.3964 77.5194 68.3439 77.5436L68.1893 77.6269C67.357 78.0747 66.6242 78.8707 66.0352 79.7904C65.4369 80.7142 64.9931 81.7791 64.5723 82.8925L64.5655 82.9099C64.4445 83.2313 64.0855 83.3927 63.7642 83.2703C63.506 83.1721 63.3514 82.9207 63.3635 82.6599C63.4267 81.3704 63.7225 80.0634 64.3235 78.8398C64.6234 78.2293 65.0012 77.6417 65.4691 77.1066C65.9384 76.5741 66.5018 76.0941 67.1701 75.7351C67.8357 75.3828 68.6088 75.134 69.4277 75.1529L69.7329 75.165C69.8338 75.1717 69.9359 75.1919 70.0381 75.2053C70.2412 75.2282 70.4388 75.294 70.6365 75.3492C71.0237 75.4836 71.3962 75.6652 71.7162 75.9072C72.0456 76.1385 72.3159 76.4262 72.5566 76.7234C72.6655 76.878 72.7771 77.0313 72.8712 77.1913L73.0017 77.4347C73.0447 77.5153 73.0904 77.596 73.1213 77.6807C73.4104 78.3463 73.5597 79.0294 73.5906 79.7004C73.6068 80.0486 73.3378 80.3431 72.9909 80.3592C72.7126 80.3727 72.4679 80.2032 72.3737 79.9572L72.363 79.9343Z" fill="#030303"/>
<path d="M79.1666 74.1497C79.1881 74.0919 79.1988 74.0717 79.2109 74.0448C79.2244 74.0166 79.2365 73.9924 79.2486 73.9708C79.2728 73.9251 79.297 73.8808 79.3225 73.8404C79.3723 73.7557 79.4261 73.6817 79.4785 73.6065C79.5888 73.4599 79.7058 73.3227 79.8348 73.199C80.0903 72.9503 80.3794 72.7405 80.69 72.5899C80.7653 72.5496 80.8473 72.52 80.9253 72.4864L81.0436 72.438L81.1633 72.4003C81.244 72.3761 81.3233 72.3519 81.4027 72.3304L81.6433 72.2847L81.763 72.2632L81.8813 72.2524L82.1166 72.2336C82.2726 72.2282 82.4246 72.2363 82.5765 72.2403C82.9288 72.247 83.2098 72.5388 83.2031 72.8925C83.1977 73.1816 83.0001 73.4222 82.7338 73.4962L82.6289 73.5244C82.5254 73.5527 82.4205 73.5742 82.321 73.6051L82.1772 73.6589L82.1059 73.6844L82.04 73.7181L81.9109 73.7826L81.7939 73.8579L81.7361 73.8942L81.6837 73.9372C81.6501 73.9668 81.6124 73.9897 81.5828 74.0219C81.4538 74.1389 81.3556 74.2761 81.2776 74.4173C81.2386 74.4885 81.2077 74.5625 81.1821 74.6337C81.1727 74.67 81.1593 74.705 81.1539 74.7386C81.1499 74.7561 81.1485 74.7695 81.1472 74.783C81.1458 74.7897 81.1458 74.7964 81.1472 74.7978C81.1485 74.8005 81.1472 74.8099 81.1579 74.783C80.9831 75.3329 80.3955 75.6382 79.8456 75.4634C79.297 75.2872 78.9931 74.6996 79.1666 74.1497Z" fill="#030303"/>
<path d="M84.1752 79.3037L83.1156 76.8323C84.5369 76.2231 84.8098 74.3729 84.2478 73.0095C83.921 72.2175 82.8467 70.5005 79.9235 71.6568L78.9338 69.1558C81.1982 68.259 82.8709 68.583 83.8753 69.012C85.154 69.5579 86.1692 70.6147 86.734 71.9849C87.7828 74.5276 87.1024 78.0491 84.1752 79.3037Z" fill="#030303"/>
<path d="M31.2187 83.1642L31.3438 83.0983L31.4527 83.0431C31.5253 83.0082 31.5965 82.9746 31.6678 82.9436C31.8117 82.8804 31.9556 82.8226 32.1021 82.7702C32.3952 82.6653 32.6951 82.5779 33.003 82.5107C33.6175 82.3762 34.267 82.3251 34.9272 82.3776C35.2566 82.4071 35.5887 82.4636 35.9155 82.5456C36.2422 82.6303 36.5636 82.7446 36.8769 82.8818C37.4981 83.1628 38.0722 83.546 38.5751 83.9898L38.6087 84.0193C39.1694 84.5128 39.2232 85.368 38.7297 85.9287C38.2363 86.4894 37.3811 86.5432 36.8204 86.0497C36.7585 85.9946 36.698 85.93 36.6483 85.8668C36.3847 85.528 36.0835 85.2335 35.7433 84.9915C35.5712 84.8745 35.3911 84.7669 35.2001 84.6755C35.0078 84.5868 34.8061 84.5115 34.5964 84.451C34.1742 84.3353 33.717 84.2829 33.2477 84.2977C33.0138 84.3044 32.7758 84.3286 32.5405 84.3676C32.4221 84.3864 32.3052 84.4106 32.1909 84.4375C32.133 84.451 32.0766 84.4658 32.0214 84.4805L31.9408 84.5034C31.9179 84.5101 31.8843 84.5222 31.8789 84.5209L31.4325 84.4496C31.0587 84.3891 30.8032 84.0382 30.8637 83.6644C30.8973 83.4425 31.0372 83.2623 31.2187 83.1642Z" fill="#030303"/>
<path d="M34.3559 92.9235C34.06 92.9235 33.7589 92.9073 33.4523 92.8724C29.9455 92.4838 26.1174 89.6775 26.0018 84.4376C25.9466 81.9447 27.1958 79.6924 29.3418 78.415C31.4434 77.1632 33.9673 77.1417 36.0931 78.3559C36.7385 78.7243 36.9617 79.5459 36.5933 80.1899C36.2249 80.8353 35.4033 81.0586 34.7592 80.6901C33.4872 79.9627 31.9759 79.9761 30.7187 80.7251C29.4157 81.5009 28.6587 82.8657 28.6923 84.3771C28.7502 87.0018 30.3368 89.8201 33.7508 90.1979C35.4195 90.3835 37.2952 89.7945 37.7255 88.0627C37.9043 87.3419 38.6331 86.9036 39.3538 87.0811C40.0745 87.2599 40.5142 87.9887 40.3354 88.7094C39.698 91.2763 37.3033 92.9235 34.3559 92.9235Z" fill="#030303"/>
<path d="M52.1934 97.6121C53.0485 99.3574 54.9727 100.428 57.1214 100.803C58.1944 100.999 59.3198 101.048 60.4439 100.974C61.5694 100.901 62.6962 100.706 63.7907 100.399C65.9851 99.7903 68.0316 98.7268 69.7917 97.3606C70.2274 97.0137 70.6523 96.6507 71.0409 96.254C71.4348 95.8614 71.8073 95.4486 72.1609 95.0129C72.8722 94.1443 73.4827 93.1869 74.0636 92.126L74.0716 92.1099C74.237 91.8087 74.6135 91.6984 74.9147 91.8625C75.1245 91.9781 75.2428 92.1973 75.2374 92.4205C75.2092 93.7611 74.8112 95.1003 74.1792 96.3132C73.5445 97.5287 72.6625 98.6057 71.6648 99.5322C70.6671 100.463 69.5362 101.233 68.3422 101.854C67.1455 102.474 65.8883 102.96 64.5948 103.311C63.3026 103.663 61.9741 103.89 60.6268 103.971C59.2795 104.047 57.9107 103.979 56.5526 103.699C55.1986 103.414 53.8405 102.931 52.6156 102.115C52.0078 101.705 51.4336 101.217 50.9442 100.641C50.4521 100.07 50.0433 99.4179 49.7462 98.7268C49.453 98.0437 49.769 97.253 50.4521 96.9599C51.1123 96.6762 51.8747 96.964 52.1893 97.6013L52.1934 97.6121Z" fill="#030303"/>
<path d="M71.5131 76.0768C71.8358 75.7716 72.1773 75.4811 72.539 75.2082C72.9034 74.942 73.2812 74.6838 73.6819 74.4566C74.084 74.232 74.5022 74.0222 74.9418 73.8488C75.3815 73.6767 75.8387 73.5315 76.312 73.4239C76.7853 73.3204 77.2748 73.2585 77.7709 73.2383C78.2671 73.2168 78.77 73.2437 79.2675 73.323C80.2638 73.4763 81.2333 73.8367 82.0966 74.3463C82.5309 74.5977 82.9356 74.8922 83.3134 75.2136C83.6926 75.5322 84.0422 75.8805 84.3595 76.2516C84.6796 76.62 84.9713 77.01 85.2322 77.4161C85.4957 77.8208 85.7297 78.2416 85.9341 78.6746C86.3469 79.5392 86.6521 80.4455 86.8605 81.3759C87.0663 82.3051 87.1685 83.2665 87.1429 84.2265C87.1147 86.0781 86.7395 87.9511 85.9986 89.6736C85.6316 90.5355 85.173 91.357 84.6459 92.1275C84.1148 92.8953 83.5111 93.6093 82.8495 94.2601C81.5211 95.559 79.9721 96.6158 78.2483 97.3487C77.3837 97.7117 76.4734 97.9927 75.4945 98.1366C75.0037 98.2052 74.4941 98.2388 73.9535 98.1998C73.413 98.1527 72.8308 98.0519 72.2203 97.7238C71.6112 97.3957 71.384 96.6347 71.7121 96.0255C72.0402 95.4164 72.8012 95.1892 73.4103 95.5173L73.4184 95.5213L73.4211 95.5227C73.5596 95.5993 73.8298 95.6652 74.1297 95.6827C74.4349 95.7002 74.7764 95.6773 75.1234 95.6235C75.8212 95.5119 76.5433 95.286 77.2371 94.9821C78.6301 94.3771 79.9263 93.4842 81.0128 92.4032C81.556 91.8613 82.0455 91.271 82.4757 90.6417C82.9006 90.0097 83.2691 89.3415 83.5608 88.6409C84.1511 87.2425 84.4469 85.7258 84.459 84.1875C84.4685 82.7206 84.092 81.228 83.4183 79.9144C82.7447 78.602 81.7967 77.455 80.6444 76.6846C79.492 75.9168 78.1259 75.5443 76.667 75.6721C76.3026 75.6976 75.9342 75.7541 75.5657 75.8361C75.1973 75.9182 74.8249 76.0176 74.4551 76.144C73.7129 76.3928 72.9827 76.7303 72.2459 77.0987L72.2338 77.1054C71.9205 77.2628 71.5386 77.1364 71.3813 76.8217C71.2522 76.5663 71.3141 76.2651 71.5131 76.0768Z" fill="#030303"/>
<path d="M36.5826 72.219C36.5826 72.219 36.9188 74.9754 37.7256 76.3201Z" fill="white"/>
<path d="M36.9482 72.1733C37.1634 72.4893 37.3099 72.82 37.4404 73.1441C37.5708 73.4695 37.6703 73.7976 37.7617 74.1216C37.8545 74.4457 37.9204 74.7738 37.9661 75.1018C38.0078 75.4353 38.032 75.762 38.0091 76.1466L38.0064 76.1829C37.9943 76.3913 37.8155 76.55 37.6071 76.5379C37.5466 76.5339 37.4888 76.5164 37.439 76.4881C37.3436 76.433 37.2588 76.3658 37.1741 76.2972C37.0921 76.2273 37.0235 76.1533 36.9536 76.0753C36.881 75.9974 36.8245 75.918 36.7654 75.836C36.7075 75.754 36.6524 75.6693 36.6054 75.5846C36.4077 75.243 36.284 74.8813 36.1993 74.5156C36.1146 74.1485 36.0662 73.7787 36.0635 73.4036C36.0635 73.0271 36.0917 72.6533 36.2154 72.262C36.2826 72.0496 36.5099 71.9312 36.7223 71.9985C36.8124 72.0267 36.885 72.0832 36.9348 72.1558L36.9482 72.1733Z" fill="#030303"/>
<path d="M53.4226 85.2108C53.5288 85.0992 53.6135 85.0347 53.6794 84.9863C53.7493 84.9298 53.8071 84.9042 53.8542 84.8868C53.9497 84.8478 53.9981 84.8975 54.0599 84.9271C54.1177 84.9594 54.1796 84.989 54.2441 85.0185C54.3073 85.0468 54.3678 85.0804 54.4337 85.1046C54.5642 85.157 54.6932 85.2135 54.8277 85.2606L55.028 85.3345L55.2338 85.3977C55.7824 85.5685 56.3552 85.6828 56.9401 85.7594C57.0867 85.7729 57.2346 85.7823 57.3825 85.7984C57.5304 85.8172 57.6796 85.8199 57.8289 85.8226C57.9781 85.8267 58.1287 85.8388 58.2793 85.8374L58.7338 85.828L58.9637 85.8253L59.1923 85.8065C59.3456 85.7971 59.5002 85.7836 59.6562 85.7783C59.8122 85.7715 59.9655 85.7433 60.1228 85.7272C60.2801 85.7137 60.4374 85.6949 60.5975 85.6841L60.6459 85.6814C60.9094 85.6653 61.1366 85.8656 61.1528 86.1292C61.1649 86.3295 61.0519 86.5084 60.8825 86.5904C60.5746 86.7383 60.26 86.8822 59.9372 87.0032C59.7746 87.0597 59.6078 87.1108 59.4424 87.1646L59.1923 87.2412C59.1076 87.2627 59.0229 87.2815 58.9369 87.3004L58.4219 87.4106C58.2484 87.4415 58.0736 87.4577 57.8975 87.4819C57.7213 87.5034 57.5452 87.5236 57.3677 87.5263C57.1902 87.5343 57.0114 87.5397 56.8339 87.5424C56.1185 87.533 55.3992 87.4362 54.6959 87.2466L54.4324 87.1726L54.1715 87.0839C53.9967 87.0287 53.8273 86.9548 53.6565 86.8835C53.5705 86.8499 53.4871 86.8055 53.4024 86.7665C53.3177 86.7275 53.2343 86.6859 53.1496 86.6388C52.9748 86.5702 52.804 86.4411 52.9479 85.8576C52.9815 85.7231 53.0474 85.6048 53.1375 85.5107L53.4226 85.2108Z" fill="#030303"/>
<path d="M50.6539 85.7835C50.7346 85.7445 50.8395 85.715 50.9309 85.68L51.2079 85.5805C51.298 85.5496 51.3867 85.5106 51.4741 85.481C51.5602 85.4407 51.6449 85.4124 51.7283 85.3761C52.0604 85.2376 52.3616 85.083 52.6413 84.9055C52.6762 84.8826 52.7152 84.8665 52.7475 84.8423L52.8483 84.7697C52.9142 84.7199 52.9922 84.685 53.0527 84.6272C53.1199 84.5761 53.1845 84.5236 53.2557 84.4752C53.2934 84.4524 53.3203 84.4187 53.3539 84.3919L53.4547 84.3071C53.6 84.2036 53.7183 84.0651 53.8702 83.9454C54.0141 83.8177 54.1472 83.6725 54.3274 83.5407L54.3866 83.4977C54.5721 83.3632 54.8316 83.4036 54.9674 83.5891C55.0279 83.6725 55.0522 83.7706 55.0454 83.8648C55.036 83.9858 55.0185 84.1068 54.9943 84.2265C54.9674 84.3448 54.9486 84.4685 54.9016 84.5814C54.8088 84.8073 54.7187 85.0426 54.5681 85.247C54.3019 85.6773 53.9012 86.0309 53.4561 86.2891C53.0097 86.55 52.5041 86.6979 52.0053 86.7288C51.8802 86.7342 51.7552 86.7342 51.6315 86.7301C51.5077 86.7194 51.384 86.7086 51.263 86.6858C51.142 86.6616 51.021 86.636 50.904 86.593C50.783 86.554 50.6754 86.5083 50.5464 86.4411C50.3796 86.355 50.3151 86.1493 50.4011 85.9825C50.4361 85.9153 50.4912 85.8642 50.5558 85.8333L50.6539 85.7835Z" fill="#030303"/>
<path d="M46.5891 74.0086C46.69 73.8836 46.7787 73.7894 46.8756 73.6846C46.9724 73.5837 47.0705 73.4869 47.1727 73.3928C47.3758 73.2045 47.5895 73.0311 47.8114 72.8657C48.2551 72.5363 48.7352 72.2525 49.2434 72.0105C50.2573 71.5305 51.4029 71.2293 52.6023 71.2239C53.7963 71.2024 55.0401 71.5291 56.0674 72.1624C56.577 72.4825 57.0462 72.8563 57.4268 73.2946C57.8194 73.7235 58.13 74.2063 58.3707 74.7132C58.5267 75.0426 58.3855 75.4366 58.056 75.5926C57.8463 75.6921 57.6096 75.6706 57.4268 75.5576L57.3918 75.5347C56.5514 75.0077 55.789 74.5545 55.0011 74.2708C54.6111 74.1229 54.2145 74.0234 53.8165 73.9481C53.4185 73.8674 53.0097 73.8352 52.5929 73.8271C51.7592 73.8096 50.8852 73.9212 49.9883 74.1202C49.5392 74.2157 49.0834 74.334 48.6236 74.4644L47.927 74.6688L47.5761 74.7764C47.4591 74.8073 47.3354 74.853 47.2319 74.8772L47.1458 74.8974C46.8487 74.9673 46.5515 74.7818 46.4816 74.4846C46.4399 74.3111 46.487 74.1377 46.5891 74.0086Z" fill="black"/>
<path d="M55.0281 59.5867C54.9689 59.6216 54.8856 59.662 54.8116 59.6996C54.735 59.7386 54.6597 59.779 54.583 59.8206L54.1285 60.068C53.8273 60.2375 53.5302 60.4082 53.2384 60.5884C52.6535 60.9434 52.0901 61.3226 51.5496 61.7206C50.4658 62.5153 49.4708 63.3933 48.5833 64.3681C48.1356 64.8509 47.7161 65.3591 47.3234 65.8916C46.9174 66.4133 46.5597 66.974 46.2007 67.5387C45.4974 68.6803 44.8897 69.8999 44.2604 71.1813L44.255 71.1921C44.091 71.5255 43.6889 71.6627 43.3555 71.4986C43.1094 71.3776 42.9709 71.1275 42.9803 70.8707C43.0368 69.3513 43.424 67.8426 44.0385 66.4187C44.3518 65.7087 44.7229 65.0203 45.1586 64.3708C45.2662 64.2081 45.3751 64.0454 45.4947 63.8895C45.6131 63.7335 45.726 63.5735 45.8484 63.4202C46.1025 63.1217 46.3472 62.8151 46.6229 62.5368C47.6986 61.3965 48.9733 60.4513 50.3542 59.7507C51.0467 59.4038 51.7647 59.1107 52.5042 58.8955C52.874 58.7866 53.2492 58.6979 53.6283 58.628C53.8179 58.593 54.0089 58.5648 54.2025 58.5419C54.2993 58.5312 54.3961 58.5231 54.4943 58.515C54.5951 58.5056 54.6866 58.5029 54.8035 58.4989C55.1128 58.4881 55.3723 58.7288 55.3831 59.0381C55.3911 59.2519 55.2782 59.4415 55.1061 59.5423L55.0281 59.5867Z" fill="#030303"/>
<path d="M72.1639 53.7012C72.3279 53.6299 72.461 53.5842 72.6089 53.5318C72.7542 53.4834 72.9007 53.4403 73.0473 53.404C73.3418 53.3274 73.6403 53.2763 73.9428 53.236C74.5479 53.162 75.1664 53.1566 75.7903 53.2239C77.0314 53.3597 78.302 53.8182 79.3683 54.6169C79.5001 54.7177 79.6305 54.8213 79.7569 54.9288L80.1213 55.269C80.2423 55.3833 80.3445 55.5137 80.4561 55.6361C80.5691 55.7585 80.6686 55.8889 80.7654 56.022C80.9657 56.2855 81.1338 56.5652 81.2952 56.8463C81.3718 56.9888 81.4377 57.1353 81.509 57.2806L81.6098 57.4997L81.6945 57.7229C82.1423 58.9143 82.2956 60.1527 82.1382 61.3373C82.0885 61.7097 81.7456 61.9733 81.3732 61.9235C81.1284 61.8913 80.9308 61.7326 80.838 61.5215L80.8313 61.5054C80.3956 60.5023 79.9922 59.5785 79.4961 58.7731L79.406 58.6212L79.3051 58.4786C79.2392 58.3832 79.1787 58.285 79.1115 58.1922C79.0389 58.1035 78.9717 58.0134 78.9044 57.922C78.8412 57.8278 78.7592 57.7512 78.688 57.6651L78.5817 57.5374C78.5468 57.4944 78.5051 57.4581 78.4674 57.4177C78.3895 57.3397 78.3155 57.2577 78.2348 57.1824L77.9928 56.9592C77.9081 56.8893 77.8193 56.8247 77.7373 56.7521C77.0462 56.2116 76.234 55.7921 75.317 55.4828C74.8598 55.3255 74.3785 55.1964 73.8809 55.0835C73.6322 55.0283 73.3781 54.9759 73.1226 54.9302L72.3602 54.7971L72.2903 54.785C71.981 54.7312 71.7739 54.4367 71.8277 54.1274C71.864 53.9298 71.9958 53.7751 72.1639 53.7012Z" fill="#030303"/>
<path d="M71.4752 31.6788C56.48 22.2437 18.9222 31.5457 30.0825 66.6402C30.4388 67.7603 33.4225 72.6883 33.9603 72.016C53.0727 48.1222 79.6182 47.0007 81.0434 54.2697C113.583 34.3694 109.245 11.8672 71.4752 31.6788Z" fill="#030303"/>
<path d="M43.2948 55.7258C44.8734 53.4279 46.5663 51.1998 48.3815 49.07C50.19 46.9334 52.1168 44.8922 54.1472 42.9587C54.6595 42.48 55.1705 42 55.6908 41.5294L57.2761 40.1444L58.9072 38.8146C59.4531 38.3735 60.0205 37.9594 60.5812 37.5385C62.8361 35.8685 65.1986 34.341 67.6741 33.0287C67.904 32.9063 68.1891 32.9937 68.3114 33.225C68.423 33.4348 68.3598 33.6902 68.1729 33.826L68.1689 33.8287C65.9355 35.4611 63.7438 37.123 61.6166 38.8657L60.8259 39.5259C60.561 39.745 60.2921 39.9588 60.0366 40.1874L58.4796 41.5361L56.9481 42.9157C56.4398 43.3782 55.9463 43.8555 55.4407 44.3208C53.444 46.21 51.5145 48.1718 49.6226 50.1766C47.7307 52.1814 45.9047 54.2548 44.0317 56.308L44.0303 56.3094C43.8542 56.5017 43.557 56.5151 43.3634 56.3403C43.1886 56.1816 43.163 55.9168 43.2948 55.7258Z" fill="#808080"/>
<path d="M42.1022 36.2155C44.0701 36.2155 45.6654 34.6708 45.6654 32.7652C45.6654 30.8597 44.0701 29.3149 42.1022 29.3149C40.1343 29.3149 38.5389 30.8597 38.5389 32.7652C38.5389 34.6708 40.1343 36.2155 42.1022 36.2155Z" fill="black"/>
<path d="M42.1023 36.2155C44.0702 36.2155 45.6655 34.6708 45.6655 32.7652C45.6655 30.8597 44.0702 29.3149 42.1023 29.3149C40.1344 29.3149 38.5391 30.8597 38.5391 32.7652C38.5391 34.6708 40.1344 36.2155 42.1023 36.2155Z" fill="#030303"/>
</svg>
