<svg width="128" height="128" viewBox="0 0 128 128" fill="none" xmlns="http://www.w3.org/2000/svg">
<mask id="path-1-inside-1" fill="white">
<path fill-rule="evenodd" clip-rule="evenodd" d="M128 96C110.325 96.0143 96.0002 110.336 96.0002 128L32.0528 128C32.0528 110.327 17.7141 96 0.0265003 96C0.0176655 96 0.00883064 96 -4.19629e-06 96L-1.39876e-06 32L0.0264955 32C17.7141 32 32.0527 17.6731 32.0527 1.52576e-06L96.0002 -1.39875e-06C96.0002 17.6643 110.325 31.9857 128 32L128 96Z"/>
</mask>
<path fill-rule="evenodd" clip-rule="evenodd" d="M128 96C110.325 96.0143 96.0002 110.336 96.0002 128L32.0528 128C32.0528 110.327 17.7141 96 0.0265003 96C0.0176655 96 0.00883064 96 -4.19629e-06 96L-1.39876e-06 32L0.0264955 32C17.7141 32 32.0527 17.6731 32.0527 1.52576e-06L96.0002 -1.39875e-06C96.0002 17.6643 110.325 31.9857 128 32L128 96Z" fill="#333333"/>
<path d="M96.0002 128L96.0002 142L110 142L110 128L96.0002 128ZM128 96L128.011 110L142 109.989L142 96L128 96ZM32.0528 128L18.0528 128L18.0528 142L32.0528 142L32.0528 128ZM-4.19629e-06 96L-14 96L-14 110L-4.80825e-06 110L-4.19629e-06 96ZM-1.39876e-06 32L0.00604932 18L-14 17.9939L-14 32L-1.39876e-06 32ZM0.0264955 32L0.0204448 46L0.0264949 46L0.0264955 32ZM32.0527 1.52576e-06L32.0528 -14L18.0528 -14L18.0527 9.13804e-07L32.0527 1.52576e-06ZM96.0002 -1.39875e-06L110 -7.86794e-07L110 -14L96.0002 -14L96.0002 -1.39875e-06ZM128 32L142 32L142 18.0113L128.011 18L128 32ZM110 128C110 118.075 118.052 110.008 128.011 110L127.989 82C102.597 82.0206 82.0002 102.597 82.0002 128L110 128ZM32.0528 142L96.0002 142L96.0002 114L32.0528 114L32.0528 142ZM0.0264997 110C9.99295 110 18.0528 118.07 18.0528 128L46.0528 128C46.0528 102.584 25.4353 82 0.0265009 82L0.0264997 110ZM-4.80825e-06 110C0.00793739 110 0.0153761 110 0.0192899 110C0.0242109 110 0.0256071 110 0.0264997 110L0.0265009 82C0.0185587 82 0.0111201 82 0.00720619 82C0.00228523 82 0.000889055 82 -3.58433e-06 82L-4.80825e-06 110ZM-14 32L-14 96L14 96L14 32L-14 32ZM0.0325462 18L0.00604932 18L-0.00604449 46L0.0204448 46L0.0325462 18ZM18.0527 9.13804e-07C18.0527 9.93031 9.99295 18 0.0264961 18L0.0264949 46C25.4353 46 46.0527 25.4159 46.0527 2.13772e-06L18.0527 9.13804e-07ZM96.0002 -14L32.0528 -14L32.0527 14L96.0002 14L96.0002 -14ZM128.011 18C118.052 17.9919 110 9.92529 110 -7.86794e-07L82.0002 -2.01071e-06C82.0002 25.4033 102.597 45.9794 127.989 46L128.011 18ZM142 96L142 32L114 32L114 96L142 96Z" fill="white" mask="url(#path-1-inside-1)"/>
<mask id="path-3-inside-2" fill="white">
<path fill-rule="evenodd" clip-rule="evenodd" d="M128 96C110.325 96.0143 96.0002 110.336 96.0002 128L32.0528 128C32.0528 110.327 17.7141 96 0.0265003 96C0.0176655 96 0.00883064 96 -4.19629e-06 96L-1.39876e-06 32L0.0264955 32C17.7141 32 32.0527 17.6731 32.0527 1.52576e-06L96.0002 -1.39875e-06C96.0002 17.6643 110.325 31.9857 128 32L128 96Z"/>
</mask>
<path d="M96.0002 128L96.0002 140L108 140L108 128L96.0002 128ZM128 96L128.01 108L140 107.99L140 96L128 96ZM32.0528 128L20.0528 128L20.0528 140L32.0528 140L32.0528 128ZM-4.19629e-06 96L-12 96L-12 108L-4.72083e-06 108L-4.19629e-06 96ZM-1.39876e-06 32L0.00517948 20L-12 19.9948L-12 32L-1.39876e-06 32ZM0.0264955 32L0.0213146 44L0.026495 44L0.0264955 32ZM32.0527 1.52576e-06L32.0528 -12L20.0528 -12L20.0527 1.00123e-06L32.0527 1.52576e-06ZM96.0002 -1.39875e-06L108 -8.74217e-07L108 -12L96.0002 -12L96.0002 -1.39875e-06ZM128 32L140 32L140 20.0097L128.01 20L128 32ZM108 128C108 116.969 116.948 108.009 128.01 108L127.99 84C103.701 84.0197 84.0002 103.702 84.0002 128L108 128ZM32.0528 140L96.0002 140L96.0002 116L32.0528 116L32.0528 140ZM0.0264998 108C11.096 108 20.0528 116.964 20.0528 128L44.0528 128C44.0528 103.69 24.3322 84 0.0265008 84L0.0264998 108ZM-4.72083e-06 108C0.00743394 108 0.0144454 108 0.0184279 108C0.0232802 108 0.0251036 108 0.0264998 108L0.0265008 84C0.0190622 84 0.0120508 84 0.00806823 84C0.00321593 84 0.00139251 84 -3.67176e-06 84L-4.72083e-06 108ZM-12 32L-12 96L12 96L12 32L-12 32ZM0.0316764 20L0.00517948 20L-0.00518991 44L0.0213146 44L0.0316764 20ZM20.0527 1.00123e-06C20.0527 11.0364 11.096 20 0.026496 20L0.026495 44C24.3323 44 44.0527 24.3098 44.0527 2.0503e-06L20.0527 1.00123e-06ZM96.0002 -12L32.0528 -12L32.0527 12L96.0002 12L96.0002 -12ZM128.01 20C116.948 19.991 108 11.0309 108 -8.74217e-07L84.0002 -1.92329e-06C84.0002 24.2977 103.701 43.9803 127.99 44L128.01 20ZM140 96L140 32L116 32L116 96L140 96Z" fill="#333333" mask="url(#path-3-inside-2)"/>
<mask id="path-5-inside-3" fill="white">
<path fill-rule="evenodd" clip-rule="evenodd" d="M128 96C110.325 96.0143 96.0002 110.336 96.0002 128L32.0528 128C32.0528 110.327 17.7141 96 0.0265003 96C0.0176655 96 0.00883064 96 -4.19629e-06 96L-1.39876e-06 32L0.0264955 32C17.7141 32 32.0527 17.6731 32.0527 1.52576e-06L96.0002 -1.39875e-06C96.0002 17.6643 110.325 31.9857 128 32L128 96Z"/>
</mask>
<path d="M96.0002 128L96.0002 136L104 136L104 128L96.0002 128ZM128 96L128.006 104L136 103.994L136 96L128 96ZM32.0528 128L24.0528 128L24.0528 136L32.0528 136L32.0528 128ZM-4.19629e-06 96L-8 96L-8 104L-4.54599e-06 104L-4.19629e-06 96ZM-1.39876e-06 32L0.00345507 24L-8 23.9965L-8 32L-1.39876e-06 32ZM0.0264955 32L0.023039 40L0.0264951 40L0.0264955 32ZM32.0527 1.52576e-06L32.0527 -8L24.0527 -8L24.0527 1.17607e-06L32.0527 1.52576e-06ZM96.0002 -1.39875e-06L104 -1.04906e-06L104 -8L96.0002 -8L96.0002 -1.39875e-06ZM128 32L136 32L136 24.0065L128.006 24L128 32ZM104 128C104 114.758 114.74 104.011 128.006 104L127.994 88C105.909 88.0179 88.0002 105.913 88.0002 128L104 128ZM32.0528 136L96.0002 136L96.0002 120L32.0528 120L32.0528 136ZM0.0265 104C13.302 104 24.0528 114.751 24.0528 128L40.0528 128C40.0528 105.902 22.1262 88 0.0265007 88L0.0265 104ZM-4.54599e-06 104C0.00642703 104 0.0125687 104 0.0167038 104C0.0214035 104 0.0240967 104 0.0265 104L0.0265007 88C0.0200691 88 0.0139274 88 0.0097923 88C0.00509259 88 0.00239941 88 -3.8466e-06 88L-4.54599e-06 104ZM-8 32L-8 96L8 96L8 32L-8 32ZM0.029952 24L0.00345507 24L-0.00345023 40L0.023039 40L0.029952 24ZM24.0527 1.17607e-06C24.0527 13.2487 13.302 24 0.0264958 24L0.0264951 40C22.1262 40 40.0527 22.0976 40.0527 1.87545e-06L24.0527 1.17607e-06ZM96.0002 -8L32.0527 -8L32.0527 8L96.0002 8L96.0002 -8ZM128.006 24C114.74 23.9893 104 13.242 104 -1.04906e-06L88.0002 -1.74844e-06C88.0002 22.0866 105.909 39.9821 127.994 40L128.006 24ZM136 96L136 32L120 32L120 96L136 96Z" fill="white" mask="url(#path-5-inside-3)"/>
</svg>
