<svg width="128" height="128" viewBox="0 0 128 128" fill="none" xmlns="http://www.w3.org/2000/svg">
<g clip-path="url(#clip0)">
<path d="M60.4508 52.8213C60.4508 52.8213 48.7494 31.2673 22.2691 23.4156C21.961 32.652 24.2701 37.7342 27.9639 42.8127C27.1954 51.1246 28.8883 57.4394 39.2011 64.9829C38.4327 70.3695 40.6885 80.302 51.3628 81.9187C51.8231 85.6125 50.6971 92.4903 62.543 93.1636C53.9952 93.0647 51.0128 88.0852 50.6324 81.428C44.1274 80.8878 29.9154 63.7048 21.4931 65.4432C35.6063 76.224 39.3267 82.5236 39.3267 82.5236C10.8569 71.7428 1.0271 83.7599 1.0271 83.7599C37.36 74.3752 52.9605 112.195 78.6191 99.1589C88.0951 94.3467 89.7042 89.7666 89.8564 89.4584C91.2411 90.7937 92.3709 89.3557 92.7817 88.8422C97.5559 89.3025 107.1 87.6097 108.177 77.1408C114.336 73.1389 117.261 71.2901 116.645 61.8978C121.111 55.895 123.264 50.9687 121.111 45.7342C124.805 41.2682 126.193 28.7984 126.193 28.7984C126.193 28.7984 102.79 34.0329 97.5559 48.9677C94.6305 41.1161 92.7817 39.8836 88.7798 36.3419C89.3961 33.8769 88.932 32.0319 88.932 32.0319C88.932 32.0319 88.7798 21.2549 83.3894 29.5669C78.0028 33.8769 73.9971 32.4922 70.1474 34.6491C66.2977 36.806 59.9905 43.7371 60.4508 52.8213Z" fill="#707070"/>
<path d="M25.4303 69.3956C25.4303 69.3956 24.3652 74.5958 25.8678 76.2848C31.5017 78.1641 35.4541 76.2696 35.4541 76.2696L25.4303 69.3956Z" fill="#B8B3AD"/>
<path d="M18.3585 78.7841C18.3585 78.7841 24.1902 71.446 35.4579 76.9544C38.9615 81.7095 39.3381 82.5198 39.3381 82.5198C39.3381 82.5198 25.6205 79.0352 18.3585 78.7841Z" fill="#B8B3AD"/>
<path d="M85.5996 61.544C87.5511 34.6529 63.6348 39.2711 68.9719 59.5925C68.9719 59.5925 58.9063 68.1936 77.2839 70.4722C87.0147 71.6781 89.2439 71.3053 92.078 70.7271C94.912 70.1527 99.6595 63.2178 93.1507 62.6662C86.6419 62.1146 85.5996 61.544 85.5996 61.544Z" fill="#E0DBD3"/>
<path d="M89.3961 62.1603C90.115 55.6933 91.4503 48.9182 95.3495 46.5597C97.5064 50.048 98.0161 56.1042 92.0665 63.5982C91.0394 63.1874 89.3961 62.1603 89.3961 62.1603Z" fill="#E0DBD3"/>
<path d="M80.8787 64.7281C80.8787 64.7281 88.8825 58.1584 93.4018 65.6524C91.3628 65.8921 89.4493 65.9149 87.7603 65.8236C87.4522 67.6039 85.7213 68.5283 84.5763 68.3229C82.9672 68.0262 80.8787 64.7281 80.8787 64.7281Z" fill="#F2F2F2"/>
<path d="M66.3015 74.9915C48.7494 74.1698 46.2881 47.176 37.3561 31.0619C37.3561 31.0619 60.3481 47.0733 66.1988 62.1603" fill="#B8B3AD"/>
<path d="M83.9068 96.766C84.2758 96.1954 85.8849 97.6219 86.4365 99.2919C87.0109 101.019 86.3604 103.343 85.6985 103.355C84.66 103.37 84.3671 102.122 84.4317 100.346C84.5459 97.2415 83.515 97.3709 83.9068 96.766Z" fill="black"/>
<path d="M83.8421 96.865C84.4432 96.5455 85.1545 98.5768 84.8274 100.304C84.4888 102.092 83.0052 103.861 82.2102 103.496C81.2629 103.062 81.6434 101.772 82.5639 100.251C84.1693 97.5878 83.2068 97.2036 83.8421 96.865Z" fill="black"/>
<path d="M96.9929 48.2031C101.303 41.6335 110.642 33.2188 116.082 32.2944C111.258 40.7091 105.305 62.3658 96.582 64.3173C95.3495 62.5712 92.8882 62.7766 92.8882 62.7766C92.8882 62.7766 98.427 53.643 96.9929 48.2031Z" fill="#B8B3AD"/>
<path d="M84.8236 74.2648C85.767 84.7413 76.2568 89.0514 73.4874 91.4137C70.718 93.776 74.3091 98.0861 76.6182 95.777C76.31 101.833 85.0861 102.704 88.7798 89.1541C92.7817 92.7451 96.8103 85.776 88.7874 73.1312C86.2235 73.4394 84.8236 74.2648 84.8236 74.2648Z" fill="#F2F2F2"/>
<path d="M77.3219 95.8986C77.786 97.1311 78.9957 98.0555 80.2701 98.2495C81.5559 98.4625 82.8797 97.9414 83.941 96.9942C85.01 96.0546 85.8583 94.7764 86.5392 93.4031C87.2201 92.026 87.7641 90.5538 88.1978 89.036L90.389 89.6751C89.9058 91.2842 89.3276 92.8896 88.5173 94.415C88.1255 95.1834 87.6538 95.9214 87.1365 96.6366C86.6077 97.3441 85.9914 98.0099 85.2801 98.5919C84.5687 99.1701 83.7394 99.6608 82.815 99.9499C81.8982 100.25 80.8749 100.311 79.9125 100.106C77.9914 99.6913 76.3328 98.2039 75.9334 96.26L77.3219 95.8986Z" fill="black"/>
<path d="M88.776 86.3504C88.9586 86.9362 89.1564 87.484 89.4189 87.9519C89.6814 88.4122 90.0085 88.8002 90.3281 88.9904C90.4878 89.0855 90.6286 89.1273 90.7275 89.1273C90.8302 89.1273 90.8873 89.1083 90.9671 89.0627C91.047 89.0208 91.1535 88.9219 91.2639 88.7812C91.3704 88.6366 91.4693 88.4388 91.553 88.222C91.8801 87.3204 91.941 86.1297 91.8611 84.9657C91.7926 83.7902 91.5834 82.5881 91.3209 81.3936C91.047 80.1991 90.7085 79.0047 90.3166 77.8254L90.0161 76.9428C89.9096 76.6499 89.8259 76.4065 89.7004 76.1516C89.4607 75.6571 89.1716 75.1968 88.8064 74.843C88.445 74.4816 88.0228 74.2229 87.5853 74.105C87.1478 73.9909 86.7142 74.0365 86.3376 74.2077C85.5768 74.5653 85.1165 75.5239 85.086 76.5929C85.0708 76.726 85.086 76.863 85.086 76.9961L85.105 77.4868C85.1127 77.8254 85.1127 78.164 85.1012 78.5025C85.0746 79.1797 85.0023 79.8644 84.873 80.5377C84.6181 81.892 84.1122 83.212 83.4046 84.4027C82.6932 85.5933 81.7917 86.6471 80.814 87.5639C79.8364 88.4883 78.7864 89.2871 77.7669 90.0517C76.7513 90.8126 75.7508 91.5734 75.0014 92.3494C74.6324 92.7374 74.3433 93.1216 74.1987 93.4944C74.1226 93.6808 74.0694 93.8672 74.0542 94.0689C74.0466 94.1183 74.0465 94.1716 74.0465 94.221V94.2971L74.0504 94.3428C74.0504 94.4074 74.0656 94.4645 74.077 94.5254C74.1493 94.7612 74.4155 95.0275 74.8036 95.172C75.1878 95.3128 75.6557 95.3242 76.116 95.1911C76.5763 95.0541 77.0252 94.7726 77.417 94.3732C77.8088 93.9738 78.1436 93.4716 78.4365 92.9238L78.4403 92.9162C78.5164 92.7755 78.6875 92.726 78.8283 92.7983C78.9348 92.8554 78.9881 92.9695 78.9767 93.0836C78.9006 93.7493 78.7066 94.4226 78.3566 95.0541C77.9952 95.6742 77.4702 96.2714 76.7589 96.6404C76.0589 97.0246 75.1992 97.1844 74.3471 97.017C73.5026 96.8725 72.6238 96.3399 72.1483 95.4193C72.038 95.1911 71.9467 94.9438 71.901 94.6927L71.8668 94.5025L71.8516 94.3428C71.8402 94.2362 71.8326 94.1297 71.8326 94.0194C71.825 93.5857 71.8896 93.1369 72.0228 92.726C72.2929 91.8929 72.7836 91.231 73.2857 90.7022C74.309 89.6485 75.4198 88.9638 76.4469 88.222C78.5164 86.7916 80.4336 85.3004 81.6738 83.3299C82.29 82.3523 82.7389 81.2795 82.9862 80.1383C83.1117 79.5677 83.1916 78.9856 83.2296 78.396C83.2486 78.0993 83.2563 77.8026 83.2601 77.5059L83.2563 77.0418C83.2601 76.8592 83.2486 76.6804 83.2639 76.494C83.3057 75.7598 83.4541 74.999 83.8269 74.2838C84.1806 73.5724 84.7969 72.9295 85.5691 72.5605C86.3452 72.1953 87.2505 72.1383 88.0418 72.3513C88.8407 72.5567 89.5292 72.9866 90.077 73.5116C90.6324 74.0327 91.0622 74.6414 91.4008 75.2767C91.5682 75.5886 91.7242 75.9348 91.8459 76.2315L92.2035 77.1331C92.6714 78.3428 93.0936 79.5791 93.4436 80.8458C93.7936 82.1164 94.0599 83.4212 94.1816 84.7793C94.2311 85.4602 94.2501 86.1526 94.193 86.8639C94.1398 87.5753 94.0104 88.3019 93.7175 89.0475C93.5691 89.4203 93.3751 89.7931 93.1012 90.1544C92.8197 90.512 92.4545 90.8658 91.9562 91.0903C91.4693 91.3261 90.8644 91.387 90.3395 91.2729C89.8145 91.1549 89.3732 90.9001 89.0385 90.5957C88.3651 89.9833 88.0266 89.2301 87.8592 88.5035C87.688 87.7731 87.6956 87.0465 87.8288 86.3694C87.882 86.1031 88.1407 85.9281 88.407 85.9814C88.5896 86.0194 88.7303 86.1525 88.7798 86.3161L88.776 86.3504Z" fill="black"/>
<path d="M65.2668 62.6662C64.9434 62.1374 64.6277 61.6048 64.3195 61.0723L63.3419 59.4974C62.6876 58.4513 62.0181 57.4165 61.3143 56.4047C59.922 54.3733 58.4574 52.3875 56.913 50.4665C53.8355 46.6167 50.4042 43.0409 46.7028 39.777C42.9938 36.5207 39.049 33.5231 34.8569 30.9173C30.6724 28.3153 26.2863 26.0214 21.6871 24.2829L23.5816 23.1151C23.3153 25.9111 23.3419 28.7109 23.8516 31.4118C24.3728 34.1051 25.3695 36.6881 26.8721 38.9933C28.3709 41.3062 30.3338 43.3224 32.4945 45.175C33.5825 46.0956 34.7009 47.0048 35.8611 47.8949C36.4394 48.34 37.0176 48.8003 37.5882 49.2758C38.1588 49.7513 38.7332 50.2458 39.262 50.8126C39.5055 51.0751 39.4941 51.4822 39.2316 51.7256C38.9995 51.9425 38.6457 51.9577 38.3985 51.7713L38.3909 51.7637C37.2839 50.9268 36.0209 50.204 34.7884 49.4165C33.5521 48.6329 32.2853 47.8455 31.0832 46.9439C28.6638 45.175 26.4118 43.0371 24.6467 40.4845C23.7641 39.214 22.9957 37.8483 22.3833 36.418C21.767 34.9876 21.3257 33.4812 21.0176 31.9634C20.3937 28.9201 20.3899 25.8046 20.7703 22.7917L20.9377 21L22.6648 21.6277C27.4922 23.3776 32.1179 25.6372 36.4698 28.3229C40.8179 31.0086 44.9491 34.048 48.7646 37.4527C52.5839 40.8459 56.1217 44.5587 59.3057 48.5682C60.8921 50.573 62.3795 52.6652 63.7261 54.8412C64.3956 55.933 65.0347 57.0437 65.651 58.1621L66.5259 59.8702C66.8036 60.4484 67.0775 61.0266 67.34 61.6048C67.6063 62.1907 67.3476 62.8792 66.7656 63.1455C66.2254 63.3928 65.5901 63.1912 65.2896 62.6928L65.2668 62.6662Z" fill="black"/>
<path d="M29.4931 43.5773C29.1774 44.981 28.9948 46.3999 29.048 47.8112C29.1051 49.2187 29.3409 50.6224 29.8165 51.9653C30.2882 53.3081 30.9653 54.5939 31.787 55.8074C32.601 57.0247 33.5597 58.1621 34.6096 59.2311C36.7095 61.3804 39.1669 63.2292 41.7347 64.9334C44.3062 66.6529 47.0147 68.1669 49.7118 69.8559C49.9401 70.0005 50.0086 70.301 49.8678 70.5292C49.7385 70.7347 49.4836 70.8107 49.2668 70.7232L49.2553 70.7194C47.8174 70.126 46.3452 69.5402 44.9035 68.8859C43.4579 68.2354 42.0276 67.5316 40.6315 66.7594C37.8355 65.2149 35.1536 63.3814 32.7456 61.1522C31.5473 60.03 30.4289 58.8012 29.4437 57.447C28.4622 56.0889 27.6329 54.5901 27.0242 52.9848C26.4194 51.3795 26.0542 49.66 25.9971 47.933C25.9325 46.2059 26.1303 44.4826 26.5449 42.8355C26.7504 42.0214 27.5758 41.5269 28.3899 41.7323C29.1926 41.9339 29.6833 42.7366 29.5045 43.5392L29.4931 43.5773Z" fill="black"/>
<path d="M39.7033 64.7623C39.7527 65.4242 39.7717 66.0937 39.844 66.7518C39.9277 67.4061 39.981 68.0718 40.1179 68.7147C40.3271 70.0195 40.6847 71.2787 41.1374 72.4998C42.0428 74.9382 43.5606 77.1066 45.6034 78.7271C47.6424 80.3591 50.1569 81.409 52.7855 82.0899C54.1017 82.4361 55.456 82.691 56.8217 82.9344C57.5064 83.0562 58.1949 83.1703 58.8873 83.3072C59.5796 83.448 60.2796 83.5887 60.9871 83.8474C61.2344 83.9387 61.3599 84.2126 61.2686 84.4599C61.1811 84.6957 60.9263 84.8251 60.6866 84.7528L60.679 84.749C60.0665 84.5664 59.3856 84.4675 58.7085 84.3762C58.0276 84.2849 57.339 84.2126 56.6429 84.1365C55.2544 83.9806 53.8507 83.8094 52.4546 83.5317C49.6662 82.9877 46.8473 82.0443 44.4089 80.3324C41.9667 78.6396 40.019 76.1936 38.8131 73.4813C38.2082 72.127 37.7175 70.7195 37.3942 69.293C37.2002 68.5816 37.0937 67.8626 36.9567 67.1398C36.8312 66.4209 36.7665 65.6981 36.6676 64.9753C36.5535 64.1422 37.1393 63.3738 37.9724 63.2635C38.8055 63.1494 39.5739 63.7352 39.6842 64.5683C39.688 64.5949 39.6918 64.6253 39.6918 64.652L39.7033 64.7623Z" fill="black"/>
<path d="M52.0247 83.6762C51.941 84.0984 51.9867 84.631 52.1084 85.175C52.2796 85.719 52.4888 86.2782 52.816 86.8031C53.436 87.8645 54.3148 88.8269 55.3229 89.6296C56.3347 90.436 57.4874 91.0865 58.7161 91.5887C59.9524 92.068 61.261 92.3723 62.5963 92.5663L62.6191 92.5701C62.9501 92.6158 63.1783 92.9239 63.1288 93.2511C63.0832 93.563 62.8055 93.7836 62.4974 93.7684C61.0594 93.6847 59.6139 93.4717 58.2064 93.0571C56.8065 92.6196 55.4522 91.9995 54.2083 91.1664C52.9681 90.3371 51.8345 89.2986 50.9329 88.0242C50.4688 87.3966 50.1074 86.6738 49.8069 85.9092C49.5482 85.1141 49.3657 84.2506 49.4684 83.2805C49.5444 82.5692 50.1797 82.0518 50.8911 82.1279C51.6025 82.204 52.1198 82.8393 52.0437 83.5506C52.0399 83.5887 52.0361 83.6229 52.0285 83.661L52.0247 83.6762Z" fill="black"/>
<path d="M34.2368 27.6267C36.4584 29.1255 38.2919 31.1265 39.7755 33.2834C41.2743 35.4403 42.4042 37.7836 43.3894 40.1383C44.3671 42.5007 45.1964 44.8935 45.9648 47.2824C46.7256 49.6752 47.4484 52.0566 48.2168 54.4037C48.9814 56.7508 49.8031 59.0599 50.796 61.2701C51.7736 63.484 52.9377 65.5839 54.368 67.4631C55.7984 69.3385 57.5635 70.921 59.6139 72.0851C60.641 72.6633 61.7289 73.1426 62.8626 73.5306L63.7261 73.7893C64.0152 73.8692 64.3005 73.9833 64.601 74.0252C65.1945 74.1393 65.7879 74.2724 66.3889 74.398L66.4422 74.4094C66.7465 74.4741 66.9405 74.7708 66.8759 75.0713C66.8188 75.349 66.5601 75.5392 66.2824 75.5164C65.6471 75.4669 65.0043 75.4289 64.3614 75.368C64.038 75.3528 63.7261 75.2691 63.4065 75.2159L62.4517 75.0371C62.1284 74.9876 61.8164 74.8963 61.5045 74.8012L60.5649 74.5235C60.4089 74.4741 60.2491 74.4322 60.097 74.3713L59.6443 74.1773L58.7351 73.7893C56.3423 72.6823 54.193 70.9933 52.5078 68.9771C50.7922 66.9724 49.4836 64.6975 48.3728 62.3847C47.2772 60.0604 46.3832 57.6752 45.5578 55.2938C44.7361 52.9087 44.0057 50.5197 43.2335 48.165C42.465 45.8064 41.6928 43.4707 40.7684 41.2187C39.8516 38.9667 38.7827 36.8022 37.5007 34.8126C36.2111 32.8269 34.6438 31.0656 32.7874 29.6733L32.7798 29.6695C32.2244 29.2548 32.1141 28.4674 32.5287 27.912C32.932 27.3756 33.6852 27.2577 34.2368 27.6267Z" fill="black"/>
<path d="M109.615 77.5821C109.691 79.6173 109.234 81.5802 108.39 83.3681C107.549 85.1522 106.267 86.7537 104.677 87.952C103.091 89.1541 101.212 89.953 99.3019 90.2459C97.3884 90.5464 95.494 90.3942 93.6947 90.0252C93.2382 89.9301 92.9453 89.4851 93.0366 89.0286C93.1202 88.6291 93.474 88.3514 93.8658 88.3552H93.9115C95.5967 88.3667 97.2363 88.2335 98.7617 87.8113C100.283 87.3814 101.657 86.632 102.794 85.6353C103.928 84.6349 104.852 83.3909 105.484 81.9948C106.115 80.6101 106.511 79.0923 106.598 77.6201L106.602 77.5478C106.651 76.7185 107.363 76.0833 108.192 76.1327C108.976 76.1784 109.584 76.8174 109.615 77.5821Z" fill="black"/>
<path d="M100.112 78.2249C100.706 77.9586 101.234 77.8102 101.775 77.6352L103.361 77.1521C104.403 76.825 105.419 76.4902 106.397 76.0984C108.348 75.3185 110.166 74.3561 111.604 73.0475C113.031 71.7351 114.081 70.1183 114.636 68.2467C115.226 66.3865 115.355 64.3285 115.329 62.2287V62.1792C115.317 61.4374 115.914 60.825 116.656 60.8173C117.333 60.8097 117.904 61.3043 118.003 61.9548C118.182 63.1188 118.307 64.3057 118.258 65.5154C118.246 66.7213 118.048 67.95 117.721 69.1559C117.075 71.5715 115.602 73.8387 113.666 75.4289C111.737 77.0456 109.447 78.0347 107.165 78.5672C106.02 78.8335 104.867 79.0085 103.726 79.0922C103.155 79.1416 102.585 79.1569 102.026 79.1759C101.47 79.1873 100.892 79.1835 100.413 79.2063L100.348 79.2101C100.063 79.2215 99.8231 79.0009 99.8117 78.7156C99.8003 78.4988 99.9296 78.3085 100.112 78.2249Z" fill="black"/>
<path d="M106.853 65.8806C106.899 65.854 106.944 65.8274 106.994 65.8084L107.1 65.7665L107.211 65.7247L107.424 65.6448L107.835 65.485L108.649 65.1617C109.189 64.941 109.721 64.709 110.246 64.4617C111.292 63.9634 112.32 63.4346 113.293 62.8374C115.241 61.6543 117.021 60.2354 118.391 58.5654C119.738 56.8802 120.654 54.9591 120.94 52.9087L121 52.5245L121.027 52.1365C121.042 51.8778 121.08 51.6191 121.077 51.3566C121.065 50.8317 121.08 50.3067 121.012 49.7779C120.981 49.2491 120.883 48.7166 120.799 48.184C120.768 47.9177 120.685 47.6514 120.624 47.3889L120.445 46.5863L120.422 46.4874C120.24 45.6695 120.753 44.8554 121.571 44.6728C122.343 44.4978 123.108 44.9505 123.351 45.6885C123.743 46.902 124.082 48.1536 124.204 49.466C124.363 50.767 124.31 52.1136 124.078 53.4336C124.006 53.7608 123.968 54.0956 123.869 54.4151L123.587 55.3813C123.344 56.009 123.1 56.6329 122.777 57.2149C122.161 58.398 121.358 59.4593 120.472 60.4065C118.676 62.2858 116.519 63.659 114.286 64.7052C113.164 65.2225 112.019 65.6676 110.851 66.0252C110.269 66.2078 109.68 66.3676 109.094 66.5159C108.801 66.5882 108.504 66.6605 108.207 66.7251L107.766 66.8164L107.549 66.8583L107.447 66.8773C107.439 66.8773 107.424 66.8811 107.427 66.8811C107.435 66.8773 107.443 66.8735 107.45 66.8697C107.466 66.8621 107.477 66.8507 107.488 66.8355C107.226 67.0104 106.868 66.9382 106.693 66.6757C106.518 66.4132 106.591 66.0556 106.853 65.8806Z" fill="black"/>
<path d="M112.894 50.8278C114.746 49.3062 116.736 48.0356 118.429 46.5863C120.133 45.1407 121.533 43.5126 122.511 41.6333C123.504 39.7617 124.108 37.6771 124.481 35.5049C124.862 33.3328 124.999 31.077 125.132 28.7945L126.68 30.0917C126.01 30.1944 125.253 30.3542 124.538 30.5216C123.812 30.6928 123.093 30.883 122.374 31.0922C120.936 31.5106 119.517 31.9976 118.125 32.5492C115.336 33.6524 112.65 35.018 110.147 36.65C107.64 38.2819 105.32 40.1878 103.273 42.3599C101.223 44.5244 99.4693 46.9667 98.058 49.5915V49.5953C97.7803 50.1126 97.1298 50.3105 96.6124 50.029C96.0989 49.7513 95.9048 49.116 96.1711 48.5986C97.6319 45.7836 99.4617 43.1512 101.607 40.8116C103.749 38.4683 106.187 36.4027 108.812 34.6338C111.437 32.8611 114.248 31.3813 117.166 30.1754C118.627 29.5706 120.11 29.0342 121.624 28.5701C122.381 28.338 123.142 28.125 123.914 27.931C124.694 27.737 125.44 27.5658 126.292 27.4213L127.68 27.1436L127.84 28.7184C128.084 31.1188 128.068 33.5763 127.68 36.0337C127.315 38.4873 126.516 40.9562 125.181 43.1626C124.515 44.2658 123.694 45.2738 122.788 46.1792C121.864 47.0618 120.86 47.8378 119.81 48.4845C117.706 49.7931 115.492 50.6566 113.32 51.5316H113.316C113.103 51.6153 112.863 51.5126 112.776 51.3033C112.704 51.1321 112.761 50.9381 112.894 50.8278Z" fill="black"/>
<path d="M97.2097 65.2796C96.776 65.2796 96.3614 65.0323 96.1712 64.6101C95.9087 64.0357 96.1636 63.3585 96.738 63.0999C102.775 60.3533 105.548 53.3576 108.481 45.951C110.547 40.7394 112.681 35.349 116.097 31.446C116.512 30.9705 117.234 30.9249 117.706 31.3395C118.182 31.7542 118.227 32.4769 117.813 32.9486C114.655 36.5549 112.593 41.7589 110.6 46.7879C107.629 54.2896 104.555 62.0461 97.6814 65.1731C97.5292 65.2454 97.3695 65.2796 97.2097 65.2796Z" fill="black"/>
<path d="M71.7755 60.4675C70.9082 60.243 70.0979 60.243 69.417 60.5588C69.242 60.6158 69.0861 60.7299 68.9263 60.8136C68.7779 60.9278 68.6258 61.0229 68.4926 61.156C68.3481 61.2701 68.2377 61.4223 68.1122 61.5554C68.0095 61.7114 67.8878 61.8483 67.8079 62.0119C67.4313 62.6434 67.2829 63.389 67.3666 64.1194C67.4731 64.8498 67.8231 65.5573 68.3366 66.1812C69.3904 67.4366 71.0147 68.3039 72.7037 68.9506C74.4118 69.5859 76.2339 70.0081 78.0827 70.3733H78.0865C78.2843 70.4113 78.4099 70.6016 78.3718 70.7994C78.3376 70.9744 78.1854 71.0923 78.0143 71.0923C76.0932 71.0733 74.1569 70.8716 72.2511 70.3505C71.7793 70.1983 71.3 70.0842 70.8359 69.8826L70.1398 69.6011L69.4589 69.2625C68.5573 68.787 67.6938 68.1745 66.9672 67.3719C66.2368 66.573 65.689 65.5307 65.5102 64.3819C65.3542 63.2368 65.5673 62.0081 66.214 61.0343C66.5183 60.5397 66.9291 60.1099 67.4046 59.7751C67.8687 59.4289 68.4203 59.1893 68.9872 59.0714C70.1322 58.8127 71.3305 59.1741 72.1179 59.8512C72.2663 59.9805 72.2853 60.2088 72.156 60.3571C72.0647 60.4637 71.9239 60.5017 71.7946 60.4713L71.7755 60.4675Z" fill="black"/>
<path d="M85.1697 33.892C86.0751 33.3747 86.8397 32.6709 87.2658 31.8378C87.6995 31.0161 87.7908 30.0765 87.5473 29.2739C87.4294 28.8782 87.2278 28.5207 86.9881 28.281C86.7484 28.0375 86.4898 27.9424 86.3414 27.9691C86.193 27.9919 86.0561 28.0604 85.8317 28.262C85.6148 28.4598 85.3828 28.7831 85.1811 29.1521L85.1051 29.2967L85.067 29.369L85.01 29.4679L84.7741 29.8711C84.6105 30.1374 84.4317 30.3999 84.2339 30.651C83.8421 31.1531 83.4008 31.6286 82.9139 32.0699C81.9477 32.9524 80.7798 33.6638 79.5587 34.1203C78.3376 34.5806 77.0937 34.8088 75.941 34.9344L74.2786 35.0979C73.7651 35.155 73.3124 35.2083 72.8293 35.311C70.9272 35.699 69.0822 36.5549 67.4845 37.757C65.8868 38.9629 64.5287 40.5112 63.5245 42.2686C62.5202 44.0299 61.8963 46.0119 61.7023 48.0585C61.4817 50.1089 61.7556 52.2087 62.3262 54.2401L62.33 54.2553C62.4555 54.7042 62.1968 55.1683 61.748 55.2976C61.3257 55.4156 60.8882 55.1873 60.7323 54.7879C59.9068 52.6348 59.4313 50.2991 59.4997 47.9291C59.5606 45.563 60.1426 43.1968 61.1926 41.0437C62.2349 38.8868 63.7565 36.9543 65.6091 35.4061C67.4617 33.854 69.6605 32.6709 72.0646 32.0471C72.6581 31.8911 73.2972 31.7732 73.8754 31.6895L75.5074 31.4802C76.5421 31.3319 77.4893 31.1645 78.3414 30.845C79.1973 30.5406 79.9581 30.0994 80.6391 29.5097C80.9776 29.2168 81.2972 28.8859 81.5977 28.5245L82.0504 27.9805L82.5601 27.3224C82.9938 26.7936 83.4959 26.2686 84.2035 25.8426C84.5535 25.6334 84.9567 25.4546 85.4132 25.3633C85.8659 25.2682 86.3642 25.2644 86.8321 25.3785C87.7793 25.6067 88.4603 26.2344 88.8749 26.8697C89.2972 27.5164 89.5102 28.2125 89.5901 28.9011C89.7499 30.282 89.3238 31.6514 88.5326 32.6671C87.7375 33.6904 86.6495 34.3409 85.5501 34.7327C85.3105 34.8202 85.0442 34.6909 84.9567 34.4512C84.8806 34.2344 84.9719 34.0024 85.1621 33.892H85.1697Z" fill="black"/>
<path d="M89.7803 35.6001C91.0851 36.2125 92.1959 37.0799 93.1545 38.0537C94.1132 39.0352 94.9196 40.1345 95.5929 41.3024C96.9244 43.6457 97.7156 46.2743 97.9134 48.9372C98.096 51.6001 97.7042 54.2781 96.8103 56.747C96.3538 57.9795 95.7908 59.1588 95.1403 60.2848C94.4822 61.407 93.7251 62.4531 92.9187 63.4536L92.6372 63.8036L91.9486 63.29L92.1959 62.9134C93.5654 60.8364 94.6762 58.611 95.3571 56.2715C96.0076 53.9282 96.2587 51.4935 95.9581 49.1236C95.6766 46.7537 94.8892 44.456 93.6643 42.4398C93.0594 41.4279 92.3443 40.4883 91.5188 39.6742C91.1193 39.2558 90.6781 38.8868 90.2292 38.5406C89.7727 38.2059 89.2972 37.9129 88.8141 37.6657L87.7946 37.1483L88.7494 35.1169L89.7803 35.6001Z" fill="black"/>
<path d="M88.9929 70.7765C90.2406 70.533 91.4313 70.2059 92.4736 69.6695C93.5045 69.1255 94.3871 68.3761 94.9272 67.4403C95.2049 66.98 95.3951 66.474 95.4712 65.9643C95.5245 65.7094 95.5283 65.4584 95.5207 65.2073C95.4941 64.9676 95.4636 64.7204 95.3837 64.5111C95.3571 64.397 95.2962 64.3057 95.2506 64.203C95.1897 64.1193 95.1403 64.0166 95.068 63.9443C94.9425 63.7731 94.7675 63.6552 94.5735 63.5601C94.1778 63.3661 93.6338 63.3357 93.0556 63.4346H93.0442C92.7551 63.484 92.4774 63.29 92.428 63.0009C92.3861 62.7651 92.5116 62.5368 92.7133 62.4341C93.3638 62.107 94.1892 61.9396 95.0452 62.1564C95.8973 62.3732 96.6391 63.0618 96.9738 63.834C97.3504 64.6062 97.4075 65.4431 97.3238 66.223C97.2249 67.0066 96.951 67.7522 96.563 68.4141C95.7679 69.738 94.5088 70.689 93.1659 71.2101C91.8155 71.7351 90.3928 71.8873 89.0347 71.7693C88.7608 71.7465 88.5592 71.5031 88.582 71.2292C88.601 71.0047 88.7722 70.8259 88.9815 70.7841L88.9929 70.7765Z" fill="black"/>
<path d="M68.6524 59.7599C67.922 57.9606 67.4389 56.0319 67.3248 54.0576C67.222 52.0833 67.4617 50.0633 68.1731 48.1612C68.523 47.2102 69.0214 46.3049 69.6376 45.4718C70.2539 44.6425 71.0071 43.8893 71.9049 43.3148C72.7912 42.729 73.8221 42.3296 74.8911 42.1698C75.1574 42.1242 75.4275 42.1127 75.6976 42.0937C75.9638 42.0975 76.2453 42.0823 76.4926 42.1089C77.0062 42.1356 77.5159 42.2193 78.018 42.3182C79.0261 42.535 80.0114 42.904 80.913 43.4175C81.8107 43.9387 82.6248 44.6006 83.3171 45.3576C84.7056 46.8831 85.5844 48.7509 86.1131 50.6453C87.1517 54.4646 87.0185 58.3752 86.5012 62.1299C86.4555 62.4494 86.1626 62.6738 85.8431 62.6282C85.5387 62.5864 85.3181 62.3125 85.3409 62.0119V62.0043C85.4741 60.1517 85.5311 58.3029 85.417 56.4694C85.3067 54.6434 85.0442 52.8289 84.5116 51.1208C83.9638 49.4242 83.1612 47.8265 81.9971 46.5749C81.4113 45.9549 80.7456 45.4299 80.0114 45.0153C79.2734 44.6082 78.4745 44.3229 77.6452 44.1555C77.2268 44.0833 76.8083 44.0186 76.3823 44.0034C76.1616 43.9844 75.9752 43.9958 75.7698 43.992C75.572 44.0072 75.3704 44.0148 75.1726 44.049C74.3851 44.167 73.6205 44.4561 72.9396 44.9049C71.5625 45.7875 70.524 47.2292 69.8811 48.8232C69.2306 50.4285 68.9567 52.2088 69.0024 53.9815C69.0214 55.7656 69.4018 57.5421 69.9572 59.2654L69.961 59.2768C70.0789 59.642 69.8773 60.0338 69.5121 60.1555C69.1621 60.2773 68.7893 60.0947 68.6524 59.7599Z" fill="black"/>
<path d="M88.8673 61.6886C89.1108 58.8203 89.5293 55.9482 90.3015 53.1294C90.6971 51.7219 91.1764 50.3258 91.8688 48.9753C92.2149 48.302 92.6258 47.6401 93.1431 47.0162C93.6757 46.4114 94.33 45.7913 95.2962 45.4908L95.3153 45.487C95.8174 45.331 96.35 45.6125 96.506 46.1147C96.6619 46.6168 96.3804 47.1494 95.8783 47.3053C95.8593 47.313 95.8364 47.3168 95.8174 47.3206C95.399 47.4195 94.9273 47.7732 94.5164 48.2183C94.1056 48.6748 93.7328 49.215 93.4094 49.8008C92.7551 50.9687 92.253 52.2621 91.8307 53.5821C90.9938 56.2335 90.4803 59.0181 90.1417 61.8141V61.8179C90.0999 62.1679 89.7841 62.4152 89.4341 62.3733C89.0842 62.3315 88.8369 62.0272 88.8673 61.6886Z" fill="black"/>
<path d="M84.9453 68.8288C84.8464 68.8288 84.7475 68.825 84.6486 68.8174C83.0547 68.6804 81.6281 67.4669 80.4108 65.2111C80.2548 64.9258 80.3614 64.5682 80.6505 64.4122C80.9358 64.2562 81.2934 64.3628 81.4493 64.6519C82.465 66.5349 83.5758 67.5392 84.7437 67.6419C86.3452 67.7826 87.6386 66.1735 87.65 66.1583C87.8516 65.9034 88.2206 65.8616 88.4755 66.0632C88.7304 66.2648 88.776 66.6338 88.5744 66.8887C88.5097 66.9686 87.0261 68.8288 84.9453 68.8288Z" fill="black"/>
<path d="M73.5445 57.5953C73.7233 58.0138 73.9287 58.436 74.1607 58.8202C74.3852 59.2007 74.6515 59.5696 74.9177 59.7827L73.67 59.8968C73.8526 59.4441 74.1379 59.0827 74.465 58.7784C74.7922 58.4779 75.165 58.2306 75.5758 58.0556C76.3861 57.6942 77.3942 57.6143 78.292 57.9453C79.1935 58.2687 79.8745 58.9496 80.2853 59.6571C80.7 60.3761 80.913 61.1369 80.9777 61.8901C81.0005 62.1754 80.7913 62.4227 80.5059 62.4455C80.3043 62.4608 80.1217 62.3618 80.0228 62.2021L80.0152 62.1869C79.6576 61.601 79.3115 61.057 78.9234 60.6196C78.5354 60.1821 78.1094 59.8854 77.6757 59.7522C77.242 59.6153 76.7589 59.6381 76.2682 59.7979C75.7851 59.9539 75.3058 60.2696 74.9938 60.6006L74.7846 60.8288C74.5411 61.0913 74.1303 61.1065 73.8678 60.863C73.8184 60.8174 73.7803 60.7679 73.7461 60.7147C73.4303 60.1783 73.301 59.6838 73.1869 59.1892C73.0804 58.6947 73.0119 58.2154 72.9738 57.7171C72.9586 57.5535 73.0842 57.4089 73.2477 57.3937C73.3809 57.3823 73.4988 57.4584 73.5483 57.5725L73.5445 57.5953Z" fill="black"/>
<path d="M91.1383 60.6081C91.2943 60.3495 91.4541 60.1517 91.6595 59.9538C91.8611 59.7598 92.0969 59.5848 92.3632 59.4517C92.6295 59.3109 92.9339 59.2196 93.2496 59.1854C93.5691 59.1398 93.8887 59.1778 94.2006 59.2349C94.6191 59.3109 94.8968 59.7104 94.8245 60.1288C94.7484 60.5473 94.349 60.825 93.9305 60.7527C93.8544 60.7375 93.7784 60.7109 93.7137 60.6804C93.5691 60.6043 93.417 60.5245 93.2534 60.4978C93.0898 60.4598 92.9186 60.4522 92.736 60.4826C92.5534 60.5092 92.367 60.5701 92.1844 60.6652C92.0056 60.7527 91.8154 60.8858 91.6785 61.0076L91.6405 61.038C91.4997 61.1597 91.2905 61.1445 91.1687 61.0038C91.0774 60.8858 91.066 60.7299 91.1383 60.6081Z" fill="black"/>
<path d="M40.9358 76.1403C37.6224 73.3329 33.8411 71.1493 29.98 69.213C28.0247 68.2848 26.0047 67.5012 23.9315 66.923C23.4141 66.7784 22.8892 66.6605 22.3718 66.5311L20.7969 66.2268L20.0057 66.1203L19.61 66.067L19.4122 66.0404C19.4084 66.0404 19.3856 66.0366 19.4008 66.0404C19.4198 66.0442 19.435 66.0442 19.4541 66.0442C19.4883 66.0442 19.5225 66.0404 19.5682 66.0366C19.6481 66.0214 19.7432 65.991 19.8269 65.9415C19.9981 65.8426 20.1046 65.6904 20.1502 65.5459C20.1959 65.4013 20.1997 65.253 20.1464 65.0856C20.0932 64.922 19.9524 64.766 19.8155 64.6938C19.785 64.6748 19.7546 64.6595 19.7204 64.6519C19.7127 64.6519 19.747 64.6633 19.7584 64.6671L19.8573 64.709L20.66 65.0323C24.9205 66.7898 28.66 69.4489 32.0684 72.4009C33.7727 73.8806 35.4236 75.4327 36.892 77.1484C38.3604 78.8602 39.7032 80.6938 40.7418 82.7023C40.8673 82.942 40.7722 83.2387 40.5325 83.3604C40.3309 83.4631 40.0913 83.4137 39.9429 83.2539C36.9795 79.9786 34.1188 76.6995 30.8511 73.7932C29.2154 72.3514 27.4655 71.0428 25.6395 69.8711C23.8136 68.7033 21.9001 67.6762 19.9106 66.8963L19.1612 66.6072L19.0661 66.573L19.009 66.5502C18.9443 66.5235 18.8835 66.4969 18.8226 66.4627C18.5677 66.3257 18.3281 66.0556 18.2292 65.7627C18.1264 65.466 18.1302 65.1693 18.2215 64.8954C18.3128 64.6215 18.5069 64.3514 18.796 64.184C18.9367 64.1003 19.0965 64.0471 19.2486 64.0242C19.3285 64.009 19.397 64.009 19.4655 64.009L19.572 64.0128L19.61 64.0166L19.8269 64.0433L20.2567 64.0927L21.1165 64.1954C21.6833 64.2943 22.2501 64.3894 22.8131 64.4998C23.3723 64.6329 23.9315 64.7508 24.4869 64.8954C26.7009 65.4812 28.8464 66.2763 30.9158 67.2235C31.9505 67.699 32.9662 68.2087 33.9629 68.7641C34.4536 69.0533 34.9557 69.3233 35.4236 69.6467C35.903 69.9548 36.3747 70.2706 36.8312 70.6129C38.6761 71.9444 40.4184 73.4356 41.9362 75.1398C42.1949 75.4327 42.1721 75.8816 41.8792 76.1403C41.6129 76.3799 41.2135 76.3761 40.951 76.1517L40.9358 76.1403Z" fill="black"/>
<path d="M17.3581 79.8036C17.2515 79.8036 17.145 79.7807 17.0423 79.7351C16.6581 79.5601 16.4907 79.1112 16.6657 78.727C16.9396 78.126 24.8559 71.7047 35.7508 76.2505C36.1388 76.4141 36.3214 76.8592 36.1617 77.2472C35.9981 77.6352 35.553 77.8178 35.165 77.6581C25.2515 73.523 18.2977 79.2101 17.9629 79.5068C17.8184 79.6932 17.5901 79.8036 17.3581 79.8036ZM18.0504 79.3547C18.0504 79.3585 18.0504 79.3585 18.0504 79.3547C18.0504 79.3585 18.0504 79.3585 18.0504 79.3547Z" fill="black"/>
<path d="M88.8141 66.7936C86.3757 66.7936 83.3781 66.4474 80.5364 65.1883C80.3424 65.1046 80.2131 64.922 80.1902 64.7127C80.1674 64.5035 80.2587 64.2981 80.4299 64.1726C83.4998 61.9396 86.4023 61.0912 89.0538 61.6543C92.5345 62.3884 94.2501 65.2834 94.3224 65.4089C94.4175 65.5687 94.4289 65.7665 94.3529 65.9377C94.2806 66.1088 94.1284 66.2344 93.9458 66.2762C93.786 66.3143 91.6862 66.7936 88.8141 66.7936ZM82.0162 64.5149C86.3186 66.067 90.8949 65.5953 92.7818 65.2948C92.1046 64.4845 90.7694 63.2139 88.7913 62.8031C86.7371 62.3732 84.4584 62.9476 82.0162 64.5149Z" fill="black"/>
<path d="M77.6719 97.8958C78.3224 97.2834 79.9315 99.6115 80.1179 101.917C80.3119 104.302 78.7522 107.071 77.9039 106.877C76.5687 106.569 76.5877 104.884 77.223 102.636C78.3414 98.7023 76.9833 98.5463 77.6719 97.8958Z" fill="black"/>
<path d="M77.8355 97.816C78.7104 97.622 78.9006 100.445 77.8811 102.522C76.8274 104.671 74.2939 106.428 73.4417 105.652C72.4299 104.732 73.3276 103.267 75.0243 101.662C77.9953 98.8507 76.9073 98.0214 77.8355 97.816Z" fill="black"/>
<path d="M44.4546 85.9548C42.3737 84.3646 39.9201 83.3185 37.4436 82.4512C34.952 81.6029 32.3766 81.0018 29.7746 80.572C27.1764 80.1269 24.5478 79.8834 21.923 79.7845C19.2943 79.6932 16.6695 79.7883 14.0675 80.028C12.7665 80.1573 11.4693 80.3209 10.1911 80.5682C8.90916 80.7926 7.64621 81.1083 6.40607 81.4849C5.16594 81.8654 3.97146 82.3561 2.80741 82.9001L1.95529 83.3413L1.74226 83.4517C1.75367 83.4479 1.80693 83.4098 1.84497 83.3604C1.93246 83.2538 1.94388 83.1093 1.92486 83.0256C1.90584 82.9381 1.85258 82.8582 1.73846 82.7897C1.6814 82.7593 1.61292 82.7403 1.55966 82.7365C1.52923 82.7403 1.51402 82.7327 1.49119 82.7403C1.46837 82.7479 1.4988 82.7403 1.51782 82.7365L1.57868 82.7251L2.57536 82.5425C5.23061 82.0594 7.9239 81.6751 10.6438 81.4887C13.3638 81.3176 16.1065 81.3708 18.8264 81.6409L20.8616 81.8844L22.8778 82.2458C23.5549 82.3523 24.2168 82.5197 24.8787 82.6794C25.5406 82.8468 26.2102 82.98 26.8645 83.1778C28.1655 83.5848 29.4855 83.9386 30.7522 84.4445L32.6657 85.1559L34.5335 85.97C35.7927 86.4835 36.9948 87.1188 38.2121 87.7199L39.1212 88.1725L40.0076 88.6709L41.7803 89.6675C44.1236 91.0218 46.387 92.551 48.6124 93.9205C50.8683 95.29 53.1888 96.553 55.5815 97.6181C57.9705 98.6909 60.4432 99.5734 62.9653 100.144C64.2244 100.429 65.4988 100.635 66.7732 100.734C68.0475 100.825 69.3219 100.81 70.5734 100.665C73.0727 100.376 75.4731 99.5125 77.4931 98.086C78.0941 97.6599 78.9272 97.8045 79.3495 98.4055C79.7755 99.0066 79.631 99.8397 79.0299 100.262C79.0033 100.281 78.9767 100.3 78.9462 100.315L78.931 100.323C76.447 101.806 73.6319 102.674 70.8093 102.929C69.398 103.066 67.9867 103.05 66.5944 102.925C65.2021 102.807 63.825 102.575 62.4783 102.263C59.7812 101.635 57.1907 100.688 54.7066 99.5544C52.2187 98.4284 49.8336 97.1083 47.5245 95.6894C45.204 94.2401 43.0356 92.7527 40.7532 91.4174L39.0337 90.4322L38.174 89.9414L37.2915 89.4964C36.1122 88.9067 34.9482 88.2752 33.7308 87.7769L31.9201 86.9857L30.0713 86.2971C28.8502 85.8064 27.5796 85.4678 26.3281 85.0722C25.7004 84.882 25.0575 84.7527 24.4222 84.5891C23.787 84.4331 23.1517 84.2695 22.5012 84.1706L20.5687 83.8207L18.6172 83.5848C16.0114 83.3223 13.3866 83.2653 10.7656 83.4288C8.14454 83.6038 5.52733 83.9728 2.91772 84.4445L1.94007 84.6233L1.87921 84.6347L1.78411 84.65C1.67759 84.6614 1.58249 84.6766 1.46456 84.6652C1.24392 84.6538 1.00807 84.5929 0.806455 84.4788C0.391809 84.2543 0.140739 83.8701 0.0380287 83.4593C-0.0646817 83.0522 0.0190083 82.5463 0.308119 82.1735C0.376593 82.0822 0.460283 82.0061 0.540168 81.93C0.61625 81.8692 0.718961 81.8007 0.787434 81.7588L1.01948 81.6371L1.94388 81.1464C3.19542 80.5415 4.4774 80.0014 5.79361 79.5791C8.41463 78.7004 11.1231 78.164 13.8431 77.8596C16.5668 77.5781 19.3057 77.5401 22.0219 77.7341C24.738 77.9167 27.4427 78.2819 30.0979 78.8601C32.757 79.4269 35.3666 80.2182 37.8925 81.2339C39.1555 81.7436 40.3804 82.3485 41.5635 83.0294C42.7465 83.7103 43.884 84.4864 44.8882 85.426C45.0252 85.5553 45.0328 85.7684 44.9035 85.9053C44.7931 86.0461 44.5953 86.0613 44.4546 85.9548Z" fill="black"/>
<path d="M25.8716 76.1479C25.6168 76.1479 25.3657 76.0185 25.2211 75.7827C23.2202 72.515 24.4147 68.3115 24.4641 68.1327C24.5821 67.7294 25.0043 67.4974 25.4075 67.6153C25.8108 67.7332 26.0428 68.1555 25.9249 68.5587C25.9097 68.6158 24.875 72.3096 26.5183 74.9876C26.739 75.3452 26.6249 75.8131 26.2673 76.0338C26.1417 76.1136 26.0048 76.1479 25.8716 76.1479Z" fill="black"/>
<path d="M89.2629 30.6357C89.9705 31.2291 90.4536 32.085 90.621 33.0094C90.796 33.93 90.6438 34.9571 90.1037 35.7978C89.9857 36.0147 89.7917 36.1858 89.6358 36.376C89.4608 36.551 89.2591 36.6918 89.0651 36.8363C88.8559 36.9543 88.6391 37.0532 88.426 37.1559C88.2054 37.2282 87.9848 37.2814 87.7641 37.3347C86.8778 37.4868 86.0447 37.3461 85.2953 37.1026C85.0442 37.0227 84.9035 36.7489 84.9872 36.4978C85.048 36.3076 85.2192 36.182 85.4094 36.1668L85.4551 36.163C86.155 36.1136 86.8131 36.0451 87.3571 35.8245C87.9011 35.6076 88.2815 35.2576 88.4831 34.8278C88.6961 34.4017 88.7494 33.8844 88.6619 33.367C88.5706 32.8497 88.3424 32.3437 88.0038 31.8986L87.9734 31.8606C87.6728 31.4688 87.7527 30.9058 88.1446 30.6091C88.4869 30.3542 88.951 30.3732 89.2629 30.6357Z" fill="black"/>
</g>
<defs>
<clipPath id="clip0">
<rect width="128" height="85.8849" fill="white" transform="translate(0 21)"/>
</clipPath>
</defs>
</svg>
