<svg width="6" height="309" viewBox="0 0 6 309" fill="none" xmlns="http://www.w3.org/2000/svg">
<path d="M4.50227 309C4.46338 308.932 4.24563 309.094 4.26377 308.639C4.20933 308.658 4.45561 308.237 4.50227 309ZM4.57745 290.311C4.43227 290.544 4.45301 289.5 4.53338 291.187C4.54893 291.1 4.5593 291.078 4.56967 291.029C4.56708 290.875 4.56708 290.668 4.57745 290.311ZM4.56708 291.029C4.57745 291.769 4.68892 290.544 4.56708 291.029V291.029ZM4.48671 287.603L4.61633 288.58C4.70188 288.377 4.72003 287.505 4.78224 287.828C4.70966 286.829 4.62411 287.032 4.48671 287.603ZM4.21452 286.675L4.26896 287.182C4.30525 287.096 4.31821 286.961 4.21452 286.675ZM4.38561 288.256L4.27155 287.182C4.21192 287.325 4.09268 287.34 4.31303 287.674C4.20156 287.588 4.30784 287.802 4.38561 288.256ZM4.08749 289.59C3.95787 292.558 3.80233 294.102 3.83863 297.066C3.86973 297.61 3.90084 298.151 3.9164 298.643L3.74012 298.309C3.74789 298.865 3.81529 299.263 3.9475 299.616C3.83344 299.875 3.77382 298.974 3.67272 299.462C4.30266 301.667 3.21128 303.869 3.65198 305.213C3.15424 305.037 2.68244 307.918 2.29618 306.72L2.3558 307.621C2.02916 307.325 2.34802 304.785 2.00583 304.267L2.34802 301.416C2.22359 301.506 2.04213 301.036 1.99806 301.494C1.99028 300.788 1.97472 300.176 1.79844 301.096C2.63318 294.286 1.82437 287.287 2.27025 280.578C2.24174 280.124 2.12508 280.387 2.0499 280.559C2.36617 279.323 1.88399 279.376 1.83992 278.7L2.29618 276.893C2.16137 276.161 2.02139 276.732 1.93065 276.679C1.83992 273.257 2.28321 269.921 2.01361 267.152C2.17693 266.27 2.38172 267.363 2.43616 266.198C1.96436 267.78 2.21581 262.806 1.88399 263.813C2.38432 262.686 1.99028 259.621 2.68503 260.131C2.72651 258.738 2.3895 258.978 2.32728 259.38C2.35321 257.765 2.35839 256.458 2.13804 255.135C2.30136 254.249 1.96436 247.746 2.48801 246.304C2.14841 247.288 2.31173 246.229 2.16397 245.282L1.86325 246.135L1.89436 244.005C1.86585 243.569 1.87881 243.449 1.90473 243.453C1.92029 243.092 2.07842 243.539 2.1536 242.622C2.17174 241.172 2.00843 241.101 1.85288 240.305L1.80881 240.526L1.7803 239.542C1.79067 238.817 2.07842 242.1 2.23137 239.741C2.14841 239.707 1.75437 238.317 1.96954 237.682C1.95399 238.888 2.16137 238.738 2.24951 238.295L2.25729 237.604C2.23914 237.57 2.22359 237.544 2.20285 237.536C2.22359 237.48 2.24174 237.435 2.25988 237.401L2.27025 236.604L1.89177 237.164C1.90992 232.987 2.11212 228.663 2.151 224.234C2.13804 224.215 2.12249 224.2 2.10434 224.189C2.0862 223.701 2.11212 223.547 2.15619 223.49C2.15878 223.186 2.15878 222.882 2.15878 222.581C2.14064 222.555 2.12508 222.532 2.10693 222.525C2.12249 222.48 2.14064 222.446 2.15878 222.423C2.15878 222.315 2.15878 222.206 2.15878 222.1C2.37654 222.146 2.31692 220.553 2.38691 219.587C2.13027 219.715 1.90214 219.922 1.76734 220.207C1.55995 220.117 1.98769 219.084 2.01102 218.562C2.27285 217.371 1.96176 216.627 1.8814 215.748C1.68179 214.959 1.7466 213.723 1.83733 212.352C1.74401 211.657 1.65846 210.805 1.45366 210.891L1.55736 207.709C1.56773 208.111 1.65068 209.34 1.80881 208.855C1.79326 207.529 1.85548 208.104 1.9825 207.307C1.93325 206.327 1.96436 205.309 2.0162 204.396C2.01102 204.366 2.00583 204.332 2.00065 204.306C2.00583 204.325 2.01102 204.347 2.0162 204.373C2.07064 203.427 2.14582 202.593 2.16656 202.029C2.10434 201.669 2.06805 201.237 2.08879 200.673L1.95399 201.59C1.89695 201.015 2.02139 198.923 1.90732 199.148C1.95139 199.02 2.00843 198.896 2.07583 198.795C2.03694 198.262 2.03953 197.721 2.07323 196.936L1.9825 196.601C1.99546 196.673 2.03435 196.714 2.08101 196.74C2.09397 196.44 2.11212 196.109 2.13545 195.73C2.17174 195.76 2.23137 196.004 2.28062 195.786C2.14323 195.658 2.01102 195.677 1.97472 195.917C2.05768 195.531 2.10953 195.256 2.14841 195.042C2.07064 194.693 2.00843 194.268 1.9825 193.664C1.9825 193.671 1.97991 193.679 1.97732 193.682C1.84251 192.552 1.90732 191.887 1.96176 191.35C1.9825 191.541 2.01361 191.691 2.0499 191.823L2.04213 191.211L1.96954 191.278C2.02916 190.688 2.06286 190.249 1.78289 189.471L2.02139 189.813L2.0162 189.479C2.16656 189.483 2.24174 189.302 2.27285 189.002L1.97213 188.19C2.0162 188.258 2.151 188.367 2.28581 188.461C2.25988 187.225 1.9488 185.178 2.14064 184.081C2.13027 183.277 2.13286 182.488 2.14582 181.834C2.08101 181.064 2.03176 180.227 1.97472 179.716C2.00843 179.708 2.04472 179.648 2.08101 179.486C1.87103 178.923 1.89955 178.115 1.97732 177.285C1.97991 177.157 1.99287 177.026 2.01879 176.879C2.0836 176.282 2.1536 175.7 2.16656 175.204C2.10693 174.96 2.0162 174.858 1.87103 175.012C1.89955 174.821 1.9151 174.637 1.92806 174.472C1.88399 174.547 1.83733 174.667 1.79326 174.791C2.13027 173.153 1.41737 170.264 1.55995 169.667C1.59365 168.465 1.86325 169.22 2.03953 168.889C2.03694 168.822 2.03176 168.762 2.02916 168.705C1.99028 168.529 1.95399 168.352 1.91769 168.172C1.72067 167.826 1.39663 168.641 1.64031 166.793C1.67401 167.071 1.70253 167.586 1.74919 167.387C1.77252 167.082 1.88658 166.696 2.02398 166.286L2.10953 165.306L1.96176 165.193L2.33247 164.731C2.24692 164.397 2.17434 164.186 2.21063 164.115C2.24433 164.055 2.29358 164.137 2.34802 164.269C2.32988 163.987 2.29618 163.732 2.25729 163.6C2.29618 163.578 2.33765 163.585 2.37913 163.608C2.39987 163.206 2.44913 162.796 2.50616 162.409C2.38691 162.143 2.27025 162.143 2.15878 162.642L2.37654 161.087C2.01102 159.261 2.0836 159.581 1.81141 157.357C1.94102 157.237 2.0499 157.826 2.14323 157.428C1.86585 156.35 2.17174 154.956 2.30136 154.04C2.30136 153.687 2.29877 153.409 2.29877 153.165C2.2884 153.15 2.28321 153.131 2.27025 153.119C2.17952 151.812 1.95139 152.575 1.8477 151.741C1.88918 151.782 1.96954 151.857 1.97732 151.617L1.7129 150.629C1.80881 150.231 1.89695 151.538 2.01102 150.422C1.81141 148.518 1.6766 147.398 1.80363 145.806C1.74141 143.54 1.27738 146.775 1.32923 144.863C1.54439 144.581 1.80363 144.333 1.83474 143.138C1.68438 142.507 1.51588 142.594 1.41996 141.519L1.55476 141.546C1.53921 141.347 1.53143 141.121 1.52884 140.869C1.59106 141.185 1.62735 141.685 1.7103 141.482C1.79585 141.271 1.70253 140.798 1.67142 140.637C1.69475 140.584 1.71549 140.591 1.73623 140.625C1.73623 140.314 1.74919 140.069 1.79844 139.93C1.74141 139.258 1.81141 138.601 1.82955 137.763C1.62994 136.812 1.18406 139.13 1.06222 139.457C1.31108 137.977 1.16591 136.955 1.56513 136.11L1.65327 137.421C2.06286 134.626 1.18406 134.769 1.88658 133.473C1.86844 134.168 1.95658 134.964 2.07583 135.13C2.10953 134.9 2.14323 134.682 2.15878 134.513L2.12249 134.213C2.08879 134.202 2.03435 134.235 1.94621 134.344C1.98769 133.905 2.01879 133.443 2.04213 132.958C1.97732 132.673 1.90992 132.391 1.85807 132.218L1.87881 132.237L1.82696 129.938C1.8477 130.227 1.93325 130.246 1.94362 129.848L1.76993 128.206C1.85288 128.71 1.95658 128.195 2.00843 127.459C2.10953 125.344 1.26183 125.765 1.59883 124.123C1.59106 124.363 1.63253 124.401 1.62735 124.641L1.77511 123.796C1.07259 123.62 1.70253 118.822 1 118.642C1.28516 117.44 1.1685 118.56 1.50292 120.103L1.70512 118.822C1.73104 119.341 1.6792 119.777 1.7466 120.336C2.04213 118.657 1.66883 117.076 1.48477 116.163C1.58587 115.52 2.01361 116.666 1.89695 114.837C1.75956 112.252 1.38367 115.325 1.30071 113.774L1.66623 112.651C1.38626 110.671 1.63772 109.187 1.68179 107.515C1.65327 107.136 1.61439 106.952 1.5755 106.858C1.60402 106.542 1.6092 106.223 1.60143 105.904L1.45107 106.065C1.27738 106.137 1.40441 105.652 1.55995 105.07C1.46403 103.86 1.25924 102.688 1.3396 101.787C1.41478 102.102 1.56773 101.02 1.65846 100.859L1.43292 98.4396C1.51847 99.405 1.69734 99.4614 1.8814 99.6079C1.78548 98.417 1.62994 97.1812 1.7103 95.9791L1.6766 95.7236C1.64031 95.8739 1.62735 96.1669 1.61698 96.4111C1.61439 95.7762 1.48218 94.4013 1.65327 93.496C1.73364 93.5749 1.80881 93.8867 1.89177 93.9656C1.75697 94.4126 1.76993 94.7432 1.83474 95.0212C1.84251 94.9836 1.8477 94.9423 1.85548 94.9047C1.85029 94.946 1.84251 94.9911 1.83733 95.0362C1.8477 95.0813 1.86066 95.1263 1.87362 95.1677C1.89436 94.3788 1.95658 93.6049 2.00324 92.8912C1.92029 92.7409 1.82955 92.7184 1.75437 92.8574C1.81141 91.8657 1.85548 91.3548 1.80104 90.6335L1.77511 90.6448C1.75697 90.4044 1.74141 90.1752 1.72845 89.9499C1.7129 89.8372 1.69734 89.7207 1.6792 89.593L1.70771 89.6193C1.64031 88.5825 1.60143 87.6922 1.6118 86.7718L1.34997 86.7042C1.44588 84.9462 1.02333 81.1709 1.56513 80.0927C1.35515 79.6645 1.62735 77.6585 1.55736 76.6593L1.69994 76.479C1.76215 75.908 1.79844 75.3295 1.6766 74.7359L1.7803 75.0177C1.76734 74.4467 1.72845 73.9771 1.69475 73.5226C1.84511 72.5722 1.88918 71.6518 1.88399 70.7503C1.87362 70.7165 1.86066 70.6827 1.85029 70.6489C1.82696 70.9682 1.72327 71.4114 1.6429 71.9148C1.65327 71.4903 1.68438 71.0095 1.75437 70.431C1.7466 70.4197 1.74141 70.4047 1.73623 70.3934C1.74401 70.4047 1.74919 70.4122 1.75697 70.4197C1.76474 70.3521 1.77252 70.2882 1.7803 70.2206C1.83733 70.2845 1.85548 70.3934 1.85548 70.5286C1.86585 70.5362 1.87622 70.5324 1.88399 70.5324C1.86325 68.9997 1.71549 67.5347 1.73364 66.1185L1.79067 66.096L1.6455 63.7519C1.82696 64.368 1.51847 63.2898 1.57032 62.5836C1.47181 61.8361 1.52366 60.6265 1.65587 59.7474L1.66623 58.2523C1.76993 59.5108 1.88399 58.797 2.03435 58.335C1.97732 57.5574 1.95139 56.637 2.10693 55.4913C2.06286 54.8414 2.00583 54.184 1.87881 53.8798C1.81918 53.9737 1.76474 54.2028 1.71808 54.4846C1.73364 54.5634 1.72845 54.5597 1.7129 54.5071C1.7103 54.5296 1.70512 54.5484 1.69994 54.571C1.70253 54.5409 1.70512 54.5259 1.70771 54.4921C1.68438 54.4132 1.6455 54.2855 1.61439 54.2329C1.66623 53.0458 1.57032 53.4816 1.46662 53.5229C1.80622 52.2607 1.61439 51.5207 1.93584 50.5853C1.93584 50.5815 1.93584 50.5778 1.93584 50.574C1.58587 51.2652 1.97991 47.3434 1.55217 48.1661C1.92029 47.1593 1.57032 47.4786 1.88399 46.8325C1.81141 47.8505 1.96695 48.8648 2.1173 49.7776C2.17952 49.4921 2.23914 49.2329 2.30136 49.5673C2.30655 49.3156 2.30136 49.0714 2.29099 48.831C2.25211 48.4929 2.21841 48.1736 2.221 47.9445C2.19767 47.7604 2.17174 47.5838 2.14064 47.4261L2.16915 47.5312C2.08101 44.9693 2.34025 45.0895 2.24951 43.3127C2.20026 43.6733 2.15619 44.0302 2.11471 44.1729C1.99287 43.0384 1.90992 43.0384 1.82178 43.0046C1.89177 42.8243 1.97472 42.6515 2.06027 42.5013C1.95658 41.2391 1.9151 39.8755 1.89955 38.4705C1.87362 38.3991 1.84511 38.3353 1.81659 38.2864C1.84251 39.327 1.8477 39.913 1.81659 40.3788L1.69475 38.1662C1.69475 38.1625 1.69734 38.1587 1.69734 38.1587C1.7103 38.1625 1.72067 38.1775 1.73104 38.185C1.75697 38.3841 1.76993 38.9251 1.81659 38.2864C1.79067 38.2414 1.76215 38.2 1.73104 38.185C1.73104 38.1737 1.72845 38.1475 1.72586 38.1399C1.74141 38.031 1.72586 38.0648 1.69734 38.1587C1.69475 38.1587 1.69475 38.155 1.69475 38.155V38.1662C1.68957 38.1813 1.68697 38.1963 1.68179 38.2151C1.72327 37.8544 1.75697 37.4713 1.78289 37.0731C1.79326 37.4412 1.80363 37.8319 1.84251 38.2677C1.86066 38.0498 1.87881 37.9183 1.89695 37.8432C1.89177 36.9341 1.88918 36.0213 1.88658 35.1159C1.87881 35.131 1.86585 35.1197 1.85029 35.0972C1.8477 34.6764 1.83474 34.2858 1.81141 33.9176C1.83992 34.0416 1.86585 34.1693 1.88399 34.312C1.87881 33.3241 1.86325 32.3587 1.82696 31.4458L1.74141 32.5953C1.75437 32.2497 1.68179 31.4083 1.66623 30.5743L1.52366 30.8485C1.55476 30.4842 1.61439 30.2813 1.66364 30.1611C1.66623 29.808 1.68438 29.4699 1.73104 29.1882C1.74141 29.4098 1.79326 29.793 1.77771 29.9996C1.85029 29.9808 1.94362 29.8343 2.0162 29.5563L2.02398 29.3647L2.03694 29.4736C2.0836 29.2708 2.1199 29.0041 2.13286 28.681L2.06027 28.5608L2.01361 29.3647L1.85807 28.1326C1.88399 28.2641 1.91251 28.3016 1.94362 28.3016L2.07583 28.0011C2.07842 26.6976 1.79067 28.3843 1.79585 27.077C1.95139 26.8704 2.02657 26.3557 2.06546 25.6946C2.04213 25.5594 2.02139 25.4316 2.00065 25.3227C2.02398 25.4467 2.04731 25.5443 2.07064 25.6157C2.12249 24.6353 2.09916 23.3618 2.13027 22.2837L2.0862 21.9644C2.05768 22.0395 2.01361 22.017 1.94102 21.8291C1.96436 21.6789 1.99028 21.5624 2.01361 21.4272L1.91769 20.721L2.02139 21.3746C2.05768 21.1605 2.09138 20.8938 2.11212 20.4054L1.86585 20.6984C1.87881 20.3303 1.89177 19.9847 1.90732 19.6579C1.80104 19.0005 1.75178 19.6316 1.6766 20.1349C1.62994 18.437 1.83992 18.0613 1.91769 19.4099C2.04731 16.4423 2.20285 14.8984 2.16656 11.9345C2.13545 11.3898 2.10434 10.8488 2.08879 10.3567L2.26507 10.6911C2.25729 10.1351 2.18989 9.7369 2.05768 9.38378C2.17174 9.12459 2.23137 10.0261 2.33247 9.5378C1.69994 7.32897 2.79132 5.12765 2.35062 3.78281C2.84835 3.95937 3.32016 1.07812 3.70642 2.27645L3.64679 1.37489C3.97343 1.67165 3.65457 4.21106 3.99676 4.72946L3.65457 7.58066C3.779 7.4905 3.96047 7.96006 4.00454 7.50177C4.01231 8.20799 4.02787 8.82031 4.20415 7.89996C3.36941 14.7105 4.17822 21.7089 3.73234 28.4181C3.76086 28.8726 3.87751 28.6096 3.95269 28.4368C3.63642 29.6727 4.1186 29.6202 4.16267 30.2963L3.70642 32.1032C3.84122 32.8357 3.98121 32.2647 4.07194 32.3173C4.16267 35.7395 3.71938 39.0753 3.98898 41.8439C3.82566 42.7266 3.62087 41.6335 3.56643 42.798C4.03824 41.2165 3.78678 46.1902 4.1186 45.1834C3.61828 46.3104 4.01231 49.3757 3.31756 48.8648C3.27609 50.2585 3.61309 50.0181 3.67531 49.6161C3.64938 51.2314 3.6442 52.5387 3.86455 53.861C3.70123 54.7475 4.03824 61.25 3.51458 62.6925C3.85418 61.7083 3.69086 62.7677 3.83863 63.7143L4.13934 62.8616L4.10823 64.9915C4.13675 65.4273 4.12378 65.5475 4.09786 65.5437C4.08231 65.9044 3.92417 65.4573 3.849 66.3739C3.83085 67.824 3.99417 67.8953 4.14971 68.6917L4.19378 68.4701L4.22229 69.4543C4.21192 70.1793 3.92417 66.8961 3.77122 69.2552C3.85418 69.289 4.24822 70.6789 4.03305 71.3138C4.04861 70.1079 3.84122 70.2582 3.75308 70.7015L3.7453 71.3926C3.76345 71.4265 3.779 71.4528 3.79974 71.4603C3.779 71.5166 3.76086 71.5617 3.74271 71.5955L3.73234 72.3919L4.11082 71.8322C4.09268 76.0094 3.89047 80.3332 3.849 84.7621C3.86196 84.7809 3.87751 84.7959 3.89566 84.8072C3.9138 85.2955 3.88788 85.4495 3.8464 85.5059C3.84381 85.8102 3.84381 86.1144 3.84381 86.415C3.86196 86.4413 3.87751 86.4638 3.89566 86.4713C3.8801 86.5164 3.86196 86.5502 3.84381 86.5727C3.84381 86.6817 3.84381 86.7906 3.84381 86.8958C3.62605 86.8507 3.68568 88.4435 3.61568 89.4089C3.87233 89.2812 4.10045 89.0746 4.23526 88.7891C4.44264 88.8792 4.01491 89.9123 3.99157 90.4344C3.72975 91.6253 4.04083 92.3691 4.12119 93.2481C4.3208 94.0369 4.25599 95.2728 4.16526 96.644C4.25859 97.3389 4.34413 98.1917 4.54893 98.1053L4.44524 101.287C4.43487 100.885 4.35191 99.6567 4.19378 100.141C4.20933 101.467 4.14712 100.893 4.02009 101.689C4.06935 102.669 4.03824 103.687 3.98639 104.6C3.99157 104.63 3.99676 104.664 4.00194 104.69C3.99676 104.672 3.99157 104.649 3.98639 104.623C3.93195 105.569 3.85677 106.403 3.83603 106.967C3.89825 107.328 3.93454 107.76 3.9138 108.323L4.04861 107.406C4.10564 107.981 3.98121 110.074 4.09527 109.848C4.0512 109.976 3.99417 110.1 3.92677 110.201C3.96565 110.735 3.96306 111.276 3.92677 112.061L4.0175 112.395C4.00454 112.324 3.96565 112.282 3.91899 112.256C3.90603 112.557 3.88788 112.887 3.86455 113.267C3.82826 113.237 3.76863 112.992 3.71938 113.21C3.85677 113.338 3.99157 113.319 4.02528 113.079C3.94232 113.466 3.89047 113.74 3.85159 113.954C3.92936 114.303 3.99157 114.728 4.0175 115.333C4.0175 115.325 4.02009 115.318 4.02268 115.314C4.15749 116.445 4.09268 117.109 4.03824 117.647C4.0175 117.455 3.98639 117.305 3.9501 117.173L3.95787 117.786L4.03046 117.718C3.97084 118.308 3.93714 118.747 4.21711 119.525L3.97861 119.183L3.9838 119.514C3.83344 119.51 3.75826 119.69 3.72715 119.991L4.02528 120.802C3.98121 120.735 3.8464 120.626 3.7116 120.532C3.73752 121.768 4.04861 123.815 3.85677 124.912C3.86714 125.716 3.86455 126.505 3.85159 127.158C3.9164 127.928 3.96565 128.766 4.02268 129.277C3.98898 129.284 3.95269 129.344 3.9164 129.506C4.12638 130.069 4.09786 130.881 4.02009 131.707C4.0175 131.835 4.00454 131.967 3.97861 132.113C3.9138 132.71 3.84381 133.296 3.83085 133.788C3.89047 134.033 3.98121 134.134 4.12638 133.98C4.09786 134.172 4.08231 134.356 4.06935 134.521C4.11342 134.446 4.16008 134.326 4.20415 134.202C3.86714 135.839 4.58004 138.728 4.43746 139.326C4.40376 140.528 4.13415 139.773 3.95787 140.103C3.96047 140.171 3.96565 140.231 3.96824 140.287C4.00713 140.464 4.04342 140.64 4.07971 140.821C4.27673 141.166 4.60078 140.351 4.3571 142.199C4.3234 141.921 4.29488 141.407 4.24822 141.606C4.22489 141.91 4.11082 142.293 3.97343 142.706L3.88788 143.687L4.03564 143.8L3.66494 144.262C3.75049 144.596 3.82307 144.806 3.78678 144.878C3.75308 144.938 3.70382 144.855 3.64938 144.724C3.66753 145.005 3.70123 145.261 3.74012 145.392C3.70123 145.415 3.65975 145.407 3.61828 145.385C3.59754 145.787 3.54828 146.196 3.49125 146.583C3.6105 146.85 3.72715 146.85 3.83863 146.35L3.62087 147.905C3.98639 149.731 3.9138 149.412 4.186 151.636C4.05638 151.756 3.9475 151.166 3.85418 151.564C4.13156 152.642 3.82566 154.036 3.69605 154.953C3.70123 155.306 3.70642 155.584 3.70642 155.824C3.71679 155.839 3.72197 155.858 3.73493 155.869C3.82566 157.177 4.05379 156.414 4.15749 157.248C4.11601 157.207 4.03564 157.131 4.02787 157.372L4.29229 158.36C4.19637 158.758 4.10823 157.451 3.99417 158.566C4.19378 160.471 4.32858 161.59 4.20156 163.183C4.26377 165.448 4.7278 162.214 4.67596 164.126C4.46079 164.408 4.20156 164.656 4.17045 165.85C4.3208 166.481 4.48931 166.395 4.58522 167.469L4.45042 167.443C4.46598 167.642 4.47375 167.868 4.47634 168.119C4.41413 167.804 4.37784 167.304 4.29488 167.507C4.20933 167.717 4.30266 168.191 4.33377 168.352C4.31043 168.405 4.2897 168.397 4.26896 168.363C4.26896 168.675 4.25599 168.919 4.20674 169.058C4.26377 169.731 4.19378 170.388 4.17563 171.226C4.37524 172.176 4.82113 169.859 4.94297 169.532C4.6941 171.012 4.83927 172.034 4.44005 172.879L4.35191 171.568C3.94232 174.363 4.82113 174.22 4.1186 175.516C4.13675 174.821 4.04861 174.025 3.92936 173.859C3.89566 174.088 3.86196 174.306 3.8464 174.475L3.8827 174.776C3.9164 174.787 3.97084 174.753 4.05898 174.644C4.0175 175.084 3.98639 175.55 3.96306 176.03C4.02787 176.316 4.09527 176.598 4.14712 176.771L4.12638 176.752L4.17822 179.051C4.15749 178.761 4.07194 178.743 4.05898 179.141L4.23266 180.782C4.14971 180.279 4.04601 180.794 3.99417 181.53C3.89307 183.645 4.74076 183.224 4.40376 184.866C4.41154 184.625 4.37006 184.588 4.37524 184.347L4.22748 185.193C4.93001 185.369 4.30006 190.166 5.00259 190.347C4.71743 191.549 4.83409 190.429 4.49968 188.885L4.29747 190.166C4.27155 189.648 4.3234 189.212 4.25599 188.652C3.96047 190.332 4.33377 191.913 4.51782 192.826C4.41672 193.468 3.98898 192.323 4.10564 194.152C4.24303 196.736 4.61892 193.664 4.70188 195.215L4.33636 196.338C4.61633 198.318 4.36487 199.802 4.3208 201.473C4.34932 201.853 4.3882 202.037 4.42709 202.131C4.39857 202.446 4.39339 202.766 4.40117 203.089L4.55412 202.923C4.7278 202.852 4.60078 203.337 4.44524 203.919C4.54115 205.129 4.74595 206.301 4.66559 207.202C4.59041 206.887 4.43746 207.968 4.34673 208.13L4.57226 210.549C4.48671 209.584 4.30784 209.527 4.12378 209.381C4.22229 210.572 4.37524 211.808 4.29488 213.01L4.32858 213.265C4.36487 213.115 4.37784 212.822 4.3882 212.578C4.3908 213.213 4.52301 214.587 4.35191 215.493C4.27155 215.414 4.19637 215.102 4.11342 215.023C4.24822 214.576 4.23526 214.246 4.17045 213.968C4.16267 214.005 4.15749 214.046 4.14971 214.084C4.15489 214.043 4.16267 213.998 4.16785 213.953C4.15749 213.907 4.14452 213.862 4.13156 213.821C4.11082 214.61 4.04861 215.384 4.00194 216.098C4.0849 216.248 4.17563 216.27 4.25081 216.131C4.19378 217.119 4.14971 217.634 4.20415 218.355L4.23007 218.344C4.24822 218.584 4.26377 218.814 4.27673 219.039C4.29229 219.152 4.30784 219.268 4.32599 219.396L4.29747 219.369C4.36487 220.406 4.40376 221.297 4.39339 222.217L4.65522 222.285C4.5593 224.043 4.98185 227.818 4.44005 228.896C4.65003 229.324 4.37784 231.33 4.44783 232.329L4.30525 232.51C4.24303 233.081 4.20674 233.659 4.32858 234.253L4.22489 233.971C4.23785 234.542 4.27673 235.012 4.31043 235.466C4.16008 236.417 4.11601 237.337 4.12119 238.238C4.13156 238.272 4.14452 238.306 4.15489 238.34C4.17822 238.021 4.28192 237.577 4.36228 237.074C4.35191 237.498 4.3208 237.979 4.25081 238.558C4.25859 238.569 4.26377 238.584 4.26896 238.595C4.26118 238.584 4.25599 238.577 4.24822 238.569C4.24044 238.637 4.23266 238.7 4.22489 238.768C4.16785 238.704 4.14971 238.595 4.14971 238.46C4.13934 238.453 4.12897 238.456 4.12119 238.456C4.14193 239.989 4.2897 241.454 4.27155 242.87L4.21452 242.893L4.35969 245.237C4.17822 244.621 4.48671 245.699 4.43487 246.405C4.53338 247.153 4.48153 248.362 4.34932 249.241L4.33895 250.736C4.23526 249.478 4.12119 250.192 3.97084 250.654C4.02787 251.431 4.05379 252.352 3.89825 253.497C3.94232 254.147 3.99935 254.805 4.12638 255.109C4.186 255.015 4.24044 254.786 4.2871 254.504C4.27155 254.425 4.27673 254.429 4.29229 254.482C4.29488 254.459 4.30006 254.44 4.30525 254.418C4.30266 254.448 4.30006 254.463 4.29747 254.497C4.3208 254.576 4.35969 254.703 4.3908 254.756C4.33895 255.943 4.43487 255.507 4.53856 255.466C4.19896 256.728 4.3908 257.468 4.06935 258.403C4.06935 258.407 4.06935 258.411 4.06935 258.415C4.41931 257.724 4.02528 261.645 4.45561 260.823C4.08749 261.829 4.43746 261.51 4.12378 262.156C4.19637 261.138 4.04083 260.124 3.89047 259.211C3.82826 259.497 3.76863 259.756 3.70642 259.421C3.70123 259.673 3.70642 259.917 3.71679 260.158C3.75567 260.496 3.78678 260.815 3.78678 261.041C3.81011 261.225 3.83603 261.401 3.86714 261.559L3.83863 261.454C3.92677 264.016 3.66753 263.895 3.75826 265.672C3.80752 265.312 3.85159 264.955 3.89307 264.812C4.01491 265.947 4.09786 265.947 4.186 265.98C4.11601 266.161 4.03305 266.333 3.9475 266.484C4.0512 267.746 4.09268 269.11 4.10823 270.514C4.13415 270.586 4.16267 270.65 4.19119 270.699C4.16526 269.658 4.16008 269.072 4.19119 268.606L4.31303 270.819C4.31303 270.822 4.31043 270.826 4.31043 270.826C4.29747 270.823 4.2871 270.807 4.27673 270.8C4.25081 270.601 4.23785 270.06 4.19119 270.699C4.21711 270.744 4.24563 270.785 4.27673 270.8C4.27673 270.811 4.27933 270.838 4.28192 270.845C4.26636 270.954 4.28192 270.92 4.31043 270.826C4.31303 270.826 4.31303 270.83 4.31303 270.83V270.819C4.31821 270.804 4.3208 270.789 4.32599 270.77C4.28451 271.131 4.25081 271.514 4.22489 271.912C4.21452 271.544 4.20415 271.153 4.16526 270.717C4.14712 270.935 4.12897 271.067 4.11082 271.142C4.11601 272.051 4.1186 272.964 4.12119 273.869C4.12897 273.854 4.14193 273.865 4.15749 273.888C4.16008 274.309 4.17304 274.699 4.19637 275.067C4.16785 274.943 4.14193 274.816 4.12378 274.673C4.12897 275.661 4.14452 276.626 4.18082 277.539L4.26636 276.39C4.2534 276.735 4.32599 277.577 4.34154 278.411L4.48412 278.136C4.45301 278.501 4.39339 278.704 4.34413 278.824C4.34154 279.177 4.3234 279.515 4.27673 279.797C4.26636 279.575 4.21452 279.192 4.23007 278.985C4.15749 279.004 4.06416 279.151 3.99157 279.429L3.9838 279.62L3.97084 279.511C3.92417 279.714 3.88788 279.981 3.87492 280.304L3.9475 280.424L3.9838 279.617L4.13934 280.849C4.11342 280.717 4.0849 280.68 4.05379 280.68L3.92158 280.98C3.91899 282.284 4.20674 280.597 4.20156 281.904C4.04601 282.111 3.97084 282.625 3.93195 283.287C3.95528 283.422 3.97602 283.55 3.99676 283.659C3.97343 283.531 3.9501 283.437 3.92677 283.366C3.87492 284.342 3.89825 285.619 3.86714 286.698L3.91121 287.017C3.93973 286.942 3.9838 286.964 4.05638 287.152C4.03305 287.302 4.00713 287.419 3.9838 287.554L4.07971 288.26L3.97602 287.607C3.93973 287.821 3.90603 288.087 3.88529 288.576L4.13156 288.283C4.1186 288.651 4.10564 288.997 4.09008 289.327C4.19637 289.985 4.24563 289.35 4.3208 288.846C4.37524 290.563 4.16526 290.939 4.08749 289.59ZM4.19896 248.058C4.20415 248.069 4.20674 248.081 4.21192 248.099C4.25859 247.525 4.29747 247.232 4.19896 248.058ZM4.17822 171.294C4.17304 171.632 4.17822 172.004 4.20156 172.417C4.20156 172.417 4.20156 172.42 4.20415 172.42C4.3234 172.199 4.24303 171.68 4.17822 171.294ZM4.10823 172.24C4.12378 172.278 4.14452 172.312 4.16785 172.349C4.14712 172.285 4.12638 172.251 4.10823 172.24ZM4.02528 99.0669C4.11342 99.2134 4.19637 99.2848 4.26896 99.2548L4.09786 97.6282C4.06675 98.1053 4.04083 98.5861 4.02528 99.0669ZM3.93973 65.6865L4.00454 65.3522C3.93195 65.1456 3.86714 64.9314 3.93973 65.6865ZM1.80622 60.942C1.80104 60.9307 1.79844 60.9195 1.79326 60.9007C1.7466 61.4754 1.70771 61.7684 1.80622 60.942ZM1.82696 137.706C1.83215 137.368 1.82696 136.996 1.80104 136.583C1.80104 136.583 1.80104 136.583 1.79844 136.58C1.68179 136.801 1.76474 137.32 1.82696 137.706ZM1.89955 136.76C1.88399 136.722 1.86325 136.685 1.83992 136.651C1.86066 136.715 1.87881 136.749 1.89955 136.76ZM1.97991 209.933C1.89177 209.787 1.80881 209.715 1.73623 209.745L1.90732 211.372C1.93843 210.895 1.96436 210.414 1.97991 209.933ZM2.06546 243.314L2.00065 243.648C2.07323 243.854 2.13804 244.069 2.06546 243.314ZM2.37135 20.334C2.06027 19.6616 2.18471 21.4197 2.10434 21.893L2.13545 22.0921C2.16397 21.3182 2.22618 20.6646 2.37135 20.334ZM2.50356 55.4763C2.51912 55.48 2.53208 55.4951 2.54763 55.5326C2.56319 55.4237 2.57874 55.3824 2.5943 55.3899C2.53986 54.3869 2.45172 54.2779 2.29877 53.7107L2.4906 53.275C2.36876 52.7378 2.28321 52.4711 2.221 52.2983C2.19248 53.5191 2.36876 54.5447 2.50356 55.4763ZM2.66429 61.5806C2.67984 61.3026 2.67207 60.9458 2.64614 60.6039C2.52949 60.4875 2.40246 60.3485 2.27285 60.5664C2.25729 61.1449 2.21322 61.6971 2.07064 61.6069C2.0162 62.4935 2.09916 62.9931 2.21322 63.4814C2.40765 62.6475 2.65911 62.1666 2.66429 61.5806ZM2.77317 219.448C2.73428 219.456 2.69799 219.467 2.65911 219.478C2.69021 219.599 2.73169 219.572 2.77317 219.448ZM3.23202 89.5517C3.2709 89.5441 3.30719 89.5329 3.34608 89.5216C3.31497 89.4014 3.27349 89.4277 3.23202 89.5517ZM3.73234 248.434C3.74789 247.855 3.79196 247.303 3.93454 247.393C3.98898 246.507 3.90603 246.007 3.79196 245.519C3.60013 246.353 3.34867 246.833 3.34349 247.423C3.32793 247.705 3.33571 248.058 3.36163 248.4C3.4731 248.516 3.60013 248.652 3.73234 248.434ZM3.78678 256.702C3.8127 255.481 3.63901 254.455 3.50421 253.524C3.48866 253.52 3.4757 253.505 3.46014 253.467C3.44459 253.576 3.42903 253.618 3.41348 253.61C3.46792 254.613 3.55606 254.722 3.70901 255.289L3.51717 255.725C3.63901 256.262 3.72197 256.529 3.78678 256.702ZM3.90084 287.103L3.86973 286.904C3.84122 287.678 3.78159 288.332 3.63383 288.662C3.94491 289.335 3.82048 287.58 3.90084 287.103ZM4.67596 281.517C4.59819 281.457 4.46598 281.844 4.36487 281.919L4.45561 282.641C4.51005 282.269 4.5593 281.566 4.67596 281.517ZM4.36747 281.919L4.23266 280.841C4.21452 281.803 4.27933 281.979 4.36747 281.919ZM4.68633 277.393L4.86779 278.005L4.593 276.916L4.68633 277.393ZM4.65522 274.658C4.80557 275.112 4.91186 274.038 5.00259 274.515C4.97667 273.771 4.84705 273.137 4.7304 272.566C4.7952 273.174 4.77965 273.824 4.65522 274.658ZM4.7304 272.569C4.69669 272.246 4.64485 271.931 4.5593 271.611C4.59559 271.912 4.6604 272.227 4.7304 272.569ZM4.35191 273.572C4.25599 273.076 4.24822 272.535 4.23266 271.923C4.18859 272.581 4.16526 273.257 4.16526 273.903C4.23526 273.993 4.35969 274.279 4.35191 273.572ZM4.29229 276.01C4.2871 275.976 4.28451 275.931 4.27933 275.901C4.26118 275.969 4.2534 276.022 4.29229 276.01ZM4.23526 265.898C4.22229 265.932 4.20674 265.962 4.19378 265.995C4.20674 266.003 4.2197 266.007 4.23266 266.018L4.23526 265.898ZM4.4582 269.928C4.41154 270.184 4.37265 270.477 4.33636 270.781C4.40635 270.529 4.51523 270.019 4.4582 269.928ZM4.34154 275.736C4.34413 275.762 4.34932 275.781 4.35191 275.811C4.39857 275.646 4.37524 275.668 4.34154 275.736ZM4.34154 275.736C4.31043 275.481 4.25599 275.281 4.20674 275.082C4.22489 275.383 4.24822 275.661 4.27933 275.901C4.29488 275.841 4.31821 275.777 4.34154 275.736ZM4.17304 268.155L4.19896 268.621C4.23526 268.088 4.31821 267.708 4.47634 267.01C4.37524 266.232 4.30006 266.074 4.23266 266.018L4.20415 268.313L4.17304 268.155ZM4.34673 265.687L4.58263 265.932L4.24822 264.868L4.34673 265.687ZM4.31821 263.294L4.52301 263.385L4.39857 262.754L4.31821 263.294ZM1.77252 128.206L1.71549 127.665C1.73104 127.925 1.75178 128.086 1.77252 128.206ZM1.75697 132.128L1.85807 132.226C1.80363 132.042 1.76215 131.967 1.75697 132.128ZM2.16656 162.642C2.11471 162.875 2.06805 163.209 2.02139 163.683L2.16656 162.642ZM1.53402 106.805L1.3059 106.174C1.3059 107.162 1.41996 106.726 1.53402 106.805ZM4.15749 129.75C4.11601 129.42 4.07194 129.277 4.02009 129.288C4.06157 129.626 4.10305 129.822 4.15749 129.75ZM4.37006 237.078C4.46598 236.473 4.5256 235.778 4.37006 235.113C4.34673 235.233 4.33636 235.35 4.31821 235.474C4.3545 235.97 4.38561 236.473 4.37006 237.078ZM1.72067 29.1882C1.73104 29.1318 1.73623 29.0642 1.7466 29.0116C1.71549 28.9928 1.71549 29.0717 1.72067 29.1882ZM3.98898 6.57391C4.00194 6.79554 4.00194 7.15993 4.00713 7.50177C4.02268 7.33648 4.02009 7.05474 3.98898 6.57391ZM4.41672 253.663C4.42968 254.17 4.44005 253.742 4.41672 253.663V253.663ZM4.31303 254.425C4.34154 254.234 4.36487 254.016 4.38043 253.775C4.36228 253.881 4.34154 254.08 4.31303 254.425ZM4.41931 254.324C4.40894 254.5 4.40376 254.636 4.39857 254.767C4.43487 254.831 4.4582 254.775 4.41931 254.324ZM4.41672 253.663C4.41413 253.512 4.40894 253.302 4.40376 252.956C4.40635 253.246 4.39598 253.516 4.38043 253.779C4.39598 253.678 4.40894 253.636 4.41672 253.663ZM1.95917 191.289C1.96176 191.312 1.96695 191.327 1.96954 191.346C1.97213 191.323 1.97472 191.293 1.97732 191.271L1.95917 191.289ZM1.82696 129.942L1.82178 129.735C1.82178 129.818 1.82437 129.882 1.82696 129.942ZM2.12767 163.758C2.16915 163.653 2.21581 163.623 2.26248 163.6C2.221 163.454 2.17434 163.45 2.12767 163.758ZM1.53402 106.805L1.5755 106.922C1.57809 106.903 1.5755 106.884 1.57809 106.862C1.56254 106.832 1.54699 106.817 1.53402 106.805ZM1.9825 223.209C2.01879 222.856 2.06546 222.656 2.11212 222.525C2.0499 222.506 1.99806 222.668 1.9825 223.209ZM4.52301 258.805L4.46338 257.817C4.47634 258.351 4.42191 258.539 4.38043 258.809C4.43227 258.787 4.49968 258.633 4.52301 258.805ZM4.24303 251.995C4.18859 252.359 4.51264 252.224 4.42709 252.431C4.6941 252.836 4.10305 249.993 4.24303 251.995ZM1.60143 203.28C1.4744 204.873 1.92806 203.66 1.76993 205.098C1.89436 205.474 1.89955 203.923 2.00583 204.306C1.87622 203.344 1.9488 202.837 1.60143 203.28ZM4.27414 2.82115L4.38302 1.79562L4.20674 2.45676L4.27414 2.82115ZM4.21711 0.616069L3.9138 0C3.92936 0.232904 3.95787 0.67993 3.8827 0.856486L4.21711 0.616069ZM1.18924 140.809L1.2696 140.888C1.35774 140.73 1.36293 140.49 1.37848 140.009L1.18924 140.809ZM1.44329 126.918L1.43552 127.158L1.73882 126.711L1.44329 126.918ZM1.05444 115.261C1.04407 115.629 1.08296 116.046 1.09332 116.441C1.12184 115.611 1.39145 115.145 1.05444 115.261ZM1.74141 0.360626C1.75956 -0.093913 1.5418 0.0676173 1.50292 0C1.55217 0.762573 1.79844 0.341843 1.74141 0.360626ZM1.43033 18.6887C1.5755 18.4558 1.55476 19.5001 1.4744 17.8134C1.45885 17.8998 1.44848 17.9224 1.43811 17.9712C1.4407 18.1252 1.4407 18.3318 1.43033 18.6887ZM1.43811 17.9712C1.42774 17.2312 1.31627 18.4558 1.43811 17.9712V17.9712ZM1.52106 21.3971L1.39145 20.4204C1.3059 20.6233 1.28775 21.4948 1.22553 21.1717C1.29553 22.1747 1.38108 21.9681 1.52106 21.3971ZM1.79067 22.325L1.73623 21.8179C1.69994 21.9043 1.68697 22.0395 1.79067 22.325ZM1.62216 20.7435L1.73623 21.8179C1.79585 21.6751 1.9151 21.6601 1.69475 21.3258C1.80363 21.4122 1.69994 21.198 1.62216 20.7435ZM1.32923 27.4827C1.407 27.5428 1.53921 27.1559 1.64031 27.0807L1.54958 26.3595C1.49514 26.7314 1.44588 27.4339 1.32923 27.4827ZM1.64031 27.0807L1.77511 28.1589C1.79067 27.1972 1.72586 27.0206 1.64031 27.0807ZM1.31886 31.6074L1.13739 30.995L1.41218 32.0844L1.31886 31.6074ZM1.34997 34.3421C1.19961 33.8876 1.09592 34.9619 1.00259 34.4848C1.02852 35.2286 1.15813 35.8635 1.27479 36.4345C1.20998 35.8259 1.22813 35.176 1.34997 34.3421ZM1.27479 36.4307C1.30849 36.7538 1.36034 37.0693 1.44588 37.3886C1.40959 37.0881 1.34478 36.7726 1.27479 36.4307ZM1.65327 35.4277C1.74919 35.9236 1.75697 36.4645 1.77252 37.0768C1.81659 36.4195 1.83992 35.7433 1.83992 35.0972C1.76993 35.007 1.6455 34.7253 1.65327 35.4277ZM1.71549 32.9898C1.72067 33.0236 1.72327 33.0686 1.72845 33.0987C1.7466 33.0311 1.75178 32.9785 1.71549 32.9898ZM1.77252 43.1023C1.78548 43.0685 1.80104 43.0384 1.814 43.0046C1.80104 42.9971 1.78808 42.9934 1.77511 42.9821L1.77252 43.1023ZM1.54958 39.0716C1.59624 38.8161 1.63513 38.5231 1.67142 38.2188C1.60143 38.4705 1.49255 38.9814 1.54958 39.0716ZM1.66623 33.264C1.66364 33.2377 1.65846 33.2189 1.65587 33.1888C1.6092 33.3541 1.63253 33.3316 1.66623 33.264ZM1.66623 33.264C1.69734 33.5194 1.75178 33.7185 1.80104 33.9176C1.78289 33.6171 1.75956 33.3391 1.72845 33.0987C1.7103 33.1588 1.68697 33.2227 1.66623 33.264ZM1.83215 40.8446L1.80622 40.3788C1.76993 40.9123 1.68957 41.2917 1.52884 41.9904C1.62994 42.768 1.70512 42.9257 1.77252 42.9821L1.80104 40.6869L1.83215 40.8446ZM1.66105 43.3127L1.42515 43.0685L1.75956 44.1316L1.66105 43.3127ZM1.68957 45.7056L1.48477 45.6154L1.6092 46.2465L1.68957 45.7056ZM4.23526 180.794L4.29229 181.335C4.27414 181.075 4.25599 180.914 4.23526 180.794ZM4.24822 176.872L4.14712 176.774C4.20415 176.958 4.24303 177.033 4.24822 176.872ZM3.84122 146.358C3.89307 146.125 3.93973 145.791 3.98639 145.317L3.84122 146.358ZM4.47375 202.195L4.70188 202.826C4.70188 201.838 4.58522 202.274 4.47375 202.195ZM1.8477 179.25C1.88918 179.58 1.93325 179.723 1.98509 179.712C1.94621 179.374 1.90214 179.178 1.8477 179.25ZM1.63513 71.9223C1.53921 72.5271 1.47959 73.2221 1.63513 73.887C1.65846 73.7668 1.66883 73.6503 1.68697 73.5263C1.65068 73.0305 1.62216 72.5271 1.63513 71.9223ZM4.2871 279.812C4.27673 279.868 4.27155 279.936 4.26118 279.988C4.2897 280.007 4.29229 279.928 4.2871 279.812ZM2.0162 302.426C2.00324 302.204 2.00324 301.84 1.99806 301.498C1.98509 301.664 1.98509 301.945 2.0162 302.426ZM1.59106 55.3373C1.5755 54.8302 1.56513 55.2584 1.59106 55.3373V55.3373ZM1.69216 54.5747C1.66364 54.7663 1.64031 54.9842 1.62476 55.2246C1.6429 55.1194 1.66623 54.9203 1.69216 54.5747ZM1.58587 54.6761C1.59624 54.4996 1.60143 54.3643 1.60661 54.2329C1.57032 54.169 1.54699 54.2254 1.58587 54.6761ZM1.59106 55.3373C1.59365 55.4875 1.59883 55.6979 1.60402 56.0435C1.60143 55.7543 1.6118 55.4838 1.62735 55.2208C1.6118 55.3223 1.59883 55.3636 1.59106 55.3373ZM4.04861 117.711C4.04601 117.688 4.04083 117.673 4.03824 117.654C4.03564 117.677 4.03305 117.707 4.03046 117.729L4.04861 117.711ZM4.17822 179.058L4.18341 179.261C4.186 179.182 4.18341 179.118 4.17822 179.058ZM3.87751 145.242C3.83603 145.347 3.78937 145.377 3.74271 145.4C3.78419 145.546 3.83344 145.55 3.87751 145.242ZM4.47375 202.195L4.43227 202.078C4.42968 202.097 4.43227 202.116 4.42968 202.138C4.44264 202.168 4.4582 202.183 4.47375 202.195ZM4.02268 85.7914C3.98639 86.1445 3.93973 86.3436 3.89307 86.4751C3.95528 86.4939 4.00713 86.3323 4.02268 85.7914ZM1.48477 50.1946L1.54439 51.1826C1.53143 50.6491 1.58587 50.4613 1.62735 50.1909C1.5755 50.2134 1.50551 50.3674 1.48477 50.1946ZM1.76215 57.0052C1.81659 56.6408 1.49255 56.776 1.57809 56.5694C1.31108 56.1637 1.90473 59.0074 1.76215 57.0052ZM4.40376 105.72C4.53078 104.127 4.07712 105.34 4.23526 103.902C4.11082 103.526 4.10564 105.077 3.99935 104.694C4.13156 105.656 4.05638 106.163 4.40376 105.72ZM1.73364 306.179L1.62476 307.204L1.80104 306.543L1.73364 306.179ZM1.78808 308.384L2.09138 309C2.07583 308.767 2.04731 308.32 2.12249 308.144L1.78808 308.384ZM4.81594 168.191L4.73558 168.112C4.64744 168.27 4.64225 168.51 4.6267 168.991L4.81594 168.191ZM4.56448 182.082L4.57226 181.842L4.26896 182.289L4.56448 182.082ZM4.95074 193.739C4.96111 193.371 4.92223 192.954 4.91186 192.559C4.88594 193.393 4.61633 193.855 4.95074 193.739Z" fill="white"/>
<path d="M3.50227 309C3.46338 308.932 3.24563 309.094 3.26377 308.639C3.20933 308.658 3.45561 308.237 3.50227 309ZM3.57745 290.311C3.43227 290.544 3.45301 289.5 3.53338 291.187C3.54893 291.1 3.5593 291.078 3.56967 291.029C3.56708 290.875 3.56708 290.668 3.57745 290.311ZM3.56708 291.029C3.57745 291.769 3.68892 290.544 3.56708 291.029V291.029ZM3.48671 287.603L3.61633 288.58C3.70188 288.377 3.72003 287.505 3.78224 287.828C3.70966 286.829 3.62411 287.032 3.48671 287.603ZM3.21452 286.675L3.26896 287.182C3.30525 287.096 3.31821 286.961 3.21452 286.675ZM3.38561 288.256L3.27155 287.182C3.21192 287.325 3.09268 287.34 3.31303 287.674C3.20156 287.588 3.30784 287.802 3.38561 288.256ZM3.08749 289.59C2.95787 292.558 2.80233 294.102 2.83863 297.066C2.86973 297.61 2.90084 298.151 2.9164 298.643L2.74012 298.309C2.74789 298.865 2.81529 299.263 2.9475 299.616C2.83344 299.875 2.77382 298.974 2.67272 299.462C3.30266 301.667 2.21128 303.869 2.65198 305.213C2.15424 305.037 1.68244 307.918 1.29618 306.72L1.3558 307.621C1.02916 307.325 1.34802 304.785 1.00583 304.267L1.34802 301.416C1.22359 301.506 1.04213 301.036 0.998056 301.494C0.990279 300.788 0.974724 300.176 0.798444 301.096C1.63318 294.286 0.824368 287.287 1.27025 280.578C1.24174 280.124 1.12508 280.387 1.0499 280.559C1.36617 279.323 0.883992 279.376 0.839922 278.7L1.29618 276.893C1.16137 276.161 1.02139 276.732 0.930654 276.679C0.839922 273.257 1.28321 269.921 1.01361 267.152C1.17693 266.27 1.38172 267.363 1.43616 266.198C0.964355 267.78 1.21581 262.806 0.883992 263.813C1.38432 262.686 0.990279 259.621 1.68503 260.131C1.72651 258.738 1.3895 258.978 1.32728 259.38C1.35321 257.765 1.35839 256.458 1.13804 255.135C1.30136 254.249 0.964355 247.746 1.48801 246.304C1.14841 247.288 1.31173 246.229 1.16397 245.282L0.863253 246.135L0.894362 244.005C0.865846 243.569 0.878807 243.449 0.904731 243.453C0.920285 243.092 1.07842 243.539 1.1536 242.622C1.17174 241.172 1.00843 241.101 0.852884 240.305L0.808814 240.526L0.780298 239.542C0.790667 238.817 1.07842 242.1 1.23137 239.741C1.14841 239.707 0.754375 238.317 0.96954 237.682C0.953986 238.888 1.16137 238.738 1.24951 238.295L1.25729 237.604C1.23914 237.57 1.22359 237.544 1.20285 237.536C1.22359 237.48 1.24174 237.435 1.25988 237.401L1.27025 236.604L0.891769 237.164C0.909916 232.987 1.11212 228.663 1.151 224.234C1.13804 224.215 1.12249 224.2 1.10434 224.189C1.0862 223.701 1.11212 223.547 1.15619 223.49C1.15878 223.186 1.15878 222.882 1.15878 222.581C1.14064 222.555 1.12508 222.532 1.10693 222.525C1.12249 222.48 1.14064 222.446 1.15878 222.423C1.15878 222.315 1.15878 222.206 1.15878 222.1C1.37654 222.146 1.31692 220.553 1.38691 219.587C1.13027 219.715 0.902139 219.922 0.767336 220.207C0.559948 220.117 0.987686 219.084 1.01102 218.562C1.27285 217.371 0.961763 216.627 0.8814 215.748C0.681789 214.959 0.746597 213.723 0.83733 212.352C0.744005 211.657 0.658457 210.805 0.453662 210.891L0.557356 207.709C0.567725 208.111 0.65068 209.34 0.808814 208.855C0.79326 207.529 0.855476 208.104 0.982502 207.307C0.933247 206.327 0.964355 205.309 1.0162 204.396C1.01102 204.366 1.00583 204.332 1.00065 204.306C1.00583 204.325 1.01102 204.347 1.0162 204.373C1.07064 203.427 1.14582 202.593 1.16656 202.029C1.10434 201.669 1.06805 201.237 1.08879 200.673L0.953986 201.59C0.896954 201.015 1.02139 198.923 0.907323 199.148C0.951393 199.02 1.00843 198.896 1.07583 198.795C1.03694 198.262 1.03953 197.721 1.07323 196.936L0.982502 196.601C0.995463 196.673 1.03435 196.714 1.08101 196.74C1.09397 196.44 1.11212 196.109 1.13545 195.73C1.17174 195.76 1.23137 196.004 1.28062 195.786C1.14323 195.658 1.01102 195.677 0.974724 195.917C1.05768 195.531 1.10953 195.256 1.14841 195.042C1.07064 194.693 1.00843 194.268 0.982502 193.664C0.982502 193.671 0.979909 193.679 0.977317 193.682C0.842515 192.552 0.907323 191.887 0.961763 191.35C0.982502 191.541 1.01361 191.691 1.0499 191.823L1.04213 191.211L0.96954 191.278C1.02916 190.688 1.06286 190.249 0.78289 189.471L1.02139 189.813L1.0162 189.479C1.16656 189.483 1.24174 189.302 1.27285 189.002L0.972132 188.19C1.0162 188.258 1.151 188.367 1.28581 188.461C1.25988 187.225 0.948801 185.178 1.14064 184.081C1.13027 183.277 1.13286 182.488 1.14582 181.834C1.08101 181.064 1.03176 180.227 0.974724 179.716C1.00843 179.708 1.04472 179.648 1.08101 179.486C0.87103 178.923 0.899546 178.115 0.977317 177.285C0.979909 177.157 0.992871 177.026 1.01879 176.879C1.0836 176.282 1.1536 175.7 1.16656 175.204C1.10693 174.96 1.0162 174.858 0.87103 175.012C0.899546 174.821 0.9151 174.637 0.928062 174.472C0.883992 174.547 0.83733 174.667 0.79326 174.791C1.13027 173.153 0.417369 170.264 0.559948 169.667C0.593649 168.465 0.863253 169.22 1.03953 168.889C1.03694 168.822 1.03176 168.762 1.02916 168.705C0.990279 168.529 0.953986 168.352 0.917693 168.172C0.720674 167.826 0.39663 168.641 0.640311 166.793C0.674012 167.071 0.702528 167.586 0.74919 167.387C0.772521 167.082 0.886585 166.696 1.02398 166.286L1.10953 165.306L0.961763 165.193L1.33247 164.731C1.24692 164.397 1.17434 164.186 1.21063 164.115C1.24433 164.055 1.29358 164.137 1.34802 164.269C1.32988 163.987 1.29618 163.732 1.25729 163.6C1.29618 163.578 1.33765 163.585 1.37913 163.608C1.39987 163.206 1.44913 162.796 1.50616 162.409C1.38691 162.143 1.27025 162.143 1.15878 162.642L1.37654 161.087C1.01102 159.261 1.0836 159.581 0.811406 157.357C0.941024 157.237 1.0499 157.826 1.14323 157.428C0.865846 156.35 1.17174 154.956 1.30136 154.04C1.30136 153.687 1.29877 153.409 1.29877 153.165C1.2884 153.15 1.28321 153.131 1.27025 153.119C1.17952 151.812 0.951393 152.575 0.847699 151.741C0.889177 151.782 0.96954 151.857 0.977317 151.617L0.712897 150.629C0.808814 150.231 0.896954 151.538 1.01102 150.422C0.811406 148.518 0.676604 147.398 0.803629 145.806C0.741413 143.54 0.277382 146.775 0.329229 144.863C0.544394 144.581 0.803629 144.333 0.834737 143.138C0.684381 142.507 0.515878 142.594 0.419961 141.519L0.554763 141.546C0.539209 141.347 0.531432 141.121 0.52884 140.869C0.591056 141.185 0.627349 141.685 0.710305 141.482C0.795852 141.271 0.702527 140.798 0.671419 140.637C0.69475 140.584 0.715489 140.591 0.736228 140.625C0.736228 140.314 0.74919 140.069 0.798444 139.93C0.741413 139.258 0.811406 138.601 0.829553 137.763C0.629942 136.812 0.184057 139.13 0.0622165 139.457C0.311082 137.977 0.165911 136.955 0.565133 136.11L0.653273 137.421C1.06286 134.626 0.184057 134.769 0.886585 133.473C0.868438 134.168 0.956578 134.964 1.07583 135.13C1.10953 134.9 1.14323 134.682 1.15878 134.513L1.12249 134.213C1.08879 134.202 1.03435 134.235 0.946209 134.344C0.987686 133.905 1.01879 133.443 1.04213 132.958C0.977317 132.673 0.909916 132.391 0.858069 132.218L0.878807 132.237L0.82696 129.938C0.847699 130.227 0.933247 130.246 0.943616 129.848L0.769929 128.206C0.852884 128.71 0.956578 128.195 1.00843 127.459C1.10953 125.344 0.261828 125.765 0.598833 124.123C0.591056 124.363 0.632534 124.401 0.627349 124.641L0.775113 123.796C0.0725859 123.62 0.702527 118.822 0 118.642C0.285159 117.44 0.168503 118.56 0.502916 120.103L0.70512 118.822C0.731043 119.341 0.679196 119.777 0.746597 120.336C1.04213 118.657 0.668827 117.076 0.48477 116.163C0.585872 115.52 1.01361 116.666 0.896954 114.837C0.759559 112.252 0.383668 115.325 0.300713 113.774L0.666235 112.651C0.38626 110.671 0.637719 109.187 0.681789 107.515C0.653273 107.136 0.614388 106.952 0.575502 106.858C0.604018 106.542 0.609203 106.223 0.601426 105.904L0.451069 106.065C0.277382 106.137 0.404407 105.652 0.559948 105.07C0.464031 103.86 0.259235 102.688 0.339598 101.787C0.414776 102.102 0.567725 101.02 0.658457 100.859L0.432923 98.4396C0.51847 99.405 0.697343 99.4614 0.8814 99.6079C0.785483 98.417 0.629942 97.1812 0.710305 95.9791L0.676604 95.7236C0.640311 95.8739 0.627349 96.1669 0.61698 96.4111C0.614387 95.7762 0.482178 94.4013 0.653273 93.496C0.733636 93.5749 0.808814 93.8867 0.891769 93.9656C0.756967 94.4126 0.769929 94.7432 0.834737 95.0212C0.842515 94.9836 0.847699 94.9423 0.855476 94.9047C0.850292 94.946 0.842515 94.9911 0.83733 95.0362C0.847699 95.0813 0.860661 95.1263 0.873623 95.1677C0.894362 94.3788 0.956578 93.6049 1.00324 92.8912C0.920285 92.7409 0.829553 92.7184 0.754375 92.8574C0.811406 91.8657 0.855476 91.3548 0.801037 90.6335L0.775113 90.6448C0.756967 90.4044 0.741413 90.1752 0.728451 89.9499C0.712897 89.8372 0.697343 89.7207 0.679196 89.593L0.707712 89.6193C0.640311 88.5825 0.601426 87.6922 0.611795 86.7718L0.349968 86.7042C0.445885 84.9462 0.0233312 81.1709 0.565133 80.0927C0.355152 79.6645 0.627349 77.6585 0.557356 76.6593L0.699935 76.479C0.762152 75.908 0.798444 75.3295 0.676604 74.7359L0.780298 75.0177C0.767336 74.4467 0.728451 73.9771 0.69475 73.5226C0.845107 72.5722 0.889177 71.6518 0.883992 70.7503C0.873623 70.7165 0.860661 70.6827 0.850292 70.6489C0.82696 70.9682 0.723266 71.4114 0.642903 71.9148C0.653273 71.4903 0.684381 71.0095 0.754375 70.431C0.746597 70.4197 0.741413 70.4047 0.736228 70.3934C0.744005 70.4047 0.74919 70.4122 0.756967 70.4197C0.764744 70.3521 0.772521 70.2882 0.780298 70.2206C0.83733 70.2845 0.855476 70.3934 0.855476 70.5286C0.865846 70.5362 0.876215 70.5324 0.883992 70.5324C0.863253 68.9997 0.715489 67.5347 0.733636 66.1185L0.790667 66.096L0.645496 63.7519C0.82696 64.368 0.51847 63.2898 0.570318 62.5836C0.471808 61.8361 0.523655 60.6265 0.655865 59.7474L0.666235 58.2523C0.769929 59.5108 0.883992 58.797 1.03435 58.335C0.977317 57.5574 0.951393 56.637 1.10693 55.4913C1.06286 54.8414 1.00583 54.184 0.878807 53.8798C0.819183 53.9737 0.764744 54.2028 0.718082 54.4846C0.733636 54.5634 0.728451 54.5597 0.712897 54.5071C0.710305 54.5296 0.70512 54.5484 0.699935 54.571C0.702527 54.5409 0.70512 54.5259 0.707712 54.4921C0.684381 54.4132 0.645496 54.2855 0.614387 54.2329C0.666235 53.0458 0.570318 53.4816 0.466623 53.5229C0.806222 52.2607 0.614387 51.5207 0.935839 50.5853C0.935839 50.5815 0.935839 50.5778 0.935839 50.574C0.585872 51.2652 0.979909 47.3434 0.552171 48.1661C0.920285 47.1593 0.570318 47.4786 0.883992 46.8325C0.811406 47.8505 0.966948 48.8648 1.1173 49.7776C1.17952 49.4921 1.23914 49.2329 1.30136 49.5673C1.30655 49.3156 1.30136 49.0714 1.29099 48.831C1.25211 48.4929 1.21841 48.1736 1.221 47.9445C1.19767 47.7604 1.17174 47.5838 1.14064 47.4261L1.16915 47.5312C1.08101 44.9693 1.34025 45.0895 1.24951 43.3127C1.20026 43.6733 1.15619 44.0302 1.11471 44.1729C0.992871 43.0384 0.909916 43.0384 0.821776 43.0046C0.891769 42.8243 0.974725 42.6515 1.06027 42.5013C0.956578 41.2391 0.9151 39.8755 0.899546 38.4705C0.873623 38.3991 0.845107 38.3353 0.816591 38.2864C0.842515 39.327 0.847699 39.913 0.816591 40.3788L0.69475 38.1662C0.69475 38.1625 0.697343 38.1587 0.697343 38.1587C0.710305 38.1625 0.720674 38.1775 0.731043 38.185C0.756967 38.3841 0.769929 38.9251 0.816591 38.2864C0.790667 38.2414 0.762152 38.2 0.731043 38.185C0.731043 38.1737 0.728451 38.1475 0.725859 38.1399C0.741413 38.031 0.725859 38.0648 0.697343 38.1587C0.69475 38.1587 0.69475 38.155 0.69475 38.155V38.1662C0.689566 38.1813 0.686973 38.1963 0.681789 38.2151C0.723266 37.8544 0.756967 37.4713 0.78289 37.0731C0.79326 37.4412 0.803629 37.8319 0.842515 38.2677C0.860661 38.0498 0.878807 37.9183 0.896954 37.8432C0.891769 36.9341 0.889177 36.0213 0.886585 35.1159C0.878807 35.131 0.865846 35.1197 0.850292 35.0972C0.847699 34.6764 0.834737 34.2858 0.811406 33.9176C0.839922 34.0416 0.865846 34.1693 0.883992 34.312C0.878807 33.3241 0.863253 32.3587 0.82696 31.4458L0.741413 32.5953C0.754375 32.2497 0.681789 31.4083 0.666235 30.5743L0.523655 30.8485C0.554763 30.4842 0.614387 30.2813 0.663642 30.1611C0.666235 29.808 0.684381 29.4699 0.731043 29.1882C0.741413 29.4098 0.79326 29.793 0.777706 29.9996C0.850292 29.9808 0.943616 29.8343 1.0162 29.5563L1.02398 29.3647L1.03694 29.4736C1.0836 29.2708 1.1199 29.0041 1.13286 28.681L1.06027 28.5608L1.01361 29.3647L0.858069 28.1326C0.883992 28.2641 0.912508 28.3016 0.943616 28.3016L1.07583 28.0011C1.07842 26.6976 0.790667 28.3843 0.795852 27.077C0.951393 26.8704 1.02657 26.3557 1.06546 25.6946C1.04213 25.5594 1.02139 25.4316 1.00065 25.3227C1.02398 25.4467 1.04731 25.5443 1.07064 25.6157C1.12249 24.6353 1.09916 23.3618 1.13027 22.2837L1.0862 21.9644C1.05768 22.0395 1.01361 22.017 0.941024 21.8291C0.964355 21.6789 0.990279 21.5624 1.01361 21.4272L0.917693 20.721L1.02139 21.3746C1.05768 21.1605 1.09138 20.8938 1.11212 20.4054L0.865846 20.6984C0.878807 20.3303 0.891769 19.9847 0.907323 19.6579C0.801037 19.0005 0.751782 19.6316 0.676604 20.1349C0.629942 18.437 0.839922 18.0613 0.917693 19.4099C1.04731 16.4423 1.20285 14.8984 1.16656 11.9345C1.13545 11.3898 1.10434 10.8488 1.08879 10.3567L1.26507 10.6911C1.25729 10.1351 1.18989 9.7369 1.05768 9.38378C1.17174 9.12459 1.23137 10.0261 1.33247 9.5378C0.699935 7.32897 1.79132 5.12765 1.35062 3.78281C1.84835 3.95937 2.32016 1.07812 2.70642 2.27645L2.64679 1.37489C2.97343 1.67165 2.65457 4.21106 2.99676 4.72946L2.65457 7.58066C2.779 7.4905 2.96047 7.96006 3.00454 7.50177C3.01231 8.20799 3.02787 8.82031 3.20415 7.89996C2.36941 14.7105 3.17822 21.7089 2.73234 28.4181C2.76086 28.8726 2.87751 28.6096 2.95269 28.4368C2.63642 29.6727 3.1186 29.6202 3.16267 30.2963L2.70642 32.1032C2.84122 32.8357 2.98121 32.2647 3.07194 32.3173C3.16267 35.7395 2.71938 39.0753 2.98898 41.8439C2.82566 42.7266 2.62087 41.6335 2.56643 42.798C3.03824 41.2165 2.78678 46.1902 3.1186 45.1834C2.61828 46.3104 3.01231 49.3757 2.31756 48.8648C2.27609 50.2585 2.61309 50.0181 2.67531 49.6161C2.64938 51.2314 2.6442 52.5387 2.86455 53.861C2.70123 54.7475 3.03824 61.25 2.51458 62.6925C2.85418 61.7083 2.69086 62.7677 2.83863 63.7143L3.13934 62.8616L3.10823 64.9915C3.13675 65.4273 3.12378 65.5475 3.09786 65.5437C3.08231 65.9044 2.92417 65.4573 2.849 66.3739C2.83085 67.824 2.99417 67.8953 3.14971 68.6917L3.19378 68.4701L3.22229 69.4543C3.21192 70.1793 2.92417 66.8961 2.77122 69.2552C2.85418 69.289 3.24822 70.6789 3.03305 71.3138C3.04861 70.1079 2.84122 70.2582 2.75308 70.7015L2.7453 71.3926C2.76345 71.4265 2.779 71.4528 2.79974 71.4603C2.779 71.5166 2.76086 71.5617 2.74271 71.5955L2.73234 72.3919L3.11082 71.8322C3.09268 76.0094 2.89047 80.3332 2.849 84.7621C2.86196 84.7809 2.87751 84.7959 2.89566 84.8072C2.9138 85.2955 2.88788 85.4495 2.8464 85.5059C2.84381 85.8102 2.84381 86.1144 2.84381 86.415C2.86196 86.4413 2.87751 86.4638 2.89566 86.4713C2.8801 86.5164 2.86196 86.5502 2.84381 86.5727C2.84381 86.6817 2.84381 86.7906 2.84381 86.8958C2.62605 86.8507 2.68568 88.4435 2.61568 89.4089C2.87233 89.2812 3.10045 89.0746 3.23526 88.7891C3.44264 88.8792 3.01491 89.9123 2.99157 90.4344C2.72975 91.6253 3.04083 92.3691 3.12119 93.2481C3.3208 94.0369 3.25599 95.2728 3.16526 96.644C3.25859 97.3389 3.34413 98.1917 3.54893 98.1053L3.44524 101.287C3.43487 100.885 3.35191 99.6567 3.19378 100.141C3.20933 101.467 3.14712 100.893 3.02009 101.689C3.06935 102.669 3.03824 103.687 2.98639 104.6C2.99157 104.63 2.99676 104.664 3.00194 104.69C2.99676 104.672 2.99157 104.649 2.98639 104.623C2.93195 105.569 2.85677 106.403 2.83603 106.967C2.89825 107.328 2.93454 107.76 2.9138 108.323L3.04861 107.406C3.10564 107.981 2.98121 110.074 3.09527 109.848C3.0512 109.976 2.99417 110.1 2.92677 110.201C2.96565 110.735 2.96306 111.276 2.92677 112.061L3.0175 112.395C3.00454 112.324 2.96565 112.282 2.91899 112.256C2.90603 112.557 2.88788 112.887 2.86455 113.267C2.82826 113.237 2.76863 112.992 2.71938 113.21C2.85677 113.338 2.99157 113.319 3.02528 113.079C2.94232 113.466 2.89047 113.74 2.85159 113.954C2.92936 114.303 2.99157 114.728 3.0175 115.333C3.0175 115.325 3.02009 115.318 3.02268 115.314C3.15749 116.445 3.09268 117.109 3.03824 117.647C3.0175 117.455 2.98639 117.305 2.9501 117.173L2.95787 117.786L3.03046 117.718C2.97084 118.308 2.93714 118.747 3.21711 119.525L2.97861 119.183L2.9838 119.514C2.83344 119.51 2.75826 119.69 2.72715 119.991L3.02528 120.802C2.98121 120.735 2.8464 120.626 2.7116 120.532C2.73752 121.768 3.04861 123.815 2.85677 124.912C2.86714 125.716 2.86455 126.505 2.85159 127.158C2.9164 127.928 2.96565 128.766 3.02268 129.277C2.98898 129.284 2.95269 129.344 2.9164 129.506C3.12638 130.069 3.09786 130.881 3.02009 131.707C3.0175 131.835 3.00454 131.967 2.97861 132.113C2.9138 132.71 2.84381 133.296 2.83085 133.788C2.89047 134.033 2.98121 134.134 3.12638 133.98C3.09786 134.172 3.08231 134.356 3.06935 134.521C3.11342 134.446 3.16008 134.326 3.20415 134.202C2.86714 135.839 3.58004 138.728 3.43746 139.326C3.40376 140.528 3.13415 139.773 2.95787 140.103C2.96047 140.171 2.96565 140.231 2.96824 140.287C3.00713 140.464 3.04342 140.64 3.07971 140.821C3.27673 141.166 3.60078 140.351 3.3571 142.199C3.3234 141.921 3.29488 141.407 3.24822 141.606C3.22489 141.91 3.11082 142.293 2.97343 142.706L2.88788 143.687L3.03564 143.8L2.66494 144.262C2.75049 144.596 2.82307 144.806 2.78678 144.878C2.75308 144.938 2.70382 144.855 2.64938 144.724C2.66753 145.005 2.70123 145.261 2.74012 145.392C2.70123 145.415 2.65975 145.407 2.61828 145.385C2.59754 145.787 2.54828 146.196 2.49125 146.583C2.6105 146.85 2.72715 146.85 2.83863 146.35L2.62087 147.905C2.98639 149.731 2.9138 149.412 3.186 151.636C3.05638 151.756 2.9475 151.166 2.85418 151.564C3.13156 152.642 2.82566 154.036 2.69605 154.953C2.70123 155.306 2.70642 155.584 2.70642 155.824C2.71679 155.839 2.72197 155.858 2.73493 155.869C2.82566 157.177 3.05379 156.414 3.15749 157.248C3.11601 157.207 3.03564 157.131 3.02787 157.372L3.29229 158.36C3.19637 158.758 3.10823 157.451 2.99417 158.566C3.19378 160.471 3.32858 161.59 3.20156 163.183C3.26377 165.448 3.7278 162.214 3.67596 164.126C3.46079 164.408 3.20156 164.656 3.17045 165.85C3.3208 166.481 3.48931 166.395 3.58522 167.469L3.45042 167.443C3.46598 167.642 3.47375 167.868 3.47634 168.119C3.41413 167.804 3.37784 167.304 3.29488 167.507C3.20933 167.717 3.30266 168.191 3.33377 168.352C3.31043 168.405 3.2897 168.397 3.26896 168.363C3.26896 168.675 3.25599 168.919 3.20674 169.058C3.26377 169.731 3.19378 170.388 3.17563 171.226C3.37524 172.176 3.82113 169.859 3.94297 169.532C3.6941 171.012 3.83927 172.034 3.44005 172.879L3.35191 171.568C2.94232 174.363 3.82113 174.22 3.1186 175.516C3.13675 174.821 3.04861 174.025 2.92936 173.859C2.89566 174.088 2.86196 174.306 2.8464 174.475L2.8827 174.776C2.9164 174.787 2.97084 174.753 3.05898 174.644C3.0175 175.084 2.98639 175.55 2.96306 176.03C3.02787 176.316 3.09527 176.598 3.14712 176.771L3.12638 176.752L3.17822 179.051C3.15749 178.761 3.07194 178.743 3.05898 179.141L3.23266 180.782C3.14971 180.279 3.04601 180.794 2.99417 181.53C2.89307 183.645 3.74076 183.224 3.40376 184.866C3.41154 184.625 3.37006 184.588 3.37524 184.347L3.22748 185.193C3.93001 185.369 3.30006 190.166 4.00259 190.347C3.71743 191.549 3.83409 190.429 3.49968 188.885L3.29747 190.166C3.27155 189.648 3.3234 189.212 3.25599 188.652C2.96047 190.332 3.33377 191.913 3.51782 192.826C3.41672 193.468 2.98898 192.323 3.10564 194.152C3.24303 196.736 3.61892 193.664 3.70188 195.215L3.33636 196.338C3.61633 198.318 3.36487 199.802 3.3208 201.473C3.34932 201.853 3.3882 202.037 3.42709 202.131C3.39857 202.446 3.39339 202.766 3.40117 203.089L3.55412 202.923C3.7278 202.852 3.60078 203.337 3.44524 203.919C3.54115 205.129 3.74595 206.301 3.66559 207.202C3.59041 206.887 3.43746 207.968 3.34673 208.13L3.57226 210.549C3.48671 209.584 3.30784 209.527 3.12378 209.381C3.22229 210.572 3.37524 211.808 3.29488 213.01L3.32858 213.265C3.36487 213.115 3.37784 212.822 3.3882 212.578C3.3908 213.213 3.52301 214.587 3.35191 215.493C3.27155 215.414 3.19637 215.102 3.11342 215.023C3.24822 214.576 3.23526 214.246 3.17045 213.968C3.16267 214.005 3.15749 214.046 3.14971 214.084C3.15489 214.043 3.16267 213.998 3.16785 213.953C3.15749 213.907 3.14452 213.862 3.13156 213.821C3.11082 214.61 3.04861 215.384 3.00194 216.098C3.0849 216.248 3.17563 216.27 3.25081 216.131C3.19378 217.119 3.14971 217.634 3.20415 218.355L3.23007 218.344C3.24822 218.584 3.26377 218.814 3.27673 219.039C3.29229 219.152 3.30784 219.268 3.32599 219.396L3.29747 219.369C3.36487 220.406 3.40376 221.297 3.39339 222.217L3.65522 222.285C3.5593 224.043 3.98185 227.818 3.44005 228.896C3.65003 229.324 3.37784 231.33 3.44783 232.329L3.30525 232.51C3.24303 233.081 3.20674 233.659 3.32858 234.253L3.22489 233.971C3.23785 234.542 3.27673 235.012 3.31043 235.466C3.16008 236.417 3.11601 237.337 3.12119 238.238C3.13156 238.272 3.14452 238.306 3.15489 238.34C3.17822 238.021 3.28192 237.577 3.36228 237.074C3.35191 237.498 3.3208 237.979 3.25081 238.558C3.25859 238.569 3.26377 238.584 3.26896 238.595C3.26118 238.584 3.25599 238.577 3.24822 238.569C3.24044 238.637 3.23266 238.7 3.22489 238.768C3.16785 238.704 3.14971 238.595 3.14971 238.46C3.13934 238.453 3.12897 238.456 3.12119 238.456C3.14193 239.989 3.2897 241.454 3.27155 242.87L3.21452 242.893L3.35969 245.237C3.17822 244.621 3.48671 245.699 3.43487 246.405C3.53338 247.153 3.48153 248.362 3.34932 249.241L3.33895 250.736C3.23526 249.478 3.12119 250.192 2.97084 250.654C3.02787 251.431 3.05379 252.352 2.89825 253.497C2.94232 254.147 2.99935 254.805 3.12638 255.109C3.186 255.015 3.24044 254.786 3.2871 254.504C3.27155 254.425 3.27673 254.429 3.29229 254.482C3.29488 254.459 3.30006 254.44 3.30525 254.418C3.30266 254.448 3.30006 254.463 3.29747 254.497C3.3208 254.576 3.35969 254.703 3.3908 254.756C3.33895 255.943 3.43487 255.507 3.53856 255.466C3.19896 256.728 3.3908 257.468 3.06935 258.403C3.06935 258.407 3.06935 258.411 3.06935 258.415C3.41931 257.724 3.02528 261.645 3.45561 260.823C3.08749 261.829 3.43746 261.51 3.12378 262.156C3.19637 261.138 3.04083 260.124 2.89047 259.211C2.82826 259.497 2.76863 259.756 2.70642 259.421C2.70123 259.673 2.70642 259.917 2.71679 260.158C2.75567 260.496 2.78678 260.815 2.78678 261.041C2.81011 261.225 2.83603 261.401 2.86714 261.559L2.83863 261.454C2.92677 264.016 2.66753 263.895 2.75826 265.672C2.80752 265.312 2.85159 264.955 2.89307 264.812C3.01491 265.947 3.09786 265.947 3.186 265.98C3.11601 266.161 3.03305 266.333 2.9475 266.484C3.0512 267.746 3.09268 269.11 3.10823 270.514C3.13415 270.586 3.16267 270.65 3.19119 270.699C3.16526 269.658 3.16008 269.072 3.19119 268.606L3.31303 270.819C3.31303 270.822 3.31043 270.826 3.31043 270.826C3.29747 270.823 3.2871 270.807 3.27673 270.8C3.25081 270.601 3.23785 270.06 3.19119 270.699C3.21711 270.744 3.24563 270.785 3.27673 270.8C3.27673 270.811 3.27933 270.838 3.28192 270.845C3.26636 270.954 3.28192 270.92 3.31043 270.826C3.31303 270.826 3.31303 270.83 3.31303 270.83V270.819C3.31821 270.804 3.3208 270.789 3.32599 270.77C3.28451 271.131 3.25081 271.514 3.22489 271.912C3.21452 271.544 3.20415 271.153 3.16526 270.717C3.14712 270.935 3.12897 271.067 3.11082 271.142C3.11601 272.051 3.1186 272.964 3.12119 273.869C3.12897 273.854 3.14193 273.865 3.15749 273.888C3.16008 274.309 3.17304 274.699 3.19637 275.067C3.16785 274.943 3.14193 274.816 3.12378 274.673C3.12897 275.661 3.14452 276.626 3.18082 277.539L3.26636 276.39C3.2534 276.735 3.32599 277.577 3.34154 278.411L3.48412 278.136C3.45301 278.501 3.39339 278.704 3.34413 278.824C3.34154 279.177 3.3234 279.515 3.27673 279.797C3.26636 279.575 3.21452 279.192 3.23007 278.985C3.15749 279.004 3.06416 279.151 2.99157 279.429L2.9838 279.62L2.97084 279.511C2.92417 279.714 2.88788 279.981 2.87492 280.304L2.9475 280.424L2.9838 279.617L3.13934 280.849C3.11342 280.717 3.0849 280.68 3.05379 280.68L2.92158 280.98C2.91899 282.284 3.20674 280.597 3.20156 281.904C3.04601 282.111 2.97084 282.625 2.93195 283.287C2.95528 283.422 2.97602 283.55 2.99676 283.659C2.97343 283.531 2.9501 283.437 2.92677 283.366C2.87492 284.342 2.89825 285.619 2.86714 286.698L2.91121 287.017C2.93973 286.942 2.9838 286.964 3.05638 287.152C3.03305 287.302 3.00713 287.419 2.9838 287.554L3.07971 288.26L2.97602 287.607C2.93973 287.821 2.90603 288.087 2.88529 288.576L3.13156 288.283C3.1186 288.651 3.10564 288.997 3.09008 289.327C3.19637 289.985 3.24563 289.35 3.3208 288.846C3.37524 290.563 3.16526 290.939 3.08749 289.59ZM3.19896 248.058C3.20415 248.069 3.20674 248.081 3.21192 248.099C3.25859 247.525 3.29747 247.232 3.19896 248.058ZM3.17822 171.294C3.17304 171.632 3.17822 172.004 3.20156 172.417C3.20156 172.417 3.20156 172.42 3.20415 172.42C3.3234 172.199 3.24303 171.68 3.17822 171.294ZM3.10823 172.24C3.12378 172.278 3.14452 172.312 3.16785 172.349C3.14712 172.285 3.12638 172.251 3.10823 172.24ZM3.02528 99.0669C3.11342 99.2134 3.19637 99.2848 3.26896 99.2548L3.09786 97.6282C3.06675 98.1053 3.04083 98.5861 3.02528 99.0669ZM2.93973 65.6865L3.00454 65.3522C2.93195 65.1456 2.86714 64.9314 2.93973 65.6865ZM0.806222 60.942C0.801037 60.9307 0.798445 60.9195 0.79326 60.9007C0.746597 61.4754 0.707712 61.7684 0.806222 60.942ZM0.82696 137.706C0.832145 137.368 0.82696 136.996 0.801037 136.583C0.801037 136.583 0.801037 136.583 0.798444 136.58C0.681789 136.801 0.764744 137.32 0.82696 137.706ZM0.899546 136.76C0.883992 136.722 0.863253 136.685 0.839922 136.651C0.860661 136.715 0.878807 136.749 0.899546 136.76ZM0.979909 209.933C0.891769 209.787 0.808814 209.715 0.736228 209.745L0.907323 211.372C0.938432 210.895 0.964355 210.414 0.979909 209.933ZM1.06546 243.314L1.00065 243.648C1.07323 243.854 1.13804 244.069 1.06546 243.314ZM1.37135 20.334C1.06027 19.6616 1.18471 21.4197 1.10434 21.893L1.13545 22.0921C1.16397 21.3182 1.22618 20.6646 1.37135 20.334ZM1.50356 55.4763C1.51912 55.48 1.53208 55.4951 1.54763 55.5326C1.56319 55.4237 1.57874 55.3824 1.5943 55.3899C1.53986 54.3869 1.45172 54.2779 1.29877 53.7107L1.4906 53.275C1.36876 52.7378 1.28321 52.4711 1.221 52.2983C1.19248 53.5191 1.36876 54.5447 1.50356 55.4763ZM1.66429 61.5806C1.67984 61.3026 1.67207 60.9458 1.64614 60.6039C1.52949 60.4875 1.40246 60.3485 1.27285 60.5664C1.25729 61.1449 1.21322 61.6971 1.07064 61.6069C1.0162 62.4935 1.09916 62.9931 1.21322 63.4814C1.40765 62.6475 1.65911 62.1666 1.66429 61.5806ZM1.77317 219.448C1.73428 219.456 1.69799 219.467 1.65911 219.478C1.69021 219.599 1.73169 219.572 1.77317 219.448ZM2.23202 89.5517C2.2709 89.5441 2.30719 89.5329 2.34608 89.5216C2.31497 89.4014 2.27349 89.4277 2.23202 89.5517ZM2.73234 248.434C2.74789 247.855 2.79196 247.303 2.93454 247.393C2.98898 246.507 2.90603 246.007 2.79196 245.519C2.60013 246.353 2.34867 246.833 2.34349 247.423C2.32793 247.705 2.33571 248.058 2.36163 248.4C2.4731 248.516 2.60013 248.652 2.73234 248.434ZM2.78678 256.702C2.8127 255.481 2.63901 254.455 2.50421 253.524C2.48866 253.52 2.4757 253.505 2.46014 253.467C2.44459 253.576 2.42903 253.618 2.41348 253.61C2.46792 254.613 2.55606 254.722 2.70901 255.289L2.51717 255.725C2.63901 256.262 2.72197 256.529 2.78678 256.702ZM2.90084 287.103L2.86973 286.904C2.84122 287.678 2.78159 288.332 2.63383 288.662C2.94491 289.335 2.82048 287.58 2.90084 287.103ZM3.67596 281.517C3.59819 281.457 3.46598 281.844 3.36487 281.919L3.45561 282.641C3.51005 282.269 3.5593 281.566 3.67596 281.517ZM3.36747 281.919L3.23266 280.841C3.21452 281.803 3.27933 281.979 3.36747 281.919ZM3.68633 277.393L3.86779 278.005L3.593 276.916L3.68633 277.393ZM3.65522 274.658C3.80557 275.112 3.91186 274.038 4.00259 274.515C3.97667 273.771 3.84705 273.137 3.7304 272.566C3.7952 273.174 3.77965 273.824 3.65522 274.658ZM3.7304 272.569C3.69669 272.246 3.64485 271.931 3.5593 271.611C3.59559 271.912 3.6604 272.227 3.7304 272.569ZM3.35191 273.572C3.25599 273.076 3.24822 272.535 3.23266 271.923C3.18859 272.581 3.16526 273.257 3.16526 273.903C3.23526 273.993 3.35969 274.279 3.35191 273.572ZM3.29229 276.01C3.2871 275.976 3.28451 275.931 3.27933 275.901C3.26118 275.969 3.2534 276.022 3.29229 276.01ZM3.23526 265.898C3.22229 265.932 3.20674 265.962 3.19378 265.995C3.20674 266.003 3.2197 266.007 3.23266 266.018L3.23526 265.898ZM3.4582 269.928C3.41154 270.184 3.37265 270.477 3.33636 270.781C3.40635 270.529 3.51523 270.019 3.4582 269.928ZM3.34154 275.736C3.34413 275.762 3.34932 275.781 3.35191 275.811C3.39857 275.646 3.37524 275.668 3.34154 275.736ZM3.34154 275.736C3.31043 275.481 3.25599 275.281 3.20674 275.082C3.22489 275.383 3.24822 275.661 3.27933 275.901C3.29488 275.841 3.31821 275.777 3.34154 275.736ZM3.17304 268.155L3.19896 268.621C3.23526 268.088 3.31821 267.708 3.47634 267.01C3.37524 266.232 3.30006 266.074 3.23266 266.018L3.20415 268.313L3.17304 268.155ZM3.34673 265.687L3.58263 265.932L3.24822 264.868L3.34673 265.687ZM3.31821 263.294L3.52301 263.385L3.39857 262.754L3.31821 263.294ZM0.772521 128.206L0.715489 127.665C0.731043 127.925 0.751782 128.086 0.772521 128.206ZM0.756967 132.128L0.858069 132.226C0.803629 132.042 0.762152 131.967 0.756967 132.128ZM1.16656 162.642C1.11471 162.875 1.06805 163.209 1.02139 163.683L1.16656 162.642ZM0.534025 106.805L0.305898 106.174C0.305898 107.162 0.419961 106.726 0.534025 106.805ZM3.15749 129.75C3.11601 129.42 3.07194 129.277 3.02009 129.288C3.06157 129.626 3.10305 129.822 3.15749 129.75ZM3.37006 237.078C3.46598 236.473 3.5256 235.778 3.37006 235.113C3.34673 235.233 3.33636 235.35 3.31821 235.474C3.3545 235.97 3.38561 236.473 3.37006 237.078ZM0.720674 29.1882C0.731043 29.1318 0.736228 29.0642 0.746597 29.0116C0.715489 28.9928 0.715489 29.0717 0.720674 29.1882ZM2.98898 6.57391C3.00194 6.79554 3.00194 7.15993 3.00713 7.50177C3.02268 7.33648 3.02009 7.05474 2.98898 6.57391ZM3.41672 253.663C3.42968 254.17 3.44005 253.742 3.41672 253.663V253.663ZM3.31303 254.425C3.34154 254.234 3.36487 254.016 3.38043 253.775C3.36228 253.881 3.34154 254.08 3.31303 254.425ZM3.41931 254.324C3.40894 254.5 3.40376 254.636 3.39857 254.767C3.43487 254.831 3.4582 254.775 3.41931 254.324ZM3.41672 253.663C3.41413 253.512 3.40894 253.302 3.40376 252.956C3.40635 253.246 3.39598 253.516 3.38043 253.779C3.39598 253.678 3.40894 253.636 3.41672 253.663ZM0.95917 191.289C0.961763 191.312 0.966947 191.327 0.96954 191.346C0.972132 191.323 0.974724 191.293 0.977317 191.271L0.95917 191.289ZM0.82696 129.942L0.821776 129.735C0.821776 129.818 0.824368 129.882 0.82696 129.942ZM1.12767 163.758C1.16915 163.653 1.21581 163.623 1.26248 163.6C1.221 163.454 1.17434 163.45 1.12767 163.758ZM0.534025 106.805L0.575502 106.922C0.578095 106.903 0.575502 106.884 0.578095 106.862C0.56254 106.832 0.546986 106.817 0.534025 106.805ZM0.982502 223.209C1.01879 222.856 1.06546 222.656 1.11212 222.525C1.0499 222.506 0.998056 222.668 0.982502 223.209ZM3.52301 258.805L3.46338 257.817C3.47634 258.351 3.42191 258.539 3.38043 258.809C3.43227 258.787 3.49968 258.633 3.52301 258.805ZM3.24303 251.995C3.18859 252.359 3.51264 252.224 3.42709 252.431C3.6941 252.836 3.10305 249.993 3.24303 251.995ZM0.601426 203.28C0.4744 204.873 0.928062 203.66 0.769929 205.098C0.894362 205.474 0.899546 203.923 1.00583 204.306C0.876215 203.344 0.948801 202.837 0.601426 203.28ZM3.27414 2.82115L3.38302 1.79562L3.20674 2.45676L3.27414 2.82115ZM3.21711 0.616069L2.9138 0C2.92936 0.232904 2.95787 0.67993 2.8827 0.856486L3.21711 0.616069ZM0.189242 140.809L0.269605 140.888C0.357745 140.73 0.362929 140.49 0.378483 140.009L0.189242 140.809ZM0.443292 126.918L0.435515 127.158L0.73882 126.711L0.443292 126.918ZM0.0544394 115.261C0.04407 115.629 0.0829553 116.046 0.0933247 116.441C0.121841 115.611 0.391445 115.145 0.0544394 115.261ZM0.741413 0.360626C0.759559 -0.093913 0.541802 0.0676173 0.502916 0C0.552171 0.762573 0.798444 0.341843 0.741413 0.360626ZM0.43033 18.6887C0.575502 18.4558 0.554763 19.5001 0.4744 17.8134C0.458846 17.8998 0.448477 17.9224 0.438108 17.9712C0.4407 18.1252 0.4407 18.3318 0.43033 18.6887ZM0.438108 17.9712C0.427738 17.2312 0.316267 18.4558 0.438108 17.9712V17.9712ZM0.521063 21.3971L0.391445 20.4204C0.305898 20.6233 0.287751 21.4948 0.225535 21.1717C0.295528 22.1747 0.381076 21.9681 0.521063 21.3971ZM0.790667 22.325L0.736228 21.8179C0.699935 21.9043 0.686973 22.0395 0.790667 22.325ZM0.622165 20.7435L0.736228 21.8179C0.795852 21.6751 0.9151 21.6601 0.69475 21.3258C0.803629 21.4122 0.699935 21.198 0.622165 20.7435ZM0.329229 27.4827C0.406999 27.5428 0.539209 27.1559 0.640311 27.0807L0.549579 26.3595C0.495139 26.7314 0.445885 27.4339 0.329229 27.4827ZM0.640311 27.0807L0.775113 28.1589C0.790667 27.1972 0.725859 27.0206 0.640311 27.0807ZM0.318859 31.6074L0.137395 30.995L0.412184 32.0844L0.318859 31.6074ZM0.349968 34.3421C0.199611 33.8876 0.095917 34.9619 0.00259235 34.4848C0.0285159 35.2286 0.158133 35.8635 0.274789 36.4345C0.209981 35.8259 0.228127 35.176 0.349968 34.3421ZM0.274789 36.4307C0.30849 36.7538 0.360337 37.0693 0.445885 37.3886C0.409592 37.0881 0.344783 36.7726 0.274789 36.4307ZM0.653273 35.4277C0.74919 35.9236 0.756967 36.4645 0.772521 37.0768C0.816591 36.4195 0.839922 35.7433 0.839922 35.0972C0.769929 35.007 0.645496 34.7253 0.653273 35.4277ZM0.715489 32.9898C0.720674 33.0236 0.723266 33.0686 0.728451 33.0987C0.746597 33.0311 0.751782 32.9785 0.715489 32.9898ZM0.772521 43.1023C0.785483 43.0685 0.801037 43.0384 0.813999 43.0046C0.801037 42.9971 0.788075 42.9934 0.775113 42.9821L0.772521 43.1023ZM0.549579 39.0716C0.596241 38.8161 0.635126 38.5231 0.671419 38.2188C0.601426 38.4705 0.492547 38.9814 0.549579 39.0716ZM0.666235 33.264C0.663642 33.2377 0.658457 33.2189 0.655865 33.1888C0.609203 33.3541 0.632534 33.3316 0.666235 33.264ZM0.666235 33.264C0.697343 33.5194 0.751782 33.7185 0.801037 33.9176C0.78289 33.6171 0.759559 33.3391 0.728451 33.0987C0.710305 33.1588 0.686973 33.2227 0.666235 33.264ZM0.832145 40.8446L0.806222 40.3788C0.769929 40.9123 0.689566 41.2917 0.52884 41.9904C0.629942 42.768 0.70512 42.9257 0.772521 42.9821L0.801037 40.6869L0.832145 40.8446ZM0.66105 43.3127L0.425146 43.0685L0.759559 44.1316L0.66105 43.3127ZM0.689566 45.7056L0.48477 45.6154L0.609203 46.2465L0.689566 45.7056ZM3.23526 180.794L3.29229 181.335C3.27414 181.075 3.25599 180.914 3.23526 180.794ZM3.24822 176.872L3.14712 176.774C3.20415 176.958 3.24303 177.033 3.24822 176.872ZM2.84122 146.358C2.89307 146.125 2.93973 145.791 2.98639 145.317L2.84122 146.358ZM3.47375 202.195L3.70188 202.826C3.70188 201.838 3.58522 202.274 3.47375 202.195ZM0.847699 179.25C0.889177 179.58 0.933247 179.723 0.985094 179.712C0.946209 179.374 0.902139 179.178 0.847699 179.25ZM0.635126 71.9223C0.539209 72.5271 0.479585 73.2221 0.635126 73.887C0.658458 73.7668 0.668827 73.6503 0.686973 73.5263C0.65068 73.0305 0.622165 72.5271 0.635126 71.9223ZM3.2871 279.812C3.27673 279.868 3.27155 279.936 3.26118 279.988C3.2897 280.007 3.29229 279.928 3.2871 279.812ZM1.0162 302.426C1.00324 302.204 1.00324 301.84 0.998056 301.498C0.985094 301.664 0.985094 301.945 1.0162 302.426ZM0.591056 55.3373C0.575502 54.8302 0.565133 55.2584 0.591056 55.3373V55.3373ZM0.692158 54.5747C0.663642 54.7663 0.640311 54.9842 0.624757 55.2246C0.642903 55.1194 0.666235 54.9203 0.692158 54.5747ZM0.585872 54.6761C0.596241 54.4996 0.601426 54.3643 0.60661 54.2329C0.570317 54.169 0.546986 54.2254 0.585872 54.6761ZM0.591056 55.3373C0.593649 55.4875 0.598833 55.6979 0.604018 56.0435C0.601426 55.7543 0.611795 55.4838 0.627349 55.2208C0.611795 55.3223 0.598833 55.3636 0.591056 55.3373ZM3.04861 117.711C3.04601 117.688 3.04083 117.673 3.03824 117.654C3.03564 117.677 3.03305 117.707 3.03046 117.729L3.04861 117.711ZM3.17822 179.058L3.18341 179.261C3.186 179.182 3.18341 179.118 3.17822 179.058ZM2.87751 145.242C2.83603 145.347 2.78937 145.377 2.74271 145.4C2.78419 145.546 2.83344 145.55 2.87751 145.242ZM3.47375 202.195L3.43227 202.078C3.42968 202.097 3.43227 202.116 3.42968 202.138C3.44264 202.168 3.4582 202.183 3.47375 202.195ZM3.02268 85.7914C2.98639 86.1445 2.93973 86.3436 2.89307 86.4751C2.95528 86.4939 3.00713 86.3323 3.02268 85.7914ZM0.48477 50.1946L0.544394 51.1826C0.531432 50.6491 0.585872 50.4613 0.627349 50.1909C0.575502 50.2134 0.505509 50.3674 0.48477 50.1946ZM0.762152 57.0052C0.816591 56.6408 0.492547 56.776 0.578095 56.5694C0.311082 56.1637 0.904731 59.0074 0.762152 57.0052ZM3.40376 105.72C3.53078 104.127 3.07712 105.34 3.23526 103.902C3.11082 103.526 3.10564 105.077 2.99935 104.694C3.13156 105.656 3.05638 106.163 3.40376 105.72ZM0.733636 306.179L0.624757 307.204L0.801037 306.543L0.733636 306.179ZM0.788075 308.384L1.09138 309C1.07583 308.767 1.04731 308.32 1.12249 308.144L0.788075 308.384ZM3.81594 168.191L3.73558 168.112C3.64744 168.27 3.64225 168.51 3.6267 168.991L3.81594 168.191ZM3.56448 182.082L3.57226 181.842L3.26896 182.289L3.56448 182.082ZM3.95074 193.739C3.96111 193.371 3.92223 192.954 3.91186 192.559C3.88594 193.393 3.61633 193.855 3.95074 193.739Z" fill="white"/>
<rect x="1" width="3" height="308.653" fill="white"/>
</svg>
