<svg width="572" height="602" fill="none" xmlns="http://www.w3.org/2000/svg"><path d="M56.86 507.29c25.68 0 46.499-20.595 46.499-46s-20.818-46-46.5-46c-25.68 0-46.5 20.595-46.5 46s20.82 46 46.5 46zm352.499-83c20.987 0 38-16.83 38-37.59 0-20.76-17.013-37.59-38-37.59-20.986 0-38 16.83-38 37.59 0 20.76 17.014 37.59 38 37.59z" fill="#DEDBD7"/><path d="M51.36 357.29c9 31 68.079 170.4 71.839 179.98 11 28 50.24 29.96 59 19 42 60 131.72 33.27 165-10 61 8 119.16-89.98 92.16-125.98-24.87-33.16-11-34-47-45 5 12 34.21-161 26-161-1 0-144-132-367 143z" fill="#DEDBD7"/><path d="M56.86 507.29c25.68 0 46.499-20.595 46.499-46s-20.818-46-46.5-46c-25.68 0-46.5 20.595-46.5 46s20.82 46 46.5 46zm352.499-83c20.987 0 38-16.83 38-37.59 0-20.76-17.013-37.59-38-37.59-20.986 0-38 16.83-38 37.59 0 20.76 17.014 37.59 38 37.59z" fill="#DEDBD7"/><path d="M51.36 357.29c9 31 68.079 170.4 71.839 179.98 11 28 50.24 29.96 59 19 42 60 131.72 33.27 165-10 61 8 119.16-89.98 92.16-125.98-24.87-33.16-11-34-47-45 5 12 34.21-161 26-161-1 0-144-132-367 143z" fill="#DEDBD7"/><path d="M67.2 401.27s52.229 126.42 55.999 136c11 28 50.24 29.96 59 19 42 60 131.72 33.27 165-10 61 8 115-91 88-127-24.87-33.16-41-56-97-20 5 12 10.16 20.02 9.16 21.02-9 11-43 22-60 19-.98-.17-.16-18.02-.16-18.02s-76-38-155 29c-26-40-25.34-53.83-30-84-21 13-35 35-35 35z" fill="#CA5C3A"/><path d="M67.2 401.27s52.229 126.42 55.999 136c11 28 50.24 29.96 59 19 42 60 131.72 33.27 165-10 61 8 115-91 88-127-24.87-33.16-41-56-97-20 5 12 8.16 16.02 7.16 17.02-9 11-43 22-60 19-.98-.17 1.84-14.02 1.84-14.02s-76-38-155 29c-26-40-25.34-53.83-30-84-21 13-35 35-35 35z" fill="gray"/><path d="M338.07 393.93c-10.69-22.33-14.09-57.76-5.04-83.03 15.03-41.97 62.67-42.14 72.67-12.14 0 0-10.34 91.52-14.34 90.52s-49 5-49 5" fill="#fff"/><path d="M405.7 298.77c-10-30-57.64-29.84-72.67 12.14-9.05 25.27-5.65 60.7 5.04 83.03" stroke="#030303" stroke-width="16" stroke-miterlimit="10" stroke-linecap="round"/><path d="M364.87 331.65c-9.3-3.06-11.4-9.63 6.43-14.67 2.46-.69 4.32-2.72 4.85-5.22 3.44-16.47 4.49-29.89-2.73-33.92 0 0-31.02-12.88-47.05 34.44-10.54 31.11 6.58 81.85 6.58 81.85s14.01-2.99 32.82-7.62c-3.4-10.24-1.2-26.08 3.73-46.65.83-3.51-1.18-7.07-4.63-8.21zm-261.38 14.48c1.75 8.92 3.49 17.96 5.42 26.83 1.97 8.87 3.95 17.7 6.45 26.33 2.48 8.63 5.32 17.09 8.8 25.15 3.43 8.08 7.56 15.7 12.47 22.49l.09.12c2.25 3.11 1.55 7.46-1.56 9.72-2.96 2.14-7.06 1.59-9.39-1.15-6.54-7.75-11.33-16.51-15.11-25.44-1.89-4.48-3.53-9.02-4.95-13.6-1.44-4.58-2.69-9.19-3.74-13.83-1.06-4.64-2.03-9.29-2.76-13.96-.39-2.34-.71-4.68-1.04-7.01-.3-2.34-.54-4.69-.77-7.04-.24-2.35-.39-4.7-.54-7.05l-.19-3.53-.1-3.53c-.1-4.73-.06-9.39.34-14.2a3.318 3.318 0 0 1 3.58-3.04c1.51.12 2.7 1.24 2.98 2.66l.02.08z" fill="#030303"/><path d="M278.039 430.83c-.57-.25-1.12-.5-1.67-.78l-2-.74c-.67-.25-1.46-.45-2.18-.69-.71-.24-1.51-.43-2.3-.62-3.11-.8-6.5-1.37-9.9-1.83-6.85-.89-13.96-1.21-21.07-1.14-7.12.12-14.27.57-21.36 1.52-7.09.93-14.13 2.21-21.03 4-6.9 1.77-13.65 4-20.15 6.76-6.53 2.69-12.76 5.98-18.68 9.74a95.967 95.967 0 0 0-29.39 29.76l-.07.11a5.734 5.734 0 0 1-10.16-5.22c6.15-15.02 16.74-28.42 29.69-38.46 6.45-5.07 13.48-9.31 20.73-13 7.29-3.61 14.84-6.6 22.56-8.99 15.46-4.65 31.43-7.18 47.57-7.44 8.07-.14 16.18.32 24.37 1.54 4.1.7 8.21 1.46 12.4 2.75 4.2 1.29 8.4 2.74 12.96 5.59 4.67 2.92 6.08 9.07 3.16 13.74-2.65 4.24-7.96 5.79-12.41 3.86l-1.07-.46z" fill="#030303"/><path d="M41.73 288.3c8.45 28.1 17.77 56.06 27.42 83.94 2.39 6.98 4.9 13.92 7.36 20.88 2.42 6.97 4.96 13.91 7.45 20.86l15.27 41.63 15.579 41.58 7.8 20.92 1.96 5.49c.55 1.56 1.11 3.09 1.74 4.6 1.25 3 2.67 5.86 4.29 8.54 3.24 5.33 7.27 9.88 11.99 13.02 4.7 3.16 10.02 4.98 15.61 5.39 11.1.82 23.52-4.44 29.28-14.92l.2-.36a5.517 5.517 0 0 1 7.48-2.17c2.07 1.14 3.11 3.42 2.79 5.63-.66 4.49-2.47 8.82-4.98 12.62-2.53 3.81-5.77 7.1-9.44 9.78-7.34 5.36-16.39 8.34-25.65 8.48-4.63.08-9.28-.59-13.75-1.89-4.45-1.35-8.7-3.32-12.54-5.83-7.72-5-13.75-11.84-18.28-19.09-2.27-3.64-4.19-7.42-5.84-11.24-.82-1.91-1.57-3.85-2.27-5.78l-1.91-4.94-8.24-20.58c-5.57-13.76-10.96-27.62-16.31-41.49l-7.98-20.84-7.72-20.95c-5.09-13.99-10.11-28.01-14.83-42.16l-3.58-10.59-3.46-10.64c-2.31-7.09-4.49-14.23-6.68-21.37l-1.64-5.35-1.55-5.39-3.09-10.78c-1.06-3.58-1.97-7.22-2.93-10.84l-2.84-10.87c-1.4-5.34 1.8-10.81 7.14-12.21 5.22-1.37 10.56 1.66 12.1 6.78l.05.14z" fill="#030303"/><path d="M395.2 385.27c-10-47 52.86-154.88 2.51-199.93" stroke="#030303" stroke-width="20" stroke-miterlimit="10"/><path d="M310.299 416.35c1 .16 1.77.56 2.47 1.02.68.47 1.27 1.04 1.78 1.69.51.64.94 1.37 1.26 2.2.32.83.55 1.75.53 2.91a2.262 2.262 0 0 1-2.28 2.23c-1.16-.01-2.07-.27-2.89-.6-.82-.34-1.54-.78-2.17-1.31a8.616 8.616 0 0 1-1.64-1.82c-.45-.71-.82-1.48-.96-2.49a3.394 3.394 0 0 1 2.9-3.82c.33-.07.68-.06 1-.01zm21.06-2.62c.26.78.23 1.5.12 2.2-.12.7-.35 1.37-.66 2.02-.31.65-.68 1.3-1.14 1.92-.48.62-.99 1.23-1.72 1.79a2.337 2.337 0 0 1-3.49-.77c-.42-.82-.63-1.59-.8-2.35-.16-.76-.22-1.5-.22-2.22a7.4 7.4 0 0 1 .26-2.11c.2-.68.48-1.34 1.05-1.94a3.937 3.937 0 0 1 5.57-.16c.48.44.83 1.02 1.03 1.62z" fill="#030303"/><path d="M344.799 422.16c-1.53-3.96-3.21-7.67-5.39-10.77-.52-.8-1.14-1.47-1.68-2.21-.6-.68-1.22-1.31-1.81-1.95-1.31-1.13-2.57-2.23-4-2.94-1.36-.84-2.84-1.29-4.28-1.7-.75-.11-1.47-.32-2.24-.33-.38-.02-.75-.09-1.13-.09l-1.15.03c-.38-.02-.77.05-1.16.11l-1.17.13-1.18.27c-.39.08-.79.16-1.18.32-.78.27-1.57.48-2.35.85-.39.17-.78.32-1.17.5l-1.15.62c-6.19 3.33-11.64 9.25-16.02 16.09-4.45 6.87-7.75 14.79-10.88 23.07l-.05.13a4.61 4.61 0 0 1-5.96 2.68 4.632 4.632 0 0 1-2.98-4.54c.47-9.59 2.67-19.31 7.14-28.41 2.23-4.54 5.04-8.91 8.52-12.89 3.49-3.96 7.68-7.53 12.65-10.2 4.95-2.62 10.7-4.47 16.79-4.33l2.27.09c.75.05 1.51.2 2.27.3 1.51.17 2.98.66 4.45 1.07 2.88 1 5.65 2.35 8.03 4.15 2.45 1.72 4.46 3.86 6.25 6.07.81 1.15 1.64 2.29 2.34 3.48l.97 1.81c.32.6.66 1.2.89 1.83a42.514 42.514 0 0 1 3.49 15.02 4.685 4.685 0 0 1-4.46 4.9c-2.07.1-3.89-1.16-4.59-2.99l-.08-.17zm50.601-43.03c.16-.43.24-.58.33-.78.1-.21.19-.39.28-.55.18-.34.36-.67.55-.97.37-.63.77-1.18 1.16-1.74.82-1.09 1.69-2.11 2.65-3.03 1.9-1.85 4.05-3.41 6.36-4.53.56-.3 1.17-.52 1.75-.77l.88-.36.89-.28c.6-.18 1.19-.36 1.78-.52l1.79-.34.89-.16.88-.08 1.75-.14c1.16-.04 2.29.02 3.42.05 2.62.05 4.71 2.22 4.66 4.85a4.76 4.76 0 0 1-3.49 4.49l-.78.21c-.77.21-1.55.37-2.29.6l-1.07.4-.53.19-.49.25-.96.48-.87.56-.43.27-.39.32c-.25.22-.53.39-.75.63-.96.87-1.69 1.89-2.27 2.94-.29.53-.52 1.08-.71 1.61-.07.27-.17.53-.21.78-.03.13-.04.23-.05.33-.01.05-.01.1 0 .11.01.02 0 .09.08-.11-1.3 4.09-5.67 6.36-9.76 5.06-4.08-1.31-6.34-5.68-5.05-9.77z" fill="#030303"/><path d="M397.359 351.29c48-19 62.61 43.59 31.35 56.98" stroke="#030303" stroke-width="20" stroke-miterlimit="10"/><path d="M38.81 446.17l.93-.49.81-.41a49.363 49.363 0 0 1 4.83-2.03c2.18-.78 4.41-1.43 6.7-1.93 4.57-1 9.4-1.38 14.31-.99 2.45.22 4.92.64 7.35 1.25 2.43.63 4.82 1.48 7.15 2.5 4.62 2.09 8.89 4.94 12.63 8.24l.25.22c4.17 3.67 4.57 10.03.9 14.2-3.67 4.17-10.03 4.57-14.2.9-.46-.41-.91-.89-1.28-1.36-1.96-2.52-4.2-4.71-6.73-6.51-1.28-.87-2.62-1.67-4.04-2.35-1.43-.66-2.93-1.22-4.49-1.67-3.14-.86-6.54-1.25-10.03-1.14-1.74.05-3.51.23-5.26.52a38.543 38.543 0 0 0-3.86.84l-.6.17c-.17.05-.42.14-.46.13l-3.32-.53c-2.78-.45-4.68-3.06-4.23-5.84.25-1.65 1.29-2.99 2.64-3.72z" fill="#030303"/><path d="M96.89 485.03c-9.67 38.98-85.56 30.46-86.88-29.6-.69-31.06 32.63-52.01 60.09-36.33" stroke="#030303" stroke-width="20" stroke-miterlimit="10" stroke-linecap="round"/><path d="M194.8 553.62c6.36 12.98 20.67 20.94 36.65 23.73 7.98 1.46 16.35 1.82 24.71 1.27 8.37-.54 16.75-1.99 24.89-4.27 16.32-4.53 31.54-12.44 44.63-22.6 3.24-2.58 6.4-5.28 9.29-8.23 2.93-2.92 5.7-5.99 8.33-9.23 5.29-6.46 9.83-13.58 14.15-21.47l.06-.12a4.625 4.625 0 0 1 6.27-1.84c1.56.86 2.44 2.49 2.4 4.15-.21 9.97-3.17 19.93-7.87 28.95-4.72 9.04-11.28 17.05-18.7 23.94-7.42 6.92-15.83 12.65-24.71 17.27-8.9 4.61-18.25 8.22-27.87 10.83-9.61 2.62-19.49 4.31-29.51 4.91-10.02.57-20.2.06-30.3-2.02-10.07-2.12-20.17-5.71-29.28-11.78-4.52-3.05-8.79-6.68-12.43-10.96-3.66-4.25-6.7-9.1-8.91-14.24-2.18-5.08.17-10.96 5.25-13.14 4.91-2.11 10.58.03 12.92 4.77l.03.08z" fill="#030303"/><path d="M338.481 393.46c2.4-2.27 4.939-4.43 7.629-6.46 2.71-1.98 5.52-3.9 8.5-5.59 2.99-1.67 6.101-3.23 9.371-4.52 3.27-1.28 6.67-2.36 10.19-3.16 3.52-.77 7.159-1.23 10.849-1.38 3.69-.16 7.43.04 11.13.63 7.41 1.14 14.62 3.82 21.04 7.61 3.23 1.87 6.24 4.06 9.05 6.45 2.82 2.37 5.42 4.96 7.78 7.72a75.178 75.178 0 0 1 6.491 8.66c1.96 3.01 3.7 6.14 5.22 9.36 3.07 6.43 5.339 13.17 6.889 20.09 1.53 6.91 2.29 14.06 2.1 21.2-.21 13.77-3 27.7-8.51 40.51-2.73 6.41-6.14 12.52-10.06 18.25a110.3 110.3 0 0 1-13.359 15.86c-9.88 9.66-21.4 17.52-34.22 22.97-6.43 2.7-13.201 4.79-20.481 5.86-3.65.51-7.439.76-11.459.47-4.02-.35-8.351-1.1-12.891-3.54-4.53-2.44-6.22-8.1-3.78-12.63 2.44-4.53 8.1-6.22 12.63-3.78l.06.03.021.01c1.03.57 3.04 1.06 5.27 1.19 2.27.13 4.809-.04 7.389-.44 5.19-.83 10.56-2.51 15.72-4.77 10.36-4.5 20.001-11.14 28.081-19.18 4.04-4.03 7.68-8.42 10.88-13.1 3.16-4.7 5.899-9.67 8.069-14.88 4.39-10.4 6.591-21.68 6.681-33.12.07-10.91-2.731-22.01-7.741-31.78-5.01-9.76-12.059-18.29-20.629-24.02-8.57-5.71-18.731-8.48-29.581-7.53-2.71.19-5.45.61-8.19 1.22-2.74.61-5.51 1.35-8.26 2.29-5.52 1.85-10.95 4.36-16.43 7.1l-.09.05a4.719 4.719 0 0 1-6.34-2.11c-.96-1.89-.499-4.14.981-5.54z" fill="#030303"/><path d="M78.7 364.77s2.5 20.5 8.5 30.5z" fill="#fff"/><path d="M81.42 364.44c1.6 2.35 2.69 4.81 3.66 7.22.97 2.42 1.71 4.86 2.39 7.27.69 2.41 1.18 4.85 1.52 7.29.31 2.48.49 4.91.32 7.77l-.02.27a2.809 2.809 0 0 1-2.97 2.64c-.45-.03-.88-.16-1.25-.37-.71-.41-1.34-.91-1.97-1.42-.61-.52-1.12-1.07-1.64-1.65-.54-.58-.96-1.17-1.4-1.78-.43-.61-.84-1.24-1.19-1.87-1.47-2.54-2.39-5.23-3.02-7.95-.63-2.73-.99-5.48-1.01-8.27 0-2.8.21-5.58 1.13-8.49a3.007 3.007 0 0 1 5.35-.79l.1.13zm122.519 96.96c.79-.83 1.42-1.31 1.91-1.67.52-.42.95-.61 1.3-.74.71-.29 1.07.08 1.53.3.43.24.89.46 1.37.68.47.21.92.46 1.41.64.97.39 1.93.81 2.93 1.16l1.49.55 1.53.47c4.08 1.27 8.34 2.12 12.69 2.69 1.09.1 2.19.17 3.29.29 1.1.14 2.21.16 3.32.18 1.11.03 2.23.12 3.35.11l3.38-.07 1.71-.02 1.7-.14c1.14-.07 2.29-.17 3.45-.21 1.16-.05 2.3-.26 3.47-.38 1.17-.1 2.34-.24 3.53-.32l.36-.02a3.558 3.558 0 0 1 1.76 6.76c-2.29 1.1-4.63 2.17-7.03 3.07-1.21.42-2.45.8-3.68 1.2l-1.86.57c-.63.16-1.26.3-1.9.44l-3.83.82c-1.29.23-2.59.35-3.9.53-1.31.16-2.62.31-3.94.33-1.32.06-2.65.1-3.97.12-5.32-.07-10.67-.79-15.9-2.2l-1.96-.55-1.94-.66c-1.3-.41-2.56-.96-3.83-1.49-.64-.25-1.26-.58-1.89-.87-.63-.29-1.25-.6-1.88-.95-1.3-.51-2.57-1.47-1.5-5.81.25-1 .74-1.88 1.41-2.58l2.12-2.23z" fill="#030303"/><path d="M183.35 465.66c.6-.29 1.38-.51 2.06-.77l2.06-.74c.67-.23 1.33-.52 1.98-.74.64-.3 1.27-.51 1.89-.78 2.47-1.03 4.71-2.18 6.79-3.5.26-.17.55-.29.79-.47l.75-.54c.49-.37 1.07-.63 1.52-1.06.5-.38.98-.77 1.51-1.13.28-.17.48-.42.73-.62l.75-.63c1.08-.77 1.96-1.8 3.09-2.69 1.07-.95 2.06-2.03 3.4-3.01l.44-.32c1.38-1 3.31-.7 4.32.68.45.62.63 1.35.58 2.05-.07.9-.2 1.8-.38 2.69-.2.88-.34 1.8-.69 2.64-.69 1.68-1.36 3.43-2.48 4.95-1.98 3.2-4.96 5.83-8.27 7.75a24.545 24.545 0 0 1-10.79 3.27c-.93.04-1.86.04-2.78.01-.92-.08-1.84-.16-2.74-.33-.9-.18-1.8-.37-2.67-.69-.9-.29-1.7-.63-2.66-1.13a2.531 2.531 0 0 1-1.08-3.41c.26-.5.67-.88 1.15-1.11l.73-.37z" fill="#030303"/><path d="M153.12 378.09c.75-.93 1.41-1.63 2.13-2.41.72-.75 1.45-1.47 2.21-2.17 1.51-1.4 3.1-2.69 4.75-3.92 3.3-2.45 6.87-4.56 10.65-6.36 7.54-3.57 16.06-5.81 24.98-5.85 8.88-.16 18.13 2.27 25.77 6.98 3.79 2.38 7.28 5.16 10.11 8.42 2.92 3.19 5.23 6.78 7.02 10.55 1.16 2.45.11 5.38-2.34 6.54-1.56.74-3.32.58-4.68-.26l-.26-.17c-6.25-3.92-11.92-7.29-17.78-9.4-2.9-1.1-5.85-1.84-8.81-2.4-2.96-.6-6-.84-9.1-.9-6.2-.13-12.7.7-19.37 2.18-3.34.71-6.73 1.59-10.15 2.56l-5.18 1.52-2.61.8c-.87.23-1.79.57-2.56.75l-.64.15c-2.21.52-4.42-.86-4.94-3.07-.31-1.29.04-2.59.8-3.54z" fill="#000"/><path d="M215.88 270.82c-.44.26-1.06.56-1.61.84-.57.29-1.13.59-1.7.9l-3.38 1.84c-2.24 1.26-4.45 2.53-6.62 3.87-4.35 2.64-8.54 5.46-12.56 8.42-8.06 5.91-15.46 12.44-22.06 19.69-3.33 3.59-6.45 7.37-9.37 11.33-3.02 3.88-5.68 8.05-8.35 12.25-5.23 8.49-9.75 17.56-14.43 27.09l-.04.08a4.993 4.993 0 0 1-6.69 2.28 4.992 4.992 0 0 1-2.79-4.67c.42-11.3 3.3-22.52 7.87-33.11 2.33-5.28 5.09-10.4 8.33-15.23.8-1.21 1.61-2.42 2.5-3.58.88-1.16 1.72-2.35 2.63-3.49 1.89-2.22 3.71-4.5 5.76-6.57 8-8.48 17.48-15.51 27.75-20.72 5.15-2.58 10.49-4.76 15.99-6.36 2.75-.81 5.54-1.47 8.36-1.99 1.41-.26 2.83-.47 4.27-.64.72-.08 1.44-.14 2.17-.2.75-.07 1.43-.09 2.3-.12a4.16 4.16 0 0 1 4.31 4.01c.06 1.59-.78 3-2.06 3.75l-.58.33zm127.44-43.77c1.22-.53 2.21-.87 3.31-1.26 1.08-.36 2.17-.68 3.26-.95 2.19-.57 4.41-.95 6.66-1.25 4.5-.55 9.1-.59 13.74-.09 9.23 1.01 18.68 4.42 26.61 10.36.98.75 1.95 1.52 2.89 2.32l2.71 2.53c.9.85 1.66 1.82 2.49 2.73.84.91 1.58 1.88 2.3 2.87 1.49 1.96 2.74 4.04 3.94 6.13.57 1.06 1.06 2.15 1.59 3.23l.75 1.63.63 1.66c3.33 8.86 4.47 18.07 3.3 26.88-.37 2.77-2.92 4.73-5.69 4.36a5.067 5.067 0 0 1-3.98-2.99l-.05-.12c-3.24-7.46-6.24-14.33-9.93-20.32l-.67-1.13-.75-1.06c-.49-.71-.94-1.44-1.44-2.13-.54-.66-1.04-1.33-1.54-2.01-.47-.7-1.08-1.27-1.61-1.91l-.79-.95c-.26-.32-.57-.59-.85-.89-.58-.58-1.13-1.19-1.73-1.75l-1.8-1.66c-.63-.52-1.29-1-1.9-1.54-5.14-4.02-11.18-7.14-18-9.44-3.4-1.17-6.98-2.13-10.68-2.97-1.85-.41-3.74-.8-5.64-1.14l-5.67-.99-.52-.09c-2.3-.4-3.84-2.59-3.44-4.89a4.324 4.324 0 0 1 2.5-3.17z" fill="#030303"/><path d="M338.2 63.27C226.68-6.89-52.64 62.29 30.36 323.29c2.65 8.33 24.84 44.98 28.84 39.98 142.14-177.71 339.56-186.04 350.16-131.98 242-148 209.74-315.36-71.16-168.02z" fill="#030303"/><path d="M119.75 97.01c14.636 0 26.5-11.488 26.5-25.66s-11.864-25.66-26.5-25.66-26.5 11.488-26.5 25.66 11.864 25.66 26.5 25.66z" fill="#000"/><path d="M119.75 97.01c14.636 0 26.5-11.488 26.5-25.66s-11.864-25.66-26.5-25.66-26.5 11.488-26.5 25.66 11.864 25.66 26.5 25.66z" fill="#030303"/><path d="M160.989 219.44c11.17-15.84 23.68-30.57 36.59-44.92 12.99-14.28 26.49-28.09 40.58-41.31 28.09-26.52 58.2-51.03 90.49-72.61 8.05-5.43 16.31-10.56 24.69-15.5 8.38-4.95 16.95-9.6 25.66-14.01 8.72-4.39 17.63-8.42 26.71-12.11 9.08-3.68 18.31-7.04 27.77-9.77 9.44-2.76 19.05-5.05 28.8-6.67 9.76-1.56 19.66-2.47 29.58-2.52 9.92 0 19.88.86 29.63 2.79l1.83.35 1.81.44 3.62.87c1.21.27 2.4.64 3.59.99l3.57 1.06c2.36.76 4.67 1.66 7 2.48 2.3.92 4.56 1.92 6.83 2.89a3.678 3.678 0 0 1-2.61 6.87l-.12-.04c-17.68-5.94-36.32-8.02-54.77-6.8-9.23.53-18.43 1.86-27.5 3.8-9.09 1.88-18.08 4.35-26.93 7.31-17.7 5.91-34.96 13.4-51.62 22.14-16.71 8.65-32.92 18.36-48.75 28.71-31.63 20.78-61.54 44.33-90.26 69.27-14.3 12.54-28.37 25.39-41.97 38.72-13.64 13.29-26.94 26.98-39.45 41.29l-.02.02a2.997 2.997 0 0 1-4.24.28 3.023 3.023 0 0 1-.51-4.02z" fill="gray"/></svg>