<svg data-name="Layer 1" xmlns="http://www.w3.org/2000/svg" width="250" height="150"><path d="M102.1 78c0 24.91 31.49 24.83 31.49-4.47 0-6.15-4.75-16.64-14.85-16.64-9.44-.02-16.64 9.35-16.64 21.11zm22.7-.91c0 14.37-13.24 13.34-13.24 1.35 0-13.08 13.24-12.85 13.24-1.37zm-17.41 22.43l.58.76c-13.8 9.81-29.59 3.24-38.8-8.06a152.72 152.72 0 0 0 5.34 29.1s-3.82 2.22-7.58 4.71c-4.26-13.71-7.36-24.79-9.55-36.87-3.89 1.6-7.8 3.06-11.66 4.35-.44-2.15-.87-4.15-1.28-6q6.24-2.35 11.85-5c-1.8-12.13-2.8-25.81-3.2-44.33a145.06 145.06 0 0 1 17.8-7.84 347.84 347.84 0 0 0-2.57 45.86c38.91-23 45.93-53.9 12.82-53.9-20.77 0-56.64 16.12-77 30.22C4.19 52.52 2 41.8 0 29.23c9.17-4.74 42.5-20.3 75-20.3 27.68 0 39.58 11.4 39.58 24.67 0 19.93-20.46 37.57-44.49 49.74 6.54 9.21 17.49 11.66 28.17 5a19.61 19.61 0 0 0 9.13 11.18zm59.19-12.42c2.78-36.22 2.72-40 3.9-50.53 0 0-7.28 1-13.16 2.39.15 2.61.27 5.24.36 7.91a11.69 11.69 0 0 0-5.88-1.51c-20.09 0-19.88 36.58-2.12 36.58a11.48 11.48 0 0 0 7.69-3q-.24 5.2-.6 10.8c-28.11 8.73-44.27 25-44.27 37.12 0 8.57 4.67 14.23 15.18 14.23 16.29 0 31.24-17.33 35.52-35.58a68.78 68.78 0 0 0-9.58 1.58c-8.92 22.5-17.68 28-26.58 28-4.55 0-7.63-2.32-7.63-7 0-13.85 25.05-29.48 58.46-29.48 27.18 0 46.57 6.62 46.57 6.62 3-14.16 4-19.77 4-19.77-5.06-.96-34.28-4.57-61.86 1.64zm-13.33-13.31c-9.57 0-8.8-17.93-.28-17.93a6.31 6.31 0 0 1 4.89 2.28c0 4.38-.07 8.91-.22 13.68a5.72 5.72 0 0 1-4.39 1.97zm23.21-47.84a7.64 7.64 0 1 1 15.21 1.21 7.64 7.64 0 1 1-15.21-1.21zm13.84 28.77a38 38 0 0 0 5.23 2.28c0 9.08 5.81 16.26 14 16.26 5.66 0 11.14-4.11 14-7.6l-2.81-3.54s-3.8 4.13-7.8 4.13c-3.57 0-7-2-7.67-7.12 10.33.82 20.34-4.68 20.34-14.59 0-5.66-4.33-9.8-10.36-9.8-9 0-16.84 8.46-19.05 17.39a38.94 38.94 0 0 1-4.18-1.74c-.32.74-1.7 4.33-1.7 4.33zm27.38-9c0 3.67-3.81 8.34-12.26 8 2.01-11.95 12.26-14.9 12.26-8.02zm-43.46 12.22a69.47 69.47 0 0 1 2.24-18.22l.39-.07a17.13 17.13 0 0 0 12.25-.52c-2.94 7.92-4.53 15.47-4.53 21.43 0 7.18 4.09 9 8.24 3.41a17.13 17.13 0 0 0 2 4.64c-2.5 3.62-5.82 5.87-9.76 5.87-6.49-.01-10.83-6.69-10.83-16.54z"/></svg>