<svg width="1280" height="854" viewBox="0 0 1280 854" fill="none" xmlns="http://www.w3.org/2000/svg">
<rect width="1280" height="854" fill="#D3D3D3"></rect>
<path d="M1280 0H0V853.33H1280V0Z" fill="#FFCCDD"></path>
<path opacity="0.6" d="M1017.7 272.64H262.2V296.72H1017.7V272.64Z" fill="url(#paint0_linear_0_1)"></path>
<path d="M1017.7 232.8H262.2V285.9H1017.7V232.8Z" fill="white"></path>
<path d="M619.7 265.6V249.5H622.3V255.8C622.719 255.217 623.277 254.747 623.923 254.432C624.569 254.118 625.282 253.97 626 254C626.588 253.961 627.178 254.047 627.73 254.254C628.282 254.461 628.783 254.784 629.2 255.2C629.597 255.647 629.898 256.17 630.088 256.738C630.277 257.305 630.349 257.904 630.3 258.5V265.5H627.7V259C627.7 257.2 626.9 256.2 625.2 256.2C624.438 256.171 623.692 256.419 623.1 256.9C622.802 257.155 622.573 257.481 622.433 257.848C622.293 258.215 622.247 258.611 622.3 259V265.6H619.7Z" fill="black" fill-opacity="0.89"></path>
<path d="M642.4 264.2C641.2 265.263 639.653 265.85 638.05 265.85C636.447 265.85 634.9 265.263 633.7 264.2C632.601 263.079 631.985 261.571 631.985 260C631.985 258.43 632.601 256.922 633.7 255.8C634.867 254.71 636.403 254.102 638 254.1C638.798 254.046 639.598 254.171 640.342 254.465C641.086 254.759 641.755 255.215 642.3 255.8C642.886 256.329 643.356 256.973 643.68 257.692C644.005 258.411 644.178 259.189 644.187 259.978C644.196 260.767 644.043 261.55 643.735 262.276C643.427 263.003 642.973 263.658 642.4 264.2ZM635.7 262.8C636.005 263.127 636.373 263.39 636.782 263.573C637.19 263.755 637.631 263.854 638.079 263.863C638.526 263.873 638.971 263.792 639.387 263.627C639.803 263.461 640.181 263.214 640.5 262.9L640.6 262.8C641.185 261.984 641.499 261.005 641.499 260C641.499 258.996 641.185 258.017 640.6 257.2C640.295 256.873 639.927 256.61 639.518 256.428C639.11 256.245 638.669 256.146 638.221 256.137C637.774 256.128 637.329 256.208 636.913 256.374C636.497 256.539 636.119 256.786 635.8 257.1L635.7 257.2C635.115 258.017 634.801 258.996 634.801 260C634.801 261.005 635.115 261.984 635.7 262.8Z" fill="black" fill-opacity="0.89"></path>
<path d="M650.1 265.9C647.7 265.9 646.5 264.7 646.5 262.2V256.5H644.7V254.4H646.6L647.2 251.1H649.1V254.4H653.7V256.5H649.1V262.1C649.1 263.1 649.5 263.6 650.3 263.6C651.1 263.6 651.7 263 652.3 261.6L654.3 262.6C653.433 264.8 652.033 265.9 650.1 265.9Z" fill="black" fill-opacity="0.89"></path>
<path d="M655.2 270.8C654.194 270.809 653.212 270.493 652.4 269.9L653.4 267.9C653.571 268.141 653.795 268.339 654.056 268.477C654.316 268.616 654.605 268.693 654.9 268.7C655.6 268.7 656 268.2 656 267.4V254.5H658.6V267.4C658.659 267.874 658.609 268.354 658.453 268.805C658.297 269.256 658.039 269.665 657.7 270C656.961 270.503 656.093 270.78 655.2 270.8ZM657.2 252.5C656.766 252.506 656.343 252.365 656 252.1C655.844 251.974 655.738 251.797 655.7 251.6C655.6 251.207 655.6 250.794 655.7 250.4C655.777 250.221 655.878 250.053 656 249.9C656.313 249.61 656.723 249.449 657.15 249.449C657.577 249.449 657.987 249.61 658.3 249.9C658.392 249.947 658.469 250.019 658.522 250.107C658.575 250.196 658.602 250.297 658.6 250.4C658.733 250.789 658.733 251.211 658.6 251.6C658.5 251.8 658.4 251.9 658.3 252.1C658.2 252.3 658 252.4 657.8 252.4C657.611 252.482 657.405 252.516 657.2 252.5Z" fill="black" fill-opacity="0.89"></path>
<path d="M664.9 265.9C663.751 265.938 662.623 265.585 661.7 264.9C661.37 264.638 661.096 264.314 660.892 263.946C660.689 263.577 660.56 263.172 660.513 262.754C660.467 262.336 660.504 261.912 660.621 261.508C660.739 261.104 660.936 260.728 661.2 260.4L661.8 259.8C662.708 259.085 663.847 258.73 665 258.8C666.209 258.788 667.381 259.214 668.3 260V258.6C668.301 257.92 668.092 257.256 667.7 256.7C667.465 256.466 667.183 256.282 666.873 256.162C666.563 256.041 666.232 255.986 665.9 256C665.217 255.951 664.54 256.161 664.003 256.586C663.466 257.012 663.108 257.623 663 258.3L660.6 257.8C660.881 256.61 661.582 255.56 662.574 254.844C663.565 254.128 664.782 253.793 666 253.9C666.65 253.845 667.305 253.923 667.924 254.129C668.543 254.335 669.113 254.666 669.6 255.1C670.052 255.537 670.403 256.068 670.628 256.656C670.852 257.243 670.945 257.873 670.9 258.5V265.4H668.4V264C668.019 264.581 667.5 265.058 666.889 265.39C666.278 265.722 665.595 265.897 664.9 265.9ZM665.4 264C665.988 263.987 666.564 263.825 667.071 263.527C667.579 263.23 668.002 262.807 668.3 262.3V262C667.953 261.563 667.513 261.21 667.01 260.968C666.508 260.726 665.958 260.6 665.4 260.6C664.822 260.549 664.246 260.729 663.8 261.1C663.6 261.2 663.5 261.4 663.3 261.6C663.175 261.813 663.106 262.053 663.1 262.3C663.076 262.55 663.148 262.8 663.3 263C663.413 263.213 663.587 263.387 663.8 263.5C664.008 263.704 664.262 263.856 664.54 263.943C664.818 264.03 665.113 264.049 665.4 264Z" fill="black" fill-opacity="0.89"></path>
<path d="M673.4 265.6V254.4H675.9V256.3C676.165 255.651 676.624 255.1 677.215 254.724C677.807 254.348 678.5 254.165 679.2 254.2C679.624 254.189 680.046 254.262 680.441 254.417C680.836 254.571 681.196 254.804 681.5 255.1C682.101 255.753 682.424 256.613 682.4 257.5C682.407 258.08 682.305 258.657 682.1 259.2L679.7 259C679.7 258.7 679.8 258.4 679.8 258.1C679.8 257 679.3 256.4 678.3 256.4C677.956 256.411 677.62 256.509 677.323 256.683C677.026 256.858 676.777 257.105 676.6 257.4C676.125 258.219 675.883 259.153 675.9 260.1V265.7L673.4 265.6Z" fill="black" fill-opacity="0.89"></path>
<path d="M603.6 256.1C605.5 255.1 608.2 253.6 608.2 249.5H605C605 251.8 603.8 252.4 602.1 253.4C600.2 254.4 597.5 255.8 597.5 260H600.6C600.6 257.7 601.8 257 603.6 256.1Z" fill="#FF3C00"></path>
<path d="M609.1 255.2C609.1 257.5 607.9 258.1 606.2 259.1C604.3 260.1 601.6 261.6 601.6 265.7H604.8C604.8 263.4 606 262.8 607.7 261.8C609.6 260.8 612.3 259.3 612.3 255.2H609.1Z" fill="#FF3C00"></path>
<path d="M261.4 232.8H1018.5V213.6C1018.49 211.906 1017.81 210.284 1016.61 209.086C1015.42 207.888 1013.79 207.211 1012.1 207.2C436.6 207.2 843.3 207.3 267.8 207.2C266.106 207.211 264.484 207.888 263.286 209.086C262.088 210.284 261.411 211.906 261.4 213.6V232.8Z" fill="#202641"></path>
<path fill-rule="evenodd" clip-rule="evenodd" d="M278.7 224.8C279.973 224.8 281.194 224.294 282.094 223.394C282.994 222.494 283.5 221.273 283.5 220C283.5 218.727 282.994 217.506 282.094 216.606C281.194 215.706 279.973 215.2 278.7 215.2C277.427 215.2 276.206 215.706 275.306 216.606C274.406 217.506 273.9 218.727 273.9 220C273.9 221.273 274.406 222.494 275.306 223.394C276.206 224.294 277.427 224.8 278.7 224.8Z" fill="#8B8E9C"></path>
<path fill-rule="evenodd" clip-rule="evenodd" d="M294.7 224.8C295.649 224.8 296.577 224.519 297.367 223.991C298.156 223.464 298.771 222.714 299.135 221.837C299.498 220.96 299.593 219.995 299.408 219.064C299.223 218.133 298.765 217.277 298.094 216.606C297.423 215.935 296.568 215.478 295.636 215.292C294.705 215.107 293.74 215.202 292.863 215.566C291.986 215.929 291.236 216.544 290.709 217.333C290.182 218.123 289.9 219.051 289.9 220C289.918 221.268 290.43 222.478 291.326 223.374C292.222 224.271 293.433 224.782 294.7 224.8Z" fill="#8B8E9C"></path>
<path fill-rule="evenodd" clip-rule="evenodd" d="M310.8 224.8C311.749 224.8 312.677 224.519 313.467 223.991C314.256 223.464 314.871 222.714 315.235 221.837C315.598 220.96 315.693 219.995 315.508 219.064C315.323 218.133 314.865 217.277 314.194 216.606C313.523 215.935 312.668 215.478 311.736 215.292C310.805 215.107 309.84 215.202 308.963 215.566C308.086 215.929 307.336 216.544 306.809 217.333C306.282 218.123 306 219.051 306 220V220.1C306.039 221.352 306.56 222.54 307.454 223.416C308.349 224.292 309.548 224.788 310.8 224.8Z" fill="#8B8E9C"></path>
<path d="M262.2 213.5C262.199 212.765 262.343 212.036 262.624 211.356C262.905 210.676 263.317 210.058 263.837 209.538C264.358 209.017 264.975 208.605 265.655 208.324C266.336 208.043 267.064 207.899 267.8 207.9H1012.1C1012.84 207.899 1013.56 208.043 1014.24 208.324C1014.92 208.605 1015.54 209.017 1016.06 209.538C1016.58 210.058 1017 210.676 1017.28 211.356C1017.56 212.036 1017.7 212.765 1017.7 213.5V701.9H262.2V213.5Z" stroke="#202641" stroke-width="2"></path>
<path d="M917.1 333.14H988.01V570.9H508.46V333.14H917.1Z" fill="white"></path>
<path d="M909.29 333.14H988.01V570.9H762.02" stroke="black" stroke-width="2" stroke-miterlimit="10"></path>
<path d="M485.46 333.61H296.61V623.79H485.46V333.61Z" fill="url(#paint1_linear_0_1)"></path>
<path d="M485.46 333.61H296.61V622.79H485.46V333.61Z" stroke="black" stroke-width="2" stroke-miterlimit="10"></path>
<path d="M508.41 591.59H982.66" stroke="white" stroke-width="2" stroke-miterlimit="10"></path>
<path d="M508.41 608.99H982.66" stroke="white" stroke-width="2" stroke-miterlimit="10"></path>
<path d="M508.41 626.39H982.66" stroke="white" stroke-width="2" stroke-miterlimit="10"></path>
<path d="M508.41 643.79H982.66" stroke="white" stroke-width="2" stroke-miterlimit="10"></path>
<path d="M498.09 458.05C456.78 411.43 422.43 344.76 401.72 253.23" stroke="#FF3C00" stroke-width="10.77" stroke-linejoin="bevel"></path>
<path d="M785.22 209.71C784.75 210.41 784.22 211.25 783.62 212.22L786.97 207.13C786.39 208 785.81 208.83 785.22 209.71Z" fill="#A18FD6"></path>
<path d="M796.956 680.029L483.355 374.426L444.997 413.788L758.598 719.391L796.956 680.029Z" fill="url(#paint2_linear_0_1)"></path>
<path d="M697.39 583.07L796.88 680.04L758.52 719.4L714.37 676.37" stroke="black" stroke-width="2" stroke-miterlimit="10"></path>
<path d="M487.75 434.53C497.63 434.53 505.64 426.52 505.64 416.64C505.64 406.76 497.63 398.75 487.75 398.75C477.87 398.75 469.86 406.76 469.86 416.64C469.86 426.52 477.87 434.53 487.75 434.53Z" fill="white"></path>
<path d="M609.14 520.26L535 448C534.303 447.318 533.905 446.387 533.894 445.412C533.883 444.437 534.259 443.498 534.94 442.8C535.276 442.453 535.678 442.176 536.121 441.985C536.565 441.793 537.042 441.691 537.525 441.685C538.009 441.678 538.488 441.767 538.937 441.947C539.386 442.126 539.794 442.392 540.14 442.73L614.28 515C614.976 515.682 615.374 516.611 615.387 517.585C615.4 518.56 615.027 519.499 614.35 520.2C614.012 520.546 613.609 520.823 613.164 521.013C612.719 521.204 612.241 521.305 611.757 521.311C611.273 521.316 610.793 521.226 610.344 521.046C609.895 520.866 609.486 520.599 609.14 520.26Z" fill="white"></path>
<path d="M526.39 451.64L712.52 633.05" stroke="black" stroke-width="2" stroke-miterlimit="10"></path>
<path d="M520.16 458.04L706.28 639.45" stroke="black" stroke-width="2" stroke-miterlimit="10"></path>
<path d="M513.92 464.44L700.04 645.85" stroke="black" stroke-width="2" stroke-miterlimit="10"></path>
<path d="M697.39 549.08C629.73 550.08 556.87 524.38 498.09 458.08" stroke="#FF3C00" stroke-width="10.77" stroke-linejoin="bevel"></path>
<path d="M346.91 457.83C341.21 466.57 340.59 469.62 330.91 475.47C323.36 480.02 319.67 479.62 319.67 479.62H319.29C317.108 479.383 314.921 480.017 313.204 481.384C311.487 482.751 310.379 484.741 310.12 486.92C310.105 487.173 310.105 487.427 310.12 487.68C310.122 489.339 310.61 490.96 311.524 492.345C312.437 493.729 313.736 494.815 315.26 495.47C314.247 495.93 313.334 496.584 312.574 497.397C311.814 498.209 311.221 499.163 310.83 500.204C310.438 501.246 310.256 502.354 310.293 503.466C310.33 504.578 310.585 505.672 311.045 506.685C311.505 507.698 312.159 508.611 312.972 509.371C313.784 510.131 314.738 510.724 315.78 511.115C316.821 511.507 317.929 511.689 319.041 511.652C320.153 511.615 321.247 511.36 322.26 510.9C321.489 513.641 321.584 516.554 322.53 519.24C323.489 522.049 325.278 524.501 327.659 526.272C330.041 528.043 332.904 529.05 335.87 529.16C339.274 529.24 342.598 528.116 345.256 525.987C347.913 523.858 349.735 520.86 350.4 517.52C351.763 517.753 353.076 518.22 354.28 518.9C355.69 520.34 372.99 452.98 372.99 452.98C372.99 452.98 362 434.71 346.91 457.83Z" fill="white"></path>
<path d="M375.94 447.11C376.905 446.042 378.11 445.218 379.455 444.707C380.801 444.195 382.249 444.011 383.68 444.17C386.09 444.38 388.94 445.37 390.16 448.65C390.16 448.65 393.51 445.65 394.04 438.94C394.51 433.01 397.91 425.35 403.79 427.76C403.464 427.358 403.095 426.992 402.69 426.67C389.59 415.93 358.83 423.82 363.34 447.12C364.75 455.59 367.22 463.3 367.57 466.12C367.92 468.94 368.63 469.65 367.22 475.12C367.16 475.353 367.08 475.623 366.98 475.93C370.76 471.64 375.77 465.68 377.45 462.41C377.45 462.41 371 453 375.94 447.11Z" fill="white"></path>
<path d="M401.26 511.12L460.26 513.69L486.9 461.44L493.6 464.76C493.6 464.76 492.32 487.36 485.71 507.36C479.35 526.6 468.31 539.36 440.55 537.7C438.9 537.6 437.26 537.44 435.65 537.29L386.27 533.36" fill="#FF6400"></path>
<path d="M363.42 485.17L385.98 490.57C385.98 490.57 407.81 501.47 409.69 509.24C411.57 517.01 409.22 525.47 401.22 533.47C397.33 537.36 391.66 541.92 386.22 546.91C381.164 550.662 375.691 553.817 369.91 556.31C359.79 560.78 344.91 566.43 330.85 563.96C332.706 555.618 335.228 547.439 338.39 539.5C338.83 538.27 339.62 536.37 340.65 534.01C341.2 532.73 341.75 531.48 342.3 530.28C347.9 517.77 357.43 497.82 361.57 489.19C362.24 487.83 362.83 486.5 363.42 485.17ZM501.22 653.94C500.04 643.59 505.22 610.18 459.81 595.59C414.4 581 377.93 577.71 377.93 577.71C377.93 577.71 372.78 576.61 371.23 572.25L328.4 581C328.4 581 305.45 589.47 299.45 625.83C293.45 662.19 293.81 665.71 293.81 665.71C293.81 665.71 226.4 689.36 194.28 695.71C194.28 695.71 185.46 720.77 184.75 729.94C184.75 729.94 193.8 718.7 197.1 718.3C208.57 716.88 219.34 729.24 227.81 729.94H228.06C237.105 730.625 246.151 728.621 254.06 724.18C257.719 722.071 261.578 720.33 265.58 718.98C274.76 716.16 298.76 722.16 315.7 720.75C332.64 719.34 339 709.83 339 709.83C339 709.83 353.12 693.94 355.24 673.12C357.36 652.3 360.53 624.41 360.53 624.41C360.53 624.41 402.18 629.71 423.36 646.65C444.54 663.59 456.89 697.12 458.3 721.47C458.3 721.47 488.06 728.77 494.89 728.53L501.71 728.3C501.71 728.3 493.71 724.77 492.3 720.53C486.9 704.47 505.16 703.32 511.36 685.47C514.63 675.12 502.4 664.3 501.22 653.94Z" fill="url(#paint3_radial_0_1)"></path>
<path d="M411 457.47C412.043 457.093 412.994 456.499 413.792 455.729C414.59 454.959 415.216 454.029 415.63 453C415.997 451.782 415.983 450.48 415.59 449.27C415.197 448.06 414.443 447 413.43 446.23L410.29 443.75C408.882 442.64 407.969 441.019 407.75 439.24C407.33 436.03 406.3 430.76 403.81 427.76C397.93 425.35 394.53 433.01 394.06 438.94C393.53 445.65 390.18 448.65 390.18 448.65C388.96 445.37 386.11 444.38 383.7 444.17C382.269 444.011 380.821 444.195 379.475 444.706C378.13 445.218 376.925 446.041 375.96 447.11C370.96 452.98 377.47 462.41 377.47 462.41C375.79 465.68 370.78 471.64 367 475.93C366.81 476.56 366.54 477.35 366.21 478.26C365.36 480.59 364.43 482.89 363.44 485.17L386 490.57L391.59 472.3C391.59 472.3 406.75 474.77 411 457.47Z" fill="#FF6400"></path>
<path d="M372.28 563.83C375.06 557.9 380.51 552.17 386.28 546.91C381.224 550.663 375.751 553.817 369.97 556.31C359.85 560.78 344.97 566.43 330.91 563.96C329.668 569.558 328.843 575.24 328.44 580.96L371.27 572.21C370.5 570.22 370.56 567.49 372.28 563.83Z" fill="#FF6400"></path>
<path d="M353.63 509C353.63 509 359.56 500.82 366.51 497C384.51 487.12 418.4 488.68 446.98 474.77C477.69 459.83 497.81 445.84 502.16 442.41C508.75 437.24 515.6 427.68 517.25 425.15C517.35 424.997 517.486 424.871 517.647 424.784C517.807 424.696 517.987 424.65 518.17 424.65C518.342 424.655 518.51 424.7 518.661 424.781C518.812 424.863 518.941 424.98 519.039 425.121C519.136 425.262 519.199 425.425 519.222 425.595C519.244 425.765 519.227 425.938 519.17 426.1C517.94 429.66 511.87 441.3 511.87 441.59C511.87 441.88 526.72 432.41 529.87 424.65C533.02 416.89 531.64 432.77 531.64 432.77C531.64 432.77 530.58 441.59 522.46 450.06C514.34 458.53 452.53 516.72 378.82 519.12C357.17 519.83 358.42 507.69 369.93 505.41C371.941 505.01 374.017 505.072 376 505.592C377.984 506.111 379.824 507.075 381.38 508.41C383.64 510.41 385.52 513.33 383.99 517.21C380.93 524.97 378.82 532.03 359.05 540.74C352.296 543.594 345.086 545.216 337.76 545.53C336.22 542.62 341.07 532.93 341.07 532.93" fill="#FF6400"></path>
<path d="M522.51 450.06C508.46 467 452.58 516.72 378.87 519.12C357.22 519.83 358.47 507.69 369.98 505.41C371.991 505.01 374.067 505.072 376.05 505.592C378.034 506.111 379.874 507.075 381.43 508.41C383.69 510.41 385.57 513.33 384.04 517.21C380.98 524.97 380.28 532.27 362.89 541.09C349.35 547.96 340.5 545.16 337.44 542.38C337.431 542.368 337.419 542.358 337.405 542.351C337.391 542.344 337.376 542.34 337.36 542.34C337.344 542.34 337.329 542.344 337.315 542.351C337.301 542.358 337.289 542.368 337.28 542.38C334.631 549.384 332.488 556.569 330.87 563.88C329.628 569.478 328.803 575.16 328.4 580.88C328.4 580.88 314.61 585.97 305.61 605.21C302.63 611.73 300.557 618.627 299.45 625.71" stroke="black" stroke-width="5.18" stroke-miterlimit="10" stroke-linecap="round"></path>
<path d="M406.33 448.05C407.401 448.05 408.27 447.181 408.27 446.11C408.27 445.038 407.401 444.17 406.33 444.17C405.259 444.17 404.39 445.038 404.39 446.11C404.39 447.181 405.259 448.05 406.33 448.05Z" fill="black"></path>
<path d="M403.79 468.07C402.945 467.192 402.286 466.152 401.855 465.012C401.423 463.873 401.228 462.657 401.28 461.44" stroke="black" stroke-width="2" stroke-linecap="round"></path>
<path d="M524.37 440.45C524.37 440.45 530.06 436.28 531.99 430.21" stroke="black" stroke-width="2" stroke-miterlimit="10" stroke-linecap="round"></path>
<path d="M380.37 459.71C383.191 460.291 385.697 461.898 387.401 464.22C389.105 466.542 389.887 469.414 389.595 472.28C389.303 475.145 387.958 477.801 385.821 479.731C383.683 481.662 380.905 482.731 378.025 482.731C375.145 482.731 372.367 481.662 370.229 479.731C368.092 477.801 366.747 475.145 366.455 472.28C366.163 469.414 366.945 466.542 368.649 464.22C370.353 461.898 372.859 460.291 375.68 459.71" stroke="black" stroke-width="2" stroke-miterlimit="10" stroke-linecap="round"></path>
<path d="M895.64 126.14C867.78 118.62 847.28 123.77 847.28 123.77L773.92 154.42C773.92 154.42 759.38 162.83 747.71 183C767.24 195.63 783.6 212.24 783.6 212.24C784.19 211.24 784.73 210.43 785.2 209.73C785.79 208.85 786.37 207.99 786.95 207.15H890.1L917.1 177.09L895.64 126.14Z" fill="white"></path>
<path d="M845.82 116.06C844.12 113.58 842.06 113.57 840.43 114.18C842.43 111.81 843.37 109.64 842.26 107.13C841.712 105.966 840.847 104.981 839.765 104.286C838.682 103.591 837.426 103.214 836.14 103.2C833.496 103.198 830.861 103.487 828.28 104.06C828.04 102.42 825.22 97.9401 820.28 98.5901C818.798 98.8233 817.389 99.3959 816.164 100.263C814.94 101.131 813.932 102.269 813.22 103.59C810.87 100.53 805.22 98.1801 800.51 98.6501C795.8 99.1201 792.98 102.89 788.51 103.59C783.78 103.94 771.16 100.12 756.98 107.12C745.46 112.81 742.87 126.38 742.86 137.37C743.282 135.313 743.996 133.326 744.98 131.47C748.21 125.13 755.45 122.81 760.63 126.47C764.682 130.101 768.031 134.447 770.51 139.29C770.51 139.29 769.18 131.99 768.63 128.35C767.72 117.95 780.57 121.67 783.1 127.17C784.04 128.94 783.92 135.64 783.1 137.99C783.1 137.99 796.27 155.08 821.98 150.64C835.32 148.34 843.22 139 845.82 130.98C845.82 130.93 849.25 121.05 845.82 116.06Z" fill="black"></path>
<path d="M849.46 130.1C851.99 142.02 853.55 164.7 832.75 175.36C792.53 195.95 773.92 154.42 773.92 154.42C759.57 161.94 752.75 149.24 752.75 149.24L744.51 153.47C743.408 148.174 742.855 142.779 742.86 137.37C743.282 135.313 743.996 133.326 744.98 131.47C748.21 125.13 755.45 122.81 760.63 126.47C764.682 130.101 768.031 134.447 770.51 139.29C770.51 139.29 769.18 131.99 768.63 128.35C767.72 117.95 780.57 121.67 783.1 127.17C784.04 128.94 783.92 135.64 783.1 137.99C783.1 137.99 796.27 155.08 821.98 150.64C841.38 147.29 849.29 129.05 846.09 121.64C847.678 124.252 848.818 127.112 849.46 130.1ZM747.71 183C747.51 183.36 747.3 183.7 747.1 184.06C735.34 205 714.16 245.94 710.63 252.06C707.1 258.18 696 278.65 696 278.65C693.013 284.103 691.172 290.11 690.59 296.3C689.88 305.94 689.18 310.42 690.59 312.77C692 315.12 693.18 315.36 694.36 315.12C695.54 314.88 698.12 309.94 698.12 309.94L737.41 309.24L741.41 291.12C741.41 291.12 772.55 230.12 783.58 212.22C783.58 212.22 767.24 195.63 747.71 183ZM923.57 137.47C914.749 132.584 905.372 128.78 895.64 126.14C892.008 130.44 888.606 134.929 885.45 139.59C880.51 147.36 878.2 154.47 877.75 160.12C877.597 162.121 877.664 164.133 877.95 166.12C872.306 167.154 866.721 168.489 861.22 170.12C839.51 177.12 825.81 186.26 813.28 197.4C809.474 200.742 806.391 204.825 804.22 209.4C803.514 210.822 802.98 212.322 802.63 213.87C801.92 217.64 805.23 216.58 807.16 214.99C809.77 212.85 822.16 204.23 819.34 207.85C816.52 211.47 815.81 223.76 816.98 227.76C818.15 231.76 822.87 234.82 828.28 232.76C837.79 228.36 841.14 220.03 848.28 213.48C851.94 209.889 856.872 207.89 862 207.92H910.45C928.24 207.92 943.45 194.51 945.05 176.78C946.22 163.46 942.46 147.9 923.57 137.47Z" fill="url(#paint4_radial_0_1)"></path>
<path d="M747.71 517.66C812.151 517.66 864.39 465.421 864.39 400.98C864.39 336.54 812.151 284.3 747.71 284.3C683.269 284.3 631.03 336.54 631.03 400.98C631.03 465.421 683.269 517.66 747.71 517.66Z" fill="url(#paint5_radial_0_1)"></path>
<path d="M857.93 439.28C852.26 455.595 843.038 470.448 830.931 482.767C818.824 495.085 804.133 504.563 787.919 510.515C771.704 516.467 754.371 518.745 737.169 517.185C719.967 515.625 703.327 510.266 688.447 501.495C673.568 492.723 660.822 480.758 651.128 466.462C641.434 452.167 635.035 435.897 632.392 418.829C629.749 401.76 630.928 384.317 635.844 367.759C640.76 351.201 649.291 335.941 660.82 323.08" stroke="black" stroke-width="2" stroke-miterlimit="10" stroke-linecap="round"></path>
<path d="M710.63 252.06C707.1 258.18 696 278.65 696 278.65C693.013 284.103 691.172 290.11 690.59 296.3C689.88 305.94 688.8 310.64 690.21 312.99C691.62 315.34 693.21 315.36 694.36 315.12C695.124 314.911 695.816 314.496 696.36 313.92C697.73 312.11 697.88 309.92 698.21 307.72C698.71 304.43 702.1 290.53 713.39 282.42" fill="#FFE05E"></path>
<path d="M753.81 143.21C755.124 143.21 756.19 142.145 756.19 140.83C756.19 139.516 755.124 138.45 753.81 138.45C752.496 138.45 751.43 139.516 751.43 140.83C751.43 142.145 752.496 143.21 753.81 143.21Z" fill="black"></path>
<path d="M762 148.32C761.88 151.47 761.13 153.93 759.67 155.59" stroke="black" stroke-width="2" stroke-linecap="round"></path>
<path d="M828 209.68C823.987 216.744 821.737 224.672 821.44 232.79" stroke="black" stroke-width="2" stroke-linecap="round"></path>
<path d="M837.22 209.68C830.22 222.68 830.91 231.12 830.22 231.78" stroke="black" stroke-width="2" stroke-linecap="round"></path>
<path d="M817.57 205.94C815.45 206.66 809.19 213.4 807.16 215.06C805.13 216.72 801.92 217.71 802.63 213.94C802.982 212.389 803.515 210.886 804.22 209.46C806.393 204.886 809.476 200.803 813.28 197.46C825.81 186.32 839.51 177.23 861.22 170.18C876.51 165.94 881.22 165.13 889.92 165.71C929 168 899.8 201.58 881.45 176C879.33 173.05 877.22 166.74 877.75 160.12C878.2 154.47 880.51 147.36 885.45 139.59C888.609 134.931 892.01 130.442 895.64 126.14C867.78 118.62 847.28 123.77 847.28 123.77C848.263 125.783 848.995 127.909 849.46 130.1C851.99 142.02 853.55 164.7 832.75 175.36C792.53 195.95 773.92 154.42 773.92 154.42C773.92 154.42 759.38 162.83 747.71 183C747.51 183.36 747.3 183.7 747.1 184.06C735.34 205 714.16 245.94 710.63 252.06C707.1 258.18 696 278.65 696 278.65C693.013 284.103 691.172 290.11 690.59 296.3C689.88 305.94 688.8 310.64 690.21 312.99C691.62 315.34 693.21 315.36 694.36 315.12C695.124 314.912 695.816 314.496 696.36 313.92C697.73 312.11 697.88 309.92 698.21 307.72C698.71 304.43 702.1 290.53 713.39 282.42" stroke="black" stroke-width="5.18" stroke-miterlimit="10" stroke-linecap="round"></path>
<path d="M981.19 567C963.35 615.82 908.57 617.73 863.06 585.15C704 471.21 793.09 233.43 876 320.39C885.449 330.473 892.612 342.476 897 355.58C930.65 453.08 823 547.17 697.38 549.08" stroke="#FF3C00" stroke-width="10.77" stroke-linejoin="bevel"></path>
<path d="M1008.09 591.59C1059.18 591.59 1100.59 550.176 1100.59 499.09C1100.59 448.004 1059.18 406.59 1008.09 406.59C957.004 406.59 915.59 448.004 915.59 499.09C915.59 550.176 957.004 591.59 1008.09 591.59Z" fill="url(#paint6_radial_0_1)"></path>
<path d="M1008.09 534.47C1022.59 534.467 1036.49 528.707 1046.73 518.457C1056.98 508.207 1062.74 494.305 1062.74 479.81H953.43C953.43 494.307 959.189 508.21 969.44 518.461C979.69 528.711 993.593 534.47 1008.09 534.47Z" stroke="black" stroke-width="2"></path>
<path d="M1033.52 463.19C1036.47 463.19 1038.87 460.794 1038.87 457.84C1038.87 454.885 1036.47 452.49 1033.52 452.49C1030.57 452.49 1028.17 454.885 1028.17 457.84C1028.17 460.794 1030.57 463.19 1033.52 463.19Z" fill="black"></path>
<path d="M982.66 463.19C985.615 463.19 988.01 460.794 988.01 457.84C988.01 454.885 985.615 452.49 982.66 452.49C979.705 452.49 977.31 454.885 977.31 457.84C977.31 460.794 979.705 463.19 982.66 463.19Z" fill="black"></path>
<path d="M1092.44 532.81C1071.01 581.63 1015.8 604.59 969.12 584.09C922.44 563.59 902 507.42 923.39 458.6" stroke="black" stroke-width="2" stroke-linecap="round"></path>
<defs>
<linearGradient id="paint0_linear_0_1" x1="639.95" y1="267.01" x2="639.95" y2="291.56" gradientUnits="userSpaceOnUse">
<stop></stop>
<stop offset="1" stop-opacity="0"></stop>
</linearGradient>
<linearGradient id="paint1_linear_0_1" x1="445.69" y1="537.59" x2="-228.51" y2="-188.81" gradientUnits="userSpaceOnUse">
<stop offset="0.11" stop-color="#FFCCDD"></stop>
<stop offset="0.7" stop-color="white"></stop>
</linearGradient>
<linearGradient id="paint2_linear_0_1" x1="334.46" y1="365.671" x2="543.69" y2="498.071" gradientUnits="userSpaceOnUse">
<stop stop-color="#FF3C00"></stop>
<stop offset="0.27" stop-color="#FF6D4B"></stop>
<stop offset="0.53" stop-color="#FF9689"></stop>
<stop offset="0.74" stop-color="#FFB3B7"></stop>
<stop offset="0.9" stop-color="#FFC5D3"></stop>
<stop offset="1" stop-color="#FFCCDD"></stop>
</linearGradient>
<radialGradient id="paint3_radial_0_1" cx="0" cy="0" r="1" gradientUnits="userSpaceOnUse" gradientTransform="translate(439.31 541.31) scale(328.5)">
<stop offset="0.15" stop-color="#FFE05E"></stop>
<stop offset="0.65" stop-color="#FF3C00"></stop>
</radialGradient>
<radialGradient id="paint4_radial_0_1" cx="0" cy="0" r="1" gradientUnits="userSpaceOnUse" gradientTransform="translate(726 282) rotate(-34.5862) scale(266.011 351.105)">
<stop offset="0.239583" stop-color="#FFE05E"></stop>
<stop offset="0.786458" stop-color="#FF3C00"></stop>
</radialGradient>
<radialGradient id="paint5_radial_0_1" cx="0" cy="0" r="1" gradientUnits="userSpaceOnUse" gradientTransform="translate(710.31 319.25) scale(308.36)">
<stop offset="0.02" stop-color="white"></stop>
<stop offset="0.36" stop-color="#FFCCDD"></stop>
</radialGradient>
<radialGradient id="paint6_radial_0_1" cx="0" cy="0" r="1" gradientUnits="userSpaceOnUse" gradientTransform="translate(978.3 481.47) scale(149.61)">
<stop offset="0.08" stop-color="#FF3C00"></stop>
<stop offset="0.81" stop-color="#FFCCDD"></stop>
</radialGradient>
</defs>
</svg>
